<?xml version="1.0" standalone="no"?>
<!DOCTYPE svg PUBLIC "-//W3C//DTD SVG 1.1//EN" "http://www.w3.org/Graphics/SVG/1.1/DTD/svg11.dtd" >
<svg xmlns="http://www.w3.org/2000/svg" xmlns:xlink="http://www.w3.org/1999/xlink" version="1.1">
<metadata>
Created by FontForge 20170731 at Fri Aug  5 19:24:43 2016
 By ,,,
2013 published by Monotype GmbH
</metadata>
<defs>
<font id="MarkOT-BoldItalic" horiz-adv-x="1200" >
  <font-face 
    font-family="Mark OT"
    font-weight="700"
    font-style="italic"
    font-stretch="normal"
    units-per-em="2000"
    panose-1="2 11 8 4 2 2 1 1 1 4"
    ascent="1580"
    descent="-420"
    x-height="969"
    cap-height="1400"
    bbox="-1355 -473 2957 2001"
    underline-thickness="136"
    underline-position="-532"
    slope="-12"
    unicode-range="U+000D-FEFF"
  />
<missing-glyph horiz-adv-x="1161" 
d="M26 0v1400h1109v-1400h-1109zM238 212h685v976h-685v-976z" />
    <glyph glyph-name=".notdef" horiz-adv-x="1161" 
d="M26 0v1400h1109v-1400h-1109zM238 212h685v976h-685v-976z" />
    <glyph glyph-name=".null" horiz-adv-x="0" 
 />
    <glyph glyph-name=".null" horiz-adv-x="0" 
 />
    <glyph glyph-name="nonmarkingreturn" horiz-adv-x="666" 
 />
    <glyph glyph-name="CR" unicode="&#xd;" horiz-adv-x="495" 
 />
    <glyph glyph-name="space" unicode=" " horiz-adv-x="495" 
 />
    <glyph glyph-name="exclam" unicode="!" horiz-adv-x="538" 
d="M612 1400l-229 -919h-227l143 919h313zM213 355q76 0 132.5 -56.5t56.5 -132.5q0 -77 -56.5 -134t-132.5 -57q-77 0 -134 57.5t-57 133.5t57 132.5t134 56.5z" />
    <glyph glyph-name="quotedbl" unicode="&#x22;" horiz-adv-x="1101" 
d="M416 1440h260l-127 -597h-260zM832 1440h260l-127 -597h-260z" />
    <glyph glyph-name="numbersign" unicode="#" horiz-adv-x="1396" 
d="M305 1070h203l111 330h240l-111 -330h239l111 330h239l-111 -330h203l-75 -224h-203l-96 -285h202l-74 -224h-203l-113 -337h-239l113 337h-239l-113 -337h-240l113 337h-202l74 224h203l96 285h-204zM673 846l-96 -285h239l96 285h-239z" />
    <glyph glyph-name="dollar" unicode="$" horiz-adv-x="1400" 
d="M1349 1230l-139 -208q-112 76 -250 105l-69 -324q163 -38 258 -122.5t95 -222.5q0 -189 -143 -308t-376 -131l-41 -192h-222l44 206q-252 45 -393 170l150 208q109 -101 294 -138l68 320q-162 33 -254.5 121.5t-92.5 226.5q0 184 135.5 310.5t379.5 132.5l38 180h222
l-42 -197q183 -34 338 -137zM966 423q0 46 -31.5 75.5t-97.5 50.5l-60 -285q86 14 137.5 55t51.5 104zM557 977q0 -89 122 -129l62 291q-93 -13 -138.5 -58t-45.5 -104z" />
    <glyph glyph-name="percent" unicode="%" horiz-adv-x="2015" 
d="M593 1425q157 0 258 -98.5t101 -252.5q0 -168 -117.5 -289t-288.5 -121q-158 0 -259.5 98.5t-101.5 252.5q0 168 118 289t290 121zM581 1217q-75 0 -124.5 -55t-49.5 -133q0 -69 42.5 -113t107.5 -44q75 0 124.5 55t49.5 133q0 69 -42.5 113t-107.5 44zM1746 1400
l-1110 -1400h-275l1110 1400h275zM1562 736q156 0 257.5 -99t101.5 -253q0 -169 -117.5 -289.5t-289.5 -120.5q-157 0 -258.5 98.5t-101.5 252.5q0 169 118 290t290 121zM1550 527q-75 0 -124.5 -55t-49.5 -133q0 -69 42 -112.5t107 -43.5q75 0 124.5 54.5t49.5 132.5
q0 69 -42 113t-107 44z" />
    <glyph glyph-name="ampersand" unicode="&#x26;" horiz-adv-x="1436" 
d="M1161 778l173 -145l-282 -315l254 -318h-329l-105 133q-184 -158 -413 -158q-184 0 -295.5 90.5t-111.5 253.5q0 64 18.5 121t48 101t74.5 85.5t89.5 71.5t101.5 62q-55 81 -80 147.5t-25 138.5q0 162 108.5 270.5t308.5 108.5q172 0 282 -89.5t110 -232.5
q0 -56 -19 -107.5t-49 -91.5t-76.5 -79t-90.5 -67.5t-103 -60.5l159 -200zM500 207q122 0 235 101l-212 267q-93 -54 -143.5 -107.5t-50.5 -118.5q0 -66 47 -104t124 -38zM541 1041q0 -57 75 -164q102 53 155 100.5t53 106.5q0 52 -36 81t-102 29q-73 0 -109 -42.5
t-36 -110.5z" />
    <glyph glyph-name="quotesingle" unicode="'" horiz-adv-x="685" 
d="M416 1440h260l-127 -597h-260z" />
    <glyph glyph-name="parenleft" unicode="(" horiz-adv-x="789" 
d="M805 1446l69 -231q-151 -57 -264.5 -183t-170 -282.5t-56.5 -323.5q0 -162 55 -284t171 -220l-119 -223q-383 254 -383 727q0 161 48.5 321t137 297t221 243.5t291.5 158.5z" />
    <glyph glyph-name="parenright" unicode=")" horiz-adv-x="789" 
d="M20 -309l-69 231q151 57 264.5 183t170 282.5t56.5 323.5q0 162 -55 284t-171 220l119 223q383 -254 383 -727q0 -161 -48.5 -321t-137 -297t-221 -243.5t-291.5 -158.5z" />
    <glyph glyph-name="asterisk" unicode="*" horiz-adv-x="946" 
d="M312 1305l216 -106l46 241h203l-60 -261l249 56l22 -197l-253 -48l102 -202l-182 -100l-94 206l-176 -182l-138 135l183 177l-219 97z" />
    <glyph glyph-name="plus" unicode="+" 
d="M616 72h-228l74 349h-346l47 223h347l74 349h228l-74 -349h346l-47 -223h-347z" />
    <glyph glyph-name="comma" unicode="," horiz-adv-x="524" 
d="M111 316h292l-252 -596h-234z" />
    <glyph glyph-name="hyphen" unicode="-" horiz-adv-x="794" 
d="M721 646l-48 -228h-581l48 228h581z" />
    <glyph glyph-name="period" unicode="." horiz-adv-x="538" 
d="M206 363q77 0 135 -57.5t58 -135.5q0 -79 -58 -137t-135 -58q-78 0 -136.5 58t-58.5 137q0 78 58.5 135.5t136.5 57.5z" />
    <glyph glyph-name="slash" unicode="/" horiz-adv-x="1036" 
d="M1197 1540l-1063 -1740h-281l1063 1740h281z" />
    <glyph glyph-name="zero" unicode="0" horiz-adv-x="1403" 
d="M848 1425q236 0 376 -152.5t140 -404.5q0 -124 -30.5 -250t-92 -241.5t-146 -205t-201 -143t-248.5 -53.5q-235 0 -375.5 153t-140.5 404q0 123 30.5 248.5t92 241t146 206t201 144t248.5 53.5zM832 1167q-97 0 -178.5 -58t-132 -149.5t-78 -197t-27.5 -206.5
q0 -149 65 -236t180 -87q97 0 178.5 57.5t132 148.5t78.5 197t28 208q0 151 -65 237t-181 86z" />
    <glyph glyph-name="one" unicode="1" horiz-adv-x="796" 
d="M838 1422l-302 -1422h-273l220 1040l-341 -118l61 284z" />
    <glyph glyph-name="two" unicode="2" horiz-adv-x="1121" 
d="M369 1017l-154 183q78 96 195.5 160.5t265.5 64.5q109 0 196 -33.5t139.5 -89.5t80 -125t27.5 -146q0 -133 -68.5 -242.5t-229.5 -248.5l-331 -287h513l-55 -253h-912l47 214l559 484q110 95 153 162.5t43 138.5q0 70 -51 119t-143 49q-146 0 -275 -150z" />
    <glyph glyph-name="three" unicode="3" horiz-adv-x="1125" 
d="M348 1036l-142 189q183 200 476 200q203 0 324.5 -99.5t121.5 -252.5q0 -123 -75 -224t-204 -154q82 -39 127 -107t45 -157q0 -195 -151.5 -325.5t-395.5 -130.5q-161 0 -281 51.5t-186 144.5l181 172q48 -59 125 -90.5t166 -31.5q126 0 196.5 60t70.5 154
q0 74 -61.5 112.5t-165.5 38.5h-154l51 240h144q126 0 206 60t80 146q0 67 -55.5 107t-145.5 40q-164 0 -297 -143z" />
    <glyph glyph-name="four" unicode="4" horiz-adv-x="1150" 
d="M1000 881l-79 -373h195l-54 -252h-195l-54 -256h-270l54 256h-607l46 216l639 927h312l-615 -891h279l80 373h269z" />
    <glyph glyph-name="five" unicode="5" horiz-adv-x="1128" 
d="M1130 1400l-53 -251h-540l-66 -280h112q122 0 216 -38.5t147.5 -104t73 -151t1.5 -180.5q-42 -211 -189.5 -315.5t-359.5 -104.5q-149 0 -269 54.5t-198 158.5l177 170q112 -133 302 -133q111 0 179 52t82 137q16 92 -39.5 151.5t-198.5 59.5h-335l179 775h779z" />
    <glyph glyph-name="six" unicode="6" horiz-adv-x="1176" 
d="M1048 1400l-418 -483h11q197 0 331.5 -119t134.5 -310q0 -104 -41.5 -198t-113 -163.5t-175 -110.5t-221.5 -41q-211 0 -356 123t-145 320q0 201 183 421l468 561h342zM594 680q-113 0 -184 -72t-71 -176q0 -94 63.5 -153t166.5 -59q111 0 183 72t72 178
q0 95 -65.5 152.5t-164.5 57.5z" />
    <glyph glyph-name="seven" unicode="7" horiz-adv-x="1081" 
d="M1213 1400l-44 -224l-719 -1176h-322l715 1148h-653l53 252h970z" />
    <glyph glyph-name="eight" unicode="8" horiz-adv-x="1230" 
d="M770 1425q124 0 229.5 -42.5t171 -127t65.5 -193.5q0 -120 -76.5 -217.5t-214.5 -149.5q85 -44 133 -111.5t48 -153.5q0 -94 -41 -177t-115 -144.5t-184.5 -97.5t-243.5 -36q-134 0 -244.5 43t-177 125.5t-66.5 188.5q0 129 80.5 230.5t228.5 152.5q-148 86 -148 247
q0 92 38 175.5t107.5 147.5t175.5 102t234 38zM618 596q-119 0 -194.5 -62t-75.5 -155q0 -74 63 -118.5t155 -44.5q121 0 198 60t77 155q0 77 -64 121t-159 44zM751 1181q-115 0 -183.5 -59t-68.5 -150q0 -72 53.5 -113t142.5 -41q112 0 183 59t71 148q0 72 -57.5 114
t-140.5 42z" />
    <glyph glyph-name="nine" unicode="9" horiz-adv-x="1176" 
d="M220 0l417 483h-10q-198 0 -332 119t-134 310q0 104 41 198t112.5 163.5t175 110.5t221.5 41q212 0 356.5 -123t144.5 -320q0 -202 -182 -421l-468 -561h-342zM674 720q112 0 183.5 72t71.5 176q0 94 -64 153t-167 59q-110 0 -182 -72t-72 -178q0 -95 65.5 -152.5
t164.5 -57.5z" />
    <glyph glyph-name="colon" unicode=":" horiz-adv-x="538" 
d="M339 995q78 0 135.5 -57.5t57.5 -135.5q0 -79 -57.5 -137t-135.5 -58t-136.5 58t-58.5 137q0 78 58.5 135.5t136.5 57.5zM204 363q78 0 135.5 -57.5t57.5 -135.5q0 -79 -57.5 -137t-135.5 -58t-136 58t-58 137q0 78 58 135.5t136 57.5z" />
    <glyph glyph-name="semicolon" unicode=";" horiz-adv-x="524" 
d="M334 995q77 0 135 -57.5t58 -135.5q0 -79 -58 -137t-135 -58q-78 0 -136.5 58t-58.5 137q0 78 58.5 135.5t136.5 57.5zM111 316h292l-252 -596h-234z" />
    <glyph glyph-name="less" unicode="&#x3c;" 
d="M169 411l52 243l900 381l-60 -278l-620 -242l517 -243l-52 -242z" />
    <glyph glyph-name="equal" unicode="=" 
d="M1049 432l-48 -223h-920l47 223h921zM1139 856l-47 -223h-921l47 223h921z" />
    <glyph glyph-name="greater" unicode="&#x3e;" 
d="M1054 654l-52 -243l-900 -381l60 278l620 242l-517 243l52 242z" />
    <glyph glyph-name="question" unicode="?" horiz-adv-x="865" 
d="M407 478h-240l72 340h109q144 0 214.5 47.5t70.5 131.5q0 78 -79 119.5t-212 42.5q-63 0 -99 -3l16 263q57 5 120 5q246 0 396 -105t150 -288q0 -186 -124.5 -303t-362.5 -139zM237 356q76 0 132.5 -56.5t56.5 -132.5q0 -77 -56.5 -134.5t-132.5 -57.5q-77 0 -134 57.5
t-57 133.5q0 77 57 133.5t134 56.5z" />
    <glyph glyph-name="at" unicode="@" horiz-adv-x="1866" 
d="M1216 -26l107 -163q-191 -133 -463 -133q-213 0 -382 90t-265.5 256.5t-96.5 381.5q0 185 66 351.5t183.5 290.5t289.5 197t372 73q155 0 291.5 -50t235.5 -138.5t156.5 -217.5t57.5 -281q0 -150 -47.5 -273t-143 -199.5t-222.5 -76.5q-88 0 -150 37t-94 97
q-97 -114 -244 -114t-240.5 99t-93.5 257q0 179 111 309.5t274 130.5q155 0 229 -111l19 91h211l-85 -396q-10 -46 -10 -85q0 -120 93 -120q52 0 91.5 50.5t58.5 128.5t19 169q0 224 -148 359t-385 135q-197 0 -351 -96.5t-235 -256t-81 -351.5q0 -250 148.5 -393.5
t386.5 -143.5q191 0 337 96zM942 695q-81 0 -134 -64t-53 -154q0 -80 45 -127.5t115 -47.5q82 0 135.5 64.5t53.5 154.5q0 78 -45 126t-117 48z" />
    <glyph glyph-name="A" unicode="A" horiz-adv-x="1465" 
d="M1094 1400l241 -1400h-285l-51 326h-583l-188 -326h-304l831 1400h339zM875 1121l-311 -538h395z" />
    <glyph glyph-name="B" unicode="B" horiz-adv-x="1359" 
d="M347 1400h545q209 0 334.5 -93.5t125.5 -248.5q0 -120 -68.5 -214.5t-188.5 -136.5q91 -38 138.5 -132t21.5 -206q-20 -85 -56.5 -148.5t-88 -105.5t-123 -67.5t-154.5 -36.5t-189 -11h-595zM751 582h-293l-72 -336l293 -1q128 0 200 32.5t91 116.5q22 96 -37 142
t-182 46zM844 1154h-265l-69 -327h265q286 0 286 191q0 70 -59.5 103t-157.5 33z" />
    <glyph glyph-name="C" unicode="C" horiz-adv-x="1451" 
d="M1158 400l196 -176q-221 -249 -545 -249q-195 0 -350 83.5t-241.5 234.5t-86.5 343q0 167 60 314t163.5 251t249 164t309.5 60q54 0 106 -5.5t121 -25t128 -51.5t120 -89.5t105 -134.5l-232 -154q-118 193 -364 193q-196 0 -335 -144.5t-139 -356.5q0 -186 114.5 -300
t283.5 -114q196 0 337 157z" />
    <glyph glyph-name="D" unicode="D" horiz-adv-x="1519" 
d="M347 1400h495q296 0 471 -164.5t175 -425.5q0 -169 -58.5 -316t-166 -257t-271.5 -173.5t-364 -63.5h-579zM810 1139h-234l-187 -878h272q245 0 388.5 144.5t143.5 371.5q0 167 -96 264.5t-287 97.5z" />
    <glyph glyph-name="E" unicode="E" horiz-adv-x="1294" 
d="M1217 834l-55 -256h-705l-69 -322h744l-55 -256h-1028l298 1400h1018l-55 -256h-733l-66 -310h706z" />
    <glyph glyph-name="F" unicode="F" horiz-adv-x="1250" 
d="M1205 824l-55 -257h-696l-120 -567h-285l298 1400h1007l-55 -257h-722l-68 -319h696z" />
    <glyph glyph-name="G" unicode="G" horiz-adv-x="1579" 
d="M1432 1198l-214 -183q-117 146 -324 146q-200 0 -337.5 -146t-137.5 -370q0 -188 112 -299t294 -111q158 0 261 77.5t144 225.5h-362l51 233h621q2 -36 -5 -101q-26 -211 -126.5 -369.5t-256 -242.5t-346.5 -84q-193 0 -347 81.5t-242 231t-88 339.5q0 170 61 319
t166 254t250.5 165.5t310.5 60.5q59 0 119 -9t132.5 -31.5t142 -70.5t121.5 -116z" />
    <glyph glyph-name="H" unicode="H" horiz-adv-x="1532" 
d="M632 1400l-120 -564h657l121 564h285l-299 -1400h-285l123 576h-658l-122 -576h-285l298 1400h285z" />
    <glyph glyph-name="I" unicode="I" horiz-adv-x="589" 
d="M632 1400l-298 -1400h-285l298 1400h285z" />
    <glyph glyph-name="J" unicode="J" horiz-adv-x="1074" 
d="M1122 1400l-192 -915q-55 -263 -192 -386.5t-352 -123.5q-133 0 -243.5 52t-176.5 146l177 197q40 -57 104 -92.5t141 -35.5q107 0 171.5 72t97.5 228l181 858h284z" />
    <glyph glyph-name="K" unicode="K" horiz-adv-x="1388" 
d="M632 1400l-121 -567h105l549 567h362l-708 -701l476 -699h-327l-386 576h-126l-122 -576h-285l298 1400h285z" />
    <glyph glyph-name="L" unicode="L" horiz-adv-x="1184" 
d="M632 1400l-243 -1139h717l-56 -261h-1001l298 1400h285z" />
    <glyph glyph-name="M" unicode="M" horiz-adv-x="1824" 
d="M1867 1400l-298 -1400h-284l222 1039l-512 -904h-296l-146 905l-220 -1040h-284l298 1400h399l150 -952l547 952h424z" />
    <glyph glyph-name="N" unicode="N" horiz-adv-x="1545" 
d="M1588 1400l-298 -1400h-262l-490 964l-205 -964h-284l298 1400h263l489 -964l205 964h284z" />
    <glyph glyph-name="O" unicode="O" horiz-adv-x="1632" 
d="M915 1425q194 0 348.5 -80.5t243 -230.5t88.5 -343q0 -161 -58.5 -307t-161 -254.5t-250 -172t-316.5 -63.5q-194 0 -348.5 80.5t-243 230.5t-88.5 344q0 161 58.5 307t161 254t250 171.5t316.5 63.5zM897 1158q-137 0 -247 -70.5t-169.5 -187t-59.5 -252.5
q0 -184 113 -295t294 -111q136 0 246 70.5t169.5 186.5t59.5 253q0 183 -113.5 294.5t-292.5 111.5z" />
    <glyph glyph-name="P" unicode="P" horiz-adv-x="1279" 
d="M729 512h-286l-109 -512h-285l298 1400h500q220 0 342 -108.5t122 -280.5q0 -228 -154.5 -363.5t-427.5 -135.5zM814 1143h-237l-80 -376h246q136 0 208 55.5t72 158.5q0 78 -53 120t-156 42z" />
    <glyph glyph-name="Q" unicode="Q" horiz-adv-x="1664" 
d="M915 1425q194 0 348.5 -80.5t243 -230.5t88.5 -343q0 -276 -158 -487l186 -284h-316l-66 99q-191 -125 -432 -125q-194 0 -348.5 80.5t-243 230.5t-88.5 344q0 161 58.5 307t161 254t250 171.5t316.5 63.5zM897 1158q-137 0 -247 -70.5t-169.5 -187t-59.5 -252.5
q0 -184 113 -295t294 -111q146 0 261 80l-209 322h314l68 -104q41 102 41 212q0 183 -113.5 294.5t-292.5 111.5z" />
    <glyph glyph-name="R" unicode="R" horiz-adv-x="1329" 
d="M347 1400h533q219 0 342 -107t123 -271q0 -63 -15.5 -123t-53.5 -120.5t-95 -106.5t-147.5 -77t-204.5 -37l385 -558h-326l-362 557h-74l-118 -557h-285zM846 1142h-269l-73 -342h295q73 0 126 16.5t80 46t39 61t12 69.5q0 69 -54.5 109t-155.5 40z" />
    <glyph glyph-name="S" unicode="S" horiz-adv-x="1328" 
d="M1338 1261l-149 -224q-97 68 -208.5 98.5t-212.5 30.5q-129 0 -193.5 -50t-64.5 -124q0 -66 57 -102t162 -56l84 -16q191 -36 302 -127t111 -247q0 -213 -165.5 -341.5t-431.5 -128.5q-149 0 -316 48t-280 148l161 224q91 -83 218 -122.5t235 -39.5q122 0 200.5 46
t78.5 127q0 64 -59 100t-187 59l-89 17q-177 33 -279.5 127.5t-102.5 244.5q0 96 37 181t106 150t178 103t245 38q323 0 563 -164z" />
    <glyph glyph-name="T" unicode="T" horiz-adv-x="1193" 
d="M1357 1400l-56 -261h-419l-242 -1139h-285l242 1139h-427l56 261h1131z" />
    <glyph glyph-name="U" unicode="U" horiz-adv-x="1455" 
d="M1513 1400l-182 -861q-119 -564 -660 -564q-157 0 -275.5 49.5t-187.5 152t-69 248.5q0 68 17 151l176 824h286l-177 -827q-12 -57 -12 -102q0 -116 69 -172.5t194 -56.5q137 0 231 79t129 246l176 833h285z" />
    <glyph glyph-name="V" unicode="V" horiz-adv-x="1433" 
d="M1601 1400l-810 -1400h-340l-229 1400h284l164 -1118l630 1118h301z" />
    <glyph glyph-name="W" unicode="W" horiz-adv-x="2167" 
d="M2319 1400l-704 -1400h-330l-81 1003l-498 -1003h-344l-124 1400h282l79 -1078l529 1078h295l81 -1071l518 1071h297z" />
    <glyph glyph-name="X" unicode="X" horiz-adv-x="1341" 
d="M1491 1400l-619 -705l324 -695h-304l-213 486l-414 -486h-342l630 717l-312 683h303l202 -481l406 481h339z" />
    <glyph glyph-name="Y" unicode="Y" horiz-adv-x="1347" 
d="M1534 1400l-702 -848l-118 -552h-285l122 576l-348 824h298l230 -584l463 584h340z" />
    <glyph glyph-name="Z" unicode="Z" horiz-adv-x="1283" 
d="M1368 1400l-47 -225l-879 -918h717l-55 -257h-1090l50 231l877 912h-710l55 257h1082z" />
    <glyph glyph-name="bracketleft" unicode="[" horiz-adv-x="756" 
d="M586 -27l-50 -236h-543l354 1663h543l-50 -236h-279l-253 -1191h278z" />
    <glyph glyph-name="backslash" unicode="\" horiz-adv-x="922" 
d="M511 -200l-288 1740h248l288 -1740h-248z" />
    <glyph glyph-name="bracketright" unicode="]" horiz-adv-x="756" 
d="M206 1164l50 236h543l-354 -1663h-543l50 236h278l253 1191h-277z" />
    <glyph glyph-name="asciicircum" unicode="^" 
d="M445 635h-261l357 765h243l357 -765h-266l-216 505z" />
    <glyph glyph-name="underscore" unicode="_" horiz-adv-x="940" 
d="M820 -103l-45 -212h-950l45 212h950z" />
    <glyph glyph-name="grave" unicode="`" horiz-adv-x="1000" 
d="M877 1108h-249l-264 315h312z" />
    <glyph glyph-name="a" unicode="a" horiz-adv-x="1199" 
d="M600 995q199 0 292 -124l22 98h259l-206 -969h-254l17 80q-108 -106 -262 -106q-175 0 -292 128.5t-117 317.5q0 104 38 206t105.5 184.5t172 133.5t225.5 51zM548 218q107 0 183.5 75t90.5 189q15 120 -47.5 195t-168.5 75q-117 0 -197 -89.5t-80 -215.5q0 -103 61 -166
t158 -63z" />
    <glyph glyph-name="b" unicode="b" horiz-adv-x="1202" 
d="M602 -25q-200 0 -293 124l-21 -99h-262l306 1440h262l-109 -510q96 66 229 66q184 0 306.5 -128.5t122.5 -317.5q0 -104 -38 -206t-106 -184.5t-172 -133.5t-225 -51zM653 751q-107 0 -183.5 -74.5t-90.5 -188.5q-15 -120 47.5 -195t168.5 -75q118 0 198 89.5t80 214.5
q0 104 -61.5 166.5t-158.5 62.5z" />
    <glyph glyph-name="c" unicode="c" horiz-adv-x="1023" 
d="M1031 767l-219 -124q-76 108 -207 108q-117 0 -195.5 -87t-78.5 -210q0 -103 61.5 -168.5t153.5 -65.5q122 0 210 94l171 -161q-74 -85 -175 -130.5t-216 -45.5q-211 0 -342 130t-131 329q0 151 70 278t198 203t287 76q289 0 413 -226z" />
    <glyph glyph-name="d" unicode="d" horiz-adv-x="1202" 
d="M600 995q199 0 292 -124l122 569h262l-306 -1440h-257l17 79q-110 -105 -262 -105q-175 0 -292 128.5t-117 317.5q0 104 38 206t105.5 184.5t172 133.5t225.5 51zM548 218q107 0 183.5 75t90.5 189q15 120 -47.5 195t-168.5 75q-117 0 -197 -89.5t-80 -215.5
q0 -103 61 -166t158 -63z" />
    <glyph glyph-name="e" unicode="e" horiz-adv-x="1072" 
d="M776 281l134 -170q-155 -137 -396 -137q-214 0 -336.5 118.5t-122.5 306.5q0 77 19.5 156.5t63 159t106.5 141.5t158.5 100.5t209.5 38.5q184 0 298.5 -108t114.5 -287q0 -49 -11 -106.5t-27 -95.5h-673q3 -96 61.5 -149t160.5 -53q133 0 240 85zM597 770
q-97 0 -159 -54.5t-94 -139.5h429q1 6 1 18q0 85 -47.5 130.5t-129.5 45.5z" />
    <glyph glyph-name="f" unicode="f" horiz-adv-x="818" 
d="M867 969l-49 -232h-284l-157 -737h-262l157 737h-179l49 232h179l31 144q76 352 387 352q171 0 279 -91l-132 -195q-69 44 -137 44q-112 0 -142 -147l-23 -107h283z" />
    <glyph glyph-name="g" unicode="g" horiz-adv-x="1194" 
d="M1168 969l-196 -915q-48 -224 -187.5 -345.5t-347.5 -121.5q-257 0 -456 139l122 206q151 -115 325 -115q115 0 191 66t98 174l4 20q-96 -69 -233 -69q-184 0 -305 120.5t-121 303.5q0 106 37 206.5t104 180t169.5 128t223.5 48.5q199 0 291 -122l21 96h260zM544 248
q119 0 196 81t77 206q0 95 -61 157t-155 62q-119 0 -195.5 -81.5t-76.5 -208.5q0 -94 60.5 -155t154.5 -61z" />
    <glyph glyph-name="h" unicode="h" horiz-adv-x="1161" 
d="M742 995q149 0 237.5 -90t88.5 -235q0 -56 -11 -105l-121 -565h-262l117 544q7 31 7 64q0 65 -36.5 103.5t-114.5 38.5q-89 0 -156 -55.5t-92 -174.5l-110 -520h-263l306 1440h262l-117 -553q104 108 265 108z" />
    <glyph glyph-name="i" unicode="i" horiz-adv-x="521" 
d="M495 969l-206 -969h-263l206 969h263zM430 1454q70 0 118.5 -48.5t48.5 -119.5q0 -70 -48 -118t-119 -48q-70 0 -118 48t-48 118q0 71 48 119.5t118 48.5z" />
    <glyph glyph-name="j" unicode="j" horiz-adv-x="528" 
d="M502 969l-230 -1082q-33 -153 -124.5 -230.5t-222.5 -77.5q-100 0 -176 38l81 219q32 -14 69 -14q42 0 75 28t45 85l219 1034h264zM435 1454q70 0 118.5 -48.5t48.5 -119.5q0 -70 -48 -118t-119 -48t-118.5 48t-47.5 118q0 71 48 119.5t118 48.5z" />
    <glyph glyph-name="k" unicode="k" horiz-adv-x="1070" 
d="M595 1440l-173 -816h78l321 345h329l-467 -477l288 -492h-289l-220 392h-90l-83 -392h-263l306 1440h263z" />
    <glyph glyph-name="l" unicode="l" horiz-adv-x="521" 
d="M595 1440l-306 -1440h-263l306 1440h263z" />
    <glyph glyph-name="m" unicode="m" horiz-adv-x="1809" 
d="M1379 995q154 0 245.5 -90.5t91.5 -234.5q0 -56 -11 -105l-122 -565h-262l117 544q7 31 7 64q0 65 -36.5 103.5t-116.5 38.5q-89 0 -156 -55.5t-92 -174.5l-110 -520h-261l116 544q9 53 4.5 99t-42 76.5t-105.5 30.5q-89 0 -156 -55.5t-92 -174.5l-110 -520h-262l206 969
h252l-22 -98q108 124 280 124q101 0 175.5 -43t112.5 -119q129 162 349 162z" />
    <glyph glyph-name="n" unicode="n" horiz-adv-x="1161" 
d="M742 995q149 0 237.5 -90t88.5 -235q0 -56 -11 -105l-121 -565h-262l117 544q7 31 7 64q0 65 -36.5 103.5t-115.5 38.5q-89 0 -156 -55.5t-92 -174.5l-110 -520h-262l206 969h252l-22 -98q108 124 280 124z" />
    <glyph glyph-name="o" unicode="o" horiz-adv-x="1171" 
d="M624 995q211 0 347.5 -129.5t136.5 -334.5q0 -113 -42.5 -215t-116.5 -177.5t-178.5 -120t-223.5 -44.5q-210 0 -347 129.5t-137 335.5q0 150 72 277.5t201.5 203t287.5 75.5zM606 752q-117 0 -196.5 -86.5t-79.5 -210.5q0 -105 65 -171.5t168 -66.5q118 0 198 87t80 210
q0 105 -65.5 171.5t-169.5 66.5z" />
    <glyph glyph-name="p" unicode="p" horiz-adv-x="1201" 
d="M601 -25q-200 0 -292 123l-105 -498h-263l291 1369h256l-17 -79q109 106 262 106q175 0 292 -128.5t117 -317.5q0 -104 -38 -206t-105.5 -184.5t-172 -133.5t-225.5 -51zM653 751q-107 0 -183.5 -74.5t-90.5 -188.5q-15 -120 47.5 -195t168.5 -75q117 0 197 89.5
t80 214.5q0 104 -61 166.5t-158 62.5z" />
    <glyph glyph-name="q" unicode="q" 
d="M600 995q199 0 292 -124l22 98h260l-291 -1369h-263l93 437q-95 -63 -226 -63q-184 0 -306 128.5t-122 317.5q0 104 38 206t105.5 184.5t172 133.5t225.5 51zM548 218q107 0 183.5 75t90.5 189q15 120 -47.5 195t-168.5 75q-117 0 -197 -89.5t-80 -215.5q0 -103 61 -166
t158 -63z" />
    <glyph glyph-name="r" unicode="r" horiz-adv-x="817" 
d="M397 516l-109 -516h-262l206 969h252l-23 -102q106 128 276 128q71 0 144 -29l-84 -251q-59 31 -141 31q-95 0 -164 -58t-95 -172z" />
    <glyph glyph-name="s" unicode="s" horiz-adv-x="967" 
d="M962 887l-119 -195q-64 39 -151.5 62t-152.5 23q-146 0 -155 -79q-2 -20 3.5 -34.5t15 -24t30 -17t37.5 -11.5t50 -10l65 -12q161 -29 231 -106.5t56 -193.5q-17 -147 -133 -230.5t-311 -83.5q-119 0 -239.5 34.5t-202.5 96.5l125 191q153 -105 321 -105q166 0 175 90
q4 36 -27.5 57.5t-106.5 34.5l-67 11q-162 26 -233.5 105.5t-56.5 200.5q18 147 129.5 225t293.5 78q238 0 423 -107z" />
    <glyph glyph-name="t" unicode="t" horiz-adv-x="923" 
d="M926 969l-50 -232h-339l-75 -351q-18 -85 12.5 -126.5t97.5 -41.5q78 0 169 55l92 -206q-143 -92 -309 -92q-198 0 -282 109.5t-44 299.5l75 353h-181l50 232h181l62 288h263l-62 -288h340z" />
    <glyph glyph-name="u" unicode="u" horiz-adv-x="1152" 
d="M1134 969l-121 -568q-20 -93 -57 -165.5t-85 -121t-109 -80.5t-126 -45.5t-139 -13.5q-178 0 -288 92.5t-110 259.5q0 53 14 118l111 524h263l-116 -544q-7 -34 -7 -64q0 -72 42 -107.5t115 -35.5q88 0 152 58t87 171l110 522h264z" />
    <glyph glyph-name="v" unicode="v" horiz-adv-x="1085" 
d="M1173 969l-568 -969h-301l-186 969h268l113 -704l390 704h284z" />
    <glyph glyph-name="w" unicode="w" horiz-adv-x="1703" 
d="M1075 969l81 -674l345 674h283l-527 -969h-290l-76 656l-333 -656h-299l-133 969h262l75 -674l344 674h268z" />
    <glyph glyph-name="x" unicode="x" horiz-adv-x="1085" 
d="M1140 969l-446 -494l262 -475h-285l-159 300l-258 -300h-315l449 495l-259 474h288l151 -305l256 305h316z" />
    <glyph glyph-name="y" unicode="y" horiz-adv-x="1120" 
d="M1216 969l-943 -1373h-298l451 638l-313 735h282l196 -493l328 493h297z" />
    <glyph glyph-name="z" unicode="z" horiz-adv-x="1007" 
d="M1007 969l-43 -199l-560 -537h472l-49 -233h-827l41 199l567 538h-464l50 232h813z" />
    <glyph glyph-name="braceleft" unicode="{" horiz-adv-x="874" 
d="M989 1400l-50 -232h-46q-97 0 -150.5 -43t-69.5 -140l-16 -94q-22 -138 -85 -216.5t-187 -115.5q68 -29 105 -79t41.5 -108t-11.5 -125l-25 -94q-24 -90 15.5 -136.5t128.5 -46.5h65l-50 -232h-86q-83 0 -148.5 23.5t-106.5 65.5t-64.5 100t-23 127t17.5 146l17 68
q23 88 -24 137t-151 49l49 229q116 0 176.5 49t78.5 151l22 128q33 194 153 291.5t335 97.5h90z" />
    <glyph glyph-name="bar" unicode="|" horiz-adv-x="685" 
d="M667 1400l-354 -1665h-260l354 1665h260z" />
    <glyph glyph-name="braceright" unicode="}" horiz-adv-x="874" 
d="M-79 -262l50 232h46q97 0 150.5 43t69.5 140l16 94q24 138 86 216t185 116q-101 43 -131.5 125t-2.5 187l25 94q24 90 -15.5 136.5t-128.5 46.5h-65l50 232h86q83 0 148.5 -23.5t106.5 -65.5t64.5 -100t23 -127t-17.5 -146l-17 -68q-23 -88 24 -137t151 -49l-49 -229
q-116 0 -176.5 -49t-78.5 -151l-22 -128q-33 -194 -153 -291.5t-335 -97.5h-90z" />
    <glyph glyph-name="asciitilde" unicode="~" 
d="M991 681l100 -173q-151 -128 -313 -128q-60 0 -113.5 14t-85.5 30.5t-75 30.5t-84 14q-47 0 -88.5 -20.5t-95.5 -65.5l-100 173q149 128 313 128q60 0 113.5 -14t85.5 -30.5t75 -30.5t84 -14q47 0 88.5 20.5t95.5 65.5z" />
    <glyph glyph-name="uni00A0" unicode="&#xa0;" horiz-adv-x="495" 
 />
    <glyph glyph-name="exclamdown" unicode="&#xa1;" horiz-adv-x="538" 
d="M-74 -430l229 919h227l-143 -919h-313zM325 615q-76 0 -132.5 56.5t-56.5 132.5q0 77 56.5 134t132.5 57q77 0 134 -57.5t57 -133.5t-57 -132.5t-134 -56.5z" />
    <glyph glyph-name="cent" unicode="&#xa2;" horiz-adv-x="1400" 
d="M1268 985l-210 -124q-41 53 -97 82l-107 -506q82 22 145 85l163 -158q-69 -77 -162 -121.5t-198 -50.5l-41 -192h-222l47 220q-139 49 -219 164.5t-80 266.5q0 142 63.5 263t180.5 198.5t264 90.5l42 197h222l-46 -216q167 -50 255 -199zM548 668q0 -128 91 -196l103 481
q-87 -31 -140.5 -109.5t-53.5 -175.5z" />
    <glyph glyph-name="sterling" unicode="&#xa3;" horiz-adv-x="1400" 
d="M1184 253l-54 -253h-1044l54 253h152l72 338h-153l47 218h152l27 127q51 241 200 365t359 124q255 0 377 -163l-199 -175q-74 80 -201 80q-217 0 -274 -279l-17 -79h473l-47 -218h-472l-71 -338h619z" />
    <glyph glyph-name="currency" unicode="&#xa4;" horiz-adv-x="1400" 
d="M1233 1237l123 -155l-173 -143q63 -124 45 -264q-18 -146 -112 -259l101 -127l-168 -139l-102 128q-125 -64 -259 -57q-141 7 -251 90l-179 -149l-122 156l174 144q-62 118 -45 263q18 143 111 257l-102 129l168 140l103 -131q126 65 261 58q141 -7 248 -88zM713 428
q114 -7 203.5 68t103.5 190q14 113 -55.5 196t-183.5 89q-115 6 -204.5 -68.5t-103.5 -188.5t55.5 -197.5t184.5 -88.5z" />
    <glyph glyph-name="yen" unicode="&#xa5;" horiz-adv-x="1400" 
d="M1190 454l-39 -185h-357l-57 -269h-270l57 269h-355l40 185h355l29 135h-357l41 185h273l-284 626h297l211 -508l424 508h324l-543 -626h280l-41 -185h-355l-29 -135h356z" />
    <glyph glyph-name="brokenbar" unicode="&#xa6;" horiz-adv-x="685" 
d="M667 1400l-148 -694h-260l148 694h260zM461 429l-148 -694h-260l148 694h260z" />
    <glyph glyph-name="section" unicode="&#xa7;" horiz-adv-x="1231" 
d="M1273 1294l-151 -203q-158 96 -335 96q-99 0 -169.5 -34t-80.5 -88q-7 -39 5 -66.5t44 -44.5t68 -27t92 -18l64 -10q191 -30 277 -124.5t55 -239.5q-33 -151 -177 -233q94 -102 63 -254q-19 -91 -72 -162.5t-128.5 -115.5t-164.5 -66.5t-186 -22.5q-146 0 -281.5 42
t-213.5 118l162 198q61 -52 153 -86.5t196 -34.5q102 0 174.5 34t84.5 92q14 69 -39 99t-185 53l-74 12q-168 28 -253 118t-56 225q34 156 182 242q-99 102 -65 270q33 164 180.5 263t353.5 99q280 0 477 -131zM572 686l-38 6q-102 -41 -118 -121q-6 -28 2.5 -49t25.5 -34.5
t50 -24.5t63.5 -17t77.5 -13l64 -9q48 -8 70 -14q91 39 106 109q15 71 -42.5 105.5t-187.5 51.5z" />
    <glyph glyph-name="dieresis" unicode="&#xa8;" horiz-adv-x="1070" 
d="M485 1424q71 0 119.5 -49t48.5 -119t-48.5 -118t-119.5 -48t-118.5 48t-47.5 118q0 71 48 119.5t118 48.5zM916 1424q70 0 119 -49t49 -119t-48.5 -118t-119.5 -48q-70 0 -118 48t-48 118q0 71 48 119.5t118 48.5z" />
    <glyph glyph-name="copyright" unicode="&#xa9;" horiz-adv-x="1859" 
d="M923 -95q-157 0 -299 57t-246.5 156t-166.5 239t-62 299q0 168 69.5 325t187 274.5t282 188.5t345.5 71q157 0 299 -57t246.5 -156t166 -239t61.5 -299q0 -168 -69.5 -325t-186.5 -274.5t-281.5 -188.5t-345.5 -71zM1018 1296q-175 0 -322.5 -88t-231 -232t-83.5 -306
q0 -155 76 -281t203.5 -195.5t277.5 -69.5q175 0 322.5 88t231 232t83.5 306q0 155 -76 281t-203.5 195.5t-277.5 69.5zM1389 907l-201 -96q-55 111 -181 111q-94 0 -153.5 -68.5t-59.5 -166.5q0 -88 52.5 -137.5t131.5 -49.5q108 0 183 99l161 -121q-131 -184 -356 -184
q-168 0 -284 102t-116 278q0 123 56 226t159.5 165t234.5 62q129 0 229.5 -58.5t143.5 -161.5z" />
    <glyph glyph-name="ordfeminine" unicode="&#xaa;" horiz-adv-x="762" 
d="M501 1287q137 0 216.5 -66.5t79.5 -182.5q0 -37 -9 -79l-81 -381h-187l10 50q-82 -68 -185 -68q-101 0 -163.5 54.5t-62.5 139.5q0 109 81.5 175t222.5 66h178q1 7 1 20q0 102 -136 102q-84 0 -186 -55l-51 156q124 69 272 69zM407 715q82 0 152 67l17 79h-135
q-55 0 -86 -22t-31 -59q0 -30 21.5 -47.5t61.5 -17.5z" />
    <glyph glyph-name="guillemotleft" unicode="&#xab;" horiz-adv-x="1087" 
d="M1088 922l-295 -417l102 -363h-249l-109 390l276 390h275zM639 922l-295 -417l102 -363h-249l-109 390l276 390h275z" />
    <glyph glyph-name="logicalnot" unicode="&#xac;" 
d="M964 108h-228l66 313h-693l47 223h921z" />
    <glyph glyph-name="uni00AD" unicode="&#xad;" horiz-adv-x="794" 
d="M721 646l-48 -228h-581l48 228h581z" />
    <glyph glyph-name="registered" unicode="&#xae;" horiz-adv-x="1051" 
d="M662 1443q117 0 217 -53t160 -151t60 -220q0 -126 -65 -237t-180 -179.5t-250 -68.5q-118 0 -217.5 53t-160 151t-60.5 220q0 127 65 238t180 179t251 68zM611 668q140 0 239.5 104t99.5 239q0 128 -86.5 213t-208.5 85q-142 0 -242 -103.5t-100 -238.5q0 -129 87.5 -214
t210.5 -85zM511 1195h182q79 0 121 -45t29 -103q-21 -101 -149 -116l108 -143h-131l-93 141h-7l-30 -141h-116zM680 1094h-75l-15 -71h75q53 0 60 33q4 18 -8 28t-37 10z" />
    <glyph glyph-name="macron" unicode="&#xaf;" horiz-adv-x="1054" 
d="M342 1151l45 209h661l-45 -209h-661z" />
    <glyph glyph-name="degree" unicode="&#xb0;" horiz-adv-x="852" 
d="M517 654q-154 0 -259 104.5t-105 251.5q0 171 120 292t298 121q153 0 258 -105.5t105 -253.5q0 -168 -121.5 -289t-295.5 -121zM530 857q73 0 130.5 56.5t57.5 135.5q0 69 -47.5 118t-113.5 49q-74 0 -131 -56t-57 -135q0 -70 46.5 -119t114.5 -49z" />
    <glyph glyph-name="plusminus" unicode="&#xb1;" 
d="M680 317h-228l55 259h-345l46 223h347l69 322h227l-69 -322h347l-47 -223h-347zM1007 223l-48 -223h-920l47 223h921z" />
    <glyph glyph-name="twosuperior" unicode="&#xb2;" horiz-adv-x="727" 
d="M330 1152l-108 131q119 131 292 131q133 0 204 -71t71 -170q0 -81 -41 -145t-148 -151l-148 -119h282l-38 -180h-566l33 156l315 256q61 49 85 84t24 70q0 36 -28 60t-75 24q-46 0 -79 -18.5t-75 -57.5z" />
    <glyph glyph-name="threesuperior" unicode="&#xb3;" horiz-adv-x="719" 
d="M304 1168l-89 138q116 108 293 108q126 0 202.5 -62.5t76.5 -151.5q0 -69 -44.5 -129t-117.5 -89q48 -24 74 -64.5t26 -89.5q0 -113 -90.5 -189t-245.5 -76q-201 0 -286 120l127 121q56 -68 162 -68q66 0 100 27t34 70q0 37 -33.5 57t-87.5 20h-90l34 166h89
q68 0 106.5 27t38.5 68q0 33 -29 52t-77 19q-91 0 -173 -74z" />
    <glyph glyph-name="acute" unicode="&#xb4;" horiz-adv-x="1000" 
d="M658 1107h-255l232 316h319z" />
    <glyph glyph-name="mu" unicode="&#xb5;" horiz-adv-x="1161" 
d="M188 -400h-256l293 1369h262l-117 -544q-7 -31 -7 -64q0 -65 36.5 -103.5t115.5 -38.5q89 0 156 55.5t92 174.5l110 520h262l-206 -969h-252l22 98q-108 -124 -280 -124q-81 0 -146 28z" />
    <glyph glyph-name="paragraph" unicode="&#xb6;" horiz-adv-x="1287" 
d="M464 0l127 596q-185 8 -285 108t-100 257q0 42 7 83.5t24 85.5t43.5 82.5t67.5 73.5t92.5 60t123 39.5t155.5 14.5h245l-298 -1400h-202zM769 0l298 1400h202l-298 -1400h-202z" />
    <glyph glyph-name="periodcentered" unicode="&#xb7;" horiz-adv-x="637" 
d="M335 726q77 0 135 -57.5t58 -135.5q0 -79 -58 -137t-135 -58q-78 0 -136.5 58t-58.5 137q0 78 58.5 135.5t136.5 57.5z" />
    <glyph glyph-name="cedilla" unicode="&#xb8;" horiz-adv-x="1000" 
d="M578 7l-162 -328h-265l181 328h246z" />
    <glyph glyph-name="onesuperior" unicode="&#xb9;" horiz-adv-x="530" 
d="M612 1413l-177 -835h-195l121 570l-191 -59l42 200z" />
    <glyph glyph-name="ordmasculine" unicode="&#xba;" horiz-adv-x="855" 
d="M548 1287q150 0 248 -92t98 -239q0 -164 -114.5 -280t-285.5 -116q-150 0 -248 92t-98 240q0 164 114.5 279.5t285.5 115.5zM534 1106q-79 0 -133 -59t-54 -144q0 -71 44 -117t114 -46q81 0 136 59.5t55 144.5q0 72 -45.5 117t-116.5 45z" />
    <glyph glyph-name="guillemotright" unicode="&#xbb;" horiz-adv-x="1087" 
d="M19 143l295 417l-102 363h249l109 -390l-276 -390h-275zM468 143l295 417l-102 363h249l109 -390l-276 -390h-275z" />
    <glyph glyph-name="onequarter" unicode="&#xbc;" horiz-adv-x="1654" 
d="M1461 1400l-1055 -1400h-253l1055 1400h253zM1531 535l-46 -215h104l-38 -181h-105l-29 -139h-195l29 139h-357l33 155l355 527h222l-337 -501h123l19 91l83 124h139zM612 1413l-177 -835h-195l121 570l-191 -59l42 200z" />
    <glyph glyph-name="onehalf" unicode="&#xbd;" horiz-adv-x="1763" 
d="M1461 1400l-1055 -1400h-253l1055 1400h253zM1242 574l-108 131q119 131 292 131q133 0 204 -71t71 -170q0 -81 -41 -145t-148 -151l-148 -119h282l-38 -180h-566l33 156l315 256q61 49 85 84t24 70q0 36 -28 60t-75 24q-46 0 -79 -18.5t-75 -57.5zM612 1413l-177 -835
h-195l121 570l-191 -59l42 200z" />
    <glyph glyph-name="threequarters" unicode="&#xbe;" horiz-adv-x="1820" 
d="M1627 1400l-1055 -1400h-253l1055 1400h253zM1697 535l-46 -215h104l-38 -181h-105l-29 -139h-195l29 139h-357l33 155l355 527h222l-337 -501h123l19 91l83 124h139zM304 1168l-89 138q116 108 293 108q126 0 202.5 -62.5t76.5 -151.5q0 -69 -44.5 -129t-117.5 -89
q48 -24 74 -64.5t26 -89.5q0 -113 -90.5 -189t-245.5 -76q-201 0 -286 120l127 121q56 -68 162 -68q66 0 100 27t34 70q0 37 -33.5 57t-87.5 20h-90l34 166h89q68 0 106.5 27t38.5 68q0 33 -29 52t-77 19q-91 0 -173 -74z" />
    <glyph glyph-name="questiondown" unicode="&#xbf;" horiz-adv-x="865" 
d="M458 492h240l-72 -340h-109q-144 0 -214.5 -47.5t-70.5 -131.5q0 -78 79 -119.5t212 -42.5q63 0 99 3l-16 -263q-57 -5 -120 -5q-246 0 -396 105t-150 288q0 185 124.5 302.5t361.5 139.5zM628 614q-76 0 -132.5 56.5t-56.5 132.5q0 77 56.5 134.5t132.5 57.5
t133.5 -57.5t57.5 -133.5q0 -77 -57 -133.5t-134 -56.5z" />
    <glyph glyph-name="Agrave" unicode="&#xc0;" horiz-adv-x="1465" 
d="M1094 1400l241 -1400h-285l-51 326h-583l-188 -326h-304l831 1400h339zM875 1121l-311 -538h395zM852 1518l-264 315h312l201 -315h-249z" />
    <glyph glyph-name="Aacute" unicode="&#xc1;" horiz-adv-x="1465" 
d="M1094 1400l241 -1400h-285l-51 326h-583l-188 -326h-304l831 1400h339zM875 1121l-311 -538h395zM1008 1517h-255l232 316h319z" />
    <glyph glyph-name="Acircumflex" unicode="&#xc2;" horiz-adv-x="1465" 
d="M1094 1400l241 -1400h-285l-51 326h-583l-188 -326h-304l831 1400h339zM875 1121l-311 -538h395zM1295 1508h-246l-87 155l-148 -155h-264l277 315h315z" />
    <glyph glyph-name="Atilde" unicode="&#xc3;" horiz-adv-x="1465" 
d="M1094 1400l241 -1400h-285l-51 326h-583l-188 -326h-304l831 1400h339zM875 1121l-311 -538h395zM674 1527l-129 158q114 126 269 126q50 0 93.5 -11t67.5 -24t50 -24t46 -11q32 0 62.5 17t72.5 54l128 -158q-113 -127 -269 -127q-63 0 -113.5 17.5t-84.5 35t-58 17.5
q-33 0 -63.5 -17t-71.5 -53z" />
    <glyph glyph-name="Adieresis" unicode="&#xc4;" horiz-adv-x="1465" 
d="M1094 1400l241 -1400h-285l-51 326h-583l-188 -326h-304l831 1400h339zM875 1121l-311 -538h395zM745 1834q71 0 119.5 -49t48.5 -119t-48.5 -118t-119.5 -48t-118.5 48t-47.5 118q0 71 48 119.5t118 48.5zM1176 1834q70 0 119 -49t49 -119t-48.5 -118t-119.5 -48
q-70 0 -118 48t-48 118q0 71 48 119.5t118 48.5z" />
    <glyph glyph-name="Aring" unicode="&#xc5;" horiz-adv-x="1465" 
d="M1094 1400l241 -1400h-285l-51 326h-583l-188 -326h-304l831 1400h339zM875 1121l-311 -538h395zM953 1486q-108 0 -184.5 75.5t-76.5 182.5q0 106 77 181.5t184 75.5q109 0 186 -75.5t77 -181.5q0 -107 -77 -182.5t-186 -75.5zM953 1635q44 0 75.5 31.5t31.5 77.5
q0 45 -31.5 76.5t-75.5 31.5q-42 0 -73.5 -31.5t-31.5 -76.5q0 -46 31 -77.5t74 -31.5z" />
    <glyph glyph-name="AE" unicode="&#xc6;" horiz-adv-x="2301" 
d="M2139 256l-55 -256h-1028l62 294h-572l-269 -294h-358l1307 1400h1146l-55 -256h-733l-66 -310h706l-55 -256h-705l-69 -322h744zM781 551h392l119 559z" />
    <glyph glyph-name="Ccedilla" unicode="&#xc7;" horiz-adv-x="1451" 
d="M1171 413l183 -189q-189 -213 -456 -244l-147 -301h-282l172 314q-231 49 -370.5 222.5t-139.5 420.5q0 167 60 314t163.5 251t249 164t309.5 60q54 0 106 -5.5t121 -25t128 -51.5t120 -89.5t105 -134.5l-232 -154q-118 193 -364 193q-196 0 -335 -144.5t-139 -356.5
q0 -186 114.5 -300t283.5 -114q204 0 350 170z" />
    <glyph glyph-name="Egrave" unicode="&#xc8;" horiz-adv-x="1294" 
d="M1217 834l-55 -256h-705l-69 -322h744l-55 -256h-1028l298 1400h1018l-55 -256h-733l-66 -310h706zM778 1518l-264 315h312l201 -315h-249z" />
    <glyph glyph-name="Eacute" unicode="&#xc9;" horiz-adv-x="1294" 
d="M1217 834l-55 -256h-705l-69 -322h744l-55 -256h-1028l298 1400h1018l-55 -256h-733l-66 -310h706zM934 1517h-255l232 316h319z" />
    <glyph glyph-name="Ecircumflex" unicode="&#xca;" horiz-adv-x="1294" 
d="M1217 834l-55 -256h-705l-69 -322h744l-55 -256h-1028l298 1400h1018l-55 -256h-733l-66 -310h706zM1221 1508h-246l-87 155l-148 -155h-264l277 315h315z" />
    <glyph glyph-name="Edieresis" unicode="&#xcb;" horiz-adv-x="1294" 
d="M1217 834l-55 -256h-705l-69 -322h744l-55 -256h-1028l298 1400h1018l-55 -256h-733l-66 -310h706zM671 1834q71 0 119.5 -49t48.5 -119t-48.5 -118t-119.5 -48t-118.5 48t-47.5 118q0 71 48 119.5t118 48.5zM1102 1834q70 0 119 -49t49 -119t-48.5 -118t-119.5 -48
q-70 0 -118 48t-48 118q0 71 48 119.5t118 48.5z" />
    <glyph glyph-name="Igrave" unicode="&#xcc;" horiz-adv-x="589" 
d="M632 1400l-298 -1400h-285l298 1400h285zM416 1518l-264 315h312l201 -315h-249z" />
    <glyph glyph-name="Iacute" unicode="&#xcd;" horiz-adv-x="589" 
d="M632 1400l-298 -1400h-285l298 1400h285zM572 1517h-255l232 316h319z" />
    <glyph glyph-name="Icircumflex" unicode="&#xce;" horiz-adv-x="589" 
d="M632 1400l-298 -1400h-285l298 1400h285zM859 1508h-246l-87 155l-148 -155h-264l277 315h315z" />
    <glyph glyph-name="Idieresis" unicode="&#xcf;" horiz-adv-x="589" 
d="M632 1400l-298 -1400h-285l298 1400h285zM309 1834q71 0 119.5 -49t48.5 -119t-48.5 -118t-119.5 -48t-118.5 48t-47.5 118q0 71 48 119.5t118 48.5zM740 1834q70 0 119 -49t49 -119t-48.5 -118t-119.5 -48q-70 0 -118 48t-48 118q0 71 48 119.5t118 48.5z" />
    <glyph glyph-name="Eth" unicode="&#xd0;" horiz-adv-x="1635" 
d="M958 1400q296 0 471 -164.5t175 -425.5q0 -169 -58.5 -316t-166 -257t-271.5 -173.5t-364 -63.5h-579l123 581h-176l53 250h177l121 569h495zM949 831l-54 -250h-322l-68 -320h272q245 0 388.5 144.5t143.5 371.5q0 167 -96 264.5t-287 97.5h-234l-65 -308h322z" />
    <glyph glyph-name="Ntilde" unicode="&#xd1;" horiz-adv-x="1545" 
d="M1588 1400l-298 -1400h-262l-490 964l-205 -964h-284l298 1400h263l489 -964l205 964h284zM704 1527l-129 158q114 126 269 126q50 0 93.5 -11t67.5 -24t50 -24t46 -11q32 0 62.5 17t72.5 54l128 -158q-113 -127 -269 -127q-63 0 -113.5 17.5t-84.5 35t-58 17.5
q-33 0 -63.5 -17t-71.5 -53z" />
    <glyph glyph-name="Ograve" unicode="&#xd2;" horiz-adv-x="1632" 
d="M915 1425q194 0 348.5 -80.5t243 -230.5t88.5 -343q0 -161 -58.5 -307t-161 -254.5t-250 -172t-316.5 -63.5q-194 0 -348.5 80.5t-243 230.5t-88.5 344q0 161 58.5 307t161 254t250 171.5t316.5 63.5zM897 1158q-137 0 -247 -70.5t-169.5 -187t-59.5 -252.5
q0 -184 113 -295t294 -111q136 0 246 70.5t169.5 186.5t59.5 253q0 183 -113.5 294.5t-292.5 111.5zM866 1518l-264 315h312l201 -315h-249z" />
    <glyph glyph-name="Oacute" unicode="&#xd3;" horiz-adv-x="1632" 
d="M915 1425q194 0 348.5 -80.5t243 -230.5t88.5 -343q0 -161 -58.5 -307t-161 -254.5t-250 -172t-316.5 -63.5q-194 0 -348.5 80.5t-243 230.5t-88.5 344q0 161 58.5 307t161 254t250 171.5t316.5 63.5zM897 1158q-137 0 -247 -70.5t-169.5 -187t-59.5 -252.5
q0 -184 113 -295t294 -111q136 0 246 70.5t169.5 186.5t59.5 253q0 183 -113.5 294.5t-292.5 111.5zM1022 1517h-255l232 316h319z" />
    <glyph glyph-name="Ocircumflex" unicode="&#xd4;" horiz-adv-x="1632" 
d="M915 1425q194 0 348.5 -80.5t243 -230.5t88.5 -343q0 -161 -58.5 -307t-161 -254.5t-250 -172t-316.5 -63.5q-194 0 -348.5 80.5t-243 230.5t-88.5 344q0 161 58.5 307t161 254t250 171.5t316.5 63.5zM897 1158q-137 0 -247 -70.5t-169.5 -187t-59.5 -252.5
q0 -184 113 -295t294 -111q136 0 246 70.5t169.5 186.5t59.5 253q0 183 -113.5 294.5t-292.5 111.5zM1309 1508h-246l-87 155l-148 -155h-264l277 315h315z" />
    <glyph glyph-name="Otilde" unicode="&#xd5;" horiz-adv-x="1632" 
d="M915 1425q194 0 348.5 -80.5t243 -230.5t88.5 -343q0 -161 -58.5 -307t-161 -254.5t-250 -172t-316.5 -63.5q-194 0 -348.5 80.5t-243 230.5t-88.5 344q0 161 58.5 307t161 254t250 171.5t316.5 63.5zM897 1158q-137 0 -247 -70.5t-169.5 -187t-59.5 -252.5
q0 -184 113 -295t294 -111q136 0 246 70.5t169.5 186.5t59.5 253q0 183 -113.5 294.5t-292.5 111.5zM688 1527l-129 158q114 126 269 126q50 0 93.5 -11t67.5 -24t50 -24t46 -11q32 0 62.5 17t72.5 54l128 -158q-113 -127 -269 -127q-63 0 -113.5 17.5t-84.5 35t-58 17.5
q-33 0 -63.5 -17t-71.5 -53z" />
    <glyph glyph-name="Odieresis" unicode="&#xd6;" horiz-adv-x="1632" 
d="M915 1425q194 0 348.5 -80.5t243 -230.5t88.5 -343q0 -161 -58.5 -307t-161 -254.5t-250 -172t-316.5 -63.5q-194 0 -348.5 80.5t-243 230.5t-88.5 344q0 161 58.5 307t161 254t250 171.5t316.5 63.5zM897 1158q-137 0 -247 -70.5t-169.5 -187t-59.5 -252.5
q0 -184 113 -295t294 -111q136 0 246 70.5t169.5 186.5t59.5 253q0 183 -113.5 294.5t-292.5 111.5zM759 1834q71 0 119.5 -49t48.5 -119t-48.5 -118t-119.5 -48t-118.5 48t-47.5 118q0 71 48 119.5t118 48.5zM1190 1834q70 0 119 -49t49 -119t-48.5 -118t-119.5 -48
q-70 0 -118 48t-48 118q0 71 48 119.5t118 48.5z" />
    <glyph glyph-name="multiply" unicode="&#xd7;" 
d="M979 254l-178 -147l-210 266l-352 -292l-137 172l338 279l-219 279l178 147l210 -266l352 291l137 -172l-338 -278z" />
    <glyph glyph-name="Oslash" unicode="&#xd8;" horiz-adv-x="1632" 
d="M915 1425q260 0 444 -143l165 147l152 -172l-167 -148q86 -150 86 -338q0 -161 -58.5 -307t-161 -254.5t-250 -172t-316.5 -63.5q-249 0 -428 131l-150 -134l-152 171l146 130q-96 156 -96 357q0 161 58.5 307t161 254t250 171.5t316.5 63.5zM897 1158q-137 0 -247 -70.5
t-169.5 -187t-59.5 -252.5q0 -95 32 -173l687 612q-102 71 -243 71zM1303 752q0 81 -25 151l-677 -602q98 -59 227 -59q136 0 246 70.5t169.5 186.5t59.5 253z" />
    <glyph glyph-name="Ugrave" unicode="&#xd9;" horiz-adv-x="1455" 
d="M1513 1400l-182 -861q-119 -564 -660 -564q-157 0 -275.5 49.5t-187.5 152t-69 248.5q0 68 17 151l176 824h286l-177 -827q-12 -57 -12 -102q0 -116 69 -172.5t194 -56.5q137 0 231 79t129 246l176 833h285zM850 1518l-264 315h312l201 -315h-249z" />
    <glyph glyph-name="Uacute" unicode="&#xda;" horiz-adv-x="1455" 
d="M1513 1400l-182 -861q-119 -564 -660 -564q-157 0 -275.5 49.5t-187.5 152t-69 248.5q0 68 17 151l176 824h286l-177 -827q-12 -57 -12 -102q0 -116 69 -172.5t194 -56.5q137 0 231 79t129 246l176 833h285zM1006 1517h-255l232 316h319z" />
    <glyph glyph-name="Ucircumflex" unicode="&#xdb;" horiz-adv-x="1455" 
d="M1513 1400l-182 -861q-119 -564 -660 -564q-157 0 -275.5 49.5t-187.5 152t-69 248.5q0 68 17 151l176 824h286l-177 -827q-12 -57 -12 -102q0 -116 69 -172.5t194 -56.5q137 0 231 79t129 246l176 833h285zM1293 1508h-246l-87 155l-148 -155h-264l277 315h315z" />
    <glyph glyph-name="Udieresis" unicode="&#xdc;" horiz-adv-x="1455" 
d="M1513 1400l-182 -861q-119 -564 -660 -564q-157 0 -275.5 49.5t-187.5 152t-69 248.5q0 68 17 151l176 824h286l-177 -827q-12 -57 -12 -102q0 -116 69 -172.5t194 -56.5q137 0 231 79t129 246l176 833h285zM743 1834q71 0 119.5 -49t48.5 -119t-48.5 -118t-119.5 -48
t-118.5 48t-47.5 118q0 71 48 119.5t118 48.5zM1174 1834q70 0 119 -49t49 -119t-48.5 -118t-119.5 -48q-70 0 -118 48t-48 118q0 71 48 119.5t118 48.5z" />
    <glyph glyph-name="Yacute" unicode="&#xdd;" horiz-adv-x="1347" 
d="M1534 1400l-702 -848l-118 -552h-285l122 576l-348 824h298l230 -584l463 584h340zM931 1517h-255l232 316h319z" />
    <glyph glyph-name="Thorn" unicode="&#xde;" horiz-adv-x="1294" 
d="M632 1400l-51 -240h231q220 0 341.5 -108.5t121.5 -281.5q0 -228 -154.5 -363t-427.5 -135h-301l-58 -272h-285l298 1400h285zM778 902h-252l-80 -375h261q136 0 208 55.5t72 158.5q0 77 -53 119t-156 42z" />
    <glyph glyph-name="germandbls" unicode="&#xdf;" horiz-adv-x="1205" 
d="M21 0l210 993q49 230 181 351t365 121q203 0 322 -105t119 -261q0 -128 -78 -233.5t-205 -148.5q98 -32 152.5 -136.5t30.5 -221.5q-79 -384 -508 -384q-129 0 -216 36l74 218q58 -26 134 -26q223 0 256 186q17 97 -43 156t-184 59h-42l49 225h10q140 0 216 57
q39 29 62 79t23 96q0 72 -54 118t-132 46q-109 0 -177 -60.5t-95 -189.5l-207 -975h-263z" />
    <glyph glyph-name="agrave" unicode="&#xe0;" horiz-adv-x="1199" 
d="M600 995q199 0 292 -124l22 98h259l-206 -969h-254l17 80q-108 -106 -262 -106q-175 0 -292 128.5t-117 317.5q0 104 38 206t105.5 184.5t172 133.5t225.5 51zM548 218q107 0 183.5 75t90.5 189q15 120 -47.5 195t-168.5 75q-117 0 -197 -89.5t-80 -215.5q0 -103 61 -166
t158 -63zM608 1108l-264 315h312l201 -315h-249z" />
    <glyph glyph-name="aacute" unicode="&#xe1;" horiz-adv-x="1199" 
d="M600 995q199 0 292 -124l22 98h259l-206 -969h-254l17 80q-108 -106 -262 -106q-175 0 -292 128.5t-117 317.5q0 104 38 206t105.5 184.5t172 133.5t225.5 51zM548 218q107 0 183.5 75t90.5 189q15 120 -47.5 195t-168.5 75q-117 0 -197 -89.5t-80 -215.5q0 -103 61 -166
t158 -63zM766 1107h-255l232 316h319z" />
    <glyph glyph-name="acircumflex" unicode="&#xe2;" horiz-adv-x="1199" 
d="M600 995q199 0 292 -124l22 98h259l-206 -969h-254l17 80q-108 -106 -262 -106q-175 0 -292 128.5t-117 317.5q0 104 38 206t105.5 184.5t172 133.5t225.5 51zM548 218q107 0 183.5 75t90.5 189q15 120 -47.5 195t-168.5 75q-117 0 -197 -89.5t-80 -215.5q0 -103 61 -166
t158 -63zM1051 1098h-246l-87 155l-148 -155h-264l277 315h315z" />
    <glyph glyph-name="atilde" unicode="&#xe3;" horiz-adv-x="1199" 
d="M600 995q199 0 292 -124l22 98h259l-206 -969h-254l17 80q-108 -106 -262 -106q-175 0 -292 128.5t-117 317.5q0 104 38 206t105.5 184.5t172 133.5t225.5 51zM548 218q107 0 183.5 75t90.5 189q15 120 -47.5 195t-168.5 75q-117 0 -197 -89.5t-80 -215.5q0 -103 61 -166
t158 -63zM429 1117l-129 158q114 126 269 126q50 0 93.5 -11t67.5 -24t50 -24t46 -11q32 0 62.5 17t72.5 54l128 -158q-113 -127 -269 -127q-63 0 -113.5 17.5t-84.5 35t-58 17.5q-33 0 -63.5 -17t-71.5 -53z" />
    <glyph glyph-name="adieresis" unicode="&#xe4;" horiz-adv-x="1199" 
d="M600 995q199 0 292 -124l22 98h259l-206 -969h-254l17 80q-108 -106 -262 -106q-175 0 -292 128.5t-117 317.5q0 104 38 206t105.5 184.5t172 133.5t225.5 51zM548 218q107 0 183.5 75t90.5 189q15 120 -47.5 195t-168.5 75q-117 0 -197 -89.5t-80 -215.5q0 -103 61 -166
t158 -63zM500 1424q70 0 119 -49t49 -119t-48.5 -118t-119.5 -48q-70 0 -118 48t-48 118q0 71 48 119.5t118 48.5zM931 1424q71 0 119.5 -49t48.5 -119t-48.5 -118t-119.5 -48t-118.5 48t-47.5 118q0 71 48 119.5t118 48.5z" />
    <glyph glyph-name="aring" unicode="&#xe5;" horiz-adv-x="1199" 
d="M600 995q199 0 292 -124l22 98h259l-206 -969h-254l17 80q-108 -106 -262 -106q-175 0 -292 128.5t-117 317.5q0 104 38 206t105.5 184.5t172 133.5t225.5 51zM548 218q107 0 183.5 75t90.5 189q15 120 -47.5 195t-168.5 75q-117 0 -197 -89.5t-80 -215.5q0 -103 61 -166
t158 -63zM697 1076q-108 0 -184.5 75.5t-76.5 182.5q0 106 77 181.5t184 75.5q109 0 186 -75.5t77 -181.5q0 -107 -77 -182.5t-186 -75.5zM697 1225q44 0 75.5 31.5t31.5 77.5q0 45 -31.5 76.5t-75.5 31.5q-42 0 -73.5 -31.5t-31.5 -76.5q0 -46 31 -77.5t74 -31.5z" />
    <glyph glyph-name="ae" unicode="&#xe6;" horiz-adv-x="1700" 
d="M1403 281l134 -170q-155 -137 -396 -137q-249 0 -371 161q-168 -160 -392 -160q-158 0 -250 73.5t-92 198.5q0 153 113.5 242t305.5 89h257q3 20 3 39q0 148 -197 148q-118 0 -252 -73l-79 205q169 98 378 98q231 0 324 -142q131 142 350 142q185 0 299.5 -108
t114.5 -287q0 -49 -11 -106.5t-28 -95.5h-673q3 -96 61.5 -149t160.5 -53q135 0 240 85zM435 185q65 0 134.5 30.5t126.5 88.5q-9 45 -9 95v3h-206q-81 0 -127 -32t-46 -88q0 -45 33.5 -71t93.5 -26zM1224 770q-98 0 -160.5 -56t-93.5 -142h430q1 7 1 22q0 85 -47.5 130.5
t-129.5 45.5z" />
    <glyph glyph-name="ccedilla" unicode="&#xe7;" horiz-adv-x="1023" 
d="M1031 767l-219 -124q-76 108 -207 108q-117 0 -195.5 -87t-78.5 -210q0 -103 61.5 -168.5t153.5 -65.5q122 0 210 94l171 -161q-125 -142 -307 -169l-150 -305h-265l176 320q-147 43 -232.5 160.5t-85.5 276.5q0 151 70 278t198 203t287 76q289 0 413 -226z" />
    <glyph glyph-name="egrave" unicode="&#xe8;" horiz-adv-x="1072" 
d="M776 281l134 -170q-155 -137 -396 -137q-214 0 -336.5 118.5t-122.5 306.5q0 77 19.5 156.5t63 159t106.5 141.5t158.5 100.5t209.5 38.5q184 0 298.5 -108t114.5 -287q0 -49 -11 -106.5t-27 -95.5h-673q3 -96 61.5 -149t160.5 -53q133 0 240 85zM597 770
q-97 0 -159 -54.5t-94 -139.5h429q1 6 1 18q0 85 -47.5 130.5t-129.5 45.5zM569 1108l-264 315h312l201 -315h-249z" />
    <glyph glyph-name="eacute" unicode="&#xe9;" horiz-adv-x="1072" 
d="M776 281l134 -170q-155 -137 -396 -137q-214 0 -336.5 118.5t-122.5 306.5q0 77 19.5 156.5t63 159t106.5 141.5t158.5 100.5t209.5 38.5q184 0 298.5 -108t114.5 -287q0 -49 -11 -106.5t-27 -95.5h-673q3 -96 61.5 -149t160.5 -53q133 0 240 85zM597 770
q-97 0 -159 -54.5t-94 -139.5h429q1 6 1 18q0 85 -47.5 130.5t-129.5 45.5zM727 1107h-255l232 316h319z" />
    <glyph glyph-name="ecircumflex" unicode="&#xea;" horiz-adv-x="1072" 
d="M776 281l134 -170q-155 -137 -396 -137q-214 0 -336.5 118.5t-122.5 306.5q0 77 19.5 156.5t63 159t106.5 141.5t158.5 100.5t209.5 38.5q184 0 298.5 -108t114.5 -287q0 -49 -11 -106.5t-27 -95.5h-673q3 -96 61.5 -149t160.5 -53q133 0 240 85zM597 770
q-97 0 -159 -54.5t-94 -139.5h429q1 6 1 18q0 85 -47.5 130.5t-129.5 45.5zM1012 1098h-246l-87 155l-148 -155h-264l277 315h315z" />
    <glyph glyph-name="edieresis" unicode="&#xeb;" horiz-adv-x="1072" 
d="M776 281l134 -170q-155 -137 -396 -137q-214 0 -336.5 118.5t-122.5 306.5q0 77 19.5 156.5t63 159t106.5 141.5t158.5 100.5t209.5 38.5q184 0 298.5 -108t114.5 -287q0 -49 -11 -106.5t-27 -95.5h-673q3 -96 61.5 -149t160.5 -53q133 0 240 85zM597 770
q-97 0 -159 -54.5t-94 -139.5h429q1 6 1 18q0 85 -47.5 130.5t-129.5 45.5zM461 1424q71 0 119.5 -49t48.5 -119t-48.5 -118t-119.5 -48t-118.5 48t-47.5 118q0 71 48 119.5t118 48.5zM892 1424q70 0 119 -49t49 -119t-48.5 -118t-119.5 -48q-70 0 -118 48t-48 118
q0 71 48 119.5t118 48.5z" />
    <glyph glyph-name="igrave" unicode="&#xec;" horiz-adv-x="521" 
d="M495 969l-206 -969h-263l206 969h263zM311 1108l-264 315h312l201 -315h-249z" />
    <glyph glyph-name="iacute" unicode="&#xed;" horiz-adv-x="521" 
d="M495 969l-206 -969h-263l206 969h263zM469 1107h-255l232 316h319z" />
    <glyph glyph-name="icircumflex" unicode="&#xee;" horiz-adv-x="521" 
d="M495 969l-206 -969h-263l206 969h263zM754 1098h-246l-87 155l-148 -155h-264l277 315h315z" />
    <glyph glyph-name="idieresis" unicode="&#xef;" horiz-adv-x="521" 
d="M495 969l-206 -969h-263l206 969h263zM203 1424q71 0 119.5 -49t48.5 -119t-48.5 -118t-119.5 -48t-118.5 48t-47.5 118q0 71 48 119.5t118 48.5zM634 1424q70 0 119 -49t49 -119t-48.5 -118t-119.5 -48q-70 0 -118 48t-48 118q0 71 48 119.5t118 48.5z" />
    <glyph glyph-name="eth" unicode="&#xf0;" horiz-adv-x="1170" 
d="M948 1430l81 -141l-158 -90q118 -127 179 -283.5t61 -326.5q0 -61 -9 -131q-26 -211 -180.5 -347.5t-368.5 -136.5q-216 0 -355 127t-139 321q0 140 67.5 259.5t183 189t250.5 69.5q165 0 272 -96q-52 135 -176 241l-211 -120l-81 141l147 82q-79 46 -169 84l141 186
q143 -57 261 -144zM599 709q-66 0 -120 -25.5t-85.5 -66.5t-48.5 -88t-17 -94q0 -100 67.5 -164t173.5 -64q71 0 126.5 27t86.5 69.5t46.5 87.5t15.5 88q0 102 -68.5 166t-176.5 64z" />
    <glyph glyph-name="ntilde" unicode="&#xf1;" horiz-adv-x="1161" 
d="M742 995q149 0 237.5 -90t88.5 -235q0 -56 -11 -105l-121 -565h-262l117 544q7 31 7 64q0 65 -36.5 103.5t-115.5 38.5q-89 0 -156 -55.5t-92 -174.5l-110 -520h-262l206 969h252l-22 -98q108 124 280 124zM440 1117l-129 158q114 126 269 126q50 0 93.5 -11t67.5 -24
t50 -24t46 -11q32 0 62.5 17t72.5 54l128 -158q-113 -127 -269 -127q-63 0 -113.5 17.5t-84.5 35t-58 17.5q-33 0 -63.5 -17t-71.5 -53z" />
    <glyph glyph-name="ograve" unicode="&#xf2;" horiz-adv-x="1171" 
d="M624 995q211 0 347.5 -129.5t136.5 -334.5q0 -113 -42.5 -215t-116.5 -177.5t-178.5 -120t-223.5 -44.5q-210 0 -347 129.5t-137 335.5q0 150 72 277.5t201.5 203t287.5 75.5zM606 752q-117 0 -196.5 -86.5t-79.5 -210.5q0 -105 65 -171.5t168 -66.5q118 0 198 87t80 210
q0 105 -65.5 171.5t-169.5 66.5zM592 1107l-264 315h312l201 -315h-249z" />
    <glyph glyph-name="oacute" unicode="&#xf3;" horiz-adv-x="1171" 
d="M624 995q211 0 347.5 -129.5t136.5 -334.5q0 -113 -42.5 -215t-116.5 -177.5t-178.5 -120t-223.5 -44.5q-210 0 -347 129.5t-137 335.5q0 150 72 277.5t201.5 203t287.5 75.5zM606 752q-117 0 -196.5 -86.5t-79.5 -210.5q0 -105 65 -171.5t168 -66.5q118 0 198 87t80 210
q0 105 -65.5 171.5t-169.5 66.5zM750 1106h-255l232 316h319z" />
    <glyph glyph-name="ocircumflex" unicode="&#xf4;" horiz-adv-x="1171" 
d="M624 995q211 0 347.5 -129.5t136.5 -334.5q0 -113 -42.5 -215t-116.5 -177.5t-178.5 -120t-223.5 -44.5q-210 0 -347 129.5t-137 335.5q0 150 72 277.5t201.5 203t287.5 75.5zM606 752q-117 0 -196.5 -86.5t-79.5 -210.5q0 -105 65 -171.5t168 -66.5q118 0 198 87t80 210
q0 105 -65.5 171.5t-169.5 66.5zM1035 1097h-246l-87 155l-148 -155h-264l277 315h315z" />
    <glyph glyph-name="otilde" unicode="&#xf5;" horiz-adv-x="1171" 
d="M624 995q211 0 347.5 -129.5t136.5 -334.5q0 -113 -42.5 -215t-116.5 -177.5t-178.5 -120t-223.5 -44.5q-210 0 -347 129.5t-137 335.5q0 150 72 277.5t201.5 203t287.5 75.5zM606 752q-117 0 -196.5 -86.5t-79.5 -210.5q0 -105 65 -171.5t168 -66.5q118 0 198 87t80 210
q0 105 -65.5 171.5t-169.5 66.5zM413 1116l-129 158q114 126 269 126q50 0 93.5 -11t67.5 -24t50 -24t46 -11q32 0 62.5 17t72.5 54l128 -158q-113 -127 -269 -127q-63 0 -113.5 17.5t-84.5 35t-58 17.5q-33 0 -63.5 -17t-71.5 -53z" />
    <glyph glyph-name="odieresis" unicode="&#xf6;" horiz-adv-x="1171" 
d="M624 995q211 0 347.5 -129.5t136.5 -334.5q0 -113 -42.5 -215t-116.5 -177.5t-178.5 -120t-223.5 -44.5q-210 0 -347 129.5t-137 335.5q0 150 72 277.5t201.5 203t287.5 75.5zM606 752q-117 0 -196.5 -86.5t-79.5 -210.5q0 -105 65 -171.5t168 -66.5q118 0 198 87t80 210
q0 105 -65.5 171.5t-169.5 66.5zM484 1423q70 0 119 -48.5t49 -119.5q0 -70 -48.5 -118t-119.5 -48q-70 0 -118 47.5t-48 118.5t48 119.5t118 48.5zM915 1423q71 0 119.5 -48.5t48.5 -119.5q0 -70 -48.5 -118t-119.5 -48t-118.5 47.5t-47.5 118.5t48 119.5t118 48.5z" />
    <glyph glyph-name="divide" unicode="&#xf7;" 
d="M1096 654l-47 -223h-921l47 223h921zM675 1058q65 0 113.5 -48t48.5 -114t-48.5 -115t-113.5 -49q-66 0 -115 49t-49 115t49 114t115 48zM562 354q65 0 113.5 -48.5t48.5 -114.5t-48.5 -115t-113.5 -49q-66 0 -115 49t-49 115t49 114.5t115 48.5z" />
    <glyph glyph-name="oslash" unicode="&#xf8;" horiz-adv-x="1171" 
d="M624 995q165 0 290 -83l124 110l135 -151l-122 -108q58 -105 58 -232q0 -113 -42.5 -215t-116.5 -177.5t-178.5 -120t-223.5 -44.5q-167 0 -289 82l-124 -110l-135 151l121 108q-58 105 -58 234q0 150 72 277.5t201.5 203t287.5 75.5zM607 759q-120 0 -201.5 -89
t-81.5 -216q0 -40 9 -73l393 350q-54 28 -119 28zM848 515q0 33 -8 68l-391 -348q52 -25 113 -25q121 0 203.5 89t82.5 216z" />
    <glyph glyph-name="ugrave" unicode="&#xf9;" horiz-adv-x="1152" 
d="M1134 969l-121 -568q-20 -93 -57 -165.5t-85 -121t-109 -80.5t-126 -45.5t-139 -13.5q-178 0 -288 92.5t-110 259.5q0 53 14 118l111 524h263l-116 -544q-7 -34 -7 -64q0 -72 42 -107.5t115 -35.5q88 0 152 58t87 171l110 522h264zM626 1108l-264 315h312l201 -315h-249z
" />
    <glyph glyph-name="uacute" unicode="&#xfa;" horiz-adv-x="1152" 
d="M1134 969l-121 -568q-20 -93 -57 -165.5t-85 -121t-109 -80.5t-126 -45.5t-139 -13.5q-178 0 -288 92.5t-110 259.5q0 53 14 118l111 524h263l-116 -544q-7 -34 -7 -64q0 -72 42 -107.5t115 -35.5q88 0 152 58t87 171l110 522h264zM784 1107h-255l232 316h319z" />
    <glyph glyph-name="ucircumflex" unicode="&#xfb;" horiz-adv-x="1152" 
d="M1134 969l-121 -568q-20 -93 -57 -165.5t-85 -121t-109 -80.5t-126 -45.5t-139 -13.5q-178 0 -288 92.5t-110 259.5q0 53 14 118l111 524h263l-116 -544q-7 -34 -7 -64q0 -72 42 -107.5t115 -35.5q88 0 152 58t87 171l110 522h264zM1069 1098h-246l-87 155l-148 -155
h-264l277 315h315z" />
    <glyph glyph-name="udieresis" unicode="&#xfc;" horiz-adv-x="1152" 
d="M1134 969l-121 -568q-20 -93 -57 -165.5t-85 -121t-109 -80.5t-126 -45.5t-139 -13.5q-178 0 -288 92.5t-110 259.5q0 53 14 118l111 524h263l-116 -544q-7 -34 -7 -64q0 -72 42 -107.5t115 -35.5q88 0 152 58t87 171l110 522h264zM518 1424q70 0 119 -49t49 -119
t-48.5 -118t-119.5 -48q-70 0 -118 48t-48 118q0 71 48 119.5t118 48.5zM949 1424q71 0 119.5 -49t48.5 -119t-48.5 -118t-119.5 -48t-118.5 48t-47.5 118q0 71 48 119.5t118 48.5z" />
    <glyph glyph-name="yacute" unicode="&#xfd;" horiz-adv-x="1120" 
d="M1216 969l-943 -1373h-298l451 638l-313 735h282l196 -493l328 493h297zM752 1107h-255l232 316h319z" />
    <glyph glyph-name="thorn" unicode="&#xfe;" horiz-adv-x="1201" 
d="M601 -25q-199 0 -292 123l-105 -498h-263l391 1840h263l-109 -509q93 65 228 65q184 0 306 -128.5t122 -318.5q0 -83 -23.5 -165.5t-70.5 -156t-111 -130t-151.5 -89.5t-184.5 -33zM652 751q-107 0 -183.5 -74.5t-90.5 -188.5q-15 -120 47.5 -195t168.5 -75
q118 0 198 89.5t80 214.5q0 104 -61.5 166.5t-158.5 62.5z" />
    <glyph glyph-name="ydieresis" unicode="&#xff;" horiz-adv-x="1120" 
d="M1216 969l-943 -1373h-298l451 638l-313 735h282l196 -493l328 493h297zM486 1424q70 0 119 -49t49 -119t-48.5 -118t-119.5 -48q-70 0 -118 48t-48 118q0 71 48 119.5t118 48.5zM917 1424q71 0 119.5 -49t48.5 -119t-48.5 -118t-119.5 -48t-118.5 48t-47.5 118
q0 71 48 119.5t118 48.5z" />
    <glyph glyph-name="dotlessi" unicode="&#x131;" horiz-adv-x="521" 
d="M495 969l-206 -969h-263l206 969h263z" />
    <glyph glyph-name="IJ" unicode="&#x132;" horiz-adv-x="1663" 
d="M632 1400l-298 -1400h-285l298 1400h285zM1711 1400l-192 -915q-55 -263 -192 -386.5t-352 -123.5q-133 0 -243.5 52t-176.5 146l177 197q40 -57 104 -92.5t141 -35.5q107 0 171.5 72t97.5 228l181 858h284z" />
    <glyph glyph-name="ij" unicode="&#x133;" horiz-adv-x="1049" 
d="M1023 969l-230 -1082q-33 -153 -124.5 -230.5t-222.5 -77.5q-100 0 -176 38l81 219q32 -14 69 -14q42 0 75 28t45 85l219 1034h264zM956 1454q70 0 118.5 -48.5t48.5 -119.5q0 -70 -48 -118t-119 -48q-70 0 -118 48t-48 118q0 71 48 119.5t118 48.5zM495 969l-206 -969
h-263l206 969h263zM430 1454q70 0 118.5 -48.5t48.5 -119.5q0 -70 -48 -118t-119 -48q-70 0 -118 48t-48 118q0 71 48 119.5t118 48.5z" />
    <glyph glyph-name="Lslash" unicode="&#x141;" horiz-adv-x="1304" 
d="M752 1400l-110 -514l446 218l-62 -292l-446 -219l-71 -332h717l-56 -261h-1001l93 438l-202 -99l62 292l202 99l143 670h285z" />
    <glyph glyph-name="lslash" unicode="&#x142;" horiz-adv-x="701" 
d="M683 1440l-101 -474l205 105l-58 -273l-205 -106l-147 -692h-263l115 541l-201 -103l58 273l201 103l133 626h263z" />
    <glyph glyph-name="OE" unicode="&#x152;" horiz-adv-x="2163" 
d="M2086 834l-55 -256h-705l-69 -322h744l-55 -256h-1179q-296 0 -470.5 164.5t-174.5 425.5q0 169 58 316t165.5 257t271.5 173.5t364 63.5h1253l-55 -256h-733l-66 -310h706zM417 623q0 -167 96 -264.5t286 -97.5h174l187 878h-212q-245 0 -388 -144.5t-143 -371.5z" />
    <glyph glyph-name="oe" unicode="&#x153;" horiz-adv-x="1843" 
d="M1547 281l134 -170q-155 -137 -396 -137q-120 0 -210.5 43.5t-145.5 121.5q-73 -78 -171 -121.5t-211 -43.5q-210 0 -347 129.5t-137 335.5q0 150 72 277.5t201.5 203t287.5 75.5q116 0 212 -47.5t156 -132.5q146 180 391 180q184 0 298.5 -108t114.5 -287
q0 -49 -11 -106.5t-27 -95.5h-673q3 -96 61.5 -149t160.5 -53q135 0 240 85zM606 752q-117 0 -196.5 -86.5t-79.5 -210.5q0 -105 65 -171.5t168 -66.5q118 0 198 87t80 210q0 105 -65.5 171.5t-169.5 66.5zM1368 770q-97 0 -159 -54.5t-94 -139.5h429q1 6 1 18
q0 85 -47.5 130.5t-129.5 45.5z" />
    <glyph glyph-name="Scaron" unicode="&#x160;" horiz-adv-x="1328" 
d="M1338 1261l-149 -224q-97 68 -208.5 98.5t-212.5 30.5q-129 0 -193.5 -50t-64.5 -124q0 -66 57 -102t162 -56l84 -16q191 -36 302 -127t111 -247q0 -213 -165.5 -341.5t-431.5 -128.5q-149 0 -316 48t-280 148l161 224q91 -83 218 -122.5t235 -39.5q122 0 200.5 46
t78.5 127q0 64 -59 100t-187 59l-89 17q-177 33 -279.5 127.5t-102.5 244.5q0 96 37 181t106 150t178 103t245 38q323 0 563 -164zM514 1823h246l86 -155l149 155h264l-277 -315h-315z" />
    <glyph glyph-name="scaron" unicode="&#x161;" horiz-adv-x="967" 
d="M962 887l-119 -195q-64 39 -151.5 62t-152.5 23q-146 0 -155 -79q-2 -20 3.5 -34.5t15 -24t30 -17t37.5 -11.5t50 -10l65 -12q161 -29 231 -106.5t56 -193.5q-17 -147 -133 -230.5t-311 -83.5q-119 0 -239.5 34.5t-202.5 96.5l125 191q153 -105 321 -105q166 0 175 90
q4 36 -27.5 57.5t-106.5 34.5l-67 11q-162 26 -233.5 105.5t-56.5 200.5q18 147 129.5 225t293.5 78q238 0 423 -107zM285 1413h246l86 -155l149 155h264l-277 -315h-315z" />
    <glyph glyph-name="Ydieresis" unicode="&#x178;" horiz-adv-x="1347" 
d="M1534 1400l-702 -848l-118 -552h-285l122 576l-348 824h298l230 -584l463 584h340zM668 1834q70 0 119 -49t49 -119t-48.5 -118t-119.5 -48q-70 0 -118 48t-48 118q0 71 48 119.5t118 48.5zM1099 1834q71 0 119.5 -49t48.5 -119t-48.5 -118t-119.5 -48t-118.5 48
t-47.5 118q0 71 48 119.5t118 48.5z" />
    <glyph glyph-name="Zcaron" unicode="&#x17d;" horiz-adv-x="1283" 
d="M1368 1400l-47 -225l-879 -918h717l-55 -257h-1090l50 231l877 912h-710l55 257h1082zM496 1823h246l86 -155l149 155h264l-277 -315h-315z" />
    <glyph glyph-name="zcaron" unicode="&#x17e;" horiz-adv-x="1007" 
d="M1007 969l-43 -199l-560 -537h472l-49 -233h-827l41 199l567 538h-464l50 232h813zM293 1413h246l86 -155l149 155h264l-277 -315h-315z" />
    <glyph glyph-name="longs" unicode="&#x17f;" horiz-adv-x="649" 
d="M923 1374l-131 -195q-69 44 -138 44q-110 0 -142 -147l-229 -1076h-263l237 1113q74 352 387 352q171 0 279 -91z" />
    <glyph glyph-name="florin" unicode="&#x192;" horiz-adv-x="1400" 
d="M1154 835l-46 -220h-255l-61 -278q-41 -187 -128 -274.5t-243 -87.5q-152 0 -260 76l124 197q63 -38 127 -38q56 0 84 34t44 107l58 264h-241l46 220h244l52 231q41 185 128 272t243 87q152 0 260 -76l-125 -197q-62 38 -127 38q-56 0 -83.5 -33.5t-44.5 -107.5l-48 -214
h252z" />
    <glyph glyph-name="uni0237" unicode="&#x237;" horiz-adv-x="528" 
d="M502 969l-230 -1082q-33 -153 -124.5 -230.5t-222.5 -77.5q-100 0 -176 38l81 219q32 -14 69 -14q42 0 75 28t45 85l219 1034h264z" />
    <glyph glyph-name="uni02BB" unicode="&#x2bb;" horiz-adv-x="524" 
d="M454 844h-292l252 596h234z" />
    <glyph glyph-name="uni02BC" unicode="&#x2bc;" horiz-adv-x="524" 
d="M350 1440h292l-252 -596h-234z" />
    <glyph glyph-name="circumflex" unicode="&#x2c6;" horiz-adv-x="1069" 
d="M1030 1098h-246l-87 155l-148 -155h-264l277 315h315z" />
    <glyph glyph-name="caron" unicode="&#x2c7;" horiz-adv-x="1069" 
d="M341 1413h246l86 -155l149 155h264l-277 -315h-315z" />
    <glyph glyph-name="breve" unicode="&#x2d8;" horiz-adv-x="1069" 
d="M349 1399l200 58q16 -164 149 -164q125 0 206 164l197 -58q-74 -157 -178.5 -236t-248.5 -79q-143 0 -230 82t-95 233z" />
    <glyph glyph-name="dotaccent" unicode="&#x2d9;" horiz-adv-x="598" 
d="M469 1454q70 0 118.5 -48.5t48.5 -119.5q0 -70 -48 -118t-119 -48t-118.5 48t-47.5 118q0 71 48 119.5t118 48.5z" />
    <glyph glyph-name="ring" unicode="&#x2da;" horiz-adv-x="1000" 
d="M676 1076q-108 0 -184.5 75.5t-76.5 182.5q0 106 77 181.5t184 75.5q109 0 186 -75.5t77 -181.5q0 -107 -77 -182.5t-186 -75.5zM676 1225q44 0 75.5 31.5t31.5 77.5q0 45 -31.5 76.5t-75.5 31.5q-42 0 -73.5 -31.5t-31.5 -76.5q0 -46 31 -77.5t74 -31.5z" />
    <glyph glyph-name="ogonek" unicode="&#x2db;" horiz-adv-x="1105" 
d="M811 -175l118 -154q-108 -90 -253 -90q-134 0 -217 60t-83 155q0 100 80 170t281 125l64 -59q-181 -79 -181 -182q0 -29 22 -46t61 -17q54 0 108 38z" />
    <glyph glyph-name="tilde" unicode="&#x2dc;" horiz-adv-x="1069" 
d="M441 1117l-129 158q114 126 269 126q50 0 93.5 -11t67.5 -24t50 -24t46 -11q32 0 62.5 17t72.5 54l128 -158q-113 -127 -269 -127q-63 0 -113.5 17.5t-84.5 35t-58 17.5q-33 0 -63.5 -17t-71.5 -53z" />
    <glyph glyph-name="hungarumlaut" unicode="&#x2dd;" horiz-adv-x="1069" 
d="M887 1108h-261l253 315h288zM507 1108h-255l226 315h283z" />
    <glyph glyph-name="gravecomb" unicode="&#x300;" horiz-adv-x="1" 
d="M-579 1107l-264 315h312l201 -315h-249z" />
    <glyph glyph-name="acutecomb" unicode="&#x301;" horiz-adv-x="1" 
d="M-421 1106h-255l232 316h319z" />
    <glyph glyph-name="uni0302" unicode="&#x302;" horiz-adv-x="1" 
d="M-136 1097h-246l-87 155l-148 -155h-264l277 315h315z" />
    <glyph glyph-name="tildecomb" unicode="&#x303;" horiz-adv-x="1" 
d="M-758 1116l-129 158q114 126 269 126q50 0 93.5 -11t67.5 -24t50 -24t46 -11q32 0 62.5 17t72.5 54l128 -158q-113 -127 -269 -127q-63 0 -113.5 17.5t-84.5 35t-58 17.5q-33 0 -63.5 -17t-71.5 -53z" />
    <glyph glyph-name="uni0304" unicode="&#x304;" horiz-adv-x="1" 
d="M-818 1150l45 209h661l-45 -209h-661z" />
    <glyph glyph-name="uni0306" unicode="&#x306;" horiz-adv-x="1" 
d="M-829 1398l200 58q16 -164 149 -164q125 0 206 164l197 -58q-74 -157 -178.5 -236t-248.5 -79q-143 0 -230 82t-95 233z" />
    <glyph glyph-name="uni0307" unicode="&#x307;" horiz-adv-x="1" 
d="M-460 1453q70 0 118.5 -48.5t48.5 -119.5q0 -70 -48 -118t-119 -48q-70 0 -118 47.5t-48 118.5t48 119.5t118 48.5z" />
    <glyph glyph-name="uni0308" unicode="&#x308;" horiz-adv-x="1" 
d="M-687 1423q71 0 119.5 -48.5t48.5 -119.5q0 -70 -48.5 -118t-119.5 -48t-118.5 47.5t-47.5 118.5t48 119.5t118 48.5zM-256 1423q70 0 119 -48.5t49 -119.5q0 -70 -48.5 -118t-119.5 -48q-70 0 -118 47.5t-48 118.5t48 119.5t118 48.5z" />
    <glyph glyph-name="uni030A" unicode="&#x30a;" horiz-adv-x="1" 
d="M-490 1075q-108 0 -184.5 75.5t-76.5 182.5q0 106 77 181.5t184 75.5q109 0 186 -75.5t77 -181.5q0 -107 -77 -182.5t-186 -75.5zM-490 1224q44 0 75.5 31.5t31.5 77.5q0 45 -31.5 76.5t-75.5 31.5q-42 0 -73.5 -31.5t-31.5 -76.5q0 -46 31 -77.5t74 -31.5z" />
    <glyph glyph-name="uni030B" unicode="&#x30b;" horiz-adv-x="1" 
d="M-199 1107h-261l253 315h288zM-579 1107h-255l226 315h283z" />
    <glyph glyph-name="uni030C" unicode="&#x30c;" horiz-adv-x="1" 
d="M-809 1412h246l86 -155l149 155h264l-277 -315h-315z" />
    <glyph glyph-name="uni0326" unicode="&#x326;" horiz-adv-x="1" 
d="M-697 -84h269l-166 -389h-229z" />
    <glyph glyph-name="uni0327" unicode="&#x327;" horiz-adv-x="1" 
d="M-333 7l-162 -328h-265l181 328h246z" />
    <glyph glyph-name="uni0328" unicode="&#x328;" horiz-adv-x="1" 
d="M-388 -175l118 -154q-108 -90 -253 -90q-134 0 -217 60t-83 155q0 100 80 170t281 125l64 -59q-181 -79 -181 -182q0 -29 22 -46t61 -17q54 0 108 38z" />
    <glyph glyph-name="uni0335" unicode="&#x335;" horiz-adv-x="1" 
d="M-199 635l-44 -215h-728l43 215h729z" />
    <glyph glyph-name="uni0336" unicode="&#x336;" horiz-adv-x="1" 
d="M185 636l-44 -218h-1496l44 218h1496z" />
    <glyph glyph-name="uni0394" unicode="&#x394;" horiz-adv-x="1381" 
d="M1055 1400l208 -1182l-46 -218h-1259l46 218l712 1182h339zM979 261l-140 865l-508 -865h648z" />
    <glyph glyph-name="uni03A9" unicode="&#x3a9;" horiz-adv-x="1694" 
d="M1615 254l-54 -254h-636l49 231q163 46 261.5 190t98.5 324q0 179 -116 296.5t-301 117.5q-138 0 -249 -70.5t-171 -188t-60 -257.5q0 -150 73.5 -257.5t200.5 -147.5l-50 -238h-636l54 254h263q-192 173 -192 435q0 205 103.5 374t282 265.5t393.5 96.5q204 0 364.5 -81
t249.5 -226t89 -328q0 -154 -63.5 -292t-184.5 -244h231z" />
    <glyph glyph-name="uni03BC" unicode="&#x3bc;" horiz-adv-x="1161" 
d="M188 -400h-256l293 1369h262l-117 -544q-7 -31 -7 -64q0 -65 36.5 -103.5t115.5 -38.5q89 0 156 55.5t92 174.5l110 520h262l-206 -969h-252l22 98q-108 -124 -280 -124q-81 0 -146 28z" />
    <glyph glyph-name="pi" unicode="&#x3c0;" horiz-adv-x="1157" 
d="M1139 969l-206 -969h-261l156 737h-385l-156 -737h-261l206 969h907z" />
    <glyph glyph-name="uni1E9E" unicode="&#x1e9e;" horiz-adv-x="1441" 
d="M33 0l195 918q23 106 70 194.5t121.5 160t185.5 112t247 40.5q186 0 338 -82t226 -215l-384 -355q163 -50 243 -154.5t60 -253.5q-24 -181 -174 -286t-366 -105q-182 0 -328 49l90 250q102 -39 231 -39q237 0 257 149q12 86 -64 138t-223 52h-92l43 204l348 327
q-77 62 -226 62q-122 0 -210.5 -78.5t-115.5 -203.5l-187 -884h-285z" />
    <glyph glyph-name="uni2007" unicode="&#x2007;" horiz-adv-x="1403" 
 />
    <glyph glyph-name="uni2008" unicode="&#x2008;" horiz-adv-x="538" 
 />
    <glyph glyph-name="uni2009" unicode="&#x2009;" horiz-adv-x="165" 
 />
    <glyph glyph-name="uni200B" unicode="&#x200b;" horiz-adv-x="0" 
 />
    <glyph glyph-name="uni2010" unicode="&#x2010;" horiz-adv-x="794" 
d="M721 646l-48 -228h-581l48 228h581z" />
    <glyph glyph-name="uni2011" unicode="&#x2011;" horiz-adv-x="794" 
d="M721 646l-48 -228h-581l48 228h581z" />
    <glyph glyph-name="figuredash" unicode="&#x2012;" 
d="M1097 644l-46 -223h-951l46 223h951z" />
    <glyph glyph-name="endash" unicode="&#x2013;" horiz-adv-x="1135" 
d="M1076 644l-46 -223h-951l46 223h951z" />
    <glyph glyph-name="emdash" unicode="&#x2014;" horiz-adv-x="1568" 
d="M1555 644l-46 -223h-1475l45 223h1476z" />
    <glyph glyph-name="quoteleft" unicode="&#x2018;" horiz-adv-x="524" 
d="M454 844h-292l252 596h234z" />
    <glyph glyph-name="quoteright" unicode="&#x2019;" horiz-adv-x="524" 
d="M350 1440h292l-252 -596h-234z" />
    <glyph glyph-name="quotesinglbase" unicode="&#x201a;" horiz-adv-x="524" 
d="M111 316h292l-252 -596h-234z" />
    <glyph glyph-name="quotedblleft" unicode="&#x201c;" horiz-adv-x="957" 
d="M454 844h-292l252 596h234zM887 844h-292l252 596h234z" />
    <glyph glyph-name="quotedblright" unicode="&#x201d;" horiz-adv-x="957" 
d="M783 1440h292l-252 -596h-234zM350 1440h292l-252 -596h-234z" />
    <glyph glyph-name="quotedblbase" unicode="&#x201e;" horiz-adv-x="957" 
d="M544 316h292l-252 -596h-234zM111 316h292l-252 -596h-234z" />
    <glyph glyph-name="dagger" unicode="&#x2020;" horiz-adv-x="788" 
d="M521 602h-203l89 422h-216l42 199h216l46 217h204l-46 -217h216l-43 -199h-216z" />
    <glyph glyph-name="daggerdbl" unicode="&#x2021;" horiz-adv-x="788" 
d="M699 1440l-35 -166h216l-41 -191h-216l-28 -131h216l-41 -191h-215l-35 -166h-204l35 166h-216l41 191h215l28 131h-215l41 191h215l35 166h204z" />
    <glyph glyph-name="bullet" unicode="&#x2022;" horiz-adv-x="861" 
d="M445 849q131 0 224 -92.5t93 -224.5t-93 -224.5t-224 -92.5t-224 92.5t-93 224.5t93 224.5t224 92.5z" />
    <glyph glyph-name="uni2023" unicode="&#x2023;" horiz-adv-x="1005" 
d="M929 532l-832 -429l182 858z" />
    <glyph glyph-name="ellipsis" unicode="&#x2026;" horiz-adv-x="1644" 
d="M205 363q78 0 135.5 -57.5t57.5 -135.5q0 -79 -57.5 -137t-135.5 -58t-136 58t-58 137q0 78 58 135.5t136 57.5zM759 363q77 0 135 -57.5t58 -135.5q0 -79 -58 -137t-135 -58q-78 0 -136.5 58t-58.5 137q0 78 58.5 135.5t136.5 57.5zM1312 363q78 0 135.5 -57.5
t57.5 -135.5q0 -79 -57.5 -137t-135.5 -58t-136 58t-58 137q0 78 58 135.5t136 57.5z" />
    <glyph glyph-name="perthousand" unicode="&#x2030;" horiz-adv-x="2845" 
d="M593 1425q157 0 258 -98.5t101 -252.5q0 -168 -117.5 -289t-288.5 -121q-158 0 -259.5 98.5t-101.5 252.5q0 168 118 289t290 121zM581 1217q-75 0 -124.5 -55t-49.5 -133q0 -69 42.5 -113t107.5 -44q75 0 124.5 55t49.5 133q0 69 -42.5 113t-107.5 44zM1746 1400
l-1110 -1400h-275l1110 1400h275zM1562 736q156 0 257.5 -99t101.5 -253q0 -169 -117.5 -289.5t-289.5 -120.5q-157 0 -258.5 98.5t-101.5 252.5q0 169 118 290t290 121zM1550 527q-75 0 -124.5 -55t-49.5 -133q0 -69 42 -112.5t107 -43.5q75 0 124.5 54.5t49.5 132.5
q0 69 -42 113t-107 44zM2392 736q157 0 258 -99t101 -253q0 -168 -117.5 -289t-288.5 -121q-158 0 -259.5 98.5t-101.5 252.5q0 169 118 290t290 121zM2380 527q-75 0 -124.5 -55t-49.5 -133q0 -69 42 -112.5t108 -43.5q75 0 124 54.5t49 132.5q0 69 -42 113t-107 44z" />
    <glyph glyph-name="minute" unicode="&#x2032;" horiz-adv-x="568" 
d="M419 1400h258l-289 -681h-259z" />
    <glyph glyph-name="second" unicode="&#x2033;" horiz-adv-x="957" 
d="M808 1400h258l-289 -681h-259zM419 1400h258l-289 -681h-259z" />
    <glyph glyph-name="uni2034" unicode="&#x2034;" horiz-adv-x="1303" 
d="M786 1400h258l-289 -681h-259zM1154 1400h258l-289 -681h-259zM419 1400h258l-289 -681h-259z" />
    <glyph glyph-name="guilsinglleft" unicode="&#x2039;" horiz-adv-x="638" 
d="M639 922l-295 -417l102 -363h-249l-109 390l276 390h275z" />
    <glyph glyph-name="guilsinglright" unicode="&#x203a;" horiz-adv-x="638" 
d="M19 143l295 417l-102 363h249l109 -390l-276 -390h-275z" />
    <glyph glyph-name="fraction" unicode="&#x2044;" horiz-adv-x="476" 
d="M898 1400l-1055 -1400h-253l1055 1400h253z" />
    <glyph glyph-name="uni2070" unicode="&#x2070;" horiz-adv-x="891" 
d="M614 1415q142 0 230.5 -88.5t88.5 -243.5q0 -90 -29 -180.5t-82 -167t-137 -124.5t-184 -48q-142 0 -231 88.5t-89 242.5q0 71 18 144t55 141t87.5 120.5t121.5 84t151 31.5zM602 1228q-66 0 -116.5 -51.5t-74 -121.5t-23.5 -142q0 -77 33 -120t91 -43q66 0 117 51
t74.5 121.5t23.5 142.5q0 77 -33 120t-92 43z" />
    <glyph glyph-name="uni2071" unicode="&#x2071;" horiz-adv-x="438" 
d="M488 1268l-147 -690h-193l146 690h194zM432 1613q52 0 87.5 -34.5t35.5 -86.5t-35.5 -87t-87.5 -35q-51 0 -86 35t-35 87t35 86.5t86 34.5z" />
    <glyph glyph-name="uni2074" unicode="&#x2074;" horiz-adv-x="718" 
d="M719 1113l-46 -215h104l-38 -181h-105l-29 -139h-195l29 139h-357l33 155l355 527h222l-337 -501h123l19 91l83 124h139z" />
    <glyph glyph-name="uni2075" unicode="&#x2075;" horiz-adv-x="716" 
d="M780 1400l-38 -179h-309l-32 -127h52q145 0 219 -81t49 -201q-26 -124 -116.5 -186.5t-227.5 -62.5q-89 0 -162.5 31t-119.5 87l115 129q66 -70 176 -70q120 0 137 86q8 45 -22.5 72t-106.5 27h-202l109 475h479z" />
    <glyph glyph-name="uni2076" unicode="&#x2076;" horiz-adv-x="747" 
d="M759 1400l-248 -277q119 -6 193.5 -73t74.5 -178q0 -129 -96 -219t-244 -90q-132 0 -221.5 73.5t-89.5 192.5q0 128 114 259l269 312h248zM460 960q-56 0 -91 -35t-35 -85q0 -46 31 -75t81 -29q56 0 91.5 35.5t35.5 86.5q0 45 -32 73.5t-81 28.5z" />
    <glyph glyph-name="uni2077" unicode="&#x2077;" horiz-adv-x="682" 
d="M832 1400l-33 -163l-413 -659h-233l410 641h-366l38 181h597z" />
    <glyph glyph-name="uni2078" unicode="&#x2078;" horiz-adv-x="782" 
d="M569 1414q121 0 203 -57t82 -151q0 -71 -46 -129.5t-128 -90.5q109 -54 109 -155q0 -113 -97 -190.5t-263 -77.5q-129 0 -213.5 58t-84.5 154q0 73 48.5 131.5t135.5 89.5q-87 50 -87 146q0 114 93.5 193t247.5 79zM475 918q-55 0 -92 -29.5t-37 -76.5q0 -37 30.5 -58.5
t73.5 -21.5q56 0 93.5 28.5t37.5 76.5q0 38 -30.5 59.5t-75.5 21.5zM551 1245q-53 0 -85.5 -27.5t-32.5 -70.5q0 -35 25.5 -55t67.5 -20q51 0 85 28t34 70q0 34 -27 54.5t-67 20.5z" />
    <glyph glyph-name="uni2079" unicode="&#x2079;" horiz-adv-x="747" 
d="M202 578l247 276q-119 7 -193 73.5t-74 178.5q0 128 96 218t244 90q132 0 221.5 -73t89.5 -192q0 -128 -114 -259l-269 -312h-248zM502 1018q56 0 91 35t35 85q0 45 -31.5 74t-81.5 29q-56 0 -91.5 -35t-35.5 -87q0 -45 32 -73t82 -28z" />
    <glyph glyph-name="uni207F" unicode="&#x207f;" horiz-adv-x="818" 
d="M622 1287q108 0 171.5 -64.5t63.5 -168.5q0 -38 -9 -77l-87 -399h-193l83 388q5 25 5 42q0 45 -25 71t-78 26q-62 0 -106.5 -38t-61.5 -120l-77 -369h-194l147 690h186l-14 -57q75 76 189 76z" />
    <glyph glyph-name="uni2080" unicode="&#x2080;" horiz-adv-x="891" 
d="M412 452q142 0 230.5 -88.5t88.5 -243.5q0 -90 -29 -180.5t-82 -167t-137 -124.5t-184 -48q-142 0 -231 88.5t-89 242.5q0 71 18 144t55 141t87.5 120.5t121.5 84t151 31.5zM400 265q-66 0 -116.5 -51.5t-74 -121.5t-23.5 -142q0 -77 33 -120t91 -43q66 0 117 51
t74.5 121.5t23.5 142.5q0 77 -33 120t-92 43z" />
    <glyph glyph-name="uni2081" unicode="&#x2081;" horiz-adv-x="527" 
d="M408 450l-177 -835h-195l121 570l-191 -59l42 200z" />
    <glyph glyph-name="uni2082" unicode="&#x2082;" horiz-adv-x="727" 
d="M128 189l-108 131q119 131 292 131q133 0 204 -71t71 -170q0 -81 -41 -145t-148 -151l-148 -119h282l-38 -180h-566l33 156l315 256q61 49 85 84t24 70q0 36 -28 60t-75 24q-46 0 -79 -18.5t-75 -57.5z" />
    <glyph glyph-name="uni2083" unicode="&#x2083;" horiz-adv-x="721" 
d="M101 205l-89 138q116 108 293 108q126 0 202.5 -62.5t76.5 -151.5q0 -69 -44.5 -129t-117.5 -89q48 -24 74 -64.5t26 -89.5q0 -113 -90.5 -189t-245.5 -76q-201 0 -286 120l127 121q56 -68 162 -68q66 0 100 27t34 70q0 37 -33.5 57t-87.5 20h-90l34 166h89
q68 0 106.5 27t38.5 68q0 33 -29 52t-77 19q-91 0 -173 -74z" />
    <glyph glyph-name="uni2084" unicode="&#x2084;" horiz-adv-x="718" 
d="M515 150l-46 -215h104l-38 -181h-105l-29 -139h-195l29 139h-357l33 155l355 527h222l-337 -501h123l19 91l83 124h139z" />
    <glyph glyph-name="uni2085" unicode="&#x2085;" horiz-adv-x="715" 
d="M577 437l-38 -179h-309l-32 -127h52q145 0 219 -81t49 -201q-26 -124 -116.5 -186.5t-227.5 -62.5q-89 0 -162.5 31t-119.5 87l115 129q66 -70 176 -70q120 0 137 86q8 45 -22.5 72t-106.5 27h-202l109 475h479z" />
    <glyph glyph-name="uni2086" unicode="&#x2086;" horiz-adv-x="747" 
d="M556 437l-248 -277q119 -6 193.5 -73t74.5 -178q0 -129 -96 -219t-244 -90q-132 0 -221.5 73.5t-89.5 192.5q0 128 114 259l269 312h248zM257 -3q-56 0 -91 -35t-35 -85q0 -46 31 -75t81 -29q56 0 91.5 35.5t35.5 86.5q0 45 -32 73.5t-81 28.5z" />
    <glyph glyph-name="uni2087" unicode="&#x2087;" horiz-adv-x="682" 
d="M629 437l-33 -163l-413 -659h-233l410 641h-366l38 181h597z" />
    <glyph glyph-name="uni2088" unicode="&#x2088;" horiz-adv-x="782" 
d="M367 451q121 0 203 -57t82 -151q0 -71 -46 -129.5t-128 -90.5q109 -54 109 -155q0 -113 -97 -190.5t-263 -77.5q-129 0 -213.5 58t-84.5 154q0 73 48.5 131.5t135.5 89.5q-87 50 -87 146q0 114 93.5 193t247.5 79zM273 -45q-55 0 -92 -29.5t-37 -76.5q0 -37 30.5 -58.5
t73.5 -21.5q56 0 93.5 28.5t37.5 76.5q0 38 -30.5 59.5t-75.5 21.5zM349 282q-53 0 -85.5 -27.5t-32.5 -70.5q0 -35 25.5 -55t67.5 -20q51 0 85 28t34 70q0 34 -27 54.5t-67 20.5z" />
    <glyph glyph-name="uni2089" unicode="&#x2089;" horiz-adv-x="747" 
d="M-4 -385l247 276q-119 7 -193 73.5t-74 178.5q0 128 96 218t244 90q132 0 221.5 -73t89.5 -192q0 -128 -114 -259l-269 -312h-248zM296 55q56 0 91 35t35 85q0 45 -31.5 74t-81.5 29q-56 0 -91.5 -35t-35.5 -87q0 -45 32 -73t82 -28z" />
    <glyph glyph-name="Euro" unicode="&#x20ac;" horiz-adv-x="1400" 
d="M1163 365l132 -189q-178 -196 -431 -196q-229 0 -383 126t-195 346h-194l39 185h142q2 67 13 134h-134l39 185h144q84 220 260.5 343t407.5 123q287 0 466 -206l-177 -185q-120 148 -304 148q-116 0 -210 -58.5t-154 -164.5h524l-40 -185h-549q-12 -64 -15 -134h536
l-39 -185h-470q36 -108 116.5 -168t190.5 -60q84 0 157.5 38t127.5 103z" />
    <glyph glyph-name="uni20BA" unicode="&#x20ba;" horiz-adv-x="1400" 
d="M1055 486l211 -133q-92 -193 -241 -273t-371 -80h-440l69 324l-181 -77l42 208l183 78l30 139l-183 -78l43 207l184 79l111 522h273l-84 -394l409 175l-43 -208l-410 -175l-30 -138l410 175l-43 -209l-411 -176l-42 -196h136q63 0 112.5 9.5t99.5 33.5t92 70.5t74 116.5z
" />
    <glyph glyph-name="uni2100" unicode="&#x2100;" horiz-adv-x="2000" 
d="M649 1425q137 0 216.5 -66.5t79.5 -182.5q0 -37 -9 -79l-81 -381h-187l10 50q-82 -68 -185 -68q-101 0 -163.5 54.5t-62.5 139.5q0 109 81.5 175t222.5 66h178q1 7 1 20q0 102 -136 102q-84 0 -186 -55l-51 156q124 69 272 69zM555 853q82 0 152 67l17 79h-135
q-55 0 -86 -22t-31 -59q0 -30 21.5 -47.5t61.5 -17.5zM1737 1400l-1055 -1400h-253l1055 1400h253zM1871 531l-165 -90q-51 77 -142 77q-80 0 -133.5 -59.5t-53.5 -143.5q0 -71 42 -116t105 -45q84 0 144 67l131 -118q-110 -129 -283 -129q-150 0 -244 92.5t-94 234.5
q0 165 112 281t284 116q210 0 297 -167z" />
    <glyph glyph-name="uni2101" unicode="&#x2101;" horiz-adv-x="2000" 
d="M641 1425q137 0 216.5 -66.5t79.5 -182.5q0 -37 -9 -79l-81 -381h-187l10 50q-82 -68 -185 -68q-101 0 -163.5 54.5t-62.5 139.5q0 109 81.5 175t222.5 66h178q1 7 1 20q0 102 -136 102q-84 0 -186 -55l-51 156q124 69 272 69zM547 853q82 0 152 67l17 79h-135
q-55 0 -86 -22t-31 -59q0 -30 21.5 -47.5t61.5 -17.5zM1721 1400l-1055 -1400h-253l1055 1400h253zM1833 622l-85 -144q-47 29 -109.5 44.5t-107.5 15.5q-99 0 -105 -52q-2 -17 3 -27.5t20.5 -18t29 -10.5t43.5 -9l46 -9q223 -42 202 -214q-12 -106 -95 -165.5t-223 -59.5
q-86 0 -172.5 24.5t-143.5 67.5l90 143q109 -75 230 -75q111 0 117 59q3 25 -19.5 40t-74.5 23l-47 7q-115 19 -165 76t-40 144q13 105 93 161t211 56q166 0 302 -77z" />
    <glyph glyph-name="uni2105" unicode="&#x2105;" horiz-adv-x="2000" 
d="M924 1257l-165 -90q-51 77 -142 77q-80 0 -133.5 -59.5t-53.5 -143.5q0 -71 42 -116t105 -45q84 0 144 67l131 -118q-110 -129 -283 -129q-150 0 -244 92.5t-94 234.5q0 165 112 281t284 116q210 0 297 -167zM1664 1400l-1055 -1400h-253l1055 1400h253zM1514 699
q150 0 248 -92t98 -239q0 -164 -114.5 -280t-285.5 -116q-150 0 -248 92t-98 240q0 164 114.5 279.5t285.5 115.5zM1500 518q-79 0 -133 -59t-54 -144q0 -71 44 -117t114 -46q81 0 136 59.5t55 144.5q0 72 -45.5 117t-116.5 45z" />
    <glyph glyph-name="uni2106" unicode="&#x2106;" horiz-adv-x="2000" 
d="M928 1257l-165 -90q-51 77 -142 77q-80 0 -133.5 -59.5t-53.5 -143.5q0 -71 42 -116t105 -45q84 0 144 67l131 -118q-110 -129 -283 -129q-150 0 -244 92.5t-94 234.5q0 165 112 281t284 116q210 0 297 -167zM1661 1400l-1055 -1400h-253l1055 1400h253zM1902 690
l-85 -404q-34 -160 -132 -232.5t-236 -72.5q-128 0 -207 66t-79 187q0 35 10 85l78 371h194l-82 -387q-5 -20 -5 -44q0 -48 29 -72t79 -24q62 0 105 39.5t59 117.5l79 370h193z" />
    <glyph glyph-name="uni2113" unicode="&#x2113;" horiz-adv-x="1045" 
d="M196 366l-77 219q81 28 154 62l1 426q1 174 98 283t259 109q147 0 241.5 -93.5t94.5 -240.5q0 -365 -450 -619v-151q0 -72 37 -108.5t97 -36.5q86 0 186 64l102 -198q-141 -99 -306 -99q-173 0 -266.5 93.5t-93.5 275.5v44q-43 -18 -77 -30zM518 1063l-1 -274
q205 157 206 331q0 54 -24.5 85.5t-68.5 31.5q-50 0 -81 -45t-31 -129z" />
    <glyph glyph-name="uni2116" unicode="&#x2116;" horiz-adv-x="2376" 
d="M2337 582l-46 -217h-707l47 217h706zM2088 1418q156 0 255 -93.5t99 -241.5q0 -161 -114.5 -275.5t-284.5 -114.5q-155 0 -254 94t-99 238q0 162 113.5 277.5t284.5 115.5zM2078 1232q-81 0 -133 -56.5t-52 -137.5q0 -70 45 -115t115 -45q81 0 133.5 57t52.5 138
q0 70 -45 114.5t-116 44.5zM1588 1400l-298 -1400h-262l-490 964l-205 -964h-284l298 1400h263l489 -964l205 964h284z" />
    <glyph glyph-name="uni2117" unicode="&#x2117;" horiz-adv-x="1859" 
d="M923 -95q-157 0 -299 57t-246.5 156t-166.5 239t-62 299q0 168 69.5 325t187 274.5t282 188.5t345.5 71q157 0 299 -57t246.5 -156t166 -239t61.5 -299q0 -168 -69.5 -325t-186.5 -274.5t-281.5 -188.5t-345.5 -71zM1018 1296q-175 0 -322.5 -88t-231 -232t-83.5 -306
q0 -155 76 -281t203.5 -195.5t277.5 -69.5q175 0 322.5 88t231 232t83.5 306q0 155 -76 281t-203.5 195.5t-277.5 69.5zM771 1117h332q115 0 194 -45t108 -114.5t12 -148.5q-26 -122 -122 -183t-247 -61h-178l-58 -272h-216zM1090 929h-143l-38 -181h142q69 0 106 19t46 64
q9 43 -20.5 70.5t-92.5 27.5z" />
    <glyph glyph-name="uni2120" unicode="&#x2120;" horiz-adv-x="1619" 
d="M803 1332l-82 -129q-45 30 -102.5 44t-102.5 14q-51 0 -77 -14.5t-26 -37.5q0 -27 28.5 -40.5t78.5 -20.5l31 -5q95 -15 147.5 -60.5t52.5 -115.5q0 -103 -82 -164.5t-214 -61.5q-81 0 -165.5 23.5t-140.5 66.5l90 129q102 -72 227 -72q48 0 77.5 14t29.5 41
q0 25 -25.5 36.5t-87.5 22.5l-33 5q-90 15 -140.5 61.5t-50.5 118.5q0 98 74 160t205 62q167 0 288 -77zM1615 753h-178l89 419l-208 -359h-178l-57 360l-89 -420h-176l137 647h242l68 -388l231 388h256z" />
    <glyph glyph-name="trademark" unicode="&#x2122;" horiz-adv-x="1615" 
d="M1611 753h-178l89 419l-208 -359h-178l-57 360l-89 -420h-176l137 647h242l68 -388l231 388h256zM499 753h-177l103 485h-204l35 162h585l-35 -162h-204z" />
    <glyph glyph-name="Omega" unicode="&#x2126;" horiz-adv-x="1694" 
d="M1615 254l-54 -254h-636l49 231q163 46 261.5 190t98.5 324q0 179 -116 296.5t-301 117.5q-138 0 -249 -70.5t-171 -188t-60 -257.5q0 -150 73.5 -257.5t200.5 -147.5l-50 -238h-636l54 254h263q-192 173 -192 435q0 205 103.5 374t282 265.5t393.5 96.5q204 0 364.5 -81
t249.5 -226t89 -328q0 -154 -63.5 -292t-184.5 -244h231z" />
    <glyph glyph-name="estimated" unicode="&#x212e;" horiz-adv-x="2000" 
d="M563 650v-306q0 -93 31 -158.5t105 -107.5q168 -95 361 -95q185 0 340.5 80t251.5 224l80 -62q-110 -162 -286.5 -252.5t-385.5 -90.5q-166 0 -315 59.5t-258.5 165t-174 259.5t-64.5 334t64.5 334t174 259.5t258.5 165t315 59.5q167 0 315.5 -59.5t258.5 -165
t174 -259.5t64 -334q0 -34 -1 -50h-1308zM563 750h1006v296q0 92 -30 157t-102 109q-173 105 -377 105q-193 0 -361 -95q-74 -42 -105 -107.5t-31 -158.5v-306z" />
    <glyph glyph-name="uni214D" unicode="&#x214d;" horiz-adv-x="2053" 
d="M825 1400l113 -743h-193l-17 140h-270l-75 -140h-210l425 743h227zM1914 666l-96 -151q-47 34 -111 50.5t-113 16.5q-52 0 -78.5 -16t-26.5 -41q0 -15 9 -26t30 -19.5t35 -12t44 -10.5l30 -7q216 -50 216 -200q0 -121 -92 -192.5t-240 -71.5q-95 0 -189 27t-154 77
l107 152q115 -84 250 -84q49 0 78.5 16t29.5 46q0 27 -27.5 40t-93.5 26l-32 6q-101 19 -155.5 70.5t-54.5 133.5q0 116 83.5 188t228.5 72q189 0 322 -90zM679 1211l-129 -242h158zM1788 1400l-1055 -1400h-253l1055 1400h253z" />
    <glyph glyph-name="uni2150" unicode="&#x2150;" horiz-adv-x="1749" 
d="M1461 1400l-1055 -1400h-253l1055 1400h253zM1774 822l-33 -163l-413 -659h-233l410 641h-366l38 181h597zM612 1413l-177 -835h-195l121 570l-191 -59l42 200z" />
    <glyph glyph-name="uni2151" unicode="&#x2151;" horiz-adv-x="1786" 
d="M1461 1400l-1055 -1400h-253l1055 1400h253zM1120 0l247 276q-119 7 -193 73.5t-74 178.5q0 128 96 218t244 90q132 0 221.5 -73t89.5 -192q0 -128 -114 -259l-269 -312h-248zM1420 440q56 0 91 35t35 85q0 45 -31.5 74t-81.5 29q-56 0 -91.5 -35t-35.5 -87q0 -45 32 -73
t82 -28zM612 1413l-177 -835h-195l121 570l-191 -59l42 200z" />
    <glyph glyph-name="uni2152" unicode="&#x2152;" horiz-adv-x="2466" 
d="M1461 1400l-1055 -1400h-253l1055 1400h253zM1530 835l-177 -835h-195l121 570l-191 -59l42 200zM2063 837q142 0 230.5 -88.5t88.5 -243.5q0 -90 -29 -180.5t-82 -167t-137 -124.5t-184 -48q-142 0 -231 88.5t-89 242.5q0 71 18 144t55 141t87.5 120.5t121.5 84
t151 31.5zM2051 650q-66 0 -116.5 -51.5t-74 -121.5t-23.5 -142q0 -77 33 -120t91 -43q66 0 117 51t74.5 121.5t23.5 142.5q0 77 -33 120t-92 43zM612 1413l-177 -835h-195l121 570l-191 -59l42 200z" />
    <glyph glyph-name="onethird" unicode="&#x2153;" horiz-adv-x="1759" 
d="M1461 1400l-1055 -1400h-253l1055 1400h253zM1219 590l-89 138q116 108 293 108q126 0 202.5 -62.5t76.5 -151.5q0 -69 -44.5 -129t-117.5 -89q48 -24 74 -64.5t26 -89.5q0 -113 -90.5 -189t-245.5 -76q-201 0 -286 120l127 121q56 -68 162 -68q66 0 100 27t34 70
q0 37 -33.5 57t-87.5 20h-90l34 166h89q68 0 106.5 27t38.5 68q0 33 -29 52t-77 19q-91 0 -173 -74zM612 1413l-177 -835h-195l121 570l-191 -59l42 200z" />
    <glyph glyph-name="twothirds" unicode="&#x2154;" horiz-adv-x="1990" 
d="M1692 1400l-1055 -1400h-253l1055 1400h253zM1450 590l-89 138q116 108 293 108q126 0 202.5 -62.5t76.5 -151.5q0 -69 -44.5 -129t-117.5 -89q48 -24 74 -64.5t26 -89.5q0 -113 -90.5 -189t-245.5 -76q-201 0 -286 120l127 121q56 -68 162 -68q66 0 100 27t34 70
q0 37 -33.5 57t-87.5 20h-90l34 166h89q68 0 106.5 27t38.5 68q0 33 -29 52t-77 19q-91 0 -173 -74zM330 1152l-108 131q119 131 292 131q133 0 204 -71t71 -170q0 -81 -41 -145t-148 -151l-148 -119h282l-38 -180h-566l33 156l315 256q61 49 85 84t24 70q0 36 -28 60
t-75 24q-46 0 -79 -18.5t-75 -57.5z" />
    <glyph glyph-name="uni2155" unicode="&#x2155;" horiz-adv-x="1756" 
d="M1461 1400l-1055 -1400h-253l1055 1400h253zM1694 822l-38 -179h-309l-32 -127h52q145 0 219 -81t49 -201q-26 -124 -116.5 -186.5t-227.5 -62.5q-89 0 -162.5 31t-119.5 87l115 129q66 -70 176 -70q120 0 137 86q8 45 -22.5 72t-106.5 27h-202l109 475h479zM612 1413
l-177 -835h-195l121 570l-191 -59l42 200z" />
    <glyph glyph-name="uni2156" unicode="&#x2156;" horiz-adv-x="1987" 
d="M1692 1400l-1055 -1400h-253l1055 1400h253zM1925 822l-38 -179h-309l-32 -127h52q145 0 219 -81t49 -201q-26 -124 -116.5 -186.5t-227.5 -62.5q-89 0 -162.5 31t-119.5 87l115 129q66 -70 176 -70q120 0 137 86q8 45 -22.5 72t-106.5 27h-202l109 475h479zM330 1152
l-108 131q119 131 292 131q133 0 204 -71t71 -170q0 -81 -41 -145t-148 -151l-148 -119h282l-38 -180h-566l33 156l315 256q61 49 85 84t24 70q0 36 -28 60t-75 24q-46 0 -79 -18.5t-75 -57.5z" />
    <glyph glyph-name="uni2157" unicode="&#x2157;" horiz-adv-x="1922" 
d="M1627 1400l-1055 -1400h-253l1055 1400h253zM1860 822l-38 -179h-309l-32 -127h52q145 0 219 -81t49 -201q-26 -124 -116.5 -186.5t-227.5 -62.5q-89 0 -162.5 31t-119.5 87l115 129q66 -70 176 -70q120 0 137 86q8 45 -22.5 72t-106.5 27h-202l109 475h479zM304 1168
l-89 138q116 108 293 108q126 0 202.5 -62.5t76.5 -151.5q0 -69 -44.5 -129t-117.5 -89q48 -24 74 -64.5t26 -89.5q0 -113 -90.5 -189t-245.5 -76q-201 0 -286 120l127 121q56 -68 162 -68q66 0 100 27t34 70q0 37 -33.5 57t-87.5 20h-90l34 166h89q68 0 106.5 27t38.5 68
q0 33 -29 52t-77 19q-91 0 -173 -74z" />
    <glyph glyph-name="uni2158" unicode="&#x2158;" horiz-adv-x="1942" 
d="M1647 1400l-1055 -1400h-253l1055 1400h253zM1879 822l-38 -179h-309l-32 -127h52q145 0 219 -81t49 -201q-26 -124 -116.5 -186.5t-227.5 -62.5q-89 0 -162.5 31t-119.5 87l115 129q66 -70 176 -70q120 0 137 86q8 45 -22.5 72t-106.5 27h-202l109 475h479zM719 1113
l-46 -215h104l-38 -181h-105l-29 -139h-195l29 139h-357l33 155l355 527h222l-337 -501h123l19 91l83 124h139z" />
    <glyph glyph-name="uni2159" unicode="&#x2159;" horiz-adv-x="1677" 
d="M1461 1400l-1055 -1400h-253l1055 1400h253zM1564 822l-248 -277q119 -6 193.5 -73t74.5 -178q0 -129 -96 -219t-244 -90q-132 0 -221.5 73.5t-89.5 192.5q0 128 114 259l269 312h248zM1265 382q-56 0 -91 -35t-35 -85q0 -46 31 -75t81 -29q56 0 91.5 35.5t35.5 86.5
q0 45 -32 73.5t-81 28.5zM612 1413l-177 -835h-195l121 570l-191 -59l42 200z" />
    <glyph glyph-name="uni215A" unicode="&#x215a;" horiz-adv-x="1837" 
d="M1622 1400l-1055 -1400h-253l1055 1400h253zM1724 822l-248 -277q119 -6 193.5 -73t74.5 -178q0 -129 -96 -219t-244 -90q-132 0 -221.5 73.5t-89.5 192.5q0 128 114 259l269 312h248zM1425 382q-56 0 -91 -35t-35 -85q0 -46 31 -75t81 -29q56 0 91.5 35.5t35.5 86.5
q0 45 -32 73.5t-81 28.5zM780 1400l-38 -179h-309l-32 -127h52q145 0 219 -81t49 -201q-26 -124 -116.5 -186.5t-227.5 -62.5q-89 0 -162.5 31t-119.5 87l115 129q66 -70 176 -70q120 0 137 86q8 45 -22.5 72t-106.5 27h-202l109 475h479z" />
    <glyph glyph-name="oneeighth" unicode="&#x215b;" horiz-adv-x="1787" 
d="M1461 1400l-1055 -1400h-253l1055 1400h253zM1449 836q121 0 203 -57t82 -151q0 -71 -46 -129.5t-128 -90.5q109 -54 109 -155q0 -113 -97 -190.5t-263 -77.5q-129 0 -213.5 58t-84.5 154q0 73 48.5 131.5t135.5 89.5q-87 50 -87 146q0 114 93.5 193t247.5 79zM1355 340
q-55 0 -92 -29.5t-37 -76.5q0 -37 30.5 -58.5t73.5 -21.5q56 0 93.5 28.5t37.5 76.5q0 38 -30.5 59.5t-75.5 21.5zM1431 667q-53 0 -85.5 -27.5t-32.5 -70.5q0 -35 25.5 -55t67.5 -20q51 0 85 28t34 70q0 34 -27 54.5t-67 20.5zM612 1413l-177 -835h-195l121 570l-191 -59
l42 200z" />
    <glyph glyph-name="threeeighths" unicode="&#x215c;" horiz-adv-x="1953" 
d="M1627 1400l-1055 -1400h-253l1055 1400h253zM1615 836q121 0 203 -57t82 -151q0 -71 -46 -129.5t-128 -90.5q109 -54 109 -155q0 -113 -97 -190.5t-263 -77.5q-129 0 -213.5 58t-84.5 154q0 73 48.5 131.5t135.5 89.5q-87 50 -87 146q0 114 93.5 193t247.5 79zM1521 340
q-55 0 -92 -29.5t-37 -76.5q0 -37 30.5 -58.5t73.5 -21.5q56 0 93.5 28.5t37.5 76.5q0 38 -30.5 59.5t-75.5 21.5zM1597 667q-53 0 -85.5 -27.5t-32.5 -70.5q0 -35 25.5 -55t67.5 -20q51 0 85 28t34 70q0 34 -27 54.5t-67 20.5zM304 1168l-89 138q116 108 293 108
q126 0 202.5 -62.5t76.5 -151.5q0 -69 -44.5 -129t-117.5 -89q48 -24 74 -64.5t26 -89.5q0 -113 -90.5 -189t-245.5 -76q-201 0 -286 120l127 121q56 -68 162 -68q66 0 100 27t34 70q0 37 -33.5 57t-87.5 20h-90l34 166h89q68 0 106.5 27t38.5 68q0 33 -29 52t-77 19
q-91 0 -173 -74z" />
    <glyph glyph-name="fiveeighths" unicode="&#x215d;" horiz-adv-x="1947" 
d="M1622 1400l-1055 -1400h-253l1055 1400h253zM1609 836q121 0 203 -57t82 -151q0 -71 -46 -129.5t-128 -90.5q109 -54 109 -155q0 -113 -97 -190.5t-263 -77.5q-129 0 -213.5 58t-84.5 154q0 73 48.5 131.5t135.5 89.5q-87 50 -87 146q0 114 93.5 193t247.5 79zM1515 340
q-55 0 -92 -29.5t-37 -76.5q0 -37 30.5 -58.5t73.5 -21.5q56 0 93.5 28.5t37.5 76.5q0 38 -30.5 59.5t-75.5 21.5zM1591 667q-53 0 -85.5 -27.5t-32.5 -70.5q0 -35 25.5 -55t67.5 -20q51 0 85 28t34 70q0 34 -27 54.5t-67 20.5zM780 1400l-38 -179h-309l-32 -127h52
q145 0 219 -81t49 -201q-26 -124 -116.5 -186.5t-227.5 -62.5q-89 0 -162.5 31t-119.5 87l115 129q66 -70 176 -70q120 0 137 86q8 45 -22.5 72t-106.5 27h-202l109 475h479z" />
    <glyph glyph-name="seveneighths" unicode="&#x215e;" horiz-adv-x="1840" 
d="M1514 1400l-1055 -1400h-253l1055 1400h253zM1502 836q121 0 203 -57t82 -151q0 -71 -46 -129.5t-128 -90.5q109 -54 109 -155q0 -113 -97 -190.5t-263 -77.5q-129 0 -213.5 58t-84.5 154q0 73 48.5 131.5t135.5 89.5q-87 50 -87 146q0 114 93.5 193t247.5 79zM1408 340
q-55 0 -92 -29.5t-37 -76.5q0 -37 30.5 -58.5t73.5 -21.5q56 0 93.5 28.5t37.5 76.5q0 38 -30.5 59.5t-75.5 21.5zM1484 667q-53 0 -85.5 -27.5t-32.5 -70.5q0 -35 25.5 -55t67.5 -20q51 0 85 28t34 70q0 34 -27 54.5t-67 20.5zM832 1400l-33 -163l-413 -659h-233l410 641
h-366l38 181h597z" />
    <glyph glyph-name="uni215F" unicode="&#x215f;" horiz-adv-x="1039" 
d="M1461 1400l-1055 -1400h-253l1055 1400h253zM612 1413l-177 -835h-195l121 570l-191 -59l42 200z" />
    <glyph glyph-name="uni2189" unicode="&#x2189;" horiz-adv-x="2087" 
d="M1789 1400l-1055 -1400h-253l1055 1400h253zM1546 590l-89 138q116 108 293 108q126 0 202.5 -62.5t76.5 -151.5q0 -69 -44.5 -129t-117.5 -89q48 -24 74 -64.5t26 -89.5q0 -113 -90.5 -189t-245.5 -76q-201 0 -286 120l127 121q56 -68 162 -68q66 0 100 27t34 70
q0 37 -33.5 57t-87.5 20h-90l34 166h89q68 0 106.5 27t38.5 68q0 33 -29 52t-77 19q-91 0 -173 -74zM614 1415q142 0 230.5 -88.5t88.5 -243.5q0 -90 -29 -180.5t-82 -167t-137 -124.5t-184 -48q-142 0 -231 88.5t-89 242.5q0 71 18 144t55 141t87.5 120.5t121.5 84
t151 31.5zM602 1228q-66 0 -116.5 -51.5t-74 -121.5t-23.5 -142q0 -77 33 -120t91 -43q66 0 117 51t74.5 121.5t23.5 142.5q0 77 -33 120t-92 43z" />
    <glyph glyph-name="arrowleft" unicode="&#x2190;" horiz-adv-x="2000" 
d="M1855 548h-971q-165 0 -284 8q106 -86 264 -242l147 -146l-161 -161l-654 655l654 654l161 -161l-147 -145q-147 -147 -264 -243q119 9 284 9h971v-228z" />
    <glyph glyph-name="arrowup" unicode="&#x2191;" horiz-adv-x="2000" 
d="M961 -124v970q0 165 8 284q-77 -95 -242 -264l-146 -147l-161 161l655 654l654 -654l-161 -161l-145 147q-156 158 -242 264q8 -119 8 -284v-970h-228z" />
    <glyph glyph-name="arrowright" unicode="&#x2192;" horiz-adv-x="2000" 
d="M228 776h971q165 0 284 -9q-113 93 -265 243l-146 145l161 161l654 -654l-654 -655l-161 161l146 146q144 144 265 242q-119 -8 -284 -8h-971v228z" />
    <glyph glyph-name="arrowdown" unicode="&#x2193;" horiz-adv-x="2000" 
d="M1131 1534v-970q0 -165 -8 -284q86 106 242 264l145 147l161 -161l-654 -654l-655 654l161 161l146 -147q165 -169 242 -264q-8 119 -8 284v970h228z" />
    <glyph glyph-name="uni2196" unicode="&#x2196;" horiz-adv-x="2000" 
d="M1544 11l-686 687q-138 140 -195 206q13 -133 15 -358l2 -207h-228v926h925v-228l-206 1q-225 2 -358 16q90 -79 206 -195l687 -687z" />
    <glyph glyph-name="uni2197" unicode="&#x2197;" horiz-adv-x="2000" 
d="M376 156l686 686q117 117 207 195q-133 -13 -358 -15l-207 -1v227h926v-925h-228l1 207q0 206 15 358q-78 -90 -194 -206l-687 -687z" />
    <glyph glyph-name="uni2198" unicode="&#x2198;" horiz-adv-x="2000" 
d="M548 1329l686 -687q132 -134 195 -206q-15 151 -15 358l-1 207h227v-926h-925v228l207 -1q225 -2 358 -16q-98 86 -207 195l-686 687z" />
    <glyph glyph-name="uni2199" unicode="&#x2199;" horiz-adv-x="2000" 
d="M1723 1150l-686 -686q-117 -117 -207 -195q152 15 358 15l207 1v-227h-926v925h228l-1 -206q-2 -225 -16 -358q79 90 195 206l687 687z" />
    <glyph glyph-name="partialdiff" unicode="&#x2202;" horiz-adv-x="1172" 
d="M345 1272l141 186q204 -80 347 -217.5t211.5 -302.5t68.5 -349q0 -61 -9 -131q-26 -211 -180.5 -347.5t-368.5 -136.5q-217 0 -357 127t-140 321q0 140 68 259.5t184.5 189t252.5 69.5q164 0 271 -95q-101 261 -489 427zM601 709q-67 0 -121 -25.5t-86.5 -66.5t-49.5 -88
t-17 -94q0 -100 68.5 -164t175.5 -64q58 0 105.5 18t78.5 47t52 65.5t30 72t9 69.5q0 102 -68.5 166t-176.5 64z" />
    <glyph glyph-name="uni2300" unicode="&#x2205;" horiz-adv-x="1339" 
d="M1063 1062l158 -157l-116 -115q79 -123 79 -270q0 -209 -148.5 -357.5t-357.5 -148.5q-145 0 -271 78l-114 -114l-157 157l114 114q-79 123 -79 271q0 137 68 254t184.5 185t254.5 68q146 0 271 -79zM394 520q0 -63 27 -122l377 378q-56 28 -120 28q-118 0 -201 -83.5
t-83 -200.5zM678 237q117 0 200 83t83 200q0 60 -26 118l-375 -375q55 -26 118 -26z" />
    <glyph glyph-name="uni2300" unicode="&#x2300;" horiz-adv-x="1339" 
d="M1063 1062l158 -157l-116 -115q79 -123 79 -270q0 -209 -148.5 -357.5t-357.5 -148.5q-145 0 -271 78l-114 -114l-157 157l114 114q-79 123 -79 271q0 137 68 254t184.5 185t254.5 68q146 0 271 -79zM394 520q0 -63 27 -122l377 378q-56 28 -120 28q-118 0 -201 -83.5
t-83 -200.5zM678 237q117 0 200 83t83 200q0 60 -26 118l-375 -375q55 -26 118 -26z" />
    <glyph glyph-name="Delta" unicode="&#x2206;" horiz-adv-x="1381" 
d="M1055 1400l208 -1182l-46 -218h-1259l46 218l712 1182h339zM979 261l-140 865l-508 -865h648z" />
    <glyph glyph-name="product" unicode="&#x220f;" horiz-adv-x="1814" 
d="M1503 1400v-1665h-279v1404h-598v-1404h-279v1665h1156z" />
    <glyph glyph-name="summation" unicode="&#x2211;" horiz-adv-x="1592" 
d="M1339 1400v-261h-666l443 -482v-162l-450 -499h676v-261h-1075v218l559 618l-556 611v218h1069z" />
    <glyph glyph-name="minus" unicode="&#x2212;" 
d="M1084 644l-47 -223h-921l47 223h921z" />
    <glyph glyph-name="uni2219" unicode="&#x2219;" 
d="M600 849q131 0 224 -92.5t93 -224.5t-93 -224.5t-224 -92.5t-224 92.5t-93 224.5t93 224.5t224 92.5z" />
    <glyph glyph-name="radical" unicode="&#x221a;" horiz-adv-x="1159" 
d="M1336 1440l-553 -1705h-339l-376 1000h301l244 -680l432 1385h291z" />
    <glyph glyph-name="infinity" unicode="&#x221e;" horiz-adv-x="1738" 
d="M58 524q0 125 57 222.5t150 148t204 50.5q48 0 93 -13.5t81.5 -33.5t79.5 -56.5t75 -69t79 -83.5q60 65 99.5 103.5t91.5 78t104.5 57t111.5 17.5q171 0 291.5 -116.5t120.5 -304.5q0 -189 -120.5 -305.5t-291.5 -116.5q-48 0 -93 13.5t-81.5 33.5t-79.5 56.5t-75 69
t-79 83.5q-46 -51 -78.5 -84t-75 -69t-79 -56t-81.5 -33.5t-93 -13.5q-111 0 -204 50.5t-150 148t-57 223.5zM294 524q0 -94 49.5 -146.5t125.5 -52.5q50 0 101 41.5t156 157.5q-109 118 -158 158t-99 40q-76 0 -125.5 -52.5t-49.5 -145.5zM1459 524q0 93 -49.5 145.5
t-125.5 52.5q-49 0 -99 -41t-156 -157q106 -117 156 -158t99 -41q76 0 125.5 52.5t49.5 146.5z" />
    <glyph glyph-name="integral" unicode="&#x222b;" horiz-adv-x="415" 
d="M552 1409l-60 -233q-24 6 -52 6q-114 0 -114 -136v-960q0 -174 -90 -275t-256 -101q-79 0 -140 16l60 233q24 -6 52 -6q114 0 114 136v960q0 174 90 275t257 101q79 0 139 -16z" />
    <glyph glyph-name="congruent" unicode="&#x2245;" 
d="M1052 432l-48 -223h-920l47 223h921zM1142 856l-47 -223h-921l47 223h921zM1104 1320l100 -173q-151 -128 -313 -128q-76 0 -139 22.5t-115.5 44.5t-103.5 22q-47 0 -88.5 -20.5t-95.5 -65.5l-100 173q149 128 313 128q76 0 139 -22.5t115.5 -44.5t103.5 -22
q47 0 88.5 20.5t95.5 65.5z" />
    <glyph glyph-name="approxequal" unicode="&#x2248;" 
d="M1053 889l100 -173q-151 -128 -313 -128q-60 0 -113.5 14t-85.5 30.5t-75 30.5t-84 14q-47 0 -88.5 -20.5t-95.5 -65.5l-100 173q149 128 313 128q60 0 113.5 -14t85.5 -30.5t75 -30.5t84 -14q47 0 88.5 20.5t95.5 65.5zM962 469l100 -173q-151 -128 -313 -128
q-60 0 -113.5 14t-85.5 30.5t-75 30.5t-84 14q-47 0 -88.5 -20.5t-95.5 -65.5l-100 173q149 128 313 128q60 0 113.5 -14t85.5 -30.5t75 -30.5t84 -14q47 0 88.5 20.5t95.5 65.5z" />
    <glyph glyph-name="uni2259" unicode="&#x2259;" 
d="M1049 432l-48 -223h-920l47 223h921zM1139 856l-47 -223h-921l47 223h921zM1066 1019h-246l-87 155l-148 -155h-264l277 315h315z" />
    <glyph glyph-name="notequal" unicode="&#x2260;" 
d="M1049 432l-48 -223h-472l-122 -209h-233l122 209h-215l47 223h298l118 201h-373l47 223h456l122 209h233l-122 -209h232l-47 -223h-315l-118 -201h390z" />
    <glyph glyph-name="lessequal" unicode="&#x2264;" 
d="M1088 899l-584 -195l502 -195l-53 -247l-748 330l51 244l889 331zM127 223h819l-47 -223h-819z" />
    <glyph glyph-name="greaterequal" unicode="&#x2265;" 
d="M1092 836l-52 -244l-889 -330l57 268l584 195l-502 194l53 248zM143 223h819l-48 -223h-818z" />
    <glyph glyph-name="dotmath" unicode="&#x22c5;" 
d="M601 726q77 0 135 -57.5t58 -135.5q0 -79 -58 -137t-135 -58q-78 0 -136.5 58t-58.5 137q0 78 58.5 135.5t136.5 57.5z" />
    <glyph glyph-name="uni2460" unicode="&#x2460;" horiz-adv-x="2050" 
d="M1080 1604q187 0 357 -71.5t293 -192.5t195.5 -288t72.5 -351t-72.5 -351.5t-195.5 -288.5t-293 -193t-357 -72t-357 72t-293 193t-195.5 288.5t-72.5 351.5t72.5 351t195.5 288t293 192.5t357 71.5zM1080 1368q-137 0 -261 -52.5t-214 -142t-143 -213t-53 -259.5
t53 -260t143 -213.5t214 -142.5t261 -53q183 0 337.5 89.5t244.5 243.5t90 336q0 136 -53 259.5t-143 213t-214.5 142t-261.5 52.5zM1219 1147v-863h-206v581l-207 -74v201z" />
    <glyph glyph-name="uni2461" unicode="&#x2461;" horiz-adv-x="2050" 
d="M1080 1604q187 0 357 -71.5t293 -192.5t195.5 -288t72.5 -351t-72.5 -351.5t-195.5 -288.5t-293 -193t-357 -72t-357 72t-293 193t-195.5 288.5t-72.5 351.5t72.5 351t195.5 288t293 192.5t357 71.5zM1080 1368q-137 0 -261 -52.5t-214 -142t-143 -213t-53 -259.5
t53 -260t143 -213.5t214 -142.5t261 -53q183 0 337.5 89.5t244.5 243.5t90 336q0 136 -53 259.5t-143 213t-214.5 142t-261.5 52.5zM879 858l-121 140q126 151 321 151q139 0 222.5 -76t83.5 -201q0 -74 -34 -133.5t-106 -126.5l-149 -137h307v-191h-600v162l303 282
q65 62 65 123q0 45 -32 73t-82 28q-53 0 -93.5 -24.5t-84.5 -69.5z" />
    <glyph glyph-name="uni2462" unicode="&#x2462;" horiz-adv-x="2050" 
d="M1080 1604q187 0 357 -71.5t293 -192.5t195.5 -288t72.5 -351t-72.5 -351.5t-195.5 -288.5t-293 -193t-357 -72t-357 72t-293 193t-195.5 288.5t-72.5 351.5t72.5 351t195.5 288t293 192.5t357 71.5zM1080 1368q-137 0 -261 -52.5t-214 -142t-143 -213t-53 -259.5
t53 -260t143 -213.5t214 -142.5t261 -53q183 0 337.5 89.5t244.5 243.5t90 336q0 136 -53 259.5t-143 213t-214.5 142t-261.5 52.5zM1071 1149q144 0 234 -67.5t90 -178.5q0 -135 -129 -192q70 -27 108.5 -75.5t38.5 -115.5q0 -81 -49 -140t-123.5 -85.5t-164.5 -26.5
q-203 0 -311 125l115 133q75 -77 186 -77q59 0 96.5 22.5t37.5 64.5q0 43 -42.5 66.5t-107.5 23.5h-100v173h101q58 0 95.5 22.5t37.5 63.5q0 40 -33 61t-89 21q-106 0 -178 -80l-116 134q114 128 303 128z" />
    <glyph glyph-name="uni2463" unicode="&#x2463;" horiz-adv-x="2050" 
d="M1080 1604q187 0 357 -71.5t293 -192.5t195.5 -288t72.5 -351t-72.5 -351.5t-195.5 -288.5t-293 -193t-357 -72t-357 72t-293 193t-195.5 288.5t-72.5 351.5t72.5 351t195.5 288t293 192.5t357 71.5zM1080 1368q-137 0 -261 -52.5t-214 -142t-143 -213t-53 -259.5
t53 -260t143 -213.5t214 -142.5t261 -53q183 0 337.5 89.5t244.5 243.5t90 336q0 136 -53 259.5t-143 213t-214.5 142t-261.5 52.5zM1305 840v-227h109v-187h-109v-142h-205v142h-386v143l284 564h226l-266 -520h142v88l70 139h135z" />
    <glyph glyph-name="uni2464" unicode="&#x2464;" horiz-adv-x="2050" 
d="M1080 1604q187 0 357 -71.5t293 -192.5t195.5 -288t72.5 -351t-72.5 -351.5t-195.5 -288.5t-293 -193t-357 -72t-357 72t-293 193t-195.5 288.5t-72.5 351.5t72.5 351t195.5 288t293 192.5t357 71.5zM1080 1368q-137 0 -261 -52.5t-214 -142t-143 -213t-53 -259.5
t53 -260t143 -213.5t214 -142.5t261 -53q183 0 337.5 89.5t244.5 243.5t90 336q0 136 -53 259.5t-143 213t-214.5 142t-261.5 52.5zM1363 1134v-189h-341l-4 -127h82q151 0 233.5 -69t82.5 -184q0 -134 -93.5 -215.5t-239.5 -81.5q-97 0 -179.5 32t-137.5 85l101 152
q35 -32 95 -57t120 -25q58 0 89.5 26t31.5 69q0 92 -154 92h-215l11 492h518z" />
    <glyph glyph-name="uni2465" unicode="&#x2465;" horiz-adv-x="2050" 
d="M1080 1604q187 0 357 -71.5t293 -192.5t195.5 -288t72.5 -351t-72.5 -351.5t-195.5 -288.5t-293 -193t-357 -72t-357 72t-293 193t-195.5 288.5t-72.5 351.5t72.5 351t195.5 288t293 192.5t357 71.5zM1080 1368q-137 0 -261 -52.5t-214 -142t-143 -213t-53 -259.5
t53 -260t143 -213.5t214 -142.5t261 -53q183 0 337.5 89.5t244.5 243.5t90 336q0 136 -53 259.5t-143 213t-214.5 142t-261.5 52.5zM1297 1134l-210 -285h12q142 0 227 -80.5t85 -201.5q0 -129 -97 -214t-242 -85t-242.5 83t-97.5 209q0 114 88 240l229 334h248zM1072 678
q-53 0 -88.5 -32.5t-35.5 -81.5t35 -81t89 -32q53 0 88.5 32t35.5 81t-35.5 81.5t-88.5 32.5z" />
    <glyph glyph-name="uni2466" unicode="&#x2466;" horiz-adv-x="2050" 
d="M1080 1604q187 0 357 -71.5t293 -192.5t195.5 -288t72.5 -351t-72.5 -351.5t-195.5 -288.5t-293 -193t-357 -72t-357 72t-293 193t-195.5 288.5t-72.5 351.5t72.5 351t195.5 288t293 192.5t357 71.5zM1080 1368q-137 0 -261 -52.5t-214 -142t-143 -213t-53 -259.5
t53 -260t143 -213.5t214 -142.5t261 -53q183 0 337.5 89.5t244.5 243.5t90 336q0 136 -53 259.5t-143 213t-214.5 142t-261.5 52.5zM1424 1134v-162l-344 -688h-245l346 659h-392v191h635z" />
    <glyph glyph-name="uni2467" unicode="&#x2467;" horiz-adv-x="2050" 
d="M1080 1604q187 0 357 -71.5t293 -192.5t195.5 -288t72.5 -351t-72.5 -351.5t-195.5 -288.5t-293 -193t-357 -72t-357 72t-293 193t-195.5 288.5t-72.5 351.5t72.5 351t195.5 288t293 192.5t357 71.5zM1080 1368q-137 0 -261 -52.5t-214 -142t-143 -213t-53 -259.5
t53 -260t143 -213.5t214 -142.5t261 -53q183 0 337.5 89.5t244.5 243.5t90 336q0 136 -53 259.5t-143 213t-214.5 142t-261.5 52.5zM1080 1149q140 0 234 -67t94 -179q0 -130 -133 -190q155 -61 155 -198q0 -112 -100.5 -179.5t-249.5 -67.5q-148 0 -248.5 67.5
t-100.5 179.5q0 139 155 198q-133 60 -133 190q0 112 94 179t233 67zM1080 635q-53 0 -88.5 -25.5t-35.5 -70.5q0 -44 35.5 -69t88.5 -25q54 0 90 25t36 69q0 45 -36 70.5t-90 25.5zM1080 971q-47 0 -78 -23t-31 -64t31 -64.5t78 -23.5q48 0 79.5 23.5t31.5 64.5t-31.5 64
t-79.5 23z" />
    <glyph glyph-name="uni2468" unicode="&#x2468;" horiz-adv-x="2050" 
d="M1080 1604q187 0 357 -71.5t293 -192.5t195.5 -288t72.5 -351t-72.5 -351.5t-195.5 -288.5t-293 -193t-357 -72t-357 72t-293 193t-195.5 288.5t-72.5 351.5t72.5 351t195.5 288t293 192.5t357 71.5zM1080 1368q-137 0 -261 -52.5t-214 -142t-143 -213t-53 -259.5
t53 -260t143 -213.5t214 -142.5t261 -53q183 0 337.5 89.5t244.5 243.5t90 336q0 136 -53 259.5t-143 213t-214.5 142t-261.5 52.5zM866 284l208 284h-10q-142 0 -227 81t-85 202q0 129 97 213.5t242 84.5t242.5 -83t97.5 -209q0 -110 -88 -240l-230 -333h-247zM1091 740
q53 0 88.5 32t35.5 81t-35.5 81.5t-88.5 32.5t-88.5 -32.5t-35.5 -81.5t35.5 -81t88.5 -32z" />
    <glyph glyph-name="uni24EA" unicode="&#x24ea;" horiz-adv-x="2050" 
d="M1080 1604q187 0 357 -71.5t293 -192.5t195.5 -288t72.5 -351t-72.5 -351.5t-195.5 -288.5t-293 -193t-357 -72t-357 72t-293 193t-195.5 288.5t-72.5 351.5t72.5 351t195.5 288t293 192.5t357 71.5zM1080 1368q-137 0 -261 -52.5t-214 -142t-143 -213t-53 -259.5
t53 -260t143 -213.5t214 -142.5t261 -53q183 0 337.5 89.5t244.5 243.5t90 336q0 136 -53 259.5t-143 213t-214.5 142t-261.5 52.5zM1080 1149q167 0 277 -119.5t110 -320.5q0 -202 -110 -321.5t-277 -119.5q-166 0 -276 119.5t-110 321.5q0 201 110 320.5t276 119.5z
M1080 952q-76 0 -124 -64t-48 -180q0 -115 48 -179t124 -64t124.5 63.5t48.5 179.5t-48.5 180t-124.5 64z" />
    <glyph glyph-name="uni24FF" unicode="&#x24ff;" horiz-adv-x="2050" 
d="M1079 1149q-166 0 -276.5 -119.5t-110.5 -320.5q0 -202 110.5 -321.5t276.5 -119.5q167 0 277 119.5t110 321.5q0 201 -110 320.5t-277 119.5zM1079 952q76 0 124.5 -64t48.5 -180q0 -115 -48.5 -179t-124.5 -64t-124.5 64t-48.5 179q0 116 48.5 180t124.5 64zM1079 1583
q183 0 349 -70t285.5 -188t190.5 -281.5t71 -342.5t-71 -343t-190.5 -282.5t-285.5 -188.5t-349 -70t-349 70t-286 188.5t-191 282.5t-71 343t71 342.5t191 281.5t286 188t349 70z" />
    <glyph glyph-name="uni2715" unicode="&#x2573;" horiz-adv-x="2172" 
d="M2031 -233l-202 -167l-724 921l-1149 -948l-151 194l1131 933l-735 933l202 167l724 -920l1149 947l151 -194l-1131 -933z" />
    <glyph glyph-name="uni2715" unicode="&#x2715;" horiz-adv-x="2172" 
d="M2031 -233l-202 -167l-724 921l-1149 -948l-151 194l1131 933l-735 933l202 167l724 -920l1149 947l151 -194l-1131 -933z" />
    <glyph glyph-name="uni25AE" unicode="&#x258c;" horiz-adv-x="1800" 
d="M242 1400h700v-1400h-700v1400z" />
    <glyph glyph-name="uni25AE" unicode="&#x25ae;" horiz-adv-x="1800" 
d="M242 1400h700v-1400h-700v1400z" />
    <glyph glyph-name="filledbox" unicode="&#x25a0;" horiz-adv-x="1800" 
d="M242 1400h1400v-1400h-1400v1400z" />
    <glyph glyph-name="uni25A1" unicode="&#x25a1;" horiz-adv-x="1800" 
d="M242 1400h1400v-1400h-1400v1400zM480 1162v-924h925v924h-925z" />
    <glyph glyph-name="triagup" unicode="&#x25b2;" horiz-adv-x="1800" 
d="M880 1420l820 -1420h-1640z" />
    <glyph glyph-name="uni25B3" unicode="&#x25b3;" horiz-adv-x="1800" 
d="M880 1420l820 -1420h-1640zM880 945l-408 -707h817z" />
    <glyph glyph-name="uni25B4" unicode="&#x25b4;" 
d="M591 1046l444 -767h-889z" />
    <glyph glyph-name="uni25B8" unicode="&#x25b8;" 
d="M1084 662l-769 -446v891z" />
    <glyph glyph-name="triagdn" unicode="&#x25bc;" horiz-adv-x="1800" 
d="M1013 -20l-820 1420h1640z" />
    <glyph glyph-name="uni25BD" unicode="&#x25bd;" horiz-adv-x="1800" 
d="M1013 -20l-820 1420h1640zM1013 455l408 707h-817z" />
    <glyph glyph-name="uni25BE" unicode="&#x25be;" 
d="M684 278l-444 767h889z" />
    <glyph glyph-name="uni25C2" unicode="&#x25c2;" horiz-adv-x="1199" 
d="M191 662l768 445v-891z" />
    <glyph glyph-name="uni25C6" unicode="&#x25c6;" horiz-adv-x="1800" 
d="M954 1438l738 -738l-738 -738l-738 738z" />
    <glyph glyph-name="uni25C7" unicode="&#x25c7;" horiz-adv-x="1800" 
d="M954 1438l738 -738l-738 -738l-738 738zM954 1102l-402 -402l402 -402l402 402z" />
    <glyph glyph-name="lozenge" unicode="&#x25ca;" horiz-adv-x="1530" 
d="M1500 700l-558 -700h-263l-557 700l558 700h263zM1171 699l-364 451l-354 -448l364 -453z" />
    <glyph glyph-name="circle" unicode="&#x25cb;" horiz-adv-x="1800" 
d="M954 -39q-151 0 -287.5 58.5t-235.5 157.5t-157.5 236t-58.5 287t58.5 287t157.5 236t235.5 157.5t287.5 58.5q150 0 287 -58.5t236 -157.5t157.5 -236t58.5 -287t-58.5 -287t-157.5 -236t-236 -157.5t-287 -58.5zM954 199q136 0 251.5 67t182.5 182.5t67 251.5
t-67 251.5t-182.5 182.5t-251.5 67q-137 0 -252.5 -67t-182.5 -182.5t-67 -251.5t67 -251.5t182.5 -182.5t252.5 -67z" />
    <glyph glyph-name="uni25CF" unicode="&#x25cf;" horiz-adv-x="1800" 
d="M954 -39q-151 0 -287.5 58.5t-235.5 157.5t-157.5 236t-58.5 287t58.5 287t157.5 236t235.5 157.5t287.5 58.5q150 0 287 -58.5t236 -157.5t157.5 -236t58.5 -287t-58.5 -287t-157.5 -236t-236 -157.5t-287 -58.5z" />
    <glyph glyph-name="uni25D0" unicode="&#x25d0;" horiz-adv-x="1800" 
d="M954 -39q-151 0 -287.5 58.5t-235.5 157.5t-157.5 236t-58.5 287t58.5 287t157.5 236t235.5 157.5t287.5 58.5q150 0 287 -58.5t236 -157.5t157.5 -236t58.5 -287t-58.5 -287t-157.5 -236t-236 -157.5t-287 -58.5zM954 1201v-1002q136 0 251.5 67t182.5 182.5t67 251.5
t-67 251.5t-182.5 182.5t-251.5 67z" />
    <glyph glyph-name="uni25D6" unicode="&#x25d6;" horiz-adv-x="1800" 
d="M954 1439v-1478q-151 0 -287.5 58.5t-235.5 157.5t-157.5 236t-58.5 287t58.5 287t157.5 236t235.5 157.5t287.5 58.5z" />
    <glyph glyph-name="uni25E7" unicode="&#x25e7;" horiz-adv-x="1800" 
d="M242 1400h1400v-1400h-1400v1400zM942 1162v-924h463v924h-463z" />
    <glyph glyph-name="uni2610" unicode="&#x2610;" horiz-adv-x="2200" 
d="M293 1547h1694v-1694h-1694v1694zM487 1352v-1304h1305v1304h-1305z" />
    <glyph glyph-name="uni2611" unicode="&#x2611;" horiz-adv-x="2200" 
d="M293 1547h1694v-1694h-1694v1694zM487 1352v-1304h1305v1304h-1305zM1529 1191l153 -109l-653 -909l-416 469l137 126l261 -297z" />
    <glyph glyph-name="uni2612" unicode="&#x2612;" horiz-adv-x="2200" 
d="M1987 1547v-1694h-1694v1694h1694zM1792 1352h-1305v-1304h1305v1304zM666 360l340 340l-340 340l134 134l340 -341l340 341l133 -134l-341 -340l341 -340l-133 -134l-340 341l-340 -341z" />
    <glyph glyph-name="heart" unicode="&#x2665;" horiz-adv-x="1800" 
d="M1306 1255q137 0 227.5 -93t90.5 -232q0 -99 -50.5 -209.5t-139 -217t-199 -206t-241.5 -191.5q-131 92 -241.5 191.5t-199 206t-139 217t-50.5 209.5q0 139 90.5 232t227.5 93q124 0 218 -73.5t94 -172.5q0 99 94 172.5t218 73.5z" />
    <glyph glyph-name="uni2713" unicode="&#x2713;" horiz-adv-x="2200" 
d="M1656 1322l183 -136l-818 -1104l-477 520l168 154l290 -316z" />
    <glyph glyph-name="uni2717" unicode="&#x2717;" horiz-adv-x="2200" 
d="M1301 700l419 -419l-161 -161l-419 419l-419 -419l-161 161l419 419l-419 419l161 161l419 -419l419 419l161 -161z" />
    <glyph glyph-name="uni2776" unicode="&#x2776;" horiz-adv-x="2050" 
d="M1217 1147l-412 -155v-201l207 74v-581h205v863zM1079 1583q183 0 349 -70t285.5 -188t190.5 -281.5t71 -342.5t-71 -343t-190.5 -282.5t-285.5 -188.5t-349 -70t-349 70t-286 188.5t-191 282.5t-71 343t71 342.5t191 281.5t286 188t349 70z" />
    <glyph glyph-name="uni2777" unicode="&#x2777;" horiz-adv-x="2050" 
d="M757 998l121 -140q44 45 84.5 69.5t93.5 24.5q49 0 81.5 -28t32.5 -73q0 -63 -65 -123l-304 -282v-162h601v191h-308l150 137q71 65 105 125.5t34 134.5q0 125 -83 201t-222 76q-197 0 -321 -151zM1079 1583q183 0 349 -70t285.5 -188t190.5 -281.5t71 -342.5t-71 -343
t-190.5 -282.5t-285.5 -188.5t-349 -70t-349 70t-286 188.5t-191 282.5t-71 343t71 342.5t191 281.5t286 188t349 70z" />
    <glyph glyph-name="uni2778" unicode="&#x2778;" horiz-adv-x="2050" 
d="M1079 1583q183 0 349 -70t285.5 -188t190.5 -281.5t71 -342.5t-71 -343t-190.5 -282.5t-285.5 -188.5t-349 -70t-349 70t-286 188.5t-191 282.5t-71 343t71 342.5t191 281.5t286 188t349 70zM1070 1149q-189 0 -303 -128l116 -134q72 80 178 80q55 0 88 -21.5t33 -60.5
q0 -41 -37 -63.5t-95 -22.5h-101v-173h99q66 0 108.5 -23.5t42.5 -66.5q0 -42 -38 -64.5t-97 -22.5q-109 0 -186 77l-115 -133q109 -125 312 -125q90 0 164.5 26.5t123.5 85.5t49 140q0 67 -38.5 116t-108.5 76q129 57 129 191q0 111 -90 178.5t-234 67.5z" />
    <glyph glyph-name="uni2779" unicode="&#x2779;" horiz-adv-x="2050" 
d="M1079 1583q183 0 349 -70t285.5 -188t190.5 -281.5t71 -342.5t-71 -343t-190.5 -282.5t-285.5 -188.5t-349 -70t-349 70t-286 188.5t-191 282.5t-71 343t71 342.5t191 281.5t286 188t349 70zM1304 840h-135l-71 -139v-88h-142l266 520h-225l-285 -564v-143h386v-142h206
v142h108v187h-108v227z" />
    <glyph glyph-name="uni277A" unicode="&#x277a;" horiz-adv-x="2050" 
d="M1362 1134h-518l-12 -492h216q154 0 154 -92q0 -43 -31.5 -69t-90.5 -26t-119 25t-95 57l-101 -152q55 -53 137 -85t179 -32q146 0 240 81.5t94 215.5q0 115 -83 184t-233 69h-82l3 127h342v189zM1079 1583q183 0 349 -70t285.5 -188t190.5 -281.5t71 -342.5t-71 -343
t-190.5 -282.5t-285.5 -188.5t-349 -70t-349 70t-286 188.5t-191 282.5t-71 343t71 342.5t191 281.5t286 188t349 70z" />
    <glyph glyph-name="uni277B" unicode="&#x277b;" horiz-adv-x="2050" 
d="M1079 1583q183 0 349 -70t285.5 -188t190.5 -281.5t71 -342.5t-71 -343t-190.5 -282.5t-285.5 -188.5t-349 -70t-349 70t-286 188.5t-191 282.5t-71 343t71 342.5t191 281.5t286 188t349 70zM1295 1134h-247l-230 -334q-87 -127 -87 -240q0 -126 97 -209t242 -83
t242.5 85t97.5 214q0 121 -85 201.5t-227 80.5h-12zM1070 678q53 0 89 -32.5t36 -81.5t-36 -81t-89 -32t-88 32t-35 81t35 81.5t88 32.5z" />
    <glyph glyph-name="uni277C" unicode="&#x277c;" horiz-adv-x="2050" 
d="M1423 1134h-635v-191h391l-345 -659h245l344 688v162zM1079 1583q183 0 349 -70t285.5 -188t190.5 -281.5t71 -342.5t-71 -343t-190.5 -282.5t-285.5 -188.5t-349 -70t-349 70t-286 188.5t-191 282.5t-71 343t71 342.5t191 281.5t286 188t349 70z" />
    <glyph glyph-name="uni277D" unicode="&#x277d;" horiz-adv-x="2050" 
d="M1079 1583q183 0 349 -70t285.5 -188t190.5 -281.5t71 -342.5t-71 -343t-190.5 -282.5t-285.5 -188.5t-349 -70t-349 70t-286 188.5t-191 282.5t-71 343t71 342.5t191 281.5t286 188t349 70zM1079 1149q-139 0 -233.5 -67t-94.5 -179q0 -129 133 -191q-154 -59 -154 -197
q0 -112 100.5 -179.5t248.5 -67.5q149 0 249.5 67.5t100.5 179.5q0 137 -155 198q133 60 133 190q0 112 -94 179t-234 67zM1079 635q54 0 90 -25.5t36 -70.5q0 -44 -36 -69t-90 -25q-53 0 -89 25.5t-36 68.5q0 45 36 70.5t89 25.5zM1079 971q48 0 79 -23t31 -64t-31 -64.5
t-79 -23.5q-47 0 -78 23.5t-31 64.5t31 64t78 23z" />
    <glyph glyph-name="uni277E" unicode="&#x277e;" horiz-adv-x="2050" 
d="M1079 1583q183 0 349 -70t285.5 -188t190.5 -281.5t71 -342.5t-71 -343t-190.5 -282.5t-285.5 -188.5t-349 -70t-349 70t-286 188.5t-191 282.5t-71 343t71 342.5t191 281.5t286 188t349 70zM865 284h247l230 333q87 128 87 240q0 126 -97 209t-242 83q-146 0 -243 -84.5
t-97 -213.5q0 -121 85 -202t227 -81h11zM1090 740q-53 0 -89 32t-36 81t36 81.5t89 32.5t88 -32.5t35 -81.5t-35 -81t-88 -32z" />
    <glyph glyph-name="uni278A" unicode="&#x278a;" horiz-adv-x="2050" 
d="M1217 1147l-412 -155v-201l207 74v-581h205v863zM1079 1583q183 0 349 -70t285.5 -188t190.5 -281.5t71 -342.5t-71 -343t-190.5 -282.5t-285.5 -188.5t-349 -70t-349 70t-286 188.5t-191 282.5t-71 343t71 342.5t191 281.5t286 188t349 70z" />
    <glyph glyph-name="uni278B" unicode="&#x278b;" horiz-adv-x="2050" 
d="M757 998l121 -140q44 45 84.5 69.5t93.5 24.5q49 0 81.5 -28t32.5 -73q0 -63 -65 -123l-304 -282v-162h601v191h-308l150 137q71 65 105 125.5t34 134.5q0 125 -83 201t-222 76q-197 0 -321 -151zM1079 1583q183 0 349 -70t285.5 -188t190.5 -281.5t71 -342.5t-71 -343
t-190.5 -282.5t-285.5 -188.5t-349 -70t-349 70t-286 188.5t-191 282.5t-71 343t71 342.5t191 281.5t286 188t349 70z" />
    <glyph glyph-name="uni278C" unicode="&#x278c;" horiz-adv-x="2050" 
d="M1079 1583q183 0 349 -70t285.5 -188t190.5 -281.5t71 -342.5t-71 -343t-190.5 -282.5t-285.5 -188.5t-349 -70t-349 70t-286 188.5t-191 282.5t-71 343t71 342.5t191 281.5t286 188t349 70zM1070 1149q-189 0 -303 -128l116 -134q72 80 178 80q55 0 88 -21.5t33 -60.5
q0 -41 -37 -63.5t-95 -22.5h-101v-173h99q66 0 108.5 -23.5t42.5 -66.5q0 -42 -38 -64.5t-97 -22.5q-109 0 -186 77l-115 -133q109 -125 312 -125q90 0 164.5 26.5t123.5 85.5t49 140q0 67 -38.5 116t-108.5 76q129 57 129 191q0 111 -90 178.5t-234 67.5z" />
    <glyph glyph-name="uni278D" unicode="&#x278d;" horiz-adv-x="2050" 
d="M1079 1583q183 0 349 -70t285.5 -188t190.5 -281.5t71 -342.5t-71 -343t-190.5 -282.5t-285.5 -188.5t-349 -70t-349 70t-286 188.5t-191 282.5t-71 343t71 342.5t191 281.5t286 188t349 70zM1304 840h-135l-71 -139v-88h-142l266 520h-225l-285 -564v-143h386v-142h206
v142h108v187h-108v227z" />
    <glyph glyph-name="uni278E" unicode="&#x278e;" horiz-adv-x="2050" 
d="M1362 1134h-518l-12 -492h216q154 0 154 -92q0 -43 -31.5 -69t-90.5 -26t-119 25t-95 57l-101 -152q55 -53 137 -85t179 -32q146 0 240 81.5t94 215.5q0 115 -83 184t-233 69h-82l3 127h342v189zM1079 1583q183 0 349 -70t285.5 -188t190.5 -281.5t71 -342.5t-71 -343
t-190.5 -282.5t-285.5 -188.5t-349 -70t-349 70t-286 188.5t-191 282.5t-71 343t71 342.5t191 281.5t286 188t349 70z" />
    <glyph glyph-name="uni278F" unicode="&#x278f;" horiz-adv-x="2050" 
d="M1079 1583q183 0 349 -70t285.5 -188t190.5 -281.5t71 -342.5t-71 -343t-190.5 -282.5t-285.5 -188.5t-349 -70t-349 70t-286 188.5t-191 282.5t-71 343t71 342.5t191 281.5t286 188t349 70zM1295 1134h-247l-230 -334q-87 -127 -87 -240q0 -126 97 -209t242 -83
t242.5 85t97.5 214q0 121 -85 201.5t-227 80.5h-12zM1070 678q53 0 89 -32.5t36 -81.5t-36 -81t-89 -32t-88 32t-35 81t35 81.5t88 32.5z" />
    <glyph glyph-name="uni2790" unicode="&#x2790;" horiz-adv-x="2050" 
d="M1423 1134h-635v-191h391l-345 -659h245l344 688v162zM1079 1583q183 0 349 -70t285.5 -188t190.5 -281.5t71 -342.5t-71 -343t-190.5 -282.5t-285.5 -188.5t-349 -70t-349 70t-286 188.5t-191 282.5t-71 343t71 342.5t191 281.5t286 188t349 70z" />
    <glyph glyph-name="uni2791" unicode="&#x2791;" horiz-adv-x="2050" 
d="M1079 1583q183 0 349 -70t285.5 -188t190.5 -281.5t71 -342.5t-71 -343t-190.5 -282.5t-285.5 -188.5t-349 -70t-349 70t-286 188.5t-191 282.5t-71 343t71 342.5t191 281.5t286 188t349 70zM1079 1149q-139 0 -233.5 -67t-94.5 -179q0 -129 133 -191q-154 -59 -154 -197
q0 -112 100.5 -179.5t248.5 -67.5q149 0 249.5 67.5t100.5 179.5q0 137 -155 198q133 60 133 190q0 112 -94 179t-234 67zM1079 635q54 0 90 -25.5t36 -70.5q0 -44 -36 -69t-90 -25q-53 0 -89 25.5t-36 68.5q0 45 36 70.5t89 25.5zM1079 971q48 0 79 -23t31 -64t-31 -64.5
t-79 -23.5q-47 0 -78 23.5t-31 64.5t31 64t78 23z" />
    <glyph glyph-name="uni2792" unicode="&#x2792;" horiz-adv-x="2050" 
d="M1079 1583q183 0 349 -70t285.5 -188t190.5 -281.5t71 -342.5t-71 -343t-190.5 -282.5t-285.5 -188.5t-349 -70t-349 70t-286 188.5t-191 282.5t-71 343t71 342.5t191 281.5t286 188t349 70zM865 284h247l230 333q87 128 87 240q0 126 -97 209t-242 83q-146 0 -243 -84.5
t-97 -213.5q0 -121 85 -202t227 -81h11zM1090 740q-53 0 -89 32t-36 81t36 81.5t89 32.5t88 -32.5t35 -81.5t-35 -81t-88 -32z" />
    <glyph glyph-name="uni2B51" unicode="&#x2b51;" horiz-adv-x="1800" 
d="M1147 902h606l-490 -356l188 -579l-491 358l-490 -358l187 579l-492 356h608l187 579z" />
    <glyph glyph-name="uni2B52" unicode="&#x2b52;" horiz-adv-x="1800" 
d="M1147 902h606l-490 -356l188 -579l-491 358l-490 -358l187 579l-492 356h608l187 579zM1046 763l-86 265l-85 -265h-281l226 -164l-86 -267l226 165l226 -165l-86 267l226 164h-280z" />
    <glyph glyph-name="uni2E17" unicode="&#x2e17;" horiz-adv-x="829" 
d="M790 957l-48 -226l-597 -215l48 226zM711 585l-48 -226l-598 -215l49 226z" />
    <glyph glyph-name="uni2E38" unicode="&#x2e38;" horiz-adv-x="788" 
d="M495 1440h203l-89 -422h216l-42 -199h-216l-46 -217h-204l46 217h-216l43 199h216z" />
    <glyph glyph-name="uniEA00" unicode="&#xea00;" horiz-adv-x="1800" 
d="M1147 902h606l-490 -356l188 -579l-491 358l-490 -358l187 579l-492 356h608l187 579zM1046 763l-86 265v-531l226 -165l-86 267l226 164h-280z" />
    <glyph glyph-name="uniEA01" unicode="&#xea01;" horiz-adv-x="1800" 
d="M960 325l-490 -358l187 579l-492 356h608l187 579v-1156z" />
    <glyph glyph-name="uniFB00" unicode="&#xfb00;" horiz-adv-x="1616" 
d="M867 969l-49 -232h-284l-157 -737h-262l157 737h-179l49 232h179l31 144q76 352 387 352q171 0 279 -91l-132 -195q-69 44 -137 44q-112 0 -142 -147l-23 -107h283zM1665 969l-49 -232h-284l-157 -737h-262l157 737h-179l49 232h179l31 144q76 352 387 352q171 0 279 -91
l-132 -195q-69 44 -137 44q-112 0 -142 -147l-23 -107h283z" />
    <glyph glyph-name="fi" unicode="&#xfb01;" horiz-adv-x="1339" 
d="M997 1390l-116 -208q-67 41 -132 41q-112 0 -142 -147l-23 -107h283l-49 -232h-284l-157 -737h-262l157 737h-179l49 232h179l31 144q76 352 387 352q155 0 258 -75zM1313 969l-206 -969h-263l206 969h263zM1248 1454q70 0 118.5 -48.5t48.5 -119.5q0 -70 -48 -118
t-119 -48q-70 0 -118 48t-48 118q0 71 48 119.5t118 48.5z" />
    <glyph glyph-name="fl" unicode="&#xfb02;" horiz-adv-x="1339" 
d="M997 1390l-116 -208q-67 41 -132 41q-112 0 -142 -147l-23 -107h283l-49 -232h-284l-157 -737h-262l157 737h-179l49 232h179l31 144q76 352 387 352q155 0 258 -75zM1413 1440l-306 -1440h-263l306 1440h263z" />
    <glyph glyph-name="uniFB03" unicode="&#xfb03;" horiz-adv-x="2137" 
d="M867 969l-49 -232h-284l-157 -737h-262l157 737h-179l49 232h179l31 144q76 352 387 352q171 0 279 -91l-132 -195q-69 44 -137 44q-112 0 -142 -147l-23 -107h283zM1795 1390l-116 -208q-67 41 -132 41q-112 0 -142 -147l-23 -107h283l-49 -232h-284l-157 -737h-262
l157 737h-179l49 232h179l31 144q76 352 387 352q155 0 258 -75zM2111 969l-206 -969h-263l206 969h263zM2046 1454q70 0 118.5 -48.5t48.5 -119.5q0 -70 -48 -118t-119 -48q-70 0 -118 48t-48 118q0 71 48 119.5t118 48.5z" />
    <glyph glyph-name="uniFB04" unicode="&#xfb04;" horiz-adv-x="2137" 
d="M867 969l-49 -232h-284l-157 -737h-262l157 737h-179l49 232h179l31 144q76 352 387 352q171 0 279 -91l-132 -195q-69 44 -137 44q-112 0 -142 -147l-23 -107h283zM1795 1390l-116 -208q-67 41 -132 41q-112 0 -142 -147l-23 -107h283l-49 -232h-284l-157 -737h-262
l157 737h-179l49 232h179l31 144q76 352 387 352q155 0 258 -75zM2211 1440l-306 -1440h-263l306 1440h263z" />
    <glyph glyph-name="uniFB05" unicode="&#xfb05;" horiz-adv-x="1439" 
d="M1441 969l-50 -232h-339l-74 -351q-18 -85 12.5 -126.5t97.5 -41.5q78 0 169 55l92 -206q-143 -92 -310 -92q-197 0 -281 109.5t-43 299.5l75 353h-165l50 232h167l13 61q7 34 7 66q0 67 -38.5 99t-105.5 32q-176 0 -222 -220l-214 -1007h-262l221 1039q24 115 73 199
t115.5 132.5t143 71.5t164.5 23q173 0 279 -91.5t106 -256.5q0 -54 -14 -122l-6 -26h339z" />
    <glyph glyph-name="uniFB06" unicode="&#xfb06;" horiz-adv-x="1883" 
d="M962 887l-119 -195q-64 39 -151.5 62t-152.5 23q-146 0 -155 -79q-2 -20 3.5 -34.5t15 -24t30 -17t37.5 -11.5t50 -10l65 -12q161 -29 231 -106.5t56 -193.5q-17 -147 -133 -230.5t-311 -83.5q-119 0 -239.5 34.5t-202.5 96.5l125 191q153 -105 321 -105q166 0 175 90
q4 36 -27.5 57.5t-106.5 34.5l-67 11q-162 26 -233.5 105.5t-56.5 200.5q18 147 129.5 225t293.5 78q238 0 423 -107zM1886 969l-50 -232h-339l-75 -351q-18 -85 12.5 -126.5t97.5 -41.5q78 0 169 55l92 -206q-143 -92 -309 -92q-198 0 -282 109.5t-44 299.5l75 353h-181
l50 232h181l62 288h263l-62 -288h340z" />
    <glyph glyph-name="uniFEFF" unicode="&#xfeff;" horiz-adv-x="0" 
 />
    <glyph glyph-name="uni030C.alt001" horiz-adv-x="1" 
d="M-502 1012h-206l91 428h273z" />
    <glyph glyph-name="uni0328.alt001" horiz-adv-x="1" 
d="M-420 -184l108 -159q-91 -76 -214 -76q-116 0 -186 52.5t-70 141.5q0 93 77.5 164t233.5 136l69 -75q-151 -80 -151 -166q0 -23 15 -35.5t42 -12.5q37 0 76 30z" />
    <glyph glyph-name="uni0328.alt002" horiz-adv-x="1" 
d="M-425 92l63 -75q-208 -75 -208 -172q0 -26 20.5 -41.5t56.5 -15.5q54 0 111 38l109 -158q-115 -86 -258 -86q-130 0 -209.5 58t-79.5 151q0 103 91 175.5t304 125.5z" />
    <glyph glyph-name="uni0328.alt003" horiz-adv-x="1" 
d="M-418 -177l109 -153q-101 -89 -231 -89q-108 0 -176.5 50t-68.5 136q0 100 89 173.5t274 142.5l62 -80q-191 -85 -191 -170q0 -21 14.5 -33t38.5 -12q35 0 80 35z" />
    <glyph glyph-name="uni0328.alt004" horiz-adv-x="1" 
d="M-388 -175l117 -154q-107 -90 -249 -90q-135 0 -219 63t-84 162q0 45 17 83t57 75t114.5 69t180.5 57l83 -71q-124 -42 -166 -83t-42 -84q0 -30 22 -47.5t61 -17.5q53 0 108 38z" />
    <glyph glyph-name="j.latn_NLD" horiz-adv-x="528" 
d="M502 969l-230 -1082q-33 -153 -124.5 -230.5t-222.5 -77.5q-100 0 -176 38l81 219q32 -14 69 -14q42 0 75 28t45 85l219 1034h264zM474 1107h-255l232 316h319z" />
    <glyph glyph-name="zero.numr" horiz-adv-x="891" 
d="M614 1415q142 0 230.5 -88.5t88.5 -243.5q0 -90 -29 -180.5t-82 -167t-137 -124.5t-184 -48q-142 0 -231 88.5t-89 242.5q0 71 18 144t55 141t87.5 120.5t121.5 84t151 31.5zM602 1228q-66 0 -116.5 -51.5t-74 -121.5t-23.5 -142q0 -77 33 -120t91 -43q66 0 117 51
t74.5 121.5t23.5 142.5q0 77 -33 120t-92 43z" />
    <glyph glyph-name="one.numr" horiz-adv-x="530" 
d="M612 1413l-177 -835h-195l121 570l-191 -59l42 200z" />
    <glyph glyph-name="two.numr" horiz-adv-x="727" 
d="M330 1152l-108 131q119 131 292 131q133 0 204 -71t71 -170q0 -81 -41 -145t-148 -151l-148 -119h282l-38 -180h-566l33 156l315 256q61 49 85 84t24 70q0 36 -28 60t-75 24q-46 0 -79 -18.5t-75 -57.5z" />
    <glyph glyph-name="three.numr" horiz-adv-x="719" 
d="M304 1168l-89 138q116 108 293 108q126 0 202.5 -62.5t76.5 -151.5q0 -69 -44.5 -129t-117.5 -89q48 -24 74 -64.5t26 -89.5q0 -113 -90.5 -189t-245.5 -76q-201 0 -286 120l127 121q56 -68 162 -68q66 0 100 27t34 70q0 37 -33.5 57t-87.5 20h-90l34 166h89
q68 0 106.5 27t38.5 68q0 33 -29 52t-77 19q-91 0 -173 -74z" />
    <glyph glyph-name="four.numr" horiz-adv-x="718" 
d="M719 1113l-46 -215h104l-38 -181h-105l-29 -139h-195l29 139h-357l33 155l355 527h222l-337 -501h123l19 91l83 124h139z" />
    <glyph glyph-name="five.numr" horiz-adv-x="716" 
d="M780 1400l-38 -179h-309l-32 -127h52q145 0 219 -81t49 -201q-26 -124 -116.5 -186.5t-227.5 -62.5q-89 0 -162.5 31t-119.5 87l115 129q66 -70 176 -70q120 0 137 86q8 45 -22.5 72t-106.5 27h-202l109 475h479z" />
    <glyph glyph-name="six.numr" horiz-adv-x="747" 
d="M759 1400l-248 -277q119 -6 193.5 -73t74.5 -178q0 -129 -96 -219t-244 -90q-132 0 -221.5 73.5t-89.5 192.5q0 128 114 259l269 312h248zM460 960q-56 0 -91 -35t-35 -85q0 -46 31 -75t81 -29q56 0 91.5 35.5t35.5 86.5q0 45 -32 73.5t-81 28.5z" />
    <glyph glyph-name="seven.numr" horiz-adv-x="682" 
d="M832 1400l-33 -163l-413 -659h-233l410 641h-366l38 181h597z" />
    <glyph glyph-name="eight.numr" horiz-adv-x="782" 
d="M569 1414q121 0 203 -57t82 -151q0 -71 -46 -129.5t-128 -90.5q109 -54 109 -155q0 -113 -97 -190.5t-263 -77.5q-129 0 -213.5 58t-84.5 154q0 73 48.5 131.5t135.5 89.5q-87 50 -87 146q0 114 93.5 193t247.5 79zM475 918q-55 0 -92 -29.5t-37 -76.5q0 -37 30.5 -58.5
t73.5 -21.5q56 0 93.5 28.5t37.5 76.5q0 38 -30.5 59.5t-75.5 21.5zM551 1245q-53 0 -85.5 -27.5t-32.5 -70.5q0 -35 25.5 -55t67.5 -20q51 0 85 28t34 70q0 34 -27 54.5t-67 20.5z" />
    <glyph glyph-name="nine.numr" horiz-adv-x="747" 
d="M202 578l247 276q-119 7 -193 73.5t-74 178.5q0 128 96 218t244 90q132 0 221.5 -73t89.5 -192q0 -128 -114 -259l-269 -312h-248zM502 1018q56 0 91 35t35 85q0 45 -31.5 74t-81.5 29q-56 0 -91.5 -35t-35.5 -87q0 -45 32 -73t82 -28z" />
    <glyph glyph-name="zero.dnom" horiz-adv-x="891" 
d="M488 837q142 0 230.5 -88.5t88.5 -243.5q0 -90 -29 -180.5t-82 -167t-137 -124.5t-184 -48q-142 0 -231 88.5t-89 242.5q0 71 18 144t55 141t87.5 120.5t121.5 84t151 31.5zM476 650q-66 0 -116.5 -51.5t-74 -121.5t-23.5 -142q0 -77 33 -120t91 -43q66 0 117 51
t74.5 121.5t23.5 142.5q0 77 -33 120t-92 43z" />
    <glyph glyph-name="one.dnom" horiz-adv-x="533" 
d="M487 835l-177 -835h-195l121 570l-191 -59l42 200z" />
    <glyph glyph-name="two.dnom" horiz-adv-x="728" 
d="M206 574l-108 131q119 131 292 131q133 0 204 -71t71 -170q0 -81 -41 -145t-148 -151l-148 -119h282l-38 -180h-566l33 156l315 256q61 49 85 84t24 70q0 36 -28 60t-75 24q-46 0 -79 -18.5t-75 -57.5z" />
    <glyph glyph-name="three.dnom" horiz-adv-x="720" 
d="M180 590l-89 138q116 108 293 108q126 0 202.5 -62.5t76.5 -151.5q0 -69 -44.5 -129t-117.5 -89q48 -24 74 -64.5t26 -89.5q0 -113 -90.5 -189t-245.5 -76q-201 0 -286 120l127 121q56 -68 162 -68q66 0 100 27t34 70q0 37 -33.5 57t-87.5 20h-90l34 166h89
q68 0 106.5 27t38.5 68q0 33 -29 52t-77 19q-91 0 -173 -74z" />
    <glyph glyph-name="four.dnom" horiz-adv-x="718" 
d="M595 535l-46 -215h104l-38 -181h-105l-29 -139h-195l29 139h-357l33 155l355 527h222l-337 -501h123l19 91l83 124h139z" />
    <glyph glyph-name="five.dnom" horiz-adv-x="717" 
d="M655 822l-38 -179h-309l-32 -127h52q145 0 219 -81t49 -201q-26 -124 -116.5 -186.5t-227.5 -62.5q-89 0 -162.5 31t-119.5 87l115 129q66 -70 176 -70q120 0 137 86q8 45 -22.5 72t-106.5 27h-202l109 475h479z" />
    <glyph glyph-name="six.dnom" horiz-adv-x="747" 
d="M635 822l-248 -277q119 -6 193.5 -73t74.5 -178q0 -129 -96 -219t-244 -90q-132 0 -221.5 73.5t-89.5 192.5q0 128 114 259l269 312h248zM336 382q-56 0 -91 -35t-35 -85q0 -46 31 -75t81 -29q56 0 91.5 35.5t35.5 86.5q0 45 -32 73.5t-81 28.5z" />
    <glyph glyph-name="seven.dnom" horiz-adv-x="683" 
d="M708 822l-33 -163l-413 -659h-233l410 641h-366l38 181h597z" />
    <glyph glyph-name="eight.dnom" horiz-adv-x="782" 
d="M444 836q121 0 203 -57t82 -151q0 -71 -46 -129.5t-128 -90.5q109 -54 109 -155q0 -113 -97 -190.5t-263 -77.5q-129 0 -213.5 58t-84.5 154q0 73 48.5 131.5t135.5 89.5q-87 50 -87 146q0 114 93.5 193t247.5 79zM350 340q-55 0 -92 -29.5t-37 -76.5q0 -37 30.5 -58.5
t73.5 -21.5q56 0 93.5 28.5t37.5 76.5q0 38 -30.5 59.5t-75.5 21.5zM426 667q-53 0 -85.5 -27.5t-32.5 -70.5q0 -35 25.5 -55t67.5 -20q51 0 85 28t34 70q0 34 -27 54.5t-67 20.5z" />
    <glyph glyph-name="nine.dnom" horiz-adv-x="747" 
d="M81 0l247 276q-119 7 -193 73.5t-74 178.5q0 128 96 218t244 90q132 0 221.5 -73t89.5 -192q0 -128 -114 -259l-269 -312h-248zM381 440q56 0 91 35t35 85q0 45 -31.5 74t-81.5 29q-56 0 -91.5 -35t-35.5 -87q0 -45 32 -73t82 -28z" />
    <glyph glyph-name="space.frac" horiz-adv-x="99" 
 />
    <glyph glyph-name="b.ordn" horiz-adv-x="870" 
d="M525 560q-135 0 -204 83l-14 -65h-193l217 1023h193l-77 -361q68 48 164 48q128 0 214 -92t86 -227q0 -73 -26.5 -145t-74.5 -131t-122.5 -96t-162.5 -37zM559 1105q-73 0 -125 -50.5t-61 -128.5q-10 -83 33 -134t115 -51q80 0 134 60.5t54 146.5q0 72 -42.5 114.5
t-107.5 42.5z" />
    <glyph glyph-name="c.ordn" horiz-adv-x="778" 
d="M841 1119l-165 -90q-51 77 -142 77q-80 0 -133.5 -59.5t-53.5 -143.5q0 -71 42 -116t105 -45q84 0 144 67l131 -118q-110 -129 -283 -129q-150 0 -244 92.5t-94 234.5q0 165 112 281t284 116q210 0 297 -167z" />
    <glyph glyph-name="d.ordn" horiz-adv-x="869" 
d="M530 1287q136 0 204 -82l85 396h193l-217 -1023h-188l10 48q-76 -66 -181 -66q-125 0 -208 92t-83 227q0 72 26.5 144t74 131t122 96t162.5 37zM497 741q73 0 125 50.5t61 128.5q10 83 -33 134t-115 51q-80 0 -134 -60.5t-54 -146.5q0 -72 42.5 -114.5t107.5 -42.5z" />
    <glyph glyph-name="e.ordn" horiz-adv-x="785" 
d="M650 784l103 -124q-107 -100 -284 -100q-153 0 -240 84t-87 218q0 69 23 140.5t68.5 136.5t125 106.5t180.5 41.5q131 0 213.5 -77.5t82.5 -204.5q0 -82 -28 -145h-474q4 -65 43.5 -100t107.5 -35q96 0 166 59zM528 1121q-121 0 -171 -127h292v7q0 58 -32.5 89t-88.5 31z
" />
    <glyph glyph-name="h.ordn" horiz-adv-x="818" 
d="M622 1287q108 0 171.5 -64.5t63.5 -168.5q0 -38 -9 -77l-87 -399h-193l83 388q5 25 5 42q0 45 -25 71t-78 26q-62 0 -106.5 -38t-61.5 -120l-77 -369h-194l218 1023h192l-82 -382q72 68 180 68z" />
    <glyph glyph-name="l.ordn" horiz-adv-x="382" 
d="M525 1601l-217 -1023h-194l217 1023h194z" />
    <glyph glyph-name="m.ordn" horiz-adv-x="1274" 
d="M1072 1287q111 0 176 -64.5t65 -169.5q0 -37 -9 -76l-86 -399h-194l83 388q5 25 5 42q0 45 -25 71t-78 26q-132 0 -167 -157l-81 -370h-193l83 388q13 60 -9.5 99.5t-88.5 39.5q-62 0 -106.5 -38t-61.5 -120l-77 -369h-194l147 690h186l-14 -57q75 76 189 76
q145 0 206 -112q89 112 244 112z" />
    <glyph glyph-name="r.ordn" horiz-adv-x="609" 
d="M447 1268l-14 -61q72 80 185 80q54 0 105 -20l-60 -187q-42 21 -101 21q-63 0 -112 -40t-65 -116l-77 -367h-194l147 690h186z" />
    <glyph glyph-name="s.ordn" horiz-adv-x="691" 
d="M775 1210l-85 -144q-47 29 -109.5 44.5t-107.5 15.5q-99 0 -105 -52q-2 -17 3 -27.5t20.5 -18t29 -10.5t43.5 -9l46 -9q223 -42 202 -214q-12 -106 -95 -165.5t-223 -59.5q-86 0 -172.5 24.5t-143.5 67.5l90 143q109 -75 230 -75q111 0 117 59q3 25 -19.5 40t-74.5 23
l-47 7q-115 19 -165 76t-40 144q13 105 93 161t211 56q166 0 302 -77z" />
    <glyph glyph-name="t.ordn" horiz-adv-x="693" 
d="M758 1268l-37 -171h-238l-52 -241q-12 -58 9 -86.5t68 -28.5q57 0 126 43l59 -157q-103 -67 -224 -67q-142 0 -202 79t-31 215l53 243h-131l37 171h131l45 205h193l-44 -205h238z" />
    <glyph glyph-name="u.ordn" horiz-adv-x="802" 
d="M895 1278l-85 -404q-34 -160 -132 -232.5t-236 -72.5q-128 0 -207 66t-79 187q0 35 10 85l78 371h194l-82 -387q-5 -20 -5 -44q0 -48 29 -72t79 -24q62 0 105 39.5t59 117.5l79 370h193z" />
    <glyph glyph-name="egrave.ordn" horiz-adv-x="785" 
d="M650 784l103 -124q-107 -100 -284 -100q-153 0 -240 84t-87 218q0 69 23 140.5t68.5 136.5t125 106.5t180.5 41.5q131 0 213.5 -77.5t82.5 -204.5q0 -82 -28 -145h-474q4 -65 43.5 -100t107.5 -35q96 0 166 59zM506 1365l-191 227h230l144 -227h-183zM528 1121
q-121 0 -171 -127h292v7q0 58 -32.5 89t-88.5 31z" />
    <glyph glyph-name="zero.osf" horiz-adv-x="1335" 
d="M710 1095q234 0 388.5 -140t154.5 -371q0 -124 -44.5 -235.5t-123 -194.5t-193 -132t-247.5 -49q-233 0 -387.5 140t-154.5 371q0 124 44.5 235.5t123 194.5t192.5 132t247 49zM697 849q-146 0 -237.5 -101t-91.5 -246q0 -130 82 -206.5t209 -76.5q146 0 237 100.5
t91 246.5q0 130 -81.5 206.5t-208.5 76.5z" />
    <glyph glyph-name="one.osf" horiz-adv-x="751" 
d="M740 1098l-234 -1098h-264l161 757l-312 -81l55 267z" />
    <glyph glyph-name="two.osf" horiz-adv-x="1108" 
d="M292 706l-149 180q201 209 468 209q188 0 305.5 -97.5t117.5 -247.5q0 -139 -78.5 -237t-281.5 -203l-128 -66h449l-53 -244h-909l43 198l443 257q137 79 187 134t50 127q0 60 -51 97t-129 37q-82 0 -146 -36t-138 -108z" />
    <glyph glyph-name="three.osf" horiz-adv-x="1098" 
d="M272 708l-141 186q181 201 470 201q200 0 319 -99t119 -252q0 -123 -74 -224t-203 -154q81 -38 125 -106t44 -158q0 -196 -149.5 -326.5t-390.5 -130.5q-155 0 -274 52t-184 145l178 164q48 -59 123 -90.5t163 -31.5q124 0 193.5 61.5t69.5 157.5q0 76 -60 115t-162 39
h-152l52 238h141q124 0 203 61t79 148q0 68 -54.5 108t-142.5 40q-160 0 -292 -144z" />
    <glyph glyph-name="four.osf" horiz-adv-x="1120" 
d="M885 564l-68 -316h217l-53 -248h-217l-71 -332h-264l71 332h-568l47 219l556 849h282l-522 -820h258l68 316h264z" />
    <glyph glyph-name="five.osf" horiz-adv-x="1099" 
d="M1039 1068l-52 -247h-535l-66 -285h112q121 0 213.5 -38.5t145.5 -104t72 -150.5t1 -180q-41 -211 -187.5 -316t-356.5 -105q-147 0 -265.5 54.5t-196.5 159.5l175 168q110 -134 299 -134q111 0 178.5 52.5t81.5 138.5q7 44 -1 80.5t-33 67t-76.5 48t-125.5 17.5h-332
l179 774h770z" />
    <glyph glyph-name="six.osf" horiz-adv-x="1158" 
d="M1033 1400l-414 -483h11q127 0 231.5 -52.5t166.5 -151.5t62 -225q0 -139 -69 -256t-195 -187t-282 -70q-136 0 -248 53.5t-179 155t-67 232.5q0 201 181 421l466 563h336zM583 682q-112 0 -183 -73t-71 -178q0 -95 63.5 -154.5t164.5 -59.5q111 0 183 73t72 180
q0 96 -65.5 154t-163.5 58z" />
    <glyph glyph-name="seven.osf" horiz-adv-x="1069" 
d="M1137 1068l-44 -221l-715 -1179h-314l710 1152h-650l53 248h960z" />
    <glyph glyph-name="eight.osf" horiz-adv-x="1201" 
d="M759 1425q121 0 224 -42.5t167.5 -125.5t64.5 -191q0 -121 -76.5 -219.5t-212.5 -151.5q179 -93 179 -264q0 -126 -68.5 -229t-201 -165t-306.5 -62q-131 0 -239.5 43t-173.5 125t-65 188q0 129 79.5 231t225.5 153q-145 86 -145 246q0 92 37.5 176t106 148t173.5 102
t231 38zM605 596q-114 0 -187.5 -62t-73.5 -156q0 -74 60.5 -118t149.5 -44q117 0 191.5 60.5t74.5 155.5q0 76 -61.5 120t-153.5 44zM739 1181q-111 0 -177.5 -59.5t-66.5 -150.5q0 -71 52 -112t136 -41q108 0 176.5 59t68.5 148q0 72 -55.5 114t-133.5 42z" />
    <glyph glyph-name="nine.osf" horiz-adv-x="1158" 
d="M147 -331l414 484h-12q-127 0 -231.5 52.5t-166.5 151t-62 224.5q0 104 41 198t112 163.5t173.5 110.5t219.5 41q136 0 248 -53.5t179 -155t67 -232.5q0 -200 -181 -420l-465 -564h-336zM596 387q112 0 183 73t71 179q0 94 -63 154t-165 60q-110 0 -182.5 -73.5
t-72.5 -180.5q0 -96 65.5 -154t163.5 -58z" />
    <glyph glyph-name="zero.tf" 
d="M742 1425q213 0 340.5 -131.5t127.5 -376.5q0 -143 -28 -280t-84 -256.5t-133.5 -210t-185 -143t-230.5 -52.5q-212 0 -339.5 131.5t-127.5 375.5q0 143 28 280t84 257t133.5 210.5t184.5 143t230 52.5zM731 1166q-84 0 -156 -59t-118 -154t-71.5 -210.5t-25.5 -231.5
q0 -138 53.5 -207.5t148.5 -69.5q84 0 155 59t117 154t71.5 210.5t25.5 231.5q0 138 -52.5 207.5t-147.5 69.5z" />
    <glyph glyph-name="one.tf" 
d="M136 256h315l170 802l-361 -109l58 274l650 199l-248 -1166h334l-54 -256h-918z" />
    <glyph glyph-name="two.tf" 
d="M391 1017l-154 183q78 96 195.5 160.5t265.5 64.5q109 0 196 -33.5t139.5 -89.5t80 -125t27.5 -146q0 -133 -68.5 -242.5t-229.5 -248.5l-331 -287h513l-55 -253h-912l47 214l559 484q110 95 153 162.5t43 138.5q0 70 -51 119t-143 49q-146 0 -275 -150z" />
    <glyph glyph-name="three.tf" 
d="M383 1036l-142 189q183 200 476 200q203 0 324.5 -99.5t121.5 -252.5q0 -123 -75 -224t-204 -154q82 -39 127 -107t45 -157q0 -195 -151.5 -325.5t-395.5 -130.5q-161 0 -281 51.5t-186 144.5l181 172q48 -59 125 -90.5t166 -31.5q126 0 196.5 60t70.5 154
q0 74 -61.5 112.5t-165.5 38.5h-154l51 240h144q126 0 206 60t80 146q0 67 -55.5 107t-145.5 40q-164 0 -297 -143z" />
    <glyph glyph-name="four.tf" 
d="M1027 881l-79 -373h195l-54 -252h-195l-54 -256h-270l54 256h-607l46 216l639 927h312l-615 -891h279l80 373h269z" />
    <glyph glyph-name="five.tf" 
d="M1169 1400l-53 -251h-540l-66 -280h112q122 0 216 -38.5t147.5 -104t73 -151t1.5 -180.5q-42 -211 -189.5 -315.5t-359.5 -104.5q-149 0 -269 54.5t-198 158.5l177 170q112 -133 302 -133q111 0 179 52t82 137q16 92 -39.5 151.5t-198.5 59.5h-335l179 775h779z" />
    <glyph glyph-name="six.tf" 
d="M1061 1400l-418 -483h11q197 0 331.5 -119t134.5 -310q0 -104 -41.5 -198t-113 -163.5t-175 -110.5t-221.5 -41q-211 0 -356 123t-145 320q0 201 183 421l468 561h342zM607 680q-113 0 -184 -72t-71 -176q0 -94 63.5 -153t166.5 -59q111 0 183 72t72 178
q0 95 -65.5 152.5t-164.5 57.5z" />
    <glyph glyph-name="seven.tf" 
d="M1264 1400l-44 -224l-719 -1176h-322l715 1148h-653l53 252h970z" />
    <glyph glyph-name="eight.tf" 
d="M753 1425q124 0 229.5 -42.5t171 -127t65.5 -193.5q0 -120 -76.5 -217.5t-214.5 -149.5q85 -44 133 -111.5t48 -153.5q0 -94 -41 -177t-115 -144.5t-184.5 -97.5t-243.5 -36q-134 0 -244.5 43t-177 125.5t-66.5 188.5q0 129 80.5 230.5t228.5 152.5q-148 86 -148 247
q0 92 38 175.5t107.5 147.5t175.5 102t234 38zM601 596q-119 0 -194.5 -62t-75.5 -155q0 -74 63 -118.5t155 -44.5q121 0 198 60t77 155q0 77 -64 121t-159 44zM734 1181q-115 0 -183.5 -59t-68.5 -150q0 -72 53.5 -113t142.5 -41q112 0 183 59t71 148q0 72 -57.5 114
t-140.5 42z" />
    <glyph glyph-name="nine.tf" 
d="M231 0l417 483h-10q-198 0 -332 119t-134 310q0 104 41 198t112.5 163.5t175 110.5t221.5 41q212 0 356.5 -123t144.5 -320q0 -202 -182 -421l-468 -561h-342zM685 720q112 0 183.5 72t71.5 176q0 94 -64 153t-167 59q-110 0 -182 -72t-72 -178q0 -95 65.5 -152.5
t164.5 -57.5z" />
    <glyph glyph-name="uni2007.tf" 
 />
    <glyph glyph-name="zero.tosf" 
d="M647 1094q218 0 360.5 -139.5t142.5 -366.5q0 -167 -70.5 -306.5t-202 -223.5t-297.5 -84q-217 0 -359.5 139.5t-142.5 366.5q0 166 70.5 306t201.5 224t297 84zM635 855q-130 0 -211 -103.5t-81 -253.5q0 -131 70 -207.5t180 -76.5q130 0 211 103t81 254
q0 131 -70 207.5t-180 76.5z" />
    <glyph glyph-name="one.tosf" 
d="M151 248h310l109 511l-346 -86l56 268l626 157l-181 -850l324 1l-53 -249h-898z" />
    <glyph glyph-name="two.tosf" 
d="M339 706l-149 180q201 209 468 209q188 0 305.5 -97.5t117.5 -247.5q0 -139 -78.5 -237t-281.5 -203l-128 -66h449l-53 -244h-909l43 198l443 257q137 79 187 134t50 127q0 60 -51 97t-129 37q-82 0 -146 -36t-138 -108z" />
    <glyph glyph-name="three.tosf" 
d="M321 708l-141 186q181 201 470 201q200 0 319 -99t119 -252q0 -123 -74 -224t-203 -154q81 -38 125 -106t44 -158q0 -196 -149.5 -326.5t-390.5 -130.5q-155 0 -274 52t-184 145l178 164q48 -59 123 -90.5t163 -31.5q124 0 193.5 61.5t69.5 157.5q0 76 -60 115t-162 39
h-152l52 238h141q124 0 203 61t79 148q0 68 -54.5 108t-142.5 40q-160 0 -292 -144z" />
    <glyph glyph-name="four.tosf" 
d="M943 564l-68 -316h217l-53 -248h-217l-71 -332h-264l71 332h-568l47 219l556 849h282l-522 -820h258l68 316h264z" />
    <glyph glyph-name="five.tosf" 
d="M1098 1068l-52 -247h-535l-66 -285h112q121 0 213.5 -38.5t145.5 -104t72 -150.5t1 -180q-41 -211 -187.5 -316t-356.5 -105q-147 0 -265.5 54.5t-196.5 159.5l175 168q110 -134 299 -134q111 0 178.5 52.5t81.5 138.5q7 44 -1 80.5t-33 67t-76.5 48t-125.5 17.5h-332
l179 774h770z" />
    <glyph glyph-name="six.tosf" 
d="M1065 1400l-414 -483h11q127 0 231.5 -52.5t166.5 -151.5t62 -225q0 -139 -69 -256t-195 -187t-282 -70q-136 0 -248 53.5t-179 155t-67 232.5q0 201 181 421l466 563h336zM615 682q-112 0 -183 -73t-71 -178q0 -95 63.5 -154.5t164.5 -59.5q111 0 183 73t72 180
q0 96 -65.5 154t-163.5 58z" />
    <glyph glyph-name="seven.tosf" 
d="M1205 1068l-44 -221l-715 -1179h-314l710 1152h-650l53 248h960z" />
    <glyph glyph-name="eight.tosf" 
d="M756 1425q121 0 224 -42.5t167.5 -125.5t64.5 -191q0 -121 -76.5 -219.5t-212.5 -151.5q179 -93 179 -264q0 -126 -68.5 -229t-201 -165t-306.5 -62q-131 0 -239.5 43t-173.5 125t-65 188q0 129 79.5 231t225.5 153q-145 86 -145 246q0 92 37.5 176t106 148t173.5 102
t231 38zM602 596q-114 0 -187.5 -62t-73.5 -156q0 -74 60.5 -118t149.5 -44q117 0 191.5 60.5t74.5 155.5q0 76 -61.5 120t-153.5 44zM736 1181q-111 0 -177.5 -59.5t-66.5 -150.5q0 -71 52 -112t136 -41q108 0 176.5 59t68.5 148q0 72 -55.5 114t-133.5 42z" />
    <glyph glyph-name="nine.tosf" 
d="M157 -331l414 484h-12q-127 0 -231.5 52.5t-166.5 151t-62 224.5q0 104 41 198t112 163.5t173.5 110.5t219.5 41q136 0 248 -53.5t179 -155t67 -232.5q0 -200 -181 -420l-465 -564h-336zM606 387q112 0 183 73t71 179q0 94 -63 154t-165 60q-110 0 -182.5 -73.5
t-72.5 -180.5q0 -96 65.5 -154t163.5 -58z" />
    <glyph glyph-name="uni2007.tosf" 
 />
    <glyph glyph-name="exclam.sc" horiz-adv-x="538" 
d="M523 1071l-169 -665h-209l96 665h282zM206 308q67 0 116.5 -49.5t49.5 -116.5t-49.5 -117t-116.5 -50t-117 50t-50 117t50 116.5t117 49.5z" />
    <glyph glyph-name="numbersign.sc" horiz-adv-x="1130" 
d="M229 837h150l80 234h217l-80 -234h163l80 234h217l-80 -234h147l-66 -198h-149l-68 -201h148l-65 -200h-151l-81 -238h-216l81 238h-164l-81 -238h-216l81 238h-147l65 200h150l68 201h-149zM528 639l-68 -201h164l68 201h-164z" />
    <glyph glyph-name="dollar.sc" 
d="M1093 937l-119 -185q-82 54 -197 79l-44 -205q133 -31 207 -97t74 -169q0 -148 -112.5 -240.5t-298.5 -103.5l-30 -141h-194l32 153q-201 34 -318 128l131 184q97 -75 232 -101l44 203q-130 27 -202.5 96t-72.5 176q0 145 107 240.5t299 101.5l29 135h194l-32 -148
q152 -28 271 -106zM761 328q0 27 -18.5 45t-56.5 31l-37 -171q112 22 112 95zM477 745q0 -52 71 -78l36 171q-54 -10 -80.5 -35t-26.5 -58z" />
    <glyph glyph-name="percent.sc" horiz-adv-x="1642" 
d="M452 1093q126 0 208.5 -76.5t82.5 -195.5q0 -130 -93 -223t-230 -93q-127 0 -209.5 76.5t-82.5 195.5q0 130 93.5 223t230.5 93zM444 916q-53 0 -88.5 -37t-35.5 -89q0 -47 30.5 -77t77.5 -30q53 0 88.5 37t35.5 89q0 46 -30.5 76.5t-77.5 30.5zM1407 1071l-907 -1071
h-243l906 1071h244zM1245 567q127 0 209 -76.5t82 -195.5q0 -130 -93 -222.5t-231 -92.5q-127 0 -209 76.5t-82 195.5q0 130 93.5 222.5t230.5 92.5zM1236 390q-53 0 -88 -36.5t-35 -88.5q0 -47 30 -77.5t77 -30.5q53 0 88.5 37t35.5 89q0 47 -30.5 77t-77.5 30z" />
    <glyph glyph-name="ampersand.sc" horiz-adv-x="1168" 
d="M926 599l147 -131l-227 -229l201 -239h-285l-77 91q-145 -110 -328 -110q-148 0 -239 70.5t-91 196.5q0 113 69 191.5t187 140.5q-81 117 -81 218q0 127 89 209.5t249 82.5q144 0 235 -72.5t91 -189.5q0 -52 -20.5 -97t-60 -82t-81 -65t-98.5 -58l113 -135zM397 181
q85 0 163 59l-155 185q-135 -73 -135 -150q0 -44 35 -69t92 -25zM429 793q0 -39 57 -116q75 36 113.5 68.5t38.5 71.5q0 35 -27.5 55t-76.5 20q-52 0 -78.5 -27.5t-26.5 -71.5z" />
    <glyph glyph-name="parenleft.sc" horiz-adv-x="654" 
d="M647 1215l54 -209q-116 -42 -201 -132t-126.5 -202t-41.5 -234q0 -120 42.5 -209t135.5 -165l-98 -202q-160 89 -245 237t-85 343q0 124 39 245.5t109.5 225.5t178.5 184t238 118z" />
    <glyph glyph-name="parenright.sc" horiz-adv-x="654" 
d="M30 -139l-54 209q116 42 201 132t126.5 202t41.5 234q0 120 -42.5 209t-135.5 165l98 202q160 -89 245 -237t85 -343q0 -124 -39 -245.5t-109.5 -225.5t-178.5 -184t-238 -118z" />
    <glyph glyph-name="asterisk.sc" horiz-adv-x="785" 
d="M228 978l163 -81l31 174h186l-47 -192l189 45l22 -181l-190 -32l79 -145l-168 -92l-70 153l-130 -135l-128 124l136 125l-164 67z" />
    <glyph glyph-name="slash.sc" horiz-adv-x="837" 
d="M907 1071l-673 -1071h-283l674 1071h282z" />
    <glyph glyph-name="zero.sc" horiz-adv-x="1148" 
d="M659 1090q190 0 306 -116.5t116 -317.5q0 -93 -23.5 -188t-72 -182.5t-115 -156t-160 -109t-199.5 -40.5q-189 0 -305.5 116.5t-116.5 317.5q0 93 23.5 188t72 182.5t115 155.5t160 109t199.5 41zM645 854q-69 0 -127 -39.5t-93.5 -102t-55 -134.5t-19.5 -142
q0 -103 46 -161t128 -58q69 0 127 39.5t94 101.5t55.5 134t19.5 142q0 104 -46.5 162t-128.5 58z" />
    <glyph glyph-name="one.sc" horiz-adv-x="690" 
d="M136 919l543 168l-231 -1087h-246l160 749l-279 -86z" />
    <glyph glyph-name="two.sc" horiz-adv-x="935" 
d="M284 747l-135 172q154 170 381 170q170 0 267 -92.5t97 -227.5q0 -102 -55.5 -186.5t-173.5 -175.5l-230 -178h383l-47 -229h-745l42 197l424 339q81 65 113.5 112t32.5 93q0 49 -38 81t-104 32q-108 0 -212 -107z" />
    <glyph glyph-name="three.sc" horiz-adv-x="929" 
d="M260 771l-118 175q148 143 385 143q166 0 267 -80.5t101 -197.5q0 -91 -58.5 -168.5t-156.5 -115.5q65 -30 99.5 -83t34.5 -119q0 -147 -119.5 -246t-321.5 -99q-131 0 -228 41t-151 116l154 154q80 -92 227 -92q91 0 139.5 36.5t48.5 95.5q0 49 -46.5 76.5t-121.5 27.5
h-121l44 209h119q91 0 145.5 37.5t54.5 92.5q0 44 -40 69.5t-106 25.5q-125 0 -231 -98z" />
    <glyph glyph-name="four.sc" horiz-adv-x="930" 
d="M799 694l-60 -282h139l-47 -229h-140l-39 -183h-246l39 183h-473l41 196l477 691h280l-458 -658h181l24 111l35 171h247z" />
    <glyph glyph-name="five.sc" horiz-adv-x="927" 
d="M887 1071l-47 -227h-416l-44 -174h78q191 0 288 -104.5t65 -260.5q-33 -161 -152.5 -243t-297.5 -82q-118 0 -215 40.5t-159 114.5l148 162q91 -92 237 -92q82 0 130 31.5t57 85.5q11 60 -30 97.5t-145 37.5h-270l143 614h630z" />
    <glyph glyph-name="six.sc" horiz-adv-x="961" 
d="M846 1071l-324 -362q157 -7 256.5 -95t99.5 -233q0 -167 -125 -283.5t-317 -116.5q-172 0 -290.5 95.5t-118.5 249.5q0 164 148 334l358 411h313zM460 501q-76 0 -124.5 -46.5t-48.5 -114.5q0 -62 43.5 -101t113.5 -39q76 0 125 47.5t49 116.5q0 60 -44.5 98.5
t-113.5 38.5z" />
    <glyph glyph-name="seven.sc" horiz-adv-x="886" 
d="M956 1071l-41 -206l-551 -865h-292l547 842h-498l47 229h788z" />
    <glyph glyph-name="eight.sc" horiz-adv-x="1010" 
d="M598 1089q102 0 187 -32.5t136.5 -96.5t51.5 -147q0 -92 -58 -166.5t-163 -115.5q67 -33 105.5 -84.5t38.5 -117.5q0 -148 -127.5 -248.5t-344.5 -100.5q-170 0 -283 76t-113 201q0 98 63.5 175t179.5 116q-117 67 -117 190q0 147 121.5 249t322.5 102zM482 445
q-79 0 -131 -39.5t-52 -102.5q0 -50 43 -79t106 -29q80 0 133 38.5t53 101.5q0 51 -44 80.5t-108 29.5zM581 873q-74 0 -121.5 -37t-47.5 -96q0 -48 36.5 -75t97.5 -27q73 0 122.5 37.5t49.5 94.5q0 48 -39 75.5t-98 27.5z" />
    <glyph glyph-name="nine.sc" horiz-adv-x="961" 
d="M137 0l323 360q-157 8 -256 96t-99 234q0 166 125 282.5t317 116.5q172 0 290.5 -95.5t118.5 -249.5q0 -163 -148 -333l-358 -411h-313zM523 569q76 0 124 46.5t48 114.5q0 62 -43.5 101t-112.5 39q-76 0 -125 -47t-49 -116q0 -61 45 -99.5t113 -38.5z" />
    <glyph glyph-name="question.sc" horiz-adv-x="725" 
d="M358 394h-222l55 263h82q209 0 209 106q0 45 -56.5 70t-149.5 26q-52 0 -85 -3l14 233q40 4 99 4q200 0 321 -81t121 -222q0 -133 -93.5 -218.5t-273.5 -104.5zM211 308q67 0 116 -49.5t49 -116.5t-49 -117t-116 -50t-117 50t-50 117t50 116.5t117 49.5z" />
    <glyph glyph-name="at.sc" horiz-adv-x="1470" 
d="M952 151l97 -144q-138 -103 -362 -103q-254 0 -419.5 156.5t-165.5 410.5q0 143 51 270.5t142.5 223t227 151.5t295.5 56q162 0 294.5 -65.5t210.5 -188.5t78 -280q0 -80 -21 -154t-61 -134.5t-105.5 -97t-147.5 -36.5q-68 0 -119 28t-78 76q-69 -83 -179 -83
q-111 0 -182 74.5t-71 195.5q0 134 83 233.5t206 99.5q113 0 167 -83l14 67h182l-63 -290q-9 -47 -9 -69q0 -81 66 -81q31 0 55 24t38.5 61.5t21.5 79.5t7 83q0 168 -111 266t-289 98q-151 0 -266.5 -71t-175.5 -188t-60 -259q0 -187 112 -292.5t289 -105.5q145 0 248 71z
M752 661q-52 0 -87.5 -41t-35.5 -97q0 -51 30.5 -80.5t75.5 -29.5q53 0 88.5 41t35.5 97q0 49 -30 79.5t-77 30.5z" />
    <glyph glyph-name="bracketleft.sc" horiz-adv-x="628" 
d="M490 112l-44 -212h-434l270 1272h435l-43 -213h-196l-180 -847h192z" />
    <glyph glyph-name="backslash.sc" horiz-adv-x="1292" 
d="M852 0l-673 1071h282l674 -1071h-283z" />
    <glyph glyph-name="bracketright.sc" horiz-adv-x="628" 
d="M160 960l44 212h434l-270 -1272h-435l43 213h196l180 847h-192z" />
    <glyph glyph-name="a.sc" horiz-adv-x="1182" 
d="M866 1071l195 -1071h-259l-36 225h-442l-130 -225h-278l645 1071h305zM671 823l-217 -375h277z" />
    <glyph glyph-name="b.sc" horiz-adv-x="1118" 
d="M261 1071h444q172 0 270 -78t98 -202q0 -82 -50 -151.5t-147 -103.5q68 -27 105 -91.5t24 -141.5q-26 -149 -142.5 -226t-341.5 -77h-488zM593 435h-210l-48 -225h210q182 0 202 108q12 59 -29 88t-125 29zM660 859h-187l-47 -218h190q196 0 196 126q0 46 -40.5 69
t-111.5 23z" />
    <glyph glyph-name="c.sc" horiz-adv-x="1165" 
d="M876 349l187 -155q-172 -213 -442 -213q-236 0 -384 140.5t-148 364.5q0 128 45.5 240.5t125 192t192 125.5t241.5 46q45 0 87 -5t98 -21.5t103.5 -44t96 -77.5t82.5 -116l-221 -129q-82 149 -258 149q-137 0 -232 -97t-95 -245q0 -128 79.5 -203.5t194.5 -75.5
q147 0 248 124z" />
    <glyph glyph-name="d.sc" horiz-adv-x="1225" 
d="M261 1071h401q228 0 365 -128.5t137 -319.5q0 -132 -44.5 -245t-127 -197.5t-210 -132.5t-284.5 -48h-465zM634 836h-165l-127 -601h185q171 0 270 98t99 257q0 111 -65.5 178.5t-196.5 67.5z" />
    <glyph glyph-name="e.sc" horiz-adv-x="1070" 
d="M971 650l-47 -222h-541l-44 -205h572l-46 -223h-832l228 1071h823l-46 -223h-566l-42 -198h541z" />
    <glyph glyph-name="f.sc" horiz-adv-x="1035" 
d="M961 639l-47 -228h-535l-87 -411h-259l228 1071h815l-47 -229h-559l-43 -203h534z" />
    <glyph glyph-name="g.sc" horiz-adv-x="1254" 
d="M1097 917l-196 -162q-81 96 -226 96q-137 0 -230 -100t-93 -254q0 -132 78 -208.5t206 -76.5q220 0 277 194h-270l42 196h499q3 -47 -3 -101q-30 -247 -185 -384t-372 -137q-234 0 -384.5 140t-150.5 364q0 130 46.5 243t127 192.5t192.5 125t240 45.5q268 0 402 -173z
" />
    <glyph glyph-name="h.sc" horiz-adv-x="1251" 
d="M520 1071l-88 -413h461l88 413h258l-227 -1071h-259l90 423h-461l-90 -423h-258l227 1071h259z" />
    <glyph glyph-name="i.sc" horiz-adv-x="531" 
d="M519 1071l-227 -1071h-259l228 1071h258z" />
    <glyph glyph-name="j.sc" horiz-adv-x="879" 
d="M874 1071l-146 -685q-45 -214 -157.5 -310t-285.5 -96q-105 0 -191 36.5t-139 102.5l144 186q68 -81 181 -81q79 0 128 48.5t72 159.5l136 639h258z" />
    <glyph glyph-name="k.sc" horiz-adv-x="1147" 
d="M519 1071l-89 -417h84l395 417h326l-545 -544l353 -527h-290l-275 425h-96l-90 -425h-259l228 1071h258z" />
    <glyph glyph-name="l.sc" horiz-adv-x="968" 
d="M519 1071l-177 -836h545l-49 -235h-805l228 1071h258z" />
    <glyph glyph-name="m.sc" horiz-adv-x="1505" 
d="M1494 1071l-228 -1071h-251l160 748l-369 -647h-258l-103 652l-160 -753h-251l227 1071h353l110 -701l398 701h372z" />
    <glyph glyph-name="n.sc" horiz-adv-x="1283" 
d="M1271 1071l-227 -1071h-241l-367 679l-144 -679h-259l228 1071h241l366 -681l144 681h259z" />
    <glyph glyph-name="o.sc" horiz-adv-x="1292" 
d="M692 1090q233 0 383 -139.5t150 -366.5q0 -164 -76 -301.5t-215.5 -220t-312.5 -82.5q-233 0 -383 139.5t-150 366.5q0 164 76 301.5t215 220t313 82.5zM678 846q-141 0 -233 -100t-92 -244q0 -127 78.5 -202.5t203.5 -75.5q141 0 233 100t92 244q0 127 -78.5 202.5
t-203.5 75.5z" />
    <glyph glyph-name="p.sc" horiz-adv-x="1066" 
d="M678 1071q175 0 275 -89.5t100 -224.5q0 -179 -124 -286.5t-342 -107.5h-218l-77 -363h-259l228 1071h417zM647 840h-177l-53 -251h182q91 0 142 38t51 104q0 50 -38 79.5t-107 29.5z" />
    <glyph glyph-name="q.sc" horiz-adv-x="1308" 
d="M692 1090q233 0 383 -139.5t150 -366.5q0 -195 -108 -350l152 -234h-289l-42 65q-142 -85 -317 -85q-233 0 -383 139.5t-150 366.5q0 164 76 301.5t215 220t313 82.5zM678 846q-141 0 -233 -100t-92 -244q0 -127 78.5 -202.5t203.5 -75.5q81 0 150 36l-161 251l268 -1
l46 -70q22 63 22 128q0 127 -78.5 202.5t-203.5 75.5z" />
    <glyph glyph-name="r.sc" horiz-adv-x="1116" 
d="M261 1071h433q178 0 278.5 -86.5t100.5 -220.5q0 -62 -20.5 -118t-62.5 -107t-118 -86t-177 -45l286 -408h-293l-264 404h-47l-85 -404h-259zM666 843h-196l-48 -227h209q97 0 139 35t42 90q0 47 -38.5 74.5t-107.5 27.5z" />
    <glyph glyph-name="s.sc" horiz-adv-x="1094" 
d="M1068 963l-129 -200q-74 51 -165.5 74.5t-167.5 23.5q-89 0 -135 -30t-46 -75q0 -44 46 -67t130 -38l56 -10q154 -28 239.5 -100.5t85.5 -190.5q0 -169 -132.5 -269.5t-346.5 -100.5q-127 0 -263.5 38.5t-226.5 111.5l141 199q79 -62 177.5 -92t187.5 -30
q85 0 138.5 27.5t53.5 78.5q0 44 -44.5 67t-144.5 40l-59 10q-145 25 -227 100t-82 193q0 160 120 263.5t332 103.5q270 0 462 -127z" />
    <glyph glyph-name="t.sc" horiz-adv-x="961" 
d="M1057 1071l-49 -236h-319l-178 -835h-259l178 835h-327l49 236h905z" />
    <glyph glyph-name="u.sc" horiz-adv-x="1194" 
d="M1195 1071l-140 -662q-44 -210 -174.5 -319.5t-340.5 -109.5q-206 0 -322 96t-116 261q0 53 12 110l133 624h260l-136 -629q-7 -34 -7 -66q0 -76 49 -114t137 -38q97 0 164 54t89 162l133 631h259z" />
    <glyph glyph-name="v.sc" horiz-adv-x="1156" 
d="M1263 1071l-625 -1071h-304l-190 1071h258l127 -817l458 817h276z" />
    <glyph glyph-name="w.sc" horiz-adv-x="1729" 
d="M1825 1071l-543 -1071h-297l-64 720l-348 -720h-309l-108 1071h256l65 -779l372 779h262l67 -784l377 784h270z" />
    <glyph glyph-name="x.sc" horiz-adv-x="1064" 
d="M1160 1071l-476 -544l254 -527h-274l-157 347l-296 -347h-308l488 550l-244 521h273l146 -348l291 348h303z" />
    <glyph glyph-name="y.sc" horiz-adv-x="1092" 
d="M1211 1071l-551 -668l-85 -403h-259l90 429l-276 642h271l168 -422l338 422h304z" />
    <glyph glyph-name="z.sc" horiz-adv-x="1052" 
d="M1078 1071l-43 -205l-654 -637h541l-48 -229h-880l43 207l653 635h-531l47 229h872z" />
    <glyph glyph-name="braceleft.sc" horiz-adv-x="677" 
d="M754 1172l-43 -207h-40q-129 0 -151 -124l-11 -62q-17 -105 -65.5 -164.5t-152.5 -86.5q162 -61 114 -235l-17 -62q-17 -61 10.5 -93t88.5 -32h54l-43 -206h-84q-160 0 -227.5 102t-28.5 262l11 42q16 62 -21.5 95.5t-119.5 33.5l42 202q174 0 197 134l16 98
q48 303 382 303h89z" />
    <glyph glyph-name="braceright.sc" horiz-adv-x="677" 
d="M-55 -100l43 207h40q129 0 151 124l11 62q17 105 65.5 164.5t152.5 86.5q-162 61 -114 235l17 62q17 61 -10.5 93t-88.5 32h-54l43 206h84q160 0 227.5 -102t28.5 -262l-11 -42q-16 -62 21.5 -95.5t119.5 -33.5l-42 -202q-174 0 -197 -134l-16 -98q-48 -303 -382 -303
h-89z" />
    <glyph glyph-name="exclamdown.sc" horiz-adv-x="537" 
d="M36 0l169 665h209l-96 -665h-282zM353 763q-67 0 -116.5 49.5t-49.5 116.5t49.5 117t116.5 50t117 -50t50 -117t-50 -116.5t-117 -49.5z" />
    <glyph glyph-name="cent.sc" 
d="M1017 730l-198 -99q-25 33 -55 53l-67 -316q46 18 85 57l160 -136q-116 -135 -293 -147l-30 -142h-194l35 167q-109 39 -172 127.5t-63 205.5q0 165 110.5 285.5t286.5 136.5l32 149h193l-36 -167q137 -43 206 -174zM462 515q0 -72 48 -117l63 295q-51 -24 -81 -72
t-30 -106z" />
    <glyph glyph-name="sterling.sc" 
d="M970 229l-48 -229h-835l48 229h120l45 212h-119l40 188h118l18 83q39 184 159.5 280.5t293.5 96.5q206 0 308 -126l-181 -161q-53 52 -145 52q-158 0 -195 -176l-11 -49h365l-40 -188h-365l-45 -212h469z" />
    <glyph glyph-name="currency.sc" 
d="M987 966l109 -137l-136 -113q45 -91 31 -201q-13 -106 -80 -195l81 -103l-152 -123l-80 102q-95 -46 -196 -40q-106 6 -190 65l-141 -117l-109 138l137 113q-44 95 -31 200q13 106 80 194l-81 104l151 124l81 -104q97 47 197 41q103 -6 188 -64zM587 340q81 -4 145 49.5
t74 135.5q10 81 -39.5 140.5t-130.5 63.5q-82 4 -146 -49t-74 -134q-10 -82 39.5 -142t131.5 -64z" />
    <glyph glyph-name="yen.sc" 
d="M984 348l-31 -151h-281l-42 -197h-247l42 197h-272l32 151h272l19 87h-272l31 150h207l-227 486h269l157 -361l310 361h293l-427 -486h218l-32 -150h-280l-19 -87h280z" />
    <glyph glyph-name="section.sc" horiz-adv-x="985" 
d="M990 988l-129 -180q-131 73 -265 73q-71 0 -121 -21t-57 -56q-9 -49 33 -71t130 -36l44 -7q156 -25 224 -98t44 -185q-25 -118 -134 -181q67 -80 45 -189q-16 -77 -59.5 -135.5t-105.5 -92t-132.5 -50t-148.5 -16.5q-119 0 -228 32.5t-173 89.5l139 175q123 -91 275 -91
q75 0 126 21t59 60q4 19 -2 33.5t-17 24t-36 17.5t-48 13t-64 12l-52 9q-140 24 -208 95.5t-46 176.5q25 117 140 184q-77 80 -51 208q26 130 143.5 207t285.5 77q226 0 389 -99zM474 499l-67 9q-69 -26 -81 -77q-4 -17 0 -29.5t18 -22t26.5 -16t40 -12.5t43.5 -8.5t50 -7.5
q59 -9 75 -13q61 26 71 72q10 47 -31.5 69t-144.5 36z" />
    <glyph glyph-name="copyright.sc" horiz-adv-x="1450" 
d="M695 -70q-160 0 -295 74t-214.5 206t-79.5 294q0 129 53.5 249.5t143.5 209.5t215 142.5t260 53.5q161 0 296 -74t215 -206.5t80 -294.5q0 -129 -54 -249t-144 -209t-215 -142.5t-261 -53.5zM766 970q-124 0 -230 -63t-167.5 -167.5t-61.5 -223.5q0 -113 55 -205
t146.5 -142t198.5 -50q124 0 231 63t168.5 167.5t61.5 223.5q0 171 -118.5 284t-283.5 113zM1053 679l-164 -72q-34 82 -127 82q-66 0 -106 -46.5t-40 -114.5q0 -60 36 -93t90 -33q76 0 130 72l136 -93q-99 -145 -276 -145q-126 0 -212.5 75.5t-86.5 206.5q0 140 94 238
t241 98q101 0 178 -46.5t107 -128.5z" />
    <glyph glyph-name="degree.sc" horiz-adv-x="703" 
d="M396 480q-126 0 -212.5 84t-86.5 203q0 136 98.5 233t242.5 97q115 0 206 -81.5t91 -208.5q0 -134 -99.5 -230.5t-239.5 -96.5zM407 662q54 0 95.5 39.5t41.5 94.5q0 49 -35 84t-84 35q-54 0 -95.5 -40t-41.5 -96q0 -49 34.5 -83t84.5 -34z" />
    <glyph glyph-name="questiondown.sc" horiz-adv-x="725" 
d="M389 678h222l-55 -263h-82q-209 0 -209 -106q0 -45 56.5 -70t149.5 -26q52 0 85 3l-14 -233q-40 -4 -99 -4q-200 0 -321 81t-121 222q0 133 93.5 218.5t273.5 104.5zM536 764q-67 0 -116 49.5t-49 116.5t49 117t116 50t117 -50t50 -117t-50 -116.5t-117 -49.5z" />
    <glyph glyph-name="germandbls.sc" horiz-adv-x="2166" 
d="M1068 963l-129 -200q-74 51 -165.5 74.5t-167.5 23.5q-89 0 -135 -30t-46 -75q0 -44 46 -67t130 -38l56 -10q154 -28 239.5 -100.5t85.5 -190.5q0 -169 -132.5 -269.5t-346.5 -100.5q-127 0 -263.5 38.5t-226.5 111.5l141 199q79 -62 177.5 -92t187.5 -30
q85 0 138.5 27.5t53.5 78.5q0 44 -44.5 67t-144.5 40l-59 10q-145 25 -227 100t-82 193q0 160 120 263.5t332 103.5q270 0 462 -127zM2140 963l-129 -200q-74 51 -165.5 74.5t-167.5 23.5q-89 0 -135 -30t-46 -75q0 -44 46 -67t130 -38l56 -10q154 -28 239.5 -100.5
t85.5 -190.5q0 -169 -132.5 -269.5t-346.5 -100.5q-127 0 -263.5 38.5t-226.5 111.5l141 199q79 -62 177.5 -92t187.5 -30q85 0 138.5 27.5t53.5 78.5q0 44 -44.5 67t-144.5 40l-59 10q-145 25 -227 100t-82 193q0 160 120 263.5t332 103.5q270 0 462 -127z" />
    <glyph glyph-name="agrave.sc" horiz-adv-x="1182" 
d="M866 1071l195 -1071h-259l-36 225h-442l-130 -225h-278l645 1071h305zM671 823l-217 -375h277zM649 1209l-264 316h312l201 -316h-249z" />
    <glyph glyph-name="aacute.sc" horiz-adv-x="1182" 
d="M866 1071l195 -1071h-259l-36 225h-442l-130 -225h-278l645 1071h305zM671 823l-217 -375h277zM807 1209h-255l232 316h319z" />
    <glyph glyph-name="acircumflex.sc" horiz-adv-x="1182" 
d="M866 1071l195 -1071h-259l-36 225h-442l-130 -225h-278l645 1071h305zM671 823l-217 -375h277zM1092 1199h-246l-86 155l-149 -155h-264l277 316h315z" />
    <glyph glyph-name="atilde.sc" horiz-adv-x="1182" 
d="M866 1071l195 -1071h-259l-36 225h-442l-130 -225h-278l645 1071h305zM671 823l-217 -375h277zM470 1218l-129 159q115 126 269 126q50 0 93.5 -11t67.5 -24t50 -24t46 -11q32 0 62.5 17t72.5 54l128 -159q-114 -126 -269 -126q-63 0 -113.5 17.5t-84.5 35t-58 17.5
q-56 0 -135 -71z" />
    <glyph glyph-name="adieresis.sc" horiz-adv-x="1182" 
d="M866 1071l195 -1071h-259l-36 225h-442l-130 -225h-278l645 1071h305zM671 823l-217 -375h277zM541 1529q71 0 119.5 -48.5t48.5 -118.5t-48.5 -118t-119.5 -48t-118.5 48t-47.5 118q0 71 48 119t118 48zM972 1529q71 0 119.5 -48.5t48.5 -118.5t-48.5 -118t-119.5 -48
q-70 0 -118 48t-48 118q0 71 48 119t118 48z" />
    <glyph glyph-name="aring.sc" horiz-adv-x="1182" 
d="M866 1071l195 -1071h-259l-36 225h-442l-130 -225h-278l645 1071h305zM671 823l-217 -375h277zM754 1177q-108 0 -184.5 75.5t-76.5 182.5q0 106 77 182t184 76q109 0 186 -75.5t77 -182.5t-77 -182.5t-186 -75.5zM754 1326q44 0 75.5 31.5t31.5 77.5q0 45 -31.5 76.5
t-75.5 31.5q-42 0 -73.5 -31.5t-31.5 -76.5q0 -46 31 -77.5t74 -31.5z" />
    <glyph glyph-name="ae.sc" horiz-adv-x="1840" 
d="M1681 223l-46 -223h-832l43 204h-427l-184 -204h-323l1007 1071h935l-46 -223h-566l-42 -198h541l-47 -222h-541l-44 -205h572zM617 423h276l85 400z" />
    <glyph glyph-name="ccedilla.sc" horiz-adv-x="1165" 
d="M882 356l181 -162q-145 -178 -354 -207l-152 -308h-265l176 320q-174 42 -276.5 172.5t-102.5 314.5q0 128 45.5 240.5t125 192t192 125.5t241.5 46q45 0 87 -5t98 -21.5t103.5 -44t96 -77.5t82.5 -116l-221 -129q-82 149 -258 149q-137 0 -232 -97t-95 -245
q0 -128 79.5 -203.5t194.5 -75.5q152 0 254 131z" />
    <glyph glyph-name="egrave.sc" horiz-adv-x="1070" 
d="M971 650l-47 -222h-541l-44 -205h572l-46 -223h-832l228 1071h823l-46 -223h-566l-42 -198h541zM612 1209l-264 316h312l201 -316h-249z" />
    <glyph glyph-name="eacute.sc" horiz-adv-x="1070" 
d="M971 650l-47 -222h-541l-44 -205h572l-46 -223h-832l228 1071h823l-46 -223h-566l-42 -198h541zM770 1209h-255l232 316h319z" />
    <glyph glyph-name="ecircumflex.sc" horiz-adv-x="1070" 
d="M971 650l-47 -222h-541l-44 -205h572l-46 -223h-832l228 1071h823l-46 -223h-566l-42 -198h541zM1055 1199h-246l-86 155l-149 -155h-264l277 316h315z" />
    <glyph glyph-name="edieresis.sc" horiz-adv-x="1070" 
d="M971 650l-47 -222h-541l-44 -205h572l-46 -223h-832l228 1071h823l-46 -223h-566l-42 -198h541zM504 1529q71 0 119.5 -48.5t48.5 -118.5t-48.5 -118t-119.5 -48q-70 0 -118 48t-48 118q0 71 48 119t118 48zM935 1529q71 0 119.5 -48.5t48.5 -118.5t-48.5 -118
t-119.5 -48t-118.5 48t-47.5 118q0 71 48 119t118 48z" />
    <glyph glyph-name="igrave.sc" horiz-adv-x="531" 
d="M519 1071l-227 -1071h-259l228 1071h258zM330 1209l-264 316h312l201 -316h-249z" />
    <glyph glyph-name="iacute.sc" horiz-adv-x="531" 
d="M519 1071l-227 -1071h-259l228 1071h258zM488 1209h-255l232 316h319z" />
    <glyph glyph-name="icircumflex.sc" horiz-adv-x="531" 
d="M519 1071l-227 -1071h-259l228 1071h258zM773 1199h-246l-86 155l-149 -155h-264l277 316h315z" />
    <glyph glyph-name="idieresis.sc" horiz-adv-x="531" 
d="M519 1071l-227 -1071h-259l228 1071h258zM222 1529q71 0 119.5 -48.5t48.5 -118.5t-48.5 -118t-119.5 -48q-70 0 -118 48t-48 118q0 71 48 119t118 48zM653 1529q71 0 119.5 -48.5t48.5 -118.5t-48.5 -118t-119.5 -48t-118.5 48t-47.5 118q0 71 48 119t118 48z" />
    <glyph glyph-name="eth.sc" horiz-adv-x="1339" 
d="M375 1071h401q228 0 365 -128.5t137 -319.5q0 -132 -44.5 -245t-127 -197.5t-210 -132.5t-284.5 -48h-465l91 428h-168l46 218h168zM763 646l-46 -218h-220l-41 -193h185q171 0 270 98t99 257q0 111 -65.5 178.5t-196.5 67.5h-165l-40 -190h220z" />
    <glyph glyph-name="ntilde.sc" horiz-adv-x="1283" 
d="M1271 1071l-227 -1071h-241l-367 679l-144 -679h-259l228 1071h241l366 -681l144 681h259zM516 1218l-129 159q115 126 269 126q50 0 93.5 -11t67.5 -24t50 -24t46 -11q32 0 62.5 17t72.5 54l128 -159q-114 -126 -269 -126q-63 0 -113.5 17.5t-84.5 35t-58 17.5
q-56 0 -135 -71z" />
    <glyph glyph-name="ograve.sc" horiz-adv-x="1292" 
d="M692 1090q233 0 383 -139.5t150 -366.5q0 -164 -76 -301.5t-215.5 -220t-312.5 -82.5q-233 0 -383 139.5t-150 366.5q0 164 76 301.5t215 220t313 82.5zM678 846q-141 0 -233 -100t-92 -244q0 -127 78.5 -202.5t203.5 -75.5q141 0 233 100t92 244q0 127 -78.5 202.5
t-203.5 75.5zM661 1209l-264 316h312l201 -316h-249z" />
    <glyph glyph-name="oacute.sc" horiz-adv-x="1292" 
d="M692 1090q233 0 383 -139.5t150 -366.5q0 -164 -76 -301.5t-215.5 -220t-312.5 -82.5q-233 0 -383 139.5t-150 366.5q0 164 76 301.5t215 220t313 82.5zM678 846q-141 0 -233 -100t-92 -244q0 -127 78.5 -202.5t203.5 -75.5q141 0 233 100t92 244q0 127 -78.5 202.5
t-203.5 75.5zM819 1209h-255l232 316h319z" />
    <glyph glyph-name="ocircumflex.sc" horiz-adv-x="1292" 
d="M692 1090q233 0 383 -139.5t150 -366.5q0 -164 -76 -301.5t-215.5 -220t-312.5 -82.5q-233 0 -383 139.5t-150 366.5q0 164 76 301.5t215 220t313 82.5zM678 846q-141 0 -233 -100t-92 -244q0 -127 78.5 -202.5t203.5 -75.5q141 0 233 100t92 244q0 127 -78.5 202.5
t-203.5 75.5zM1104 1199h-246l-86 155l-149 -155h-264l277 316h315z" />
    <glyph glyph-name="otilde.sc" horiz-adv-x="1292" 
d="M692 1090q233 0 383 -139.5t150 -366.5q0 -164 -76 -301.5t-215.5 -220t-312.5 -82.5q-233 0 -383 139.5t-150 366.5q0 164 76 301.5t215 220t313 82.5zM678 846q-141 0 -233 -100t-92 -244q0 -127 78.5 -202.5t203.5 -75.5q141 0 233 100t92 244q0 127 -78.5 202.5
t-203.5 75.5zM482 1218l-129 159q115 126 269 126q50 0 93.5 -11t67.5 -24t50 -24t46 -11q32 0 62.5 17t72.5 54l128 -159q-114 -126 -269 -126q-63 0 -113.5 17.5t-84.5 35t-58 17.5q-56 0 -135 -71z" />
    <glyph glyph-name="odieresis.sc" horiz-adv-x="1292" 
d="M692 1090q233 0 383 -139.5t150 -366.5q0 -164 -76 -301.5t-215.5 -220t-312.5 -82.5q-233 0 -383 139.5t-150 366.5q0 164 76 301.5t215 220t313 82.5zM678 846q-141 0 -233 -100t-92 -244q0 -127 78.5 -202.5t203.5 -75.5q141 0 233 100t92 244q0 127 -78.5 202.5
t-203.5 75.5zM553 1529q71 0 119.5 -48.5t48.5 -118.5t-48.5 -118t-119.5 -48t-118.5 48t-47.5 118q0 71 48 119t118 48zM984 1529q71 0 119.5 -48.5t48.5 -118.5t-48.5 -118t-119.5 -48q-70 0 -118 48t-48 118q0 71 48 119t118 48z" />
    <glyph glyph-name="oslash.sc" horiz-adv-x="1292" 
d="M692 1090q193 0 331 -98l125 111l133 -150l-122 -109q66 -115 66 -260q0 -164 -76 -301.5t-215.5 -220t-312.5 -82.5q-188 0 -327 94l-118 -105l-134 149l115 102q-69 115 -69 266q0 164 76 301.5t215 220t313 82.5zM678 846q-141 0 -233 -100t-92 -244q0 -53 13 -95
l456 406q-66 33 -144 33zM960 568q0 42 -12 88l-452 -402q60 -30 139 -30q141 0 233 100t92 244z" />
    <glyph glyph-name="ugrave.sc" horiz-adv-x="1194" 
d="M1195 1071l-140 -662q-44 -210 -174.5 -319.5t-340.5 -109.5q-206 0 -322 96t-116 261q0 53 12 110l133 624h260l-136 -629q-7 -34 -7 -66q0 -76 49 -114t137 -38q97 0 164 54t89 162l133 631h259zM668 1209l-264 316h312l201 -316h-249z" />
    <glyph glyph-name="uacute.sc" horiz-adv-x="1194" 
d="M1195 1071l-140 -662q-44 -210 -174.5 -319.5t-340.5 -109.5q-206 0 -322 96t-116 261q0 53 12 110l133 624h260l-136 -629q-7 -34 -7 -66q0 -76 49 -114t137 -38q97 0 164 54t89 162l133 631h259zM826 1209h-255l232 316h319z" />
    <glyph glyph-name="ucircumflex.sc" horiz-adv-x="1194" 
d="M1195 1071l-140 -662q-44 -210 -174.5 -319.5t-340.5 -109.5q-206 0 -322 96t-116 261q0 53 12 110l133 624h260l-136 -629q-7 -34 -7 -66q0 -76 49 -114t137 -38q97 0 164 54t89 162l133 631h259zM1111 1199h-246l-86 155l-149 -155h-264l277 316h315z" />
    <glyph glyph-name="udieresis.sc" horiz-adv-x="1194" 
d="M1195 1071l-140 -662q-44 -210 -174.5 -319.5t-340.5 -109.5q-206 0 -322 96t-116 261q0 53 12 110l133 624h260l-136 -629q-7 -34 -7 -66q0 -76 49 -114t137 -38q97 0 164 54t89 162l133 631h259zM560 1529q71 0 119.5 -48.5t48.5 -118.5t-48.5 -118t-119.5 -48
q-70 0 -118 48t-48 118q0 71 48 119t118 48zM991 1529q71 0 119.5 -48.5t48.5 -118.5t-48.5 -118t-119.5 -48t-118.5 48t-47.5 118q0 71 48 119t118 48z" />
    <glyph glyph-name="yacute.sc" horiz-adv-x="1092" 
d="M1211 1071l-551 -668l-85 -403h-259l90 429l-276 642h271l168 -422l338 422h304zM755 1209h-255l232 316h319z" />
    <glyph glyph-name="thorn.sc" horiz-adv-x="1073" 
d="M519 1071l-36 -169h167q175 0 274.5 -89.5t99.5 -224.5q0 -179 -123.5 -286.5t-341.5 -107.5h-226l-41 -194h-259l228 1071h258zM618 671h-184l-53 -250h190q91 0 142 37.5t51 103.5q0 50 -38.5 79.5t-107.5 29.5z" />
    <glyph glyph-name="ydieresis.sc" horiz-adv-x="1092" 
d="M1211 1071l-551 -668l-85 -403h-259l90 429l-276 642h271l168 -422l338 422h304zM489 1529q71 0 119.5 -48.5t48.5 -118.5t-48.5 -118t-119.5 -48t-118.5 48t-47.5 118q0 71 48 119t118 48zM920 1529q71 0 119.5 -48.5t48.5 -118.5t-48.5 -118t-119.5 -48q-70 0 -118 48
t-48 118q0 71 48 119t118 48z" />
    <glyph glyph-name="dotlessi.sc" horiz-adv-x="531" 
d="M519 1071l-227 -1071h-259l228 1071h258z" />
    <glyph glyph-name="ij.sc" horiz-adv-x="1410" 
d="M519 1071l-227 -1071h-259l228 1071h258zM1405 1071l-146 -685q-45 -214 -157.5 -310t-285.5 -96q-105 0 -191 36.5t-139 102.5l144 186q68 -81 181 -81q79 0 128 48.5t72 159.5l136 639h258z" />
    <glyph glyph-name="lslash.sc" horiz-adv-x="1061" 
d="M612 1071l-76 -360l317 149l-53 -254l-318 -149l-47 -222h545l-49 -235h-805l69 323l-163 -76l53 254l164 76l105 494h258z" />
    <glyph glyph-name="oe.sc" horiz-adv-x="1751" 
d="M1652 650l-47 -222h-541l-44 -205h572l-46 -223h-948q-232 0 -371 126.5t-139 327.5q0 131 45.5 243.5t131 196t216 130.5t291.5 47h993l-46 -223h-566l-42 -198h541zM356 483q0 -118 70 -189t210 -71h125l133 625h-136q-186 0 -294 -100.5t-108 -264.5z" />
    <glyph glyph-name="scaron.sc" horiz-adv-x="1094" 
d="M1068 963l-129 -200q-74 51 -165.5 74.5t-167.5 23.5q-89 0 -135 -30t-46 -75q0 -44 46 -67t130 -38l56 -10q154 -28 239.5 -100.5t85.5 -190.5q0 -169 -132.5 -269.5t-346.5 -100.5q-127 0 -263.5 38.5t-226.5 111.5l141 199q79 -62 177.5 -92t187.5 -30
q85 0 138.5 27.5t53.5 78.5q0 44 -44.5 67t-144.5 40l-59 10q-145 25 -227 100t-82 193q0 160 120 263.5t332 103.5q270 0 462 -127zM366 1515h246l86 -155l149 155h264l-277 -316h-315z" />
    <glyph glyph-name="zcaron.sc" horiz-adv-x="1052" 
d="M1078 1071l-43 -205l-654 -637h541l-48 -229h-880l43 207l653 635h-531l47 229h872zM342 1515h246l86 -155l149 155h264l-277 -316h-315z" />
    <glyph glyph-name="longs.sc" horiz-adv-x="1094" 
d="M1068 963l-129 -200q-74 51 -165.5 74.5t-167.5 23.5q-89 0 -135 -30t-46 -75q0 -44 46 -67t130 -38l56 -10q154 -28 239.5 -100.5t85.5 -190.5q0 -169 -132.5 -269.5t-346.5 -100.5q-127 0 -263.5 38.5t-226.5 111.5l141 199q79 -62 177.5 -92t187.5 -30
q85 0 138.5 27.5t53.5 78.5q0 44 -44.5 67t-144.5 40l-59 10q-145 25 -227 100t-82 193q0 160 120 263.5t332 103.5q270 0 462 -127z" />
    <glyph glyph-name="florin.sc" 
d="M944 649l-40 -189h-193l-42 -188q-33 -151 -107.5 -221.5t-202.5 -70.5q-132 0 -225 69l117 171q50 -25 95 -25q41 0 61 23t32 75l37 167h-182l39 189h185l35 155q32 147 107 216t203 69q135 0 225 -67l-118 -172q-48 25 -94 25q-41 0 -61.5 -22.5t-32.5 -74.5l-29 -129
h191z" />
    <glyph glyph-name="uni0237.sc" horiz-adv-x="879" 
d="M874 1071l-146 -685q-45 -214 -157.5 -310t-285.5 -96q-105 0 -191 36.5t-139 102.5l144 186q68 -81 181 -81q79 0 128 48.5t72 159.5l136 639h258z" />
    <glyph glyph-name="uni02BB.sc" horiz-adv-x="438" 
d="M333 534h-263l240 536h197z" />
    <glyph glyph-name="uni02BC.sc" horiz-adv-x="438" 
d="M240 1071h263l-240 -536h-197z" />
    <glyph glyph-name="gravecomb.sc" horiz-adv-x="1" 
d="M-631 1209l-264 316h312l201 -316h-249z" />
    <glyph glyph-name="acutecomb.sc" horiz-adv-x="1" 
d="M-473 1209h-255l232 316h319z" />
    <glyph glyph-name="uni0302.sc" horiz-adv-x="1" 
d="M-188 1199h-246l-86 155l-149 -155h-264l277 316h315z" />
    <glyph glyph-name="tildecomb.sc" horiz-adv-x="1" 
d="M-810 1218l-129 159q115 126 269 126q50 0 93.5 -11t67.5 -24t50 -24t46 -11q32 0 62.5 17t72.5 54l128 -159q-114 -126 -269 -126q-63 0 -113.5 17.5t-84.5 35t-58 17.5q-56 0 -135 -71z" />
    <glyph glyph-name="uni0304.sc" horiz-adv-x="1" 
d="M-870 1252l45 210h661l-45 -210h-661z" />
    <glyph glyph-name="uni0306.sc" horiz-adv-x="1" 
d="M-881 1500l200 58q16 -164 149 -164q125 0 206 164l197 -58q-74 -157 -178.5 -236t-248.5 -79q-142 0 -229.5 82.5t-95.5 232.5z" />
    <glyph glyph-name="uni0307.sc" horiz-adv-x="1" 
d="M-528 1529q70 0 118.5 -48.5t48.5 -118.5t-48 -118t-119 -48q-70 0 -118 48t-48 118q0 71 48 119t118 48z" />
    <glyph glyph-name="uni0308.sc" horiz-adv-x="1" 
d="M-739 1529q71 0 119.5 -48.5t48.5 -118.5t-48.5 -118t-119.5 -48t-118.5 48t-47.5 118q0 71 48 119t118 48zM-308 1529q71 0 119.5 -48.5t48.5 -118.5t-48.5 -118t-119.5 -48q-70 0 -118 48t-48 118q0 71 48 119t118 48z" />
    <glyph glyph-name="uni030A.sc" horiz-adv-x="1" 
d="M-526 1177q-108 0 -184.5 75.5t-76.5 182.5q0 106 77 182t184 76q109 0 186 -75.5t77 -182.5t-77 -182.5t-186 -75.5zM-526 1326q44 0 75.5 31.5t31.5 77.5q0 45 -31.5 76.5t-75.5 31.5q-42 0 -73.5 -31.5t-31.5 -76.5q0 -46 31 -77.5t74 -31.5z" />
    <glyph glyph-name="uni030B.sc" horiz-adv-x="1" 
d="M-251 1209h-261l253 316h288zM-631 1209h-255l226 316h283z" />
    <glyph glyph-name="uni030C.sc" horiz-adv-x="1" 
d="M-861 1515h246l86 -155l149 155h264l-277 -316h-315z" />
    <glyph glyph-name="uni0326.sc" horiz-adv-x="1" 
d="M-765 -84h269l-166 -389h-229z" />
    <glyph glyph-name="uni0327.sc" horiz-adv-x="1" 
d="M-407 7l-162 -328h-265l181 328h246z" />
    <glyph glyph-name="uni0328.sc" horiz-adv-x="1" 
d="M-505 -177l128 -153q-97 -89 -240 -89q-108 0 -178 53t-70 143q0 51 21 95t62.5 81t86.5 65.5t108 60.5l72 -76q-124 -77 -124 -161q0 -26 16 -40t42 -14q36 0 76 35z" />
    <glyph glyph-name="uni0335.sc" horiz-adv-x="1" 
d="M-309 636l-46 -218h-647l46 218h647z" />
    <glyph glyph-name="uni0336.sc" horiz-adv-x="1" 
d="M-39 493l-40 -190h-1194l40 190h1194z" />
    <glyph glyph-name="uni1E9E.sc" horiz-adv-x="1188" 
d="M20 0l148 693q14 68 39.5 125t66.5 108t96 87t131 56.5t168 20.5q151 0 276.5 -68t186.5 -166l-288 -262q121 -39 180.5 -118.5t46.5 -188.5q-18 -143 -136 -225t-298 -82q-142 0 -250 33l73 221q80 -27 167 -27q168 0 181 94q7 55 -49.5 87t-171.5 32h-55l38 187
l235 213q-56 40 -155 40q-87 0 -148.5 -52.5t-80.5 -141.5l-142 -666h-259z" />
    <glyph glyph-name="quoteleft.sc" horiz-adv-x="438" 
d="M333 534h-263l240 536h197z" />
    <glyph glyph-name="quoteright.sc" horiz-adv-x="438" 
d="M240 1071h263l-240 -536h-197z" />
    <glyph glyph-name="quotesinglbase.sc" horiz-adv-x="432" 
d="M81 349h263l-240 -536h-197z" />
    <glyph glyph-name="quotedblleft.sc" horiz-adv-x="798" 
d="M693 534h-263l240 536h197zM333 534h-263l240 536h197z" />
    <glyph glyph-name="quotedblright.sc" horiz-adv-x="798" 
d="M600 1071h263l-240 -536h-197zM240 1071h263l-240 -536h-197z" />
    <glyph glyph-name="quotedblbase.sc" horiz-adv-x="792" 
d="M441 349h263l-240 -536h-197zM81 349h263l-240 -536h-197z" />
    <glyph glyph-name="dagger.sc" horiz-adv-x="621" 
d="M390 434h-181l64 304h-151l38 176h151l33 157h181l-33 -157h152l-38 -176h-152z" />
    <glyph glyph-name="daggerdbl.sc" horiz-adv-x="621" 
d="M387 434h-174l24 115h-155l33 152h154l22 103h-154l32 152h154l25 115h174l-25 -115h156l-32 -152h-156l-22 -103h156l-33 -152h-155z" />
    <glyph glyph-name="perthousand.sc" horiz-adv-x="2303" 
d="M452 1093q126 0 208.5 -76.5t82.5 -195.5q0 -130 -93 -223t-230 -93q-127 0 -209.5 76.5t-82.5 195.5q0 130 93.5 223t230.5 93zM444 916q-53 0 -88.5 -37t-35.5 -89q0 -47 30.5 -77t77.5 -30q53 0 88.5 37t35.5 89q0 46 -30.5 76.5t-77.5 30.5zM1407 1071l-907 -1071
h-243l906 1071h244zM1245 567q127 0 209 -76.5t82 -195.5q0 -130 -93 -222.5t-231 -92.5q-127 0 -209 76.5t-82 195.5q0 130 93.5 222.5t230.5 92.5zM1236 390q-53 0 -88 -36.5t-35 -88.5q0 -47 30 -77.5t77 -30.5q53 0 88.5 37t35.5 89q0 47 -30.5 77t-77.5 30zM1906 567
q127 0 209 -76.5t82 -195.5q0 -130 -93 -222.5t-230 -92.5q-126 0 -208.5 76.5t-82.5 195.5q0 130 93 222.5t230 92.5zM1899 390q-53 0 -89 -36.5t-36 -88.5q0 -47 30.5 -77.5t77.5 -30.5q53 0 88.5 37t35.5 89q0 47 -30.5 77t-76.5 30z" />
    <glyph glyph-name="minute.sc" horiz-adv-x="469" 
d="M297 1071h237l-232 -539h-237z" />
    <glyph glyph-name="second.sc" horiz-adv-x="797" 
d="M625 1071h237l-232 -539h-237zM297 1071h237l-232 -539h-237z" />
    <glyph glyph-name="uni2034.sc" horiz-adv-x="1093" 
d="M609 1071h237l-232 -539h-237zM921 1071h237l-232 -539h-237zM297 1071h237l-232 -539h-237z" />
    <glyph glyph-name="uni2071.sc" horiz-adv-x="400" 
d="M412 1071l-173 -813h-200l173 813h200z" />
    <glyph glyph-name="uni207F.sc" horiz-adv-x="953" 
d="M959 1071l-172 -813h-190l-252 507l-107 -507h-200l173 813h189l253 -507l107 507h199z" />
    <glyph glyph-name="Euro.sc" 
d="M940 287l107 -183q-136 -120 -322 -120t-314 95t-165 263h-149l30 149h105q2 55 8 88h-100l32 149h105q64 170 204.5 264.5t324.5 94.5q225 0 370 -136l-148 -176q-93 93 -233 93q-77 0 -141.5 -36.5t-107.5 -103.5h386l-32 -149h-412q-6 -31 -8 -88h401l-31 -149h-339
q32 -66 90 -102.5t134 -36.5q118 0 205 84z" />
    <glyph glyph-name="uni20BA.sc" 
d="M835 387l190 -131q-74 -134 -189.5 -195t-293.5 -61h-364l57 268l-136 -55l36 169l136 55l19 89l-136 -55l35 169l137 55l80 378h246l-58 -268l295 120l-35 -169l-296 -121l-19 -88l295 120l-34 -171l-297 -120l-31 -144h87q94 0 163 33t113 122z" />
    <glyph glyph-name="uni2116.sc" horiz-adv-x="2118" 
d="M1979 269l-46 -217h-707l46 217h707zM1730 1091q156 0 255 -93.5t99 -241.5q0 -161 -114.5 -275.5t-284.5 -114.5q-155 0 -254 94t-99 238q0 162 113.5 277.5t284.5 115.5zM1720 905q-81 0 -133 -56.5t-52 -136.5q0 -71 45 -116t115 -45q81 0 133.5 57t52.5 138
q0 70 -45 114.5t-116 44.5zM1271 1071l-227 -1071h-241l-367 679l-144 -679h-259l228 1071h241l366 -681l144 681h259z" />
    <glyph glyph-name="uni2117.sc" horiz-adv-x="1450" 
d="M695 -70q-160 0 -295 74t-214.5 206t-79.5 294q0 129 53.5 249.5t143.5 209.5t215 142.5t260 53.5q161 0 296 -74t215 -206.5t80 -294.5q0 -129 -54 -249t-144 -209t-215 -142.5t-261 -53.5zM766 970q-124 0 -230 -63t-167.5 -167.5t-61.5 -223.5q0 -113 55 -205
t146.5 -142t198.5 -50q124 0 231 63t168.5 167.5t61.5 223.5q0 171 -118.5 284t-283.5 113zM827 846q131 0 194 -71t43 -163q-20 -90 -92.5 -136t-184.5 -46h-117l-40 -191h-175l129 607h243zM816 696h-90l-25 -120h89q89 0 101 53q6 29 -13.5 48t-61.5 19z" />
    <glyph glyph-name="uni2E38.sc" horiz-adv-x="621" 
d="M345 1071h181l-64 -304h151l-38 -176h-151l-33 -157h-181l33 157h-152l38 176h152z" />
    <glyph glyph-name="uniFB00.sc" horiz-adv-x="2070" 
d="M961 639l-47 -228h-535l-87 -411h-259l228 1071h815l-47 -229h-559l-43 -203h534zM1996 639l-47 -228h-535l-87 -411h-259l228 1071h815l-47 -229h-559l-43 -203h534z" />
    <glyph glyph-name="fi.sc" horiz-adv-x="1566" 
d="M961 639l-47 -228h-535l-87 -411h-259l228 1071h815l-47 -229h-559l-43 -203h534zM1554 1071l-227 -1071h-259l228 1071h258z" />
    <glyph glyph-name="fl.sc" horiz-adv-x="2003" 
d="M961 639l-47 -228h-535l-87 -411h-259l228 1071h815l-47 -229h-559l-43 -203h534zM1554 1071l-177 -836h545l-49 -235h-805l228 1071h258z" />
    <glyph glyph-name="uniFB03.sc" horiz-adv-x="2601" 
d="M961 639l-47 -228h-535l-87 -411h-259l228 1071h815l-47 -229h-559l-43 -203h534zM1996 639l-47 -228h-535l-87 -411h-259l228 1071h815l-47 -229h-559l-43 -203h534zM2589 1071l-227 -1071h-259l228 1071h258z" />
    <glyph glyph-name="uniFB04.sc" horiz-adv-x="3038" 
d="M961 639l-47 -228h-535l-87 -411h-259l228 1071h815l-47 -229h-559l-43 -203h534zM1996 639l-47 -228h-535l-87 -411h-259l228 1071h815l-47 -229h-559l-43 -203h534zM2589 1071l-177 -836h545l-49 -235h-805l228 1071h258z" />
    <glyph glyph-name="uniFB05.sc" horiz-adv-x="2033" 
d="M2129 1071l-49 -236h-319l-178 -835h-259l178 835h-327l49 236h905zM1068 963l-129 -200q-74 51 -165.5 74.5t-167.5 23.5q-89 0 -135 -30t-46 -75q0 -44 46 -67t130 -38l56 -10q154 -28 239.5 -100.5t85.5 -190.5q0 -169 -132.5 -269.5t-346.5 -100.5
q-127 0 -263.5 38.5t-226.5 111.5l141 199q79 -62 177.5 -92t187.5 -30q85 0 138.5 27.5t53.5 78.5q0 44 -44.5 67t-144.5 40l-59 10q-145 25 -227 100t-82 193q0 160 120 263.5t332 103.5q270 0 462 -127z" />
    <glyph glyph-name="uniFB06.sc" horiz-adv-x="2033" 
d="M1068 963l-129 -200q-74 51 -165.5 74.5t-167.5 23.5q-89 0 -135 -30t-46 -75q0 -44 46 -67t130 -38l56 -10q154 -28 239.5 -100.5t85.5 -190.5q0 -169 -132.5 -269.5t-346.5 -100.5q-127 0 -263.5 38.5t-226.5 111.5l141 199q79 -62 177.5 -92t187.5 -30
q85 0 138.5 27.5t53.5 78.5q0 44 -44.5 67t-144.5 40l-59 10q-145 25 -227 100t-82 193q0 160 120 263.5t332 103.5q270 0 462 -127zM2129 1071l-49 -236h-319l-178 -835h-259l178 835h-327l49 236h905z" />
    <glyph glyph-name="j.latn_NLD.sc" horiz-adv-x="879" 
d="M874 1071l-146 -685q-45 -214 -157.5 -310t-285.5 -96q-105 0 -191 36.5t-139 102.5l144 186q68 -81 181 -81q79 0 128 48.5t72 159.5l136 639h258zM839 1209h-255l232 316h319z" />
    <glyph glyph-name="parenleft.case" horiz-adv-x="848" 
d="M805 1578l69 -231q-151 -57 -264.5 -183t-170 -282.5t-56.5 -323.5q0 -162 55 -284t171 -220l-119 -223q-383 254 -383 727q0 161 48.5 321t137 297t221 243.5t291.5 158.5z" />
    <glyph glyph-name="parenright.case" horiz-adv-x="848" 
d="M20 -177l-69 231q151 57 264.5 183t170 282.5t56.5 323.5q0 162 -55 284t-171 220l119 223q383 -254 383 -727q0 -161 -48.5 -321t-137 -297t-221 -243.5t-291.5 -158.5z" />
    <glyph glyph-name="hyphen.case" horiz-adv-x="794" 
d="M756 814l-48 -228h-581l48 228h581z" />
    <glyph glyph-name="slash.case" horiz-adv-x="983" 
d="M1117 1400l-855 -1400h-304l855 1400h304z" />
    <glyph glyph-name="at.case" horiz-adv-x="1944" 
d="M1285 175l107 -163q-191 -133 -463 -133q-213 0 -382 90t-265.5 256.5t-96.5 381.5q0 185 66 351.5t183.5 290.5t289.5 197t372 73q155 0 291.5 -50t235.5 -138.5t156.5 -217.5t57.5 -281q0 -150 -47.5 -273t-143 -199.5t-222.5 -76.5q-88 0 -150 37t-94 97
q-97 -114 -244 -114t-240.5 99t-93.5 257q0 179 111 309.5t274 130.5q155 0 229 -111l19 91h211l-85 -396q-10 -46 -10 -85q0 -120 93 -120q52 0 91.5 50.5t58.5 128.5t19 169q0 224 -148 359t-385 135q-197 0 -351 -96.5t-235 -256t-81 -351.5q0 -250 148.5 -393.5
t386.5 -143.5q191 0 337 96zM1011 896q-81 0 -134 -64t-53 -154q0 -80 45 -127.5t115 -47.5q82 0 135.5 64.5t53.5 154.5q0 78 -45 126t-117 48z" />
    <glyph glyph-name="bracketleft.case" horiz-adv-x="766" 
d="M586 104l-50 -236h-543l354 1663h543l-50 -236h-279l-253 -1191h278z" />
    <glyph glyph-name="backslash.case" horiz-adv-x="1518" 
d="M1113 0l-855 1400h304l855 -1400h-304z" />
    <glyph glyph-name="bracketright.case" horiz-adv-x="766" 
d="M206 1295l50 236h543l-354 -1663h-543l50 236h278l253 1191h-277z" />
    <glyph glyph-name="braceleft.case" horiz-adv-x="874" 
d="M1017 1531l-50 -232h-46q-97 0 -150.5 -43t-69.5 -140l-16 -94q-22 -138 -85 -216.5t-187 -115.5q68 -29 105 -79t41.5 -108t-11.5 -125l-25 -94q-24 -90 15.5 -136.5t128.5 -46.5h65l-50 -232h-86q-83 0 -148.5 23.5t-106.5 65.5t-64.5 100t-23 127t17.5 146l17 68
q23 88 -24 137t-151 49l49 229q116 0 176.5 49t78.5 151l22 128q33 194 153 291.5t335 97.5h90z" />
    <glyph glyph-name="braceright.case" horiz-adv-x="874" 
d="M-51 -131l50 232h46q97 0 150.5 43t69.5 140l16 94q24 138 86 216t185 116q-101 43 -131.5 125t-2.5 187l25 94q24 90 -15.5 136.5t-128.5 46.5h-65l50 232h86q83 0 148.5 -23.5t106.5 -65.5t64.5 -100t23 -127t-17.5 -146l-17 -68q-23 -88 24 -137t151 -49l-49 -229
q-116 0 -176.5 -49t-78.5 -151l-22 -128q-33 -194 -153 -291.5t-335 -97.5h-90z" />
    <glyph glyph-name="exclamdown.case" horiz-adv-x="538" 
d="M17 -3l229 919h227l-143 -919h-313zM416 1042q-76 0 -132.5 56.5t-56.5 132.5q0 77 56.5 134t132.5 57t133.5 -57t57.5 -134q0 -76 -57 -132.5t-134 -56.5z" />
    <glyph glyph-name="guillemotleft.case" horiz-adv-x="1086" 
d="M1138 1090l-295 -417l102 -363h-249l-109 390l276 390h275zM690 1090l-295 -417l102 -363h-249l-109 390l276 390h275z" />
    <glyph glyph-name="uni00AD.case" horiz-adv-x="794" 
d="M756 814l-48 -228h-581l48 228h581z" />
    <glyph glyph-name="periodcentered.case" horiz-adv-x="731" 
d="M371 894q77 0 135 -57.5t58 -135.5q0 -79 -58 -137t-135 -58q-78 0 -136.5 58t-58.5 137q0 78 58.5 135.5t136.5 57.5z" />
    <glyph glyph-name="guillemotright.case" horiz-adv-x="1087" 
d="M40 310l295 417l-102 363h249l109 -390l-276 -390h-275zM489 310l295 417l-102 363h249l109 -390l-276 -390h-275z" />
    <glyph glyph-name="questiondown.case" horiz-adv-x="865" 
d="M549 922h240l-72 -340h-109q-144 0 -214.5 -47.5t-70.5 -131.5q0 -78 79 -119.5t212 -42.5q63 0 99 3l-16 -263q-57 -5 -120 -5q-246 0 -396 105t-150 288q0 185 124.5 302.5t361.5 139.5zM719 1044q-76 0 -132.5 56.5t-56.5 132.5q0 77 56.5 134.5t132.5 57.5
q77 0 134 -57.5t57 -133.5q0 -77 -57 -133.5t-134 -56.5z" />
    <glyph glyph-name="gravecomb.case" horiz-adv-x="1" 
d="M-685 1518l-264 315h312l201 -315h-249z" />
    <glyph glyph-name="acutecomb.case" horiz-adv-x="1" 
d="M-713 1517h-255l232 316h319z" />
    <glyph glyph-name="uni0302.case" horiz-adv-x="1" 
d="M-320 1508h-246l-87 155l-148 -155h-264l277 315h315z" />
    <glyph glyph-name="tildecomb.case" horiz-adv-x="1" 
d="M-958 1527l-129 158q114 126 269 126q50 0 93.5 -11t67.5 -24t50 -24t46 -11q32 0 62.5 17t72.5 54l128 -158q-113 -127 -269 -127q-63 0 -113.5 17.5t-84.5 35t-58 17.5q-33 0 -63.5 -17t-71.5 -53z" />
    <glyph glyph-name="uni0304.case" horiz-adv-x="1" 
d="M-1046 1561l45 209h661l-45 -209h-661z" />
    <glyph glyph-name="uni0306.case" horiz-adv-x="1" 
d="M-1069 1809l200 58q16 -164 149 -164q125 0 206 164l197 -58q-74 -157 -178.5 -236t-248.5 -79q-143 0 -230 82t-95 233z" />
    <glyph glyph-name="uni0307.case" horiz-adv-x="1" 
d="M-693 1849q74 0 124.5 -51.5t50.5 -125.5t-50.5 -124t-124.5 -50t-124 50t-50 124q0 75 50 126t124 51z" />
    <glyph glyph-name="uni0308.case" horiz-adv-x="1" 
d="M-909 1834q71 0 119.5 -49t48.5 -119t-48.5 -118t-119.5 -48t-118.5 48t-47.5 118q0 71 48 119.5t118 48.5zM-478 1834q70 0 119 -49t49 -119t-48.5 -118t-119.5 -48q-70 0 -118 48t-48 118q0 71 48 119.5t118 48.5z" />
    <glyph glyph-name="uni030A.case" horiz-adv-x="1" 
d="M-694 1486q-108 0 -184.5 75.5t-76.5 182.5q0 106 77 181.5t184 75.5q109 0 186 -75.5t77 -181.5q0 -107 -77 -182.5t-186 -75.5zM-694 1635q44 0 75.5 31.5t31.5 77.5q0 45 -31.5 76.5t-75.5 31.5q-42 0 -73.5 -31.5t-31.5 -76.5q0 -46 31 -77.5t74 -31.5z" />
    <glyph glyph-name="uni030B.case" horiz-adv-x="1" 
d="M-515 1518h-261l253 315h288zM-895 1518h-255l226 315h283z" />
    <glyph glyph-name="uni030C.case" horiz-adv-x="1" 
d="M-1065 1823h246l86 -155l149 155h264l-277 -315h-315z" />
    <glyph glyph-name="uni0326.case" horiz-adv-x="1" 
d="M-880 -84h269l-166 -389h-229z" />
    <glyph glyph-name="uni0327.case" horiz-adv-x="1" 
d="M-587 7l-161 -328h-282l180 328h263z" />
    <glyph glyph-name="uni0335.case" horiz-adv-x="1" 
d="M-443 831l-54 -250h-783l53 250h784z" />
    <glyph glyph-name="uni2010.case" horiz-adv-x="804" 
d="M756 814l-48 -228h-581l48 228h581z" />
    <glyph glyph-name="uni2011.case" horiz-adv-x="804" 
d="M756 814l-48 -228h-581l48 228h581z" />
    <glyph glyph-name="figuredash.case" 
d="M1140 812l-46 -223h-951l46 223h951z" />
    <glyph glyph-name="endash.case" horiz-adv-x="1135" 
d="M1111 812l-46 -223h-951l46 223h951z" />
    <glyph glyph-name="emdash.case" horiz-adv-x="1568" 
d="M1590 812l-46 -223h-1475l45 223h1476z" />
    <glyph glyph-name="bullet.case" horiz-adv-x="1028" 
d="M481 1017q131 0 224 -92.5t93 -224.5t-93 -224.5t-224 -92.5t-224 92.5t-93 224.5t93 224.5t224 92.5z" />
    <glyph glyph-name="guilsinglleft.case" horiz-adv-x="638" 
d="M690 1090l-295 -417l102 -363h-249l-109 390l276 390h275z" />
    <glyph glyph-name="guilsinglright.case" horiz-adv-x="638" 
d="M49 311l295 417l-102 363h249l109 -390l-276 -390h-275z" />
    <glyph glyph-name="uni2E17.case" horiz-adv-x="925" 
d="M869 1091l-48 -226l-597 -215l48 226zM790 719l-48 -226l-598 -215l49 226z" />
    <glyph glyph-name="j.latn_NLD.case" horiz-adv-x="1074" 
d="M1122 1400l-192 -915q-55 -263 -192 -386.5t-352 -123.5q-133 0 -243.5 52t-176.5 146l177 197q40 -57 104 -92.5t141 -35.5q107 0 171.5 72t97.5 228l181 858h284zM1063 1517h-255l232 316h319z" />
    <glyph glyph-name="zero.zero" horiz-adv-x="1403" 
d="M848 1425q236 0 376 -152.5t140 -404.5q0 -124 -30.5 -250t-92 -241.5t-146 -205t-201 -143t-248.5 -53.5q-235 0 -375.5 153t-140.5 404q0 123 30.5 248.5t92 241t146 206t201 144t248.5 53.5zM832 1167q-97 0 -178.5 -58t-132 -149.5t-78 -197t-27.5 -206.5v-32
l607 541q-66 102 -191 102zM1078 844q0 16 -1 24l-604 -538q66 -97 188 -97q97 0 178.5 57.5t132 148.5t78.5 197t28 208z" />
    <glyph glyph-name="zero.osf.zero" horiz-adv-x="1335" 
d="M710 1095q234 0 388.5 -140t154.5 -371q0 -124 -44.5 -235.5t-123 -194.5t-193 -132t-247.5 -49q-233 0 -387.5 140t-154.5 371q0 124 44.5 235.5t123 194.5t192.5 132t247 49zM987 566q0 59 -19 111l-469 -418q69 -40 160 -40q146 0 237 100.5t91 246.5zM697 849
q-146 0 -237.5 -101t-91.5 -246q0 -59 19 -111l469 418q-69 40 -159 40z" />
    <glyph glyph-name="zero.tf.zero" 
d="M742 1425q213 0 340.5 -131.5t127.5 -376.5q0 -143 -28 -280t-84 -256.5t-133.5 -210t-185 -143t-230.5 -52.5q-212 0 -339.5 131.5t-127.5 375.5q0 143 28 280t84 257t133.5 210.5t184.5 143t230 52.5zM731 1166q-80 0 -149.5 -54t-115 -141.5t-73 -195t-32.5 -219.5
l546 486q-47 124 -176 124zM562 234q104 0 187 90.5t127.5 224t52.5 283.5l-542 -483q49 -115 175 -115z" />
    <glyph glyph-name="zero.tosf.zero" 
d="M647 1094q218 0 360.5 -139.5t142.5 -366.5q0 -167 -70.5 -306.5t-202 -223.5t-297.5 -84q-217 0 -359.5 139.5t-142.5 366.5q0 166 70.5 306t201.5 224t297 84zM885 571q0 41 -10 86l-438 -390q64 -53 156 -53q130 0 211 103t81 254zM635 855q-130 0 -211 -103.5
t-81 -253.5q0 -42 8 -82l436 389q-66 50 -152 50z" />
    <glyph glyph-name="zero.sc.zero" horiz-adv-x="1148" 
d="M659 1090q190 0 306 -116.5t116 -317.5q0 -93 -23.5 -188t-72 -182.5t-115 -156t-160 -109t-199.5 -40.5q-189 0 -305.5 116.5t-116.5 317.5q0 93 23.5 188t72 182.5t115 155.5t160 109t199.5 41zM645 854q-69 0 -127 -39.5t-93.5 -102t-55 -134.5t-19.5 -142v-5l421 368
q-46 55 -126 55zM524 217q69 0 127 39.5t94 101.5t55.5 134t19.5 142v3l-421 -366q46 -54 125 -54z" />
    <glyph glyph-name="a.ss01" horiz-adv-x="1079" 
d="M570 995q193 0 302.5 -93t109.5 -255q0 -48 -13 -110l-114 -537h-252l15 72q-119 -97 -270 -97q-143 0 -227.5 74.5t-84.5 198.5q0 152 113.5 244t309.5 92h259q2 22 2 32q0 149 -197 149q-119 0 -252 -73l-79 205q169 98 378 98zM433 185q58 0 117.5 26.5t107.5 71.5
l27 125h-201q-80 0 -126 -34t-46 -91q0 -45 32.5 -71.5t88.5 -26.5z" />
    <glyph glyph-name="agrave.ss01" horiz-adv-x="1079" 
d="M570 995q193 0 302.5 -93t109.5 -255q0 -48 -13 -110l-114 -537h-252l15 72q-119 -97 -270 -97q-143 0 -227.5 74.5t-84.5 198.5q0 152 113.5 244t309.5 92h259q2 22 2 32q0 149 -197 149q-119 0 -252 -73l-79 205q169 98 378 98zM433 185q58 0 117.5 26.5t107.5 71.5
l27 125h-201q-80 0 -126 -34t-46 -91q0 -45 32.5 -71.5t88.5 -26.5zM554 1108l-264 315h312l201 -315h-249z" />
    <glyph glyph-name="aacute.ss01" horiz-adv-x="1079" 
d="M570 995q193 0 302.5 -93t109.5 -255q0 -48 -13 -110l-114 -537h-252l15 72q-119 -97 -270 -97q-143 0 -227.5 74.5t-84.5 198.5q0 152 113.5 244t309.5 92h259q2 22 2 32q0 149 -197 149q-119 0 -252 -73l-79 205q169 98 378 98zM433 185q58 0 117.5 26.5t107.5 71.5
l27 125h-201q-80 0 -126 -34t-46 -91q0 -45 32.5 -71.5t88.5 -26.5zM712 1107h-255l232 316h319z" />
    <glyph glyph-name="acircumflex.ss01" horiz-adv-x="1079" 
d="M570 995q193 0 302.5 -93t109.5 -255q0 -48 -13 -110l-114 -537h-252l15 72q-119 -97 -270 -97q-143 0 -227.5 74.5t-84.5 198.5q0 152 113.5 244t309.5 92h259q2 22 2 32q0 149 -197 149q-119 0 -252 -73l-79 205q169 98 378 98zM433 185q58 0 117.5 26.5t107.5 71.5
l27 125h-201q-80 0 -126 -34t-46 -91q0 -45 32.5 -71.5t88.5 -26.5zM997 1098h-246l-87 155l-148 -155h-264l277 315h315z" />
    <glyph glyph-name="atilde.ss01" horiz-adv-x="1079" 
d="M570 995q193 0 302.5 -93t109.5 -255q0 -48 -13 -110l-114 -537h-252l15 72q-119 -97 -270 -97q-143 0 -227.5 74.5t-84.5 198.5q0 152 113.5 244t309.5 92h259q2 22 2 32q0 149 -197 149q-119 0 -252 -73l-79 205q169 98 378 98zM433 185q58 0 117.5 26.5t107.5 71.5
l27 125h-201q-80 0 -126 -34t-46 -91q0 -45 32.5 -71.5t88.5 -26.5zM375 1117l-129 158q114 126 269 126q50 0 93.5 -11t67.5 -24t50 -24t46 -11q32 0 62.5 17t72.5 54l128 -158q-113 -127 -269 -127q-63 0 -113.5 17.5t-84.5 35t-58 17.5q-33 0 -63.5 -17t-71.5 -53z" />
    <glyph glyph-name="adieresis.ss01" horiz-adv-x="1079" 
d="M570 995q193 0 302.5 -93t109.5 -255q0 -48 -13 -110l-114 -537h-252l15 72q-119 -97 -270 -97q-143 0 -227.5 74.5t-84.5 198.5q0 152 113.5 244t309.5 92h259q2 22 2 32q0 149 -197 149q-119 0 -252 -73l-79 205q169 98 378 98zM433 185q58 0 117.5 26.5t107.5 71.5
l27 125h-201q-80 0 -126 -34t-46 -91q0 -45 32.5 -71.5t88.5 -26.5zM446 1424q70 0 119 -49t49 -119t-48.5 -118t-119.5 -48q-70 0 -118 48t-48 118q0 71 48 119.5t118 48.5zM877 1424q71 0 119.5 -49t48.5 -119t-48.5 -118t-119.5 -48t-118.5 48t-47.5 118q0 71 48 119.5
t118 48.5z" />
    <glyph glyph-name="aring.ss01" horiz-adv-x="1079" 
d="M570 995q193 0 302.5 -93t109.5 -255q0 -48 -13 -110l-114 -537h-252l15 72q-119 -97 -270 -97q-143 0 -227.5 74.5t-84.5 198.5q0 152 113.5 244t309.5 92h259q2 22 2 32q0 149 -197 149q-119 0 -252 -73l-79 205q169 98 378 98zM433 185q58 0 117.5 26.5t107.5 71.5
l27 125h-201q-80 0 -126 -34t-46 -91q0 -45 32.5 -71.5t88.5 -26.5zM643 1076q-108 0 -184.5 75.5t-76.5 182.5q0 106 77 181.5t184 75.5q109 0 186 -75.5t77 -181.5q0 -107 -77 -182.5t-186 -75.5zM643 1225q44 0 75.5 31.5t31.5 77.5q0 45 -31.5 76.5t-75.5 31.5
q-42 0 -73.5 -31.5t-31.5 -76.5q0 -46 31 -77.5t74 -31.5z" />
    <glyph glyph-name="J.ss02" horiz-adv-x="808" 
d="M-71 9l89 252q52 -19 108 -19q102 0 165.5 61t93.5 206l186 891h286l-197 -935q-54 -255 -190.5 -372.5t-351.5 -117.5q-94 0 -189 34z" />
    <glyph glyph-name="IJ.ss02" horiz-adv-x="1397" 
d="M632 1400l-298 -1400h-285l298 1400h285zM518 9l89 252q52 -19 108 -19q102 0 165.5 61t93.5 206l186 891h286l-197 -935q-54 -255 -190.5 -372.5t-351.5 -117.5q-94 0 -189 34z" />
    <glyph glyph-name="j.sc.ss02" horiz-adv-x="668" 
d="M-75 6l74 231q41 -13 83 -13q71 0 115.5 42.5t64.5 139.5l140 665h259l-146 -694q-44 -210 -154.5 -303.5t-285.5 -93.5q-77 0 -150 26z" />
    <glyph glyph-name="ij.sc.ss02" horiz-adv-x="1199" 
d="M519 1071l-227 -1071h-259l228 1071h258zM456 6l74 231q41 -13 83 -13q71 0 115.5 42.5t64.5 139.5l140 665h259l-146 -694q-44 -210 -154.5 -303.5t-285.5 -93.5q-77 0 -150 26z" />
    <glyph glyph-name="uni0237.sc.ss02" horiz-adv-x="668" 
d="M-75 6l74 231q41 -13 83 -13q71 0 115.5 42.5t64.5 139.5l140 665h259l-146 -694q-44 -210 -154.5 -303.5t-285.5 -93.5q-77 0 -150 26z" />
    <glyph glyph-name="j.latn_NLD.sc.ss02" horiz-adv-x="668" 
d="M-75 6l74 231q41 -13 83 -13q71 0 115.5 42.5t64.5 139.5l140 665h259l-146 -694q-44 -210 -154.5 -303.5t-285.5 -93.5q-77 0 -150 26zM624 1209h-255l232 316h319z" />
    <glyph glyph-name="j.latn_NLD.case.ss02" horiz-adv-x="808" 
d="M-71 9l89 252q52 -19 108 -19q102 0 165.5 61t93.5 206l186 891h286l-197 -935q-54 -255 -190.5 -372.5t-351.5 -117.5q-94 0 -189 34zM797 1517h-255l232 316h319z" />
    <glyph glyph-name="seven.ss03" horiz-adv-x="1112" 
d="M1213 1400l-44 -224l-227 -371h179l-51 -240h-275l-345 -565h-322l357 573h-264l51 240h362l209 335h-653l53 252h970z" />
    <glyph glyph-name="seven.osf.ss03" horiz-adv-x="1070" 
d="M1137 1068l-44 -221l-227 -374h149l-50 -235h-242l-345 -570h-314l356 578h-294l50 235h389l209 339h-650l53 248h960z" />
    <glyph glyph-name="seven.tf.ss03" 
d="M1264 1400l-44 -224l-227 -371h179l-51 -240h-275l-345 -565h-322l357 573h-264l51 240h362l209 335h-653l53 252h970z" />
    <glyph glyph-name="seven.tosf.ss03" 
d="M1205 1068l-44 -221l-227 -374h149l-50 -235h-242l-345 -570h-314l356 578h-294l50 235h389l209 339h-650l53 248h960z" />
    <glyph glyph-name="seven.sc.ss03" horiz-adv-x="904" 
d="M961 1071l-41 -206l-154 -242h108l-46 -216h-200l-259 -407h-292l269 414h-221l46 216h315l138 212h-498l47 229h788z" />
    <glyph glyph-name="Z.ss04" horiz-adv-x="1283" 
d="M1368 1400l-47 -225l-344 -353h163l-52 -246h-332l-314 -319h717l-55 -257h-1090l50 231l346 353h-182l52 246h355l306 313h-710l55 257h1082z" />
    <glyph glyph-name="z.ss04" horiz-adv-x="1007" 
d="M1007 969l-43 -199l-212 -195h111l-37 -176h-242l-180 -166h472l-49 -233h-827l41 199l228 208h-118l37 176h253l167 154h-464l50 232h813z" />
    <glyph glyph-name="Zcaron.ss04" horiz-adv-x="1283" 
d="M1368 1400l-47 -225l-344 -353h163l-52 -246h-332l-314 -319h717l-55 -257h-1090l50 231l346 353h-182l52 246h355l306 313h-710l55 257h1082zM496 1823h246l86 -155l149 155h264l-277 -315h-315z" />
    <glyph glyph-name="zcaron.ss04" horiz-adv-x="1007" 
d="M1007 969l-43 -199l-212 -195h111l-37 -176h-242l-180 -166h472l-49 -233h-827l41 199l228 208h-118l37 176h253l167 154h-464l50 232h813zM293 1413h246l86 -155l149 155h264l-277 -315h-315z" />
    <glyph glyph-name="z.sc.ss04" horiz-adv-x="1052" 
d="M1077 1071l-42 -203l-238 -225h119l-45 -214h-272l-218 -200h540l-47 -229h-881l44 207l246 229h-134l45 214h289l207 192h-532l48 229h871z" />
    <glyph glyph-name="zcaron.sc.ss04" horiz-adv-x="1052" 
d="M1077 1071l-42 -203l-238 -225h119l-45 -214h-272l-218 -200h540l-47 -229h-881l44 207l246 229h-134l45 214h289l207 192h-532l48 229h871zM342 1515h246l86 -155l149 155h264l-277 -316h-315z" />
    <glyph glyph-name="Adieresis.ss05" horiz-adv-x="1472" 
d="M380 1425q71 0 119.5 -48.5t48.5 -118.5t-48.5 -118t-119.5 -48q-70 0 -118 48t-48 118q0 71 48 119t118 48zM1387 1425q71 0 119.5 -48.5t48.5 -118.5t-48.5 -118t-119.5 -48t-118.5 48t-47.5 118q0 71 48 119t118 48zM1094 1400l241 -1400h-285l-51 326h-583l-188 -326
h-304l831 1400h339zM875 1121l-311 -538h395z" />
    <glyph glyph-name="Odieresis.ss05" horiz-adv-x="1639" 
d="M345 1425q87 0 134 -69q-145 -87 -239 -226q-61 48 -61 128q0 71 48 119t118 48zM1547 1425q71 0 119 -48.5t48 -118.5q0 -58 -34.5 -100.5t-87.5 -54.5q-35 70 -85 130.5t-105 99.5q18 41 57 66.5t88 25.5zM931 1425q194 0 348.5 -80.5t243 -230.5t88.5 -343
q0 -161 -58.5 -307t-161 -254.5t-250 -172t-316.5 -63.5q-194 0 -348.5 80.5t-243 230.5t-88.5 344q0 161 58.5 307t161 254t250 171.5t316.5 63.5zM913 1158q-137 0 -247 -70.5t-169.5 -187t-59.5 -252.5q0 -184 113 -295t294 -111q136 0 246 70.5t169.5 186.5t59.5 253
q0 183 -113.5 294.5t-292.5 111.5z" />
    <glyph glyph-name="Udieresis.ss05" horiz-adv-x="1448" 
d="M891 1425q68 0 114 -46t46 -113t-46 -113t-114 -46q-67 0 -113 45.5t-46 113.5t46 113.5t113 45.5zM803 1008q67 0 113.5 -46t46.5 -114q0 -67 -46 -112.5t-114 -45.5t-113.5 45.5t-45.5 112.5q0 68 46 114t113 46zM1513 1400l-182 -861q-119 -564 -660 -564
q-157 0 -275.5 49.5t-187.5 152t-69 248.5q0 68 17 151l176 824h286l-177 -827q-12 -57 -12 -102q0 -116 69 -172.5t194 -56.5q137 0 231 79t129 246l176 833h285z" />
    <glyph glyph-name="hyphen.ss06" horiz-adv-x="829" 
d="M790 957l-48 -226l-597 -215l48 226zM711 585l-48 -226l-598 -215l49 226z" />
    <glyph glyph-name="hyphen.case.ss06" horiz-adv-x="925" 
d="M869 1091l-48 -226l-597 -215l48 226zM790 719l-48 -226l-598 -215l49 226z" />
    <glyph glyph-name="f.calt" horiz-adv-x="818" 
d="M997 1390l-116 -208q-67 41 -132 41q-112 0 -142 -147l-23 -107h283l-49 -232h-284l-157 -737h-262l157 737h-179l49 232h179l31 144q76 352 387 352q155 0 258 -75z" />
    <glyph glyph-name="j.calt" horiz-adv-x="528" 
d="M-181 -408l41 234q19 -4 39 -4q42 0 75 28t45 85l219 1034h264l-230 -1082q-33 -153 -124.5 -230.5t-222.5 -77.5q-52 0 -106 13zM435 1454q70 0 118.5 -48.5t48.5 -119.5q0 -70 -48 -118t-119 -48t-118.5 48t-47.5 118q0 71 48 119.5t118 48.5z" />
    <glyph glyph-name="f_t" horiz-adv-x="1532" 
d="M1535 969l-50 -232h-339l-74 -351q-18 -84 12 -126t97 -42q78 0 170 55l91 -206q-141 -92 -309 -92q-197 0 -281 109.5t-44 299.5l76 353h-351l-156 -737h-262l156 737h-178l49 232h178l15 70q24 115 73 199.5t115.5 133t142.5 71t164 22.5q174 0 280 -91.5t106 -256.5
q0 -54 -14 -122l-6 -26h339zM590 1007l-8 -38h352l13 61q8 38 8 66q0 66 -38 98.5t-105 32.5q-176 0 -222 -220z" />
    <glyph glyph-name="longs_t" horiz-adv-x="1439" 
d="M1441 969l-50 -232h-339l-74 -351q-18 -85 12.5 -126.5t97.5 -41.5q78 0 169 55l92 -206q-143 -92 -310 -92q-197 0 -281 109.5t-43 299.5l75 353h-165l50 232h167l13 61q7 34 7 66q0 67 -38.5 99t-105.5 32q-176 0 -222 -220l-214 -1007h-262l221 1039q24 115 73 199
t115.5 132.5t143 71.5t164.5 23q173 0 279 -91.5t106 -256.5q0 -54 -14 -122l-6 -26h339z" />
    </font>
</defs>
</svg>
