<?xml version="1.0" standalone="no"?>
<!DOCTYPE svg PUBLIC "-//W3C//DTD SVG 1.1//EN" "http://www.w3.org/Graphics/SVG/1.1/DTD/svg11.dtd" >
<svg xmlns="http://www.w3.org/2000/svg" xmlns:xlink="http://www.w3.org/1999/xlink" version="1.1">
<metadata>
Created by FontForge 20170731 at Fri Aug  5 19:42:54 2016
 By ,,,
2013 published by Monotype GmbH
</metadata>
<defs>
<font id="MarkOT-Italic" horiz-adv-x="1200" >
  <font-face 
    font-family="Mark OT"
    font-weight="400"
    font-style="italic"
    font-stretch="normal"
    units-per-em="2000"
    panose-1="2 11 5 4 2 2 1 1 1 4"
    ascent="1580"
    descent="-420"
    x-height="947"
    cap-height="1400"
    bbox="-1334 -471 2954 1936"
    underline-thickness="136"
    underline-position="-532"
    slope="-12"
    unicode-range="U+000D-FEFF"
  />
<missing-glyph horiz-adv-x="1179" 
d="M65 0v1400h1049v-1400h-1049zM201 136h777v1128h-777v-1128z" />
    <glyph glyph-name=".notdef" horiz-adv-x="1179" 
d="M65 0v1400h1049v-1400h-1049zM201 136h777v1128h-777v-1128z" />
    <glyph glyph-name=".null" horiz-adv-x="0" 
 />
    <glyph glyph-name=".null" horiz-adv-x="0" 
 />
    <glyph glyph-name="nonmarkingreturn" horiz-adv-x="666" 
 />
    <glyph glyph-name="CR" unicode="&#xd;" horiz-adv-x="534" 
 />
    <glyph glyph-name="space" unicode=" " horiz-adv-x="534" 
 />
    <glyph glyph-name="exclam" unicode="!" horiz-adv-x="506" 
d="M541 1400l-228 -955h-128l173 955h183zM182 233q50 0 87.5 -37.5t37.5 -87.5t-37.5 -88t-87.5 -38t-87.5 38t-37.5 88t37.5 87.5t87.5 37.5z" />
    <glyph glyph-name="quotedbl" unicode="&#x22;" horiz-adv-x="1021" 
d="M475 1440h149l-108 -507h-149zM809 1440h149l-108 -507h-149z" />
    <glyph glyph-name="numbersign" unicode="#" horiz-adv-x="1394" 
d="M315 1032h230l124 368h140l-124 -368h345l124 368h140l-124 -368h228l-45 -133h-227l-132 -391h227l-44 -133h-227l-126 -375h-140l126 375h-345l-126 -375h-140l126 375h-230l44 133h230l132 391h-231zM641 899l-132 -391h345l132 391h-345z" />
    <glyph glyph-name="dollar" unicode="$" horiz-adv-x="1400" 
d="M1325 1235l-86 -124q-131 94 -292 123l-100 -472q171 -31 272 -113t101 -224q0 -180 -144 -297.5t-389 -118.5l-41 -196h-138l44 207q-244 37 -399 170l91 124q123 -116 338 -151l100 473l-12 2q-169 28 -263 114t-94 222q0 80 31 153t90.5 133t158 96t223.5 36h26
l40 188h139l-43 -201q196 -34 347 -144zM476 994q0 -85 58.5 -134.5t179.5 -73.5l97 461h-4q-85 0 -151.5 -22.5t-104 -59.5t-56.5 -80.5t-19 -90.5zM1059 407q0 80 -60.5 129.5t-183.5 74.5l-97 -457q157 7 249 77.5t92 175.5z" />
    <glyph glyph-name="percent" unicode="%" horiz-adv-x="1971" 
d="M597 1419q146 0 241 -94t95 -240q0 -160 -110.5 -274.5t-271.5 -114.5q-148 0 -243 93.5t-95 239.5q0 161 111 275.5t273 114.5zM589 1287q-102 0 -168.5 -73.5t-66.5 -176.5q0 -92 57 -150.5t146 -58.5q102 0 169 73t67 176q0 92 -57.5 151t-146.5 59zM1645 1400
l-1055 -1400h-166l1055 1400h166zM1518 703q147 0 242 -93.5t95 -239.5q0 -161 -110.5 -275.5t-272.5 -114.5q-147 0 -242 94t-95 240q0 160 110.5 274.5t272.5 114.5zM1511 571q-102 0 -169 -73t-67 -176q0 -92 57.5 -151t146.5 -59q102 0 168.5 73.5t66.5 176.5
q0 92 -57 150.5t-146 58.5z" />
    <glyph glyph-name="ampersand" unicode="&#x26;" horiz-adv-x="1382" 
d="M1164 750l108 -78l-287 -356l253 -316h-195l-158 199q-95 -102 -198 -160t-230 -58q-169 0 -275 88.5t-106 238.5q0 80 29.5 148.5t86.5 124.5t113.5 95.5t138.5 85.5q-70 96 -100.5 165t-30.5 143q0 69 23 130.5t66.5 111t114.5 78.5t160 29q144 0 238 -80t94 -201
q0 -69 -27.5 -129t-83 -111.5t-108.5 -87.5t-133 -82l243 -305zM473 117q93 0 168.5 46t160.5 142l-276 349q-68 -39 -113.5 -71t-90 -73.5t-66.5 -88t-22 -99.5q0 -91 67 -148t172 -57zM468 1066q0 -45 24 -96.5t85 -135.5q66 36 108 63.5t84.5 64t63 76.5t20.5 85
q0 71 -49 114.5t-135 43.5q-95 0 -148 -62t-53 -153z" />
    <glyph glyph-name="quotesingle" unicode="'" horiz-adv-x="687" 
d="M475 1440h149l-108 -507h-149z" />
    <glyph glyph-name="parenleft" unicode="(" horiz-adv-x="756" 
d="M791 1426l51 -134q-120 -39 -223 -131t-172 -212.5t-107.5 -262t-38.5 -282.5q0 -357 245 -556l-77 -129q-329 249 -329 683q0 164 47 327.5t130 301.5t206.5 243.5t267.5 151.5z" />
    <glyph glyph-name="parenright" unicode=")" horiz-adv-x="756" 
d="M6 -288l-51 134q120 39 223 131t172 212.5t107.5 262t38.5 282.5q0 357 -245 556l77 129q329 -249 329 -683q0 -164 -47 -327.5t-130 -301.5t-206.5 -243.5t-267.5 -151.5z" />
    <glyph glyph-name="asterisk" unicode="*" horiz-adv-x="880" 
d="M287 1287l235 -110l56 263h115l-59 -276l268 57l12 -112l-269 -56l103 -217l-102 -57l-103 216l-193 -192l-79 77l193 193l-233 109z" />
    <glyph glyph-name="plus" unicode="+" 
d="M575 96h-138l77 365h-363l28 136h364l79 368h138l-79 -368h368l-29 -136h-368z" />
    <glyph glyph-name="comma" unicode="," horiz-adv-x="483" 
d="M134 248h174l-203 -507h-138z" />
    <glyph glyph-name="hyphen" unicode="-" horiz-adv-x="816" 
d="M707 597l-29 -136h-546l29 136h546z" />
    <glyph glyph-name="period" unicode="." horiz-adv-x="505" 
d="M178 232q50 0 87.5 -37.5t37.5 -87.5t-37.5 -88t-87.5 -38t-87.5 38t-37.5 88t37.5 87.5t87.5 37.5z" />
    <glyph glyph-name="slash" unicode="/" horiz-adv-x="992" 
d="M1117 1540l-1063 -1740h-170l1063 1740h170z" />
    <glyph glyph-name="zero" unicode="0" horiz-adv-x="1410" 
d="M856 1419q225 0 356.5 -151.5t131.5 -396.5q0 -103 -21.5 -208t-61.5 -204.5t-101.5 -186t-136.5 -151.5t-171.5 -102.5t-201.5 -37.5q-225 0 -356.5 152t-131.5 396q0 102 21.5 207t61.5 204t101.5 186t136 152t171 103t202.5 38zM848 1271q-81 0 -155 -32t-130 -86.5
t-102 -127t-75.5 -154t-45 -166t-15.5 -165.5q0 -188 90 -299.5t242 -111.5q121 0 223 68.5t166 176.5t99.5 235t35.5 251q0 190 -90 300.5t-243 110.5z" />
    <glyph glyph-name="one" unicode="1" horiz-adv-x="819" 
d="M816 1417l-302 -1417h-156l252 1186l-427 -154l35 168z" />
    <glyph glyph-name="two" unicode="2" horiz-adv-x="1090" 
d="M337 1096l-101 96q67 94 181 160t247 66q98 0 177 -30.5t127 -82.5t73.5 -116.5t25.5 -136.5q0 -129 -71 -242t-214 -239l-480 -424h629l-31 -147h-863l25 120l608 544q126 112 181 197t55 178q0 95 -65.5 163.5t-186.5 68.5q-94 0 -177 -49t-140 -126z" />
    <glyph glyph-name="three" unicode="3" horiz-adv-x="1090" 
d="M318 1110l-97 105q168 203 444 203q185 0 296.5 -93.5t111.5 -240.5q0 -126 -74 -228.5t-210 -154.5q81 -41 126.5 -112.5t45.5 -163.5q0 -90 -36 -170.5t-101 -141t-163.5 -96t-216.5 -35.5q-144 0 -255.5 46.5t-174.5 128.5l106 101q53 -63 139.5 -97.5t186.5 -34.5
q171 0 264.5 86t93.5 211q0 99 -75.5 156t-200.5 57h-176l31 141h162q162 0 264.5 86.5t102.5 200.5q0 93 -73.5 151.5t-188.5 58.5q-194 0 -332 -164z" />
    <glyph glyph-name="four" unicode="4" horiz-adv-x="1136" 
d="M923 830l-84 -390h239l-31 -146h-239l-62 -294h-154l62 294h-641l26 125l683 980h182l-669 -959h450l84 390h154z" />
    <glyph glyph-name="five" unicode="5" horiz-adv-x="1124" 
d="M1108 1400l-31 -146h-590l-101 -414h162q88 0 160.5 -18t123 -49.5t88 -75t54.5 -95t22.5 -108.5t-7.5 -116q-37 -196 -177.5 -296.5t-333.5 -100.5q-142 0 -257 55t-190 163l116 91q117 -162 337 -162q139 0 233 71.5t114 190.5q6 47 4 91t-25 83t-59 68t-98 45.5
t-143 16.5h-302l167 706h733z" />
    <glyph glyph-name="six" unicode="6" horiz-adv-x="1152" 
d="M912 1400l-431 -534q65 28 137 28q186 0 316 -120.5t130 -301.5q0 -99 -39 -189t-106.5 -156t-165 -105t-208.5 -39q-201 0 -336.5 118.5t-135.5 306.5q0 177 145 360l500 632h194zM586 750q-155 0 -253.5 -97t-98.5 -238q0 -127 89.5 -208t230.5 -81q152 0 251 98
t99 239q0 129 -90.5 208t-227.5 79z" />
    <glyph glyph-name="seven" unicode="7" horiz-adv-x="1076" 
d="M1192 1400l-23 -127l-791 -1273h-184l789 1254h-753l31 146h931z" />
    <glyph glyph-name="eight" unicode="8" horiz-adv-x="1226" 
d="M778 1418q112 0 210.5 -40t161.5 -120.5t63 -183.5q0 -126 -86.5 -227.5t-238.5 -148.5q97 -42 153 -113.5t56 -165.5q0 -188 -155.5 -313t-403.5 -125q-123 0 -226.5 40.5t-168 119.5t-64.5 183q0 138 89 242.5t250 148.5q-83 41 -130 107.5t-47 154.5t36.5 167
t103.5 140.5t170 97.5t227 36zM628 638q-174 0 -279.5 -84t-105.5 -209q0 -101 87 -160.5t216 -59.5q175 0 282.5 82.5t107.5 208.5q0 101 -87.5 161.5t-220.5 60.5zM768 1274q-169 0 -267 -83t-98 -206q0 -97 76.5 -154.5t199.5 -57.5q165 0 268 82t103 201
q0 99 -83.5 158.5t-198.5 59.5z" />
    <glyph glyph-name="nine" unicode="9" horiz-adv-x="1152" 
d="M337 0l430 533q-62 -27 -137 -27q-186 0 -316 120.5t-130 301.5q0 203 148 346t371 143q202 0 337 -118.5t135 -306.5q0 -177 -145 -360l-499 -632h-194zM663 650q154 0 253 97t99 238q0 127 -90 208t-231 81q-151 0 -250 -98t-99 -239q0 -129 90.5 -208t227.5 -79z" />
    <glyph glyph-name="colon" unicode=":" horiz-adv-x="505" 
d="M331 966q50 0 87.5 -37t37.5 -88q0 -50 -37.5 -88t-87.5 -38t-87.5 38t-37.5 88q0 51 37.5 88t87.5 37zM175 233q50 0 87.5 -37.5t37.5 -87.5t-37.5 -88t-87.5 -38t-87.5 38t-37.5 88t37.5 87.5t87.5 37.5z" />
    <glyph glyph-name="semicolon" unicode=";" horiz-adv-x="483" 
d="M310 966q50 0 87 -37t37 -88q0 -50 -37.5 -88t-86.5 -38q-50 0 -88 38t-38 88q0 51 37.5 88t88.5 37zM134 248h174l-203 -507h-138z" />
    <glyph glyph-name="less" unicode="&#x3c;" 
d="M200 456l31 147l866 372l-36 -171l-694 -286l572 -286l-32 -148z" />
    <glyph glyph-name="equal" unicode="=" 
d="M1022 412l-29 -136h-870l29 136h870zM1100 782l-29 -136h-870l30 136h869z" />
    <glyph glyph-name="greater" unicode="&#x3e;" 
d="M1032 603l-31 -147l-866 -372l36 171l694 286l-572 286l32 148z" />
    <glyph glyph-name="question" unicode="?" horiz-adv-x="842" 
d="M335 445h-135l66 314h82q177 0 269 72t92 195q0 112 -99 174.5t-259 62.5q-31 0 -69 -2l6 152q43 5 91 5q220 0 359.5 -101.5t139.5 -270.5q0 -184 -129 -299t-369 -128zM206 232q50 0 87.5 -37.5t37.5 -87.5t-37.5 -88t-87.5 -38t-87.5 38t-37.5 88t37.5 87.5t87.5 37.5
z" />
    <glyph glyph-name="at" unicode="@" horiz-adv-x="1915" 
d="M1286 -75l61 -97q-197 -138 -458 -138q-208 0 -374.5 89t-262 253t-95.5 375q0 180 67.5 344.5t184.5 285.5t285 193t359 72q206 0 371 -83t260 -237t95 -353q0 -232 -103.5 -385t-265.5 -153q-84 0 -138 40.5t-77 102.5q-112 -132 -285 -132q-155 0 -254.5 97.5
t-99.5 251.5q0 182 122 314.5t297 132.5q97 0 169 -40.5t111 -114.5l30 140h127l-98 -455q-10 -43 -10 -82q0 -67 31.5 -102t84.5 -35q98 0 161 118.5t63 298.5q0 250 -168 403.5t-433 153.5q-160 0 -300.5 -62t-238.5 -166t-154 -245.5t-56 -296.5q0 -184 80 -322
t216.5 -209.5t309.5 -71.5q216 0 386 115zM982 776q-123 0 -208 -93.5t-85 -222.5q0 -107 65.5 -172.5t168.5 -65.5q124 0 209.5 93.5t85.5 223.5q0 105 -66 171t-170 66z" />
    <glyph glyph-name="A" unicode="A" horiz-adv-x="1421" 
d="M1005 1400l272 -1400h-165l-74 390h-683l-238 -390h-174l863 1400h199zM877 1241l-429 -699h561z" />
    <glyph glyph-name="B" unicode="B" horiz-adv-x="1374" 
d="M390 1400h515q197 0 317.5 -85t120.5 -244q0 -126 -72.5 -227t-203.5 -140q102 -40 152 -134t24 -213q-19 -86 -56.5 -148.5t-88 -102.5t-122 -64t-149.5 -33t-180 -9h-555zM775 635h-384l-103 -484h383q118 0 197.5 18t134.5 67t73 131q30 137 -51.5 202.5t-249.5 65.5z
M874 1249h-352l-99 -464h360q204 0 300 74.5t96 196.5q0 69 -42.5 113.5t-108.5 62t-154 17.5z" />
    <glyph glyph-name="C" unicode="C" horiz-adv-x="1481" 
d="M1242 322l106 -103q-100 -114 -235.5 -176.5t-289.5 -62.5q-188 0 -339 83t-237 233.5t-86 340.5q0 165 59.5 310t162.5 248.5t246.5 163.5t305.5 60q50 0 100.5 -6t116 -24.5t123 -48t116 -82t100.5 -121.5l-123 -98q-69 114 -188 170t-255 56q-165 0 -301.5 -81
t-215.5 -222.5t-79 -311.5q0 -149 66 -267t181 -183t257 -65q119 0 225.5 49.5t183.5 137.5z" />
    <glyph glyph-name="D" unicode="D" horiz-adv-x="1553" 
d="M390 1400h460q303 0 475.5 -158t172.5 -427q0 -170 -59.5 -318t-169.5 -258.5t-279 -174.5t-377 -64h-521zM832 1248h-311l-233 -1096h343q165 0 298 50t219.5 137.5t133 205.5t46.5 255q0 207 -126.5 327.5t-369.5 120.5z" />
    <glyph glyph-name="E" unicode="E" horiz-adv-x="1306" 
d="M1195 780l-32 -150h-773l-102 -479h805l-32 -151h-969l298 1400h956l-32 -151h-792l-100 -469h773z" />
    <glyph glyph-name="F" unicode="F" horiz-adv-x="1257" 
d="M1188 781l-33 -152h-765l-134 -629h-164l298 1400h949l-33 -152h-785l-99 -467h766z" />
    <glyph glyph-name="G" unicode="G" horiz-adv-x="1612" 
d="M1450 1184l-120 -109q-75 95 -182 142t-225 47q-122 0 -232 -47t-190 -128.5t-127 -198.5t-47 -250q0 -226 142 -365t366 -139q209 0 347.5 120.5t178.5 335.5h-435l31 149h592q0 -29 -4 -61q-39 -313 -235.5 -505.5t-489.5 -192.5q-187 0 -338 81.5t-237 229t-86 332.5
q0 167 60.5 315t164.5 252.5t247.5 165t304.5 60.5q57 0 116.5 -9.5t131.5 -33t142.5 -72.5t123.5 -119z" />
    <glyph glyph-name="H" unicode="H" horiz-adv-x="1546" 
d="M554 1400l-132 -619h833l132 619h164l-299 -1400h-164l134 629h-832l-134 -629h-164l298 1400h164z" />
    <glyph glyph-name="I" unicode="I" horiz-adv-x="549" 
d="M554 1400l-298 -1400h-164l298 1400h164z" />
    <glyph glyph-name="J" unicode="J" horiz-adv-x="1098" 
d="M1108 1400l-193 -931q-101 -488 -516 -488q-128 0 -237.5 55.5t-171.5 149.5l117 105q46 -67 125 -111.5t173 -44.5q138 0 226.5 90.5t127.5 280.5l186 894h163z" />
    <glyph glyph-name="K" unicode="K" horiz-adv-x="1351" 
d="M554 1400l-132 -620h147l668 620h216l-762 -694l554 -706h-195l-490 628h-171l-133 -628h-164l298 1400h164z" />
    <glyph glyph-name="L" unicode="L" horiz-adv-x="1184" 
d="M554 1400l-266 -1248h789l-33 -152h-952l298 1400h164z" />
    <glyph glyph-name="M" unicode="M" horiz-adv-x="1824" 
d="M1829 1400l-298 -1400h-163l257 1205l-682 -1050h-169l-261 1055l-258 -1210h-163l298 1400h236l258 -1061l694 1061h251z" />
    <glyph glyph-name="N" unicode="N" horiz-adv-x="1548" 
d="M1553 1400l-299 -1400h-149l-605 1147l-245 -1147h-163l298 1400h151l604 -1147l244 1147h164z" />
    <glyph glyph-name="O" unicode="O" horiz-adv-x="1663" 
d="M934 1419q188 0 339 -79t239.5 -227.5t88.5 -340.5q0 -160 -58 -305.5t-159 -252.5t-246.5 -170.5t-311.5 -63.5q-188 0 -339.5 79t-239.5 227.5t-88 341.5q0 160 58 305t159 252t246.5 170.5t311.5 63.5zM921 1265q-128 0 -240 -51t-189 -136.5t-121 -199.5t-44 -238
q0 -228 144 -366.5t368 -138.5q170 0 307.5 87t212 229.5t74.5 308.5q0 228 -144.5 366.5t-367.5 138.5z" />
    <glyph glyph-name="P" unicode="P" horiz-adv-x="1285" 
d="M726 563h-350l-120 -563h-164l298 1400h467q211 0 327 -97.5t116 -264.5q0 -212 -149 -343.5t-425 -131.5zM842 1248h-321l-113 -534h325q200 0 300 84t100 225q0 110 -74.5 167.5t-216.5 57.5z" />
    <glyph glyph-name="Q" unicode="Q" horiz-adv-x="1679" 
d="M934 1419q188 0 339 -79t239.5 -227.5t88.5 -340.5q0 -293 -176 -511l182 -261h-181l-109 153q-208 -173 -491 -173q-188 0 -339.5 79t-239.5 227.5t-88 341.5q0 160 58 305t159 252t246.5 170.5t311.5 63.5zM921 1265q-128 0 -240 -51t-189 -136.5t-121 -199.5t-44 -238
q0 -228 144 -366.5t368 -138.5t387 147l-273 391h184l190 -272q106 161 106 359q0 228 -144.5 366.5t-367.5 138.5z" />
    <glyph glyph-name="R" unicode="R" horiz-adv-x="1326" 
d="M390 1400h501q207 0 322 -95.5t115 -249.5q0 -55 -13 -107.5t-39.5 -103t-70.5 -92.5t-101.5 -74.5t-138 -50.5t-175.5 -18h-64l445 -609h-192l-431 609h-163l-129 -609h-164zM875 1248h-354l-105 -493h379q189 0 276.5 79.5t87.5 203.5q0 97 -73 153.5t-211 56.5z" />
    <glyph glyph-name="S" unicode="S" horiz-adv-x="1324" 
d="M1307 1256l-90 -130q-197 141 -448 141q-92 0 -163 -23t-111.5 -62t-61 -84t-20.5 -94q0 -88 65 -141t198 -76l119 -21q401 -71 401 -353q0 -189 -153 -311t-414 -122q-129 0 -284.5 45t-270.5 144l96 130q91 -85 225 -125.5t241 -40.5q180 0 286 74t106 188
q0 86 -71.5 139t-216.5 78l-122 21q-179 31 -277 119.5t-98 230.5q0 83 33 159.5t96.5 139t168.5 100t238 37.5q306 0 528 -163z" />
    <glyph glyph-name="T" unicode="T" horiz-adv-x="1187" 
d="M1345 1400l-32 -152h-469l-265 -1248h-164l265 1248h-477l33 152h1109z" />
    <glyph glyph-name="U" unicode="U" horiz-adv-x="1471" 
d="M1495 1400l-183 -860q-61 -287 -229 -423t-420 -136q-103 0 -190.5 26t-155 77.5t-105.5 135t-38 190.5q0 70 18 151l179 839h164l-179 -835q-14 -66 -14 -129q0 -153 92 -227t248 -74q177 0 300.5 102.5t168.5 315.5l180 847h164z" />
    <glyph glyph-name="V" unicode="V" horiz-adv-x="1397" 
d="M1551 1400l-846 -1400h-198l-266 1400h163l229 -1242l745 1242h173z" />
    <glyph glyph-name="W" unicode="W" horiz-adv-x="2190" 
d="M2318 1400l-741 -1400h-193l-132 1182l-624 -1182h-200l-161 1400h163l132 -1224l642 1224h176l132 -1218l636 1218h170z" />
    <glyph glyph-name="X" unicode="X" horiz-adv-x="1349" 
d="M1460 1400l-647 -694l365 -706h-179l-297 583l-539 -583h-201l664 715l-350 685h179l283 -562l520 562h202z" />
    <glyph glyph-name="Y" unicode="Y" horiz-adv-x="1274" 
d="M1458 1400l-717 -815l-124 -585h-164l127 601l-370 799h173l303 -657l569 657h203z" />
    <glyph glyph-name="Z" unicode="Z" horiz-adv-x="1305" 
d="M1369 1400l-27 -128l-1049 -1120h848l-33 -152h-1062l29 135l1046 1113h-840l32 152h1056z" />
    <glyph glyph-name="bracketleft" unicode="[" horiz-adv-x="738" 
d="M534 -125l-30 -138h-468l354 1663h468l-29 -138h-315l-295 -1387h315z" />
    <glyph glyph-name="backslash" unicode="\" horiz-adv-x="865" 
d="M528 -200l-288 1740h148l288 -1740h-148z" />
    <glyph glyph-name="bracketright" unicode="]" horiz-adv-x="738" 
d="M244 1262l30 138h468l-354 -1663h-468l29 138h314l295 1387h-314z" />
    <glyph glyph-name="asciicircum" unicode="^" 
d="M399 648h-159l356 752h146l357 -752h-163l-269 597z" />
    <glyph glyph-name="underscore" unicode="_" horiz-adv-x="937" 
d="M812 -136l-28 -136h-947l28 136h947z" />
    <glyph glyph-name="grave" unicode="`" horiz-adv-x="939" 
d="M819 1092h-147l-251 300h189z" />
    <glyph glyph-name="a" unicode="a" horiz-adv-x="1213" 
d="M626 966q121 0 208 -52t127 -140l37 173h149l-202 -947h-148l26 121q-132 -140 -331 -140q-176 1 -292 120.5t-116 301.5q0 149 70.5 278t196 207t275.5 78zM526 122q144 0 251 98.5t128 247.5q22 152 -58 254.5t-225 102.5q-160 0 -272 -119.5t-112 -286.5
q0 -129 78 -213t210 -84z" />
    <glyph glyph-name="b" unicode="b" horiz-adv-x="1212" 
d="M588 -19q-122 0 -208.5 52t-126.5 141l-38 -174h-150l306 1440h150l-127 -597q128 123 313 123q182 0 302 -120t120 -302q0 -149 -70.5 -278t-195.5 -207t-275 -78zM687 825q-144 0 -251 -98.5t-128 -247.5q-22 -152 58.5 -254.5t225.5 -102.5q160 0 271.5 119.5
t111.5 286.5q0 129 -78 213t-210 84z" />
    <glyph glyph-name="c" unicode="c" horiz-adv-x="1011" 
d="M994 785l-117 -84q-98 124 -264 124q-156 0 -263.5 -114t-107.5 -274q0 -136 85 -225t213 -89q153 0 262 106l86 -98q-68 -72 -160 -110t-194 -38q-198 0 -322 126.5t-124 317.5q0 146 68.5 269t191.5 196t272 73q251 0 374 -180z" />
    <glyph glyph-name="d" unicode="d" horiz-adv-x="1213" 
d="M625 966q121 0 208 -52t127 -140l142 666h150l-306 -1440h-149l26 121q-132 -140 -332 -140q-176 1 -291.5 121t-115.5 301q0 149 70.5 278t195.5 207t275 78zM526 122q144 0 251 98.5t128 247.5q22 152 -58 254.5t-225 102.5q-160 0 -272 -119.5t-112 -286.5
q0 -129 78 -213t210 -84z" />
    <glyph glyph-name="e" unicode="e" horiz-adv-x="1079" 
d="M820 219l75 -103q-85 -71 -176 -103.5t-207 -32.5q-201 0 -316 115.5t-115 296.5q0 80 21.5 160.5t66.5 155t107.5 132t151 92t190.5 34.5q176 0 283 -102t107 -274q0 -89 -29 -169h-746v-23q0 -131 78 -209t217 -78q162 0 292 108zM610 833q-72 0 -133.5 -24t-104 -66
t-72 -92.5t-46.5 -108.5h603q3 22 3 44q0 115 -68.5 181t-181.5 66z" />
    <glyph glyph-name="f" unicode="f" horiz-adv-x="829" 
d="M869 947l-28 -135h-355l-173 -812h-151l173 812h-213l29 135h213l40 188q33 157 121.5 240.5t225.5 83.5q142 0 238 -79l-73 -116q-73 55 -166 55q-73 0 -125 -51t-74 -153l-36 -168h354z" />
    <glyph glyph-name="g" unicode="g" horiz-adv-x="1211" 
d="M1145 947l-188 -886q-48 -225 -185 -347t-331 -122q-251 0 -420 143l85 114q137 -123 337 -123q137 0 236 90.5t130 244.5l11 58q-126 -121 -304 -121q-191 1 -310.5 118.5t-119.5 295.5q0 151 70.5 278t194 201.5t271.5 74.5q124 0 210.5 -52t126.5 -141l38 174h148z
M525 138q155 0 261.5 103t117.5 264q10 138 -70.5 229t-213.5 91q-162 0 -270.5 -113.5t-108.5 -285.5q0 -126 79.5 -207t204.5 -81z" />
    <glyph glyph-name="h" unicode="h" horiz-adv-x="1179" 
d="M704 966q159 0 251 -90t92 -236q0 -55 -11 -104l-115 -536h-150l114 535q10 47 10 82q0 94 -56.5 150.5t-168.5 56.5q-128 0 -220 -80t-124 -228l-110 -516h-151l307 1440h149l-129 -609q122 135 312 135z" />
    <glyph glyph-name="i" unicode="i" horiz-adv-x="484" 
d="M418 947l-202 -947h-151l202 947h151zM412 1389q45 0 76 -30.5t31 -75.5t-31 -75t-76 -30q-44 0 -74.5 30t-30.5 75t30.5 75.5t74.5 30.5z" />
    <glyph glyph-name="j" unicode="j" horiz-adv-x="491" 
d="M425 947l-236 -1109q-26 -125 -99 -189t-178 -64q-87 0 -151 40l55 123q37 -22 87 -22q52 0 89 33.5t51 97.5l231 1090h151zM419 1389q45 0 76 -30.5t31 -75.5t-31 -75t-76 -30q-44 0 -74.5 30t-30.5 75t30.5 75.5t74.5 30.5z" />
    <glyph glyph-name="k" unicode="k" horiz-adv-x="1028" 
d="M522 1440l-187 -877h130l412 384h195l-504 -461l334 -486h-169l-286 427h-141l-90 -427h-151l306 1440h151z" />
    <glyph glyph-name="l" unicode="l" horiz-adv-x="483" 
d="M522 1440l-306 -1440h-151l306 1440h151z" />
    <glyph glyph-name="m" unicode="m" horiz-adv-x="1886" 
d="M1411 966q159 0 251 -90t92 -236q0 -55 -11 -104l-116 -536h-150l114 535q10 47 10 82q0 94 -57 150.5t-170 56.5q-128 0 -220 -80t-124 -228l-110 -516h-149l114 535q27 124 -25.5 206.5t-190.5 82.5q-128 0 -220 -80t-124 -228l-110 -516h-150l202 947h149l-25 -118
q122 137 313 137q120 0 202.5 -52t117.5 -142q72 101 173.5 147.5t213.5 46.5z" />
    <glyph glyph-name="n" unicode="n" horiz-adv-x="1179" 
d="M704 966q159 0 251 -90t92 -236q0 -55 -11 -104l-115 -536h-150l114 535q10 47 10 82q0 94 -57 150.5t-169 56.5q-128 0 -220 -80t-124 -228l-110 -516h-150l202 947h149l-25 -118q122 137 313 137z" />
    <glyph glyph-name="o" unicode="o" horiz-adv-x="1170" 
d="M626 966q202 0 329.5 -126t127.5 -319q0 -146 -70 -270t-194.5 -197.5t-274.5 -73.5q-201 0 -328.5 126t-127.5 320q0 146 69.5 269.5t194 197t274.5 73.5zM614 826q-158 0 -265.5 -114.5t-107.5 -276.5q0 -137 87.5 -225.5t224.5 -88.5q160 0 268.5 114.5t108.5 275.5
q0 138 -88.5 226.5t-227.5 88.5z" />
    <glyph glyph-name="p" unicode="p" horiz-adv-x="1211" 
d="M587 -19q-122 0 -208.5 52t-126.5 140l-121 -573h-151l287 1347h149l-26 -121q132 140 331 140q176 0 291.5 -120t115.5 -302q0 -149 -70.5 -278t-195.5 -207t-275 -78zM687 825q-145 0 -251.5 -98.5t-127.5 -247.5q-22 -152 58 -254.5t225 -102.5q160 0 272 119.5
t112 286.5q0 129 -78 213t-210 84z" />
    <glyph glyph-name="q" unicode="q" horiz-adv-x="1213" 
d="M626 966q121 0 208 -52t127 -140l37 173h149l-287 -1347h-151l107 500q-127 -119 -310 -119q-182 1 -302 121t-120 301q0 149 70.5 278t196 207t275.5 78zM526 122q144 0 251 98.5t128 247.5q22 152 -58 254.5t-225 102.5q-160 0 -272 -119.5t-112 -286.5q0 -129 78 -213
t210 -84z" />
    <glyph glyph-name="r" unicode="r" horiz-adv-x="804" 
d="M416 947l-24 -111q115 130 290 130q97 0 169 -39l-57 -141q-59 38 -146 38q-118 0 -204 -79t-119 -232l-110 -513h-150l202 947h149z" />
    <glyph glyph-name="s" unicode="s" horiz-adv-x="953" 
d="M922 860l-78 -114q-55 38 -142.5 63.5t-170.5 25.5q-100 0 -163.5 -36t-70.5 -100q-8 -66 34.5 -100.5t133.5 -48.5l85 -13q153 -24 224 -95.5t58 -180.5q-14 -127 -124.5 -203t-282.5 -76q-109 0 -222 35t-191 95l83 111q141 -111 328 -111q111 0 179.5 38t76.5 109
q6 58 -36 94.5t-134 49.5l-87 13q-154 23 -223 95t-57 180q16 130 121 202t269 72q118 0 219 -28.5t171 -76.5z" />
    <glyph glyph-name="t" unicode="t" horiz-adv-x="890" 
d="M897 947l-29 -135h-393l-97 -461q-24 -114 19 -172t129 -58q101 0 200 68l62 -115q-129 -93 -279 -93q-163 0 -241 98t-40 276l97 457h-203l29 135h203l64 301h150l-64 -301h393z" />
    <glyph glyph-name="u" unicode="u" horiz-adv-x="1166" 
d="M1110 947l-118 -558q-29 -138 -103 -231.5t-172.5 -135t-218.5 -41.5q-161 0 -263.5 87.5t-102.5 243.5q0 50 12 108l113 527h151l-114 -534q-10 -44 -10 -85q0 -103 63.5 -155t168.5 -52q122 0 211.5 75t119.5 219l113 532h150z" />
    <glyph glyph-name="v" unicode="v" horiz-adv-x="1027" 
d="M1101 947l-594 -949h-174l-206 949h153l164 -803l494 803h163z" />
    <glyph glyph-name="w" unicode="w" horiz-adv-x="1674" 
d="M996 947l132 -788l443 788h164l-544 -947h-177l-125 785l-419 -785h-174l-156 947h150l121 -785l420 785h165z" />
    <glyph glyph-name="x" unicode="x" horiz-adv-x="998" 
d="M1036 947l-452 -474l280 -473h-165l-220 371l-347 -371h-179l458 485l-277 462h166l213 -365l343 365h180z" />
    <glyph glyph-name="y" unicode="y" horiz-adv-x="1037" 
d="M1124 947l-968 -1351h-171l456 626l-322 725h158l259 -593l419 593h169z" />
    <glyph glyph-name="z" unicode="z" horiz-adv-x="1017" 
d="M993 947l-25 -113l-708 -699h585l-28 -135h-788l24 117l714 695h-579l29 135h776z" />
    <glyph glyph-name="braceleft" unicode="{" horiz-adv-x="844" 
d="M944 1400l-30 -138h-39q-118 0 -184.5 -55t-86.5 -188l-19 -128q-20 -139 -85.5 -217.5t-174.5 -111.5q89 -38 121 -121t2 -195l-35 -131q-31 -117 15.5 -178t151.5 -61h60l-30 -138h-59q-180 0 -255.5 117t-27.5 296l31 113q31 114 -18 175t-160 61l29 138
q124 0 191.5 60t87.5 191l22 142q29 191 139.5 280t300.5 89h53z" />
    <glyph glyph-name="bar" unicode="|" horiz-adv-x="688" 
d="M616 1400l-354 -1665h-149l354 1665h149z" />
    <glyph glyph-name="braceright" unicode="}" horiz-adv-x="844" 
d="M-59 -262l30 138h39q118 0 184.5 55t86.5 188l19 128q37 263 259 328q-88 38 -120 121.5t-2 195.5l35 131q31 117 -15.5 178t-151.5 61h-60l30 138h59q180 0 255.5 -117t27.5 -296l-31 -113q-31 -114 18 -175t160 -61l-29 -138q-124 0 -191.5 -60t-87.5 -191l-22 -142
q-29 -191 -139.5 -280t-300.5 -89h-53z" />
    <glyph glyph-name="asciitilde" unicode="~" 
d="M989 633l66 -101q-68 -57 -134 -84t-145 -27q-59 0 -108.5 13.5t-79 29.5t-73.5 29.5t-93 13.5q-52 0 -95 -19.5t-96 -63.5l-66 101q132 111 279 111q59 0 109 -13.5t79 -29.5t73 -29.5t93 -13.5q52 0 95 19.5t96 63.5z" />
    <glyph glyph-name="uni00A0" unicode="&#xa0;" horiz-adv-x="534" 
 />
    <glyph glyph-name="exclamdown" unicode="&#xa1;" horiz-adv-x="506" 
d="M-35 -453l228 955h128l-173 -955h-183zM324 714q-50 0 -87.5 37.5t-37.5 87.5t37.5 88t87.5 38t87.5 -38t37.5 -88t-37.5 -87.5t-87.5 -37.5z" />
    <glyph glyph-name="cent" unicode="&#xa2;" horiz-adv-x="1400" 
d="M1243 1012l-113 -84q-73 87 -182 114l-148 -695q152 6 253 106l83 -98q-68 -71 -161.5 -108.5t-195.5 -37.5h-9l-44 -209h-138l48 228q-144 40 -228.5 156t-84.5 270q0 142 66.5 262.5t186 194t265.5 78.5l45 211h138l-47 -221q169 -33 266 -167zM474 664
q0 -104 52.5 -183t139.5 -113l145 681q-145 -17 -241 -127t-96 -258z" />
    <glyph glyph-name="sterling" unicode="&#xa3;" horiz-adv-x="1400" 
d="M1157 147l-31 -147h-1015l32 147h173l103 485h-174l30 136h173l41 193q48 227 182.5 342t315.5 115q251 0 356 -173l-122 -93q-82 119 -244 119q-123 0 -212.5 -82t-128.5 -266l-33 -155h512l-29 -136h-512l-102 -485h685z" />
    <glyph glyph-name="currency" unicode="&#xa4;" horiz-adv-x="1400" 
d="M1225 1175l74 -93l-167 -138q74 -122 56 -267q-18 -152 -128 -264l97 -122l-100 -81l-97 122q-123 -76 -265 -69q-150 9 -254 104l-170 -142l-73 94l167 138q-73 119 -55 266q20 153 126 262l-97 123l100 83l97 -125q123 77 267 70q148 -9 252 -102zM710 385
q132 -7 235.5 80t119.5 219q16 131 -64.5 227t-212.5 103q-133 7 -235.5 -80t-119.5 -218q-16 -131 64.5 -227.5t212.5 -103.5z" />
    <glyph glyph-name="yen" unicode="&#xa5;" horiz-adv-x="1400" 
d="M1159 440l-27 -123h-388l-67 -317h-155l67 317h-387l27 123h386l42 197h-388l28 123h323l-310 640h173l277 -589l526 589h190l-577 -640h328l-28 -123h-387l-42 -197h389z" />
    <glyph glyph-name="brokenbar" unicode="&#xa6;" horiz-adv-x="688" 
d="M616 1400l-148 -694h-149l148 694h149zM410 429l-148 -694h-149l148 694h149z" />
    <glyph glyph-name="section" unicode="&#xa7;" horiz-adv-x="1242" 
d="M1252 1277l-91 -115q-155 117 -362 117q-135 0 -232.5 -54t-113.5 -133q-19 -98 42.5 -147t197.5 -65l101 -11q176 -19 269 -110t64 -229q-31 -153 -197 -238q113 -97 82 -254q-30 -150 -175 -239.5t-343 -89.5q-138 0 -268.5 45t-203.5 117l98 113q60 -56 162.5 -95.5
t219.5 -39.5q142 0 241 52.5t116 138.5q19 95 -49 143t-212 67l-109 14q-166 22 -251.5 105.5t-58.5 214.5q32 158 198 245q-111 91 -77 259q29 146 170.5 238t336.5 92q138 0 252.5 -38t192.5 -103zM602 746q-53 6 -102 20q-69 -26 -114 -71t-57 -100q-19 -89 46 -136
t207 -63l101 -11q70 -7 130 -29q67 26 112.5 68.5t55.5 92.5q20 95 -54.5 149.5t-216.5 68.5z" />
    <glyph glyph-name="dieresis" unicode="&#xa8;" horiz-adv-x="953" 
d="M441 1343q44 0 75 -31t31 -76t-30.5 -75t-75.5 -30t-75.5 30t-30.5 75t30.5 76t75.5 31zM847 1343q44 0 75 -31t31 -76t-30.5 -75t-75.5 -30t-75 30t-30 75t30 76t75 31z" />
    <glyph glyph-name="copyright" unicode="&#xa9;" horiz-adv-x="1892" 
d="M940 -90q-152 0 -291 56t-241.5 153.5t-163 236.5t-60.5 296q0 164 67.5 319.5t182 273t277 188.5t341.5 71q152 0 291 -56t241.5 -153.5t163 -236.5t60.5 -296q0 -164 -67.5 -319.5t-182 -273t-277 -188.5t-341.5 -71zM1042 1373q-150 0 -285.5 -60t-230 -158.5
t-150 -228.5t-55.5 -266q0 -132 50.5 -248t135.5 -197t200.5 -127.5t242.5 -46.5q150 0 285.5 60t230 158.5t150 228.5t55.5 266q0 132 -50.5 248t-135.5 197t-200.5 127.5t-242.5 46.5zM1399 939l-120 -69q-37 67 -102.5 100.5t-138.5 33.5q-134 0 -222.5 -95.5
t-88.5 -229.5q0 -121 76.5 -195t189.5 -74q73 0 136.5 32t107.5 90l91 -84q-62 -80 -150 -124t-192 -44q-168 0 -284.5 107t-116.5 283q0 126 58 232t164 169.5t238 63.5q117 0 212 -52.5t142 -143.5z" />
    <glyph glyph-name="ordfeminine" unicode="&#xaa;" horiz-adv-x="747" 
d="M504 1292q124 0 194.5 -61t70.5 -167q0 -33 -8 -75l-79 -372h-121l15 72q-93 -86 -216 -86q-97 0 -157 50t-60 132q0 97 74.5 158.5t213.5 61.5h209q5 27 5 45q0 64 -42 98.5t-121 34.5q-95 0 -198 -62l-34 100q117 71 254 71zM395 706q114 0 203 92l23 116h-180
q-83 0 -125 -33t-42 -82q0 -43 32.5 -68t88.5 -25z" />
    <glyph glyph-name="guillemotleft" unicode="&#xab;" horiz-adv-x="1021" 
d="M960 899l-281 -385l108 -355h-152l-113 370l271 370h167zM564 899l-281 -385l108 -355h-152l-113 370l271 370h167z" />
    <glyph glyph-name="logicalnot" unicode="&#xac;" 
d="M950 147h-138l66 314h-731l28 136h870z" />
    <glyph glyph-name="uni00AD" unicode="&#xad;" horiz-adv-x="816" 
d="M707 597l-29 -136h-546l29 136h546z" />
    <glyph glyph-name="registered" unicode="&#xae;" horiz-adv-x="985" 
d="M639 1435q160 0 273 -108t113 -273q0 -113 -57.5 -212.5t-159.5 -161t-223 -61.5q-161 0 -275 108t-114 273q0 114 58 213.5t161 160.5t224 61zM590 709q140 0 238 103t98 237q0 127 -85.5 211t-206.5 84q-141 0 -240 -102t-99 -237q0 -128 86.5 -212t208.5 -84z
M506 1221h161q70 0 107 -39.5t25 -92.5q-22 -95 -149 -104l109 -143h-93l-99 142h-30l-30 -142h-81zM658 1150h-86l-22 -101h86q69 0 80 46q7 25 -9.5 40t-48.5 15z" />
    <glyph glyph-name="macron" unicode="&#xaf;" horiz-adv-x="939" 
d="M323 1175l25 121h598l-25 -121h-598z" />
    <glyph glyph-name="degree" unicode="&#xb0;" horiz-adv-x="787" 
d="M497 730q-137 0 -230 92.5t-93 226.5q0 151 106 259.5t266 108.5q136 0 229.5 -93t93.5 -226q0 -149 -108.5 -258.5t-263.5 -109.5zM504 851q94 0 164.5 71t70.5 167q0 86 -58.5 146.5t-142.5 60.5q-95 0 -165 -71t-70 -167q0 -86 58 -146.5t143 -60.5z" />
    <glyph glyph-name="plusminus" unicode="&#xb1;" 
d="M628 293h-138l64 303h-364l29 135h364l74 348h138l-74 -348h367l-28 -135h-368zM971 181l-29 -136h-869l28 136h870z" />
    <glyph glyph-name="twosuperior" unicode="&#xb2;" horiz-adv-x="680" 
d="M314 1209l-76 75q104 126 257 126q115 0 177 -63t62 -151q0 -74 -40 -136t-130 -139l-223 -191h329l-24 -113h-508l20 97l326 278q67 57 96 100t29 88q0 48 -34 81t-95 33q-92 0 -166 -85z" />
    <glyph glyph-name="threesuperior" unicode="&#xb3;" horiz-adv-x="672" 
d="M289 1218l-62 85q102 107 260 107q109 0 176.5 -55t67.5 -137q0 -69 -45.5 -127.5t-123.5 -84.5q51 -21 79 -61.5t28 -93.5q0 -103 -81 -174t-221 -71q-175 0 -252 104l81 76q59 -70 173 -70q86 0 131 39.5t45 98.5q0 48 -39.5 76.5t-102.5 28.5h-96l22 107h93
q82 0 131.5 40t49.5 94q0 44 -37 72t-96 28q-103 0 -181 -82z" />
    <glyph glyph-name="acute" unicode="&#xb4;" horiz-adv-x="939" 
d="M578 1092h-153l241 300h194z" />
    <glyph glyph-name="mu" unicode="&#xb5;" horiz-adv-x="1180" 
d="M121 -400h-151l288 1347h150l-114 -535q-10 -47 -10 -82q0 -94 57 -150.5t169 -56.5q128 0 220 80t124 228l110 516h150l-202 -947h-149l25 118q-122 -137 -313 -137q-169 0 -252 102z" />
    <glyph glyph-name="paragraph" unicode="&#xb6;" horiz-adv-x="1167" 
d="M455 0l150 705q-166 4 -258 90t-92 224q0 53 13 103.5t45.5 102t82.5 89.5t130.5 62t181.5 24h164l-298 -1400h-119zM678 0l298 1400h118l-298 -1400h-118z" />
    <glyph glyph-name="periodcentered" unicode="&#xb7;" horiz-adv-x="681" 
d="M359 654q50 0 87 -37t37 -87q0 -51 -37 -88.5t-87 -37.5t-88 37.5t-38 88.5q0 50 38 87t88 37z" />
    <glyph glyph-name="cedilla" unicode="&#xb8;" horiz-adv-x="1000" 
d="M550 5l-165 -328h-168l179 329z" />
    <glyph glyph-name="onesuperior" unicode="&#xb9;" horiz-adv-x="528" 
d="M580 1409l-168 -792h-122l133 623l-225 -77l26 127z" />
    <glyph glyph-name="ordmasculine" unicode="&#xba;" horiz-adv-x="843" 
d="M550 1292q140 0 230.5 -88t90.5 -224q0 -156 -108.5 -266.5t-267.5 -110.5q-141 0 -231.5 87.5t-90.5 225.5q0 156 108.5 266t268.5 110zM540 1177q-101 0 -170.5 -74.5t-69.5 -179.5q0 -89 56.5 -146.5t145.5 -57.5q103 0 173 74.5t70 179.5q0 89 -57.5 146.5
t-147.5 57.5z" />
    <glyph glyph-name="guillemotright" unicode="&#xbb;" horiz-adv-x="1021" 
d="M85 159l281 385l-108 355h152l113 -370l-271 -370h-167zM481 159l281 385l-108 355h152l113 -370l-271 -370h-167z" />
    <glyph glyph-name="onequarter" unicode="&#xbc;" horiz-adv-x="1564" 
d="M1369 1400l-1055 -1400h-157l1055 1400h157zM1406 481l-46 -214h123l-24 -114h-123l-32 -153h-122l32 153h-356l21 97l363 532h140l-352 -515h209l46 214h121zM580 1409l-168 -792h-122l133 623l-225 -77l26 127z" />
    <glyph glyph-name="onehalf" unicode="&#xbd;" horiz-adv-x="1657" 
d="M1369 1400l-1055 -1400h-157l1055 1400h157zM1159 592l-76 75q104 126 257 126q115 0 177 -63t62 -151q0 -74 -40 -136t-130 -139l-223 -191h329l-24 -113h-508l20 97l326 278q67 57 96 100t29 88q0 48 -34 81t-95 33q-92 0 -166 -85zM580 1409l-168 -792h-122l133 623
l-225 -77l26 127z" />
    <glyph glyph-name="threequarters" unicode="&#xbe;" horiz-adv-x="1695" 
d="M1500 1400l-1055 -1400h-157l1055 1400h157zM1537 481l-46 -214h123l-24 -114h-123l-32 -153h-122l32 153h-356l21 97l363 532h140l-352 -515h209l46 214h121zM289 1218l-62 85q102 107 260 107q109 0 176.5 -55t67.5 -137q0 -69 -45.5 -127.5t-123.5 -84.5
q51 -21 79 -61.5t28 -93.5q0 -103 -81 -174t-221 -71q-175 0 -252 104l81 76q59 -70 173 -70q86 0 131 39.5t45 98.5q0 48 -39.5 76.5t-102.5 28.5h-96l22 107h93q82 0 131.5 40t49.5 94q0 44 -37 72t-96 28q-103 0 -181 -82z" />
    <glyph glyph-name="questiondown" unicode="&#xbf;" horiz-adv-x="842" 
d="M507 502h135l-66 -314h-82q-177 0 -269 -72t-92 -195q0 -112 99 -174.5t259 -62.5q31 0 69 2l-6 -152q-43 -5 -91 -5q-220 0 -359.5 101.5t-139.5 270.5q0 184 128.5 298.5t369.5 128.5zM636 715q-50 0 -87.5 37.5t-37.5 87.5t37.5 88t87.5 38t87.5 -38t37.5 -88
t-37.5 -87.5t-87.5 -37.5z" />
    <glyph glyph-name="Agrave" unicode="&#xc0;" horiz-adv-x="1421" 
d="M1005 1400l272 -1400h-165l-74 390h-683l-238 -390h-174l863 1400h199zM877 1241l-429 -699h561zM899 1507l-251 300h189l210 -300h-148z" />
    <glyph glyph-name="Aacute" unicode="&#xc1;" horiz-adv-x="1421" 
d="M1005 1400l272 -1400h-165l-74 390h-683l-238 -390h-174l863 1400h199zM877 1241l-429 -699h561zM919 1507h-153l241 300h194z" />
    <glyph glyph-name="Acircumflex" unicode="&#xc2;" horiz-adv-x="1421" 
d="M1005 1400l272 -1400h-165l-74 390h-683l-238 -390h-174l863 1400h199zM877 1241l-429 -699h561zM1234 1508h-157l-130 197l-209 -197h-168l288 288h200z" />
    <glyph glyph-name="Atilde" unicode="&#xc3;" horiz-adv-x="1421" 
d="M1005 1400l272 -1400h-165l-74 390h-683l-238 -390h-174l863 1400h199zM877 1241l-429 -699h561zM670 1563l-85 89q53 56 106 82t121 26q60 0 106.5 -20t82 -39.5t67.5 -19.5q68 0 141 68l85 -89q-53 -56 -106.5 -82t-120.5 -26q-46 0 -86 12.5t-63 27.5t-52 27.5
t-56 12.5q-68 0 -140 -69z" />
    <glyph glyph-name="Adieresis" unicode="&#xc4;" horiz-adv-x="1421" 
d="M1005 1400l272 -1400h-165l-74 390h-683l-238 -390h-174l863 1400h199zM877 1241l-429 -699h561zM748 1758q44 0 75 -31t31 -76t-30.5 -75t-75.5 -30t-75.5 30t-30.5 75t30.5 76t75.5 31zM1154 1758q44 0 75 -31t31 -76t-30.5 -75t-75.5 -30t-75 30t-30 75t30 76t75 31z
" />
    <glyph glyph-name="Aring" unicode="&#xc5;" horiz-adv-x="1421" 
d="M1005 1400l272 -1400h-165l-74 390h-683l-238 -390h-174l863 1400h199zM877 1241l-429 -699h561zM936 1487q-93 0 -160 66t-67 159q0 92 67 158t160 66q94 0 161 -66t67 -158q0 -93 -67 -159t-161 -66zM936 1582q53 0 90.5 38t37.5 92t-37.5 91.5t-90.5 37.5t-90 -37.5
t-37 -91.5q0 -55 37 -92.5t90 -37.5z" />
    <glyph glyph-name="AE" unicode="&#xc6;" horiz-adv-x="2262" 
d="M2049 151l-32 -151h-969l77 365h-638l-348 -365h-205l1341 1400h1027l-32 -151h-792l-100 -469h773l-32 -150h-773l-102 -479h805zM632 517h526l150 708z" />
    <glyph glyph-name="Ccedilla" unicode="&#xc7;" horiz-adv-x="1481" 
d="M1242 322l106 -103q-91 -105 -212.5 -166t-261.5 -71l-153 -305h-175l169 311q-246 34 -400 212t-154 437q0 165 59.5 310t162.5 248.5t246.5 163.5t305.5 60q50 0 100.5 -6t116 -24.5t123 -48t116 -82t100.5 -121.5l-123 -98q-69 114 -188 170t-255 56
q-165 0 -301.5 -81t-215.5 -222.5t-79 -311.5q0 -149 66 -267t181 -183t257 -65q119 0 225.5 49.5t183.5 137.5z" />
    <glyph glyph-name="Egrave" unicode="&#xc8;" horiz-adv-x="1306" 
d="M1195 780l-32 -150h-773l-102 -479h805l-32 -151h-969l298 1400h956l-32 -151h-792l-100 -469h773zM860 1507l-251 300h189l210 -300h-148z" />
    <glyph glyph-name="Eacute" unicode="&#xc9;" horiz-adv-x="1306" 
d="M1195 780l-32 -150h-773l-102 -479h805l-32 -151h-969l298 1400h956l-32 -151h-792l-100 -469h773zM880 1507h-153l241 300h194z" />
    <glyph glyph-name="Ecircumflex" unicode="&#xca;" horiz-adv-x="1306" 
d="M1195 780l-32 -150h-773l-102 -479h805l-32 -151h-969l298 1400h956l-32 -151h-792l-100 -469h773zM1195 1508h-157l-130 197l-209 -197h-168l288 288h200z" />
    <glyph glyph-name="Edieresis" unicode="&#xcb;" horiz-adv-x="1306" 
d="M1195 780l-32 -150h-773l-102 -479h805l-32 -151h-969l298 1400h956l-32 -151h-792l-100 -469h773zM709 1758q44 0 75 -31t31 -76t-30.5 -75t-75.5 -30t-75.5 30t-30.5 75t30.5 76t75.5 31zM1115 1758q44 0 75 -31t31 -76t-30.5 -75t-75.5 -30t-75 30t-30 75t30 76t75 31
z" />
    <glyph glyph-name="Igrave" unicode="&#xcc;" horiz-adv-x="549" 
d="M554 1400l-298 -1400h-164l298 1400h164zM465 1507l-251 300h189l210 -300h-148z" />
    <glyph glyph-name="Iacute" unicode="&#xcd;" horiz-adv-x="549" 
d="M554 1400l-298 -1400h-164l298 1400h164zM485 1507h-153l241 300h194z" />
    <glyph glyph-name="Icircumflex" unicode="&#xce;" horiz-adv-x="549" 
d="M554 1400l-298 -1400h-164l298 1400h164zM800 1508h-157l-130 197l-209 -197h-168l288 288h200z" />
    <glyph glyph-name="Idieresis" unicode="&#xcf;" horiz-adv-x="549" 
d="M554 1400l-298 -1400h-164l298 1400h164zM314 1758q44 0 75 -31t31 -76t-30.5 -75t-75.5 -30t-75.5 30t-30.5 75t30.5 76t75.5 31zM720 1758q44 0 75 -31t31 -76t-30.5 -75t-75.5 -30t-75 30t-30 75t30 76t75 31z" />
    <glyph glyph-name="Eth" unicode="&#xd0;" horiz-adv-x="1708" 
d="M545 1400h460q303 0 475.5 -158t172.5 -427q0 -170 -59.5 -318t-169.5 -258.5t-279 -174.5t-377 -64h-521l134 629h-232l33 152h231zM964 781l-32 -152h-387l-102 -477h343q165 0 298 50t219.5 137.5t133 205.5t46.5 255q0 207 -126.5 327.5t-369.5 120.5h-311l-99 -467
h387z" />
    <glyph glyph-name="Ntilde" unicode="&#xd1;" horiz-adv-x="1548" 
d="M1553 1400l-299 -1400h-149l-605 1147l-245 -1147h-163l298 1400h151l604 -1147l244 1147h164zM724 1563l-85 89q53 56 106 82t121 26q60 0 106.5 -20t82 -39.5t67.5 -19.5q68 0 141 68l85 -89q-53 -56 -106.5 -82t-120.5 -26q-46 0 -86 12.5t-63 27.5t-52 27.5t-56 12.5
q-68 0 -140 -69z" />
    <glyph glyph-name="Ograve" unicode="&#xd2;" horiz-adv-x="1663" 
d="M934 1419q188 0 339 -79t239.5 -227.5t88.5 -340.5q0 -160 -58 -305.5t-159 -252.5t-246.5 -170.5t-311.5 -63.5q-188 0 -339.5 79t-239.5 227.5t-88 341.5q0 160 58 305t159 252t246.5 170.5t311.5 63.5zM921 1265q-128 0 -240 -51t-189 -136.5t-121 -199.5t-44 -238
q0 -228 144 -366.5t368 -138.5q170 0 307.5 87t212 229.5t74.5 308.5q0 228 -144.5 366.5t-367.5 138.5zM949 1507l-251 300h189l210 -300h-148z" />
    <glyph glyph-name="Oacute" unicode="&#xd3;" horiz-adv-x="1663" 
d="M934 1419q188 0 339 -79t239.5 -227.5t88.5 -340.5q0 -160 -58 -305.5t-159 -252.5t-246.5 -170.5t-311.5 -63.5q-188 0 -339.5 79t-239.5 227.5t-88 341.5q0 160 58 305t159 252t246.5 170.5t311.5 63.5zM921 1265q-128 0 -240 -51t-189 -136.5t-121 -199.5t-44 -238
q0 -228 144 -366.5t368 -138.5q170 0 307.5 87t212 229.5t74.5 308.5q0 228 -144.5 366.5t-367.5 138.5zM969 1507h-153l241 300h194z" />
    <glyph glyph-name="Ocircumflex" unicode="&#xd4;" horiz-adv-x="1663" 
d="M934 1419q188 0 339 -79t239.5 -227.5t88.5 -340.5q0 -160 -58 -305.5t-159 -252.5t-246.5 -170.5t-311.5 -63.5q-188 0 -339.5 79t-239.5 227.5t-88 341.5q0 160 58 305t159 252t246.5 170.5t311.5 63.5zM921 1265q-128 0 -240 -51t-189 -136.5t-121 -199.5t-44 -238
q0 -228 144 -366.5t368 -138.5q170 0 307.5 87t212 229.5t74.5 308.5q0 228 -144.5 366.5t-367.5 138.5zM1284 1508h-157l-130 197l-209 -197h-168l288 288h200z" />
    <glyph glyph-name="Otilde" unicode="&#xd5;" horiz-adv-x="1663" 
d="M934 1419q188 0 339 -79t239.5 -227.5t88.5 -340.5q0 -160 -58 -305.5t-159 -252.5t-246.5 -170.5t-311.5 -63.5q-188 0 -339.5 79t-239.5 227.5t-88 341.5q0 160 58 305t159 252t246.5 170.5t311.5 63.5zM921 1265q-128 0 -240 -51t-189 -136.5t-121 -199.5t-44 -238
q0 -228 144 -366.5t368 -138.5q170 0 307.5 87t212 229.5t74.5 308.5q0 228 -144.5 366.5t-367.5 138.5zM720 1563l-85 89q53 56 106 82t121 26q60 0 106.5 -20t82 -39.5t67.5 -19.5q68 0 141 68l85 -89q-53 -56 -106.5 -82t-120.5 -26q-46 0 -86 12.5t-63 27.5t-52 27.5
t-56 12.5q-68 0 -140 -69z" />
    <glyph glyph-name="Odieresis" unicode="&#xd6;" horiz-adv-x="1663" 
d="M934 1419q188 0 339 -79t239.5 -227.5t88.5 -340.5q0 -160 -58 -305.5t-159 -252.5t-246.5 -170.5t-311.5 -63.5q-188 0 -339.5 79t-239.5 227.5t-88 341.5q0 160 58 305t159 252t246.5 170.5t311.5 63.5zM921 1265q-128 0 -240 -51t-189 -136.5t-121 -199.5t-44 -238
q0 -228 144 -366.5t368 -138.5q170 0 307.5 87t212 229.5t74.5 308.5q0 228 -144.5 366.5t-367.5 138.5zM798 1758q44 0 75 -31t31 -76t-30.5 -75t-75.5 -30t-75.5 30t-30.5 75t30.5 76t75.5 31zM1204 1758q44 0 75 -31t31 -76t-30.5 -75t-75.5 -30t-75 30t-30 75t30 76
t75 31z" />
    <glyph glyph-name="multiply" unicode="&#xd7;" 
d="M928 233l-106 -87l-226 287l-366 -302l-83 104l356 294l-231 294l106 87l225 -285l368 305l83 -105l-359 -296z" />
    <glyph glyph-name="Oslash" unicode="&#xd8;" horiz-adv-x="1663" 
d="M934 1419q281 0 467 -170l193 172l96 -108l-195 -173q106 -160 106 -368q0 -160 -58 -305.5t-159 -252.5t-246.5 -170.5t-311.5 -63.5q-270 0 -455 158l-178 -158l-96 107l177 158q-115 162 -115 383q0 160 58 305t159 252t246.5 170.5t311.5 63.5zM921 1265
q-128 0 -240 -51t-189 -136.5t-121 -199.5t-44 -238q0 -161 75 -281l874 779q-141 127 -355 127zM1433 760q0 148 -67 265l-869 -775q138 -115 342 -115q170 0 307.5 87t212 229.5t74.5 308.5z" />
    <glyph glyph-name="Ugrave" unicode="&#xd9;" horiz-adv-x="1471" 
d="M1495 1400l-183 -860q-61 -287 -229 -423t-420 -136q-103 0 -190.5 26t-155 77.5t-105.5 135t-38 190.5q0 70 18 151l179 839h164l-179 -835q-14 -66 -14 -129q0 -153 92 -227t248 -74q177 0 300.5 102.5t168.5 315.5l180 847h164zM926 1507l-251 300h189l210 -300h-148z
" />
    <glyph glyph-name="Uacute" unicode="&#xda;" horiz-adv-x="1471" 
d="M1495 1400l-183 -860q-61 -287 -229 -423t-420 -136q-103 0 -190.5 26t-155 77.5t-105.5 135t-38 190.5q0 70 18 151l179 839h164l-179 -835q-14 -66 -14 -129q0 -153 92 -227t248 -74q177 0 300.5 102.5t168.5 315.5l180 847h164zM946 1507h-153l241 300h194z" />
    <glyph glyph-name="Ucircumflex" unicode="&#xdb;" horiz-adv-x="1471" 
d="M1495 1400l-183 -860q-61 -287 -229 -423t-420 -136q-103 0 -190.5 26t-155 77.5t-105.5 135t-38 190.5q0 70 18 151l179 839h164l-179 -835q-14 -66 -14 -129q0 -153 92 -227t248 -74q177 0 300.5 102.5t168.5 315.5l180 847h164zM1261 1508h-157l-130 197l-209 -197
h-168l288 288h200z" />
    <glyph glyph-name="Udieresis" unicode="&#xdc;" horiz-adv-x="1471" 
d="M1495 1400l-183 -860q-61 -287 -229 -423t-420 -136q-103 0 -190.5 26t-155 77.5t-105.5 135t-38 190.5q0 70 18 151l179 839h164l-179 -835q-14 -66 -14 -129q0 -153 92 -227t248 -74q177 0 300.5 102.5t168.5 315.5l180 847h164zM775 1758q44 0 75 -31t31 -76
t-30.5 -75t-75.5 -30t-75.5 30t-30.5 75t30.5 76t75.5 31zM1181 1758q44 0 75 -31t31 -76t-30.5 -75t-75.5 -30t-75 30t-30 75t30 76t75 31z" />
    <glyph glyph-name="Yacute" unicode="&#xdd;" horiz-adv-x="1274" 
d="M1458 1400l-717 -815l-124 -585h-164l127 601l-370 799h173l303 -657l569 657h203zM832 1507h-153l241 300h194z" />
    <glyph glyph-name="Thorn" unicode="&#xde;" horiz-adv-x="1303" 
d="M554 1400l-57 -266h321q210 0 326.5 -98t116.5 -264q0 -213 -149 -344.5t-425 -131.5h-368l-63 -296h-164l298 1400h164zM802 982h-337l-114 -534h343q200 0 299.5 84t99.5 225q0 109 -75 167t-216 58z" />
    <glyph glyph-name="germandbls" unicode="&#xdf;" horiz-adv-x="1197" 
d="M57 0l215 1011q47 220 181 334t339 114q171 0 283.5 -98.5t112.5 -246.5q0 -132 -79 -240t-207 -152q101 -39 155 -143t30 -221q-20 -98 -66.5 -172t-111.5 -118t-140.5 -65.5t-162.5 -21.5q-147 0 -241 51l64 125q72 -37 172 -37q133 0 222.5 63t112.5 186
q24 126 -49 208t-221 82h-67l30 136h29q158 0 254 68q57 41 90 107t33 130q0 98 -73.5 158.5t-177.5 60.5q-137 0 -233.5 -78.5t-131.5 -245.5l-211 -995h-151z" />
    <glyph glyph-name="agrave" unicode="&#xe0;" horiz-adv-x="1213" 
d="M626 966q121 0 208 -52t127 -140l37 173h149l-202 -947h-148l26 121q-132 -140 -331 -140q-176 1 -292 120.5t-116 301.5q0 149 70.5 278t196 207t275.5 78zM526 122q144 0 251 98.5t128 247.5q22 152 -58 254.5t-225 102.5q-160 0 -272 -119.5t-112 -286.5
q0 -129 78 -213t210 -84zM663 1092l-251 300h189l210 -300h-148z" />
    <glyph glyph-name="aacute" unicode="&#xe1;" horiz-adv-x="1213" 
d="M626 966q121 0 208 -52t127 -140l37 173h149l-202 -947h-148l26 121q-132 -140 -331 -140q-176 1 -292 120.5t-116 301.5q0 149 70.5 278t196 207t275.5 78zM526 122q144 0 251 98.5t128 247.5q22 152 -58 254.5t-225 102.5q-160 0 -272 -119.5t-112 -286.5
q0 -129 78 -213t210 -84zM703 1092h-153l241 300h194z" />
    <glyph glyph-name="acircumflex" unicode="&#xe2;" horiz-adv-x="1213" 
d="M626 966q121 0 208 -52t127 -140l37 173h149l-202 -947h-148l26 121q-132 -140 -331 -140q-176 1 -292 120.5t-116 301.5q0 149 70.5 278t196 207t275.5 78zM526 122q144 0 251 98.5t128 247.5q22 152 -58 254.5t-225 102.5q-160 0 -272 -119.5t-112 -286.5
q0 -129 78 -213t210 -84zM1009 1093h-157l-130 197l-209 -197h-168l288 288h200z" />
    <glyph glyph-name="atilde" unicode="&#xe3;" horiz-adv-x="1213" 
d="M626 966q121 0 208 -52t127 -140l37 173h149l-202 -947h-148l26 121q-132 -140 -331 -140q-176 1 -292 120.5t-116 301.5q0 149 70.5 278t196 207t275.5 78zM526 122q144 0 251 98.5t128 247.5q22 152 -58 254.5t-225 102.5q-160 0 -272 -119.5t-112 -286.5
q0 -129 78 -213t210 -84zM427 1148l-85 89q53 56 106 82t121 26q47 0 87 -12.5t63 -27t51.5 -27t54.5 -12.5q68 0 141 68l85 -89q-53 -56 -106.5 -82t-120.5 -26q-46 0 -86 12.5t-63 27.5t-52 27.5t-56 12.5q-68 0 -140 -69z" />
    <glyph glyph-name="adieresis" unicode="&#xe4;" horiz-adv-x="1213" 
d="M626 966q121 0 208 -52t127 -140l37 173h149l-202 -947h-148l26 121q-132 -140 -331 -140q-176 1 -292 120.5t-116 301.5q0 149 70.5 278t196 207t275.5 78zM526 122q144 0 251 98.5t128 247.5q22 152 -58 254.5t-225 102.5q-160 0 -272 -119.5t-112 -286.5
q0 -129 78 -213t210 -84zM511 1343q44 0 75 -31t31 -76t-30.5 -75t-75.5 -30t-75.5 30t-30.5 75t30.5 76t75.5 31zM917 1343q44 0 75 -31t31 -76t-30.5 -75t-75.5 -30t-75 30t-30 75t30 76t75 31z" />
    <glyph glyph-name="aring" unicode="&#xe5;" horiz-adv-x="1213" 
d="M626 966q121 0 208 -52t127 -140l37 173h149l-202 -947h-148l26 121q-132 -140 -331 -140q-176 1 -292 120.5t-116 301.5q0 149 70.5 278t196 207t275.5 78zM526 122q144 0 251 98.5t128 247.5q22 152 -58 254.5t-225 102.5q-160 0 -272 -119.5t-112 -286.5
q0 -129 78 -213t210 -84zM690 1072q-93 0 -160 66t-67 159q0 92 67 158t160 66q94 0 161 -66t67 -158q0 -93 -67 -159t-161 -66zM690 1167q53 0 90.5 38t37.5 92t-37.5 91.5t-90.5 37.5t-90 -37.5t-37 -91.5q0 -55 37 -92.5t90 -37.5z" />
    <glyph glyph-name="ae" unicode="&#xe6;" horiz-adv-x="1767" 
d="M1508 219l74 -103q-84 -71 -175 -103.5t-207 -32.5q-131 0 -227.5 51t-148.5 142q-181 -192 -426 -192q-146 0 -237.5 72t-91.5 188q0 133 104 218.5t298 85.5h319l1 5q9 42 9 78q0 98 -64 150.5t-183 52.5q-138 0 -276 -85l-55 117q162 103 356 103q254 0 332 -186
q69 87 170.5 136.5t225.5 49.5q176 0 283 -102t107 -274q0 -89 -29 -169h-747v-23q0 -131 78.5 -209t217.5 -78q162 0 292 108zM1298 833q-72 0 -133.5 -24t-104.5 -66t-72.5 -92t-46.5 -109h603q3 22 3 44q0 115 -68 181t-181 66zM418 113q96 0 190.5 46t170.5 133
q-10 46 -10 100v29h-288q-124 0 -187 -48t-63 -118q0 -67 50 -104.5t137 -37.5z" />
    <glyph glyph-name="ccedilla" unicode="&#xe7;" horiz-adv-x="1011" 
d="M994 785l-117 -84q-98 124 -264 124q-156 0 -263.5 -114t-107.5 -274q0 -136 85 -225t213 -89q153 0 262 106l86 -98q-120 -126 -301 -145l-155 -309h-168l171 316q-158 31 -252.5 150t-94.5 284q0 146 68.5 269t191.5 196t272 73q251 0 374 -180z" />
    <glyph glyph-name="egrave" unicode="&#xe8;" horiz-adv-x="1079" 
d="M820 219l75 -103q-85 -71 -176 -103.5t-207 -32.5q-201 0 -316 115.5t-115 296.5q0 80 21.5 160.5t66.5 155t107.5 132t151 92t190.5 34.5q176 0 283 -102t107 -274q0 -89 -29 -169h-746v-23q0 -131 78 -209t217 -78q162 0 292 108zM610 833q-72 0 -133.5 -24t-104 -66
t-72 -92.5t-46.5 -108.5h603q3 22 3 44q0 115 -68.5 181t-181.5 66zM629 1092l-251 300h189l210 -300h-148z" />
    <glyph glyph-name="eacute" unicode="&#xe9;" horiz-adv-x="1079" 
d="M820 219l75 -103q-85 -71 -176 -103.5t-207 -32.5q-201 0 -316 115.5t-115 296.5q0 80 21.5 160.5t66.5 155t107.5 132t151 92t190.5 34.5q176 0 283 -102t107 -274q0 -89 -29 -169h-746v-23q0 -131 78 -209t217 -78q162 0 292 108zM610 833q-72 0 -133.5 -24t-104 -66
t-72 -92.5t-46.5 -108.5h603q3 22 3 44q0 115 -68.5 181t-181.5 66zM669 1092h-153l241 300h194z" />
    <glyph glyph-name="ecircumflex" unicode="&#xea;" horiz-adv-x="1079" 
d="M820 219l75 -103q-85 -71 -176 -103.5t-207 -32.5q-201 0 -316 115.5t-115 296.5q0 80 21.5 160.5t66.5 155t107.5 132t151 92t190.5 34.5q176 0 283 -102t107 -274q0 -89 -29 -169h-746v-23q0 -131 78 -209t217 -78q162 0 292 108zM610 833q-72 0 -133.5 -24t-104 -66
t-72 -92.5t-46.5 -108.5h603q3 22 3 44q0 115 -68.5 181t-181.5 66zM975 1093h-157l-130 197l-209 -197h-168l288 288h200z" />
    <glyph glyph-name="edieresis" unicode="&#xeb;" horiz-adv-x="1079" 
d="M820 219l75 -103q-85 -71 -176 -103.5t-207 -32.5q-201 0 -316 115.5t-115 296.5q0 80 21.5 160.5t66.5 155t107.5 132t151 92t190.5 34.5q176 0 283 -102t107 -274q0 -89 -29 -169h-746v-23q0 -131 78 -209t217 -78q162 0 292 108zM610 833q-72 0 -133.5 -24t-104 -66
t-72 -92.5t-46.5 -108.5h603q3 22 3 44q0 115 -68.5 181t-181.5 66zM477 1343q44 0 75 -31t31 -76t-30.5 -75t-75.5 -30t-75.5 30t-30.5 75t30.5 76t75.5 31zM883 1343q44 0 75 -31t31 -76t-30.5 -75t-75.5 -30t-75 30t-30 75t30 76t75 31z" />
    <glyph glyph-name="igrave" unicode="&#xec;" horiz-adv-x="484" 
d="M418 947l-202 -947h-151l202 947h151zM352 1092l-251 300h189l210 -300h-148z" />
    <glyph glyph-name="iacute" unicode="&#xed;" horiz-adv-x="484" 
d="M418 947l-202 -947h-151l202 947h151zM392 1092h-153l241 300h194z" />
    <glyph glyph-name="icircumflex" unicode="&#xee;" horiz-adv-x="484" 
d="M418 947l-202 -947h-151l202 947h151zM698 1093h-157l-130 197l-209 -197h-168l288 288h200z" />
    <glyph glyph-name="idieresis" unicode="&#xef;" horiz-adv-x="484" 
d="M418 947l-202 -947h-151l202 947h151zM200 1343q44 0 75 -31t31 -76t-30.5 -75t-75.5 -30t-75.5 30t-30.5 75t30.5 76t75.5 31zM606 1343q44 0 75 -31t31 -76t-30.5 -75t-75.5 -30t-75 30t-30 75t30 76t75 31z" />
    <glyph glyph-name="eth" unicode="&#xf0;" horiz-adv-x="1174" 
d="M992 1417l51 -96l-208 -114q127 -127 192.5 -285.5t65.5 -330.5q0 -54 -11 -138q-28 -205 -178 -338.5t-349 -133.5q-205 0 -337 125.5t-132 315.5q0 138 68 258.5t187 192.5t259 72q108 0 194.5 -42t142.5 -118q-51 199 -226 355l-239 -130l-51 96l195 107
q-105 71 -236 122l68 117q170 -66 300 -168zM613 804q-88 0 -161 -34.5t-117.5 -89.5t-69 -120t-24.5 -130q0 -135 90.5 -222t233.5 -87q88 0 161 34t118 88.5t69.5 119.5t24.5 131q0 137 -91 223.5t-234 86.5z" />
    <glyph glyph-name="ntilde" unicode="&#xf1;" horiz-adv-x="1179" 
d="M704 966q159 0 251 -90t92 -236q0 -55 -11 -104l-115 -536h-150l114 535q10 47 10 82q0 94 -57 150.5t-169 56.5q-128 0 -220 -80t-124 -228l-110 -516h-150l202 947h149l-25 -118q122 137 313 137zM458 1148l-85 89q53 56 106 82t121 26q47 0 87 -12.5t63 -27t51.5 -27
t54.5 -12.5q68 0 141 68l85 -89q-53 -56 -106.5 -82t-120.5 -26q-46 0 -86 12.5t-63 27.5t-52 27.5t-56 12.5q-68 0 -140 -69z" />
    <glyph glyph-name="ograve" unicode="&#xf2;" horiz-adv-x="1170" 
d="M626 966q202 0 329.5 -126t127.5 -319q0 -146 -70 -270t-194.5 -197.5t-274.5 -73.5q-201 0 -328.5 126t-127.5 320q0 146 69.5 269.5t194 197t274.5 73.5zM614 826q-158 0 -265.5 -114.5t-107.5 -276.5q0 -137 87.5 -225.5t224.5 -88.5q160 0 268.5 114.5t108.5 275.5
q0 138 -88.5 226.5t-227.5 88.5zM656 1092l-251 300h189l210 -300h-148z" />
    <glyph glyph-name="oacute" unicode="&#xf3;" horiz-adv-x="1170" 
d="M626 966q202 0 329.5 -126t127.5 -319q0 -146 -70 -270t-194.5 -197.5t-274.5 -73.5q-201 0 -328.5 126t-127.5 320q0 146 69.5 269.5t194 197t274.5 73.5zM614 826q-158 0 -265.5 -114.5t-107.5 -276.5q0 -137 87.5 -225.5t224.5 -88.5q160 0 268.5 114.5t108.5 275.5
q0 138 -88.5 226.5t-227.5 88.5zM696 1092h-153l241 300h194z" />
    <glyph glyph-name="ocircumflex" unicode="&#xf4;" horiz-adv-x="1170" 
d="M626 966q202 0 329.5 -126t127.5 -319q0 -146 -70 -270t-194.5 -197.5t-274.5 -73.5q-201 0 -328.5 126t-127.5 320q0 146 69.5 269.5t194 197t274.5 73.5zM614 826q-158 0 -265.5 -114.5t-107.5 -276.5q0 -137 87.5 -225.5t224.5 -88.5q160 0 268.5 114.5t108.5 275.5
q0 138 -88.5 226.5t-227.5 88.5zM1002 1093h-157l-130 197l-209 -197h-168l288 288h200z" />
    <glyph glyph-name="otilde" unicode="&#xf5;" horiz-adv-x="1170" 
d="M626 966q202 0 329.5 -126t127.5 -319q0 -146 -70 -270t-194.5 -197.5t-274.5 -73.5q-201 0 -328.5 126t-127.5 320q0 146 69.5 269.5t194 197t274.5 73.5zM614 826q-158 0 -265.5 -114.5t-107.5 -276.5q0 -137 87.5 -225.5t224.5 -88.5q160 0 268.5 114.5t108.5 275.5
q0 138 -88.5 226.5t-227.5 88.5zM420 1148l-85 89q53 56 106 82t121 26q47 0 87 -12.5t63 -27t51.5 -27t54.5 -12.5q68 0 141 68l85 -89q-53 -56 -106.5 -82t-120.5 -26q-46 0 -86 12.5t-63 27.5t-52 27.5t-56 12.5q-68 0 -140 -69z" />
    <glyph glyph-name="odieresis" unicode="&#xf6;" horiz-adv-x="1170" 
d="M626 966q202 0 329.5 -126t127.5 -319q0 -146 -70 -270t-194.5 -197.5t-274.5 -73.5q-201 0 -328.5 126t-127.5 320q0 146 69.5 269.5t194 197t274.5 73.5zM614 826q-158 0 -265.5 -114.5t-107.5 -276.5q0 -137 87.5 -225.5t224.5 -88.5q160 0 268.5 114.5t108.5 275.5
q0 138 -88.5 226.5t-227.5 88.5zM504 1343q44 0 75 -31t31 -76t-30.5 -75t-75.5 -30t-75.5 30t-30.5 75t30.5 76t75.5 31zM910 1343q44 0 75 -31t31 -76t-30.5 -75t-75.5 -30t-75 30t-30 75t30 76t75 31z" />
    <glyph glyph-name="divide" unicode="&#xf7;" 
d="M1061 597l-29 -136h-869l28 136h870zM672 953q42 0 73 -30.5t31 -73.5q0 -41 -31 -72.5t-73 -31.5q-41 0 -72.5 31.5t-31.5 72.5q0 42 31 73t73 31zM560 313q41 0 72 -30.5t31 -72.5t-31 -73.5t-72 -31.5q-42 0 -73.5 31.5t-31.5 73.5t31.5 72.5t73.5 30.5z" />
    <glyph glyph-name="oslash" unicode="&#xf8;" horiz-adv-x="1170" 
d="M626 966q180 0 306 -105l134 120l82 -92l-135 -120q70 -109 70 -248q0 -146 -70 -270t-194.5 -197.5t-274.5 -73.5q-181 0 -303 102l-131 -117l-82 91l132 117q-72 111 -72 253q0 146 69.5 269.5t194 197t274.5 73.5zM614 826q-158 0 -265.5 -114.5t-107.5 -276.5
q0 -88 37 -157l539 481q-86 67 -203 67zM930 511q0 81 -35 153l-539 -480q82 -63 197 -63q160 0 268.5 114.5t108.5 275.5z" />
    <glyph glyph-name="ugrave" unicode="&#xf9;" horiz-adv-x="1166" 
d="M1110 947l-118 -558q-29 -138 -103 -231.5t-172.5 -135t-218.5 -41.5q-161 0 -263.5 87.5t-102.5 243.5q0 50 12 108l113 527h151l-114 -534q-10 -44 -10 -85q0 -103 63.5 -155t168.5 -52q122 0 211.5 75t119.5 219l113 532h150zM690 1092l-251 300h189l210 -300h-148z
" />
    <glyph glyph-name="uacute" unicode="&#xfa;" horiz-adv-x="1166" 
d="M1110 947l-118 -558q-29 -138 -103 -231.5t-172.5 -135t-218.5 -41.5q-161 0 -263.5 87.5t-102.5 243.5q0 50 12 108l113 527h151l-114 -534q-10 -44 -10 -85q0 -103 63.5 -155t168.5 -52q122 0 211.5 75t119.5 219l113 532h150zM730 1092h-153l241 300h194z" />
    <glyph glyph-name="ucircumflex" unicode="&#xfb;" horiz-adv-x="1166" 
d="M1110 947l-118 -558q-29 -138 -103 -231.5t-172.5 -135t-218.5 -41.5q-161 0 -263.5 87.5t-102.5 243.5q0 50 12 108l113 527h151l-114 -534q-10 -44 -10 -85q0 -103 63.5 -155t168.5 -52q122 0 211.5 75t119.5 219l113 532h150zM1036 1093h-157l-130 197l-209 -197h-168
l288 288h200z" />
    <glyph glyph-name="udieresis" unicode="&#xfc;" horiz-adv-x="1166" 
d="M1110 947l-118 -558q-29 -138 -103 -231.5t-172.5 -135t-218.5 -41.5q-161 0 -263.5 87.5t-102.5 243.5q0 50 12 108l113 527h151l-114 -534q-10 -44 -10 -85q0 -103 63.5 -155t168.5 -52q122 0 211.5 75t119.5 219l113 532h150zM538 1343q44 0 75 -31t31 -76t-30.5 -75
t-75.5 -30t-75.5 30t-30.5 75t30.5 76t75.5 31zM944 1343q44 0 75 -31t31 -76t-30.5 -75t-75.5 -30t-75 30t-30 75t30 76t75 31z" />
    <glyph glyph-name="yacute" unicode="&#xfd;" horiz-adv-x="1037" 
d="M1124 947l-968 -1351h-171l456 626l-322 725h158l259 -593l419 593h169zM645 1092h-153l241 300h194z" />
    <glyph glyph-name="thorn" unicode="&#xfe;" horiz-adv-x="1211" 
d="M587 -19q-122 0 -208.5 52t-126.5 140l-121 -573h-151l391 1840h151l-128 -595q129 121 313 121q182 0 301.5 -120t119.5 -302q0 -149 -70.5 -278t-195.5 -207t-275 -78zM687 825q-145 0 -251.5 -98.5t-127.5 -247.5q-22 -152 58 -254.5t225 -102.5q160 0 272 119.5
t112 286.5q0 129 -78 213t-210 84z" />
    <glyph glyph-name="ydieresis" unicode="&#xff;" horiz-adv-x="1037" 
d="M1124 947l-968 -1351h-171l456 626l-322 725h158l259 -593l419 593h169zM453 1343q44 0 75 -31t31 -76t-30.5 -75t-75.5 -30t-75.5 30t-30.5 75t30.5 76t75.5 31zM859 1343q44 0 75 -31t31 -76t-30.5 -75t-75.5 -30t-75 30t-30 75t30 76t75 31z" />
    <glyph glyph-name="dotlessi" unicode="&#x131;" horiz-adv-x="484" 
d="M418 947l-202 -947h-151l202 947h151z" />
    <glyph glyph-name="IJ" unicode="&#x132;" horiz-adv-x="1647" 
d="M554 1400l-298 -1400h-164l298 1400h164zM1657 1400l-193 -931q-101 -488 -516 -488q-128 0 -237.5 55.5t-171.5 149.5l117 105q46 -67 125 -111.5t173 -44.5q138 0 226.5 90.5t127.5 280.5l186 894h163z" />
    <glyph glyph-name="ij" unicode="&#x133;" horiz-adv-x="975" 
d="M909 947l-236 -1109q-26 -125 -99 -189t-178 -64q-87 0 -151 40l55 123q37 -22 87 -22q52 0 89 33.5t51 97.5l231 1090h151zM903 1389q45 0 76 -30.5t31 -75.5t-31 -75t-76 -30q-44 0 -74.5 30t-30.5 75t30.5 75.5t74.5 30.5zM418 947l-202 -947h-151l202 947h151z
M412 1389q45 0 76 -30.5t31 -75.5t-31 -75t-76 -30q-44 0 -74.5 30t-30.5 75t30.5 75.5t74.5 30.5z" />
    <glyph glyph-name="Lslash" unicode="&#x141;" horiz-adv-x="1326" 
d="M696 1400l-132 -618l518 259l-38 -179l-518 -259l-96 -451h789l-33 -152h-952l109 511l-245 -122l38 179l245 122l151 710h164z" />
    <glyph glyph-name="lslash" unicode="&#x142;" horiz-adv-x="652" 
d="M598 1440l-118 -553l240 140l-35 -164l-240 -140l-153 -723h-151l132 622l-219 -128l35 164l219 128l139 654h151z" />
    <glyph glyph-name="OE" unicode="&#x152;" horiz-adv-x="2186" 
d="M2075 780l-32 -150h-773l-102 -479h805l-32 -151h-1142q-302 0 -475 158.5t-173 426.5q0 170 59.5 318t169.5 258.5t279.5 174.5t377.5 64h1189l-32 -151h-792l-100 -469h773zM321 600q0 -207 126.5 -327.5t369.5 -120.5h187l233 1096h-218q-165 0 -298.5 -50
t-220 -137.5t-133 -205.5t-46.5 -255z" />
    <glyph glyph-name="oe" unicode="&#x153;" horiz-adv-x="1914" 
d="M1655 219l75 -103q-84 -70 -175 -103t-207 -33q-136 0 -233.5 58.5t-144.5 160.5q-72 -102 -183 -160.5t-243 -58.5q-201 0 -328.5 126t-127.5 320q0 146 69.5 269.5t194 197t274.5 73.5q136 0 240.5 -64t157.5 -175q69 110 178 174.5t251 64.5q176 0 283 -102t107 -274
q0 -94 -29 -169h-746v-23q0 -131 78.5 -209t217.5 -78q161 0 291 108zM614 826q-158 0 -265.5 -114.5t-107.5 -276.5q0 -137 87.5 -225.5t224.5 -88.5q160 0 268.5 114.5t108.5 275.5q0 138 -88.5 226.5t-227.5 88.5zM1446 833q-72 0 -133.5 -24t-104.5 -66t-72.5 -92
t-46.5 -109h603q3 22 3 44q0 115 -68 181t-181 66z" />
    <glyph glyph-name="Scaron" unicode="&#x160;" horiz-adv-x="1324" 
d="M1307 1256l-90 -130q-197 141 -448 141q-92 0 -163 -23t-111.5 -62t-61 -84t-20.5 -94q0 -88 65 -141t198 -76l119 -21q401 -71 401 -353q0 -189 -153 -311t-414 -122q-129 0 -284.5 45t-270.5 144l96 130q91 -85 225 -125.5t241 -40.5q180 0 286 74t106 188
q0 86 -71.5 139t-216.5 78l-122 21q-179 31 -277 119.5t-98 230.5q0 83 33 159.5t96.5 139t168.5 100t238 37.5q306 0 528 -163zM547 1794h157l129 -198l210 198h168l-288 -288h-200z" />
    <glyph glyph-name="scaron" unicode="&#x161;" horiz-adv-x="953" 
d="M922 860l-78 -114q-55 38 -142.5 63.5t-170.5 25.5q-100 0 -163.5 -36t-70.5 -100q-8 -66 34.5 -100.5t133.5 -48.5l85 -13q153 -24 224 -95.5t58 -180.5q-14 -127 -124.5 -203t-282.5 -76q-109 0 -222 35t-191 95l83 111q141 -111 328 -111q111 0 179.5 38t76.5 109
q6 58 -36 94.5t-134 49.5l-87 13q-154 23 -223 95t-57 180q16 130 121 202t269 72q118 0 219 -28.5t171 -76.5zM318 1379h157l129 -198l210 198h168l-288 -288h-200z" />
    <glyph glyph-name="Ydieresis" unicode="&#x178;" horiz-adv-x="1274" 
d="M1458 1400l-717 -815l-124 -585h-164l127 601l-370 799h173l303 -657l569 657h203zM661 1758q44 0 75 -31t31 -76t-30.5 -75t-75.5 -30t-75.5 30t-30.5 75t30.5 76t75.5 31zM1067 1758q44 0 75 -31t31 -76t-30.5 -75t-75.5 -30t-75 30t-30 75t30 76t75 31z" />
    <glyph glyph-name="Zcaron" unicode="&#x17d;" horiz-adv-x="1305" 
d="M1369 1400l-27 -128l-1049 -1120h848l-33 -152h-1062l29 135l1046 1113h-840l32 152h1056zM552 1794h157l129 -198l210 198h168l-288 -288h-200z" />
    <glyph glyph-name="zcaron" unicode="&#x17e;" horiz-adv-x="1017" 
d="M993 947l-25 -113l-708 -699h585l-28 -135h-788l24 117l714 695h-579l29 135h776zM333 1379h157l129 -198l210 198h168l-288 -288h-200z" />
    <glyph glyph-name="longs" unicode="&#x17f;" horiz-adv-x="632" 
d="M884 1380l-73 -116q-73 55 -166 55q-73 0 -125.5 -51t-74.5 -153l-237 -1115h-151l242 1135q33 157 121.5 240.5t225.5 83.5q142 0 238 -79z" />
    <glyph glyph-name="florin" unicode="&#x192;" horiz-adv-x="1400" 
d="M1136 793l-28 -136h-297l-79 -355q-36 -164 -111 -242t-209 -78q-125 0 -216 65l66 120q64 -50 149 -50q71 0 112.5 46t62.5 140l79 354h-275l29 136h277l68 305q36 164 111 242t209 78q126 0 215 -65l-66 -120q-64 50 -149 50q-71 0 -112.5 -46t-62.5 -140l-68 -304h295
z" />
    <glyph glyph-name="uni0237" unicode="&#x237;" horiz-adv-x="491" 
d="M425 947l-236 -1109q-26 -125 -99 -189t-178 -64q-87 0 -151 40l55 123q37 -22 87 -22q52 0 89 33.5t51 97.5l231 1090h151z" />
    <glyph glyph-name="uni02BB" unicode="&#x2bb;" horiz-adv-x="483" 
d="M399 933h-174l203 507h138z" />
    <glyph glyph-name="uni02BC" unicode="&#x2bc;" horiz-adv-x="483" 
d="M387 1440h174l-203 -507h-138z" />
    <glyph glyph-name="circumflex" unicode="&#x2c6;" horiz-adv-x="939" 
d="M927 1093h-157l-130 197l-209 -197h-168l288 288h200z" />
    <glyph glyph-name="caron" unicode="&#x2c7;" horiz-adv-x="939" 
d="M314 1379h157l129 -198l210 198h168l-288 -288h-200z" />
    <glyph glyph-name="breve" unicode="&#x2d8;" horiz-adv-x="939" 
d="M319 1366l121 37q7 -95 55.5 -143t127.5 -48q152 0 245 191l119 -37q-134 -280 -377 -280q-126 0 -204.5 72.5t-86.5 207.5z" />
    <glyph glyph-name="dotaccent" unicode="&#x2d9;" horiz-adv-x="549" 
d="M445 1389q45 0 76 -30.5t31 -75.5t-31 -75t-76 -30q-44 0 -74.5 30t-30.5 75t30.5 75.5t74.5 30.5z" />
    <glyph glyph-name="ring" unicode="&#x2da;" horiz-adv-x="939" 
d="M644 1072q-93 0 -160 66t-67 159q0 92 67 158t160 66q94 0 161 -66t67 -158q0 -93 -67 -159t-161 -66zM644 1167q53 0 90.5 38t37.5 92t-37.5 91.5t-90.5 37.5t-90 -37.5t-37 -91.5q0 -55 37 -92.5t90 -37.5z" />
    <glyph glyph-name="ogonek" unicode="&#x2db;" horiz-adv-x="1088" 
d="M814 -237l67 -100q-93 -78 -216 -78q-117 0 -188.5 55.5t-71.5 141.5q0 97 81 169.5t282 132.5l15 -45q-230 -101 -230 -230q0 -43 32.5 -69.5t88.5 -26.5q73 0 140 50z" />
    <glyph glyph-name="tilde" unicode="&#x2dc;" horiz-adv-x="939" 
d="M372 1148l-85 89q53 56 106 82t121 26q47 0 87 -12.5t63 -27t51.5 -27t54.5 -12.5q68 0 141 68l85 -89q-53 -56 -106.5 -82t-120.5 -26q-46 0 -86 12.5t-63 27.5t-52 27.5t-56 12.5q-68 0 -140 -69z" />
    <glyph glyph-name="hungarumlaut" unicode="&#x2dd;" horiz-adv-x="939" 
d="M757 1092h-155l248 300h179zM415 1092h-157l233 300h174z" />
    <glyph glyph-name="gravecomb" unicode="&#x300;" horiz-adv-x="1" 
d="M-514 1092l-251 300h189l210 -300h-148z" />
    <glyph glyph-name="acutecomb" unicode="&#x301;" horiz-adv-x="1" 
d="M-474 1092h-153l241 300h194z" />
    <glyph glyph-name="uni0302" unicode="&#x302;" horiz-adv-x="1" 
d="M-168 1093h-157l-130 197l-209 -197h-168l288 288h200z" />
    <glyph glyph-name="tildecomb" unicode="&#x303;" horiz-adv-x="1" 
d="M-750 1148l-85 89q53 56 106 82t121 26q47 0 87 -12.5t63 -27t51.5 -27t54.5 -12.5q68 0 141 68l85 -89q-53 -56 -106.5 -82t-120.5 -26q-46 0 -86 12.5t-63 27.5t-52 27.5t-56 12.5q-68 0 -140 -69z" />
    <glyph glyph-name="uni0304" unicode="&#x304;" horiz-adv-x="1" 
d="M-774 1175l25 121h598l-25 -121h-598z" />
    <glyph glyph-name="uni0306" unicode="&#x306;" horiz-adv-x="1" 
d="M-786 1366l121 37q7 -95 55.5 -143t127.5 -48q152 0 245 191l119 -37q-134 -280 -377 -280q-126 0 -204.5 72.5t-86.5 207.5z" />
    <glyph glyph-name="uni0307" unicode="&#x307;" horiz-adv-x="1" 
d="M-454 1389q45 0 76 -30.5t31 -75.5t-31 -75t-76 -30q-44 0 -74.5 30t-30.5 75t30.5 75.5t74.5 30.5z" />
    <glyph glyph-name="uni0308" unicode="&#x308;" horiz-adv-x="1" 
d="M-666 1343q44 0 75 -31t31 -76t-30.5 -75t-75.5 -30t-75.5 30t-30.5 75t30.5 76t75.5 31zM-260 1343q44 0 75 -31t31 -76t-30.5 -75t-75.5 -30t-75 30t-30 75t30 76t75 31z" />
    <glyph glyph-name="uni030A" unicode="&#x30a;" horiz-adv-x="1" 
d="M-487 1072q-93 0 -160 66t-67 159q0 92 67 158t160 66q94 0 161 -66t67 -158q0 -93 -67 -159t-161 -66zM-487 1167q53 0 90.5 38t37.5 92t-37.5 91.5t-90.5 37.5t-90 -37.5t-37 -91.5q0 -55 37 -92.5t90 -37.5z" />
    <glyph glyph-name="uni030B" unicode="&#x30b;" horiz-adv-x="1" 
d="M-267 1092h-155l248 300h179zM-609 1092h-157l233 300h174z" />
    <glyph glyph-name="uni030C" unicode="&#x30c;" horiz-adv-x="1" 
d="M-772 1379h157l129 -198l210 198h168l-288 -288h-200z" />
    <glyph glyph-name="uni0326" unicode="&#x326;" horiz-adv-x="1" 
d="M-636 -88h167l-141 -350h-142z" />
    <glyph glyph-name="uni0327" unicode="&#x327;" horiz-adv-x="1" 
d="M-377 5l-165 -328h-168l179 329z" />
    <glyph glyph-name="uni0328" unicode="&#x328;" horiz-adv-x="1" 
d="M-373 -237l67 -100q-93 -78 -216 -78q-117 0 -188.5 55.5t-71.5 141.5q0 97 81 169.5t282 132.5l15 -45q-230 -101 -230 -230q0 -43 32.5 -69.5t88.5 -26.5q73 0 140 50z" />
    <glyph glyph-name="uni0335" unicode="&#x335;" horiz-adv-x="1" 
d="M-218 597l-28 -136h-706l27 136h707z" />
    <glyph glyph-name="uni0336" unicode="&#x336;" horiz-adv-x="1" 
d="M165 597l-27 -136h-1472l28 136h1471z" />
    <glyph glyph-name="uni0394" unicode="&#x394;" horiz-adv-x="1404" 
d="M999 1402l254 -1278l-26 -124h-1250l26 124l798 1278h198zM1086 152l-213 1088l-676 -1088h889z" />
    <glyph glyph-name="uni03A9" unicode="&#x3a9;" horiz-adv-x="1711" 
d="M1604 152l-32 -152h-596l28 136q204 52 329.5 226t125.5 394q0 225 -146.5 368t-375.5 143q-126 0 -238 -49.5t-191 -133t-124.5 -198.5t-45.5 -243q0 -186 95.5 -319.5t257.5 -182.5l-29 -141h-601l32 152h353q-130 81 -202.5 212t-72.5 294q0 156 59 296.5t160.5 242.5
t245.5 162t307 60q197 0 353.5 -82t244.5 -230t88 -336q0 -197 -89.5 -358t-260.5 -261h325z" />
    <glyph glyph-name="uni03BC" unicode="&#x3bc;" horiz-adv-x="1180" 
d="M121 -400h-151l288 1347h150l-114 -535q-10 -47 -10 -82q0 -94 57 -150.5t169 -56.5q128 0 220 80t124 228l110 516h150l-202 -947h-149l25 118q-122 -137 -313 -137q-169 0 -252 102z" />
    <glyph glyph-name="pi" unicode="&#x3c0;" horiz-adv-x="1177" 
d="M1121 947l-202 -947h-149l173 812h-556l-172 -812h-150l202 947h854z" />
    <glyph glyph-name="uni1E9E" unicode="&#x1e9e;" horiz-adv-x="1454" 
d="M73 0l198 935q45 215 201.5 349.5t391.5 134.5q183 0 324 -76t212 -206l-444 -379q188 -36 286.5 -144.5t76.5 -268.5q-23 -168 -168 -266t-345 -98q-198 0 -354 66l59 149q133 -60 295 -60q145 0 238 58t107 163q17 118 -80 196t-268 78h-87l27 125l447 385
q-58 61 -146 92.5t-190 31.5q-159 0 -274 -96t-149 -256l-194 -913h-164z" />
    <glyph glyph-name="uni2007" unicode="&#x2007;" horiz-adv-x="1410" 
 />
    <glyph glyph-name="uni2008" unicode="&#x2008;" horiz-adv-x="505" 
 />
    <glyph glyph-name="uni2009" unicode="&#x2009;" horiz-adv-x="178" 
 />
    <glyph glyph-name="uni200B" unicode="&#x200b;" horiz-adv-x="0" 
 />
    <glyph glyph-name="uni2010" unicode="&#x2010;" horiz-adv-x="816" 
d="M707 597l-29 -136h-546l29 136h546z" />
    <glyph glyph-name="uni2011" unicode="&#x2011;" horiz-adv-x="816" 
d="M707 597l-29 -136h-546l29 136h546z" />
    <glyph glyph-name="figuredash" unicode="&#x2012;" 
d="M1078 597l-28 -136h-933l28 136h933z" />
    <glyph glyph-name="endash" unicode="&#x2013;" horiz-adv-x="1164" 
d="M1074 597l-28 -136h-933l28 136h933z" />
    <glyph glyph-name="emdash" unicode="&#x2014;" horiz-adv-x="1592" 
d="M1559 597l-27 -136h-1475l27 136h1475z" />
    <glyph glyph-name="quoteleft" unicode="&#x2018;" horiz-adv-x="483" 
d="M399 933h-174l203 507h138z" />
    <glyph glyph-name="quoteright" unicode="&#x2019;" horiz-adv-x="483" 
d="M387 1440h174l-203 -507h-138z" />
    <glyph glyph-name="quotesinglbase" unicode="&#x201a;" horiz-adv-x="483" 
d="M134 248h174l-203 -507h-138z" />
    <glyph glyph-name="quotedblleft" unicode="&#x201c;" horiz-adv-x="837" 
d="M399 933h-174l203 507h138zM753 933h-174l203 507h138z" />
    <glyph glyph-name="quotedblright" unicode="&#x201d;" horiz-adv-x="837" 
d="M741 1440h174l-203 -507h-138zM387 1440h174l-203 -507h-138z" />
    <glyph glyph-name="quotedblbase" unicode="&#x201e;" horiz-adv-x="837" 
d="M488 248h174l-203 -507h-138zM134 248h174l-203 -507h-138z" />
    <glyph glyph-name="dagger" unicode="&#x2020;" horiz-adv-x="732" 
d="M470 673h-123l92 439h-207l25 120h208l44 208h123l-44 -208h208l-25 -120h-209z" />
    <glyph glyph-name="daggerdbl" unicode="&#x2021;" horiz-adv-x="733" 
d="M633 1440l-38 -180h208l-26 -120h-208l-35 -166h207l-25 -121h-208l-38 -180h-123l38 180h-208l25 121h208l35 166h-207l26 120h207l38 180h124z" />
    <glyph glyph-name="bullet" unicode="&#x2022;" horiz-adv-x="839" 
d="M436 756q93 0 160 -66.5t67 -160.5t-67 -160.5t-160 -66.5q-94 0 -160.5 66.5t-66.5 160.5q0 95 66.5 161t160.5 66z" />
    <glyph glyph-name="uni2023" unicode="&#x2023;" horiz-adv-x="1015" 
d="M868 529l-678 -349l149 698z" />
    <glyph glyph-name="ellipsis" unicode="&#x2026;" horiz-adv-x="1472" 
d="M179 233q50 0 87 -37.5t37 -87.5t-37.5 -88t-86.5 -38q-50 0 -88 38t-38 88t38 87.5t88 37.5zM662 233q50 0 87.5 -37.5t37.5 -87.5t-37.5 -88t-87.5 -38t-87.5 38t-37.5 88t37.5 87.5t87.5 37.5zM1145 233q50 0 87.5 -37.5t37.5 -87.5t-37.5 -88t-87.5 -38t-87.5 38
t-37.5 88t37.5 87.5t87.5 37.5z" />
    <glyph glyph-name="perthousand" unicode="&#x2030;" horiz-adv-x="2785" 
d="M597 1419q146 0 241 -94t95 -240q0 -160 -110.5 -274.5t-271.5 -114.5q-148 0 -243 93.5t-95 239.5q0 161 111 275.5t273 114.5zM589 1287q-102 0 -168.5 -73.5t-66.5 -176.5q0 -92 57 -150.5t146 -58.5q102 0 169 73t67 176q0 92 -57.5 151t-146.5 59zM1645 1400
l-1055 -1400h-166l1055 1400h166zM1518 703q147 0 242 -93.5t95 -239.5q0 -161 -110.5 -275.5t-272.5 -114.5q-147 0 -242 94t-95 240q0 160 110.5 274.5t272.5 114.5zM1511 571q-102 0 -169 -73t-67 -176q0 -92 57.5 -151t146.5 -59q102 0 168.5 73.5t66.5 176.5
q0 92 -57 150.5t-146 58.5zM2333 703q147 0 241.5 -93.5t94.5 -239.5q0 -161 -110.5 -275.5t-272.5 -114.5q-147 0 -242 94t-95 240q0 160 111 274.5t273 114.5zM2325 571q-102 0 -169 -73t-67 -176q0 -92 57.5 -151t146.5 -59q102 0 169 73.5t67 176.5q0 92 -57.5 150.5
t-146.5 58.5z" />
    <glyph glyph-name="minute" unicode="&#x2032;" horiz-adv-x="534" 
d="M453 1400h150l-268 -632h-150z" />
    <glyph glyph-name="second" unicode="&#x2033;" horiz-adv-x="854" 
d="M773 1400h150l-268 -632h-150zM453 1400h150l-268 -632h-150z" />
    <glyph glyph-name="uni2034" unicode="&#x2034;" horiz-adv-x="1125" 
d="M748 1400h150l-268 -632h-150zM1044 1400h150l-268 -632h-150zM453 1400h150l-268 -632h-150z" />
    <glyph glyph-name="guilsinglleft" unicode="&#x2039;" horiz-adv-x="625" 
d="M564 899l-281 -385l108 -355h-152l-113 370l271 370h167z" />
    <glyph glyph-name="guilsinglright" unicode="&#x203a;" horiz-adv-x="626" 
d="M86 159l281 385l-108 355h152l113 -370l-271 -370h-167z" />
    <glyph glyph-name="fraction" unicode="&#x2044;" horiz-adv-x="436" 
d="M828 1400l-1055 -1400h-157l1055 1400h157z" />
    <glyph glyph-name="uni2070" unicode="&#x2070;" horiz-adv-x="863" 
d="M605 1411q129 0 208 -84t79 -226q0 -86 -27.5 -172.5t-76 -159t-126 -118t-168.5 -45.5q-129 0 -208 84t-79 226q0 68 17 137.5t51 133.5t80.5 114t111.5 80t138 30zM599 1294q-80 0 -142.5 -59.5t-91.5 -142t-29 -166.5q0 -94 44.5 -149t119.5 -55q61 0 112.5 34.5
t83.5 89t49.5 118.5t17.5 126q0 95 -44 149.5t-120 54.5z" />
    <glyph glyph-name="uni2071" unicode="&#x2071;" horiz-adv-x="407" 
d="M440 1279l-140 -662h-123l140 662h123zM422 1588q35 0 59 -23.5t24 -58.5q0 -34 -24 -57.5t-59 -23.5q-34 0 -57.5 23.5t-23.5 57.5q0 35 23 58.5t58 23.5z" />
    <glyph glyph-name="uni2074" unicode="&#x2074;" horiz-adv-x="678" 
d="M651 1098l-46 -214h123l-24 -114h-123l-32 -153h-122l32 153h-356l21 97l363 532h140l-352 -515h209l46 214h121z" />
    <glyph glyph-name="uni2075" unicode="&#x2075;" horiz-adv-x="685" 
d="M741 1399l-24 -112h-320l-49 -192h77q143 0 209.5 -76t44.5 -187t-104.5 -168.5t-199.5 -57.5q-81 0 -148 30t-109 86l77 78q66 -83 185 -83q72 0 118 33.5t57 89.5q12 64 -27 105t-138 41h-175l98 413h428z" />
    <glyph glyph-name="uni2076" unicode="&#x2076;" horiz-adv-x="702" 
d="M661 1399l-233 -278q16 3 37 3q113 0 188.5 -65.5t75.5 -171.5q0 -117 -86 -198.5t-218 -81.5q-119 0 -199 67.5t-80 175.5q0 104 89 214l272 335h154zM446 1019q-76 0 -124 -47.5t-48 -115.5q0 -62 43 -101t112 -39q75 0 123.5 47.5t48.5 115.5q0 62 -44 101t-111 39z
" />
    <glyph glyph-name="uni2077" unicode="&#x2077;" horiz-adv-x="650" 
d="M790 1399l-20 -101l-430 -681h-145l429 669h-401l24 113h543z" />
    <glyph glyph-name="uni2078" unicode="&#x2078;" horiz-adv-x="750" 
d="M558 1410q105 0 179.5 -52.5t74.5 -138.5q0 -71 -48 -128t-133 -84q54 -23 85.5 -62.5t31.5 -91.5q0 -105 -89.5 -176t-237.5 -71q-114 0 -190.5 53t-76.5 141q0 74 49.5 131.5t138.5 84.5q-96 48 -96 145q0 104 85.5 176.5t226.5 72.5zM471 964q-82 0 -133.5 -40.5
t-51.5 -102.5q0 -50 42 -79t104 -29q82 0 134.5 40t52.5 102q0 49 -42 79t-106 30zM547 1301q-78 0 -125 -39t-47 -98q0 -46 36.5 -74t94.5 -28q77 0 126 39t49 97q0 48 -39 75.5t-95 27.5z" />
    <glyph glyph-name="uni2079" unicode="&#x2079;" horiz-adv-x="702" 
d="M267 617l232 278q-16 -3 -35 -3q-113 0 -188.5 65.5t-75.5 171.5q0 117 86.5 198.5t217.5 81.5q119 0 199 -67.5t80 -175.5q0 -104 -89 -214l-272 -335h-155zM484 998q75 0 123 47t48 115q0 62 -43 101t-112 39q-75 0 -123.5 -47.5t-48.5 -115.5q0 -62 44.5 -100.5
t111.5 -38.5z" />
    <glyph glyph-name="uni207F" unicode="&#x207f;" horiz-adv-x="818" 
d="M607 1292q109 0 172 -62t63 -163q0 -35 -9 -73l-81 -377h-124l80 373q6 27 6 52q0 61 -36.5 97.5t-108.5 36.5q-81 0 -140.5 -52.5t-80.5 -149.5l-75 -357h-123l140 662h121l-19 -84q82 97 215 97z" />
    <glyph glyph-name="uni2080" unicode="&#x2080;" horiz-adv-x="863" 
d="M401 423q129 0 208 -84t79 -226q0 -86 -27.5 -172.5t-76 -159t-126 -118t-168.5 -45.5q-129 0 -208 84t-79 226q0 68 17 137.5t51 133.5t80.5 114t111.5 80t138 30zM395 306q-80 0 -142.5 -59.5t-91.5 -142t-29 -166.5q0 -94 44.5 -149t119.5 -55q61 0 112.5 34.5
t83.5 89t49.5 118.5t17.5 126q0 95 -44 149.5t-120 54.5z" />
    <glyph glyph-name="uni2081" unicode="&#x2081;" horiz-adv-x="522" 
d="M373 421l-168 -792h-122l133 623l-225 -77l26 127z" />
    <glyph glyph-name="uni2082" unicode="&#x2082;" horiz-adv-x="679" 
d="M108 221l-76 75q104 126 257 126q115 0 177 -63t62 -151q0 -74 -40 -136t-130 -139l-223 -191h329l-24 -113h-508l20 97l326 278q67 57 96 100t29 88q0 48 -34 81t-95 33q-92 0 -166 -85z" />
    <glyph glyph-name="uni2083" unicode="&#x2083;" horiz-adv-x="675" 
d="M82 230l-62 85q102 107 260 107q109 0 176.5 -55t67.5 -137q0 -69 -45.5 -127.5t-123.5 -84.5q51 -21 79 -61.5t28 -93.5q0 -103 -81 -174t-221 -71q-175 0 -252 104l81 76q59 -70 173 -70q86 0 131 39.5t45 98.5q0 48 -39.5 76.5t-102.5 28.5h-96l22 107h93
q82 0 131.5 40t49.5 94q0 44 -37 72t-96 28q-103 0 -181 -82z" />
    <glyph glyph-name="uni2084" unicode="&#x2084;" horiz-adv-x="678" 
d="M444 110l-46 -214h123l-24 -114h-123l-32 -153h-122l32 153h-356l21 97l363 532h140l-352 -515h209l46 214h121z" />
    <glyph glyph-name="uni2085" unicode="&#x2085;" horiz-adv-x="684" 
d="M535 411l-24 -112h-320l-49 -192h77q143 0 209.5 -76t44.5 -187t-104.5 -168.5t-199.5 -57.5q-81 0 -148 30t-109 86l77 78q66 -83 185 -83q72 0 118 33.5t57 89.5q12 64 -27 105t-138 41h-175l98 413h428z" />
    <glyph glyph-name="uni2086" unicode="&#x2086;" horiz-adv-x="703" 
d="M455 411l-233 -278q17 3 37 3q113 0 188.5 -65.5t75.5 -171.5q0 -117 -86 -198.5t-218 -81.5q-119 0 -199 67.5t-80 175.5q0 104 89 214l272 335h154zM240 31q-76 0 -124 -47.5t-48 -115.5q0 -62 43 -101t112 -39q75 0 123.5 47.5t48.5 115.5q0 62 -44 101t-111 39z" />
    <glyph glyph-name="uni2087" unicode="&#x2087;" horiz-adv-x="649" 
d="M583 411l-20 -101l-430 -681h-145l429 669h-401l24 113h543z" />
    <glyph glyph-name="uni2088" unicode="&#x2088;" horiz-adv-x="750" 
d="M353 422q105 0 179.5 -52.5t74.5 -138.5q0 -71 -48 -128t-133 -84q54 -23 85.5 -62.5t31.5 -91.5q0 -105 -89.5 -176t-237.5 -71q-114 0 -190.5 53t-76.5 141q0 74 49.5 131.5t138.5 84.5q-96 48 -96 145q0 104 85.5 176.5t226.5 72.5zM266 -24q-82 0 -133.5 -40.5
t-51.5 -102.5q0 -50 42 -79t104 -29q82 0 134.5 40t52.5 102q0 49 -42 79t-106 30zM342 313q-78 0 -125 -39t-47 -98q0 -46 36.5 -74t94.5 -28q77 0 126 39t49 97q0 48 -39 75.5t-95 27.5z" />
    <glyph glyph-name="uni2089" unicode="&#x2089;" horiz-adv-x="703" 
d="M54 -371l232 278q-16 -3 -35 -3q-113 0 -188.5 65.5t-75.5 171.5q0 117 86.5 198.5t217.5 81.5q119 0 199 -67.5t80 -175.5q0 -104 -89 -214l-272 -335h-155zM271 10q75 0 123 47t48 115q0 62 -43 101t-112 39q-75 0 -123.5 -47.5t-48.5 -115.5q0 -62 44.5 -100.5
t111.5 -38.5z" />
    <glyph glyph-name="Euro" unicode="&#x20ac;" horiz-adv-x="1400" 
d="M1207 332l92 -98q-81 -117 -200.5 -182t-263.5 -65q-217 0 -366 130t-179 365h-189l25 124h157q0 61 9 127q6 46 11 69h-139l25 124h146q75 229 244.5 359.5t397.5 130.5q310 0 479 -247l-115 -98q-133 203 -373 203q-162 0 -285 -91.5t-186 -256.5h646l-27 -124h-654
q-10 -50 -13 -76q-8 -57 -8 -120h634l-26 -124h-598q30 -170 137 -261.5t255 -91.5q113 0 208 55t156 148z" />
    <glyph glyph-name="uni20BA" unicode="&#x20ba;" horiz-adv-x="1400" 
d="M1126 433l127 -67q-34 -84 -82 -148t-103 -105t-123 -66.5t-136.5 -36t-147.5 -10.5h-403l72 339l-212 -94l29 141l213 94l43 202l-213 -94l28 141l215 95l123 576h155l-106 -500l508 225l-28 -141l-510 -226l-43 -202l509 226l-28 -142l-511 -226l-57 -265h232
q77 0 139 13t121.5 44t107 88t81.5 139z" />
    <glyph glyph-name="uni2100" unicode="&#x2100;" horiz-adv-x="1909" 
d="M643 1419q124 0 194.5 -61t70.5 -167q0 -33 -8 -75l-79 -372h-121l15 72q-93 -86 -216 -86q-97 0 -157 50t-60 132q0 97 74.5 158.5t213.5 61.5h209q5 27 5 45q0 64 -42 98.5t-121 34.5q-95 0 -198 -62l-34 100q117 71 254 71zM534 833q114 0 203 92l23 116h-180
q-83 0 -125 -33t-42 -82q0 -43 32.5 -68t88.5 -25zM1649 1400l-1055 -1400h-157l1055 1400h157zM1777 529l-102 -62q-62 85 -171 85q-102 0 -171.5 -74t-69.5 -178q0 -89 55 -146.5t139 -57.5q101 0 171 72l79 -77q-101 -110 -255 -110q-140 0 -227.5 88t-87.5 223
q0 155 106 265t266 110q185 0 268 -138z" />
    <glyph glyph-name="uni2101" unicode="&#x2101;" horiz-adv-x="1909" 
d="M632 1419q124 0 194.5 -61t70.5 -167q0 -33 -8 -75l-79 -372h-121l15 72q-93 -86 -216 -86q-97 0 -157 50t-60 132q0 97 74.5 158.5t213.5 61.5h209q5 27 5 45q0 64 -42 98.5t-121 34.5q-95 0 -198 -62l-34 100q117 71 254 71zM523 833q114 0 203 92l23 116h-180
q-83 0 -125 -33t-42 -82q0 -43 32.5 -68t88.5 -25zM1636 1400l-1055 -1400h-157l1055 1400h157zM1745 593l-58 -92q-42 28 -103.5 45t-115.5 17q-64 0 -104 -22.5t-45 -62.5q-5 -41 23 -62.5t92 -32.5l58 -10q105 -18 153 -68t39 -126q-10 -93 -88 -146t-201 -53
q-79 0 -159 24.5t-133 66.5l61 91q105 -78 232 -78q71 0 114 23.5t48 68.5q4 38 -24 60.5t-91 32.5l-58 9q-109 17 -155.5 68t-37.5 128q11 92 85.5 143t191.5 51q161 0 276 -75z" />
    <glyph glyph-name="uni2105" unicode="&#x2105;" horiz-adv-x="1909" 
d="M882 1280l-102 -62q-62 85 -171 85q-102 0 -171.5 -74t-69.5 -178q0 -89 55 -146.5t139 -57.5q101 0 171 72l79 -77q-101 -110 -255 -110q-140 0 -227.5 88t-87.5 223q0 155 106 265t266 110q185 0 268 -138zM1578 1400l-1055 -1400h-157l1055 1400h157zM1443 668
q140 0 230.5 -88t90.5 -224q0 -156 -108.5 -266.5t-267.5 -110.5q-141 0 -231.5 87.5t-90.5 225.5q0 156 108.5 266t268.5 110zM1433 553q-101 0 -170.5 -74.5t-69.5 -179.5q0 -89 56.5 -146.5t145.5 -57.5q103 0 173 74.5t70 179.5q0 89 -57.5 146.5t-147.5 57.5z" />
    <glyph glyph-name="uni2106" unicode="&#x2106;" horiz-adv-x="1909" 
d="M886 1280l-102 -62q-62 85 -171 85q-102 0 -171.5 -74t-69.5 -178q0 -89 55 -146.5t139 -57.5q101 0 171 72l79 -77q-101 -110 -255 -110q-140 0 -227.5 88t-87.5 223q0 155 106 265t266 110q185 0 268 -138zM1574 1400l-1055 -1400h-157l1055 1400h157zM1804 661
l-83 -390q-30 -144 -123 -214.5t-221 -70.5q-116 0 -189 62t-73 173q0 36 9 78l77 362h124l-80 -371q-6 -30 -6 -54q0 -66 41 -100t109 -34q79 0 136 49.5t77 142.5l78 367h124z" />
    <glyph glyph-name="uni2113" unicode="&#x2113;" horiz-adv-x="1072" 
d="M225 378l-54 128q94 38 162 76l1 505q1 163 84.5 267.5t223.5 104.5q132 0 214.5 -86t82.5 -221q0 -188 -123.5 -352t-333.5 -292v-175q0 -107 48.5 -159.5t131.5 -52.5q107 0 201 72l60 -119q-122 -94 -273 -94q-152 0 -234.5 88t-82.5 263v95q-54 -26 -108 -48z
M483 1087l-1 -413q144 103 224 224.5t80 253.5q0 78 -38.5 122.5t-105.5 44.5q-71 0 -115 -62.5t-44 -169.5z" />
    <glyph glyph-name="uni2116" unicode="&#x2116;" horiz-adv-x="2363" 
d="M2314 579l-29 -135h-664l29 135h664zM2083 1413q145 0 237.5 -88t92.5 -227q0 -152 -107.5 -260t-265.5 -108q-145 0 -237 88.5t-92 224.5q0 152 106.5 261t265.5 109zM2077 1299q-104 0 -172.5 -73t-68.5 -175q0 -91 58.5 -149t150.5 -58q105 0 174 72.5t69 175.5
q0 91 -59 149t-152 58zM1553 1400l-299 -1400h-149l-605 1147l-245 -1147h-163l298 1400h151l604 -1147l244 1147h164z" />
    <glyph glyph-name="uni2117" unicode="&#x2117;" horiz-adv-x="1892" 
d="M940 -90q-152 0 -291 56t-241.5 153.5t-163 236.5t-60.5 296q0 164 67.5 319.5t182 273t277 188.5t341.5 71q152 0 291 -56t241.5 -153.5t163 -236.5t60.5 -296q0 -164 -67.5 -319.5t-182 -273t-277 -188.5t-341.5 -71zM1042 1373q-150 0 -285.5 -60t-230 -158.5
t-150 -228.5t-55.5 -266q0 -132 50.5 -248t135.5 -197t200.5 -127.5t242.5 -46.5q150 0 285.5 60t230 158.5t150 228.5t55.5 266q0 132 -50.5 248t-135.5 197t-200.5 127.5t-242.5 46.5zM1128 1124q157 0 238.5 -83t54.5 -206q-25 -118 -119.5 -176.5t-242.5 -58.5h-228
l-68 -321h-133l179 845h319zM1121 1003h-204l-60 -284h202q100 0 157 30t71 99q14 70 -29.5 112.5t-136.5 42.5z" />
    <glyph glyph-name="uni2120" unicode="&#x2120;" horiz-adv-x="1454" 
d="M750 1338l-55 -85q-82 57 -194 57q-63 0 -95 -23t-32 -55q0 -58 112 -75l40 -6q83 -12 130 -51.5t47 -101.5q0 -86 -69.5 -138.5t-187.5 -52.5q-67 0 -139.5 20t-122.5 59l59 85q89 -67 209 -67q63 0 99.5 21.5t36.5 57.5q0 30 -28 47t-89 27l-41 6q-82 13 -126.5 53
t-44.5 102q0 81 64 135t179 54q146 0 248 -69zM1449 815h-107l93 443l-245 -382h-113l-84 381l-94 -442h-108l125 586h148l91 -403l261 403h158z" />
    <glyph glyph-name="trademark" unicode="&#x2122;" horiz-adv-x="1427" 
d="M1422 815h-107l93 443l-245 -382h-113l-84 381l-94 -442h-108l125 586h148l91 -403l261 403h158zM454 815h-108l103 486h-195l20 99h500l-21 -99h-196z" />
    <glyph glyph-name="Omega" unicode="&#x2126;" horiz-adv-x="1711" 
d="M1604 152l-32 -152h-596l28 136q204 52 329.5 226t125.5 394q0 225 -146.5 368t-375.5 143q-126 0 -238 -49.5t-191 -133t-124.5 -198.5t-45.5 -243q0 -186 95.5 -319.5t257.5 -182.5l-29 -141h-601l32 152h353q-130 81 -202.5 212t-72.5 294q0 156 59 296.5t160.5 242.5
t245.5 162t307 60q197 0 353.5 -82t244.5 -230t88 -336q0 -197 -89.5 -358t-260.5 -261h325z" />
    <glyph glyph-name="estimated" unicode="&#x212e;" horiz-adv-x="2000" 
d="M516 671v-345q0 -78 23.5 -133t80.5 -97q191 -141 444 -141q193 0 355.5 84t261.5 234l47 -36q-108 -161 -283 -251t-381 -90q-163 0 -309 58.5t-254 162t-171.5 255t-63.5 328.5t63.5 328.5t171.5 255t254 162t309 58.5q164 0 310 -58.5t254 -162t171 -255t63 -328.5
v-29h-1346zM516 729h1107v335q0 78 -22.5 133t-78.5 98q-195 150 -458 150q-253 0 -444 -141q-57 -42 -80.5 -97t-23.5 -133v-345z" />
    <glyph glyph-name="uni214D" unicode="&#x214d;" horiz-adv-x="1909" 
d="M750 1400l132 -729h-125l-30 179h-323l-104 -179h-136l439 729h147zM1787 651l-65 -98q-51 38 -115 55t-118 17q-76 0 -116 -31t-40 -73q0 -40 35.5 -63t102.5 -35l48 -9q208 -38 208 -186q0 -106 -83.5 -172.5t-226.5 -66.5q-81 0 -167 24.5t-146 73.5l69 99
q110 -84 253 -84q78 0 122 30.5t44 77.5q0 39 -34 60.5t-107 34.5l-49 9q-99 18 -151 65.5t-52 123.5q0 100 76.5 167.5t213.5 67.5q175 0 298 -87zM655 1279l-185 -316h238zM1665 1400l-1055 -1400h-157l1055 1400h157z" />
    <glyph glyph-name="uni2150" unicode="&#x2150;" horiz-adv-x="1649" 
d="M1369 1400l-1055 -1400h-157l1055 1400h157zM1656 782l-20 -101l-430 -681h-145l429 669h-401l24 113h543zM580 1409l-168 -792h-122l133 623l-225 -77l26 127z" />
    <glyph glyph-name="uni2151" unicode="&#x2151;" horiz-adv-x="1680" 
d="M1369 1400l-1055 -1400h-157l1055 1400h157zM1114 0l232 278q-16 -3 -35 -3q-113 0 -188.5 65.5t-75.5 171.5q0 117 86.5 198.5t217.5 81.5q119 0 199 -67.5t80 -175.5q0 -104 -89 -214l-272 -335h-155zM1331 381q75 0 123 47t48 115q0 62 -43 101t-112 39
q-75 0 -123.5 -47.5t-48.5 -115.5q0 -62 44.5 -100.5t111.5 -38.5zM580 1409l-168 -792h-122l133 623l-225 -77l26 127z" />
    <glyph glyph-name="uni2152" unicode="&#x2152;" horiz-adv-x="2376" 
d="M1369 1400l-1055 -1400h-157l1055 1400h157zM1432 792l-168 -792h-122l133 623l-225 -77l26 127zM1986 794q129 0 208 -84t79 -226q0 -86 -27.5 -172.5t-76 -159t-126 -118t-168.5 -45.5q-129 0 -208 84t-79 226q0 68 17 137.5t51 133.5t80.5 114t111.5 80t138 30z
M1980 677q-80 0 -142.5 -59.5t-91.5 -142t-29 -166.5q0 -94 44.5 -149t119.5 -55q61 0 112.5 34.5t83.5 89t49.5 118.5t17.5 126q0 95 -44 149.5t-120 54.5zM580 1409l-168 -792h-122l133 623l-225 -77l26 127z" />
    <glyph glyph-name="onethird" unicode="&#x2153;" horiz-adv-x="1649" 
d="M1369 1400l-1055 -1400h-157l1055 1400h157zM1134 601l-62 85q102 107 260 107q109 0 176.5 -55t67.5 -137q0 -69 -45.5 -127.5t-123.5 -84.5q51 -21 79 -61.5t28 -93.5q0 -103 -81 -174t-221 -71q-175 0 -252 104l81 76q59 -70 173 -70q86 0 131 39.5t45 98.5
q0 48 -39.5 76.5t-102.5 28.5h-96l22 107h93q82 0 131.5 40t49.5 94q0 44 -37 72t-96 28q-103 0 -181 -82zM580 1409l-168 -792h-122l133 623l-225 -77l26 127z" />
    <glyph glyph-name="twothirds" unicode="&#x2154;" horiz-adv-x="1829" 
d="M1549 1400l-1055 -1400h-157l1055 1400h157zM1314 601l-62 85q102 107 260 107q109 0 176.5 -55t67.5 -137q0 -69 -45.5 -127.5t-123.5 -84.5q51 -21 79 -61.5t28 -93.5q0 -103 -81 -174t-221 -71q-175 0 -252 104l81 76q59 -70 173 -70q86 0 131 39.5t45 98.5
q0 48 -39.5 76.5t-102.5 28.5h-96l22 107h93q82 0 131.5 40t49.5 94q0 44 -37 72t-96 28q-103 0 -181 -82zM314 1209l-76 75q104 126 257 126q115 0 177 -63t62 -151q0 -74 -40 -136t-130 -139l-223 -191h329l-24 -113h-508l20 97l326 278q67 57 96 100t29 88q0 48 -34 81
t-95 33q-92 0 -166 -85z" />
    <glyph glyph-name="uni2155" unicode="&#x2155;" horiz-adv-x="1664" 
d="M1369 1400l-1055 -1400h-157l1055 1400h157zM1586 782l-24 -112h-320l-49 -192h77q143 0 209.5 -76t44.5 -187t-104.5 -168.5t-199.5 -57.5q-81 0 -148 30t-109 86l77 78q66 -83 185 -83q72 0 118 33.5t57 89.5q12 64 -27 105t-138 41h-175l98 413h428zM580 1409
l-168 -792h-122l133 623l-225 -77l26 127z" />
    <glyph glyph-name="uni2156" unicode="&#x2156;" horiz-adv-x="1843" 
d="M1549 1400l-1055 -1400h-157l1055 1400h157zM1766 782l-24 -112h-320l-49 -192h77q143 0 209.5 -76t44.5 -187t-104.5 -168.5t-199.5 -57.5q-81 0 -148 30t-109 86l77 78q66 -83 185 -83q72 0 118 33.5t57 89.5q12 64 -27 105t-138 41h-175l98 413h428zM314 1209l-76 75
q104 126 257 126q115 0 177 -63t62 -151q0 -74 -40 -136t-130 -139l-223 -191h329l-24 -113h-508l20 97l326 278q67 57 96 100t29 88q0 48 -34 81t-95 33q-92 0 -166 -85z" />
    <glyph glyph-name="uni2157" unicode="&#x2157;" horiz-adv-x="1794" 
d="M1500 1400l-1055 -1400h-157l1055 1400h157zM1717 782l-24 -112h-320l-49 -192h77q143 0 209.5 -76t44.5 -187t-104.5 -168.5t-199.5 -57.5q-81 0 -148 30t-109 86l77 78q66 -83 185 -83q72 0 118 33.5t57 89.5q12 64 -27 105t-138 41h-175l98 413h428zM289 1218l-62 85
q102 107 260 107q109 0 176.5 -55t67.5 -137q0 -69 -45.5 -127.5t-123.5 -84.5q51 -21 79 -61.5t28 -93.5q0 -103 -81 -174t-221 -71q-175 0 -252 104l81 76q59 -70 173 -70q86 0 131 39.5t45 98.5q0 48 -39.5 76.5t-102.5 28.5h-96l22 107h93q82 0 131.5 40t49.5 94
q0 44 -37 72t-96 28q-103 0 -181 -82z" />
    <glyph glyph-name="uni2158" unicode="&#x2158;" horiz-adv-x="1821" 
d="M1527 1400l-1055 -1400h-157l1055 1400h157zM1743 782l-24 -112h-320l-49 -192h77q143 0 209.5 -76t44.5 -187t-104.5 -168.5t-199.5 -57.5q-81 0 -148 30t-109 86l77 78q66 -83 185 -83q72 0 118 33.5t57 89.5q12 64 -27 105t-138 41h-175l98 413h428zM651 1098
l-46 -214h123l-24 -114h-123l-32 -153h-122l32 153h-356l21 97l363 532h140l-352 -515h209l46 214h121z" />
    <glyph glyph-name="uni2159" unicode="&#x2159;" horiz-adv-x="1588" 
d="M1369 1400l-1055 -1400h-157l1055 1400h157zM1415 782l-233 -278q16 3 37 3q113 0 188.5 -65.5t75.5 -171.5q0 -117 -86 -198.5t-218 -81.5q-119 0 -199 67.5t-80 175.5q0 104 89 214l272 335h154zM1200 402q-76 0 -124 -47.5t-48 -115.5q0 -62 43 -101t112 -39
q75 0 123.5 47.5t48.5 115.5q0 62 -44 101t-111 39zM580 1409l-168 -792h-122l133 623l-225 -77l26 127z" />
    <glyph glyph-name="uni215A" unicode="&#x215a;" horiz-adv-x="1733" 
d="M1514 1400l-1055 -1400h-157l1055 1400h157zM1560 782l-233 -278q16 3 37 3q113 0 188.5 -65.5t75.5 -171.5q0 -117 -86 -198.5t-218 -81.5q-119 0 -199 67.5t-80 175.5q0 104 89 214l272 335h154zM1345 402q-76 0 -124 -47.5t-48 -115.5q0 -62 43 -101t112 -39
q75 0 123.5 47.5t48.5 115.5q0 62 -44 101t-111 39zM741 1399l-24 -112h-320l-49 -192h77q143 0 209.5 -76t44.5 -187t-104.5 -168.5t-199.5 -57.5q-81 0 -148 30t-109 86l77 78q66 -83 185 -83q72 0 118 33.5t57 89.5q12 64 -27 105t-138 41h-175l98 413h428z" />
    <glyph glyph-name="oneeighth" unicode="&#x215b;" horiz-adv-x="1698" 
d="M1369 1400l-1055 -1400h-157l1055 1400h157zM1374 793q105 0 179.5 -52.5t74.5 -138.5q0 -71 -48 -128t-133 -84q54 -23 85.5 -62.5t31.5 -91.5q0 -105 -89.5 -176t-237.5 -71q-114 0 -190.5 53t-76.5 141q0 74 49.5 131.5t138.5 84.5q-96 48 -96 145q0 104 85.5 176.5
t226.5 72.5zM1287 347q-82 0 -133.5 -40.5t-51.5 -102.5q0 -50 42 -79t104 -29q82 0 134.5 40t52.5 102q0 49 -42 79t-106 30zM1363 684q-78 0 -125 -39t-47 -98q0 -46 36.5 -74t94.5 -28q77 0 126 39t49 97q0 48 -39 75.5t-95 27.5zM580 1409l-168 -792h-122l133 623
l-225 -77l26 127z" />
    <glyph glyph-name="threeeighths" unicode="&#x215c;" horiz-adv-x="1828" 
d="M1500 1400l-1055 -1400h-157l1055 1400h157zM1505 793q105 0 179.5 -52.5t74.5 -138.5q0 -71 -48 -128t-133 -84q54 -23 85.5 -62.5t31.5 -91.5q0 -105 -89.5 -176t-237.5 -71q-114 0 -190.5 53t-76.5 141q0 74 49.5 131.5t138.5 84.5q-96 48 -96 145q0 104 85.5 176.5
t226.5 72.5zM1418 347q-82 0 -133.5 -40.5t-51.5 -102.5q0 -50 42 -79t104 -29q82 0 134.5 40t52.5 102q0 49 -42 79t-106 30zM1494 684q-78 0 -125 -39t-47 -98q0 -46 36.5 -74t94.5 -28q77 0 126 39t49 97q0 48 -39 75.5t-95 27.5zM289 1218l-62 85q102 107 260 107
q109 0 176.5 -55t67.5 -137q0 -69 -45.5 -127.5t-123.5 -84.5q51 -21 79 -61.5t28 -93.5q0 -103 -81 -174t-221 -71q-175 0 -252 104l81 76q59 -70 173 -70q86 0 131 39.5t45 98.5q0 48 -39.5 76.5t-102.5 28.5h-96l22 107h93q82 0 131.5 40t49.5 94q0 44 -37 72t-96 28
q-103 0 -181 -82z" />
    <glyph glyph-name="fiveeighths" unicode="&#x215d;" horiz-adv-x="1842" 
d="M1514 1400l-1055 -1400h-157l1055 1400h157zM1519 793q105 0 179.5 -52.5t74.5 -138.5q0 -71 -48 -128t-133 -84q54 -23 85.5 -62.5t31.5 -91.5q0 -105 -89.5 -176t-237.5 -71q-114 0 -190.5 53t-76.5 141q0 74 49.5 131.5t138.5 84.5q-96 48 -96 145q0 104 85.5 176.5
t226.5 72.5zM1432 347q-82 0 -133.5 -40.5t-51.5 -102.5q0 -50 42 -79t104 -29q82 0 134.5 40t52.5 102q0 49 -42 79t-106 30zM1508 684q-78 0 -125 -39t-47 -98q0 -46 36.5 -74t94.5 -28q77 0 126 39t49 97q0 48 -39 75.5t-95 27.5zM741 1399l-24 -112h-320l-49 -192h77
q143 0 209.5 -76t44.5 -187t-104.5 -168.5t-199.5 -57.5q-81 0 -148 30t-109 86l77 78q66 -83 185 -83q72 0 118 33.5t57 89.5q12 64 -27 105t-138 41h-175l98 413h428z" />
    <glyph glyph-name="seveneighths" unicode="&#x215e;" horiz-adv-x="1731" 
d="M1402 1400l-1055 -1400h-157l1055 1400h157zM1407 793q105 0 179.5 -52.5t74.5 -138.5q0 -71 -48 -128t-133 -84q54 -23 85.5 -62.5t31.5 -91.5q0 -105 -89.5 -176t-237.5 -71q-114 0 -190.5 53t-76.5 141q0 74 49.5 131.5t138.5 84.5q-96 48 -96 145q0 104 85.5 176.5
t226.5 72.5zM1320 347q-82 0 -133.5 -40.5t-51.5 -102.5q0 -50 42 -79t104 -29q82 0 134.5 40t52.5 102q0 49 -42 79t-106 30zM1396 684q-78 0 -125 -39t-47 -98q0 -46 36.5 -74t94.5 -28q77 0 126 39t49 97q0 48 -39 75.5t-95 27.5zM790 1399l-20 -101l-430 -681h-145
l429 669h-401l24 113h543z" />
    <glyph glyph-name="uni215F" unicode="&#x215f;" horiz-adv-x="977" 
d="M1369 1400l-1055 -1400h-157l1055 1400h157zM580 1409l-168 -792h-122l133 623l-225 -77l26 127z" />
    <glyph glyph-name="uni2189" unicode="&#x2189;" horiz-adv-x="1970" 
d="M1691 1400l-1055 -1400h-157l1055 1400h157zM1455 601l-62 85q102 107 260 107q109 0 176.5 -55t67.5 -137q0 -69 -45.5 -127.5t-123.5 -84.5q51 -21 79 -61.5t28 -93.5q0 -103 -81 -174t-221 -71q-175 0 -252 104l81 76q59 -70 173 -70q86 0 131 39.5t45 98.5
q0 48 -39.5 76.5t-102.5 28.5h-96l22 107h93q82 0 131.5 40t49.5 94q0 44 -37 72t-96 28q-103 0 -181 -82zM605 1411q129 0 208 -84t79 -226q0 -86 -27.5 -172.5t-76 -159t-126 -118t-168.5 -45.5q-129 0 -208 84t-79 226q0 68 17 137.5t51 133.5t80.5 114t111.5 80t138 30z
M599 1294q-80 0 -142.5 -59.5t-91.5 -142t-29 -166.5q0 -94 44.5 -149t119.5 -55q61 0 112.5 34.5t83.5 89t49.5 118.5t17.5 126q0 95 -44 149.5t-120 54.5z" />
    <glyph glyph-name="arrowleft" unicode="&#x2190;" horiz-adv-x="2000" 
d="M1823 585h-1128q-104 0 -196 6q73 -59 191 -177l287 -287l-96 -96l-621 622l621 622l96 -96l-287 -287q-118 -118 -191 -177q92 6 196 6h1128v-136z" />
    <glyph glyph-name="arrowup" unicode="&#x2191;" horiz-adv-x="2000" 
d="M1002 -77v1127q0 105 5 197q-45 -57 -177 -191l-286 -288l-96 96l622 622l622 -622l-96 -96l-287 288q-122 122 -177 191q5 -92 5 -197v-1127h-135z" />
    <glyph glyph-name="arrowright" unicode="&#x2192;" horiz-adv-x="2000" 
d="M277 721h1128q104 0 196 -6q-73 59 -191 177l-287 287l95 96l622 -622l-622 -622l-95 96l287 287q118 118 191 177q-92 -6 -196 -6h-1128v136z" />
    <glyph glyph-name="arrowdown" unicode="&#x2193;" horiz-adv-x="2000" 
d="M1084 1484v-1127q0 -105 -6 -197q55 69 177 191l287 288l96 -96l-622 -622l-622 622l96 96l287 -288q122 -122 177 -191q-6 92 -6 197v1127h136z" />
    <glyph glyph-name="uni2196" unicode="&#x2196;" horiz-adv-x="2000" 
d="M1556 62l-798 797q-56 55 -134 143q10 -97 10 -260v-406h-135v879l879 1v-136h-406q-163 0 -260 10q69 -61 142 -134l798 -798z" />
    <glyph glyph-name="uni2197" unicode="&#x2197;" horiz-adv-x="2000" 
d="M445 149l797 797q74 74 142 135q-96 -10 -260 -10h-406v135h880v-879h-136v406q0 163 11 260q-61 -69 -135 -143l-798 -797z" />
    <glyph glyph-name="uni2198" unicode="&#x2198;" horiz-adv-x="2000" 
d="M540 1254l797 -798q94 -96 135 -142q-10 97 -10 260v406h135v-880h-879v136h406q164 0 260 -11q-69 62 -142 135l-798 798z" />
    <glyph glyph-name="uni2199" unicode="&#x2199;" horiz-adv-x="2000" 
d="M1663 1147l-798 -797q-96 -94 -142 -135q97 10 260 10h406v-135h-880v879h136v-405q0 -164 -11 -261q71 79 135 143l798 798z" />
    <glyph glyph-name="partialdiff" unicode="&#x2202;" horiz-adv-x="1175" 
d="M381 1335l68 117q210 -80 357.5 -216.5t217.5 -299.5t70 -345q0 -54 -11 -138q-28 -205 -178 -338.5t-349 -133.5q-205 0 -337 125.5t-132 315.5q0 140 68 260t186 191.5t257 71.5q111 0 200 -46t144 -129q-42 182 -188 330.5t-373 234.5zM614 804q-88 0 -161 -34.5
t-117.5 -89.5t-69 -120t-24.5 -130q0 -135 90.5 -222t233.5 -87q88 0 161 34t118 88.5t69.5 119.5t24.5 131q0 137 -91 223.5t-234 86.5z" />
    <glyph glyph-name="uni2300" unicode="&#x2205;" horiz-adv-x="1371" 
d="M1113 1033l95 -96l-127 -128q97 -129 97 -289q0 -98 -38.5 -187t-103 -153.5t-153.5 -103t-187 -38.5q-161 0 -290 97l-127 -128l-95 96l126 127q-97 129 -97 290q0 198 142 340.5t341 142.5q159 0 289 -98zM349 520q0 -110 62 -199l482 483q-90 63 -197 63
q-144 0 -245.5 -102t-101.5 -245zM696 174q143 0 245 101.5t102 244.5q0 107 -63 197l-481 -482q88 -61 197 -61z" />
    <glyph glyph-name="uni2300" unicode="&#x2300;" horiz-adv-x="1371" 
d="M1113 1033l95 -96l-127 -128q97 -129 97 -289q0 -98 -38.5 -187t-103 -153.5t-153.5 -103t-187 -38.5q-161 0 -290 97l-127 -128l-95 96l126 127q-97 129 -97 290q0 198 142 340.5t341 142.5q159 0 289 -98zM349 520q0 -110 62 -199l482 483q-90 63 -197 63
q-144 0 -245.5 -102t-101.5 -245zM696 174q143 0 245 101.5t102 244.5q0 107 -63 197l-481 -482q88 -61 197 -61z" />
    <glyph glyph-name="Delta" unicode="&#x2206;" horiz-adv-x="1404" 
d="M999 1402l254 -1278l-26 -124h-1250l26 124l798 1278h198zM1086 152l-213 1088l-676 -1088h889z" />
    <glyph glyph-name="product" unicode="&#x220f;" horiz-adv-x="1802" 
d="M1453 1400v-1665h-161v1513h-741v-1513h-161v1665h1063z" />
    <glyph glyph-name="summation" unicode="&#x2211;" horiz-adv-x="1634" 
d="M1358 1400v-152h-830l554 -625v-89l-558 -647h837v-152h-1072v125l622 715l-618 700v125h1065z" />
    <glyph glyph-name="minus" unicode="&#x2212;" 
d="M1049 597l-28 -136h-870l28 136h870z" />
    <glyph glyph-name="uni2219" unicode="&#x2219;" 
d="M600 756q93 0 160 -66.5t67 -160.5t-67 -160.5t-160 -66.5q-94 0 -160.5 66.5t-66.5 160.5q0 95 66.5 161t160.5 66z" />
    <glyph glyph-name="radical" unicode="&#x221a;" horiz-adv-x="1092" 
d="M1255 1440l-573 -1705h-200l-400 1000h177l322 -811l510 1516h164z" />
    <glyph glyph-name="infinity" unicode="&#x221e;" horiz-adv-x="1660" 
d="M71 520q0 169 105.5 273.5t256.5 104.5q46 0 90 -15t77 -34t80.5 -62.5t74.5 -72.5t85 -93q58 64 85 93t74.5 72.5t80.5 62.5t77 34t90 15q151 0 256.5 -104.5t105.5 -273.5t-105.5 -273.5t-256.5 -104.5q-46 0 -90 15t-77 34t-80.5 62.5t-74.5 72.5t-85 93
q-58 -64 -85 -93t-74.5 -72.5t-80.5 -62.5t-77 -34t-90 -15q-151 0 -256.5 104.5t-105.5 273.5zM214 520q0 -112 62.5 -177t156.5 -65q24 0 45.5 5t48.5 23t43.5 30t53.5 50.5t54.5 57.5t69.5 76q-49 54 -69 76t-55 58t-53 49.5t-44 30.5t-48 22.5t-46 5.5q-94 0 -156.5 -65
t-62.5 -177zM1466 520q0 112 -62.5 177t-156.5 65q-24 0 -45.5 -5t-47.5 -22.5t-43.5 -30.5t-53.5 -50t-55.5 -57.5t-69.5 -76.5q131 -143 176 -181q73 -61 139 -61q94 0 156.5 65t62.5 177z" />
    <glyph glyph-name="integral" unicode="&#x222b;" horiz-adv-x="359" 
d="M502 1407l-41 -136q-32 8 -64 8q-165 0 -165 -201v-1021q0 -156 -75 -248.5t-231 -92.5q-62 0 -114 12l40 136q34 -8 64 -8q166 0 166 201v1021q0 156 75 248.5t231 92.5q62 0 114 -12z" />
    <glyph glyph-name="congruent" unicode="&#x2245;" 
d="M1023 412l-29 -136h-870l29 136h870zM1101 782l-29 -136h-870l30 136h869zM1092 1192l66 -101q-68 -57 -134 -84t-145 -27q-59 0 -108.5 13.5t-79 29.5t-73.5 29.5t-93 13.5q-52 0 -95 -19.5t-96 -63.5l-66 101q132 111 279 111q59 0 109 -13.5t79 -29.5t73 -29.5
t93 -13.5q52 0 95 19.5t96 63.5z" />
    <glyph glyph-name="approxequal" unicode="&#x2248;" 
d="M1052 817l66 -101q-68 -57 -134 -84t-145 -27q-59 0 -108.5 13.5t-79 29.5t-73.5 29.5t-93 13.5q-52 0 -95 -19.5t-96 -63.5l-66 101q132 111 279 111q59 0 109 -13.5t79 -29.5t73 -29.5t93 -13.5q52 0 95 19.5t96 63.5zM974 450l66 -101q-68 -57 -134 -84t-145 -27
q-59 0 -108.5 13.5t-79 29.5t-73.5 29.5t-93 13.5q-52 0 -95 -19.5t-96 -63.5l-66 101q132 111 279 111q59 0 109 -13.5t79 -29.5t73 -29.5t93 -13.5q52 0 95 19.5t96 63.5z" />
    <glyph glyph-name="uni2259" unicode="&#x2259;" 
d="M1022 412l-29 -136h-870l29 136h870zM1100 782l-29 -136h-870l30 136h869zM1018 964h-157l-130 197l-209 -197h-168l288 288h200z" />
    <glyph glyph-name="notequal" unicode="&#x2260;" 
d="M1022 412l-29 -136h-477l-153 -252h-143l154 252h-251l29 136h305l143 234h-399l30 136h452l154 252h142l-154 -252h275l-29 -136h-329l-143 -234h423z" />
    <glyph glyph-name="lessequal" unicode="&#x2264;" 
d="M1076 921l-671 -254l564 -252l-32 -150l-715 337l30 147l859 338zM133 181h787l-29 -136h-787z" />
    <glyph glyph-name="greaterequal" unicode="&#x2265;" 
d="M1063 749l-31 -147l-858 -337l35 166l671 253l-564 252l32 151zM156 181h786l-28 -136h-787z" />
    <glyph glyph-name="dotmath" unicode="&#x22c5;" 
d="M601 654q50 0 87 -37t37 -87q0 -51 -37 -88.5t-87 -37.5t-88 37.5t-38 88.5q0 50 38 87t88 37z" />
    <glyph glyph-name="uni2460" unicode="&#x2460;" horiz-adv-x="2050" 
d="M1084 1582q180 0 344.5 -70t283 -188t188.5 -281t70 -342t-70 -342.5t-188.5 -282t-283 -188.5t-344.5 -70t-344.5 70t-283 188.5t-188.5 282t-70 342.5t70 342t188.5 281t283 188t344.5 70zM1084 1443q-202 0 -372.5 -99t-270 -270t-99.5 -373q0 -151 58.5 -289
t158 -237.5t237 -158.5t288.5 -59t288.5 59t237 158.5t158 237.5t58.5 289q0 202 -99.5 373t-270 270t-372.5 99zM1199 1145v-855h-133v671l-259 -103v132z" />
    <glyph glyph-name="uni2461" unicode="&#x2461;" horiz-adv-x="2050" 
d="M1084 1582q180 0 344.5 -70t283 -188t188.5 -281t70 -342t-70 -342.5t-188.5 -282t-283 -188.5t-344.5 -70t-344.5 70t-283 188.5t-188.5 282t-70 342.5t70 342t188.5 281t283 188t344.5 70zM1084 1443q-202 0 -372.5 -99t-270 -270t-99.5 -373q0 -151 58.5 -289
t158 -237.5t237 -158.5t288.5 -59t288.5 59t237 158.5t158 237.5t58.5 289q0 202 -99.5 373t-270 270t-372.5 99zM875 913l-82 89q106 144 287 144q132 0 209 -73.5t77 -191.5q0 -72 -34 -131t-95 -118l-222 -218h376v-124h-567v104l321 314q82 82 82 164q0 64 -43 105.5
t-116 41.5q-64 0 -109 -28.5t-84 -77.5z" />
    <glyph glyph-name="uni2462" unicode="&#x2462;" horiz-adv-x="2050" 
d="M1084 1582q180 0 344.5 -70t283 -188t188.5 -281t70 -342t-70 -342.5t-188.5 -282t-283 -188.5t-344.5 -70t-344.5 70t-283 188.5t-188.5 282t-70 342.5t70 342t188.5 281t283 188t344.5 70zM1084 1443q-202 0 -372.5 -99t-270 -270t-99.5 -373q0 -151 58.5 -289
t158 -237.5t237 -158.5t288.5 -59t288.5 59t237 158.5t158 237.5t58.5 289q0 202 -99.5 373t-270 270t-372.5 99zM1071 1146q136 0 220.5 -64.5t84.5 -168.5q0 -72 -38.5 -122.5t-107.5 -74.5q77 -24 121 -75t44 -122q0 -78 -46 -134t-116.5 -81.5t-155.5 -25.5
q-186 0 -289 113l77 87q83 -83 206 -83q80 0 133 34t53 98q0 61 -55 96.5t-137 35.5h-112v115h113q76 0 124.5 33.5t48.5 94.5q0 57 -48.5 91t-126.5 34q-115 0 -191 -89l-81 85q100 123 279 123z" />
    <glyph glyph-name="uni2463" unicode="&#x2463;" horiz-adv-x="2050" 
d="M1084 1582q180 0 344.5 -70t283 -188t188.5 -281t70 -342t-70 -342.5t-188.5 -282t-283 -188.5t-344.5 -70t-344.5 70t-283 188.5t-188.5 282t-70 342.5t70 342t188.5 281t283 188t344.5 70zM1084 1443q-202 0 -372.5 -99t-270 -270t-99.5 -373q0 -151 58.5 -289
t158 -237.5t237 -158.5t288.5 -59t288.5 59t237 158.5t158 237.5t58.5 289q0 202 -99.5 373t-270 270t-372.5 99zM1268 810v-232h134v-123h-134v-165h-133v165h-402v94l303 585h147l-291 -556h243v232h133z" />
    <glyph glyph-name="uni2464" unicode="&#x2464;" horiz-adv-x="2050" 
d="M1084 1582q180 0 344.5 -70t283 -188t188.5 -281t70 -342t-70 -342.5t-188.5 -282t-283 -188.5t-344.5 -70t-344.5 70t-283 188.5t-188.5 282t-70 342.5t70 342t188.5 281t283 188t344.5 70zM1084 1443q-202 0 -372.5 -99t-270 -270t-99.5 -373q0 -151 58.5 -289
t158 -237.5t237 -158.5t288.5 -59t288.5 59t237 158.5t158 237.5t58.5 289q0 202 -99.5 373t-270 270t-372.5 99zM1353 1135v-123h-368l-8 -207h109q151 0 232 -68t81 -184q0 -125 -87.5 -200t-223.5 -75q-187 0 -301 122l72 95q40 -42 101 -68.5t127 -26.5q82 0 127.5 39.5
t45.5 104.5q0 144 -210 144h-193l11 447h485z" />
    <glyph glyph-name="uni2465" unicode="&#x2465;" horiz-adv-x="2050" 
d="M1084 1582q180 0 344.5 -70t283 -188t188.5 -281t70 -342t-70 -342.5t-188.5 -282t-283 -188.5t-344.5 -70t-344.5 70t-283 188.5t-188.5 282t-70 342.5t70 342t188.5 281t283 188t344.5 70zM1084 1443q-202 0 -372.5 -99t-270 -270t-99.5 -373q0 -151 58.5 -289
t158 -237.5t237 -158.5t288.5 -59t288.5 59t237 158.5t158 237.5t58.5 289q0 202 -99.5 373t-270 270t-372.5 99zM1234 1135l-213 -308q38 10 74 10q131 0 215 -79t84 -196q0 -123 -90.5 -203.5t-226.5 -80.5q-137 0 -228 79.5t-91 200.5q0 94 70 201l245 376h161zM1077 724
q-77 0 -128.5 -47t-51.5 -117q0 -71 51 -117t129 -46q77 0 128 46.5t51 116.5t-51 117t-128 47z" />
    <glyph glyph-name="uni2466" unicode="&#x2466;" horiz-adv-x="2050" 
d="M1084 1582q180 0 344.5 -70t283 -188t188.5 -281t70 -342t-70 -342.5t-188.5 -282t-283 -188.5t-344.5 -70t-344.5 70t-283 188.5t-188.5 282t-70 342.5t70 342t188.5 281t283 188t344.5 70zM1084 1443q-202 0 -372.5 -99t-270 -270t-99.5 -373q0 -151 58.5 -289
t158 -237.5t237 -158.5t288.5 -59t288.5 59t237 158.5t158 237.5t58.5 289q0 202 -99.5 373t-270 270t-372.5 99zM1416 1135v-105l-374 -740h-158l375 721h-449v124h606z" />
    <glyph glyph-name="uni2467" unicode="&#x2467;" horiz-adv-x="2050" 
d="M1084 1582q180 0 344.5 -70t283 -188t188.5 -281t70 -342t-70 -342.5t-188.5 -282t-283 -188.5t-344.5 -70t-344.5 70t-283 188.5t-188.5 282t-70 342.5t70 342t188.5 281t283 188t344.5 70zM1084 1443q-202 0 -372.5 -99t-270 -270t-99.5 -373q0 -151 58.5 -289
t158 -237.5t237 -158.5t288.5 -59t288.5 59t237 158.5t158 237.5t58.5 289q0 202 -99.5 373t-270 270t-372.5 99zM1084 1146q132 0 220 -62.5t88 -170.5q0 -137 -150 -196q78 -26 125 -76t47 -125q0 -110 -95 -174t-235 -64t-234.5 64t-94.5 174q0 143 171 201
q-150 58 -150 196q0 108 88 170.5t220 62.5zM1084 665q-79 0 -132 -36t-53 -99q0 -64 53 -99.5t132 -35.5t132.5 35.5t53.5 99.5q0 63 -53.5 99t-132.5 36zM1084 1029q-72 0 -120 -33.5t-48 -94.5t48 -95.5t120 -34.5q73 0 120.5 34.5t47.5 95.5t-48 94.5t-120 33.5z" />
    <glyph glyph-name="uni2468" unicode="&#x2468;" horiz-adv-x="2050" 
d="M1084 1582q180 0 344.5 -70t283 -188t188.5 -281t70 -342t-70 -342.5t-188.5 -282t-283 -188.5t-344.5 -70t-344.5 70t-283 188.5t-188.5 282t-70 342.5t70 342t188.5 281t283 188t344.5 70zM1084 1443q-202 0 -372.5 -99t-270 -270t-99.5 -373q0 -151 58.5 -289
t158 -237.5t237 -158.5t288.5 -59t288.5 59t237 158.5t158 237.5t58.5 289q0 202 -99.5 373t-270 270t-372.5 99zM938 290l211 307q-33 -10 -72 -10q-131 0 -215 79t-84 197q0 123 90.5 203t227.5 80t227.5 -79.5t90.5 -199.5q0 -97 -69 -202l-246 -375h-161zM1096 701
q77 0 128 46.5t51 117.5q0 70 -51 116.5t-128 46.5t-128.5 -46.5t-51.5 -116.5q0 -71 51.5 -117.5t128.5 -46.5z" />
    <glyph glyph-name="uni24EA" unicode="&#x24ea;" horiz-adv-x="2050" 
d="M1084 1582q180 0 344.5 -70t283 -188t188.5 -281t70 -342t-70 -342.5t-188.5 -282t-283 -188.5t-344.5 -70t-344.5 70t-283 188.5t-188.5 282t-70 342.5t70 342t188.5 281t283 188t344.5 70zM1084 1443q-202 0 -372.5 -99t-270 -270t-99.5 -373q0 -151 58.5 -289
t158 -237.5t237 -158.5t288.5 -59t288.5 59t237 158.5t158 237.5t58.5 289q0 202 -99.5 373t-270 270t-372.5 99zM1084 1146q160 0 266.5 -118t106.5 -315q0 -199 -106.5 -317t-266.5 -118q-159 0 -266 118t-107 317q0 197 107 315t266 118zM1084 1019q-101 0 -167.5 -82
t-66.5 -225q0 -144 66.5 -225.5t167.5 -81.5t168 81.5t67 225.5q0 143 -67 225t-168 82z" />
    <glyph glyph-name="uni24FF" unicode="&#x24ff;" horiz-adv-x="2050" 
d="M1084 1146q-159 0 -266 -118t-107 -315q0 -199 107 -317t266 -118q160 0 266.5 118t106.5 317q0 197 -106.5 315t-266.5 118zM1084 1019q101 0 168 -82t67 -225q0 -144 -67 -225.5t-168 -81.5t-167.5 81.5t-66.5 225.5q0 143 66.5 225t167.5 82zM1084 1568
q178 0 339.5 -69t278 -185t185.5 -276.5t69 -336.5t-69 -337t-185.5 -277.5t-278 -185.5t-339.5 -69t-339.5 69t-278.5 185.5t-186 277t-69 337.5q0 176 69 336.5t186 276.5t278.5 185t339.5 69z" />
    <glyph glyph-name="uni2715" unicode="&#x2573;" horiz-adv-x="2113" 
d="M1943 -259l-118 -99l-749 953l-1173 -967l-88 113l1163 959l-756 959l119 99l750 -953l1172 967l88 -113l-1163 -959z" />
    <glyph glyph-name="uni2715" unicode="&#x2715;" horiz-adv-x="2113" 
d="M1943 -259l-118 -99l-749 953l-1173 -967l-88 113l1163 959l-756 959l119 99l750 -953l1172 967l88 -113l-1163 -959z" />
    <glyph glyph-name="uni25AE" unicode="&#x258c;" horiz-adv-x="1800" 
d="M247 1400h700v-1400h-700v1400z" />
    <glyph glyph-name="uni25AE" unicode="&#x25ae;" horiz-adv-x="1800" 
d="M247 1400h700v-1400h-700v1400z" />
    <glyph glyph-name="filledbox" unicode="&#x25a0;" horiz-adv-x="1800" 
d="M247 1400h1400v-1400h-1400v1400z" />
    <glyph glyph-name="uni25A1" unicode="&#x25a1;" horiz-adv-x="1800" 
d="M247 1400h1400v-1400h-1400v1400zM385 1262v-1124h1124v1124h-1124z" />
    <glyph glyph-name="triagup" unicode="&#x25b2;" horiz-adv-x="1800" 
d="M879 1420l820 -1420h-1640z" />
    <glyph glyph-name="uni25B3" unicode="&#x25b3;" horiz-adv-x="1800" 
d="M879 1420l820 -1420h-1640zM879 1143l-581 -1005h1162z" />
    <glyph glyph-name="uni25B4" unicode="&#x25b4;" 
d="M611 955l349 -602h-698z" />
    <glyph glyph-name="uni25B8" unicode="&#x25b8;" 
d="M994 653l-603 -349v698z" />
    <glyph glyph-name="triagdn" unicode="&#x25bc;" horiz-adv-x="1800" 
d="M1030 -20l-820 1420h1640z" />
    <glyph glyph-name="uni25BD" unicode="&#x25bd;" horiz-adv-x="1800" 
d="M1030 -20l-820 1420h1640zM1030 257l581 1005h-1162z" />
    <glyph glyph-name="uni25BE" unicode="&#x25be;" horiz-adv-x="1199" 
d="M665 352l-348 602h697z" />
    <glyph glyph-name="uni25C2" unicode="&#x25c2;" 
d="M282 653l603 349v-698z" />
    <glyph glyph-name="uni25C6" unicode="&#x25c6;" horiz-adv-x="1800" 
d="M959 1438l738 -738l-738 -738l-738 738z" />
    <glyph glyph-name="uni25C7" unicode="&#x25c7;" horiz-adv-x="1800" 
d="M959 1438l738 -738l-738 -738l-738 738zM959 1243l-543 -543l543 -543l543 543z" />
    <glyph glyph-name="lozenge" unicode="&#x25ca;" horiz-adv-x="1539" 
d="M1491 700l-587 -700h-173l-587 700l588 700h173zM1296 700l-481 563l-475 -562l481 -564z" />
    <glyph glyph-name="circle" unicode="&#x25cb;" horiz-adv-x="1800" 
d="M960 -39q-151 0 -287.5 58.5t-235.5 157.5t-157.5 236t-58.5 287t58.5 287t157.5 236t235.5 157.5t287.5 58.5q150 0 287 -58.5t236 -157.5t157.5 -236t58.5 -287t-58.5 -287t-157.5 -236t-236 -157.5t-287 -58.5zM960 99q163 0 301.5 80.5t219 219t80.5 301.5
t-80.5 301.5t-219 219t-301.5 80.5q-123 0 -234 -47.5t-191.5 -128t-128 -192t-47.5 -233.5t47.5 -233.5t128 -192t191.5 -128t234 -47.5z" />
    <glyph glyph-name="uni25CF" unicode="&#x25cf;" horiz-adv-x="1800" 
d="M960 -39q-151 0 -287.5 58.5t-235.5 157.5t-157.5 236t-58.5 287t58.5 287t157.5 236t235.5 157.5t287.5 58.5q150 0 287 -58.5t236 -157.5t157.5 -236t58.5 -287t-58.5 -287t-157.5 -236t-236 -157.5t-287 -58.5z" />
    <glyph glyph-name="uni25D0" unicode="&#x25d0;" horiz-adv-x="1800" 
d="M960 -39q-151 0 -287.5 58.5t-235.5 157.5t-157.5 236t-58.5 287t58.5 287t157.5 236t235.5 157.5t287.5 58.5q150 0 287 -58.5t236 -157.5t157.5 -236t58.5 -287t-58.5 -287t-157.5 -236t-236 -157.5t-287 -58.5zM960 1301v-1202q163 0 301.5 80.5t219 219t80.5 301.5
t-80.5 301.5t-219 219t-301.5 80.5z" />
    <glyph glyph-name="uni25D6" unicode="&#x25d6;" horiz-adv-x="1800" 
d="M960 1439v-1478q-151 0 -287.5 58.5t-235.5 157.5t-157.5 236t-58.5 287t58.5 287t157.5 236t235.5 157.5t287.5 58.5z" />
    <glyph glyph-name="uni25E7" unicode="&#x25e7;" horiz-adv-x="1800" 
d="M247 1400h1400v-1400h-1400v1400zM947 1262v-1124h562v1124h-562z" />
    <glyph glyph-name="uni2610" unicode="&#x2610;" horiz-adv-x="2200" 
d="M295 1547h1694v-1694h-1694v1694zM410 1432v-1464h1464v1464h-1464z" />
    <glyph glyph-name="uni2611" unicode="&#x2611;" horiz-adv-x="2200" 
d="M295 1547h1694v-1694h-1694v1694zM410 1432v-1464h1464v1464h-1464zM1614 1198l94 -67l-693 -969l-410 512l88 73l316 -398z" />
    <glyph glyph-name="uni2612" unicode="&#x2612;" horiz-adv-x="2200" 
d="M1989 1547v-1694h-1694v1694h1694zM1874 1432h-1464v-1464h1464v1464zM656 293l404 405l-407 407l82 81l407 -407l407 407l81 -81l-407 -407l405 -405l-81 -82l-405 405l-405 -405z" />
    <glyph glyph-name="heart" unicode="&#x2665;" horiz-adv-x="1800" 
d="M1275 1196q123 0 204 -83.5t81 -207.5q0 -117 -80 -252.5t-204 -256t-282 -231.5q-158 111 -281.5 231.5t-203.5 256t-80 252.5q0 124 81 207.5t204 83.5q111 0 195.5 -66t84.5 -155q0 89 84.5 155t196.5 66z" />
    <glyph glyph-name="uni2713" unicode="&#x2713;" horiz-adv-x="2200" 
d="M1719 1285l109 -81l-815 -1100l-445 485l100 92l334 -365z" />
    <glyph glyph-name="uni2717" unicode="&#x2717;" horiz-adv-x="2200" 
d="M1242 700l460 -460l-96 -96l-460 460l-460 -460l-96 96l460 460l-460 460l96 96l460 -460l460 460l96 -96z" />
    <glyph glyph-name="uni2776" unicode="&#x2776;" horiz-adv-x="2050" 
d="M1199 1145l-392 -155v-132l259 103v-671h133v855zM1084 1568q178 0 339.5 -69t278 -185t185.5 -276.5t69 -336.5t-69 -337t-185.5 -277.5t-278 -185.5t-339.5 -69t-339.5 69t-278.5 185.5t-186 277t-69 337.5q0 176 69 336.5t186 276.5t278.5 185t339.5 69z" />
    <glyph glyph-name="uni2777" unicode="&#x2777;" horiz-adv-x="2050" 
d="M793 1002l88 -82q80 99 187 99q73 0 115.5 -41.5t42.5 -105.5q0 -82 -82 -164l-321 -314v-104h567v124h-375l221 218q61 59 95 118t34 131q0 118 -77 191.5t-209 73.5q-180 0 -286 -144zM1083 1568q178 0 339.5 -69t278.5 -185t186 -276.5t69 -336.5q0 -177 -69 -337.5
t-186 -277t-278.5 -185.5t-339.5 -69t-339.5 69t-278 185.5t-185.5 277t-69 337.5q0 176 69 336.5t185.5 276.5t278 185t339.5 69z" />
    <glyph glyph-name="uni2778" unicode="&#x2778;" horiz-adv-x="2050" 
d="M1084 1568q178 0 339.5 -69t278 -185t185.5 -276.5t69 -336.5t-69 -337t-185.5 -277.5t-278 -185.5t-339.5 -69t-339.5 69t-278.5 185.5t-186 277t-69 337.5q0 176 69 336.5t186 276.5t278.5 185t339.5 69zM1070 1146q-178 0 -278 -123l81 -85q76 89 191 89
q78 0 126.5 -34t48.5 -91q0 -61 -48.5 -94.5t-124.5 -33.5h-114v-115h113q82 0 137 -35.5t55 -96.5q0 -64 -53 -98t-133 -34q-123 0 -206 83l-77 -87q103 -113 289 -113q85 0 155.5 25.5t116.5 81.5t46 134q0 71 -44 122t-121 75q69 24 107.5 74.5t38.5 122.5
q0 104 -84.5 168.5t-221.5 64.5z" />
    <glyph glyph-name="uni2779" unicode="&#x2779;" horiz-adv-x="2050" 
d="M1084 1568q178 0 339.5 -69t278 -185t185.5 -276.5t69 -336.5t-69 -337t-185.5 -277.5t-278 -185.5t-339.5 -69t-339.5 69t-278.5 185.5t-186 277t-69 337.5q0 176 69 336.5t186 276.5t278.5 185t339.5 69zM1268 810h-133v-232h-243l291 556h-147l-303 -585v-94h402v-165
h133v165h134v123h-134v232z" />
    <glyph glyph-name="uni277A" unicode="&#x277a;" horiz-adv-x="2050" 
d="M1353 1135h-485l-12 -447h194q210 0 210 -144q0 -65 -45.5 -104.5t-127.5 -39.5q-66 0 -127 26.5t-101 68.5l-72 -95q114 -122 301 -122q136 0 223 75t87 200q0 116 -80.5 184t-231.5 68h-109l8 207h368v123zM1084 1568q178 0 339.5 -69t278 -185t185.5 -276.5t69 -336.5
t-69 -337t-185.5 -277.5t-278 -185.5t-339.5 -69t-339.5 69t-278.5 185.5t-186 277t-69 337.5q0 176 69 336.5t186 276.5t278.5 185t339.5 69z" />
    <glyph glyph-name="uni277B" unicode="&#x277b;" horiz-adv-x="2050" 
d="M1084 1568q178 0 339.5 -69t278 -185t185.5 -276.5t69 -336.5t-69 -337t-185.5 -277.5t-278 -185.5t-339.5 -69t-339.5 69t-278.5 185.5t-186 277t-69 337.5q0 176 69 336.5t186 276.5t278.5 185t339.5 69zM1234 1135h-161l-246 -376q-69 -103 -69 -201q0 -121 91 -200.5
t228 -79.5q136 0 226.5 80.5t90.5 203.5q0 117 -84 196t-215 79q-36 0 -74 -10zM1077 724q77 0 128 -47t51 -117t-51 -116.5t-128 -46.5q-78 0 -129 46t-51 117q0 70 51.5 117t128.5 47z" />
    <glyph glyph-name="uni277C" unicode="&#x277c;" horiz-adv-x="2050" 
d="M1416 1135h-606v-124h449l-375 -721h157l375 740v105zM1084 1568q178 0 339.5 -69t278 -185t185.5 -276.5t69 -336.5t-69 -337t-185.5 -277.5t-278 -185.5t-339.5 -69t-339.5 69t-278.5 185.5t-186 277t-69 337.5q0 176 69 336.5t186 276.5t278.5 185t339.5 69z" />
    <glyph glyph-name="uni277D" unicode="&#x277d;" horiz-adv-x="2050" 
d="M1084 1568q178 0 339.5 -69t278 -185t185.5 -276.5t69 -336.5t-69 -337t-185.5 -277.5t-278 -185.5t-339.5 -69t-339.5 69t-278.5 185.5t-186 277t-69 337.5q0 176 69 336.5t186 276.5t278.5 185t339.5 69zM1084 1146q-131 0 -219.5 -63t-88.5 -170q0 -138 150 -196
q-171 -58 -171 -201q0 -110 94.5 -174t234.5 -64t234.5 64t94.5 174q0 143 -171 201q150 59 150 196q0 107 -88.5 170t-219.5 63zM1084 665q79 0 132 -36t53 -99t-53 -98.5t-132 -35.5t-132 35.5t-53 98.5t53 99t132 36zM1084 1028q72 0 120 -33.5t48 -93.5q0 -61 -48 -95.5
t-120 -34.5t-119.5 34.5t-47.5 95.5q0 60 47.5 93.5t119.5 33.5z" />
    <glyph glyph-name="uni277E" unicode="&#x277e;" horiz-adv-x="2050" 
d="M1084 1568q178 0 339.5 -69t278 -185t185.5 -276.5t69 -336.5t-69 -337t-185.5 -277.5t-278 -185.5t-339.5 -69t-339.5 69t-278.5 185.5t-186 277t-69 337.5q0 176 69 336.5t186 276.5t278.5 185t339.5 69zM938 290h161l246 375q69 105 69 202q0 120 -90.5 199.5
t-227.5 79.5t-227.5 -80t-90.5 -203q0 -118 84 -197t215 -79q39 0 72 10zM1096 701q-77 0 -128.5 46.5t-51.5 117.5q0 70 51.5 116.5t128.5 46.5t128 -46.5t51 -116.5q0 -71 -51 -117.5t-128 -46.5z" />
    <glyph glyph-name="uni278A" unicode="&#x278a;" horiz-adv-x="2050" 
d="M1199 1145l-392 -155v-132l259 103v-671h133v855zM1084 1568q178 0 339.5 -69t278 -185t185.5 -276.5t69 -336.5t-69 -337t-185.5 -277.5t-278 -185.5t-339.5 -69t-339.5 69t-278.5 185.5t-186 277t-69 337.5q0 176 69 336.5t186 276.5t278.5 185t339.5 69z" />
    <glyph glyph-name="uni278B" unicode="&#x278b;" horiz-adv-x="2050" 
d="M793 1002l88 -82q80 99 187 99q73 0 115.5 -41.5t42.5 -105.5q0 -82 -82 -164l-321 -314v-104h567v124h-375l221 218q61 59 95 118t34 131q0 118 -77 191.5t-209 73.5q-180 0 -286 -144zM1083 1568q178 0 339.5 -69t278.5 -185t186 -276.5t69 -336.5q0 -177 -69 -337.5
t-186 -277t-278.5 -185.5t-339.5 -69t-339.5 69t-278 185.5t-185.5 277t-69 337.5q0 176 69 336.5t185.5 276.5t278 185t339.5 69z" />
    <glyph glyph-name="uni278C" unicode="&#x278c;" horiz-adv-x="2050" 
d="M1084 1568q178 0 339.5 -69t278 -185t185.5 -276.5t69 -336.5t-69 -337t-185.5 -277.5t-278 -185.5t-339.5 -69t-339.5 69t-278.5 185.5t-186 277t-69 337.5q0 176 69 336.5t186 276.5t278.5 185t339.5 69zM1070 1146q-178 0 -278 -123l81 -85q76 89 191 89
q78 0 126.5 -34t48.5 -91q0 -61 -48.5 -94.5t-124.5 -33.5h-114v-115h113q82 0 137 -35.5t55 -96.5q0 -64 -53 -98t-133 -34q-123 0 -206 83l-77 -87q103 -113 289 -113q85 0 155.5 25.5t116.5 81.5t46 134q0 71 -44 122t-121 75q69 24 107.5 74.5t38.5 122.5
q0 104 -84.5 168.5t-221.5 64.5z" />
    <glyph glyph-name="uni278D" unicode="&#x278d;" horiz-adv-x="2050" 
d="M1084 1568q178 0 339.5 -69t278 -185t185.5 -276.5t69 -336.5t-69 -337t-185.5 -277.5t-278 -185.5t-339.5 -69t-339.5 69t-278.5 185.5t-186 277t-69 337.5q0 176 69 336.5t186 276.5t278.5 185t339.5 69zM1268 810h-133v-232h-243l291 556h-147l-303 -585v-94h402v-165
h133v165h134v123h-134v232z" />
    <glyph glyph-name="uni278E" unicode="&#x278e;" horiz-adv-x="2050" 
d="M1353 1135h-485l-12 -447h194q210 0 210 -144q0 -65 -45.5 -104.5t-127.5 -39.5q-66 0 -127 26.5t-101 68.5l-72 -95q114 -122 301 -122q136 0 223 75t87 200q0 116 -80.5 184t-231.5 68h-109l8 207h368v123zM1084 1568q178 0 339.5 -69t278 -185t185.5 -276.5t69 -336.5
t-69 -337t-185.5 -277.5t-278 -185.5t-339.5 -69t-339.5 69t-278.5 185.5t-186 277t-69 337.5q0 176 69 336.5t186 276.5t278.5 185t339.5 69z" />
    <glyph glyph-name="uni278F" unicode="&#x278f;" horiz-adv-x="2050" 
d="M1084 1568q178 0 339.5 -69t278 -185t185.5 -276.5t69 -336.5t-69 -337t-185.5 -277.5t-278 -185.5t-339.5 -69t-339.5 69t-278.5 185.5t-186 277t-69 337.5q0 176 69 336.5t186 276.5t278.5 185t339.5 69zM1234 1135h-161l-246 -376q-69 -103 -69 -201q0 -121 91 -200.5
t228 -79.5q136 0 226.5 80.5t90.5 203.5q0 117 -84 196t-215 79q-36 0 -74 -10zM1077 724q77 0 128 -47t51 -117t-51 -116.5t-128 -46.5q-78 0 -129 46t-51 117q0 70 51.5 117t128.5 47z" />
    <glyph glyph-name="uni2790" unicode="&#x2790;" horiz-adv-x="2050" 
d="M1416 1135h-606v-124h449l-375 -721h157l375 740v105zM1084 1568q178 0 339.5 -69t278 -185t185.5 -276.5t69 -336.5t-69 -337t-185.5 -277.5t-278 -185.5t-339.5 -69t-339.5 69t-278.5 185.5t-186 277t-69 337.5q0 176 69 336.5t186 276.5t278.5 185t339.5 69z" />
    <glyph glyph-name="uni2791" unicode="&#x2791;" horiz-adv-x="2050" 
d="M1084 1568q178 0 339.5 -69t278 -185t185.5 -276.5t69 -336.5t-69 -337t-185.5 -277.5t-278 -185.5t-339.5 -69t-339.5 69t-278.5 185.5t-186 277t-69 337.5q0 176 69 336.5t186 276.5t278.5 185t339.5 69zM1084 1146q-131 0 -219.5 -63t-88.5 -170q0 -138 150 -196
q-171 -58 -171 -201q0 -110 94.5 -174t234.5 -64t234.5 64t94.5 174q0 143 -171 201q150 59 150 196q0 107 -88.5 170t-219.5 63zM1084 665q79 0 132 -36t53 -99t-53 -98.5t-132 -35.5t-132 35.5t-53 98.5t53 99t132 36zM1084 1028q72 0 120 -33.5t48 -93.5q0 -61 -48 -95.5
t-120 -34.5t-119.5 34.5t-47.5 95.5q0 60 47.5 93.5t119.5 33.5z" />
    <glyph glyph-name="uni2792" unicode="&#x2792;" horiz-adv-x="2050" 
d="M1084 1568q178 0 339.5 -69t278 -185t185.5 -276.5t69 -336.5t-69 -337t-185.5 -277.5t-278 -185.5t-339.5 -69t-339.5 69t-278.5 185.5t-186 277t-69 337.5q0 176 69 336.5t186 276.5t278.5 185t339.5 69zM938 290h161l246 375q69 105 69 202q0 120 -90.5 199.5
t-227.5 79.5t-227.5 -80t-90.5 -203q0 -118 84 -197t215 -79q39 0 72 10zM1096 701q-77 0 -128.5 46.5t-51.5 117.5q0 70 51.5 116.5t128.5 46.5t128 -46.5t51 -116.5q0 -71 -51 -117.5t-128 -46.5z" />
    <glyph glyph-name="uni2B51" unicode="&#x2b51;" horiz-adv-x="1800" 
d="M1125 872h535l-433 -315l167 -511l-435 316l-433 -316l166 511l-435 315h537l165 511z" />
    <glyph glyph-name="uni2B52" unicode="&#x2b52;" horiz-adv-x="1800" 
d="M1125 872h535l-433 -315l167 -511l-435 316l-433 -316l166 511l-435 315h537l165 511zM1057 780l-98 303l-98 -303h-320l258 -188l-98 -304l258 188l258 -188l-98 304l258 188h-320z" />
    <glyph glyph-name="uni2E17" unicode="&#x2e17;" horiz-adv-x="879" 
d="M791 891l-29 -139l-570 -205l30 139zM718 547l-29 -138l-571 -205l30 138z" />
    <glyph glyph-name="uni2E38" unicode="&#x2e38;" horiz-adv-x="732" 
d="M510 1440h123l-92 -439h207l-25 -120h-208l-44 -208h-123l44 208h-208l25 120h209z" />
    <glyph glyph-name="uniEA00" unicode="&#xea00;" horiz-adv-x="1800" 
d="M1125 872h535l-433 -315l167 -511l-435 316l-433 -316l166 511l-435 315h537l165 511zM1058 780l-99 303v-607l259 -188l-99 304l258 188h-319z" />
    <glyph glyph-name="uniEA01" unicode="&#xea01;" horiz-adv-x="1800" 
d="M959 362l-433 -316l166 511l-435 315h537l165 511v-1021z" />
    <glyph glyph-name="uniFB00" unicode="&#xfb00;" horiz-adv-x="1632" 
d="M869 947l-28 -135h-355l-173 -812h-151l173 812h-213l29 135h213l40 188q33 157 121.5 240.5t225.5 83.5q142 0 238 -79l-73 -116q-73 55 -166 55q-73 0 -125 -51t-74 -153l-36 -168h354zM1672 947l-28 -135h-355l-173 -812h-151l173 812h-213l29 135h213l40 188
q33 157 121.5 240.5t225.5 83.5q142 0 238 -79l-73 -116q-73 55 -166 55q-73 0 -125 -51t-74 -153l-36 -168h354z" />
    <glyph glyph-name="fi" unicode="&#xfb01;" horiz-adv-x="1313" 
d="M869 947l-28 -135h-355l-173 -812h-151l173 812h-213l29 135h213l40 188q33 157 121.5 240.5t225.5 83.5q142 0 238 -79l-73 -116q-73 55 -166 55q-73 0 -125 -51t-74 -153l-36 -168h354zM1247 947l-202 -947h-151l202 947h151zM1241 1389q45 0 76 -30.5t31 -75.5
t-31 -75t-76 -30q-44 0 -74.5 30t-30.5 75t30.5 75.5t74.5 30.5z" />
    <glyph glyph-name="fl" unicode="&#xfb02;" horiz-adv-x="1312" 
d="M869 947l-28 -135h-355l-173 -812h-151l173 812h-213l29 135h213l40 188q33 157 121.5 240.5t225.5 83.5q142 0 238 -79l-73 -116q-73 55 -166 55q-73 0 -125 -51t-74 -153l-36 -168h354zM1351 1440l-306 -1440h-151l306 1440h151z" />
    <glyph glyph-name="uniFB03" unicode="&#xfb03;" horiz-adv-x="2116" 
d="M869 947l-28 -135h-355l-173 -812h-151l173 812h-213l29 135h213l40 188q33 157 121.5 240.5t225.5 83.5q142 0 238 -79l-73 -116q-73 55 -166 55q-73 0 -125 -51t-74 -153l-36 -168h354zM1672 947l-28 -135h-355l-173 -812h-151l173 812h-213l29 135h213l40 188
q33 157 121.5 240.5t225.5 83.5q142 0 238 -79l-73 -116q-73 55 -166 55q-73 0 -125 -51t-74 -153l-36 -168h354zM2050 947l-202 -947h-151l202 947h151zM2044 1389q45 0 76 -30.5t31 -75.5t-31 -75t-76 -30q-44 0 -74.5 30t-30.5 75t30.5 75.5t74.5 30.5z" />
    <glyph glyph-name="uniFB04" unicode="&#xfb04;" horiz-adv-x="2115" 
d="M869 947l-28 -135h-355l-173 -812h-151l173 812h-213l29 135h213l40 188q33 157 121.5 240.5t225.5 83.5q142 0 238 -79l-73 -116q-73 55 -166 55q-73 0 -125 -51t-74 -153l-36 -168h354zM1672 947l-28 -135h-355l-173 -812h-151l173 812h-213l29 135h213l40 188
q33 157 121.5 240.5t225.5 83.5q142 0 238 -79l-73 -116q-73 55 -166 55q-73 0 -125 -51t-74 -153l-36 -168h354zM2154 1440l-306 -1440h-151l306 1440h151z" />
    <glyph glyph-name="uniFB05" unicode="&#xfb05;" horiz-adv-x="1438" 
d="M1443 947l-29 -135h-391l-97 -461q-24 -113 19 -171.5t129 -58.5q101 0 200 68l62 -115q-129 -93 -279 -93q-163 0 -240.5 98t-40.5 276l96 457h-204l29 135h206l19 87q11 53 11 91q0 95 -56 144.5t-148 49.5q-110 0 -191 -71.5t-112 -215.5l-219 -1032h-150l223 1051
q44 204 168 306t293 102q150 0 245 -86t95 -236q0 -60 -12 -116l-16 -74h390z" />
    <glyph glyph-name="uniFB06" unicode="&#xfb06;" horiz-adv-x="1834" 
d="M922 860l-78 -114q-55 38 -142.5 63.5t-170.5 25.5q-100 0 -163.5 -36t-70.5 -100q-8 -66 34.5 -100.5t133.5 -48.5l85 -13q153 -24 224 -95.5t58 -180.5q-14 -127 -124.5 -203t-282.5 -76q-109 0 -222 35t-191 95l83 111q141 -111 328 -111q111 0 179.5 38t76.5 109
q6 58 -36 94.5t-134 49.5l-87 13q-154 23 -223 95t-57 180q16 130 121 202t269 72q118 0 219 -28.5t171 -76.5zM1841 947l-29 -135h-393l-97 -461q-24 -114 19 -172t129 -58q101 0 200 68l62 -115q-129 -93 -279 -93q-163 0 -241 98t-40 276l97 457h-203l29 135h203l64 301
h150l-64 -301h393z" />
    <glyph glyph-name="uniFEFF" unicode="&#xfeff;" horiz-adv-x="0" 
 />
    <glyph glyph-name="uni030C.alt001" horiz-adv-x="1" 
d="M-527 1051h-124l89 389h166z" />
    <glyph glyph-name="uni0328.alt001" horiz-adv-x="1" 
d="M-414 -242l68 -101q-81 -71 -181 -71q-94 0 -154 46.5t-60 122.5q0 82 61.5 150.5t220.5 148.5l36 -55q-175 -117 -175 -215q0 -32 22.5 -51.5t61.5 -19.5q52 0 100 45z" />
    <glyph glyph-name="uni0328.alt002" horiz-adv-x="1" 
d="M-412 69l9 -58q-223 -89 -223 -207q0 -40 31.5 -65t85.5 -25q76 0 143 50l58 -104q-101 -74 -225 -74q-112 0 -179.5 53t-67.5 135q0 96 84 167t284 128z" />
    <glyph glyph-name="uni0328.alt003" horiz-adv-x="1" 
d="M-413 -238l68 -97q-88 -79 -194 -79q-90 0 -146.5 44t-56.5 118q0 94 87 165.5t276 144.5l28 -58q-246 -108 -246 -217q0 -32 21.5 -50.5t57.5 -18.5q54 0 105 48z" />
    <glyph glyph-name="uni0328.alt004" horiz-adv-x="1" 
d="M-373 -237l67 -100q-93 -78 -216 -78q-117 0 -188.5 57.5t-71.5 146.5q0 43 17 81t57 76.5t115.5 73.5t182.5 63l24 -55q-138 -51 -193 -104.5t-55 -111.5q0 -45 32.5 -72t88.5 -27q73 0 140 50z" />
    <glyph glyph-name="j.latn_NLD" horiz-adv-x="491" 
d="M425 947l-236 -1109q-26 -125 -99 -189t-178 -64q-87 0 -151 40l55 123q37 -22 87 -22q52 0 89 33.5t51 97.5l231 1090h151zM399 1092h-153l241 300h194z" />
    <glyph glyph-name="zero.numr" horiz-adv-x="863" 
d="M605 1411q129 0 208 -84t79 -226q0 -86 -27.5 -172.5t-76 -159t-126 -118t-168.5 -45.5q-129 0 -208 84t-79 226q0 68 17 137.5t51 133.5t80.5 114t111.5 80t138 30zM599 1294q-80 0 -142.5 -59.5t-91.5 -142t-29 -166.5q0 -94 44.5 -149t119.5 -55q61 0 112.5 34.5
t83.5 89t49.5 118.5t17.5 126q0 95 -44 149.5t-120 54.5z" />
    <glyph glyph-name="one.numr" horiz-adv-x="528" 
d="M580 1409l-168 -792h-122l133 623l-225 -77l26 127z" />
    <glyph glyph-name="two.numr" horiz-adv-x="680" 
d="M314 1209l-76 75q104 126 257 126q115 0 177 -63t62 -151q0 -74 -40 -136t-130 -139l-223 -191h329l-24 -113h-508l20 97l326 278q67 57 96 100t29 88q0 48 -34 81t-95 33q-92 0 -166 -85z" />
    <glyph glyph-name="three.numr" horiz-adv-x="672" 
d="M289 1218l-62 85q102 107 260 107q109 0 176.5 -55t67.5 -137q0 -69 -45.5 -127.5t-123.5 -84.5q51 -21 79 -61.5t28 -93.5q0 -103 -81 -174t-221 -71q-175 0 -252 104l81 76q59 -70 173 -70q86 0 131 39.5t45 98.5q0 48 -39.5 76.5t-102.5 28.5h-96l22 107h93
q82 0 131.5 40t49.5 94q0 44 -37 72t-96 28q-103 0 -181 -82z" />
    <glyph glyph-name="four.numr" horiz-adv-x="678" 
d="M651 1098l-46 -214h123l-24 -114h-123l-32 -153h-122l32 153h-356l21 97l363 532h140l-352 -515h209l46 214h121z" />
    <glyph glyph-name="five.numr" horiz-adv-x="685" 
d="M741 1399l-24 -112h-320l-49 -192h77q143 0 209.5 -76t44.5 -187t-104.5 -168.5t-199.5 -57.5q-81 0 -148 30t-109 86l77 78q66 -83 185 -83q72 0 118 33.5t57 89.5q12 64 -27 105t-138 41h-175l98 413h428z" />
    <glyph glyph-name="six.numr" horiz-adv-x="702" 
d="M661 1399l-233 -278q16 3 37 3q113 0 188.5 -65.5t75.5 -171.5q0 -117 -86 -198.5t-218 -81.5q-119 0 -199 67.5t-80 175.5q0 104 89 214l272 335h154zM446 1019q-76 0 -124 -47.5t-48 -115.5q0 -62 43 -101t112 -39q75 0 123.5 47.5t48.5 115.5q0 62 -44 101t-111 39z
" />
    <glyph glyph-name="seven.numr" horiz-adv-x="650" 
d="M790 1399l-20 -101l-430 -681h-145l429 669h-401l24 113h543z" />
    <glyph glyph-name="eight.numr" horiz-adv-x="750" 
d="M558 1410q105 0 179.5 -52.5t74.5 -138.5q0 -71 -48 -128t-133 -84q54 -23 85.5 -62.5t31.5 -91.5q0 -105 -89.5 -176t-237.5 -71q-114 0 -190.5 53t-76.5 141q0 74 49.5 131.5t138.5 84.5q-96 48 -96 145q0 104 85.5 176.5t226.5 72.5zM471 964q-82 0 -133.5 -40.5
t-51.5 -102.5q0 -50 42 -79t104 -29q82 0 134.5 40t52.5 102q0 49 -42 79t-106 30zM547 1301q-78 0 -125 -39t-47 -98q0 -46 36.5 -74t94.5 -28q77 0 126 39t49 97q0 48 -39 75.5t-95 27.5z" />
    <glyph glyph-name="nine.numr" horiz-adv-x="702" 
d="M267 617l232 278q-16 -3 -35 -3q-113 0 -188.5 65.5t-75.5 171.5q0 117 86.5 198.5t217.5 81.5q119 0 199 -67.5t80 -175.5q0 -104 -89 -214l-272 -335h-155zM484 998q75 0 123 47t48 115q0 62 -43 101t-112 39q-75 0 -123.5 -47.5t-48.5 -115.5q0 -62 44.5 -100.5
t111.5 -38.5z" />
    <glyph glyph-name="zero.dnom" horiz-adv-x="863" 
d="M473 794q129 0 208 -84t79 -226q0 -86 -27.5 -172.5t-76 -159t-126 -118t-168.5 -45.5q-129 0 -208 84t-79 226q0 68 17 137.5t51 133.5t80.5 114t111.5 80t138 30zM467 677q-80 0 -142.5 -59.5t-91.5 -142t-29 -166.5q0 -94 44.5 -149t119.5 -55q61 0 112.5 34.5
t83.5 89t49.5 118.5t17.5 126q0 95 -44 149.5t-120 54.5z" />
    <glyph glyph-name="one.dnom" horiz-adv-x="529" 
d="M448 792l-168 -792h-122l133 623l-225 -77l26 127z" />
    <glyph glyph-name="two.dnom" horiz-adv-x="679" 
d="M182 592l-76 75q104 126 257 126q115 0 177 -63t62 -151q0 -74 -40 -136t-130 -139l-223 -191h329l-24 -113h-508l20 97l326 278q67 57 96 100t29 88q0 48 -34 81t-95 33q-92 0 -166 -85z" />
    <glyph glyph-name="three.dnom" horiz-adv-x="672" 
d="M157 601l-62 85q102 107 260 107q109 0 176.5 -55t67.5 -137q0 -69 -45.5 -127.5t-123.5 -84.5q51 -21 79 -61.5t28 -93.5q0 -103 -81 -174t-221 -71q-175 0 -252 104l81 76q59 -70 173 -70q86 0 131 39.5t45 98.5q0 48 -39.5 76.5t-102.5 28.5h-96l22 107h93
q82 0 131.5 40t49.5 94q0 44 -37 72t-96 28q-103 0 -181 -82z" />
    <glyph glyph-name="four.dnom" horiz-adv-x="678" 
d="M520 481l-46 -214h123l-24 -114h-123l-32 -153h-122l32 153h-356l21 97l363 532h140l-352 -515h209l46 214h121z" />
    <glyph glyph-name="five.dnom" horiz-adv-x="685" 
d="M609 782l-24 -112h-320l-49 -192h77q143 0 209.5 -76t44.5 -187t-104.5 -168.5t-199.5 -57.5q-81 0 -148 30t-109 86l77 78q66 -83 185 -83q72 0 118 33.5t57 89.5q12 64 -27 105t-138 41h-175l98 413h428z" />
    <glyph glyph-name="six.dnom" horiz-adv-x="703" 
d="M530 782l-233 -278q17 3 37 3q113 0 188.5 -65.5t75.5 -171.5q0 -117 -86 -198.5t-218 -81.5q-119 0 -199 67.5t-80 175.5q0 104 89 214l272 335h154zM315 402q-76 0 -124 -47.5t-48 -115.5q0 -62 43 -101t112 -39q75 0 123.5 47.5t48.5 115.5q0 62 -44 101t-111 39z" />
    <glyph glyph-name="seven.dnom" horiz-adv-x="649" 
d="M658 782l-20 -101l-430 -681h-145l429 669h-401l24 113h543z" />
    <glyph glyph-name="eight.dnom" horiz-adv-x="751" 
d="M427 793q105 0 179.5 -52.5t74.5 -138.5q0 -71 -48 -128t-133 -84q54 -23 85.5 -62.5t31.5 -91.5q0 -105 -89.5 -176t-237.5 -71q-114 0 -190.5 53t-76.5 141q0 74 49.5 131.5t138.5 84.5q-96 48 -96 145q0 104 85.5 176.5t226.5 72.5zM340 347q-82 0 -133.5 -40.5
t-51.5 -102.5q0 -50 42 -79t104 -29q82 0 134.5 40t52.5 102q0 49 -42 79t-106 30zM416 684q-78 0 -125 -39t-47 -98q0 -46 36.5 -74t94.5 -28q77 0 126 39t49 97q0 48 -39 75.5t-95 27.5z" />
    <glyph glyph-name="nine.dnom" horiz-adv-x="703" 
d="M137 0l232 278q-17 -3 -35 -3q-113 0 -188.5 65.5t-75.5 171.5q0 117 86.5 198.5t217.5 81.5q119 0 199 -67.5t80 -175.5q0 -104 -89 -214l-272 -335h-155zM354 381q75 0 123 47t48 115q0 62 -43 101t-112 39q-75 0 -123.5 -47.5t-48.5 -115.5q0 -62 44.5 -100.5
t111.5 -38.5z" />
    <glyph glyph-name="space.frac" horiz-adv-x="106" 
 />
    <glyph glyph-name="b.ordn" horiz-adv-x="867" 
d="M523 604q-80 0 -138.5 33.5t-87.5 91.5l-24 -112h-123l212 999h123l-87 -405q87 82 211 82q125 -1 207 -86t82 -212q0 -100 -46.5 -189t-134 -145.5t-194.5 -56.5zM583 1176q-93 0 -162 -63.5t-83 -159.5q-14 -100 39 -166.5t146 -66.5q104 0 175.5 76.5t71.5 185.5
q0 86 -51.5 140t-135.5 54z" />
    <glyph glyph-name="c.ordn" horiz-adv-x="763" 
d="M813 1153l-102 -62q-62 85 -171 85q-102 0 -171.5 -74t-69.5 -178q0 -89 55 -146.5t139 -57.5q101 0 171 72l79 -77q-101 -110 -255 -110q-140 0 -227.5 88t-87.5 223q0 155 106 265t266 110q185 0 268 -138z" />
    <glyph glyph-name="d.ordn" horiz-adv-x="867" 
d="M544 1292q80 0 138.5 -33.5t88.5 -91.5l96 449h123l-212 -999h-121l17 82q-88 -95 -223 -95q-121 0 -201 85t-80 212q0 100 46.5 189t133.5 145.5t194 56.5zM485 720q93 0 162 63.5t83 159.5q14 100 -39 166.5t-146 66.5q-104 0 -175.5 -76.5t-71.5 -185.5
q0 -86 51.5 -140t135.5 -54z" />
    <glyph glyph-name="e.ordn" horiz-adv-x="781" 
d="M680 786l62 -82q-108 -101 -272 -101q-140 0 -221 80.5t-81 207.5q0 69 24.5 138.5t69.5 129t119 96.5t164 37q123 0 199 -72.5t76 -192.5q0 -64 -21 -120h-508v-11q0 -86 50.5 -136t139.5 -50q114 0 199 76zM538 1185q-87 0 -146 -53.5t-85 -132.5h391q2 18 2 26
q0 74 -44 117t-118 43z" />
    <glyph glyph-name="h.ordn" horiz-adv-x="818" 
d="M607 1292q109 0 172 -62t63 -163q0 -35 -9 -73l-81 -377h-124l80 373q6 27 6 52q0 61 -36.5 97.5t-108.5 36.5q-81 0 -140.5 -52.5t-80.5 -149.5l-75 -357h-123l213 999h122l-89 -416q82 92 211 92z" />
    <glyph glyph-name="l.ordn" horiz-adv-x="362" 
d="M486 1616l-213 -999h-123l212 999h124z" />
    <glyph glyph-name="m.ordn" horiz-adv-x="1298" 
d="M1085 1292q110 0 173 -62t63 -164q0 -32 -8 -72l-81 -377h-124l80 373q5 22 5 52q0 61 -36 97.5t-109 36.5q-81 0 -139.5 -52.5t-79.5 -149.5l-77 -357h-124l80 373q18 80 -16.5 133t-122.5 53q-81 0 -140.5 -52.5t-80.5 -149.5l-75 -357h-123l140 662h121l-19 -84
q82 97 215 97q81 0 136.5 -35t80.5 -97q93 132 261 132z" />
    <glyph glyph-name="r.ordn" horiz-adv-x="600" 
d="M350 980l-77 -363h-123l140 662h121l-18 -82q77 95 198 95q63 0 111 -25l-42 -118q-41 25 -102 25q-76 0 -131.5 -51t-76.5 -143z" />
    <glyph glyph-name="s.ordn" horiz-adv-x="672" 
d="M745 1217l-58 -92q-42 28 -103.5 45t-115.5 17q-64 0 -104 -22.5t-45 -62.5q-5 -41 23 -62.5t92 -32.5l58 -10q105 -18 153 -68t39 -126q-10 -93 -88 -146t-201 -53q-79 0 -159 24.5t-133 66.5l61 91q105 -78 232 -78q71 0 114 23.5t48 68.5q4 38 -24 60.5t-91 32.5
l-58 9q-109 17 -155.5 68t-37.5 128q11 92 85.5 143t191.5 51q161 0 276 -75z" />
    <glyph glyph-name="t.ordn" horiz-adv-x="661" 
d="M737 1279l-24 -111h-265l-64 -298q-16 -75 12.5 -113t85.5 -38q73 0 144 51l38 -101q-92 -66 -203 -66q-118 0 -172.5 70.5t-27.5 195.5l64 299h-141l23 111h142l45 207h123l-45 -207h265z" />
    <glyph glyph-name="u.ordn" horiz-adv-x="794" 
d="M871 1285l-83 -390q-30 -144 -123 -214.5t-221 -70.5q-116 0 -189 62t-73 173q0 36 9 78l77 362h124l-80 -371q-6 -30 -6 -54q0 -66 41 -100t109 -34q79 0 136 49.5t77 142.5l78 367h124z" />
    <glyph glyph-name="egrave.ordn" horiz-adv-x="781" 
d="M680 786l62 -82q-108 -101 -272 -101q-140 0 -221 80.5t-81 207.5q0 69 24.5 138.5t69.5 129t119 96.5t164 37q123 0 199 -72.5t76 -192.5q0 -64 -21 -120h-508v-11q0 -86 50.5 -136t139.5 -50q114 0 199 76zM538 1185q-87 0 -146 -53.5t-85 -132.5h391q2 18 2 26
q0 74 -44 117t-118 43zM545 1375l-180 214h151l147 -214h-118z" />
    <glyph glyph-name="zero.osf" horiz-adv-x="1336" 
d="M710 1060q145 0 262.5 -60t186.5 -174t69 -261q0 -119 -43.5 -226.5t-119.5 -186.5t-185.5 -125.5t-234.5 -46.5q-222 0 -369.5 136.5t-147.5 358.5q0 119 43.5 226.5t119.5 186.5t185 125.5t234 46.5zM703 919q-186 0 -304 -126.5t-118 -308.5q0 -165 105 -264t267 -99
q186 0 304 126.5t118 309.5q0 164 -105.5 263t-266.5 99z" />
    <glyph glyph-name="one.osf" horiz-adv-x="733" 
d="M675 1063l-225 -1063h-151l182 859l-355 -99l31 157z" />
    <glyph glyph-name="two.osf" horiz-adv-x="1059" 
d="M253 759l-98 98q181 203 429 203q168 0 277 -92t109 -237q0 -144 -80.5 -239t-280.5 -203l-266 -144h567l-31 -145h-856l25 115l486 279q154 89 215 157.5t61 167.5q0 87 -69 141t-174 54q-68 0 -128 -22.5t-99 -53t-87 -79.5z" />
    <glyph glyph-name="three.osf" horiz-adv-x="1061" 
d="M233 752l-95 104q166 204 440 204q182 0 292 -93.5t110 -240.5q0 -124 -76 -227.5t-213 -154.5q84 -40 130.5 -112t46.5 -167q0 -186 -140 -313.5t-373 -127.5q-142 0 -252.5 46.5t-172.5 128.5l106 100q52 -64 137.5 -98.5t184.5 -34.5q169 0 262 86.5t93 212.5
q0 99 -74.5 156t-198.5 57h-174l31 141h160q160 0 262 86.5t102 201.5q0 93 -73 152t-186 59q-191 0 -329 -166z" />
    <glyph glyph-name="four.osf" horiz-adv-x="1099" 
d="M797 490l-74 -346h260l-31 -144h-260l-76 -360h-151l77 360h-597l28 130l618 910h162l-595 -896h414l75 346h150z" />
    <glyph glyph-name="five.osf" horiz-adv-x="1089" 
d="M1009 1040l-30 -144h-586l-102 -417h162q87 0 159 -18t122 -49.5t87.5 -75t54 -94.5t22 -108t-7.5 -116q-25 -132 -101.5 -223.5t-179.5 -132.5t-227 -41q-140 0 -254.5 55t-188.5 163l114 90q117 -162 335 -162q138 0 231.5 72t113.5 191q6 47 4 91t-24 83t-58 68
t-97.5 46t-142.5 17h-300l167 705h727z" />
    <glyph glyph-name="six.osf" horiz-adv-x="1134" 
d="M898 1400l-429 -535q65 29 138 29q120 0 221 -54t161 -151.5t60 -216.5q0 -99 -39 -189t-106.5 -156t-164 -105t-206.5 -39q-200 0 -334 118.5t-134 306.5q0 174 145 359l497 633h191zM574 751q-154 0 -252 -97.5t-98 -238.5q0 -128 89 -209t229 -81q152 0 250.5 98
t98.5 240q0 130 -90.5 209t-226.5 79z" />
    <glyph glyph-name="seven.osf" horiz-adv-x="1065" 
d="M1113 1040l-23 -126l-788 -1274h-181l785 1256h-748l31 144h924z" />
    <glyph glyph-name="eight.osf" horiz-adv-x="1185" 
d="M762 1418q110 0 205.5 -39.5t156.5 -117.5t61 -180q0 -128 -85 -232t-235 -151q94 -41 148.5 -112.5t54.5 -165.5q0 -188 -151.5 -313.5t-395.5 -125.5q-186 0 -316.5 94t-130.5 248q0 138 87.5 243t245.5 149q-80 40 -126 107t-46 154q0 88 36 167t101.5 140.5t166.5 98
t223 36.5zM611 638q-168 0 -270 -84t-102 -209q0 -101 83.5 -160.5t207.5 -59.5q170 0 274 82.5t104 209.5q0 100 -84.5 160.5t-212.5 60.5zM752 1274q-164 0 -259.5 -83t-95.5 -207q0 -96 74 -153.5t192 -57.5q160 0 259.5 82t99.5 201q0 99 -79.5 158.5t-190.5 59.5z" />
    <glyph glyph-name="nine.osf" horiz-adv-x="1134" 
d="M256 -359l428 534q-62 -27 -137 -27q-120 0 -221 53.5t-161 151t-60 216.5q0 99 39 189t106.5 156t164 105t206.5 39q131 0 237 -52.5t168.5 -150t62.5 -221.5q0 -175 -145 -360l-497 -633h-191zM580 290q153 0 251.5 98t98.5 239q0 127 -89 208t-229 81
q-152 0 -250.5 -98t-98.5 -240q0 -130 90 -209t227 -79z" />
    <glyph glyph-name="zero.tf" 
d="M753 1418q201 0 318.5 -129.5t117.5 -366.5q0 -181 -44.5 -349t-125.5 -300t-205 -211.5t-271 -79.5q-201 0 -318.5 129.5t-117.5 366.5q0 181 44.5 349t125.5 300t205 211.5t271 79.5zM749 1270q-110 0 -203 -68.5t-152.5 -179.5t-93 -248.5t-33.5 -280.5
q0 -176 74.5 -269.5t206.5 -93.5q110 0 202.5 68.5t152.5 179.5t93.5 248.5t33.5 280.5q0 176 -74.5 269.5t-206.5 93.5z" />
    <glyph glyph-name="one.tf" 
d="M122 147h374l224 1058l-426 -130l34 161l592 181l-270 -1270h385l-31 -147h-913z" />
    <glyph glyph-name="two.tf" 
d="M391 1096l-101 96q67 94 181 160t247 66q98 0 177 -30.5t127 -82.5t73.5 -116.5t25.5 -136.5q0 -129 -71 -242t-214 -239l-480 -424h629l-31 -147h-863l25 120l608 544q126 112 181 197t55 178q0 95 -65.5 163.5t-186.5 68.5q-94 0 -177 -49t-140 -126z" />
    <glyph glyph-name="three.tf" 
d="M381 1110l-97 105q168 203 444 203q185 0 296.5 -93.5t111.5 -240.5q0 -126 -74 -228.5t-210 -154.5q81 -41 126.5 -112.5t45.5 -163.5q0 -90 -36 -170.5t-101 -141t-163.5 -96t-216.5 -35.5q-144 0 -255.5 46.5t-174.5 128.5l106 101q53 -63 139.5 -97.5t186.5 -34.5
q171 0 264.5 86t93.5 211q0 99 -75.5 156t-200.5 57h-176l31 141h162q162 0 264.5 86.5t102.5 200.5q0 93 -73.5 151.5t-188.5 58.5q-194 0 -332 -164z" />
    <glyph glyph-name="four.tf" 
d="M965 830l-84 -390h239l-31 -146h-239l-62 -294h-154l62 294h-641l26 125l683 980h182l-669 -959h450l84 390h154z" />
    <glyph glyph-name="five.tf" 
d="M1160 1400l-31 -146h-590l-101 -414h162q88 0 160.5 -18t123 -49.5t88 -75t54.5 -95t22.5 -108.5t-7.5 -116q-37 -196 -177.5 -296.5t-333.5 -100.5q-142 0 -257 55t-190 163l116 91q117 -162 337 -162q139 0 233 71.5t114 190.5q6 47 4 91t-25 83t-59 68t-98 45.5
t-143 16.5h-302l167 706h733z" />
    <glyph glyph-name="six.tf" 
d="M941 1400l-431 -534q65 28 137 28q186 0 316 -120.5t130 -301.5q0 -99 -39 -189t-106.5 -156t-165 -105t-208.5 -39q-201 0 -336.5 118.5t-135.5 306.5q0 177 145 360l500 632h194zM615 750q-155 0 -253.5 -97t-98.5 -238q0 -127 89.5 -208t230.5 -81q152 0 251 98
t99 239q0 129 -90.5 208t-227.5 79z" />
    <glyph glyph-name="seven.tf" 
d="M1244 1400l-23 -127l-791 -1273h-184l789 1254h-753l31 146h931z" />
    <glyph glyph-name="eight.tf" 
d="M767 1418q112 0 210.5 -40t161.5 -120.5t63 -183.5q0 -126 -86.5 -227.5t-238.5 -148.5q97 -42 153 -113.5t56 -165.5q0 -188 -155.5 -313t-403.5 -125q-123 0 -226.5 40.5t-168 119.5t-64.5 183q0 138 89 242.5t250 148.5q-83 41 -130 107.5t-47 154.5t36.5 167
t103.5 140.5t170 97.5t227 36zM617 638q-174 0 -279.5 -84t-105.5 -209q0 -101 87 -160.5t216 -59.5q175 0 282.5 82.5t107.5 208.5q0 101 -87.5 161.5t-220.5 60.5zM757 1274q-169 0 -267 -83t-98 -206q0 -97 76.5 -154.5t199.5 -57.5q165 0 268 82t103 201
q0 99 -83.5 158.5t-198.5 59.5z" />
    <glyph glyph-name="nine.tf" 
d="M356 0l430 533q-62 -27 -137 -27q-186 0 -316 120.5t-130 301.5q0 203 148 346t371 143q202 0 337 -118.5t135 -306.5q0 -177 -145 -360l-499 -632h-194zM682 650q154 0 253 97t99 238q0 127 -90 208t-231 81q-151 0 -250 -98t-99 -239q0 -129 90.5 -208t227.5 -79z" />
    <glyph glyph-name="uni2007.tf" 
 />
    <glyph glyph-name="zero.tosf" 
d="M646 1059q211 0 348.5 -136t137.5 -355q0 -160 -69.5 -294.5t-196.5 -214t-285 -79.5q-209 0 -346.5 136.5t-137.5 355.5q0 160 69 294t196 213.5t284 79.5zM639 922q-173 0 -281.5 -128t-108.5 -313q0 -164 95.5 -263t244.5 -99q174 0 282 127.5t108 312.5
q0 164 -95 263.5t-245 99.5z" />
    <glyph glyph-name="one.tosf" 
d="M145 145l359 1l152 720l-404 -102l32 156l566 143l-196 -917l371 1l-31 -147h-880z" />
    <glyph glyph-name="two.tosf" 
d="M335 759l-98 98q181 203 429 203q168 0 277 -92t109 -237q0 -144 -80.5 -239t-280.5 -203l-266 -144h567l-31 -145h-856l25 115l486 279q154 89 215 157.5t61 167.5q0 87 -69 141t-174 54q-68 0 -128 -22.5t-99 -53t-87 -79.5z" />
    <glyph glyph-name="three.tosf" 
d="M308 752l-95 104q166 204 440 204q182 0 292 -93.5t110 -240.5q0 -124 -76 -227.5t-213 -154.5q84 -40 130.5 -112t46.5 -167q0 -186 -140 -313.5t-373 -127.5q-142 0 -252.5 46.5t-172.5 128.5l106 100q52 -64 137.5 -98.5t184.5 -34.5q169 0 262 86.5t93 212.5
q0 99 -74.5 156t-198.5 57h-174l31 141h160q160 0 262 86.5t102 201.5q0 93 -73 152t-186 59q-191 0 -329 -166z" />
    <glyph glyph-name="four.tosf" 
d="M873 490l-74 -346h260l-31 -144h-260l-76 -360h-151l77 360h-597l28 130l618 910h162l-595 -896h414l75 346h150z" />
    <glyph glyph-name="five.tosf" 
d="M1078 1040l-30 -144h-586l-102 -417h162q87 0 159 -18t122 -49.5t87.5 -75t54 -94.5t22 -108t-7.5 -116q-25 -132 -101.5 -223.5t-179.5 -132.5t-227 -41q-140 0 -254.5 55t-188.5 163l114 90q117 -162 335 -162q138 0 231.5 72t113.5 191q6 47 4 91t-24 83t-58 68
t-97.5 46t-142.5 17h-300l167 705h727z" />
    <glyph glyph-name="six.tosf" 
d="M946 1400l-429 -535q65 29 138 29q120 0 221 -54t161 -151.5t60 -216.5q0 -99 -39 -189t-106.5 -156t-164 -105t-206.5 -39q-200 0 -334 118.5t-134 306.5q0 174 145 359l497 633h191zM622 751q-154 0 -252 -97.5t-98 -238.5q0 -128 89 -209t229 -81q152 0 250.5 98
t98.5 240q0 130 -90.5 209t-226.5 79z" />
    <glyph glyph-name="seven.tosf" 
d="M1181 1040l-23 -126l-788 -1274h-181l785 1256h-748l31 144h924z" />
    <glyph glyph-name="eight.tosf" 
d="M766 1418q110 0 205.5 -39.5t156.5 -117.5t61 -180q0 -128 -85 -232t-235 -151q94 -41 148.5 -112.5t54.5 -165.5q0 -188 -151.5 -313.5t-395.5 -125.5q-186 0 -316.5 94t-130.5 248q0 138 87.5 243t245.5 149q-80 40 -126 107t-46 154q0 88 36 167t101.5 140.5t166.5 98
t223 36.5zM615 638q-168 0 -270 -84t-102 -209q0 -101 83.5 -160.5t207.5 -59.5q170 0 274 82.5t104 209.5q0 100 -84.5 160.5t-212.5 60.5zM756 1274q-164 0 -259.5 -83t-95.5 -207q0 -96 74 -153.5t192 -57.5q160 0 259.5 82t99.5 201q0 99 -79.5 158.5t-190.5 59.5z" />
    <glyph glyph-name="nine.tosf" 
d="M273 -359l428 534q-62 -27 -137 -27q-120 0 -221 53.5t-161 151t-60 216.5q0 99 39 189t106.5 156t164 105t206.5 39q131 0 237 -52.5t168.5 -150t62.5 -221.5q0 -175 -145 -360l-497 -633h-191zM597 290q153 0 251.5 98t98.5 239q0 127 -89 208t-229 81
q-152 0 -250.5 -98t-98.5 -240q0 -130 90 -209t227 -79z" />
    <glyph glyph-name="uni2007.tosf" 
 />
    <glyph glyph-name="exclam.sc" horiz-adv-x="505" 
d="M450 1043l-166 -684h-120l119 684h167zM177 203q44 0 77 -33t33 -77t-33 -77.5t-77 -33.5t-77.5 33.5t-33.5 77.5t33.5 77t77.5 33z" />
    <glyph glyph-name="numbersign.sc" horiz-adv-x="1128" 
d="M237 781h174l90 262h128l-90 -262h248l90 262h128l-90 -262h170l-39 -118h-172l-95 -277h171l-39 -120h-173l-91 -266h-127l91 266h-249l-91 -266h-127l91 266h-171l38 120h174l95 277h-173zM498 663l-95 -277h249l95 277h-249z" />
    <glyph glyph-name="dollar.sc" 
d="M1057 918l-74 -110q-100 68 -229 90l-68 -322q294 -53 294 -254q0 -136 -111.5 -224t-303.5 -90l-30 -143h-121l32 151q-197 30 -318 127l80 110q101 -85 265 -110l68 322l-5 1q-137 23 -211.5 88t-74.5 169q0 130 103 221.5t294 91.5h16l29 137h121l-32 -148
q153 -24 276 -107zM399 740q0 -57 42.5 -91t127.5 -52l66 311q-118 -1 -177 -51t-59 -117zM833 305q0 54 -43 87.5t-132 52.5l-65 -309q111 6 175.5 53t64.5 116z" />
    <glyph glyph-name="percent.sc" horiz-adv-x="1569" 
d="M448 1060q115 0 189.5 -70.5t74.5 -181.5q0 -120 -85 -205.5t-211 -85.5q-115 0 -190 70.5t-75 181.5q0 120 85.5 205.5t211.5 85.5zM442 948q-74 0 -122 -50.5t-48 -122.5q0 -64 42 -105t107 -41q74 0 122 50.5t48 122.5q0 64 -42 105t-107 41zM1282 1043l-826 -1043
h-147l826 1043h147zM1175 528q115 0 189.5 -71t74.5 -181q0 -120 -85 -205.5t-211 -85.5q-115 0 -189.5 71t-74.5 181q0 120 85.5 205.5t210.5 85.5zM1169 416q-73 0 -121 -50.5t-48 -121.5q0 -65 42 -106t106 -41q73 0 121.5 50.5t48.5 122.5q0 64 -42 105t-107 41z" />
    <glyph glyph-name="ampersand.sc" horiz-adv-x="1111" 
d="M915 563l93 -77l-228 -252l200 -234h-175l-117 137q-74 -71 -154.5 -111t-183.5 -40q-134 0 -219 67t-85 181q0 59 22 109.5t65 91t87 70t106 62.5q-54 69 -77.5 121t-23.5 108q0 111 77 186.5t214 75.5q120 0 197.5 -63.5t77.5 -161.5q0 -50 -21 -93.5t-62.5 -80.5
t-82.5 -64t-101 -59l177 -209zM369 108q68 0 124 30t116 90l-207 244q-101 -55 -155.5 -106.5t-54.5 -117.5q0 -62 50 -101t127 -39zM365 793q0 -33 17.5 -68.5t64.5 -95.5q49 25 80.5 44t62.5 44t46 51.5t15 56.5q0 49 -37.5 79.5t-100.5 30.5q-70 0 -109 -40.5t-39 -101.5
z" />
    <glyph glyph-name="parenleft.sc" horiz-adv-x="622" 
d="M621 1168l41 -122q-123 -38 -217 -138t-142 -229t-48 -266q0 -262 195 -410l-65 -119q-136 90 -206.5 224.5t-70.5 305.5q0 163 61.5 317.5t180 273t271.5 163.5z" />
    <glyph glyph-name="parenright.sc" horiz-adv-x="622" 
d="M23 -116l-41 122q123 38 217 138t142 229t48 266q0 262 -195 410l65 119q136 -90 206.5 -224.5t70.5 -305.5q0 -163 -61.5 -317.5t-180 -273t-271.5 -163.5z" />
    <glyph glyph-name="asterisk.sc" horiz-adv-x="731" 
d="M219 930l176 -78l38 191h108l-44 -198l199 48l12 -105l-201 -43l82 -157l-96 -53l-78 158l-144 -146l-75 72l145 141l-174 72z" />
    <glyph glyph-name="slash.sc" horiz-adv-x="751" 
d="M800 1043l-660 -1043h-168l661 1043h167z" />
    <glyph glyph-name="zero.sc" horiz-adv-x="1136" 
d="M652 1058q178 0 284.5 -113.5t106.5 -302.5q0 -115 -37 -230t-103.5 -210.5t-171 -155.5t-227.5 -60q-177 0 -283.5 113.5t-106.5 301.5q0 114 37 229t103.5 211t170.5 156.5t227 60.5zM646 921q-88 0 -162.5 -47.5t-121 -123t-72.5 -164t-26 -174.5q0 -134 67 -212
t180 -78q88 0 162.5 47.5t121 122.5t72 163.5t25.5 175.5q0 134 -66.5 212t-179.5 78z" />
    <glyph glyph-name="one.sc" horiz-adv-x="690" 
d="M146 892l487 163l-224 -1055h-143l183 854l-333 -112z" />
    <glyph glyph-name="two.sc" horiz-adv-x="888" 
d="M250 796l-88 93q55 71 144 119.5t198 48.5q155 0 239.5 -83t84.5 -200q0 -98 -54.5 -182t-170.5 -179l-340 -279h473l-27 -134h-686l23 113l459 384q93 78 134 138t41 124q0 67 -49.5 114.5t-139.5 47.5q-140 0 -241 -125z" />
    <glyph glyph-name="three.sc" horiz-adv-x="884" 
d="M231 811l-81 100q133 146 351 146q148 0 238.5 -73.5t90.5 -184.5q0 -89 -56 -164.5t-157 -114.5q62 -32 96.5 -85.5t34.5 -121.5q0 -138 -109.5 -232.5t-297.5 -94.5q-115 0 -203.5 36t-137.5 99l95 90q40 -45 105.5 -70t141.5 -25q126 0 193 57t67 141q0 68 -56.5 108
t-150.5 40h-136l27 129h127q120 0 194 57.5t74 133.5q0 64 -55 104.5t-141 40.5q-147 0 -254 -116z" />
    <glyph glyph-name="four.sc" horiz-adv-x="897" 
d="M707 632l-61 -288h177l-27 -134h-179l-44 -210h-143l45 210h-485l23 114l504 718h164l-491 -698h313l61 288h143z" />
    <glyph glyph-name="five.sc" horiz-adv-x="909" 
d="M849 1043l-27 -133h-452l-70 -278h117q197 0 287.5 -101t62.5 -247q-28 -147 -139 -222.5t-267 -75.5q-111 0 -202.5 40t-149.5 117l96 89q94 -114 261 -114q104 0 172.5 48t82.5 129q16 90 -40.5 149t-200.5 59h-239l129 540h579z" />
    <glyph glyph-name="six.sc" horiz-adv-x="909" 
d="M707 1043l-315 -380q32 9 69 9q147 0 247 -88.5t100 -227.5q0 -153 -113.5 -261t-286.5 -108q-156 0 -261.5 90t-105.5 232q0 136 115 277l371 457h180zM436 545q-108 0 -176.5 -66.5t-68.5 -162.5q0 -88 62.5 -144t161.5 -56q106 0 175 67t69 164q0 88 -63.5 143
t-159.5 55z" />
    <glyph glyph-name="seven.sc" horiz-adv-x="865" 
d="M916 1043l-23 -119l-597 -924h-168l596 909h-573l27 134h738z" />
    <glyph glyph-name="eight.sc" horiz-adv-x="984" 
d="M583 1057q138 0 239.5 -70.5t101.5 -184.5q0 -95 -64 -170.5t-176 -111.5q76 -31 120 -84.5t44 -124.5q0 -139 -120.5 -232.5t-316.5 -93.5q-152 0 -257.5 71t-105.5 189q0 100 68 177t190 111q-66 30 -103.5 80t-37.5 117q0 136 113.5 231.5t304.5 95.5zM474 467
q-122 0 -196.5 -57t-74.5 -143q0 -70 62.5 -112t154.5 -42q124 0 200.5 56.5t76.5 143.5q0 70 -63.5 112t-159.5 42zM573 928q-118 0 -187.5 -56t-69.5 -140q0 -67 55.5 -106.5t144.5 -39.5q115 0 187 55.5t72 136.5q0 68 -59 109t-143 41z" />
    <glyph glyph-name="nine.sc" horiz-adv-x="909" 
d="M222 0l313 379q-32 -8 -68 -8q-146 0 -246 88.5t-100 227.5q0 153 113 261t286 108q157 0 262.5 -89.5t105.5 -232.5q0 -136 -115 -277l-371 -457h-180zM493 498q108 0 176.5 66.5t68.5 162.5q0 88 -62.5 144t-161.5 56q-106 0 -175 -67t-69 -164q0 -88 63 -143t160 -55z
" />
    <glyph glyph-name="question.sc" horiz-adv-x="701" 
d="M291 353h-127l49 236h63q132 0 199.5 46.5t67.5 126.5q0 72 -73 114t-189 43q-28 0 -60 -2l5 140q35 3 75 3q175 0 286 -76.5t111 -205.5q0 -133 -97 -216t-280 -95zM184 203q44 0 77 -33t33 -77t-33 -77.5t-77 -33.5t-77 33.5t-33 77.5t33 77t77 33z" />
    <glyph glyph-name="at.sc" horiz-adv-x="1469" 
d="M980 118l58 -87q-143 -101 -346 -101q-157 0 -283.5 66t-199.5 189t-73 282q0 179 85.5 330.5t241.5 242t350 90.5q239 0 396 -139.5t157 -363.5q0 -167 -79 -282.5t-208 -115.5q-123 0 -168 100q-82 -90 -203 -90q-116 0 -190.5 72t-74.5 186q0 132 89.5 230t217.5 98
q139 0 199 -104l20 92h113l-69 -326q-8 -40 -8 -57q0 -47 22.5 -72t60.5 -25q70 0 114 86t44 205q0 180 -123 290t-317 110q-119 0 -222 -44.5t-174 -119.5t-111.5 -176t-40.5 -213q0 -200 125 -317t318 -117q160 0 279 81zM760 716q-84 0 -141 -62.5t-57 -148.5
q0 -71 44 -115t114 -44q85 0 142.5 62.5t57.5 149.5q0 70 -45 114t-115 44z" />
    <glyph glyph-name="bracketleft.sc" horiz-adv-x="612" 
d="M443 28l-26 -125h-359l264 1239h359l-26 -126h-219l-211 -988h218z" />
    <glyph glyph-name="backslash.sc" horiz-adv-x="1194" 
d="M853 0l-660 1043h167l661 -1043h-168z" />
    <glyph glyph-name="bracketright.sc" horiz-adv-x="612" 
d="M190 1016l26 125h359l-264 -1239h-359l26 126h219l211 988h-218z" />
    <glyph glyph-name="a.sc" horiz-adv-x="1126" 
d="M773 1043l222 -1043h-152l-56 274h-524l-171 -274h-162l663 1043h180zM658 904l-310 -494h411z" />
    <glyph glyph-name="b.sc" horiz-adv-x="1134" 
d="M302 1043h412q157 0 252.5 -69t95.5 -186q0 -89 -53 -162t-156 -105q78 -31 116.5 -99.5t18.5 -154.5q-35 -148 -146.5 -207.5t-316.5 -59.5h-446zM615 463h-287l-70 -332h285q130 0 202 33.5t91 115.5q21 92 -39 137.5t-182 45.5zM688 911h-264l-68 -317h268
q146 0 215.5 48t69.5 134q0 68 -61 101.5t-160 33.5z" />
    <glyph glyph-name="c.sc" horiz-adv-x="1158" 
d="M918 269l102 -93q-75 -92 -179 -141t-227 -49q-217 0 -357.5 136.5t-140.5 351.5q0 164 75 298t207.5 210t295.5 76q51 0 101.5 -9t112 -31t118 -70.5t95.5 -117.5l-121 -82q-48 85 -132.5 126.5t-181.5 41.5q-176 0 -296 -124t-120 -307q0 -158 100.5 -258t250.5 -100
q87 0 164 37.5t133 104.5z" />
    <glyph glyph-name="d.sc" horiz-adv-x="1231" 
d="M302 1043h355q225 0 355 -119.5t130 -313.5q0 -128 -44 -239t-126 -193.5t-208.5 -130t-282.5 -47.5h-402zM641 905h-219l-163 -767h239q230 0 359 127.5t129 327.5q0 143 -88 227.5t-257 84.5z" />
    <glyph glyph-name="e.sc" horiz-adv-x="1088" 
d="M951 593l-28 -135h-596l-69 -323h622l-28 -135h-773l223 1043h763l-27 -136h-615l-67 -314h595z" />
    <glyph glyph-name="f.sc" horiz-adv-x="1045" 
d="M944 588l-28 -136h-590l-96 -452h-151l223 1043h755l-28 -136h-606l-68 -319h589z" />
    <glyph glyph-name="g.sc" horiz-adv-x="1254" 
d="M1082 883l-112 -97q-104 131 -286 131q-174 0 -294 -124.5t-120 -313.5q0 -160 99.5 -257.5t257.5 -97.5q146 0 242.5 82.5t124.5 229.5h-317l27 124h454q0 -32 -4 -60q-28 -235 -175 -374.5t-362 -139.5q-217 0 -359 135.5t-142 347.5q0 166 76.5 301t209.5 211t294 76
q44 0 88.5 -7t99 -24.5t106.5 -54t92 -88.5z" />
    <glyph glyph-name="h.sc" horiz-adv-x="1272" 
d="M451 1043l-95 -449h610l96 449h150l-222 -1043h-150l97 456h-611l-96 -456h-151l222 1043h150z" />
    <glyph glyph-name="i.sc" horiz-adv-x="512" 
d="M452 1043l-222 -1043h-151l223 1043h150z" />
    <glyph glyph-name="j.sc" horiz-adv-x="903" 
d="M851 1043l-144 -684q-78 -373 -410 -373q-101 0 -187 39t-135 104l96 103q36 -45 96 -75t130 -30q211 0 266 262l138 654h150z" />
    <glyph glyph-name="k.sc" horiz-adv-x="1112" 
d="M452 1043l-96 -450h118l492 450h195l-583 -521l421 -522h-175l-365 457h-132l-97 -457h-151l223 1043h150z" />
    <glyph glyph-name="l.sc" horiz-adv-x="972" 
d="M452 1043l-193 -905h605l-29 -138h-756l223 1043h150z" />
    <glyph glyph-name="m.sc" horiz-adv-x="1508" 
d="M1448 1043l-221 -1043h-151l182 851l-497 -737h-157l-192 742l-182 -856h-151l222 1043h211l196 -763l513 763h227z" />
    <glyph glyph-name="n.sc" horiz-adv-x="1293" 
d="M1232 1043l-221 -1043h-140l-467 817l-174 -817h-151l223 1043h140l466 -817l174 817h150z" />
    <glyph glyph-name="o.sc" horiz-adv-x="1290" 
d="M693 1058q217 0 359.5 -134t142.5 -352q0 -159 -73 -293t-206 -214t-298 -80q-218 0 -360.5 133.5t-142.5 351.5q0 159 73 293.5t206.5 214.5t298.5 80zM683 916q-179 0 -296 -128t-117 -308q0 -160 100.5 -256.5t257.5 -96.5q118 0 213.5 59.5t147.5 159t52 216.5
q0 160 -101 257t-257 97z" />
    <glyph glyph-name="p.sc" horiz-adv-x="1069" 
d="M585 401h-270l-85 -401h-151l223 1043h379q167 0 261 -77.5t94 -204.5q0 -161 -117 -260.5t-334 -99.5zM667 907h-244l-79 -372h246q145 0 219 58t74 154q0 76 -56.5 118t-159.5 42z" />
    <glyph glyph-name="q.sc" horiz-adv-x="1290" 
d="M693 1058q217 0 359.5 -134t142.5 -352q0 -209 -125 -370l139 -202h-167l-72 103q-151 -118 -352 -118q-218 0 -360.5 133.5t-142.5 351.5q0 159 73 293.5t206.5 214.5t298.5 80zM683 916q-179 0 -296 -128t-117 -308q0 -160 100.5 -256.5t257.5 -96.5q148 0 259 92
l-203 294h167l128 -184q62 105 62 233q0 160 -101 257t-257 97z" />
    <glyph glyph-name="r.sc" horiz-adv-x="1115" 
d="M302 1043h402q165 0 257 -75.5t92 -194.5q0 -65 -24 -123t-73 -106.5t-134.5 -77t-198.5 -28.5h-21l341 -438h-174l-329 438h-117l-93 -438h-151zM688 906h-265l-73 -339h281q138 0 203.5 53.5t65.5 138.5q0 68 -55 107.5t-157 39.5z" />
    <glyph glyph-name="s.sc" horiz-adv-x="1086" 
d="M1027 934l-79 -117q-149 103 -352 103q-129 0 -194 -51t-65 -121q0 -62 52 -98t157 -53l85 -14q147 -24 231 -90t84 -179q0 -144 -120.5 -236.5t-327.5 -92.5q-109 0 -233.5 34.5t-215.5 106.5l85 118q76 -62 179.5 -92t191.5 -30q131 0 207 48.5t76 124.5q0 61 -55 97.5
t-167 54.5l-88 14q-144 23 -222 91t-78 177q0 65 26.5 123t77 104.5t133 74t186.5 27.5q248 0 426 -124z" />
    <glyph glyph-name="t.sc" horiz-adv-x="952" 
d="M1036 1043l-29 -139h-362l-192 -904h-151l192 904h-366l29 139h879z" />
    <glyph glyph-name="u.sc" horiz-adv-x="1219" 
d="M1177 1043l-137 -642q-44 -209 -174.5 -312t-329.5 -103q-177 0 -287 84.5t-110 244.5q0 51 12 109l132 619h151l-134 -620q-9 -45 -9 -84q0 -107 69.5 -159.5t186.5 -52.5q132 0 223.5 71.5t122.5 217.5l133 627h151z" />
    <glyph glyph-name="v.sc" horiz-adv-x="1106" 
d="M1197 1043l-647 -1043h-179l-219 1043h150l182 -903l553 903h160z" />
    <glyph glyph-name="w.sc" horiz-adv-x="1720" 
d="M1793 1043l-565 -1043h-175l-112 847l-450 -847h-181l-139 1043h149l111 -884l464 884h157l114 -884l470 884h157z" />
    <glyph glyph-name="x.sc" horiz-adv-x="1057" 
d="M1113 1043l-492 -520l284 -523h-162l-226 419l-395 -419h-183l507 534l-272 509h163l212 -408l383 408h181z" />
    <glyph glyph-name="y.sc" horiz-adv-x="1014" 
d="M1126 1043l-554 -621l-90 -422h-151l93 435l-294 608h159l231 -472l423 472h183z" />
    <glyph glyph-name="z.sc" horiz-adv-x="1072" 
d="M1066 1043l-24 -119l-788 -788h646l-28 -136h-844l25 122l787 785h-640l29 136h837z" />
    <glyph glyph-name="braceleft.sc" horiz-adv-x="646" 
d="M700 1142l-25 -124h-31q-84 0 -133 -39t-63 -130l-14 -89q-16 -103 -65.5 -161.5t-138.5 -81.5q74 -29 99 -89.5t3 -143.5l-24 -91q-22 -81 12.5 -124t110.5 -43h47l-26 -123h-54q-141 0 -201.5 89t-22.5 227l21 76q22 81 -17 123.5t-125 42.5l24 122q96 0 149 42t66 132
l15 106q42 279 342 279h51z" />
    <glyph glyph-name="braceright.sc" horiz-adv-x="646" 
d="M-33 -98l25 124h31q84 0 133 39t63 130l14 89q16 103 65.5 161.5t138.5 81.5q-74 29 -99 89.5t-3 143.5l24 91q22 81 -12.5 124t-110.5 43h-47l26 123h54q141 0 201.5 -89t22.5 -227l-21 -76q-22 -81 17 -123.5t125 -42.5l-24 -122q-96 0 -149 -42t-66 -132l-15 -106
q-42 -279 -342 -279h-51z" />
    <glyph glyph-name="exclamdown.sc" horiz-adv-x="506" 
d="M76 0l166 684h120l-119 -684h-167zM349 840q-44 0 -77 33t-33 77t33 77.5t77 33.5t77.5 -33.5t33.5 -77.5t-33.5 -77t-77.5 -33z" />
    <glyph glyph-name="cent.sc" 
d="M978 740l-108 -67q-51 61 -126 81l-101 -476q103 8 175 77l84 -84q-110 -119 -284 -119h-1l-32 -152h-121l36 168q-112 32 -177.5 118.5t-65.5 202.5q0 161 112.5 276.5t283.5 122.5l33 155h120l-35 -164q133 -30 207 -139zM396 498q0 -70 35.5 -124t95.5 -79l99 465
q-100 -15 -165 -89t-65 -173z" />
    <glyph glyph-name="sterling.sc" 
d="M930 134l-28 -134h-790l28 134h133l69 329h-132l25 117h132l28 132q36 170 142 257.5t252 87.5q194 0 280 -130l-119 -79q-58 73 -171 73q-90 0 -155.5 -56.5t-91.5 -178.5l-23 -106h390l-25 -117h-390l-69 -329h515z" />
    <glyph glyph-name="currency.sc" 
d="M969 889l66 -82l-127 -105q52 -90 39 -198q-13 -109 -91 -195l74 -94l-91 -73l-73 93q-92 -54 -197 -48q-109 6 -188 74l-130 -108l-66 84l127 104q-52 90 -39 198q15 112 90 193l-73 95l89 75l75 -96q94 55 198 49q105 -6 187 -73zM583 297q94 -5 167.5 57t85.5 156
q11 93 -46 162t-151 73q-95 5 -169 -56.5t-86 -155.5q-11 -94 46.5 -163t152.5 -73z" />
    <glyph glyph-name="yen.sc" 
d="M951 329l-21 -100h-300l-49 -229h-143l49 229h-288l21 100h288l28 134h-286l20 100h237l-240 480h158l206 -419l384 419h174l-439 -480h251l-21 -100h-301l-28 -134h300z" />
    <glyph glyph-name="section.sc" horiz-adv-x="985" 
d="M961 953l-81 -107q-126 85 -282 85q-99 0 -169.5 -35.5t-81.5 -89.5q-13 -67 35 -100t150 -46l73 -9q144 -17 215 -84.5t49 -171.5q-25 -118 -148 -177q84 -71 62 -187q-24 -122 -139 -189.5t-273 -67.5q-111 0 -214.5 33.5t-162.5 87.5l87 104q50 -41 128.5 -70
t168.5 -29q104 0 176 35t84 94q13 65 -37.5 97t-159.5 46l-78 10q-136 18 -203.5 82t-46.5 164q24 118 150 180q-85 71 -60 196q23 113 134 183t266 70q214 0 358 -104zM444 541q-36 5 -65 12q-50 -17 -83 -47t-41 -68q-13 -61 38.5 -92.5t160.5 -44.5l73 -8q32 -3 83 -17
q104 38 119 110q14 65 -41 100t-166 47z" />
    <glyph glyph-name="copyright.sc" horiz-adv-x="1469" 
d="M705 -66q-153 0 -282.5 71t-206.5 199t-77 284q0 123 51 239t137 203t207 140t253 53q114 0 218 -42t180.5 -115t122 -177t45.5 -221q0 -123 -51 -239t-137 -203t-207 -139.5t-253 -52.5zM779 1006q-141 0 -261 -72t-188 -189.5t-68 -249.5q0 -190 132.5 -317.5
t317.5 -127.5q142 0 262.5 72.5t188 190t67.5 249.5q0 126 -62 228.5t-165 159t-224 56.5zM1054 685l-106 -52q-25 49 -70.5 73t-97.5 24q-92 0 -151.5 -64.5t-59.5 -157.5q0 -82 52 -131.5t129 -49.5q106 0 171 88l85 -66q-95 -132 -262 -132q-125 0 -210.5 77.5
t-85.5 206.5q0 141 95 240t242 99q91 0 164 -41.5t105 -113.5z" />
    <glyph glyph-name="degree.sc" horiz-adv-x="637" 
d="M370 531q-109 0 -183.5 72.5t-74.5 175.5q0 116 84 199.5t209 83.5q108 0 182.5 -72.5t74.5 -175.5q0 -115 -85 -199t-207 -84zM376 640q68 0 118.5 49.5t50.5 117.5q0 61 -43 103.5t-104 42.5q-68 0 -119 -50t-51 -117q0 -61 43 -103.5t105 -42.5z" />
    <glyph glyph-name="questiondown.sc" horiz-adv-x="701" 
d="M431 691h127l-49 -236h-63q-132 0 -199.5 -46.5t-67.5 -126.5q0 -72 73 -114t189 -43q28 0 60 2l-5 -140q-34 -3 -75 -3q-175 0 -286 76.5t-111 205.5q0 133 97 216t280 95zM538 841q-44 0 -77 33t-33 77t33 77.5t77 33.5t77 -33.5t33 -77.5t-33 -77t-77 -33z" />
    <glyph glyph-name="germandbls.sc" horiz-adv-x="2159" 
d="M1027 934l-79 -117q-149 103 -352 103q-129 0 -194 -51t-65 -121q0 -62 52 -98t157 -53l85 -14q147 -24 231 -90t84 -179q0 -144 -120.5 -236.5t-327.5 -92.5q-109 0 -233.5 34.5t-215.5 106.5l85 118q76 -62 179.5 -92t191.5 -30q131 0 207 48.5t76 124.5q0 61 -55 97.5
t-167 54.5l-88 14q-144 23 -222 91t-78 177q0 65 26.5 123t77 104.5t133 74t186.5 27.5q248 0 426 -124zM2100 934l-79 -117q-149 103 -352 103q-129 0 -194 -51t-65 -121q0 -62 52 -98t157 -53l85 -14q147 -24 231 -90t84 -179q0 -144 -120.5 -236.5t-327.5 -92.5
q-109 0 -233.5 34.5t-215.5 106.5l85 118q76 -62 179.5 -92t191.5 -30q131 0 207 48.5t76 124.5q0 61 -55 97.5t-167 54.5l-88 14q-144 23 -222 91t-78 177q0 65 26.5 123t77 104.5t133 74t186.5 27.5q248 0 426 -124z" />
    <glyph glyph-name="agrave.sc" horiz-adv-x="1126" 
d="M773 1043l222 -1043h-152l-56 274h-524l-171 -274h-162l663 1043h180zM658 904l-310 -494h411zM682 1188l-251 300h189l210 -300h-148z" />
    <glyph glyph-name="aacute.sc" horiz-adv-x="1126" 
d="M773 1043l222 -1043h-152l-56 274h-524l-171 -274h-162l663 1043h180zM658 904l-310 -494h411zM722 1188h-153l241 300h194z" />
    <glyph glyph-name="acircumflex.sc" horiz-adv-x="1126" 
d="M773 1043l222 -1043h-152l-56 274h-524l-171 -274h-162l663 1043h180zM658 904l-310 -494h411zM1028 1188h-157l-130 198l-209 -198h-168l288 289h200z" />
    <glyph glyph-name="atilde.sc" horiz-adv-x="1126" 
d="M773 1043l222 -1043h-152l-56 274h-524l-171 -274h-162l663 1043h180zM658 904l-310 -494h411zM432 1233l-71 100q53 56 106 82t121 26q60 0 106.5 -20t82 -40t67.5 -20q41 0 76 19.5t79 60.5l71 -101q-53 -56 -106.5 -81.5t-120.5 -25.5q-46 0 -86 12.5t-63 27t-52 27
t-56 12.5q-70 0 -154 -79z" />
    <glyph glyph-name="adieresis.sc" horiz-adv-x="1126" 
d="M773 1043l222 -1043h-152l-56 274h-524l-171 -274h-162l663 1043h180zM658 904l-310 -494h411zM530 1437q44 0 75 -31t31 -76t-30.5 -75t-75.5 -30t-75.5 30t-30.5 75t30.5 76t75.5 31zM936 1437q44 0 75 -31t31 -76t-30.5 -75t-75.5 -30t-75 30t-30 75t30 76t75 31z" />
    <glyph glyph-name="aring.sc" horiz-adv-x="1126" 
d="M773 1043l222 -1043h-152l-56 274h-524l-171 -274h-162l663 1043h180zM658 904l-310 -494h411zM719 1168q-93 0 -160 66t-67 159q0 92 67 158t160 66q94 0 161 -66t67 -158q0 -93 -67 -159t-161 -66zM719 1263q53 0 90.5 38t37.5 92q0 53 -37.5 90.5t-90.5 37.5
t-90 -37.5t-37 -90.5q0 -55 37 -92.5t90 -37.5z" />
    <glyph glyph-name="ae.sc" horiz-adv-x="1806" 
d="M1598 135l-28 -135h-773l54 256h-488l-249 -256h-190l1029 1043h830l-27 -136h-615l-67 -314h595l-28 -135h-596l-69 -323h622zM497 393h384l108 504z" />
    <glyph glyph-name="ccedilla.sc" horiz-adv-x="1158" 
d="M925 277l96 -101q-136 -167 -352 -187l-156 -312h-168l172 317q-179 30 -289.5 160.5t-110.5 319.5q0 164 75 298t207.5 210t295.5 76q51 0 101.5 -9t112 -31t118 -70.5t95.5 -117.5l-121 -82q-48 85 -132.5 126.5t-181.5 41.5q-176 0 -296 -124t-120 -307
q0 -158 100.5 -258t250.5 -100q89 0 168.5 39.5t134.5 110.5z" />
    <glyph glyph-name="egrave.sc" horiz-adv-x="1088" 
d="M951 593l-28 -135h-596l-69 -323h622l-28 -135h-773l223 1043h763l-27 -136h-615l-67 -314h595zM692 1188l-251 300h189l210 -300h-148z" />
    <glyph glyph-name="eacute.sc" horiz-adv-x="1088" 
d="M951 593l-28 -135h-596l-69 -323h622l-28 -135h-773l223 1043h763l-27 -136h-615l-67 -314h595zM732 1188h-153l241 300h194z" />
    <glyph glyph-name="ecircumflex.sc" horiz-adv-x="1088" 
d="M951 593l-28 -135h-596l-69 -323h622l-28 -135h-773l223 1043h763l-27 -136h-615l-67 -314h595zM1038 1188h-157l-130 198l-209 -198h-168l288 289h200z" />
    <glyph glyph-name="edieresis.sc" horiz-adv-x="1088" 
d="M951 593l-28 -135h-596l-69 -323h622l-28 -135h-773l223 1043h763l-27 -136h-615l-67 -314h595zM540 1437q44 0 75 -31t31 -76t-30.5 -75t-75.5 -30t-75.5 30t-30.5 75t30.5 76t75.5 31zM946 1437q44 0 75 -31t31 -76t-30.5 -75t-75.5 -30t-75 30t-30 75t30 76t75 31z
" />
    <glyph glyph-name="igrave.sc" horiz-adv-x="512" 
d="M452 1043l-222 -1043h-151l223 1043h150zM380 1188l-251 300h189l210 -300h-148z" />
    <glyph glyph-name="iacute.sc" horiz-adv-x="512" 
d="M452 1043l-222 -1043h-151l223 1043h150zM420 1188h-153l241 300h194z" />
    <glyph glyph-name="icircumflex.sc" horiz-adv-x="512" 
d="M452 1043l-222 -1043h-151l223 1043h150zM726 1188h-157l-130 198l-209 -198h-168l288 289h200z" />
    <glyph glyph-name="idieresis.sc" horiz-adv-x="512" 
d="M452 1043l-222 -1043h-151l223 1043h150zM228 1437q44 0 75 -31t31 -76t-30.5 -75t-75.5 -30t-75.5 30t-30.5 75t30.5 76t75.5 31zM634 1437q44 0 75 -31t31 -76t-30.5 -75t-75.5 -30t-75 30t-30 75t30 76t75 31z" />
    <glyph glyph-name="eth.sc" horiz-adv-x="1373" 
d="M444 1043h355q225 0 355 -119.5t130 -313.5q0 -128 -44 -239t-126 -193.5t-208.5 -130t-282.5 -47.5h-402l98 461h-213l28 136h214zM786 597l-28 -136h-288l-69 -323h239q230 0 359 127.5t129 327.5q0 143 -88 227.5t-257 84.5h-219l-65 -308h287z" />
    <glyph glyph-name="ntilde.sc" horiz-adv-x="1293" 
d="M1232 1043l-221 -1043h-140l-467 817l-174 -817h-151l223 1043h140l466 -817l174 817h150zM511 1233l-71 100q53 56 106 82t121 26q60 0 106.5 -20t82 -40t67.5 -20q41 0 76 19.5t79 60.5l71 -101q-53 -56 -106.5 -81.5t-120.5 -25.5q-46 0 -86 12.5t-63 27t-52 27
t-56 12.5q-70 0 -154 -79z" />
    <glyph glyph-name="ograve.sc" horiz-adv-x="1290" 
d="M693 1058q217 0 359.5 -134t142.5 -352q0 -159 -73 -293t-206 -214t-298 -80q-218 0 -360.5 133.5t-142.5 351.5q0 159 73 293.5t206.5 214.5t298.5 80zM683 916q-179 0 -296 -128t-117 -308q0 -160 100.5 -256.5t257.5 -96.5q118 0 213.5 59.5t147.5 159t52 216.5
q0 160 -101 257t-257 97zM722 1188l-251 300h189l210 -300h-148z" />
    <glyph glyph-name="oacute.sc" horiz-adv-x="1290" 
d="M693 1058q217 0 359.5 -134t142.5 -352q0 -159 -73 -293t-206 -214t-298 -80q-218 0 -360.5 133.5t-142.5 351.5q0 159 73 293.5t206.5 214.5t298.5 80zM683 916q-179 0 -296 -128t-117 -308q0 -160 100.5 -256.5t257.5 -96.5q118 0 213.5 59.5t147.5 159t52 216.5
q0 160 -101 257t-257 97zM762 1188h-153l241 300h194z" />
    <glyph glyph-name="ocircumflex.sc" horiz-adv-x="1290" 
d="M693 1058q217 0 359.5 -134t142.5 -352q0 -159 -73 -293t-206 -214t-298 -80q-218 0 -360.5 133.5t-142.5 351.5q0 159 73 293.5t206.5 214.5t298.5 80zM683 916q-179 0 -296 -128t-117 -308q0 -160 100.5 -256.5t257.5 -96.5q118 0 213.5 59.5t147.5 159t52 216.5
q0 160 -101 257t-257 97zM1068 1188h-157l-130 198l-209 -198h-168l288 289h200z" />
    <glyph glyph-name="otilde.sc" horiz-adv-x="1290" 
d="M693 1058q217 0 359.5 -134t142.5 -352q0 -159 -73 -293t-206 -214t-298 -80q-218 0 -360.5 133.5t-142.5 351.5q0 159 73 293.5t206.5 214.5t298.5 80zM683 916q-179 0 -296 -128t-117 -308q0 -160 100.5 -256.5t257.5 -96.5q118 0 213.5 59.5t147.5 159t52 216.5
q0 160 -101 257t-257 97zM472 1233l-71 100q53 56 106 82t121 26q60 0 106.5 -20t82 -40t67.5 -20q41 0 76 19.5t79 60.5l71 -101q-53 -56 -106.5 -81.5t-120.5 -25.5q-46 0 -86 12.5t-63 27t-52 27t-56 12.5q-70 0 -154 -79z" />
    <glyph glyph-name="odieresis.sc" horiz-adv-x="1290" 
d="M693 1058q217 0 359.5 -134t142.5 -352q0 -159 -73 -293t-206 -214t-298 -80q-218 0 -360.5 133.5t-142.5 351.5q0 159 73 293.5t206.5 214.5t298.5 80zM683 916q-179 0 -296 -128t-117 -308q0 -160 100.5 -256.5t257.5 -96.5q118 0 213.5 59.5t147.5 159t52 216.5
q0 160 -101 257t-257 97zM570 1437q44 0 75 -31t31 -76t-30.5 -75t-75.5 -30t-75.5 30t-30.5 75t30.5 76t75.5 31zM976 1437q44 0 75 -31t31 -76t-30.5 -75t-75.5 -30t-75 30t-30 75t30 76t75 31z" />
    <glyph glyph-name="oslash.sc" horiz-adv-x="1290" 
d="M693 1058q203 0 341 -118l140 124l81 -91l-140 -124q80 -119 80 -277q0 -159 -73 -293t-206 -214t-298 -80q-205 0 -342 117l-136 -121l-81 90l136 121q-80 119 -80 278t73 293.5t206.5 214.5t298.5 80zM683 916q-179 0 -296 -128t-117 -308q0 -102 44 -182l605 539
q-96 79 -236 79zM1041 562q0 102 -44 182l-606 -539q97 -78 237 -78q118 0 213.5 59.5t147.5 159t52 216.5z" />
    <glyph glyph-name="ugrave.sc" horiz-adv-x="1219" 
d="M1177 1043l-137 -642q-44 -209 -174.5 -312t-329.5 -103q-177 0 -287 84.5t-110 244.5q0 51 12 109l132 619h151l-134 -620q-9 -45 -9 -84q0 -107 69.5 -159.5t186.5 -52.5q132 0 223.5 71.5t122.5 217.5l133 627h151zM740 1188l-251 300h189l210 -300h-148z" />
    <glyph glyph-name="uacute.sc" horiz-adv-x="1219" 
d="M1177 1043l-137 -642q-44 -209 -174.5 -312t-329.5 -103q-177 0 -287 84.5t-110 244.5q0 51 12 109l132 619h151l-134 -620q-9 -45 -9 -84q0 -107 69.5 -159.5t186.5 -52.5q132 0 223.5 71.5t122.5 217.5l133 627h151zM780 1188h-153l241 300h194z" />
    <glyph glyph-name="ucircumflex.sc" horiz-adv-x="1219" 
d="M1177 1043l-137 -642q-44 -209 -174.5 -312t-329.5 -103q-177 0 -287 84.5t-110 244.5q0 51 12 109l132 619h151l-134 -620q-9 -45 -9 -84q0 -107 69.5 -159.5t186.5 -52.5q132 0 223.5 71.5t122.5 217.5l133 627h151zM1086 1188h-157l-130 198l-209 -198h-168l288 289
h200z" />
    <glyph glyph-name="udieresis.sc" horiz-adv-x="1219" 
d="M1177 1043l-137 -642q-44 -209 -174.5 -312t-329.5 -103q-177 0 -287 84.5t-110 244.5q0 51 12 109l132 619h151l-134 -620q-9 -45 -9 -84q0 -107 69.5 -159.5t186.5 -52.5q132 0 223.5 71.5t122.5 217.5l133 627h151zM588 1437q44 0 75 -31t31 -76t-30.5 -75t-75.5 -30
t-75.5 30t-30.5 75t30.5 76t75.5 31zM994 1437q44 0 75 -31t31 -76t-30.5 -75t-75.5 -30t-75 30t-30 75t30 76t75 31z" />
    <glyph glyph-name="yacute.sc" horiz-adv-x="1014" 
d="M1126 1043l-554 -621l-90 -422h-151l93 435l-294 608h159l231 -472l423 472h183zM661 1188h-153l241 300h194z" />
    <glyph glyph-name="thorn.sc" horiz-adv-x="1078" 
d="M452 1043l-40 -189h240q166 0 259.5 -77.5t93.5 -204.5q0 -161 -117 -260.5t-334 -99.5h-279l-45 -212h-151l223 1043h150zM636 718h-253l-79 -371h257q144 0 217.5 58t73.5 154q0 76 -56 117.5t-160 41.5z" />
    <glyph glyph-name="ydieresis.sc" horiz-adv-x="1014" 
d="M1126 1043l-554 -621l-90 -422h-151l93 435l-294 608h159l231 -472l423 472h183zM469 1437q44 0 75 -31t31 -76t-30.5 -75t-75.5 -30t-75.5 30t-30.5 75t30.5 76t75.5 31zM875 1437q44 0 75 -31t31 -76t-30.5 -75t-75.5 -30t-75 30t-30 75t30 76t75 31z" />
    <glyph glyph-name="dotlessi.sc" horiz-adv-x="512" 
d="M452 1043l-222 -1043h-151l223 1043h150z" />
    <glyph glyph-name="ij.sc" horiz-adv-x="1415" 
d="M452 1043l-222 -1043h-151l223 1043h150zM1363 1043l-144 -684q-78 -373 -410 -373q-101 0 -187 39t-135 104l96 103q36 -45 96 -75t130 -30q211 0 266 262l138 654h150z" />
    <glyph glyph-name="lslash.sc" horiz-adv-x="1074" 
d="M554 1043l-92 -433l374 177l-32 -156l-376 -178l-67 -315h605l-29 -138h-756l80 374l-193 -91l32 156l194 92l110 512h150z" />
    <glyph glyph-name="oe.sc" horiz-adv-x="1757" 
d="M1620 593l-28 -135h-596l-69 -323h622l-28 -135h-892q-239 0 -376.5 121.5t-137.5 318.5q0 127 45.5 236t131 191t217.5 129t295 47h930l-27 -136h-615l-67 -314h595zM271 455q0 -147 95.5 -233.5t277.5 -86.5h133l165 772h-153q-245 0 -381.5 -126.5t-136.5 -325.5z" />
    <glyph glyph-name="scaron.sc" horiz-adv-x="1086" 
d="M1027 934l-79 -117q-149 103 -352 103q-129 0 -194 -51t-65 -121q0 -62 52 -98t157 -53l85 -14q147 -24 231 -90t84 -179q0 -144 -120.5 -236.5t-327.5 -92.5q-109 0 -233.5 34.5t-215.5 106.5l85 118q76 -62 179.5 -92t191.5 -30q131 0 207 48.5t76 124.5q0 61 -55 97.5
t-167 54.5l-88 14q-144 23 -222 91t-78 177q0 65 26.5 123t77 104.5t133 74t186.5 27.5q248 0 426 -124zM384 1475h157l129 -198l210 198h168l-288 -288h-200z" />
    <glyph glyph-name="zcaron.sc" horiz-adv-x="1072" 
d="M1066 1043l-24 -119l-788 -788h646l-28 -136h-844l25 122l787 785h-640l29 136h837zM378 1475h157l129 -198l210 198h168l-288 -288h-200z" />
    <glyph glyph-name="longs.sc" horiz-adv-x="1086" 
d="M1027 934l-79 -117q-149 103 -352 103q-129 0 -194 -51t-65 -121q0 -62 52 -98t157 -53l85 -14q147 -24 231 -90t84 -179q0 -144 -120.5 -236.5t-327.5 -92.5q-109 0 -233.5 34.5t-215.5 106.5l85 118q76 -62 179.5 -92t191.5 -30q131 0 207 48.5t76 124.5q0 61 -55 97.5
t-167 54.5l-88 14q-144 23 -222 91t-78 177q0 65 26.5 123t77 104.5t133 74t186.5 27.5q248 0 426 -124z" />
    <glyph glyph-name="florin.sc" 
d="M920 599l-24 -117h-228l-55 -247q-28 -127 -90 -188t-170 -61q-104 0 -181 54l63 105q49 -34 114 -34q54 0 84.5 32t45.5 98l54 241h-209l24 117h211l48 211q28 126 90 186.5t170 60.5q103 0 182 -54l-65 -105q-50 34 -113 34q-54 0 -85 -32t-46 -98l-46 -203h226z" />
    <glyph glyph-name="uni0237.sc" horiz-adv-x="903" 
d="M851 1043l-144 -684q-78 -373 -410 -373q-101 0 -187 39t-135 104l96 103q36 -45 96 -75t130 -30q211 0 266 262l138 654h150z" />
    <glyph glyph-name="uni02BB.sc" horiz-adv-x="388" 
d="M269 579h-158l195 464h117z" />
    <glyph glyph-name="uni02BC.sc" horiz-adv-x="388" 
d="M262 1043h158l-195 -464h-117z" />
    <glyph glyph-name="gravecomb.sc" horiz-adv-x="1" 
d="M-568 1188l-251 300h189l210 -300h-148z" />
    <glyph glyph-name="acutecomb.sc" horiz-adv-x="1" 
d="M-528 1188h-153l241 300h194z" />
    <glyph glyph-name="uni0302.sc" horiz-adv-x="1" 
d="M-222 1188h-157l-130 198l-209 -198h-168l288 289h200z" />
    <glyph glyph-name="tildecomb.sc" horiz-adv-x="1" 
d="M-818 1233l-71 100q53 56 106 82t121 26q60 0 106.5 -20t82 -40t67.5 -20q41 0 76 19.5t79 60.5l71 -101q-53 -56 -106.5 -81.5t-120.5 -25.5q-46 0 -86 12.5t-63 27t-52 27t-56 12.5q-70 0 -154 -79z" />
    <glyph glyph-name="uni0304.sc" horiz-adv-x="1" 
d="M-828 1270l25 122h598l-25 -122h-598z" />
    <glyph glyph-name="uni0306.sc" horiz-adv-x="1" 
d="M-840 1462l121 36q7 -94 55.5 -142t127.5 -48q153 0 245 190l119 -36q-134 -281 -377 -281q-126 0 -204.5 73t-86.5 208z" />
    <glyph glyph-name="uni0307.sc" horiz-adv-x="1" 
d="M-523 1436q45 0 75.5 -30.5t30.5 -75.5t-30.5 -75t-75.5 -30t-75 30t-30 75t30 75.5t75 30.5z" />
    <glyph glyph-name="uni0308.sc" horiz-adv-x="1" 
d="M-720 1437q44 0 75 -31t31 -76t-30.5 -75t-75.5 -30t-75.5 30t-30.5 75t30.5 76t75.5 31zM-314 1437q44 0 75 -31t31 -76t-30.5 -75t-75.5 -30t-75 30t-30 75t30 76t75 31z" />
    <glyph glyph-name="uni030A.sc" horiz-adv-x="1" 
d="M-531 1168q-93 0 -160 66t-67 159q0 92 67 158t160 66q94 0 161 -66t67 -158q0 -93 -67 -159t-161 -66zM-531 1263q53 0 90.5 38t37.5 92q0 53 -37.5 90.5t-90.5 37.5t-90 -37.5t-37 -90.5q0 -55 37 -92.5t90 -37.5z" />
    <glyph glyph-name="uni030B.sc" horiz-adv-x="1" 
d="M-321 1188h-155l248 300h179zM-663 1188h-157l233 300h174z" />
    <glyph glyph-name="uni030C.sc" horiz-adv-x="1" 
d="M-826 1475h157l129 -198l210 198h168l-288 -288h-200z" />
    <glyph glyph-name="uni0326.sc" horiz-adv-x="1" 
d="M-709 -88h167l-141 -350h-142z" />
    <glyph glyph-name="uni0327.sc" horiz-adv-x="1" 
d="M-451 5l-165 -328h-168l179 329z" />
    <glyph glyph-name="uni0328.sc" horiz-adv-x="1" 
d="M-494 -236l80 -96q-83 -83 -195 -83q-94 0 -153.5 48t-59.5 128q0 83 61 152.5t184 144.5l37 -58q-141 -115 -141 -209q0 -35 23.5 -56t61.5 -21q57 0 102 50z" />
    <glyph glyph-name="uni0335.sc" horiz-adv-x="1" 
d="M-315 597l-28 -136h-652l28 136h652z" />
    <glyph glyph-name="uni0336.sc" horiz-adv-x="1" 
d="M-68 449l-24 -116h-1149l24 116h1149z" />
    <glyph glyph-name="uni1E9E.sc" horiz-adv-x="1199" 
d="M63 0l146 690q35 165 156 266.5t312 101.5q144 0 258 -59t172 -154l-331 -279q141 -30 215.5 -110t59.5 -194q-16 -128 -129.5 -202.5t-274.5 -74.5q-151 0 -274 45l50 133q96 -41 221 -41q109 0 177 39t77 110q11 81 -63 132.5t-207 51.5h-58l22 109l324 271
q-86 85 -248 85q-118 0 -203 -67.5t-109 -181.5l-142 -671h-151z" />
    <glyph glyph-name="quoteleft.sc" horiz-adv-x="388" 
d="M269 579h-158l195 464h117z" />
    <glyph glyph-name="quoteright.sc" horiz-adv-x="388" 
d="M262 1043h158l-195 -464h-117z" />
    <glyph glyph-name="quotesinglbase.sc" horiz-adv-x="380" 
d="M96 301h158l-195 -464h-117z" />
    <glyph glyph-name="quotedblleft.sc" horiz-adv-x="684" 
d="M565 579h-158l195 464h117zM269 579h-158l195 464h117z" />
    <glyph glyph-name="quotedblright.sc" horiz-adv-x="684" 
d="M558 1043h158l-195 -464h-117zM262 1043h158l-195 -464h-117z" />
    <glyph glyph-name="quotedblbase.sc" horiz-adv-x="675" 
d="M391 301h158l-195 -464h-117zM96 301h158l-195 -464h-117z" />
    <glyph glyph-name="dagger.sc" horiz-adv-x="591" 
d="M350 474h-108l66 313h-151l23 105h151l32 151h107l-32 -151h152l-23 -105h-151z" />
    <glyph glyph-name="daggerdbl.sc" horiz-adv-x="592" 
d="M351 474h-108l27 126h-152l21 99h152l25 120h-151l21 99h151l27 125h107l-26 -125h152l-21 -99h-152l-26 -120h152l-21 -99h-152z" />
    <glyph glyph-name="perthousand.sc" horiz-adv-x="2198" 
d="M448 1060q115 0 189.5 -70.5t74.5 -181.5q0 -120 -85 -205.5t-211 -85.5q-115 0 -190 70.5t-75 181.5q0 120 85.5 205.5t211.5 85.5zM442 948q-74 0 -122 -50.5t-48 -122.5q0 -64 42 -105t107 -41q74 0 122 50.5t48 122.5q0 64 -42 105t-107 41zM1282 1043l-826 -1043
h-147l826 1043h147zM1175 528q115 0 189.5 -71t74.5 -181q0 -120 -85 -205.5t-211 -85.5q-115 0 -189.5 71t-74.5 181q0 120 85.5 205.5t210.5 85.5zM1169 416q-73 0 -121 -50.5t-48 -121.5q0 -65 42 -106t106 -41q73 0 121.5 50.5t48.5 122.5q0 64 -42 105t-107 41z
M1804 528q114 0 189 -71t75 -181q0 -120 -85 -205.5t-211 -85.5q-115 0 -190 71t-75 181q0 120 85.5 205.5t211.5 85.5zM1799 416q-74 0 -122.5 -50.5t-48.5 -121.5q0 -65 42 -106t107 -41q74 0 122 50.5t48 122.5q0 64 -42 105t-106 41z" />
    <glyph glyph-name="minute.sc" horiz-adv-x="421" 
d="M313 1043h140l-210 -483h-139z" />
    <glyph glyph-name="second.sc" horiz-adv-x="684" 
d="M576 1043h140l-210 -483h-139zM313 1043h140l-210 -483h-139z" />
    <glyph glyph-name="uni2034.sc" horiz-adv-x="910" 
d="M557 1043h140l-210 -483h-139zM802 1043h140l-210 -483h-139zM313 1043h140l-210 -483h-139z" />
    <glyph glyph-name="uni2071.sc" horiz-adv-x="369" 
d="M355 1043l-167 -781h-121l166 781h122z" />
    <glyph glyph-name="uni207F.sc" horiz-adv-x="924" 
d="M906 1043l-166 -782h-115l-309 596l-127 -595h-121l166 782h115l309 -596l127 595h121z" />
    <glyph glyph-name="Euro.sc" 
d="M966 253l75 -99q-129 -166 -347 -166q-172 0 -290.5 95.5t-146.5 270.5h-144l20 100h116q0 44 6 93l6 42h-103l21 100h107q56 172 185.5 269.5t304.5 97.5q236 0 373 -169l-96 -96q-103 136 -283 136q-114 0 -201 -63t-133 -175h482l-22 -100h-489q-4 -16 -8 -50
q-5 -37 -5 -85h473l-20 -100h-441q27 -115 106.5 -176t187.5 -61q82 0 151 36.5t115 99.5z" />
    <glyph glyph-name="uni20BA.sc" 
d="M877 333l115 -69q-64 -142 -180 -203t-282 -61h-323l56 264l-160 -66l24 116l161 67l30 139l-161 -67l23 116l162 68l87 407h142l-73 -343l378 158l-23 -116l-380 -159l-30 -138l379 159l-22 -118l-382 -158l-41 -194h165q118 0 202.5 44t132.5 154z" />
    <glyph glyph-name="uni2116.sc" horiz-adv-x="2063" 
d="M1915 245l-29 -136h-664l29 136h664zM1685 1058q145 0 237 -88t92 -227q0 -152 -107 -260t-265 -108q-145 0 -237 88.5t-92 224.5q0 152 106.5 261t265.5 109zM1679 944q-104 0 -173 -73t-69 -175q0 -91 59 -149t151 -58q105 0 173.5 72.5t68.5 175.5q0 91 -59 149
t-151 58zM1232 1043l-221 -1043h-140l-467 817l-174 -817h-151l223 1043h140l466 -817l174 817h150z" />
    <glyph glyph-name="uni2117.sc" horiz-adv-x="1469" 
d="M705 -66q-153 0 -282.5 71t-206.5 199t-77 284q0 123 51 239t137 203t207 140t253 53q114 0 218 -42t180.5 -115t122 -177t45.5 -221q0 -123 -51 -239t-137 -203t-207 -139.5t-253 -52.5zM779 1006q-141 0 -261 -72t-188 -189.5t-68 -249.5q0 -190 132.5 -317.5
t317.5 -127.5q142 0 262.5 72.5t188 190t67.5 249.5q0 126 -62 228.5t-165 159t-224 56.5zM606 834h237q119 0 178.5 -64.5t40.5 -154.5q-18 -88 -88.5 -132.5t-180.5 -44.5h-156l-47 -221h-115zM836 733h-137l-41 -196h136q135 0 153 89q9 48 -20 77.5t-91 29.5z" />
    <glyph glyph-name="uni2E38.sc" horiz-adv-x="591" 
d="M363 1043h108l-66 -313h151l-23 -105h-151l-32 -151h-107l32 151h-152l23 105h151z" />
    <glyph glyph-name="uniFB00.sc" horiz-adv-x="2090" 
d="M944 588l-28 -136h-590l-96 -452h-151l223 1043h755l-28 -136h-606l-68 -319h589zM1989 588l-28 -136h-590l-96 -452h-151l223 1043h755l-28 -136h-606l-68 -319h589z" />
    <glyph glyph-name="fi.sc" horiz-adv-x="1557" 
d="M944 588l-28 -136h-590l-96 -452h-151l223 1043h755l-28 -136h-606l-68 -319h589zM1497 1043l-222 -1043h-151l223 1043h150z" />
    <glyph glyph-name="fl.sc" horiz-adv-x="2017" 
d="M944 588l-28 -136h-590l-96 -452h-151l223 1043h755l-28 -136h-606l-68 -319h589zM1497 1043l-193 -905h605l-29 -138h-756l223 1043h150z" />
    <glyph glyph-name="uniFB03.sc" horiz-adv-x="2602" 
d="M944 588l-28 -136h-590l-96 -452h-151l223 1043h755l-28 -136h-606l-68 -319h589zM1989 588l-28 -136h-590l-96 -452h-151l223 1043h755l-28 -136h-606l-68 -319h589zM2542 1043l-222 -1043h-151l223 1043h150z" />
    <glyph glyph-name="uniFB04.sc" horiz-adv-x="3062" 
d="M944 588l-28 -136h-590l-96 -452h-151l223 1043h755l-28 -136h-606l-68 -319h589zM1989 588l-28 -136h-590l-96 -452h-151l223 1043h755l-28 -136h-606l-68 -319h589zM2542 1043l-193 -905h605l-29 -138h-756l223 1043h150z" />
    <glyph glyph-name="uniFB05.sc" horiz-adv-x="2015" 
d="M2099 1043l-29 -139h-362l-192 -904h-151l192 904h-366l29 139h879zM1027 934l-79 -117q-149 103 -352 103q-129 0 -194 -51t-65 -121q0 -62 52 -98t157 -53l85 -14q147 -24 231 -90t84 -179q0 -144 -120.5 -236.5t-327.5 -92.5q-109 0 -233.5 34.5t-215.5 106.5l85 118
q76 -62 179.5 -92t191.5 -30q131 0 207 48.5t76 124.5q0 61 -55 97.5t-167 54.5l-88 14q-144 23 -222 91t-78 177q0 65 26.5 123t77 104.5t133 74t186.5 27.5q248 0 426 -124z" />
    <glyph glyph-name="uniFB06.sc" horiz-adv-x="2015" 
d="M1027 934l-79 -117q-149 103 -352 103q-129 0 -194 -51t-65 -121q0 -62 52 -98t157 -53l85 -14q147 -24 231 -90t84 -179q0 -144 -120.5 -236.5t-327.5 -92.5q-109 0 -233.5 34.5t-215.5 106.5l85 118q76 -62 179.5 -92t191.5 -30q131 0 207 48.5t76 124.5q0 61 -55 97.5
t-167 54.5l-88 14q-144 23 -222 91t-78 177q0 65 26.5 123t77 104.5t133 74t186.5 27.5q248 0 426 -124zM2099 1043l-29 -139h-362l-192 -904h-151l192 904h-366l29 139h879z" />
    <glyph glyph-name="j.latn_NLD.sc" horiz-adv-x="903" 
d="M851 1043l-144 -684q-78 -373 -410 -373q-101 0 -187 39t-135 104l96 103q36 -45 96 -75t130 -30q211 0 266 262l138 654h150zM814 1188h-153l241 300h194z" />
    <glyph glyph-name="parenleft.case" horiz-adv-x="818" 
d="M791 1558l51 -134q-120 -39 -223 -131t-172 -212.5t-107.5 -262t-38.5 -282.5q0 -357 245 -556l-77 -129q-329 249 -329 683q0 164 47 327.5t130 301.5t206.5 243.5t267.5 151.5z" />
    <glyph glyph-name="parenright.case" horiz-adv-x="818" 
d="M6 -156l-51 134q120 39 223 131t172 212.5t107.5 262t38.5 282.5q0 357 -245 556l77 129q329 -249 329 -683q0 -164 -47 -327.5t-130 -301.5t-206.5 -243.5t-267.5 -151.5z" />
    <glyph glyph-name="hyphen.case" horiz-adv-x="816" 
d="M743 768l-29 -136h-546l29 136h546z" />
    <glyph glyph-name="slash.case" horiz-adv-x="892" 
d="M1012 1400l-855 -1400h-181l855 1400h181z" />
    <glyph glyph-name="at.case" horiz-adv-x="1977" 
d="M1349 127l61 -97q-197 -138 -458 -138q-208 0 -374.5 89t-262 253t-95.5 375q0 180 67.5 344.5t184.5 285.5t285 193t359 72q206 0 371 -83t260 -237t95 -353q0 -232 -103.5 -385t-265.5 -153q-84 0 -138 40.5t-77 102.5q-112 -132 -285 -132q-155 0 -254.5 97.5
t-99.5 251.5q0 182 122 314.5t297 132.5q97 0 169 -40.5t111 -114.5l30 140h127l-98 -455q-10 -43 -10 -82q0 -67 31.5 -102t84.5 -35q98 0 161 118.5t63 298.5q0 250 -168 403.5t-433 153.5q-160 0 -300.5 -62t-238.5 -166t-154 -245.5t-56 -296.5q0 -184 80 -322
t216.5 -209.5t309.5 -71.5q216 0 386 115zM1045 978q-123 0 -208 -93.5t-85 -222.5q0 -107 65.5 -172.5t168.5 -65.5q124 0 209.5 93.5t85.5 223.5q0 105 -66 171t-170 66z" />
    <glyph glyph-name="bracketleft.case" horiz-adv-x="751" 
d="M534 6l-30 -138h-468l354 1663h468l-29 -138h-315l-295 -1387h315z" />
    <glyph glyph-name="backslash.case" horiz-adv-x="1463" 
d="M1154 0l-855 1400h181l855 -1400h-181z" />
    <glyph glyph-name="bracketright.case" horiz-adv-x="751" 
d="M244 1393l30 138h468l-354 -1663h-468l29 138h314l295 1387h-314z" />
    <glyph glyph-name="braceleft.case" horiz-adv-x="844" 
d="M972 1531l-30 -138h-39q-118 0 -184.5 -55t-86.5 -188l-19 -128q-20 -139 -85.5 -217.5t-174.5 -111.5q89 -38 121 -121t2 -195l-35 -131q-31 -117 15.5 -178t151.5 -61h60l-30 -138h-59q-180 0 -255.5 117t-27.5 296l31 113q31 114 -18 175t-160 61l29 138
q124 0 191.5 60t87.5 191l22 142q29 191 139.5 280t300.5 89h53z" />
    <glyph glyph-name="braceright.case" horiz-adv-x="844" 
d="M-31 -131l30 138h39q118 0 184.5 55t86.5 188l19 128q37 263 259 328q-88 38 -120 121.5t-2 195.5l35 131q31 117 -15.5 178t-151.5 61h-60l30 138h59q180 0 255.5 -117t27.5 -296l-31 -113q-31 -114 18 -175t160 -61l-29 -138q-124 0 -191.5 -60t-87.5 -191l-22 -142
q-29 -191 -139.5 -280t-300.5 -89h-53z" />
    <glyph glyph-name="exclamdown.case" horiz-adv-x="506" 
d="M61 0l228 955h128l-173 -955h-183zM420 1167q-50 0 -87.5 37.5t-37.5 87.5t37.5 88t87.5 38t87.5 -38t37.5 -88t-37.5 -87.5t-87.5 -37.5z" />
    <glyph glyph-name="guillemotleft.case" horiz-adv-x="1022" 
d="M1017 1070l-281 -385l108 -355h-152l-113 370l271 370h167zM620 1070l-281 -385l108 -355h-152l-113 370l271 370h167z" />
    <glyph glyph-name="uni00AD.case" horiz-adv-x="816" 
d="M743 768l-29 -136h-546l29 136h546z" />
    <glyph glyph-name="periodcentered.case" horiz-adv-x="784" 
d="M395 825q50 0 87 -37t37 -87q0 -51 -37 -88.5t-87 -37.5t-88 37.5t-38 88.5q0 50 38 87t88 37z" />
    <glyph glyph-name="guillemotright.case" horiz-adv-x="1022" 
d="M102 330l281 385l-108 355h152l113 -370l-271 -370h-167zM498 330l281 385l-108 355h152l113 -370l-271 -370h-167z" />
    <glyph glyph-name="questiondown.case" horiz-adv-x="842" 
d="M603 955h135l-66 -314h-82q-177 0 -269 -72t-92 -195q0 -112 99 -174.5t259 -62.5q31 0 69 2l-6 -152q-43 -5 -91 -5q-220 0 -359.5 101.5t-139.5 270.5q0 184 128.5 298.5t369.5 128.5zM732 1168q-50 0 -87.5 37.5t-37.5 87.5t37.5 88t87.5 38t87.5 -38t37.5 -88
t-37.5 -87.5t-87.5 -37.5z" />
    <glyph glyph-name="gravecomb.case" horiz-adv-x="1" 
d="M-655 1507l-251 300h189l210 -300h-148z" />
    <glyph glyph-name="acutecomb.case" horiz-adv-x="1" 
d="M-771 1507h-153l241 300h194z" />
    <glyph glyph-name="uni0302.case" horiz-adv-x="1" 
d="M-375 1508h-157l-130 197l-209 -197h-168l288 288h200z" />
    <glyph glyph-name="tildecomb.case" horiz-adv-x="1" 
d="M-976 1563l-85 89q53 56 106 82t121 26q60 0 106.5 -20t82 -39.5t67.5 -19.5q68 0 141 68l85 -89q-53 -56 -106.5 -82t-120.5 -26q-46 0 -86 12.5t-63 27.5t-52 27.5t-56 12.5q-68 0 -140 -69z" />
    <glyph glyph-name="uni0304.case" horiz-adv-x="1" 
d="M-1018 1590l25 121h598l-25 -121h-598z" />
    <glyph glyph-name="uni0306.case" horiz-adv-x="1" 
d="M-1041 1781l121 37q7 -95 55.5 -143t127.5 -48q152 0 245 191l119 -37q-134 -280 -377 -280q-126 0 -204.5 72.5t-86.5 207.5z" />
    <glyph glyph-name="uni0307.case" horiz-adv-x="1" 
d="M-708 1767q47 0 80 -32t33 -79t-32.5 -78.5t-80.5 -31.5q-47 0 -78.5 31.5t-31.5 78.5t31.5 79t78.5 32z" />
    <glyph glyph-name="uni0308.case" horiz-adv-x="1" 
d="M-910 1758q44 0 75 -31t31 -76t-30.5 -75t-75.5 -30t-75.5 30t-30.5 75t30.5 76t75.5 31zM-504 1758q44 0 75 -31t31 -76t-30.5 -75t-75.5 -30t-75 30t-30 75t30 76t75 31z" />
    <glyph glyph-name="uni030A.case" horiz-adv-x="1" 
d="M-707 1487q-93 0 -160 66t-67 159q0 92 67 158t160 66q94 0 161 -66t67 -158q0 -93 -67 -159t-161 -66zM-707 1582q53 0 90.5 38t37.5 92t-37.5 91.5t-90.5 37.5t-90 -37.5t-37 -91.5q0 -55 37 -92.5t90 -37.5z" />
    <glyph glyph-name="uni030B.case" horiz-adv-x="1" 
d="M-593 1507h-155l248 300h179zM-935 1507h-157l233 300h174z" />
    <glyph glyph-name="uni030C.case" horiz-adv-x="1" 
d="M-1039 1794h157l129 -198l210 198h168l-288 -288h-200z" />
    <glyph glyph-name="uni0326.case" horiz-adv-x="1" 
d="M-851 -88h167l-141 -350h-142z" />
    <glyph glyph-name="uni0327.case" horiz-adv-x="1" 
d="M-656 5l-165 -328h-175l179 329z" />
    <glyph glyph-name="uni0335.case" horiz-adv-x="1" 
d="M-472 781l-32 -152h-783l33 152h782z" />
    <glyph glyph-name="uni2010.case" horiz-adv-x="826" 
d="M743 768l-29 -136h-546l29 136h546z" />
    <glyph glyph-name="uni2011.case" horiz-adv-x="826" 
d="M743 768l-29 -136h-546l29 136h546z" />
    <glyph glyph-name="figuredash.case" 
d="M1124 768l-28 -136h-933l28 136h933z" />
    <glyph glyph-name="endash.case" horiz-adv-x="1164" 
d="M1110 768l-28 -136h-933l28 136h933z" />
    <glyph glyph-name="emdash.case" horiz-adv-x="1592" 
d="M1595 768l-27 -136h-1475l27 136h1475z" />
    <glyph glyph-name="bullet.case" horiz-adv-x="1024" 
d="M473 927q93 0 160 -66.5t67 -160.5t-67 -160.5t-160 -66.5q-94 0 -160.5 66.5t-66.5 160.5t66 160.5t161 66.5z" />
    <glyph glyph-name="guilsinglleft.case" horiz-adv-x="625" 
d="M620 1070l-281 -385l108 -355h-152l-113 370l271 370h167z" />
    <glyph glyph-name="guilsinglright.case" horiz-adv-x="625" 
d="M115 330l281 385l-108 355h152l113 -370l-271 -370h-167z" />
    <glyph glyph-name="uni2E17.case" horiz-adv-x="946" 
d="M859 1026l-29 -139l-570 -205l30 139zM786 682l-29 -138l-571 -205l30 138z" />
    <glyph glyph-name="j.latn_NLD.case" horiz-adv-x="1098" 
d="M1108 1400l-193 -931q-101 -488 -516 -488q-128 0 -237.5 55.5t-171.5 149.5l117 105q46 -67 125 -111.5t173 -44.5q138 0 226.5 90.5t127.5 280.5l186 894h163zM1040 1507h-153l241 300h194z" />
    <glyph glyph-name="zero.zero" horiz-adv-x="1410" 
d="M856 1419q225 0 356.5 -151.5t131.5 -396.5q0 -103 -21.5 -208t-61.5 -204.5t-101.5 -186t-136.5 -151.5t-171.5 -102.5t-201.5 -37.5q-225 0 -356.5 152t-131.5 396q0 102 21.5 207t61.5 204t101.5 186t136 152t171 103t202.5 38zM848 1271q-81 0 -155 -32t-130 -86.5
t-102 -127t-75.5 -154t-45 -166t-15.5 -165.5q0 -70 14 -134l787 701q-43 79 -114.5 121.5t-163.5 42.5zM1181 860q0 67 -12 124l-785 -699q90 -156 273 -156q121 0 223 68.5t166 176.5t99.5 235t35.5 251z" />
    <glyph glyph-name="zero.osf.zero" horiz-adv-x="1336" 
d="M710 1060q145 0 262.5 -60t186.5 -174t69 -261q0 -119 -43.5 -226.5t-119.5 -186.5t-185.5 -125.5t-234.5 -46.5q-222 0 -369.5 136.5t-147.5 358.5q0 119 43.5 226.5t119.5 186.5t185 125.5t234 46.5zM703 919q-186 0 -304 -126.5t-118 -308.5q0 -109 49 -194l617 549
q-102 80 -244 80zM1075 557q0 108 -50 192l-616 -549q99 -79 244 -79q186 0 304 126.5t118 309.5z" />
    <glyph glyph-name="zero.tf.zero" 
d="M753 1418q201 0 318.5 -129.5t117.5 -366.5q0 -181 -44.5 -349t-125.5 -300t-205 -211.5t-271 -79.5q-201 0 -318.5 129.5t-117.5 366.5q0 181 44.5 349t125.5 300t205 211.5t271 79.5zM749 1270q-110 0 -203 -68.5t-152.5 -179.5t-93 -248.5t-33.5 -280.5q0 -18 2 -52
l732 652q-32 87 -96.5 132t-155.5 45zM1030 907q0 17 -2 49l-732 -651q65 -175 252 -175q110 0 202.5 68.5t152.5 179.5t93.5 248.5t33.5 280.5z" />
    <glyph glyph-name="zero.tosf.zero" 
d="M646 1059q211 0 348.5 -136t137.5 -355q0 -160 -69.5 -294.5t-196.5 -214t-285 -79.5q-209 0 -346.5 136.5t-137.5 355.5q0 160 69 294t196 213.5t284 79.5zM979 559q0 96 -36 176l-590 -526q93 -90 236 -90q174 0 282 127.5t108 312.5zM639 922q-173 0 -281.5 -128
t-108.5 -313q0 -97 35 -173l589 525q-92 89 -234 89z" />
    <glyph glyph-name="zero.sc.zero" horiz-adv-x="1136" 
d="M652 1058q178 0 284.5 -113.5t106.5 -302.5q0 -115 -37 -230t-103.5 -210.5t-171 -155.5t-227.5 -60q-177 0 -283.5 113.5t-106.5 301.5q0 114 37 229t103.5 211t170.5 156.5t227 60.5zM646 921q-88 0 -162.5 -47.5t-121 -123t-72.5 -164t-26 -174.5q0 -50 9 -90l572 494
q-67 105 -199 105zM892 631q0 43 -8 86l-572 -493q67 -102 199 -102q88 0 162.5 47.5t121 122.5t72 163.5t25.5 175.5z" />
    <glyph glyph-name="a.ss01" horiz-adv-x="1085" 
d="M582 966q177 0 274.5 -86.5t97.5 -235.5q0 -50 -12 -106l-114 -538h-149l22 104q-62 -59 -144.5 -91t-171.5 -32q-140 0 -227.5 72.5t-87.5 190.5q0 137 105 224.5t302 87.5h320q7 35 7 72q0 98 -64 150.5t-183 52.5q-138 0 -276 -85l-55 117q162 103 356 103zM419 113
q83 0 165 37t148 105l37 176h-283q-127 0 -191 -49.5t-64 -123.5q0 -68 50.5 -106.5t137.5 -38.5z" />
    <glyph glyph-name="agrave.ss01" horiz-adv-x="1085" 
d="M582 966q177 0 274.5 -86.5t97.5 -235.5q0 -50 -12 -106l-114 -538h-149l22 104q-62 -59 -144.5 -91t-171.5 -32q-140 0 -227.5 72.5t-87.5 190.5q0 137 105 224.5t302 87.5h320q7 35 7 72q0 98 -64 150.5t-183 52.5q-138 0 -276 -85l-55 117q162 103 356 103zM419 113
q83 0 165 37t148 105l37 176h-283q-127 0 -191 -49.5t-64 -123.5q0 -68 50.5 -106.5t137.5 -38.5zM613 1092l-251 300h189l210 -300h-148z" />
    <glyph glyph-name="aacute.ss01" horiz-adv-x="1085" 
d="M582 966q177 0 274.5 -86.5t97.5 -235.5q0 -50 -12 -106l-114 -538h-149l22 104q-62 -59 -144.5 -91t-171.5 -32q-140 0 -227.5 72.5t-87.5 190.5q0 137 105 224.5t302 87.5h320q7 35 7 72q0 98 -64 150.5t-183 52.5q-138 0 -276 -85l-55 117q162 103 356 103zM419 113
q83 0 165 37t148 105l37 176h-283q-127 0 -191 -49.5t-64 -123.5q0 -68 50.5 -106.5t137.5 -38.5zM653 1092h-153l241 300h194z" />
    <glyph glyph-name="acircumflex.ss01" horiz-adv-x="1085" 
d="M582 966q177 0 274.5 -86.5t97.5 -235.5q0 -50 -12 -106l-114 -538h-149l22 104q-62 -59 -144.5 -91t-171.5 -32q-140 0 -227.5 72.5t-87.5 190.5q0 137 105 224.5t302 87.5h320q7 35 7 72q0 98 -64 150.5t-183 52.5q-138 0 -276 -85l-55 117q162 103 356 103zM419 113
q83 0 165 37t148 105l37 176h-283q-127 0 -191 -49.5t-64 -123.5q0 -68 50.5 -106.5t137.5 -38.5zM959 1093h-157l-130 197l-209 -197h-168l288 288h200z" />
    <glyph glyph-name="atilde.ss01" horiz-adv-x="1085" 
d="M582 966q177 0 274.5 -86.5t97.5 -235.5q0 -50 -12 -106l-114 -538h-149l22 104q-62 -59 -144.5 -91t-171.5 -32q-140 0 -227.5 72.5t-87.5 190.5q0 137 105 224.5t302 87.5h320q7 35 7 72q0 98 -64 150.5t-183 52.5q-138 0 -276 -85l-55 117q162 103 356 103zM419 113
q83 0 165 37t148 105l37 176h-283q-127 0 -191 -49.5t-64 -123.5q0 -68 50.5 -106.5t137.5 -38.5zM377 1148l-85 89q53 56 106 82t121 26q47 0 87 -12.5t63 -27t51.5 -27t54.5 -12.5q68 0 141 68l85 -89q-53 -56 -106.5 -82t-120.5 -26q-46 0 -86 12.5t-63 27.5t-52 27.5
t-56 12.5q-68 0 -140 -69z" />
    <glyph glyph-name="adieresis.ss01" horiz-adv-x="1085" 
d="M582 966q177 0 274.5 -86.5t97.5 -235.5q0 -50 -12 -106l-114 -538h-149l22 104q-62 -59 -144.5 -91t-171.5 -32q-140 0 -227.5 72.5t-87.5 190.5q0 137 105 224.5t302 87.5h320q7 35 7 72q0 98 -64 150.5t-183 52.5q-138 0 -276 -85l-55 117q162 103 356 103zM419 113
q83 0 165 37t148 105l37 176h-283q-127 0 -191 -49.5t-64 -123.5q0 -68 50.5 -106.5t137.5 -38.5zM461 1343q44 0 75 -31t31 -76t-30.5 -75t-75.5 -30t-75.5 30t-30.5 75t30.5 76t75.5 31zM867 1343q44 0 75 -31t31 -76t-30.5 -75t-75.5 -30t-75 30t-30 75t30 76t75 31z" />
    <glyph glyph-name="aring.ss01" horiz-adv-x="1085" 
d="M582 966q177 0 274.5 -86.5t97.5 -235.5q0 -50 -12 -106l-114 -538h-149l22 104q-62 -59 -144.5 -91t-171.5 -32q-140 0 -227.5 72.5t-87.5 190.5q0 137 105 224.5t302 87.5h320q7 35 7 72q0 98 -64 150.5t-183 52.5q-138 0 -276 -85l-55 117q162 103 356 103zM419 113
q83 0 165 37t148 105l37 176h-283q-127 0 -191 -49.5t-64 -123.5q0 -68 50.5 -106.5t137.5 -38.5zM640 1072q-93 0 -160 66t-67 159q0 92 67 158t160 66q94 0 161 -66t67 -158q0 -93 -67 -159t-161 -66zM640 1167q53 0 90.5 38t37.5 92t-37.5 91.5t-90.5 37.5t-90 -37.5
t-37 -91.5q0 -55 37 -92.5t90 -37.5z" />
    <glyph glyph-name="J.ss02" horiz-adv-x="827" 
d="M-60 10l57 144q59 -19 121 -19q292 0 367 359l191 906h164l-198 -942q-51 -240 -186.5 -358.5t-340.5 -118.5q-88 0 -175 29z" />
    <glyph glyph-name="IJ.ss02" horiz-adv-x="1376" 
d="M554 1400l-298 -1400h-164l298 1400h164zM489 10l57 144q59 -19 121 -19q292 0 367 359l191 906h164l-198 -942q-51 -240 -186.5 -358.5t-340.5 -118.5q-88 0 -175 29z" />
    <glyph glyph-name="j.sc.ss02" horiz-adv-x="689" 
d="M-63 7l47 133q45 -13 93 -13q216 0 269 251l140 665h151l-145 -689q-77 -368 -418 -368q-71 0 -137 21z" />
    <glyph glyph-name="ij.sc.ss02" horiz-adv-x="1201" 
d="M452 1043l-222 -1043h-151l223 1043h150zM449 7l47 133q45 -13 93 -13q216 0 269 251l140 665h151l-145 -689q-77 -368 -418 -368q-71 0 -137 21z" />
    <glyph glyph-name="uni0237.sc.ss02" horiz-adv-x="689" 
d="M-63 7l47 133q45 -13 93 -13q216 0 269 251l140 665h151l-145 -689q-77 -368 -418 -368q-71 0 -137 21z" />
    <glyph glyph-name="j.latn_NLD.sc.ss02" horiz-adv-x="689" 
d="M-63 7l47 133q45 -13 93 -13q216 0 269 251l140 665h151l-145 -689q-77 -368 -418 -368q-71 0 -137 21zM596 1188h-153l241 300h194z" />
    <glyph glyph-name="j.latn_NLD.case.ss02" horiz-adv-x="827" 
d="M-60 10l57 144q59 -19 121 -19q292 0 367 359l191 906h164l-198 -942q-51 -240 -186.5 -358.5t-340.5 -118.5q-88 0 -175 29zM770 1507h-153l241 300h194z" />
    <glyph glyph-name="seven.ss03" horiz-adv-x="1115" 
d="M1192 1400l-23 -127l-313 -503h245l-30 -142h-303l-390 -628h-184l398 633h-326l30 142h386l301 479h-753l31 146h931z" />
    <glyph glyph-name="seven.osf.ss03" horiz-adv-x="1068" 
d="M1113 1040l-23 -126l-311 -503h207l-30 -140h-264l-390 -631h-181l397 636h-349l30 140h407l300 480h-748l31 144h924z" />
    <glyph glyph-name="seven.tf.ss03" 
d="M1244 1400l-23 -127l-313 -503h245l-30 -142h-303l-390 -628h-184l398 633h-326l30 142h386l301 479h-753l31 146h931z" />
    <glyph glyph-name="seven.tosf.ss03" 
d="M1181 1040l-23 -126l-311 -503h207l-30 -140h-264l-390 -631h-181l397 636h-349l30 140h407l300 480h-748l31 144h924z" />
    <glyph glyph-name="seven.sc.ss03" horiz-adv-x="882" 
d="M923 1043l-23 -119l-224 -346h151l-27 -126h-205l-292 -452h-168l299 456h-266l28 127h321l214 326h-573l27 134h738z" />
    <glyph glyph-name="Z.ss04" horiz-adv-x="1305" 
d="M1369 1400l-27 -128l-467 -499h241l-31 -148h-348l-444 -473h848l-33 -152h-1062l29 135l465 495h-248l31 148h356l442 470h-840l32 152h1056z" />
    <glyph glyph-name="z.ss04" horiz-adv-x="1017" 
d="M993 947l-25 -113l-302 -297h168l-24 -115h-260l-290 -287h585l-28 -135h-788l24 117l319 310h-172l24 115h266l277 270h-579l29 135h776z" />
    <glyph glyph-name="Zcaron.ss04" horiz-adv-x="1305" 
d="M1369 1400l-27 -128l-467 -499h241l-31 -148h-348l-444 -473h848l-33 -152h-1062l29 135l465 495h-248l31 148h356l442 470h-840l32 152h1056zM552 1794h157l129 -198l210 198h168l-288 -288h-200z" />
    <glyph glyph-name="zcaron.ss04" horiz-adv-x="1017" 
d="M993 947l-25 -113l-302 -297h168l-24 -115h-260l-290 -287h585l-28 -135h-788l24 117l319 310h-172l24 115h266l277 270h-579l29 135h776zM333 1379h157l129 -198l210 198h168l-288 -288h-200z" />
    <glyph glyph-name="z.sc.ss04" horiz-adv-x="1072" 
d="M1066 1043l-24 -119l-340 -337h176l-27 -131h-272l-325 -320h646l-28 -136h-844l25 122l343 339h-186l27 130h283l320 316h-640l29 136h837z" />
    <glyph glyph-name="zcaron.sc.ss04" horiz-adv-x="1072" 
d="M1066 1043l-24 -119l-340 -337h176l-27 -131h-272l-325 -320h646l-28 -136h-844l25 122l343 339h-186l27 130h283l320 316h-640l29 136h837zM378 1475h157l129 -198l210 198h168l-288 -288h-200z" />
    <glyph glyph-name="Adieresis.ss05" horiz-adv-x="1421" 
d="M419 1419q45 0 75.5 -31t30.5 -76q0 -44 -30.5 -74.5t-75.5 -30.5t-75 30.5t-30 74.5q0 45 30 76t75 31zM1336 1419q45 0 76 -31t31 -76q0 -44 -31 -74.5t-76 -30.5t-75 30.5t-30 74.5q0 45 30 76t75 31zM1005 1400l272 -1400h-165l-74 390h-683l-238 -390h-174l863 1400
h199zM877 1241l-429 -699h561z" />
    <glyph glyph-name="Odieresis.ss05" horiz-adv-x="1663" 
d="M267 1419q44 0 75 -31t31 -76q0 -44 -31 -74.5t-75 -30.5q-45 0 -75 30.5t-30 74.5q0 45 30 76t75 31zM1659 1419q45 0 75.5 -31t30.5 -76q0 -44 -30.5 -74.5t-75.5 -30.5t-75 30.5t-30 74.5q0 45 30 76t75 31zM946 1419q188 0 339 -79t239.5 -227.5t88.5 -340.5
q0 -160 -58 -305.5t-159 -252.5t-246.5 -170.5t-311.5 -63.5q-188 0 -339.5 79t-239.5 227.5t-88 341.5q0 160 58 305t159 252t246.5 170.5t311.5 63.5zM933 1265q-128 0 -240 -51t-189 -136.5t-121 -199.5t-44 -238q0 -228 144 -366.5t368 -138.5q170 0 307.5 87t212 229.5
t74.5 308.5q0 228 -144.5 366.5t-367.5 138.5z" />
    <glyph glyph-name="Udieresis.ss05" horiz-adv-x="1461" 
d="M745 1419q45 0 76 -31t31 -76q0 -44 -31 -74.5t-76 -30.5q-44 0 -74.5 30.5t-30.5 74.5q0 45 30.5 76t74.5 31zM1077 1419q45 0 76 -31t31 -76q0 -44 -31 -74.5t-76 -30.5q-44 0 -74.5 30.5t-30.5 74.5q0 45 30.5 76t74.5 31zM1495 1400l-183 -860q-61 -287 -229 -423
t-420 -136q-103 0 -190.5 26t-155 77.5t-105.5 135t-38 190.5q0 70 18 151l179 839h164l-179 -835q-14 -66 -14 -129q0 -153 92 -227t248 -74q177 0 300.5 102.5t168.5 315.5l180 847h164z" />
    <glyph glyph-name="hyphen.ss06" horiz-adv-x="879" 
d="M791 891l-29 -139l-570 -205l30 139zM718 547l-29 -138l-571 -205l30 138z" />
    <glyph glyph-name="hyphen.case.ss06" horiz-adv-x="946" 
d="M859 1026l-29 -139l-570 -205l30 139zM786 682l-29 -138l-571 -205l30 138z" />
    <glyph glyph-name="f.calt" horiz-adv-x="829" 
d="M869 947l-28 -135h-355l-173 -812h-151l173 812h-213l29 135h213l40 188q33 157 121.5 240.5t225.5 83.5q142 0 238 -79l-73 -116q-73 55 -166 55q-73 0 -125 -51t-74 -153l-36 -168h354z" />
    <glyph glyph-name="j.calt" horiz-adv-x="491" 
d="M-201 -394l44 130q27 -10 60 -10q52 0 89 33.5t51 97.5l231 1090h151l-236 -1109q-26 -125 -99 -189t-178 -64q-61 0 -113 21zM419 1389q45 0 76 -30.5t31 -75.5t-31 -75t-76 -30q-44 0 -74.5 30t-30.5 75t30.5 75.5t74.5 30.5z" />
    <glyph glyph-name="f_t" horiz-adv-x="1543" 
d="M1549 947l-29 -135h-392l-97 -461q-24 -113 19 -171.5t129 -58.5q103 0 200 68l62 -115q-127 -93 -279 -93q-163 0 -241 98t-40 276l97 457h-493l-172 -812h-150l172 812h-213l29 135h213l22 104q44 204 168 306t293 102q150 0 245.5 -86t95.5 -236q0 -55 -13 -116
l-16 -74h390zM532 1032l-18 -85h495l18 87q11 53 11 91q0 95 -56 144.5t-147 49.5q-110 0 -191 -71.5t-112 -215.5z" />
    <glyph glyph-name="longs_t" horiz-adv-x="1438" 
d="M1443 947l-29 -135h-391l-97 -461q-24 -113 19 -171.5t129 -58.5q101 0 200 68l62 -115q-129 -93 -279 -93q-163 0 -240.5 98t-40.5 276l96 457h-204l29 135h206l19 87q11 53 11 91q0 95 -56 144.5t-148 49.5q-110 0 -191 -71.5t-112 -215.5l-219 -1032h-150l223 1051
q44 204 168 306t293 102q150 0 245 -86t95 -236q0 -60 -12 -116l-16 -74h390z" />
    </font>
</defs>
</svg>
