<?xml version="1.0" standalone="no"?>
<!DOCTYPE svg PUBLIC "-//W3C//DTD SVG 1.1//EN" "http://www.w3.org/Graphics/SVG/1.1/DTD/svg11.dtd" >
<svg xmlns="http://www.w3.org/2000/svg" xmlns:xlink="http://www.w3.org/1999/xlink" version="1.1">
<metadata>
Created by FontForge 20170731 at Fri Aug  5 19:37:19 2016
 By ,,,
2013 published by Monotype GmbH
</metadata>
<defs>
<font id="MarkOT-LightItalic" horiz-adv-x="1200" >
  <font-face 
    font-family="Mark OT Light"
    font-weight="350"
    font-style="italic"
    font-stretch="normal"
    units-per-em="2000"
    panose-1="2 11 5 4 2 2 1 1 1 4"
    ascent="1580"
    descent="-420"
    x-height="941"
    cap-height="1400"
    bbox="-1327 -473 2934 1907"
    underline-thickness="103"
    underline-position="-464"
    slope="-12"
    unicode-range="U+000D-FEFF"
  />
<missing-glyph horiz-adv-x="1176" 
d="M74 0v1400h1028v-1400h-1028zM177 103h822v1194h-822v-1194z" />
    <glyph glyph-name=".notdef" horiz-adv-x="1176" 
d="M74 0v1400h1028v-1400h-1028zM177 103h822v1194h-822v-1194z" />
    <glyph glyph-name=".null" horiz-adv-x="0" 
 />
    <glyph glyph-name=".null" horiz-adv-x="0" 
 />
    <glyph glyph-name="nonmarkingreturn" horiz-adv-x="666" 
 />
    <glyph glyph-name="CR" unicode="&#xd;" horiz-adv-x="530" 
 />
    <glyph glyph-name="space" unicode=" " horiz-adv-x="530" 
 />
    <glyph glyph-name="exclam" unicode="!" horiz-adv-x="504" 
d="M519 1400l-224 -965h-98l183 965h139zM175 178q38 0 66.5 -28.5t28.5 -66.5q0 -39 -28.5 -68t-66.5 -29t-67 29t-29 68q0 38 29 66.5t67 28.5z" />
    <glyph glyph-name="quotedbl" unicode="&#x22;" horiz-adv-x="985" 
d="M486 1440h114l-103 -484h-114zM798 1440h114l-103 -484h-114z" />
    <glyph glyph-name="numbersign" unicode="#" horiz-adv-x="1387" 
d="M316 1025h235l126 375h107l-126 -375h389l126 375h107l-126 -375h231l-34 -102h-232l-147 -440h231l-34 -101h-231l-128 -382h-107l128 382h-389l-128 -382h-107l128 382h-234l34 101h234l148 440h-235zM623 923l-147 -440h389l148 440h-390z" />
    <glyph glyph-name="dollar" unicode="$" horiz-adv-x="1400" 
d="M1321 1235l-66 -93q-137 102 -313 131l-111 -525l13 -2q172 -30 271 -111t99 -220q0 -84 -34.5 -158t-99.5 -130.5t-166.5 -89t-226.5 -32.5h-14l-41 -195h-106l43 203q-249 37 -408 171l69 94q138 -122 362 -155l112 529l-28 5q-353 62 -353 331q0 77 30 148t87.5 130
t154.5 94.5t219 35.5q31 0 48 -1l40 190h106l-43 -201q205 -33 356 -149zM447 1003q0 -96 66.5 -153.5t208.5 -82.5l6 -1l110 518q-11 1 -32 1q-92 0 -163.5 -25.5t-112.5 -67t-62 -90t-21 -99.5zM1092 402q0 181 -286 231l-109 -517q186 1 290.5 83.5t104.5 202.5z" />
    <glyph glyph-name="percent" unicode="%" horiz-adv-x="1948" 
d="M590 1415q142 0 234 -91.5t92 -233.5q0 -156 -107 -267.5t-264 -111.5q-143 0 -235 91t-92 233q0 157 107 268.5t265 111.5zM584 1314q-111 0 -185 -80t-74 -193q0 -101 63.5 -165t161.5 -64q111 0 185 80t74 193q0 100 -63.5 164.5t-161.5 64.5zM1615 1400l-1055 -1400
h-127l1055 1400h127zM1502 688q142 0 234 -91t92 -233q0 -156 -107 -268t-264 -112q-143 0 -235 91.5t-92 233.5q0 156 107 267.5t265 111.5zM1496 587q-111 0 -185 -80t-74 -193q0 -100 63.5 -164.5t161.5 -64.5q111 0 185 80t74 193q0 101 -63 165t-162 64z" />
    <glyph glyph-name="ampersand" unicode="&#x26;" horiz-adv-x="1358" 
d="M1178 738l82 -60l-299 -364l251 -314h-148l-178 225q-101 -114 -204.5 -177t-233.5 -63q-161 0 -264.5 88t-103.5 231q0 65 22.5 124t55.5 103t88 89t102 74.5t115 68.5q-76 103 -108.5 172.5t-32.5 143.5q0 89 38 164t118 123.5t189 48.5q135 0 223.5 -77.5t88.5 -193.5
q0 -54 -20.5 -104.5t-50.5 -89t-80.5 -79.5t-94.5 -69t-108 -65l271 -341zM460 88q102 0 184 54t177 164l-295 374q-76 -44 -125 -77.5t-99.5 -79.5t-75.5 -98t-25 -111q0 -99 73.5 -162.5t185.5 -63.5zM440 1077q0 -52 27 -108.5t96 -149.5q56 32 93 54.5t79.5 55t67 61.5
t41 66.5t16.5 76.5q0 77 -54 127t-145 50q-102 0 -161.5 -67.5t-59.5 -165.5z" />
    <glyph glyph-name="quotesingle" unicode="'" horiz-adv-x="673" 
d="M486 1440h114l-103 -484h-114z" />
    <glyph glyph-name="parenleft" unicode="(" horiz-adv-x="737" 
d="M783 1419l38 -102q-163 -48 -291.5 -193t-196 -336.5t-67.5 -391.5q0 -183 65 -330.5t188 -245.5l-60 -97q-154 116 -234.5 287.5t-80.5 383.5q0 223 78 436t226 373.5t335 215.5z" />
    <glyph glyph-name="parenright" unicode=")" horiz-adv-x="737" 
d="M-4 -281l-38 102q163 48 291.5 193t196 336.5t67.5 391.5q0 183 -65 330.5t-188 245.5l60 97q154 -116 234.5 -287.5t80.5 -383.5q0 -223 -78 -436t-226 -373.5t-335 -215.5z" />
    <glyph glyph-name="asterisk" unicode="*" horiz-adv-x="850" 
d="M288 1284l236 -110l57 266h89l-59 -276l270 57l10 -87l-272 -57l104 -218l-78 -44l-104 219l-195 -194l-61 59l195 194l-235 110z" />
    <glyph glyph-name="plus" unicode="+" 
d="M560 103h-106l79 372h-370l21 103h371l81 377h105l-80 -377h375l-21 -103h-376z" />
    <glyph glyph-name="comma" unicode="," horiz-adv-x="476" 
d="M149 234h132l-191 -483h-106z" />
    <glyph glyph-name="hyphen" unicode="-" horiz-adv-x="814" 
d="M697 578l-22 -103h-533l21 103h534z" />
    <glyph glyph-name="period" unicode="." horiz-adv-x="503" 
d="M172 177q38 0 67 -28.5t29 -67.5q0 -38 -29 -67t-67 -29t-67 29t-29 67q0 39 29 67.5t67 28.5z" />
    <glyph glyph-name="slash" unicode="/" horiz-adv-x="984" 
d="M1090 1540l-1063 -1740h-130l1063 1740h130z" />
    <glyph glyph-name="zero" unicode="0" horiz-adv-x="1408" 
d="M856 1415q219 0 349.5 -149t130.5 -395q0 -122 -29.5 -247.5t-88.5 -239.5t-140 -203.5t-192 -142.5t-236 -53q-220 0 -350.5 149.5t-130.5 394.5q0 122 29.5 247t89 239.5t140 203.5t192 142.5t236.5 53.5zM850 1303q-103 0 -194 -47t-156 -125t-113 -178t-71 -206.5
t-23 -208.5q0 -203 99.5 -322t263.5 -119q128 0 236 71.5t176 184.5t106 246t38 263q0 204 -99 322.5t-263 118.5z" />
    <glyph glyph-name="one" unicode="1" horiz-adv-x="830" 
d="M816 1414l-302 -1414h-119l264 1238l-464 -168l27 128z" />
    <glyph glyph-name="two" unicode="2" horiz-adv-x="1085" 
d="M316 1115l-77 73q67 94 178.5 160.5t244.5 66.5q95 0 171 -30t122.5 -81t71 -114.5t24.5 -133.5q0 -129 -72.5 -241t-216.5 -240l-523 -463h676l-24 -112h-853l18 92l622 553q131 117 191 208.5t60 192.5q0 106 -71 181.5t-203 75.5q-104 0 -192 -53t-147 -135z" />
    <glyph glyph-name="three" unicode="3" horiz-adv-x="1078" 
d="M300 1137l-74 80q166 198 434 198q178 0 287 -92.5t109 -236.5q0 -125 -80 -230.5t-225 -152.5q90 -39 141 -113.5t51 -171.5q0 -86 -34 -164t-96.5 -138t-161 -95.5t-219.5 -35.5q-137 0 -245 45t-168 123l80 78q53 -64 142.5 -100t192.5 -36q97 0 173 27t122 72.5
t70 102t24 119.5q0 108 -81 172.5t-212 64.5h-186l23 108h176q175 0 283 94.5t108 216.5q0 102 -80 167.5t-205 65.5q-206 0 -349 -168z" />
    <glyph glyph-name="four" unicode="4" horiz-adv-x="1135" 
d="M902 817l-85 -399h253l-24 -111h-253l-65 -307h-118l65 307h-656l20 95l686 997h138l-675 -981h511l85 399h118z" />
    <glyph glyph-name="five" unicode="5" horiz-adv-x="1120" 
d="M1098 1400l-23 -111h-608l-115 -458h179q90 0 164 -18t125 -49.5t89 -75t54.5 -94.5t22 -107.5t-7.5 -115.5q-36 -188 -175.5 -287t-329.5 -99q-137 0 -251 54.5t-186 159.5l88 69q121 -171 354 -171q149 0 252.5 77t126.5 206q10 43 6 85t-15.5 79.5t-40.5 69.5
t-69 55.5t-100 36.5t-135 13h-287l165 681h717z" />
    <glyph glyph-name="six" unicode="6" horiz-adv-x="1147" 
d="M864 1400l-428 -544q77 30 166 30q191 0 322 -118.5t131 -298.5q0 -130 -65 -240t-182.5 -175.5t-263.5 -65.5q-201 0 -333.5 117t-132.5 302q0 168 128 334l510 659h148zM584 777q-167 0 -275.5 -106t-108.5 -259q0 -139 98 -227t252 -88q166 0 274 106.5t108 259.5
q0 140 -98.5 227t-249.5 87z" />
    <glyph glyph-name="seven" unicode="7" horiz-adv-x="1076" 
d="M1190 1400l-18 -97l-821 -1303h-140l820 1289h-790l24 111h925z" />
    <glyph glyph-name="eight" unicode="8" horiz-adv-x="1223" 
d="M782 1415q111 0 206.5 -40t156.5 -119t61 -181q0 -126 -88 -228t-242 -148q98 -41 155 -115t57 -170q0 -184 -154 -306.5t-401 -122.5q-121 0 -222 39.5t-164 118t-63 181.5q0 138 91 243t255 149q-84 40 -132 108.5t-48 158.5q0 86 36.5 164t103 138t168.5 95t224 35z
M633 655q-192 0 -308 -91.5t-116 -227.5q0 -112 95 -177t235 -65q191 0 309 90.5t118 227.5q0 109 -94 176t-239 67zM774 1305q-184 0 -292.5 -91t-108.5 -224q0 -105 83.5 -168.5t216.5 -63.5q182 0 295.5 90t113.5 218q0 108 -90.5 173.5t-217.5 65.5z" />
    <glyph glyph-name="nine" unicode="9" horiz-adv-x="1147" 
d="M381 0l428 544q-77 -30 -167 -30q-191 0 -321.5 118.5t-130.5 298.5q0 130 64.5 240t182.5 175.5t264 65.5q201 0 333.5 -117t132.5 -302q0 -167 -129 -334l-509 -659h-148zM660 623q168 0 276.5 106t108.5 259q0 139 -98 227t-253 88q-166 0 -274 -106.5t-108 -259.5
q0 -140 98.5 -227t249.5 -87z" />
    <glyph glyph-name="colon" unicode=":" horiz-adv-x="503" 
d="M335 956q38 0 66.5 -28.5t28.5 -67.5q0 -38 -28.5 -67t-66.5 -29q-39 0 -67.5 29t-28.5 67q0 39 28.5 67.5t67.5 28.5zM169 178q38 0 67 -28.5t29 -66.5q0 -39 -29 -68t-67 -29t-67 29t-29 68q0 38 29 66.5t67 28.5z" />
    <glyph glyph-name="semicolon" unicode=";" horiz-adv-x="476" 
d="M306 956q39 0 67.5 -28.5t28.5 -67.5q0 -38 -28.5 -67t-67.5 -29q-38 0 -67 29t-29 67q0 39 29 67.5t67 28.5zM149 234h132l-191 -483h-106z" />
    <glyph glyph-name="less" unicode="&#x3c;" 
d="M213 471l24 113l849 368l-28 -130l-717 -303l588 -303l-24 -113z" />
    <glyph glyph-name="equal" unicode="=" 
d="M1012 403l-23 -104h-852l23 104h852zM1087 754l-23 -103h-852l23 103h852z" />
    <glyph glyph-name="greater" unicode="&#x3e;" 
d="M1021 584l-24 -113l-849 -368l28 130l717 303l-588 303l24 113z" />
    <glyph glyph-name="question" unicode="?" horiz-adv-x="827" 
d="M312 435h-104l65 310h63q189 0 289 79t100 212q0 121 -104 191t-265 70q-8 0 -62 -3l5 117q33 3 78 3q207 0 342 -99.5t135 -263.5q0 -180 -127.5 -291.5t-364.5 -122.5zM192 177q39 0 67.5 -28.5t28.5 -67.5q0 -38 -28.5 -67t-67.5 -29q-38 0 -67 29t-29 67
q0 39 29 67.5t67 28.5z" />
    <glyph glyph-name="at" unicode="@" horiz-adv-x="1919" 
d="M1297 -92l47 -74q-194 -141 -454 -141q-152 0 -285.5 52t-231 144t-154 227t-56.5 293q0 179 68 342.5t185.5 283.5t284.5 191.5t355 71.5q206 0 370 -82.5t258 -235.5t94 -350q0 -150 -45 -271.5t-126.5 -192t-184.5 -70.5q-84 0 -137 45t-69 112q-120 -149 -306 -149
q-153 0 -251 96t-98 246q0 118 56.5 221.5t155.5 166t216 62.5q104 0 180.5 -45.5t114.5 -128.5l35 161h97l-102 -478q-9 -42 -9 -76q0 -68 34.5 -105.5t90.5 -37.5q107 0 176 126.5t69 315.5q0 172 -80.5 304t-223 203.5t-323.5 71.5q-165 0 -311 -64t-248 -171.5
t-161.5 -253t-59.5 -305.5q0 -143 49 -262t134 -198.5t200 -123.5t247 -44q229 0 399 123zM993 802q-138 0 -234 -104.5t-96 -245.5q0 -114 71 -185t183 -71q139 0 236 103.5t97 247.5q0 113 -72 184t-185 71z" />
    <glyph glyph-name="A" unicode="A" horiz-adv-x="1406" 
d="M974 1400l285 -1400h-125l-82 409h-718l-254 -409h-133l877 1400h150zM877 1279l-471 -754h622z" />
    <glyph glyph-name="B" unicode="B" horiz-adv-x="1373" 
d="M398 1400h512q194 0 312 -82.5t118 -238.5q0 -128 -79.5 -231t-226.5 -139q117 -37 174 -133t28 -225q-18 -83 -54 -144t-85 -100.5t-119 -63.5t-148 -33.5t-179 -9.5h-551zM785 656h-422l-115 -541h421q96 0 167.5 12t128.5 39.5t93 75t51 116.5q32 149 -56 223.5
t-268 74.5zM888 1285h-391l-109 -515h401q113 0 197.5 24t133 66t72 94t23.5 114q0 111 -90 164t-237 53z" />
    <glyph glyph-name="C" unicode="C" horiz-adv-x="1493" 
d="M1273 312l81 -78q-96 -119 -234.5 -184.5t-296.5 -65.5q-187 0 -336.5 82.5t-235 232t-85.5 338.5q0 163 59 307.5t160.5 247.5t245 163t305.5 60q50 0 101 -6t117 -25t124 -49.5t116 -84.5t98 -125l-94 -74q-37 67 -93 116.5t-119.5 77t-127.5 40.5t-129 13
q-178 0 -323.5 -86t-228.5 -235t-83 -330q0 -239 152.5 -392t384.5 -153q130 0 246.5 55.5t195.5 154.5z" />
    <glyph glyph-name="D" unicode="D" horiz-adv-x="1559" 
d="M398 1400h453q306 0 478.5 -156t172.5 -421q0 -173 -59.5 -322.5t-171 -261t-284.5 -175.5t-388 -64h-499zM838 1284h-341l-249 -1168h364q182 0 328 53.5t240 147.5t143.5 220.5t49.5 274.5q0 218 -137.5 345t-397.5 127z" />
    <glyph glyph-name="E" unicode="E" horiz-adv-x="1297" 
d="M1180 762l-25 -114h-793l-114 -533h824l-25 -115h-947l298 1400h936l-24 -115h-813l-111 -523h794z" />
    <glyph glyph-name="F" unicode="F" horiz-adv-x="1249" 
d="M1175 763l-25 -116h-789l-137 -647h-124l298 1400h929l-25 -116h-805l-111 -521h789z" />
    <glyph glyph-name="G" unicode="G" horiz-adv-x="1613" 
d="M1450 1176l-92 -83q-82 106 -198 154.5t-237 48.5q-130 0 -246 -49.5t-201 -135.5t-134.5 -208.5t-49.5 -262.5q0 -239 152.5 -387.5t390.5 -148.5q228 0 379.5 138t188.5 378h-471l25 113h588q0 -17 -4 -57q-24 -204 -120 -360t-250.5 -243t-346.5 -87
q-187 0 -337.5 81.5t-236.5 228.5t-86 332q0 166 60 312.5t163 250t245 163.5t301 60q57 0 117 -10t132.5 -33.5t143 -73.5t124.5 -121z" />
    <glyph glyph-name="H" unicode="H" horiz-adv-x="1537" 
d="M522 1400l-136 -637h888l136 637h125l-299 -1400h-124l137 647h-888l-137 -647h-124l298 1400h124z" />
    <glyph glyph-name="I" unicode="I" horiz-adv-x="524" 
d="M522 1400l-298 -1400h-124l298 1400h124z" />
    <glyph glyph-name="J" unicode="J" horiz-adv-x="1100" 
d="M1103 1400l-192 -928q-51 -247 -182.5 -367t-332.5 -120q-125 0 -232.5 54t-168.5 142l89 80q48 -68 133 -113.5t184 -45.5q309 0 391 397l187 901h124z" />
    <glyph glyph-name="K" unicode="K" horiz-adv-x="1334" 
d="M522 1400l-136 -638h170l707 638h164l-779 -694l569 -706h-149l-520 646h-187l-137 -646h-124l298 1400h124z" />
    <glyph glyph-name="L" unicode="L" horiz-adv-x="1174" 
d="M522 1400l-274 -1284h810l-24 -116h-934l298 1400h124z" />
    <glyph glyph-name="M" unicode="M" horiz-adv-x="1813" 
d="M1812 1400l-298 -1400h-124l266 1250l-735 -1084h-129l-301 1087l-267 -1253h-124l298 1400h177l301 -1094l747 1094h189z" />
    <glyph glyph-name="N" unicode="N" horiz-adv-x="1540" 
d="M1538 1400l-299 -1400h-113l-645 1208l-257 -1208h-124l298 1400h115l643 -1208l257 1208h125z" />
    <glyph glyph-name="O" unicode="O" horiz-adv-x="1662" 
d="M931 1415q187 0 337 -78t238.5 -226.5t88.5 -341.5q0 -212 -97 -391.5t-273.5 -286.5t-395.5 -107q-187 0 -337.5 78.5t-239 227t-88.5 341.5q0 159 57.5 302.5t157.5 250t244 169t308 62.5zM921 1298q-136 0 -254.5 -53.5t-200 -143.5t-128 -210t-46.5 -251
q0 -243 154.5 -390.5t392.5 -147.5q135 0 253.5 53.5t200 143t128 210t46.5 251.5q0 243 -154.5 390.5t-391.5 147.5z" />
    <glyph glyph-name="P" unicode="P" horiz-adv-x="1287" 
d="M724 570h-379l-121 -570h-124l298 1400h467q205 0 320 -95.5t115 -260.5q0 -100 -36 -185t-105.5 -150t-181 -102t-253.5 -37zM854 1285h-357l-127 -599h359q114 0 201 27t139 75t78 109.5t26 135.5q0 121 -83.5 186.5t-235.5 65.5z" />
    <glyph glyph-name="Q" unicode="Q" horiz-adv-x="1672" 
d="M931 1415q187 0 337 -78t238.5 -226.5t88.5 -341.5q0 -288 -174 -506l188 -263h-138l-130 178q-101 -92 -232 -143t-280 -51q-187 0 -337.5 78.5t-239 227t-88.5 341.5q0 159 57.5 302.5t157.5 250t244 169t308 62.5zM921 1298q-136 0 -254.5 -53.5t-200 -143.5
t-128 -210t-46.5 -251q0 -243 154.5 -390.5t392.5 -147.5q254 0 431 175l-291 407h140l227 -317q121 174 121 393q0 243 -154.5 390.5t-391.5 147.5z" />
    <glyph glyph-name="R" unicode="R" horiz-adv-x="1317" 
d="M398 1400h495q202 0 313 -93t111 -244q0 -70 -19.5 -133.5t-61.5 -120.5t-104 -98.5t-152.5 -65.5t-200.5 -24h-90l462 -621h-146l-451 621h-198l-132 -621h-124zM881 1284h-384l-118 -552h404q205 0 305.5 87.5t100.5 230.5q0 108 -79.5 171t-228.5 63z" />
    <glyph glyph-name="S" unicode="S" horiz-adv-x="1318" 
d="M1298 1251l-68 -98q-196 146 -462 146q-100 0 -177.5 -26t-122 -68.5t-67 -92t-22.5 -102.5q0 -98 70.5 -157t218.5 -84l127 -21q391 -67 391 -342q0 -180 -148 -301t-411 -121q-129 0 -280.5 44t-267.5 140l73 99q97 -86 232 -126.5t248 -40.5q201 0 313.5 84.5
t112.5 207.5q0 187 -304 238l-129 22q-183 31 -279 117.5t-96 225.5q0 79 32 152t93.5 134t165 97.5t234.5 36.5q309 0 523 -164z" />
    <glyph glyph-name="T" unicode="T" horiz-adv-x="1188" 
d="M1346 1400l-25 -116h-488l-273 -1284h-125l273 1284h-495l25 116h1108z" />
    <glyph glyph-name="U" unicode="U" horiz-adv-x="1469" 
d="M1486 1400l-182 -860q-40 -189 -133 -315t-220.5 -183t-289.5 -57q-101 0 -186.5 25.5t-151.5 76t-103.5 133t-37.5 188.5q0 75 17 153l179 839h125l-179 -837q-15 -68 -15 -135q0 -111 49 -186t129 -107.5t188 -32.5q191 0 325 111.5t181 335.5l180 851h125z" />
    <glyph glyph-name="V" unicode="V" horiz-adv-x="1387" 
d="M1538 1400l-858 -1400h-150l-285 1400h124l256 -1281l782 1281h131z" />
    <glyph glyph-name="W" unicode="W" horiz-adv-x="2199" 
d="M2322 1400l-755 -1400h-146l-154 1236l-660 -1236h-151l-183 1400h124l160 -1267l674 1269h133l154 -1265l675 1263h129z" />
    <glyph glyph-name="X" unicode="X" horiz-adv-x="1354" 
d="M1451 1400l-655 -690l384 -710h-136l-334 617l-582 -617h-153l676 716l-364 684h136l315 -591l560 591h153z" />
    <glyph glyph-name="Y" unicode="Y" horiz-adv-x="1249" 
d="M1433 1400l-720 -801l-127 -599h-124l129 610l-379 790h132l328 -680l606 680h155z" />
    <glyph glyph-name="Z" unicode="Z" horiz-adv-x="1310" 
d="M1370 1400l-20 -97l-1113 -1187h898l-25 -116h-1062l23 103l1111 1181h-889l25 116h1052z" />
    <glyph glyph-name="bracketleft" unicode="[" horiz-adv-x="725" 
d="M511 -157l-23 -106h-444l354 1663h444l-22 -106h-328l-309 -1451h328z" />
    <glyph glyph-name="backslash" unicode="\" horiz-adv-x="840" 
d="M533 -200l-288 1740h106l288 -1740h-106z" />
    <glyph glyph-name="bracketright" unicode="]" horiz-adv-x="725" 
d="M256 1294l23 106h444l-354 -1663h-444l22 106h327l309 1451h-327z" />
    <glyph glyph-name="asciicircum" unicode="^" 
d="M378 656h-121l356 744h112l356 -744h-124l-290 626z" />
    <glyph glyph-name="underscore" unicode="_" horiz-adv-x="935" 
d="M808 -150l-21 -103h-946l22 103h945z" />
    <glyph glyph-name="grave" unicode="`" horiz-adv-x="904" 
d="M744 1082h-113l-251 300h144z" />
    <glyph glyph-name="a" unicode="a" horiz-adv-x="1210" 
d="M625 956q132 0 224 -64t127 -170l47 219h113l-200 -941h-113l31 143q-142 -158 -359 -158q-177 0 -292 117.5t-115 297.5q0 147 70 274.5t194.5 204.5t272.5 77zM515 92q155 0 271.5 105t141.5 265q25 163 -62.5 275t-243.5 112q-113 0 -209.5 -59.5t-152 -160
t-55.5 -218.5q0 -139 84.5 -229t225.5 -90z" />
    <glyph glyph-name="b" unicode="b" horiz-adv-x="1212" 
d="M586 -15q-132 0 -224.5 63.5t-126.5 169.5l-47 -218h-114l306 1440h114l-135 -633q139 149 350 149q180 0 297 -118t117 -297q0 -147 -70 -274.5t-194.5 -204.5t-272.5 -77zM696 849q-155 0 -271.5 -105t-141.5 -265q-25 -163 62.5 -275t243.5 -112q173 0 295 129
t122 309q0 138 -85 228.5t-225 90.5z" />
    <glyph glyph-name="c" unicode="c" horiz-adv-x="1008" 
d="M981 780l-89 -64q-102 132 -280 132q-169 0 -285 -121.5t-116 -293.5q0 -147 93 -243t234 -96q163 0 276 111l66 -75q-66 -69 -157 -106t-190 -37q-194 0 -316.5 125t-122.5 314q0 144 68 265t188.5 192.5t266.5 71.5q120 0 213 -45t151 -130z" />
    <glyph glyph-name="d" unicode="d" horiz-adv-x="1211" 
d="M625 956q133 -1 224.5 -64.5t126.5 -169.5l153 718h114l-306 -1440h-113l30 145q-140 -160 -359 -160q-177 0 -292 117.5t-115 297.5q0 147 70 274.5t194.5 204.5t272.5 77zM515 92q155 0 271.5 105t141.5 265q25 163 -62.5 275t-243.5 112q-113 0 -209.5 -59.5
t-152 -160t-55.5 -218.5q0 -139 84.5 -229t225.5 -90z" />
    <glyph glyph-name="e" unicode="e" horiz-adv-x="1078" 
d="M833 209l57 -79q-82 -75 -174 -110.5t-211 -35.5q-194 0 -306.5 114t-112.5 292q0 102 37 202.5t103.5 181.5t169 131.5t222.5 50.5q172 0 277.5 -101.5t105.5 -269.5q0 -81 -25 -156h-774q-1 -12 -1 -35q0 -139 85 -224.5t231 -85.5q182 0 316 125zM613 855
q-151 0 -253.5 -94.5t-140.5 -233.5h665q4 25 4 55q0 125 -75.5 199t-199.5 74z" />
    <glyph glyph-name="f" unicode="f" horiz-adv-x="839" 
d="M876 941l-22 -104h-382l-178 -837h-115l178 837h-226l21 104h227l41 192q34 158 120.5 240t220.5 82q139 0 230 -76l-56 -89q-72 58 -175 58q-85 0 -144 -57t-84 -173l-38 -177h382z" />
    <glyph glyph-name="g" unicode="g" horiz-adv-x="1211" 
d="M1136 941l-187 -884q-48 -223 -187 -344t-328 -121q-246 0 -405 147l66 85q135 -129 341 -129q147 0 257 98t144 271l17 86q-136 -152 -344 -152q-187 0 -303.5 115.5t-116.5 292.5q0 148 70.5 274.5t193.5 201t269 74.5q134 0 226 -64t127 -171l47 220h113zM515 104
q163 0 279.5 108.5t133.5 277.5q16 152 -71.5 255.5t-234.5 103.5q-174 0 -294 -124.5t-120 -307.5q0 -137 85.5 -225t221.5 -88z" />
    <glyph glyph-name="h" unicode="h" horiz-adv-x="1176" 
d="M689 956q163 0 255.5 -89.5t92.5 -235.5q0 -46 -13 -106l-112 -525h-114l113 530q10 50 10 87q0 104 -64.5 167.5t-186.5 63.5q-138 0 -238 -85.5t-131 -231.5l-113 -531h-114l306 1440h114l-134 -630q128 146 329 146z" />
    <glyph glyph-name="i" unicode="i" horiz-adv-x="463" 
d="M389 941l-201 -941h-114l200 941h115zM402 1362q34 0 58 -24t24 -59q0 -34 -23.5 -57.5t-58.5 -23.5q-34 0 -57.5 23t-23.5 58t23.5 59t57.5 24z" />
    <glyph glyph-name="j" unicode="j" horiz-adv-x="468" 
d="M394 941l-239 -1124q-24 -113 -88.5 -171t-159.5 -58q-82 0 -142 41l43 93q40 -27 92 -27q55 0 92 35t51 102l236 1109h115zM407 1362q34 0 58 -24t24 -59q0 -34 -23.5 -57.5t-58.5 -23.5t-58 23t-23 58t23.5 59t57.5 24z" />
    <glyph glyph-name="k" unicode="k" horiz-adv-x="1013" 
d="M494 1440l-191 -896h149l445 397h150l-518 -455l350 -486h-129l-313 441h-156l-93 -441h-114l306 1440h114z" />
    <glyph glyph-name="l" unicode="l" horiz-adv-x="462" 
d="M494 1440l-306 -1440h-114l306 1440h114z" />
    <glyph glyph-name="m" unicode="m" horiz-adv-x="1902" 
d="M1414 956q162 0 255 -90t93 -235q0 -51 -12 -106l-114 -525h-114l113 530q10 43 10 87q0 105 -64 168t-187 63q-137 0 -237 -85.5t-131 -231.5l-114 -531h-114l113 530q16 64 7.5 122t-35.5 101t-82 68.5t-131 25.5q-138 0 -238 -85.5t-131 -231.5l-113 -531h-114
l200 941h113l-28 -131q128 147 330 147q129 0 213 -57t116 -154q70 106 174.5 158.5t221.5 52.5z" />
    <glyph glyph-name="n" unicode="n" horiz-adv-x="1176" 
d="M689 956q163 0 255.5 -89.5t92.5 -235.5q0 -46 -13 -106l-112 -525h-114l113 530q10 50 10 87q0 104 -64.5 167.5t-186.5 63.5q-138 0 -238 -85.5t-131 -231.5l-113 -531h-114l200 941h113l-28 -133q128 148 330 148z" />
    <glyph glyph-name="o" unicode="o" horiz-adv-x="1162" 
d="M622 956q197 0 322 -124.5t125 -314.5q0 -144 -69 -266t-191 -194.5t-269 -72.5q-196 0 -321.5 124t-125.5 316q0 107 40.5 205t110.5 170t168.5 114.5t209.5 42.5zM613 849q-170 0 -286.5 -123t-116.5 -296q0 -148 94.5 -243.5t242.5 -95.5q171 0 288.5 123.5
t117.5 296.5q0 147 -95.5 242.5t-244.5 95.5z" />
    <glyph glyph-name="p" unicode="p" horiz-adv-x="1212" 
d="M585 -15q-132 0 -224 63.5t-127 169.5l-131 -618h-114l285 1341h113l-31 -145q142 160 359 160q177 0 292.5 -118t115.5 -297q0 -147 -70.5 -274.5t-195 -204.5t-272.5 -77zM695 849q-155 0 -271.5 -105t-140.5 -265q-25 -163 62 -275t243 -112q173 0 295.5 128.5
t122.5 309.5q0 138 -85 228.5t-226 90.5z" />
    <glyph glyph-name="q" unicode="q" horiz-adv-x="1210" 
d="M625 956q133 -1 224.5 -64.5t126.5 -169.5l47 219h113l-285 -1341h-115l114 531q-139 -146 -348 -146q-180 0 -297 117.5t-117 297.5q0 147 70 274.5t194.5 204.5t272.5 77zM515 92q155 0 271.5 105t141.5 265q25 163 -62.5 275t-243.5 112q-113 0 -209.5 -59.5
t-152 -160t-55.5 -218.5q0 -139 84.5 -229t225.5 -90z" />
    <glyph glyph-name="r" unicode="r" horiz-adv-x="788" 
d="M387 941l-26 -123q118 139 294 139q102 0 175 -43l-51 -103q-58 37 -144 37q-121 0 -212 -85.5t-123 -234.5l-112 -528h-114l200 941h113z" />
    <glyph glyph-name="s" unicode="s" horiz-adv-x="950" 
d="M908 849l-60 -87q-54 40 -142.5 67t-177.5 27q-109 0 -180.5 -41.5t-80.5 -114.5q-9 -70 37 -111.5t148 -57.5l95 -14q147 -23 216 -91.5t57 -174.5q-15 -123 -122.5 -194.5t-272.5 -71.5q-109 0 -220 36t-185 95l64 84q63 -51 153 -83.5t186 -32.5q119 0 195 43t85 123
q8 67 -39 108t-148 57l-97 15q-152 23 -217 92t-53 173q15 123 118.5 192t261.5 69q115 0 214 -29.5t165 -77.5z" />
    <glyph glyph-name="t" unicode="t" horiz-adv-x="888" 
d="M894 941l-22 -104h-413l-104 -492q-27 -125 21 -189t142 -64q115 0 216 75l48 -88q-124 -94 -277 -94q-152 0 -227 94.5t-38 268.5l104 489h-214l22 104h214l66 307h114l-65 -307h413z" />
    <glyph glyph-name="u" unicode="u" horiz-adv-x="1165" 
d="M1101 941l-118 -557q-28 -132 -99.5 -223.5t-168.5 -133.5t-215 -42q-158 0 -259 85.5t-101 239.5q0 50 12 107l112 524h115l-113 -530q-11 -50 -11 -89q0 -113 71.5 -171.5t186.5 -58.5q133 0 230 80.5t129 231.5l114 537h115z" />
    <glyph glyph-name="v" unicode="v" horiz-adv-x="1017" 
d="M1085 941l-605 -943h-132l-216 943h116l184 -833l529 833h124z" />
    <glyph glyph-name="w" unicode="w" horiz-adv-x="1699" 
d="M986 941l158 -822l483 822h125l-559 -941h-135l-152 821l-448 -821h-133l-177 941h115l149 -821l448 821h126z" />
    <glyph glyph-name="x" unicode="x" horiz-adv-x="980" 
d="M1012 941l-457 -468l290 -473h-126l-246 396l-381 -396h-137l465 482l-285 459h127l236 -386l376 386h138z" />
    <glyph glyph-name="y" unicode="y" horiz-adv-x="1012" 
d="M1096 941l-975 -1344h-130l460 628l-329 716h121l281 -614l442 614h130z" />
    <glyph glyph-name="z" unicode="z" horiz-adv-x="1023" 
d="M993 941l-19 -87l-763 -751h629l-22 -103h-784l18 89l768 748h-620l23 104h770z" />
    <glyph glyph-name="braceleft" unicode="{" horiz-adv-x="830" 
d="M927 1400l-22 -106h-46q-118 0 -188 -59.5t-91 -205.5l-20 -140q-19 -141 -85.5 -219t-175.5 -106q90 -34 123.5 -116.5t1.5 -199.5l-40 -145q-35 -127 12 -193t154 -66h66l-22 -106h-66q-163 0 -232 109t-22 283l36 131q33 125 -16.5 190t-163.5 65l22 106q125 0 197 63
t92 203l22 151q51 361 408 361h56z" />
    <glyph glyph-name="bar" unicode="|" horiz-adv-x="674" 
d="M592 1400l-354 -1665h-114l354 1665h114z" />
    <glyph glyph-name="braceright" unicode="}" horiz-adv-x="830" 
d="M-55 -262l22 106h46q118 0 188 59.5t91 205.5l20 140q37 266 260 325q-89 34 -122.5 116t-1.5 200l40 145q35 127 -12 193t-154 66h-66l22 106h66q163 0 232 -109t22 -283l-36 -131q-33 -125 16.5 -190t163.5 -65l-22 -106q-125 0 -197 -63t-92 -203l-22 -151
q-51 -361 -408 -361h-56z" />
    <glyph glyph-name="asciitilde" unicode="~" 
d="M993 620l51 -77q-65 -56 -128 -83t-138 -27q-59 0 -108 14t-77.5 31.5t-73 31.5t-95.5 14q-55 0 -100 -21.5t-98 -67.5l-52 77q127 110 266 110q59 0 108 -14t77.5 -31.5t73 -31.5t95.5 -14q55 0 100.5 21.5t98.5 67.5z" />
    <glyph glyph-name="uni00A0" unicode="&#xa0;" horiz-adv-x="530" 
 />
    <glyph glyph-name="exclamdown" unicode="&#xa1;" horiz-adv-x="504" 
d="M-15 -459l224 965h98l-183 -965h-139zM329 763q-38 0 -66.5 28.5t-28.5 66.5q0 39 28.5 68t66.5 29t67 -29t29 -68q0 -38 -29 -66.5t-67 -28.5z" />
    <glyph glyph-name="cent" unicode="&#xa2;" horiz-adv-x="1400" 
d="M1232 1010l-86 -64q-84 100 -209 124l-160 -749h7q166 0 283 111l63 -74q-67 -69 -158.5 -106t-191.5 -37q-17 0 -25 1l-46 -216h-106l49 231q-145 38 -231.5 153.5t-86.5 270.5q0 142 67.5 262.5t187.5 192t266 73.5l46 217h106l-48 -225q173 -30 273 -165zM449 662
q0 -117 62 -204t164 -120l157 739q-162 -10 -272.5 -130t-110.5 -285z" />
    <glyph glyph-name="sterling" unicode="&#xa3;" horiz-adv-x="1400" 
d="M1149 112l-24 -112h-1004l24 112h183l113 536h-182l22 104h182l47 220q46 219 176.5 331t302.5 112q118 0 207.5 -46t139.5 -135l-98 -64q-81 133 -257 133q-82 0 -150.5 -34t-125 -116.5t-83.5 -209.5l-41 -191h526l-22 -104h-526l-113 -536h703z" />
    <glyph glyph-name="currency" unicode="&#xa4;" horiz-adv-x="1400" 
d="M1224 1155l57 -72l-168 -138q80 -120 62 -268q-19 -152 -134 -264l97 -122l-77 -63l-97 122q-124 -80 -266 -73q-152 9 -255 109l-168 -140l-57 72l167 137q-78 119 -60 268q19 153 132 262l-97 123l76 64l98 -124q123 81 268 74q149 -9 253 -108zM709 371q138 -7 246 84
t125 228t-67.5 237.5t-222.5 107.5t-245.5 -83.5t-124.5 -227.5t66.5 -238t222.5 -108z" />
    <glyph glyph-name="yen" unicode="&#xa5;" horiz-adv-x="1400" 
d="M1151 433l-20 -95h-401l-72 -338h-117l71 338h-400l21 95h399l47 220h-400l21 95h349l-327 652h132l303 -614l564 614h145l-599 -652h351l-21 -95h-400l-47 -220h401z" />
    <glyph glyph-name="brokenbar" unicode="&#xa6;" horiz-adv-x="674" 
d="M592 1400l-148 -694h-114l148 694h114zM386 429l-148 -694h-114l148 694h114z" />
    <glyph glyph-name="section" unicode="&#xa7;" horiz-adv-x="1247" 
d="M1247 1269l-70 -88q-153 127 -375 127q-148 0 -254 -60t-124 -149q-22 -105 43.5 -160.5t210.5 -71.5l113 -12q174 -19 269 -106.5t67 -222.5q-33 -155 -207 -238q122 -92 90 -253q-29 -146 -171 -233t-342 -87q-139 0 -267 46.5t-200 116.5l75 86q62 -59 168.5 -101
t229.5 -42q157 0 264 59t127 156q21 104 -52 158.5t-219 71.5l-119 14q-173 21 -259.5 103t-59.5 212q34 160 207 243q-120 88 -85 258q28 140 167.5 229.5t332.5 89.5q138 0 251.5 -40.5t188.5 -105.5zM609 765q-70 8 -121 25q-75 -29 -125 -78.5t-63 -108.5
q-22 -98 48.5 -152t225.5 -70l113 -12q80 -9 141 -32q75 29 125.5 76.5t62.5 103.5q21 102 -59 161.5t-229 74.5z" />
    <glyph glyph-name="dieresis" unicode="&#xa8;" horiz-adv-x="914" 
d="M420 1310q34 0 58 -24t24 -59q0 -34 -23.5 -57.5t-58.5 -23.5q-34 0 -57.5 23t-23.5 58t23.5 59t57.5 24zM829 1310q35 0 59 -24t24 -59q0 -34 -24 -57.5t-59 -23.5t-58 23t-23 58t23.5 59t57.5 24z" />
    <glyph glyph-name="copyright" unicode="&#xa9;" horiz-adv-x="1888" 
d="M939 -86q-151 0 -288.5 56t-239.5 152t-162 234t-60 294q0 163 67 317.5t180.5 271t274.5 187t339 70.5q151 0 288.5 -56t239 -152t161.5 -234t60 -294q0 -163 -67 -317t-180.5 -270.5t-274.5 -187.5t-338 -71zM1042 1396q-155 0 -295 -62t-238.5 -164.5t-156.5 -237
t-58 -276.5q0 -136 52.5 -256.5t140.5 -204.5t208 -132.5t251 -48.5q155 0 295.5 62.5t239 164.5t156.5 237t58 276q0 136 -52.5 256.5t-141 204.5t-208.5 132.5t-251 48.5zM1395 937l-92 -53q-40 74 -113.5 110t-149.5 36q-148 0 -246 -104t-98 -251q0 -131 85 -212.5
t210 -81.5q80 0 150 35t116 97l70 -64q-60 -79 -149 -123.5t-192 -44.5q-168 0 -283 107t-115 281q0 125 57.5 230t163 168t236.5 63q114 0 208.5 -52t141.5 -141z" />
    <glyph glyph-name="ordfeminine" unicode="&#xaa;" horiz-adv-x="741" 
d="M507 1298q118 0 185.5 -58.5t67.5 -162.5q0 -32 -8 -74l-79 -369h-92l18 86q-100 -97 -235 -97q-96 0 -154.5 47.5t-58.5 126.5q0 92 72 153t213 61h222q7 28 7 56q0 71 -45.5 109t-129.5 38q-103 0 -206 -65l-27 77q114 72 250 72zM390 702q62 0 122 28t104 76l28 134
h-201q-98 0 -145 -38.5t-47 -93.5q0 -50 37.5 -78t101.5 -28z" />
    <glyph glyph-name="guillemotleft" unicode="&#xab;" horiz-adv-x="998" 
d="M917 891l-280 -376l113 -352h-116l-116 364l270 364h129zM538 891l-280 -376l113 -352h-116l-116 364l270 364h129z" />
    <glyph glyph-name="logicalnot" unicode="&#xac;" 
d="M946 158h-106l67 317h-746l22 103h852z" />
    <glyph glyph-name="uni00AD" unicode="&#xad;" horiz-adv-x="814" 
d="M697 578l-22 -103h-533l21 103h534z" />
    <glyph glyph-name="registered" unicode="&#xae;" horiz-adv-x="938" 
d="M619 1431q150 0 255.5 -101.5t105.5 -256.5q0 -106 -54 -200t-149.5 -151.5t-208.5 -57.5q-151 0 -257.5 101.5t-106.5 256.5q0 164 121.5 286.5t293.5 122.5zM571 734q138 0 235 101.5t97 233.5q0 127 -84.5 209.5t-203.5 82.5q-139 0 -237 -100.5t-98 -234.5
q0 -127 85.5 -209.5t205.5 -82.5zM497 1236h148q65 0 100 -37t23 -87q-22 -94 -148 -100l108 -144h-72l-102 144h-42l-30 -144h-63zM639 1181h-91l-25 -118h90q77 0 91 54q8 28 -10.5 46t-54.5 18z" />
    <glyph glyph-name="macron" unicode="&#xaf;" horiz-adv-x="904" 
d="M315 1180l20 93h585l-20 -93h-585z" />
    <glyph glyph-name="degree" unicode="&#xb0;" horiz-adv-x="761" 
d="M487 755q-131 0 -220 89t-89 217q0 143 102 247.5t254 104.5q131 0 220.5 -89t89.5 -217q0 -142 -104 -247t-253 -105zM493 848q102 0 176.5 75.5t74.5 177.5q0 91 -62.5 155.5t-152.5 64.5q-103 0 -177.5 -76t-74.5 -178q0 -92 62.5 -155.5t153.5 -63.5z" />
    <glyph glyph-name="plusminus" unicode="&#xb1;" 
d="M611 298h-105l69 325h-371l22 104h371l77 361h105l-77 -361h376l-22 -104h-376zM961 176l-23 -104h-851l22 104h852z" />
    <glyph glyph-name="twosuperior" unicode="&#xb2;" horiz-adv-x="657" 
d="M300 1227l-58 57q41 53 103.5 88.5t141.5 35.5q107 0 165.5 -60t58.5 -144q0 -72 -40 -133t-126 -135l-249 -215h349l-18 -87h-487l16 74l328 283q68 58 99.5 104.5t31.5 96.5q0 53 -37 90t-103 37q-100 0 -175 -92z" />
    <glyph glyph-name="threesuperior" unicode="&#xb3;" horiz-adv-x="645" 
d="M278 1239l-48 65q97 104 247 104q102 0 165.5 -53t63.5 -131q0 -68 -47 -126.5t-128 -81.5q53 -19 83 -60.5t30 -95.5q0 -98 -76 -166.5t-213 -68.5q-163 0 -236 97l63 58q58 -70 175 -70q95 0 143.5 44t48.5 108q0 54 -41.5 86t-108.5 32h-99l17 82h97q89 0 141.5 45
t52.5 103q0 50 -40 81.5t-104 31.5q-109 0 -186 -84z" />
    <glyph glyph-name="acute" unicode="&#xb4;" horiz-adv-x="904" 
d="M537 1082h-118l253 300h148z" />
    <glyph glyph-name="mu" unicode="&#xb5;" horiz-adv-x="1177" 
d="M93 -400h-115l287 1341h114l-113 -530q-10 -50 -10 -87q0 -104 64.5 -167.5t186.5 -63.5q138 0 238 85.5t131 231.5l113 531h114l-200 -941h-113l28 133q-128 -148 -330 -148q-94 0 -168.5 34.5t-116.5 97.5z" />
    <glyph glyph-name="paragraph" unicode="&#xb6;" horiz-adv-x="1106" 
d="M438 0l159 749q-153 4 -241.5 86t-88.5 212q0 50 12 97t43 94.5t78 82.5t122.5 57t170.5 22h134l-298 -1400h-91zM635 0l298 1400h91l-298 -1400h-91z" />
    <glyph glyph-name="periodcentered" unicode="&#xb7;" horiz-adv-x="717" 
d="M377 623q38 0 66.5 -28.5t28.5 -67.5q0 -38 -28.5 -67t-66.5 -29t-67 29t-29 67q0 39 29 67.5t67 28.5z" />
    <glyph glyph-name="cedilla" unicode="&#xb8;" horiz-adv-x="1000" 
d="M538 5l-168 -328h-127l178 329z" />
    <glyph glyph-name="onesuperior" unicode="&#xb9;" horiz-adv-x="517" 
d="M568 1407l-164 -773h-93l137 643l-241 -84l20 97z" />
    <glyph glyph-name="ordmasculine" unicode="&#xba;" horiz-adv-x="837" 
d="M550 1298q137 0 225 -86.5t88 -219.5q0 -152 -106.5 -260.5t-261.5 -108.5q-136 0 -224 86t-88 220q0 152 106 260.5t261 108.5zM543 1210q-111 0 -187 -81t-76 -195q0 -98 62 -160.5t159 -62.5q111 0 188 81t77 195q0 97 -62.5 160t-160.5 63z" />
    <glyph glyph-name="guillemotright" unicode="&#xbb;" horiz-adv-x="998" 
d="M105 163l280 376l-113 352h116l116 -364l-270 -364h-129zM484 163l280 376l-113 352h116l116 -364l-270 -364h-129z" />
    <glyph glyph-name="onequarter" unicode="&#xbc;" horiz-adv-x="1519" 
d="M1328 1400l-1055 -1400h-121l1055 1400h121zM1350 460l-46 -215h129l-18 -87h-130l-33 -158h-93l34 158h-356l15 75l361 531h107l-352 -519h243l46 215h93zM568 1407l-164 -773h-93l137 643l-241 -84l20 97z" />
    <glyph glyph-name="onehalf" unicode="&#xbd;" horiz-adv-x="1604" 
d="M1328 1400l-1055 -1400h-121l1055 1400h121zM1111 593l-58 57q41 53 103.5 88.5t141.5 35.5q107 0 165.5 -60t58.5 -144q0 -72 -40 -133t-126 -135l-249 -215h349l-18 -87h-487l16 74l328 283q68 58 99.5 104.5t31.5 96.5q0 53 -37 90t-103 37q-100 0 -175 -92zM568 1407
l-164 -773h-93l137 643l-241 -84l20 97z" />
    <glyph glyph-name="threequarters" unicode="&#xbe;" horiz-adv-x="1638" 
d="M1446 1400l-1055 -1400h-121l1055 1400h121zM1469 460l-46 -215h129l-18 -87h-130l-33 -158h-93l34 158h-356l15 75l361 531h107l-352 -519h243l46 215h93zM278 1239l-48 65q97 104 247 104q102 0 165.5 -53t63.5 -131q0 -68 -47 -126.5t-128 -81.5q53 -19 83 -60.5
t30 -95.5q0 -98 -76 -166.5t-213 -68.5q-163 0 -236 97l63 58q58 -70 175 -70q95 0 143.5 44t48.5 108q0 54 -41.5 86t-108.5 32h-99l17 82h97q89 0 141.5 45t52.5 103q0 50 -40 81.5t-104 31.5q-109 0 -186 -84z" />
    <glyph glyph-name="questiondown" unicode="&#xbf;" horiz-adv-x="827" 
d="M515 506h104l-65 -310h-63q-189 0 -289 -79t-100 -212q0 -121 104 -191t265 -70q8 0 62 3l-5 -117q-33 -3 -78 -3q-207 0 -342 99.5t-135 263.5q0 180 127.5 291t364.5 122zM635 764q-39 0 -67.5 28.5t-28.5 67.5q0 38 28.5 67t67.5 29q38 0 67 -29t29 -67
q0 -39 -29 -67.5t-67 -28.5z" />
    <glyph glyph-name="Agrave" unicode="&#xc0;" horiz-adv-x="1406" 
d="M974 1400l285 -1400h-125l-82 409h-718l-254 -409h-133l877 1400h150zM877 1279l-471 -754h622zM924 1497l-251 300h144l220 -300h-113z" />
    <glyph glyph-name="Aacute" unicode="&#xc1;" horiz-adv-x="1406" 
d="M974 1400l285 -1400h-125l-82 409h-718l-254 -409h-133l877 1400h150zM877 1279l-471 -754h622zM879 1497h-118l253 300h148z" />
    <glyph glyph-name="Acircumflex" unicode="&#xc2;" horiz-adv-x="1406" 
d="M974 1400l285 -1400h-125l-82 409h-718l-254 -409h-133l877 1400h150zM877 1279l-471 -754h622zM1217 1503h-120l-154 213l-239 -213h-129l302 282h150z" />
    <glyph glyph-name="Atilde" unicode="&#xc3;" horiz-adv-x="1406" 
d="M974 1400l285 -1400h-125l-82 409h-718l-254 -409h-133l877 1400h150zM877 1279l-471 -754h622zM659 1566l-65 68q50 56 100.5 82t115.5 26q46 0 84.5 -13.5t60.5 -29.5t51.5 -29.5t59.5 -13.5q76 0 150 77l65 -68q-50 -56 -100.5 -82t-115.5 -26q-46 0 -84 13.5t-60 30
t-51.5 30t-60.5 13.5q-74 0 -150 -78z" />
    <glyph glyph-name="Adieresis" unicode="&#xc4;" horiz-adv-x="1406" 
d="M974 1400l285 -1400h-125l-82 409h-718l-254 -409h-133l877 1400h150zM877 1279l-471 -754h622zM739 1725q34 0 58 -24t24 -59q0 -34 -23.5 -57.5t-58.5 -23.5t-58 23.5t-23 57.5q0 35 23.5 59t57.5 24zM1148 1725q34 0 58.5 -24.5t24.5 -58.5t-24 -57.5t-59 -23.5
q-34 0 -57.5 23.5t-23.5 57.5q0 35 23.5 59t57.5 24z" />
    <glyph glyph-name="Aring" unicode="&#xc5;" horiz-adv-x="1406" 
d="M974 1400l285 -1400h-125l-82 409h-718l-254 -409h-133l877 1400h150zM877 1279l-471 -754h622zM928 1481q-89 0 -152 62.5t-63 150.5t63 150.5t152 62.5t152 -62.5t63 -150.5t-63 -150.5t-152 -62.5zM928 1554q57 0 97.5 41t40.5 99t-40.5 98.5t-97.5 40.5t-97.5 -40.5
t-40.5 -98.5t40.5 -99t97.5 -41z" />
    <glyph glyph-name="AE" unicode="&#xc6;" horiz-adv-x="2241" 
d="M2016 115l-25 -115h-947l83 390h-658l-375 -390h-156l1350 1400h990l-24 -115h-813l-111 -523h794l-25 -114h-793l-114 -533h824zM581 506h570l162 760z" />
    <glyph glyph-name="Ccedilla" unicode="&#xc7;" horiz-adv-x="1493" 
d="M1273 312l81 -78q-90 -112 -218 -176.5t-275 -72.5l-157 -308h-132l168 312q-253 27 -413.5 205.5t-160.5 442.5q0 163 59 307.5t160.5 247.5t245 163t305.5 60q50 0 101 -6t117 -25t124 -49.5t116 -84.5t98 -125l-94 -74q-37 67 -93 116.5t-119.5 77t-127.5 40.5
t-129 13q-178 0 -323.5 -86t-228.5 -235t-83 -330q0 -239 152.5 -392t384.5 -153q130 0 246.5 55.5t195.5 154.5z" />
    <glyph glyph-name="Egrave" unicode="&#xc8;" horiz-adv-x="1297" 
d="M1180 762l-25 -114h-793l-114 -533h824l-25 -115h-947l298 1400h936l-24 -115h-813l-111 -523h794zM892 1497l-251 300h144l220 -300h-113z" />
    <glyph glyph-name="Eacute" unicode="&#xc9;" horiz-adv-x="1297" 
d="M1180 762l-25 -114h-793l-114 -533h824l-25 -115h-947l298 1400h936l-24 -115h-813l-111 -523h794zM847 1497h-118l253 300h148z" />
    <glyph glyph-name="Ecircumflex" unicode="&#xca;" horiz-adv-x="1297" 
d="M1180 762l-25 -114h-793l-114 -533h824l-25 -115h-947l298 1400h936l-24 -115h-813l-111 -523h794zM1185 1503h-120l-154 213l-239 -213h-129l302 282h150z" />
    <glyph glyph-name="Edieresis" unicode="&#xcb;" horiz-adv-x="1297" 
d="M1180 762l-25 -114h-793l-114 -533h824l-25 -115h-947l298 1400h936l-24 -115h-813l-111 -523h794zM707 1725q34 0 58 -24t24 -59q0 -34 -23.5 -57.5t-58.5 -23.5t-58 23.5t-23 57.5q0 35 23.5 59t57.5 24zM1116 1725q34 0 58.5 -24.5t24.5 -58.5t-24 -57.5t-59 -23.5
q-34 0 -57.5 23.5t-23.5 57.5q0 35 23.5 59t57.5 24z" />
    <glyph glyph-name="Igrave" unicode="&#xcc;" horiz-adv-x="524" 
d="M522 1400l-298 -1400h-124l298 1400h124zM486 1497l-251 300h144l220 -300h-113z" />
    <glyph glyph-name="Iacute" unicode="&#xcd;" horiz-adv-x="524" 
d="M522 1400l-298 -1400h-124l298 1400h124zM441 1497h-118l253 300h148z" />
    <glyph glyph-name="Icircumflex" unicode="&#xce;" horiz-adv-x="524" 
d="M522 1400l-298 -1400h-124l298 1400h124zM779 1503h-120l-154 213l-239 -213h-129l302 282h150z" />
    <glyph glyph-name="Idieresis" unicode="&#xcf;" horiz-adv-x="524" 
d="M522 1400l-298 -1400h-124l298 1400h124zM301 1725q34 0 58 -24t24 -59q0 -34 -23.5 -57.5t-58.5 -23.5t-58 23.5t-23 57.5q0 35 23.5 59t57.5 24zM710 1725q34 0 58.5 -24.5t24.5 -58.5t-24 -57.5t-59 -23.5q-34 0 -57.5 23.5t-23.5 57.5q0 35 23.5 59t57.5 24z" />
    <glyph glyph-name="Eth" unicode="&#xd0;" horiz-adv-x="1733" 
d="M572 1400h453q306 0 478.5 -156t172.5 -421q0 -173 -59.5 -322.5t-171 -261t-284.5 -175.5t-388 -64h-499l137 647h-253l25 116h253zM971 763l-25 -116h-411l-113 -531h364q182 0 328 53.5t240 147.5t143.5 220.5t49.5 274.5q0 218 -137.5 345t-397.5 127h-341l-111 -521
h411z" />
    <glyph glyph-name="Ntilde" unicode="&#xd1;" horiz-adv-x="1540" 
d="M1538 1400l-299 -1400h-113l-645 1208l-257 -1208h-124l298 1400h115l643 -1208l257 1208h125zM720 1566l-65 68q50 56 100.5 82t115.5 26q46 0 84.5 -13.5t60.5 -29.5t51.5 -29.5t59.5 -13.5q76 0 150 77l65 -68q-50 -56 -100.5 -82t-115.5 -26q-46 0 -84 13.5t-60 30
t-51.5 30t-60.5 13.5q-74 0 -150 -78z" />
    <glyph glyph-name="Ograve" unicode="&#xd2;" horiz-adv-x="1662" 
d="M931 1415q187 0 337 -78t238.5 -226.5t88.5 -341.5q0 -212 -97 -391.5t-273.5 -286.5t-395.5 -107q-187 0 -337.5 78.5t-239 227t-88.5 341.5q0 159 57.5 302.5t157.5 250t244 169t308 62.5zM921 1298q-136 0 -254.5 -53.5t-200 -143.5t-128 -210t-46.5 -251
q0 -243 154.5 -390.5t392.5 -147.5q135 0 253.5 53.5t200 143t128 210t46.5 251.5q0 243 -154.5 390.5t-391.5 147.5zM982 1497l-251 300h144l220 -300h-113z" />
    <glyph glyph-name="Oacute" unicode="&#xd3;" horiz-adv-x="1662" 
d="M931 1415q187 0 337 -78t238.5 -226.5t88.5 -341.5q0 -212 -97 -391.5t-273.5 -286.5t-395.5 -107q-187 0 -337.5 78.5t-239 227t-88.5 341.5q0 159 57.5 302.5t157.5 250t244 169t308 62.5zM921 1298q-136 0 -254.5 -53.5t-200 -143.5t-128 -210t-46.5 -251
q0 -243 154.5 -390.5t392.5 -147.5q135 0 253.5 53.5t200 143t128 210t46.5 251.5q0 243 -154.5 390.5t-391.5 147.5zM937 1497h-118l253 300h148z" />
    <glyph glyph-name="Ocircumflex" unicode="&#xd4;" horiz-adv-x="1662" 
d="M931 1415q187 0 337 -78t238.5 -226.5t88.5 -341.5q0 -212 -97 -391.5t-273.5 -286.5t-395.5 -107q-187 0 -337.5 78.5t-239 227t-88.5 341.5q0 159 57.5 302.5t157.5 250t244 169t308 62.5zM921 1298q-136 0 -254.5 -53.5t-200 -143.5t-128 -210t-46.5 -251
q0 -243 154.5 -390.5t392.5 -147.5q135 0 253.5 53.5t200 143t128 210t46.5 251.5q0 243 -154.5 390.5t-391.5 147.5zM1275 1503h-120l-154 213l-239 -213h-129l302 282h150z" />
    <glyph glyph-name="Otilde" unicode="&#xd5;" horiz-adv-x="1662" 
d="M931 1415q187 0 337 -78t238.5 -226.5t88.5 -341.5q0 -212 -97 -391.5t-273.5 -286.5t-395.5 -107q-187 0 -337.5 78.5t-239 227t-88.5 341.5q0 159 57.5 302.5t157.5 250t244 169t308 62.5zM921 1298q-136 0 -254.5 -53.5t-200 -143.5t-128 -210t-46.5 -251
q0 -243 154.5 -390.5t392.5 -147.5q135 0 253.5 53.5t200 143t128 210t46.5 251.5q0 243 -154.5 390.5t-391.5 147.5zM717 1566l-65 68q50 56 100.5 82t115.5 26q46 0 84.5 -13.5t60.5 -29.5t51.5 -29.5t59.5 -13.5q76 0 150 77l65 -68q-50 -56 -100.5 -82t-115.5 -26
q-46 0 -84 13.5t-60 30t-51.5 30t-60.5 13.5q-74 0 -150 -78z" />
    <glyph glyph-name="Odieresis" unicode="&#xd6;" horiz-adv-x="1662" 
d="M931 1415q187 0 337 -78t238.5 -226.5t88.5 -341.5q0 -212 -97 -391.5t-273.5 -286.5t-395.5 -107q-187 0 -337.5 78.5t-239 227t-88.5 341.5q0 159 57.5 302.5t157.5 250t244 169t308 62.5zM921 1298q-136 0 -254.5 -53.5t-200 -143.5t-128 -210t-46.5 -251
q0 -243 154.5 -390.5t392.5 -147.5q135 0 253.5 53.5t200 143t128 210t46.5 251.5q0 243 -154.5 390.5t-391.5 147.5zM797 1725q34 0 58 -24t24 -59q0 -34 -23.5 -57.5t-58.5 -23.5t-58 23.5t-23 57.5q0 35 23.5 59t57.5 24zM1206 1725q34 0 58.5 -24.5t24.5 -58.5
t-24 -57.5t-59 -23.5q-34 0 -57.5 23.5t-23.5 57.5q0 35 23.5 59t57.5 24z" />
    <glyph glyph-name="multiply" unicode="&#xd7;" 
d="M909 225l-81 -67l-232 295l-369 -304l-63 80l361 298l-235 298l81 67l230 -292l373 308l64 -80l-366 -301z" />
    <glyph glyph-name="Oslash" unicode="&#xd8;" horiz-adv-x="1662" 
d="M931 1415q141 0 264.5 -47t213.5 -134l204 182l74 -82l-206 -184q114 -161 114 -381q0 -212 -97 -391.5t-273.5 -286.5t-395.5 -107q-281 0 -467 170l-192 -170l-73 82l191 170q-124 167 -124 395q0 159 57.5 302.5t157.5 250t244 169t308 62.5zM921 1298
q-136 0 -254.5 -53.5t-200 -143.5t-128 -210t-46.5 -251q0 -182 93 -318l929 827q-152 149 -393 149zM1467 760q0 171 -84 303l-926 -824q151 -137 382 -137q135 0 253.5 53.5t200 143t128 210t46.5 251.5z" />
    <glyph glyph-name="Ugrave" unicode="&#xd9;" horiz-adv-x="1469" 
d="M1486 1400l-182 -860q-40 -189 -133 -315t-220.5 -183t-289.5 -57q-101 0 -186.5 25.5t-151.5 76t-103.5 133t-37.5 188.5q0 75 17 153l179 839h125l-179 -837q-15 -68 -15 -135q0 -111 49 -186t129 -107.5t188 -32.5q191 0 325 111.5t181 335.5l180 851h125zM958 1497
l-251 300h144l220 -300h-113z" />
    <glyph glyph-name="Uacute" unicode="&#xda;" horiz-adv-x="1469" 
d="M1486 1400l-182 -860q-40 -189 -133 -315t-220.5 -183t-289.5 -57q-101 0 -186.5 25.5t-151.5 76t-103.5 133t-37.5 188.5q0 75 17 153l179 839h125l-179 -837q-15 -68 -15 -135q0 -111 49 -186t129 -107.5t188 -32.5q191 0 325 111.5t181 335.5l180 851h125zM913 1497
h-118l253 300h148z" />
    <glyph glyph-name="Ucircumflex" unicode="&#xdb;" horiz-adv-x="1469" 
d="M1486 1400l-182 -860q-40 -189 -133 -315t-220.5 -183t-289.5 -57q-101 0 -186.5 25.5t-151.5 76t-103.5 133t-37.5 188.5q0 75 17 153l179 839h125l-179 -837q-15 -68 -15 -135q0 -111 49 -186t129 -107.5t188 -32.5q191 0 325 111.5t181 335.5l180 851h125zM1251 1503
h-120l-154 213l-239 -213h-129l302 282h150z" />
    <glyph glyph-name="Udieresis" unicode="&#xdc;" horiz-adv-x="1469" 
d="M1486 1400l-182 -860q-40 -189 -133 -315t-220.5 -183t-289.5 -57q-101 0 -186.5 25.5t-151.5 76t-103.5 133t-37.5 188.5q0 75 17 153l179 839h125l-179 -837q-15 -68 -15 -135q0 -111 49 -186t129 -107.5t188 -32.5q191 0 325 111.5t181 335.5l180 851h125zM773 1725
q34 0 58 -24t24 -59q0 -34 -23.5 -57.5t-58.5 -23.5t-58 23.5t-23 57.5q0 35 23.5 59t57.5 24zM1182 1725q34 0 58.5 -24.5t24.5 -58.5t-24 -57.5t-59 -23.5q-34 0 -57.5 23.5t-23.5 57.5q0 35 23.5 59t57.5 24z" />
    <glyph glyph-name="Yacute" unicode="&#xdd;" horiz-adv-x="1249" 
d="M1433 1400l-720 -801l-127 -599h-124l129 610l-379 790h132l328 -680l606 680h155zM792 1497h-118l253 300h148z" />
    <glyph glyph-name="Thorn" unicode="&#xde;" horiz-adv-x="1300" 
d="M522 1400l-58 -270h357q205 0 320 -95.5t115 -260.5q0 -100 -36 -185t-105.5 -150t-181 -102t-253.5 -37h-392l-64 -300h-124l298 1400h124zM810 1015h-370l-128 -599h373q114 0 201 27t139 75t78 109.5t26 135.5q0 121 -83.5 186.5t-235.5 65.5z" />
    <glyph glyph-name="germandbls" unicode="&#xdf;" horiz-adv-x="1189" 
d="M65 0l216 1015q46 218 180.5 329t331.5 111q167 0 276 -95t109 -239q0 -132 -82.5 -242.5t-218.5 -151.5q109 -35 165 -143t31 -233q-37 -180 -164.5 -273t-303.5 -93q-157 0 -250 57l49 96q76 -47 197 -47q140 0 236.5 70.5t121.5 198.5q26 135 -48 226.5t-224 91.5h-83
l23 103h45q154 0 255 72q63 44 99 115.5t36 141.5q0 106 -79.5 172t-194.5 66q-146 0 -251.5 -84t-143.5 -262l-213 -1002h-115z" />
    <glyph glyph-name="agrave" unicode="&#xe0;" horiz-adv-x="1210" 
d="M625 956q132 0 224 -64t127 -170l47 219h113l-200 -941h-113l31 143q-142 -158 -359 -158q-177 0 -292 117.5t-115 297.5q0 147 70 274.5t194.5 204.5t272.5 77zM515 92q155 0 271.5 105t141.5 265q25 163 -62.5 275t-243.5 112q-113 0 -209.5 -59.5t-152 -160
t-55.5 -218.5q0 -139 84.5 -229t225.5 -90zM683 1082l-251 300h144l220 -300h-113z" />
    <glyph glyph-name="aacute" unicode="&#xe1;" horiz-adv-x="1210" 
d="M625 956q132 0 224 -64t127 -170l47 219h113l-200 -941h-113l31 143q-142 -158 -359 -158q-177 0 -292 117.5t-115 297.5q0 147 70 274.5t194.5 204.5t272.5 77zM515 92q155 0 271.5 105t141.5 265q25 163 -62.5 275t-243.5 112q-113 0 -209.5 -59.5t-152 -160
t-55.5 -218.5q0 -139 84.5 -229t225.5 -90zM676 1083h-118l253 300h148z" />
    <glyph glyph-name="acircumflex" unicode="&#xe2;" horiz-adv-x="1210" 
d="M625 956q132 0 224 -64t127 -170l47 219h113l-200 -941h-113l31 143q-142 -158 -359 -158q-177 0 -292 117.5t-115 297.5q0 147 70 274.5t194.5 204.5t272.5 77zM515 92q155 0 271.5 105t141.5 265q25 163 -62.5 275t-243.5 112q-113 0 -209.5 -59.5t-152 -160
t-55.5 -218.5q0 -139 84.5 -229t225.5 -90zM996 1088h-120l-154 213l-239 -213h-129l302 282h150z" />
    <glyph glyph-name="atilde" unicode="&#xe3;" horiz-adv-x="1210" 
d="M625 956q132 0 224 -64t127 -170l47 219h113l-200 -941h-113l31 143q-142 -158 -359 -158q-177 0 -292 117.5t-115 297.5q0 147 70 274.5t194.5 204.5t272.5 77zM515 92q155 0 271.5 105t141.5 265q25 163 -62.5 275t-243.5 112q-113 0 -209.5 -59.5t-152 -160
t-55.5 -218.5q0 -139 84.5 -229t225.5 -90zM418 1151l-65 68q50 56 100.5 82t115.5 26q46 0 84.5 -13.5t60.5 -29.5t51.5 -29.5t59.5 -13.5q76 0 150 77l65 -68q-50 -56 -100.5 -82t-115.5 -26q-46 0 -84 13.5t-60 30t-51.5 30t-60.5 13.5q-74 0 -150 -78z" />
    <glyph glyph-name="adieresis" unicode="&#xe4;" horiz-adv-x="1210" 
d="M625 956q132 0 224 -64t127 -170l47 219h113l-200 -941h-113l31 143q-142 -158 -359 -158q-177 0 -292 117.5t-115 297.5q0 147 70 274.5t194.5 204.5t272.5 77zM515 92q155 0 271.5 105t141.5 265q25 163 -62.5 275t-243.5 112q-113 0 -209.5 -59.5t-152 -160
t-55.5 -218.5q0 -139 84.5 -229t225.5 -90zM506 1310q34 0 58 -24t24 -59q0 -34 -23.5 -57.5t-58.5 -23.5q-34 0 -57.5 23t-23.5 58t23.5 59t57.5 24zM915 1310q35 0 59 -24t24 -59q0 -34 -24 -57.5t-59 -23.5t-58 23t-23 58t23.5 59t57.5 24z" />
    <glyph glyph-name="aring" unicode="&#xe5;" horiz-adv-x="1210" 
d="M625 956q132 0 224 -64t127 -170l47 219h113l-200 -941h-113l31 143q-142 -158 -359 -158q-177 0 -292 117.5t-115 297.5q0 147 70 274.5t194.5 204.5t272.5 77zM515 92q155 0 271.5 105t141.5 265q25 163 -62.5 275t-243.5 112q-113 0 -209.5 -59.5t-152 -160
t-55.5 -218.5q0 -139 84.5 -229t225.5 -90zM688 1066q-89 0 -152 62.5t-63 150.5t63 150.5t152 62.5t152 -62.5t63 -150.5t-63 -150.5t-152 -62.5zM688 1139q57 0 97.5 41t40.5 99t-40.5 98.5t-97.5 40.5t-97.5 -40.5t-40.5 -98.5t40.5 -99t97.5 -41z" />
    <glyph glyph-name="ae" unicode="&#xe6;" horiz-adv-x="1784" 
d="M1539 209l57 -79q-82 -75 -174 -110.5t-211 -35.5q-133 0 -229.5 55t-144.5 152q-88 -99 -201.5 -152.5t-240.5 -53.5q-143 0 -232 68t-89 180q0 125 101.5 209.5t298.5 84.5h335l2 10q12 57 12 93q0 107 -69 165t-194 58q-150 0 -293 -92l-43 90q162 105 355 105
q132 0 217.5 -55t116.5 -159q68 99 172.5 156.5t238.5 57.5q172 0 277.5 -101.5t105.5 -269.5q0 -85 -26 -156h-773q-1 -12 -1 -35q0 -139 85 -224.5t231 -85.5q182 0 316 125zM1319 855q-77 0 -144.5 -27t-116 -73.5t-82 -104t-51.5 -123.5h665q4 25 4 55q0 125 -75.5 199
t-199.5 74zM409 85q107 0 211.5 51t183.5 146q-12 51 -12 108q0 14 2 42h-313q-144 0 -214 -55.5t-70 -132.5q0 -75 57 -117t155 -42z" />
    <glyph glyph-name="ccedilla" unicode="&#xe7;" horiz-adv-x="1008" 
d="M981 780l-89 -64q-102 132 -280 132q-169 0 -285 -121.5t-116 -293.5q0 -147 93 -243t234 -96q163 0 276 111l66 -75q-124 -128 -310 -141l-159 -312h-127l171 316q-163 25 -262 144.5t-99 288.5q0 144 68 265t188.5 192.5t266.5 71.5q120 0 213 -45t151 -130z" />
    <glyph glyph-name="egrave" unicode="&#xe8;" horiz-adv-x="1078" 
d="M833 209l57 -79q-82 -75 -174 -110.5t-211 -35.5q-194 0 -306.5 114t-112.5 292q0 102 37 202.5t103.5 181.5t169 131.5t222.5 50.5q172 0 277.5 -101.5t105.5 -269.5q0 -81 -25 -156h-774q-1 -12 -1 -35q0 -139 85 -224.5t231 -85.5q182 0 316 125zM613 855
q-151 0 -253.5 -94.5t-140.5 -233.5h665q4 25 4 55q0 125 -75.5 199t-199.5 74zM649 1082l-251 300h144l220 -300h-113z" />
    <glyph glyph-name="eacute" unicode="&#xe9;" horiz-adv-x="1078" 
d="M833 209l57 -79q-82 -75 -174 -110.5t-211 -35.5q-194 0 -306.5 114t-112.5 292q0 102 37 202.5t103.5 181.5t169 131.5t222.5 50.5q172 0 277.5 -101.5t105.5 -269.5q0 -81 -25 -156h-774q-1 -12 -1 -35q0 -139 85 -224.5t231 -85.5q182 0 316 125zM613 855
q-151 0 -253.5 -94.5t-140.5 -233.5h665q4 25 4 55q0 125 -75.5 199t-199.5 74zM642 1083h-118l253 300h148z" />
    <glyph glyph-name="ecircumflex" unicode="&#xea;" horiz-adv-x="1078" 
d="M833 209l57 -79q-82 -75 -174 -110.5t-211 -35.5q-194 0 -306.5 114t-112.5 292q0 102 37 202.5t103.5 181.5t169 131.5t222.5 50.5q172 0 277.5 -101.5t105.5 -269.5q0 -81 -25 -156h-774q-1 -12 -1 -35q0 -139 85 -224.5t231 -85.5q182 0 316 125zM613 855
q-151 0 -253.5 -94.5t-140.5 -233.5h665q4 25 4 55q0 125 -75.5 199t-199.5 74zM962 1088h-120l-154 213l-239 -213h-129l302 282h150z" />
    <glyph glyph-name="edieresis" unicode="&#xeb;" horiz-adv-x="1078" 
d="M833 209l57 -79q-82 -75 -174 -110.5t-211 -35.5q-194 0 -306.5 114t-112.5 292q0 102 37 202.5t103.5 181.5t169 131.5t222.5 50.5q172 0 277.5 -101.5t105.5 -269.5q0 -81 -25 -156h-774q-1 -12 -1 -35q0 -139 85 -224.5t231 -85.5q182 0 316 125zM613 855
q-151 0 -253.5 -94.5t-140.5 -233.5h665q4 25 4 55q0 125 -75.5 199t-199.5 74zM472 1310q34 0 58 -24t24 -59q0 -34 -23.5 -57.5t-58.5 -23.5q-34 0 -57.5 23t-23.5 58t23.5 59t57.5 24zM881 1310q35 0 59 -24t24 -59q0 -34 -24 -57.5t-59 -23.5t-58 23t-23 58t23.5 59
t57.5 24z" />
    <glyph glyph-name="igrave" unicode="&#xec;" horiz-adv-x="463" 
d="M389 941l-201 -941h-114l200 941h115zM364 1082l-251 300h144l220 -300h-113z" />
    <glyph glyph-name="iacute" unicode="&#xed;" horiz-adv-x="463" 
d="M389 941l-201 -941h-114l200 941h115zM357 1083h-118l253 300h148z" />
    <glyph glyph-name="icircumflex" unicode="&#xee;" horiz-adv-x="463" 
d="M389 941l-201 -941h-114l200 941h115zM677 1088h-120l-154 213l-239 -213h-129l302 282h150z" />
    <glyph glyph-name="idieresis" unicode="&#xef;" horiz-adv-x="463" 
d="M389 941l-201 -941h-114l200 941h115zM187 1310q34 0 58 -24t24 -59q0 -34 -23.5 -57.5t-58.5 -23.5t-58 23t-23 58t23.5 59t57.5 24zM596 1310q34 0 58.5 -24t24.5 -59q0 -34 -24 -57.5t-59 -23.5q-34 0 -57.5 23t-23.5 58t23.5 59t57.5 24z" />
    <glyph glyph-name="eth" unicode="&#xf0;" horiz-adv-x="1167" 
d="M1001 1415l41 -77l-230 -126q131 -128 200 -288t69 -335q0 -74 -14 -155q-32 -195 -178.5 -322t-338.5 -127q-200 0 -329 124t-129 312q0 137 67.5 256.5t186 191t259.5 71.5q118 0 211 -49.5t147 -136.5q-48 229 -248 406l-249 -136l-40 77l216 118q-115 84 -258 141
l52 90q173 -68 307 -176zM613 832q-91 0 -169 -35.5t-128 -94t-78 -130.5t-28 -146q0 -146 97 -240t250 -94q120 0 214.5 60t142 152t47.5 194q0 147 -97.5 240.5t-250.5 93.5z" />
    <glyph glyph-name="ntilde" unicode="&#xf1;" horiz-adv-x="1176" 
d="M689 956q163 0 255.5 -89.5t92.5 -235.5q0 -46 -13 -106l-112 -525h-114l113 530q10 50 10 87q0 104 -64.5 167.5t-186.5 63.5q-138 0 -238 -85.5t-131 -231.5l-113 -531h-114l200 941h113l-28 -133q128 148 330 148zM448 1151l-65 68q50 56 100.5 82t115.5 26
q46 0 84.5 -13.5t60.5 -29.5t51.5 -29.5t59.5 -13.5q76 0 150 77l65 -68q-50 -56 -100.5 -82t-115.5 -26q-46 0 -84 13.5t-60 30t-51.5 30t-60.5 13.5q-74 0 -150 -78z" />
    <glyph glyph-name="ograve" unicode="&#xf2;" horiz-adv-x="1162" 
d="M622 956q197 0 322 -124.5t125 -314.5q0 -144 -69 -266t-191 -194.5t-269 -72.5q-196 0 -321.5 124t-125.5 316q0 107 40.5 205t110.5 170t168.5 114.5t209.5 42.5zM613 849q-170 0 -286.5 -123t-116.5 -296q0 -148 94.5 -243.5t242.5 -95.5q171 0 288.5 123.5
t117.5 296.5q0 147 -95.5 242.5t-244.5 95.5zM679 1082l-251 300h144l220 -300h-113z" />
    <glyph glyph-name="oacute" unicode="&#xf3;" horiz-adv-x="1162" 
d="M622 956q197 0 322 -124.5t125 -314.5q0 -144 -69 -266t-191 -194.5t-269 -72.5q-196 0 -321.5 124t-125.5 316q0 107 40.5 205t110.5 170t168.5 114.5t209.5 42.5zM613 849q-170 0 -286.5 -123t-116.5 -296q0 -148 94.5 -243.5t242.5 -95.5q171 0 288.5 123.5
t117.5 296.5q0 147 -95.5 242.5t-244.5 95.5zM672 1083h-118l253 300h148z" />
    <glyph glyph-name="ocircumflex" unicode="&#xf4;" horiz-adv-x="1162" 
d="M622 956q197 0 322 -124.5t125 -314.5q0 -144 -69 -266t-191 -194.5t-269 -72.5q-196 0 -321.5 124t-125.5 316q0 107 40.5 205t110.5 170t168.5 114.5t209.5 42.5zM613 849q-170 0 -286.5 -123t-116.5 -296q0 -148 94.5 -243.5t242.5 -95.5q171 0 288.5 123.5
t117.5 296.5q0 147 -95.5 242.5t-244.5 95.5zM992 1088h-120l-154 213l-239 -213h-129l302 282h150z" />
    <glyph glyph-name="otilde" unicode="&#xf5;" horiz-adv-x="1162" 
d="M622 956q197 0 322 -124.5t125 -314.5q0 -144 -69 -266t-191 -194.5t-269 -72.5q-196 0 -321.5 124t-125.5 316q0 107 40.5 205t110.5 170t168.5 114.5t209.5 42.5zM613 849q-170 0 -286.5 -123t-116.5 -296q0 -148 94.5 -243.5t242.5 -95.5q171 0 288.5 123.5
t117.5 296.5q0 147 -95.5 242.5t-244.5 95.5zM414 1151l-65 68q50 56 100.5 82t115.5 26q46 0 84.5 -13.5t60.5 -29.5t51.5 -29.5t59.5 -13.5q76 0 150 77l65 -68q-50 -56 -100.5 -82t-115.5 -26q-46 0 -84 13.5t-60 30t-51.5 30t-60.5 13.5q-74 0 -150 -78z" />
    <glyph glyph-name="odieresis" unicode="&#xf6;" horiz-adv-x="1162" 
d="M622 956q197 0 322 -124.5t125 -314.5q0 -144 -69 -266t-191 -194.5t-269 -72.5q-196 0 -321.5 124t-125.5 316q0 107 40.5 205t110.5 170t168.5 114.5t209.5 42.5zM613 849q-170 0 -286.5 -123t-116.5 -296q0 -148 94.5 -243.5t242.5 -95.5q171 0 288.5 123.5
t117.5 296.5q0 147 -95.5 242.5t-244.5 95.5zM502 1310q34 0 58 -24t24 -59q0 -34 -23.5 -57.5t-58.5 -23.5q-34 0 -57.5 23t-23.5 58t23.5 59t57.5 24zM911 1310q35 0 59 -24t24 -59q0 -34 -24 -57.5t-59 -23.5t-58 23t-23 58t23.5 59t57.5 24z" />
    <glyph glyph-name="divide" unicode="&#xf7;" 
d="M1049 578l-22 -103h-852l22 103h852zM672 918q32 0 56.5 -24t24.5 -56t-24.5 -56.5t-56.5 -24.5t-56 24.5t-24 56.5t24 56t56 24zM558 296q32 0 56 -23.5t24 -56.5q0 -32 -24 -56t-56 -24t-56 24t-24 56q0 33 24 56.5t56 23.5z" />
    <glyph glyph-name="oslash" unicode="&#xf8;" horiz-adv-x="1162" 
d="M622 956q186 0 311 -114l141 126l63 -70l-143 -128q75 -109 75 -253t-69 -266t-191 -194.5t-269 -72.5q-183 0 -306 109l-136 -121l-63 70l136 122q-78 111 -78 260q0 107 40.5 205t110.5 170t168.5 114.5t209.5 42.5zM613 849q-170 0 -286.5 -123t-116.5 -296
q0 -106 50 -187l586 522q-94 84 -233 84zM953 511q0 101 -48 180l-584 -520q91 -80 226 -80q171 0 288.5 123.5t117.5 296.5z" />
    <glyph glyph-name="ugrave" unicode="&#xf9;" horiz-adv-x="1165" 
d="M1101 941l-118 -557q-28 -132 -99.5 -223.5t-168.5 -133.5t-215 -42q-158 0 -259 85.5t-101 239.5q0 50 12 107l112 524h115l-113 -530q-11 -50 -11 -89q0 -113 71.5 -171.5t186.5 -58.5q133 0 230 80.5t129 231.5l114 537h115zM710 1082l-251 300h144l220 -300h-113z
" />
    <glyph glyph-name="uacute" unicode="&#xfa;" horiz-adv-x="1165" 
d="M1101 941l-118 -557q-28 -132 -99.5 -223.5t-168.5 -133.5t-215 -42q-158 0 -259 85.5t-101 239.5q0 50 12 107l112 524h115l-113 -530q-11 -50 -11 -89q0 -113 71.5 -171.5t186.5 -58.5q133 0 230 80.5t129 231.5l114 537h115zM703 1083h-118l253 300h148z" />
    <glyph glyph-name="ucircumflex" unicode="&#xfb;" horiz-adv-x="1165" 
d="M1101 941l-118 -557q-28 -132 -99.5 -223.5t-168.5 -133.5t-215 -42q-158 0 -259 85.5t-101 239.5q0 50 12 107l112 524h115l-113 -530q-11 -50 -11 -89q0 -113 71.5 -171.5t186.5 -58.5q133 0 230 80.5t129 231.5l114 537h115zM1023 1088h-120l-154 213l-239 -213h-129
l302 282h150z" />
    <glyph glyph-name="udieresis" unicode="&#xfc;" horiz-adv-x="1165" 
d="M1101 941l-118 -557q-28 -132 -99.5 -223.5t-168.5 -133.5t-215 -42q-158 0 -259 85.5t-101 239.5q0 50 12 107l112 524h115l-113 -530q-11 -50 -11 -89q0 -113 71.5 -171.5t186.5 -58.5q133 0 230 80.5t129 231.5l114 537h115zM533 1310q34 0 58 -24t24 -59
q0 -34 -23.5 -57.5t-58.5 -23.5t-58 23t-23 58t23.5 59t57.5 24zM942 1310q34 0 58.5 -24t24.5 -59q0 -34 -24 -57.5t-59 -23.5q-34 0 -57.5 23t-23.5 58t23.5 59t57.5 24z" />
    <glyph glyph-name="yacute" unicode="&#xfd;" horiz-adv-x="1012" 
d="M1096 941l-975 -1344h-130l460 628l-329 716h121l281 -614l442 614h130zM608 1083h-118l253 300h148z" />
    <glyph glyph-name="thorn" unicode="&#xfe;" horiz-adv-x="1212" 
d="M585 -15q-132 0 -223.5 63.5t-126.5 168.5l-132 -617h-114l391 1840h114l-134 -632q140 148 348 148q181 0 298 -118t117 -297q0 -147 -70.5 -274.5t-195 -204.5t-272.5 -77zM695 849q-155 0 -271.5 -105t-140.5 -265q-25 -163 62 -275t243 -112q173 0 295.5 128.5
t122.5 309.5q0 138 -85 228.5t-226 90.5z" />
    <glyph glyph-name="ydieresis" unicode="&#xff;" horiz-adv-x="1012" 
d="M1096 941l-975 -1344h-130l460 628l-329 716h121l281 -614l442 614h130zM438 1310q34 0 58 -24t24 -59q0 -34 -23.5 -57.5t-58.5 -23.5q-34 0 -57.5 23t-23.5 58t23.5 59t57.5 24zM847 1310q35 0 59 -24t24 -59q0 -34 -24 -57.5t-59 -23.5t-58 23t-23 58t23.5 59t57.5 24
z" />
    <glyph glyph-name="dotlessi" unicode="&#x131;" horiz-adv-x="463" 
d="M389 941l-201 -941h-114l200 941h115z" />
    <glyph glyph-name="IJ" unicode="&#x132;" horiz-adv-x="1624" 
d="M522 1400l-298 -1400h-124l298 1400h124zM1627 1400l-192 -928q-51 -247 -182.5 -367t-332.5 -120q-125 0 -232.5 54t-168.5 142l89 80q48 -68 133 -113.5t184 -45.5q309 0 391 397l187 901h124z" />
    <glyph glyph-name="ij" unicode="&#x133;" horiz-adv-x="931" 
d="M857 941l-239 -1124q-24 -113 -88.5 -171t-159.5 -58q-82 0 -142 41l43 93q41 -27 92 -27q55 0 92 35t51 102l236 1109h115zM870 1362q34 0 58 -24t24 -59q0 -34 -23.5 -57.5t-58.5 -23.5q-34 0 -57.5 23t-23.5 58t23.5 59t57.5 24zM389 941l-201 -941h-114l200 941h115z
M402 1362q34 0 58 -24t24 -59q0 -34 -23.5 -57.5t-58.5 -23.5q-34 0 -57.5 23t-23.5 58t23.5 59t57.5 24z" />
    <glyph glyph-name="Lslash" unicode="&#x141;" horiz-adv-x="1318" 
d="M666 1400l-141 -659l547 275l-28 -136l-548 -276l-104 -488h810l-24 -116h-934l114 534l-250 -125l28 136l251 126l155 729h124z" />
    <glyph glyph-name="lslash" unicode="&#x142;" horiz-adv-x="639" 
d="M571 1440l-124 -582l255 155l-27 -125l-254 -155l-156 -733h-114l139 653l-229 -139l27 126l228 139l141 661h114z" />
    <glyph glyph-name="OE" unicode="&#x152;" horiz-adv-x="2181" 
d="M2064 762l-25 -114h-793l-114 -533h824l-25 -115h-1126q-306 0 -478 156t-172 421q0 173 59.5 322.5t171 261t284.5 175.5t387 64h1161l-24 -115h-813l-111 -523h794zM283 588q0 -218 137.5 -345t397.5 -127h190l249 1168h-213q-182 0 -328 -53.5t-240 -147.5
t-143.5 -220.5t-49.5 -274.5z" />
    <glyph glyph-name="oe" unicode="&#x153;" horiz-adv-x="1933" 
d="M1688 209l57 -79q-82 -75 -174 -110.5t-211 -35.5q-142 0 -241 65.5t-141 178.5q-70 -113 -185 -178.5t-253 -65.5q-196 0 -321.5 124t-125.5 316q0 107 40.5 205t110.5 170t168.5 114.5t209.5 42.5q143 0 251 -72.5t155 -194.5q67 121 182 194t263 73
q172 0 277.5 -101.5t105.5 -269.5q0 -81 -25 -156h-774q-1 -12 -1 -35q0 -139 85 -224.5t231 -85.5q182 0 316 125zM613 849q-170 0 -286.5 -123t-116.5 -296q0 -148 94.5 -243.5t242.5 -95.5q171 0 288.5 123.5t117.5 296.5q0 147 -95.5 242.5t-244.5 95.5zM1468 855
q-151 0 -253.5 -94.5t-140.5 -233.5h665q4 25 4 55q0 125 -75.5 199t-199.5 74z" />
    <glyph glyph-name="Scaron" unicode="&#x160;" horiz-adv-x="1318" 
d="M1298 1251l-68 -98q-196 146 -462 146q-100 0 -177.5 -26t-122 -68.5t-67 -92t-22.5 -102.5q0 -98 70.5 -157t218.5 -84l127 -21q391 -67 391 -342q0 -180 -148 -301t-411 -121q-129 0 -280.5 44t-267.5 140l73 99q97 -86 232 -126.5t248 -40.5q201 0 313.5 84.5
t112.5 207.5q0 187 -304 238l-129 22q-183 31 -279 117.5t-96 225.5q0 79 32 152t93.5 134t165 97.5t234.5 36.5q309 0 523 -164zM556 1782h120l153 -213l240 213h130l-303 -281h-149z" />
    <glyph glyph-name="scaron" unicode="&#x161;" horiz-adv-x="950" 
d="M908 849l-60 -87q-54 40 -142.5 67t-177.5 27q-109 0 -180.5 -41.5t-80.5 -114.5q-9 -70 37 -111.5t148 -57.5l95 -14q147 -23 216 -91.5t57 -174.5q-15 -123 -122.5 -194.5t-272.5 -71.5q-109 0 -220 36t-185 95l64 84q63 -51 153 -83.5t186 -32.5q119 0 195 43t85 123
q8 67 -39 108t-148 57l-97 15q-152 23 -217 92t-53 173q15 123 118.5 192t261.5 69q115 0 214 -29.5t165 -77.5zM328 1367h120l153 -213l240 213h130l-303 -281h-149z" />
    <glyph glyph-name="Ydieresis" unicode="&#x178;" horiz-adv-x="1249" 
d="M1433 1400l-720 -801l-127 -599h-124l129 610l-379 790h132l328 -680l606 680h155zM652 1725q34 0 58 -24t24 -59q0 -34 -23.5 -57.5t-58.5 -23.5q-34 0 -57.5 23.5t-23.5 57.5q0 35 23.5 59t57.5 24zM1061 1725q35 0 59 -24.5t24 -58.5t-24 -57.5t-59 -23.5t-58 23.5
t-23 57.5q0 35 23.5 59t57.5 24z" />
    <glyph glyph-name="Zcaron" unicode="&#x17d;" horiz-adv-x="1310" 
d="M1370 1400l-20 -97l-1113 -1187h898l-25 -116h-1062l23 103l1111 1181h-889l25 116h1052zM568 1782h120l153 -213l240 213h130l-303 -281h-149z" />
    <glyph glyph-name="zcaron" unicode="&#x17e;" horiz-adv-x="1023" 
d="M993 941l-19 -87l-763 -751h629l-22 -103h-784l18 89l768 748h-620l23 104h770zM346 1367h120l153 -213l240 213h130l-303 -281h-149z" />
    <glyph glyph-name="longs" unicode="&#x17f;" horiz-adv-x="638" 
d="M877 1379l-56 -89q-72 58 -175 58q-85 0 -144 -57t-84 -173l-238 -1118h-115l241 1133q34 158 120.5 240t220.5 82q137 0 230 -76z" />
    <glyph glyph-name="florin" unicode="&#x192;" horiz-adv-x="1400" 
d="M1133 777l-21 -104h-314l-84 -380q-34 -156 -108 -232t-199 -76q-120 0 -206 66l50 92q66 -55 156 -55q150 0 196 206l84 379h-286l22 104h287l73 330q34 155 108 231.5t199 76.5q118 0 207 -66l-51 -92q-66 55 -156 55q-150 0 -196 -206l-73 -329h312z" />
    <glyph glyph-name="uni0237" unicode="&#x237;" horiz-adv-x="468" 
d="M394 941l-239 -1124q-24 -113 -88.5 -171t-159.5 -58q-82 0 -142 41l43 93q40 -27 92 -27q55 0 92 35t51 102l236 1109h115z" />
    <glyph glyph-name="uni02BB" unicode="&#x2bb;" horiz-adv-x="475" 
d="M379 957h-132l191 483h106z" />
    <glyph glyph-name="uni02BC" unicode="&#x2bc;" horiz-adv-x="475" 
d="M405 1440h132l-191 -483h-106z" />
    <glyph glyph-name="circumflex" unicode="&#x2c6;" horiz-adv-x="904" 
d="M899 1088h-120l-154 213l-239 -213h-129l302 282h150z" />
    <glyph glyph-name="caron" unicode="&#x2c7;" horiz-adv-x="904" 
d="M307 1367h120l153 -213l240 213h130l-303 -281h-149z" />
    <glyph glyph-name="breve" unicode="&#x2d8;" horiz-adv-x="904" 
d="M315 1356l93 28q5 -98 57.5 -149.5t136.5 -51.5q163 0 258 201l91 -28q-127 -270 -359 -270q-119 0 -194.5 70.5t-82.5 199.5z" />
    <glyph glyph-name="dotaccent" unicode="&#x2d9;" horiz-adv-x="515" 
d="M429 1362q34 0 58 -24t24 -59q0 -34 -23.5 -57.5t-58.5 -23.5t-58 23t-23 58t23.5 59t57.5 24z" />
    <glyph glyph-name="ring" unicode="&#x2da;" horiz-adv-x="904" 
d="M623 1066q-89 0 -152 62.5t-63 150.5t63 150.5t152 62.5t152 -62.5t63 -150.5t-63 -150.5t-152 -62.5zM623 1139q57 0 97.5 41t40.5 99t-40.5 98.5t-97.5 40.5t-97.5 -40.5t-40.5 -98.5t40.5 -99t97.5 -41z" />
    <glyph glyph-name="ogonek" unicode="&#x2db;" horiz-adv-x="1076" 
d="M819 -260l53 -76q-91 -76 -209 -76q-108 0 -174 52.5t-66 134.5q0 94 79.5 166.5t270.5 136.5l12 -36q-249 -112 -249 -247q0 -49 36 -79.5t97 -30.5q81 0 150 55z" />
    <glyph glyph-name="tilde" unicode="&#x2dc;" horiz-adv-x="904" 
d="M343 1151l-65 68q50 56 100.5 82t115.5 26q46 0 84.5 -13.5t60.5 -29.5t51.5 -29.5t59.5 -13.5q76 0 150 77l65 -68q-50 -56 -100.5 -82t-115.5 -26q-46 0 -84 13.5t-60 30t-51.5 30t-60.5 13.5q-74 0 -150 -78z" />
    <glyph glyph-name="hungarumlaut" unicode="&#x2dd;" horiz-adv-x="904" 
d="M717 1082h-118l257 300h138zM376 1082h-120l246 300h133z" />
    <glyph glyph-name="gravecomb" unicode="&#x300;" horiz-adv-x="1" 
d="M-483 1082l-251 300h144l220 -300h-113z" />
    <glyph glyph-name="acutecomb" unicode="&#x301;" horiz-adv-x="1" 
d="M-490 1083h-118l253 300h148z" />
    <glyph glyph-name="uni0302" unicode="&#x302;" horiz-adv-x="1" 
d="M-170 1088h-120l-154 213l-239 -213h-129l302 282h150z" />
    <glyph glyph-name="tildecomb" unicode="&#x303;" horiz-adv-x="1" 
d="M-748 1151l-65 68q50 56 100.5 82t115.5 26q46 0 84.5 -13.5t60.5 -29.5t51.5 -29.5t59.5 -13.5q76 0 150 77l65 -68q-50 -56 -100.5 -82t-115.5 -26q-46 0 -84 13.5t-60 30t-51.5 30t-60.5 13.5q-74 0 -150 -78z" />
    <glyph glyph-name="uni0304" unicode="&#x304;" horiz-adv-x="1" 
d="M-758 1180l20 93h585l-20 -93h-585z" />
    <glyph glyph-name="uni0306" unicode="&#x306;" horiz-adv-x="1" 
d="M-761 1356l93 28q5 -98 57.5 -149.5t136.5 -51.5q163 0 258 201l91 -28q-127 -270 -359 -270q-119 0 -194.5 70.5t-82.5 199.5z" />
    <glyph glyph-name="uni0307" unicode="&#x307;" horiz-adv-x="1" 
d="M-445 1362q34 0 58 -24t24 -59q0 -34 -23.5 -57.5t-58.5 -23.5t-58 23t-23 58t23.5 59t57.5 24z" />
    <glyph glyph-name="uni0308" unicode="&#x308;" horiz-adv-x="1" 
d="M-660 1310q34 0 58 -24t24 -59q0 -34 -23.5 -57.5t-58.5 -23.5q-34 0 -57.5 23t-23.5 58t23.5 59t57.5 24zM-251 1310q35 0 59 -24t24 -59q0 -34 -24 -57.5t-59 -23.5t-58 23t-23 58t23.5 59t57.5 24z" />
    <glyph glyph-name="uni030A" unicode="&#x30a;" horiz-adv-x="1" 
d="M-478 1066q-89 0 -152 62.5t-63 150.5t63 150.5t152 62.5t152 -62.5t63 -150.5t-63 -150.5t-152 -62.5zM-478 1139q57 0 97.5 41t40.5 99t-40.5 98.5t-97.5 40.5t-97.5 -40.5t-40.5 -98.5t40.5 -99t97.5 -41z" />
    <glyph glyph-name="uni030B" unicode="&#x30b;" horiz-adv-x="1" 
d="M-281 1082h-118l257 300h138zM-622 1082h-120l246 300h133z" />
    <glyph glyph-name="uni030C" unicode="&#x30c;" horiz-adv-x="1" 
d="M-754 1367h120l153 -213l240 213h130l-303 -281h-149z" />
    <glyph glyph-name="uni0326" unicode="&#x326;" horiz-adv-x="1" 
d="M-609 -88h127l-135 -341h-108z" />
    <glyph glyph-name="uni0327" unicode="&#x327;" horiz-adv-x="1" 
d="M-392 5l-168 -328h-127l178 329z" />
    <glyph glyph-name="uni0328" unicode="&#x328;" horiz-adv-x="1" 
d="M-368 -260l53 -76q-91 -76 -209 -76q-108 0 -174 52.5t-66 134.5q0 94 79.5 166.5t270.5 136.5l12 -36q-249 -112 -249 -247q0 -49 36 -79.5t97 -30.5q81 0 150 55z" />
    <glyph glyph-name="uni0335" unicode="&#x335;" horiz-adv-x="1" 
d="M-220 578l-21 -103h-701l21 103h701z" />
    <glyph glyph-name="uni0336" unicode="&#x336;" horiz-adv-x="1" 
d="M166 578l-20 -103h-1473l21 103h1472z" />
    <glyph glyph-name="uni0394" unicode="&#x394;" horiz-adv-x="1412" 
d="M979 1402l273 -1307l-20 -95h-1251l19 95l830 1307h149zM1124 116l-241 1161l-735 -1161h976z" />
    <glyph glyph-name="uni03A9" unicode="&#x3a9;" horiz-adv-x="1708" 
d="M1592 116l-24 -116h-584l21 103q221 52 354.5 235.5t133.5 424.5q0 233 -155 385t-401 152q-134 0 -252 -51t-201.5 -138.5t-132 -209.5t-48.5 -260q0 -198 103 -340.5t276 -193.5l-22 -107h-590l24 116h396q-147 77 -230.5 217t-83.5 319q0 164 61 307.5t164.5 243.5
t244.5 157t298 57q195 0 349.5 -82t242 -230t87.5 -336q0 -215 -104 -388.5t-296 -264.5h369z" />
    <glyph glyph-name="uni03BC" unicode="&#x3bc;" horiz-adv-x="1177" 
d="M93 -400h-115l287 1341h114l-113 -530q-10 -50 -10 -87q0 -104 64.5 -167.5t186.5 -63.5q138 0 238 85.5t131 231.5l113 531h114l-200 -941h-113l28 133q-128 -148 -330 -148q-94 0 -168.5 34.5t-116.5 97.5z" />
    <glyph glyph-name="pi" unicode="&#x3c0;" horiz-adv-x="1175" 
d="M1111 941l-200 -941h-114l178 837h-609l-179 -837h-113l200 941h837z" />
    <glyph glyph-name="uni1E9E" unicode="&#x1e9e;" horiz-adv-x="1453" 
d="M80 0l198 931q46 218 202 351t383 133q182 0 320.5 -74.5t208.5 -199.5l-465 -393q195 -30 300.5 -139.5t84.5 -270.5q-22 -163 -165 -258t-339 -95q-205 0 -361 71l46 113q137 -66 315 -66q155 0 258 64.5t118 179.5q17 129 -88 215t-287 86h-68l20 96l471 400
q-61 73 -159 113.5t-218 40.5q-170 0 -294.5 -103.5t-161.5 -279.5l-194 -915h-125z" />
    <glyph glyph-name="uni2007" unicode="&#x2007;" horiz-adv-x="1408" 
 />
    <glyph glyph-name="uni2008" unicode="&#x2008;" horiz-adv-x="503" 
 />
    <glyph glyph-name="uni2009" unicode="&#x2009;" horiz-adv-x="177" 
 />
    <glyph glyph-name="uni200B" unicode="&#x200b;" horiz-adv-x="0" 
 />
    <glyph glyph-name="uni2010" unicode="&#x2010;" horiz-adv-x="814" 
d="M697 578l-22 -103h-533l21 103h534z" />
    <glyph glyph-name="uni2011" unicode="&#x2011;" horiz-adv-x="814" 
d="M697 578l-22 -103h-533l21 103h534z" />
    <glyph glyph-name="figuredash" unicode="&#x2012;" 
d="M1078 578l-21 -103h-936l21 103h936z" />
    <glyph glyph-name="endash" unicode="&#x2013;" horiz-adv-x="1177" 
d="M1079 578l-21 -103h-936l21 103h936z" />
    <glyph glyph-name="emdash" unicode="&#x2014;" horiz-adv-x="1599" 
d="M1560 578l-20 -103h-1478l21 103h1477z" />
    <glyph glyph-name="quoteleft" unicode="&#x2018;" horiz-adv-x="475" 
d="M379 957h-132l191 483h106z" />
    <glyph glyph-name="quoteright" unicode="&#x2019;" horiz-adv-x="475" 
d="M405 1440h132l-191 -483h-106z" />
    <glyph glyph-name="quotesinglbase" unicode="&#x201a;" horiz-adv-x="475" 
d="M149 234h132l-191 -483h-106z" />
    <glyph glyph-name="quotedblleft" unicode="&#x201c;" horiz-adv-x="808" 
d="M379 957h-132l191 483h106zM712 957h-132l191 483h106z" />
    <glyph glyph-name="quotedblright" unicode="&#x201d;" horiz-adv-x="808" 
d="M738 1440h132l-191 -483h-106zM405 1440h132l-191 -483h-106z" />
    <glyph glyph-name="quotedblbase" unicode="&#x201e;" horiz-adv-x="808" 
d="M482 234h132l-191 -483h-106zM149 234h132l-191 -483h-106z" />
    <glyph glyph-name="dagger" unicode="&#x2020;" horiz-adv-x="704" 
d="M449 701h-95l94 442h-204l19 93h204l44 204h95l-44 -204h205l-20 -93h-204z" />
    <glyph glyph-name="daggerdbl" unicode="&#x2021;" horiz-adv-x="705" 
d="M606 1440l-39 -184h205l-20 -92h-205l-40 -187h205l-20 -93h-204l-39 -183h-94l38 183h-204l19 93h205l39 187h-203l20 92h203l39 184h95z" />
    <glyph glyph-name="bullet" unicode="&#x2022;" horiz-adv-x="851" 
d="M443 718q78 0 134.5 -56t56.5 -135t-56.5 -135t-134.5 -56q-80 0 -135.5 56t-55.5 135q0 80 55.5 135.5t135.5 55.5z" />
    <glyph glyph-name="uni2023" unicode="&#x2023;" horiz-adv-x="991" 
d="M821 527l-602 -311l132 621z" />
    <glyph glyph-name="ellipsis" unicode="&#x2026;" horiz-adv-x="1391" 
d="M172 178q39 0 67.5 -28.5t28.5 -66.5q0 -39 -28.5 -68t-67.5 -29q-38 0 -67 29t-29 68q0 38 29 66.5t67 28.5zM617 178q38 0 66.5 -28.5t28.5 -66.5q0 -39 -28.5 -68t-66.5 -29q-39 0 -67.5 29t-28.5 68q0 38 28.5 66.5t67.5 28.5zM1061 178q38 0 67 -28.5t29 -66.5
q0 -39 -29 -68t-67 -29t-67 29t-29 68q0 38 29 66.5t67 28.5z" />
    <glyph glyph-name="perthousand" unicode="&#x2030;" horiz-adv-x="2756" 
d="M590 1415q142 0 234 -91.5t92 -233.5q0 -156 -107 -267.5t-264 -111.5q-143 0 -235 91t-92 233q0 157 107 268.5t265 111.5zM584 1314q-111 0 -185 -80t-74 -193q0 -101 63.5 -165t161.5 -64q111 0 185 80t74 193q0 100 -63.5 164.5t-161.5 64.5zM1615 1400l-1055 -1400
h-127l1055 1400h127zM1502 688q142 0 234 -91t92 -233q0 -156 -107 -268t-264 -112q-143 0 -235 91.5t-92 233.5q0 156 107 267.5t265 111.5zM1496 587q-111 0 -185 -80t-74 -193q0 -100 63.5 -164.5t161.5 -64.5q111 0 185 80t74 193q0 101 -63 165t-162 64zM2310 688
q142 0 234 -91t92 -233q0 -156 -107 -268t-264 -112q-143 0 -235 91.5t-92 233.5q0 156 107 267.5t265 111.5zM2305 587q-112 0 -186 -80t-74 -193q0 -100 63.5 -164.5t161.5 -64.5q111 0 185 80t74 193q0 101 -63 165t-161 64z" />
    <glyph glyph-name="minute" unicode="&#x2032;" horiz-adv-x="526" 
d="M465 1400h114l-261 -616h-115z" />
    <glyph glyph-name="second" unicode="&#x2033;" horiz-adv-x="828" 
d="M767 1400h114l-261 -616h-115zM465 1400h114l-261 -616h-115z" />
    <glyph glyph-name="uni2034" unicode="&#x2034;" horiz-adv-x="1078" 
d="M741 1400h114l-261 -616h-115zM1017 1400h114l-261 -616h-115zM465 1400h114l-261 -616h-115z" />
    <glyph glyph-name="guilsinglleft" unicode="&#x2039;" horiz-adv-x="619" 
d="M538 891l-280 -376l113 -352h-116l-116 364l270 364h129z" />
    <glyph glyph-name="guilsinglright" unicode="&#x203a;" horiz-adv-x="618" 
d="M105 163l280 376l-113 352h116l116 -364l-270 -364h-129z" />
    <glyph glyph-name="fraction" unicode="&#x2044;" horiz-adv-x="420" 
d="M801 1400l-1055 -1400h-121l1055 1400h121z" />
    <glyph glyph-name="uni2070" unicode="&#x2070;" horiz-adv-x="840" 
d="M597 1408q123 0 198.5 -81t75.5 -219q0 -84 -26.5 -168.5t-73.5 -155t-121 -115t-161 -44.5q-123 0 -198.5 81t-75.5 219q0 84 26.5 168.5t73.5 155t121 115t161 44.5zM593 1319q-65 0 -119.5 -36t-88.5 -93t-53 -124t-19 -132q0 -102 49 -161t131 -59q85 0 151 62
t97.5 148t31.5 175q0 102 -49 161t-131 59z" />
    <glyph glyph-name="uni2071" unicode="&#x2071;" horiz-adv-x="387" 
d="M417 1287l-138 -653h-94l138 653h94zM415 1580q27 0 46 -18.5t19 -45.5t-19 -45t-46 -18q-26 0 -44.5 18t-18.5 45q0 28 18 46t45 18z" />
    <glyph glyph-name="uni2074" unicode="&#x2074;" horiz-adv-x="659" 
d="M625 1094l-46 -215h129l-18 -87h-130l-33 -158h-93l34 158h-356l15 75l361 531h107l-352 -519h243l46 215h93z" />
    <glyph glyph-name="uni2075" unicode="&#x2075;" horiz-adv-x="666" 
d="M723 1399l-18 -86h-324l-55 -219h86q142 0 206 -74t43 -181q-21 -104 -100 -159t-190 -55q-77 0 -141.5 29t-103.5 84l59 60q65 -87 190 -87q76 0 127.5 36.5t63.5 98.5q13 71 -29.5 118t-151.5 47h-162l93 388h407z" />
    <glyph glyph-name="uni2076" unicode="&#x2076;" horiz-adv-x="679" 
d="M620 1399l-231 -284q30 9 65 9q110 0 182 -63t72 -166q0 -112 -82 -190.5t-208 -78.5q-114 0 -190 65t-76 169q0 96 77 194l273 345h118zM439 1044q-82 0 -135.5 -52.5t-53.5 -127.5q0 -68 48 -111t124 -43q82 0 135.5 52.5t53.5 127.5q0 68 -48.5 111t-123.5 43z" />
    <glyph glyph-name="uni2077" unicode="&#x2077;" horiz-adv-x="632" 
d="M773 1399l-16 -78l-437 -687h-112l437 678h-413l18 87h523z" />
    <glyph glyph-name="uni2078" unicode="&#x2078;" horiz-adv-x="730" 
d="M553 1408q100 0 170.5 -50t70.5 -133q0 -71 -50 -127.5t-138 -81.5q57 -22 90.5 -61.5t33.5 -92.5q0 -101 -86.5 -169t-227.5 -68q-108 0 -181 50.5t-73 134.5q0 76 51.5 133t144.5 81q-105 44 -105 145q0 100 82 169.5t218 69.5zM470 983q-93 0 -150 -44.5t-57 -112.5
q0 -55 46.5 -87t114.5 -32q92 0 150 44t58 112q0 54 -46 87t-116 33zM545 1324q-88 0 -140.5 -43.5t-52.5 -108.5q0 -51 40.5 -82t104.5 -31q87 0 142 43.5t55 106.5q0 52 -43.5 83.5t-105.5 31.5z" />
    <glyph glyph-name="uni2079" unicode="&#x2079;" horiz-adv-x="679" 
d="M291 634l230 284q-29 -9 -63 -9q-110 0 -182.5 63t-72.5 165q0 112 82.5 191t207.5 79q115 0 190.5 -65t75.5 -169q0 -97 -77 -194l-273 -345h-118zM473 989q82 0 135.5 52.5t53.5 126.5q0 68 -48.5 111.5t-124.5 43.5q-82 0 -135.5 -52.5t-53.5 -127.5q0 -68 49 -111
t124 -43z" />
    <glyph glyph-name="uni207F" unicode="&#x207f;" horiz-adv-x="818" 
d="M603 1298q109 0 171.5 -61.5t62.5 -160.5q0 -32 -8 -72l-80 -370h-95l79 368q6 28 6 55q0 69 -42 110.5t-122 41.5q-89 0 -154.5 -56.5t-86.5 -156.5l-76 -362h-94l138 653h92l-23 -104q87 115 232 115z" />
    <glyph glyph-name="uni2080" unicode="&#x2080;" horiz-adv-x="840" 
d="M390 411q123 0 198.5 -81t75.5 -219q0 -84 -26.5 -168.5t-73.5 -155t-121 -115t-161 -44.5q-123 0 -198.5 81t-75.5 219q0 84 26.5 168.5t73.5 155t121 115t161 44.5zM386 322q-65 0 -119.5 -36t-88.5 -93t-53 -124t-19 -132q0 -102 49 -161t131 -59q85 0 151 62
t97.5 148t31.5 175q0 102 -49 161t-131 59z" />
    <glyph glyph-name="uni2081" unicode="&#x2081;" horiz-adv-x="512" 
d="M359 410l-164 -773h-93l137 643l-241 -84l20 97z" />
    <glyph glyph-name="uni2082" unicode="&#x2082;" horiz-adv-x="657" 
d="M91 230l-58 57q41 53 103.5 88.5t141.5 35.5q107 0 165.5 -60t58.5 -144q0 -72 -40 -133t-126 -135l-249 -215h349l-18 -87h-487l16 74l328 283q68 58 99.5 104.5t31.5 96.5q0 53 -37 90t-103 37q-100 0 -175 -92z" />
    <glyph glyph-name="uni2083" unicode="&#x2083;" horiz-adv-x="648" 
d="M69 242l-48 65q97 104 247 104q102 0 165.5 -53t63.5 -131q0 -68 -47 -126.5t-128 -81.5q53 -19 83 -60.5t30 -95.5q0 -98 -76 -166.5t-213 -68.5q-163 0 -236 97l63 58q58 -70 175 -70q95 0 143.5 44t48.5 108q0 54 -41.5 86t-108.5 32h-99l17 82h97q89 0 141.5 45
t52.5 103q0 50 -40 81.5t-104 31.5q-109 0 -186 -84z" />
    <glyph glyph-name="uni2084" unicode="&#x2084;" horiz-adv-x="659" 
d="M415 97l-46 -215h129l-18 -87h-130l-33 -158h-93l34 158h-356l15 75l361 531h107l-352 -519h243l46 215h93z" />
    <glyph glyph-name="uni2085" unicode="&#x2085;" horiz-adv-x="664" 
d="M514 402l-18 -86h-324l-55 -219h86q142 0 206 -74t43 -181q-21 -104 -100 -159t-190 -55q-77 0 -141.5 29t-103.5 84l59 60q65 -87 190 -87q76 0 127.5 36.5t63.5 98.5q13 71 -29.5 118t-151.5 47h-162l93 388h407z" />
    <glyph glyph-name="uni2086" unicode="&#x2086;" horiz-adv-x="679" 
d="M411 402l-231 -284q30 9 65 9q110 0 182 -63t72 -166q0 -112 -82 -190.5t-208 -78.5q-114 0 -190 65t-76 169q0 96 77 194l273 345h118zM230 47q-82 0 -135.5 -52.5t-53.5 -127.5q0 -68 48 -111t124 -43q82 0 135.5 52.5t53.5 127.5q0 68 -48.5 111t-123.5 43z" />
    <glyph glyph-name="uni2087" unicode="&#x2087;" horiz-adv-x="632" 
d="M564 402l-16 -78l-437 -687h-112l437 678h-413l18 87h523z" />
    <glyph glyph-name="uni2088" unicode="&#x2088;" horiz-adv-x="730" 
d="M345 411q100 0 170.5 -50t70.5 -133q0 -71 -50 -127.5t-138 -81.5q57 -22 90.5 -61.5t33.5 -92.5q0 -101 -86.5 -169t-227.5 -68q-108 0 -181 50.5t-73 134.5q0 76 51.5 133t144.5 81q-105 44 -105 145q0 100 82 169.5t218 69.5zM262 -14q-93 0 -150 -44.5t-57 -112.5
q0 -55 46.5 -87t114.5 -32q92 0 150 44t58 112q0 54 -46 87t-116 33zM337 327q-88 0 -140.5 -43.5t-52.5 -108.5q0 -51 40.5 -82t104.5 -31q87 0 142 43.5t55 106.5q0 52 -43.5 83.5t-105.5 31.5z" />
    <glyph glyph-name="uni2089" unicode="&#x2089;" horiz-adv-x="679" 
d="M76 -363l230 284q-28 -9 -63 -9q-110 0 -182.5 63t-72.5 165q0 112 82.5 191t207.5 79q115 0 190.5 -65t75.5 -169q0 -97 -77 -194l-273 -345h-118zM258 -8q82 0 135.5 52.5t53.5 126.5q0 68 -48.5 111.5t-124.5 43.5q-82 0 -135.5 -52.5t-53.5 -127.5q0 -68 49 -111
t124 -43z" />
    <glyph glyph-name="Euro" unicode="&#x20ac;" horiz-adv-x="1400" 
d="M1221 318l71 -74q-79 -121 -198 -187.5t-267 -66.5q-140 0 -253.5 55t-191.5 172t-95 281h-183l20 95h158q0 67 9 140q3 29 13 80h-137l19 95h142q71 235 238 369.5t395 134.5q318 0 481 -256l-88 -73q-135 221 -400 221q-178 0 -309.5 -104.5t-194.5 -291.5h688l-20 -95
h-693q-9 -41 -15 -86q-8 -64 -8 -134h670l-20 -95h-644q13 -100 53 -177.5t98 -125.5t127.5 -72.5t147.5 -24.5q123 0 223.5 59.5t163.5 160.5z" />
    <glyph glyph-name="uni20BA" unicode="&#x20ba;" horiz-adv-x="1400" 
d="M1150 410l96 -51q-40 -101 -100.5 -173t-137 -112t-159.5 -58t-182 -18h-398l76 359l-218 -97l21 108l220 99l48 226l-220 -98l22 108l221 99l128 598h118l-115 -539l539 241l-22 -109l-540 -241l-48 -227l540 242l-21 -109l-542 -242l-65 -306h268q109 0 193.5 25.5
t159 94t118.5 180.5z" />
    <glyph glyph-name="uni2100" unicode="&#x2100;" horiz-adv-x="1856" 
d="M630 1416q118 0 185.5 -58.5t67.5 -162.5q0 -32 -8 -74l-79 -369h-92l18 86q-100 -97 -235 -97q-96 0 -154.5 47.5t-58.5 126.5q0 92 72 153t213 61h222q7 28 7 56q0 71 -45.5 109t-129.5 38q-103 0 -206 -65l-27 77q114 72 250 72zM513 820q62 0 122 28t104 76l28 134
h-201q-98 0 -145 -38.5t-47 -93.5q0 -50 37.5 -78t101.5 -28zM1603 1400l-1055 -1400h-121l1055 1400h121zM1727 528l-78 -48q-67 90 -185 90q-110 0 -186.5 -80t-76.5 -193q0 -97 61 -160.5t154 -63.5q105 0 183 76l60 -59q-99 -105 -247 -105q-135 0 -221.5 87t-86.5 219
q0 152 104.5 259.5t259.5 107.5q175 0 259 -130z" />
    <glyph glyph-name="uni2101" unicode="&#x2101;" horiz-adv-x="1856" 
d="M624 1416q118 0 185.5 -58.5t67.5 -162.5q0 -32 -8 -74l-79 -369h-92l18 86q-100 -97 -235 -97q-96 0 -154.5 47.5t-58.5 126.5q0 92 72 153t213 61h222q7 28 7 56q0 71 -45.5 109t-129.5 38q-103 0 -206 -65l-27 77q114 72 250 72zM507 820q62 0 122 28t104 76l28 134
h-201q-98 0 -145 -38.5t-47 -93.5q0 -50 37.5 -78t101.5 -28zM1597 1400l-1055 -1400h-121l1055 1400h121zM1700 584l-45 -70q-41 28 -102 46.5t-120 18.5q-71 0 -117 -26.5t-52 -73.5q-6 -46 24.5 -72.5t101.5 -37.5l64 -10q101 -17 148 -65t38 -122q-10 -88 -85.5 -138
t-193.5 -50q-77 0 -154.5 25.5t-128.5 65.5l48 70q45 -35 108 -57.5t128 -22.5q78 0 126.5 26.5t54.5 78.5q5 44 -26 70.5t-99 37.5l-65 10q-206 32 -186 188q10 86 83 134.5t184 48.5q159 0 266 -75z" />
    <glyph glyph-name="uni2105" unicode="&#x2105;" horiz-adv-x="1856" 
d="M861 1285l-78 -48q-67 90 -185 90q-110 0 -186.5 -80t-76.5 -193q0 -97 61 -160.5t154 -63.5q105 0 183 76l60 -59q-99 -105 -247 -105q-135 0 -221.5 87t-86.5 219q0 152 104.5 259.5t259.5 107.5q175 0 259 -130zM1540 1400l-1055 -1400h-121l1055 1400h121zM1405 659
q137 0 225 -86.5t88 -219.5q0 -152 -106.5 -260.5t-261.5 -108.5q-136 0 -224 86t-88 220q0 152 106 260.5t261 108.5zM1398 571q-111 0 -187 -81t-76 -195q0 -98 62 -160.5t159 -62.5q111 0 188 81t77 195q0 97 -62.5 160t-160.5 63z" />
    <glyph glyph-name="uni2106" unicode="&#x2106;" horiz-adv-x="1856" 
d="M865 1285l-78 -48q-67 90 -185 90q-110 0 -186.5 -80t-76.5 -193q0 -97 61 -160.5t154 -63.5q105 0 183 76l60 -59q-99 -105 -247 -105q-135 0 -221.5 87t-86.5 219q0 152 104.5 259.5t259.5 107.5q175 0 259 -130zM1533 1400l-1055 -1400h-121l1055 1400h121zM1758 654
l-81 -387q-29 -137 -119.5 -207t-215.5 -70q-113 0 -184 60t-71 169q0 39 8 75l77 360h95l-78 -367q-7 -29 -7 -58q0 -74 47 -112.5t122 -38.5q87 0 150.5 53.5t84.5 152.5l78 370h94z" />
    <glyph glyph-name="uni2113" unicode="&#x2113;" horiz-adv-x="1081" 
d="M231 385l-42 98q78 32 167 81l1 529q1 160 79.5 261t209.5 101q124 0 202 -82t78 -213q0 -190 -123.5 -356t-332.5 -295v-185q0 -117 52.5 -175t144.5 -58q114 0 205 76l47 -89q-111 -94 -262 -94q-144 0 -222.5 85t-78.5 252v123q-65 -33 -125 -59zM471 1093l-1 -458
q160 111 250 245t90 280q0 87 -44 138t-120 51q-78 0 -126.5 -69.5t-48.5 -186.5z" />
    <glyph glyph-name="uni2116" unicode="&#x2116;" horiz-adv-x="2358" 
d="M2304 575l-23 -103h-649l22 103h650zM2081 1410q141 0 230.5 -86t89.5 -221q0 -148 -104.5 -253.5t-257.5 -105.5q-140 0 -229.5 86t-89.5 219q0 149 103.5 255t257.5 106zM2077 1323q-112 0 -187 -78.5t-75 -189.5q0 -98 64 -161t164 -63q113 0 188 78.5t75 189.5
q0 98 -64.5 161t-164.5 63zM1538 1400l-299 -1400h-113l-645 1208l-257 -1208h-124l298 1400h115l643 -1208l257 1208h125z" />
    <glyph glyph-name="uni2117" unicode="&#x2117;" horiz-adv-x="1888" 
d="M939 -86q-151 0 -288.5 56t-239.5 152t-162 234t-60 294q0 163 67 317.5t180.5 271t274.5 187t339 70.5q151 0 288.5 -56t239 -152t161.5 -234t60 -294q0 -163 -67 -317t-180.5 -270.5t-274.5 -187.5t-338 -71zM1042 1396q-155 0 -295 -62t-238.5 -164.5t-156.5 -237
t-58 -276.5q0 -136 52.5 -256.5t140.5 -204.5t208 -132.5t251 -48.5q155 0 295.5 62.5t239 164.5t156.5 237t58 276q0 136 -52.5 256.5t-141 204.5t-208.5 132.5t-251 48.5zM1128 1121q150 0 228 -80.5t52 -201.5q-25 -116 -118 -173t-238 -57h-240l-69 -328h-102l178 840
h309zM1123 1028h-222l-69 -328h220q223 0 254 149q16 81 -32.5 130t-150.5 49z" />
    <glyph glyph-name="uni2120" unicode="&#x2120;" horiz-adv-x="1374" 
d="M722 1341l-43 -65q-78 55 -189 55q-67 0 -101.5 -25.5t-34.5 -60.5q0 -65 115 -82l44 -6q77 -11 120.5 -47.5t43.5 -93.5q0 -77 -64 -126t-176 -49q-61 0 -127.5 18.5t-114.5 54.5l46 66q86 -64 202 -64q69 0 107.5 25t38.5 64q0 61 -118 79l-45 7q-78 12 -119 48.5
t-41 94.5q0 73 58.5 123t166.5 50q134 0 231 -66zM1374 848h-83l94 441l-258 -380h-86l-97 380l-93 -441h-83l118 553h113l102 -398l270 398h120z" />
    <glyph glyph-name="trademark" unicode="&#x2122;" horiz-adv-x="1341" 
d="M1341 848h-82l93 441l-258 -380h-85l-97 380l-94 -441h-82l117 553h113l102 -398l271 398h120zM435 848h-82l101 476h-192l16 76h466l-16 -76h-192z" />
    <glyph glyph-name="Omega" unicode="&#x2126;" horiz-adv-x="1708" 
d="M1592 116l-24 -116h-584l21 103q221 52 354.5 235.5t133.5 424.5q0 233 -155 385t-401 152q-134 0 -252 -51t-201.5 -138.5t-132 -209.5t-48.5 -260q0 -198 103 -340.5t276 -193.5l-22 -107h-590l24 116h396q-147 77 -230.5 217t-83.5 319q0 164 61 307.5t164.5 243.5
t244.5 157t298 57q195 0 349.5 -82t242 -230t87.5 -336q0 -215 -104 -388.5t-296 -264.5h369z" />
    <glyph glyph-name="estimated" unicode="&#x212e;" horiz-adv-x="2000" 
d="M506 677v-353q0 -76 21.5 -129.5t76.5 -95.5q198 -153 464 -153q196 0 360.5 85.5t264.5 238.5l37 -28q-107 -162 -281 -252t-381 -90q-163 0 -308.5 58t-252.5 161t-170 254t-63 327t63 327t170 254t252.5 161t308.5 58t308.5 -58t252.5 -161t170 -254t63 -327v-23
h-1356zM506 723h1132v346q0 75 -21.5 129t-74.5 96q-200 160 -474 160q-266 0 -464 -153q-55 -42 -76.5 -95.5t-21.5 -129.5v-353z" />
    <glyph glyph-name="uni214D" unicode="&#x214d;" horiz-adv-x="1856" 
d="M709 1400l141 -729h-96l-36 194h-348l-117 -194h-104l448 729h112zM1746 649l-49 -75q-97 75 -240 75q-88 0 -133.5 -37.5t-45.5 -87.5q0 -46 37.5 -73t112.5 -40l56 -10q203 -36 203 -180q0 -100 -80 -165t-222 -65q-79 0 -161.5 24t-142.5 72l53 76q112 -85 257 -85
q92 0 142.5 37.5t50.5 92.5q0 44 -37 70t-114 40l-57 10q-201 35 -201 183q0 94 73.5 159.5t208.5 65.5q172 0 289 -87zM637 1308l-215 -356h280zM1617 1400l-1055 -1400h-121l1055 1400h121z" />
    <glyph glyph-name="uni2150" unicode="&#x2150;" horiz-adv-x="1596" 
d="M1328 1400l-1055 -1400h-121l1055 1400h121zM1601 765l-16 -78l-437 -687h-112l437 678h-413l18 87h523zM568 1407l-164 -773h-93l137 643l-241 -84l20 97z" />
    <glyph glyph-name="uni2151" unicode="&#x2151;" horiz-adv-x="1627" 
d="M1328 1400l-1055 -1400h-121l1055 1400h121zM1104 0l230 284q-28 -9 -63 -9q-110 0 -182.5 63t-72.5 165q0 112 82.5 191t207.5 79q115 0 190.5 -65t75.5 -169q0 -97 -77 -194l-273 -345h-118zM1286 355q82 0 135.5 52.5t53.5 126.5q0 68 -48.5 111.5t-124.5 43.5
q-82 0 -135.5 -52.5t-53.5 -127.5q0 -68 49 -111t124 -43zM568 1407l-164 -773h-93l137 643l-241 -84l20 97z" />
    <glyph glyph-name="uni2152" unicode="&#x2152;" horiz-adv-x="2312" 
d="M1328 1400l-1055 -1400h-121l1055 1400h121zM1384 773l-164 -773h-93l137 643l-241 -84l20 97zM1931 774q123 0 198.5 -81t75.5 -219q0 -84 -26.5 -168.5t-73.5 -155t-121 -115t-161 -44.5q-123 0 -198.5 81t-75.5 219q0 84 26.5 168.5t73.5 155t121 115t161 44.5z
M1927 685q-65 0 -119.5 -36t-88.5 -93t-53 -124t-19 -132q0 -102 49 -161t131 -59q85 0 151 62t97.5 148t31.5 175q0 102 -49 161t-131 59zM568 1407l-164 -773h-93l137 643l-241 -84l20 97z" />
    <glyph glyph-name="onethird" unicode="&#x2153;" horiz-adv-x="1593" 
d="M1328 1400l-1055 -1400h-121l1055 1400h121zM1089 605l-48 65q97 104 247 104q102 0 165.5 -53t63.5 -131q0 -68 -47 -126.5t-128 -81.5q53 -19 83 -60.5t30 -95.5q0 -98 -76 -166.5t-213 -68.5q-163 0 -236 97l63 58q58 -70 175 -70q95 0 143.5 44t48.5 108
q0 54 -41.5 86t-108.5 32h-99l17 82h97q89 0 141.5 45t52.5 103q0 50 -40 81.5t-104 31.5q-109 0 -186 -84zM568 1407l-164 -773h-93l137 643l-241 -84l20 97z" />
    <glyph glyph-name="twothirds" unicode="&#x2154;" horiz-adv-x="1753" 
d="M1488 1400l-1055 -1400h-121l1055 1400h121zM1250 605l-48 65q97 104 247 104q102 0 165.5 -53t63.5 -131q0 -68 -47 -126.5t-128 -81.5q53 -19 83 -60.5t30 -95.5q0 -98 -76 -166.5t-213 -68.5q-163 0 -236 97l63 58q58 -70 175 -70q95 0 143.5 44t48.5 108
q0 54 -41.5 86t-108.5 32h-99l17 82h97q89 0 141.5 45t52.5 103q0 50 -40 81.5t-104 31.5q-109 0 -186 -84zM300 1227l-58 57q41 53 103.5 88.5t141.5 35.5q107 0 165.5 -60t58.5 -144q0 -72 -40 -133t-126 -135l-249 -215h349l-18 -87h-487l16 74l328 283q68 58 99.5 104.5
t31.5 96.5q0 53 -37 90t-103 37q-100 0 -175 -92z" />
    <glyph glyph-name="uni2155" unicode="&#x2155;" horiz-adv-x="1613" 
d="M1328 1400l-1055 -1400h-121l1055 1400h121zM1534 765l-18 -86h-324l-55 -219h86q142 0 206 -74t43 -181q-21 -104 -100 -159t-190 -55q-77 0 -141.5 29t-103.5 84l59 60q65 -87 190 -87q76 0 127.5 36.5t63.5 98.5q13 71 -29.5 118t-151.5 47h-162l93 388h407zM568 1407
l-164 -773h-93l137 643l-241 -84l20 97z" />
    <glyph glyph-name="uni2156" unicode="&#x2156;" horiz-adv-x="1774" 
d="M1488 1400l-1055 -1400h-121l1055 1400h121zM1695 765l-18 -86h-324l-55 -219h86q142 0 206 -74t43 -181q-21 -104 -100 -159t-190 -55q-77 0 -141.5 29t-103.5 84l59 60q65 -87 190 -87q76 0 127.5 36.5t63.5 98.5q13 71 -29.5 118t-151.5 47h-162l93 388h407zM300 1227
l-58 57q41 53 103.5 88.5t141.5 35.5q107 0 165.5 -60t58.5 -144q0 -72 -40 -133t-126 -135l-249 -215h349l-18 -87h-487l16 74l328 283q68 58 99.5 104.5t31.5 96.5q0 53 -37 90t-103 37q-100 0 -175 -92z" />
    <glyph glyph-name="uni2157" unicode="&#x2157;" horiz-adv-x="1732" 
d="M1446 1400l-1055 -1400h-121l1055 1400h121zM1653 765l-18 -86h-324l-55 -219h86q142 0 206 -74t43 -181q-21 -104 -100 -159t-190 -55q-77 0 -141.5 29t-103.5 84l59 60q65 -87 190 -87q76 0 127.5 36.5t63.5 98.5q13 71 -29.5 118t-151.5 47h-162l93 388h407zM278 1239
l-48 65q97 104 247 104q102 0 165.5 -53t63.5 -131q0 -68 -47 -126.5t-128 -81.5q53 -19 83 -60.5t30 -95.5q0 -98 -76 -166.5t-213 -68.5q-163 0 -236 97l63 58q58 -70 175 -70q95 0 143.5 44t48.5 108q0 54 -41.5 86t-108.5 32h-99l17 82h97q89 0 141.5 45t52.5 103
q0 50 -40 81.5t-104 31.5q-109 0 -186 -84z" />
    <glyph glyph-name="uni2158" unicode="&#x2158;" horiz-adv-x="1760" 
d="M1475 1400l-1055 -1400h-121l1055 1400h121zM1681 765l-18 -86h-324l-55 -219h86q142 0 206 -74t43 -181q-21 -104 -100 -159t-190 -55q-77 0 -141.5 29t-103.5 84l59 60q65 -87 190 -87q76 0 127.5 36.5t63.5 98.5q13 71 -29.5 118t-151.5 47h-162l93 388h407zM625 1094
l-46 -215h129l-18 -87h-130l-33 -158h-93l34 158h-356l15 75l361 531h107l-352 -519h243l46 215h93z" />
    <glyph glyph-name="uni2159" unicode="&#x2159;" horiz-adv-x="1546" 
d="M1328 1400l-1055 -1400h-121l1055 1400h121zM1350 765l-231 -284q30 9 65 9q110 0 182 -63t72 -166q0 -112 -82 -190.5t-208 -78.5q-114 0 -190 65t-76 169q0 96 77 194l273 345h118zM1169 410q-82 0 -135.5 -52.5t-53.5 -127.5q0 -68 48 -111t124 -43q82 0 135.5 52.5
t53.5 127.5q0 68 -48.5 111t-123.5 43zM568 1407l-164 -773h-93l137 643l-241 -84l20 97z" />
    <glyph glyph-name="uni215A" unicode="&#x215a;" horiz-adv-x="1684" 
d="M1466 1400l-1055 -1400h-121l1055 1400h121zM1488 765l-231 -284q30 9 65 9q110 0 182 -63t72 -166q0 -112 -82 -190.5t-208 -78.5q-114 0 -190 65t-76 169q0 96 77 194l273 345h118zM1307 410q-82 0 -135.5 -52.5t-53.5 -127.5q0 -68 48 -111t124 -43q82 0 135.5 52.5
t53.5 127.5q0 68 -48.5 111t-123.5 43zM723 1399l-18 -86h-324l-55 -219h86q142 0 206 -74t43 -181q-21 -104 -100 -159t-190 -55q-77 0 -141.5 29t-103.5 84l59 60q65 -87 190 -87q76 0 127.5 36.5t63.5 98.5q13 71 -29.5 118t-151.5 47h-162l93 388h407z" />
    <glyph glyph-name="oneeighth" unicode="&#x215b;" horiz-adv-x="1647" 
d="M1328 1400l-1055 -1400h-121l1055 1400h121zM1333 774q100 0 170.5 -50t70.5 -133q0 -71 -50 -127.5t-138 -81.5q57 -22 90.5 -61.5t33.5 -92.5q0 -101 -86.5 -169t-227.5 -68q-108 0 -181 50.5t-73 134.5q0 76 51.5 133t144.5 81q-105 44 -105 145q0 100 82 169.5
t218 69.5zM1250 349q-93 0 -150 -44.5t-57 -112.5q0 -55 46.5 -87t114.5 -32q92 0 150 44t58 112q0 54 -46 87t-116 33zM1325 690q-88 0 -140.5 -43.5t-52.5 -108.5q0 -51 40.5 -82t104.5 -31q87 0 142 43.5t55 106.5q0 52 -43.5 83.5t-105.5 31.5zM568 1407l-164 -773h-93
l137 643l-241 -84l20 97z" />
    <glyph glyph-name="threeeighths" unicode="&#x215c;" horiz-adv-x="1765" 
d="M1446 1400l-1055 -1400h-121l1055 1400h121zM1452 774q100 0 170.5 -50t70.5 -133q0 -71 -50 -127.5t-138 -81.5q57 -22 90.5 -61.5t33.5 -92.5q0 -101 -86.5 -169t-227.5 -68q-108 0 -181 50.5t-73 134.5q0 76 51.5 133t144.5 81q-105 44 -105 145q0 100 82 169.5
t218 69.5zM1369 349q-93 0 -150 -44.5t-57 -112.5q0 -55 46.5 -87t114.5 -32q92 0 150 44t58 112q0 54 -46 87t-116 33zM1444 690q-88 0 -140.5 -43.5t-52.5 -108.5q0 -51 40.5 -82t104.5 -31q87 0 142 43.5t55 106.5q0 52 -43.5 83.5t-105.5 31.5zM278 1239l-48 65
q97 104 247 104q102 0 165.5 -53t63.5 -131q0 -68 -47 -126.5t-128 -81.5q53 -19 83 -60.5t30 -95.5q0 -98 -76 -166.5t-213 -68.5q-163 0 -236 97l63 58q58 -70 175 -70q95 0 143.5 44t48.5 108q0 54 -41.5 86t-108.5 32h-99l17 82h97q89 0 141.5 45t52.5 103
q0 50 -40 81.5t-104 31.5q-109 0 -186 -84z" />
    <glyph glyph-name="fiveeighths" unicode="&#x215d;" horiz-adv-x="1785" 
d="M1466 1400l-1055 -1400h-121l1055 1400h121zM1471 774q100 0 170.5 -50t70.5 -133q0 -71 -50 -127.5t-138 -81.5q57 -22 90.5 -61.5t33.5 -92.5q0 -101 -86.5 -169t-227.5 -68q-108 0 -181 50.5t-73 134.5q0 76 51.5 133t144.5 81q-105 44 -105 145q0 100 82 169.5
t218 69.5zM1388 349q-93 0 -150 -44.5t-57 -112.5q0 -55 46.5 -87t114.5 -32q92 0 150 44t58 112q0 54 -46 87t-116 33zM1463 690q-88 0 -140.5 -43.5t-52.5 -108.5q0 -51 40.5 -82t104.5 -31q87 0 142 43.5t55 106.5q0 52 -43.5 83.5t-105.5 31.5zM723 1399l-18 -86h-324
l-55 -219h86q142 0 206 -74t43 -181q-21 -104 -100 -159t-190 -55q-77 0 -141.5 29t-103.5 84l59 60q65 -87 190 -87q76 0 127.5 36.5t63.5 98.5q13 71 -29.5 118t-151.5 47h-162l93 388h407z" />
    <glyph glyph-name="seveneighths" unicode="&#x215e;" horiz-adv-x="1673" 
d="M1354 1400l-1055 -1400h-121l1055 1400h121zM1360 774q100 0 170.5 -50t70.5 -133q0 -71 -50 -127.5t-138 -81.5q57 -22 90.5 -61.5t33.5 -92.5q0 -101 -86.5 -169t-227.5 -68q-108 0 -181 50.5t-73 134.5q0 76 51.5 133t144.5 81q-105 44 -105 145q0 100 82 169.5
t218 69.5zM1277 349q-93 0 -150 -44.5t-57 -112.5q0 -55 46.5 -87t114.5 -32q92 0 150 44t58 112q0 54 -46 87t-116 33zM1352 690q-88 0 -140.5 -43.5t-52.5 -108.5q0 -51 40.5 -82t104.5 -31q87 0 142 43.5t55 106.5q0 52 -43.5 83.5t-105.5 31.5zM773 1399l-16 -78
l-437 -687h-112l437 678h-413l18 87h523z" />
    <glyph glyph-name="uni215F" unicode="&#x215f;" horiz-adv-x="947" 
d="M1328 1400l-1055 -1400h-121l1055 1400h121zM568 1407l-164 -773h-93l137 643l-241 -84l20 97z" />
    <glyph glyph-name="uni2189" unicode="&#x2189;" horiz-adv-x="1906" 
d="M1641 1400l-1055 -1400h-121l1055 1400h121zM1403 605l-48 65q97 104 247 104q102 0 165.5 -53t63.5 -131q0 -68 -47 -126.5t-128 -81.5q53 -19 83 -60.5t30 -95.5q0 -98 -76 -166.5t-213 -68.5q-163 0 -236 97l63 58q58 -70 175 -70q95 0 143.5 44t48.5 108
q0 54 -41.5 86t-108.5 32h-99l17 82h97q89 0 141.5 45t52.5 103q0 50 -40 81.5t-104 31.5q-109 0 -186 -84zM597 1408q123 0 198.5 -81t75.5 -219q0 -84 -26.5 -168.5t-73.5 -155t-121 -115t-161 -44.5q-123 0 -198.5 81t-75.5 219q0 84 26.5 168.5t73.5 155t121 115
t161 44.5zM593 1319q-65 0 -119.5 -36t-88.5 -93t-53 -124t-19 -132q0 -102 49 -161t131 -59q85 0 151 62t97.5 148t31.5 175q0 102 -49 161t-131 59z" />
    <glyph glyph-name="arrowleft" unicode="&#x2190;" horiz-adv-x="2000" 
d="M1808 595h-1192q-79 0 -148 4q57 -47 144 -134l356 -356l-73 -73l-610 610l610 611l73 -73l-356 -356q-93 -93 -144 -134q69 4 148 4h1192v-103z" />
    <glyph glyph-name="arrowup" unicode="&#x2191;" horiz-adv-x="2000" 
d="M1018 -58v1192q0 79 4 148q-45 -56 -133 -144l-356 -356l-74 73l611 610l611 -610l-74 -73l-356 356q-88 88 -133 144q4 -69 4 -148v-1192h-104z" />
    <glyph glyph-name="arrowright" unicode="&#x2192;" horiz-adv-x="2000" 
d="M295 698h1192q79 0 148 -5q-57 47 -144 134l-356 356l73 73l610 -610l-610 -611l-73 73l356 357q78 80 144 133q-69 -4 -148 -4h-1192v104z" />
    <glyph glyph-name="arrowdown" unicode="&#x2193;" horiz-adv-x="2000" 
d="M1071 1463v-1192q0 -79 -4 -148q47 57 134 144l356 357l73 -74l-610 -610l-611 610l73 74l356 -357q93 -93 134 -144q-4 69 -4 148v1192h103z" />
    <glyph glyph-name="uni2196" unicode="&#x2196;" horiz-adv-x="2000" 
d="M1557 78l-842 843q-80 82 -102 107q7 -65 7 -196v-504h-103v864h864v-104h-504q-122 0 -197 8q52 -46 108 -102l843 -843z" />
    <glyph glyph-name="uni2197" unicode="&#x2197;" horiz-adv-x="2000" 
d="M468 144l842 843q56 56 107 102q-74 -8 -196 -8h-503v104l863 -1v-863h-104v504q0 122 8 196q-55 -61 -101 -107l-844 -843z" />
    <glyph glyph-name="uni2198" unicode="&#x2198;" horiz-adv-x="2000" 
d="M540 1221l842 -843q80 -82 102 -107q-8 74 -8 197v503h104l-1 -863l-863 -1v104h504q131 0 197 -8q-62 56 -108 102l-843 843z" />
    <glyph glyph-name="uni2199" unicode="&#x2199;" horiz-adv-x="2000" 
d="M1644 1140l-843 -843q-56 -56 -107 -101q76 7 197 7h503v-104l-863 1l-1 863h104v-504q0 -130 -8 -196q47 52 102 107l843 843z" />
    <glyph glyph-name="partialdiff" unicode="&#x2202;" horiz-adv-x="1167" 
d="M384 1360l52 90q306 -120 475.5 -351t169.5 -510q0 -74 -14 -155q-32 -195 -178.5 -322t-338.5 -127q-200 0 -329 124t-129 312q0 104 40 199.5t108 165.5t162.5 112t198.5 42q124 0 220 -56.5t146 -154.5q-34 203 -188 369.5t-395 261.5zM613 832q-91 0 -169 -35.5
t-128 -94t-78 -130.5t-28 -146q0 -146 97 -240t250 -94q120 0 214.5 60t142 152t47.5 194q0 147 -97.5 240.5t-250.5 93.5z" />
    <glyph glyph-name="uni2300" unicode="&#x2205;" horiz-adv-x="1360" 
d="M1115 1018l73 -74l-131 -131q103 -130 103 -293q0 -127 -63 -235t-171 -171t-235 -63q-166 0 -293 103l-132 -132l-73 74l131 131q-103 129 -103 293q0 127 63 235t171 171.5t236 63.5q163 0 293 -104zM324 520q0 -125 77 -224l514 514q-99 77 -224 77
q-152 0 -259.5 -107.5t-107.5 -259.5zM691 154q151 0 258.5 107.5t107.5 258.5q0 123 -76 223l-514 -514q99 -75 224 -75z" />
    <glyph glyph-name="uni2300" unicode="&#x2300;" horiz-adv-x="1360" 
d="M1115 1018l73 -74l-131 -131q103 -130 103 -293q0 -127 -63 -235t-171 -171t-235 -63q-166 0 -293 103l-132 -132l-73 74l131 131q-103 129 -103 293q0 127 63 235t171 171.5t236 63.5q163 0 293 -104zM324 520q0 -125 77 -224l514 514q-99 77 -224 77
q-152 0 -259.5 -107.5t-107.5 -259.5zM691 154q151 0 258.5 107.5t107.5 258.5q0 123 -76 223l-514 -514q99 -75 224 -75z" />
    <glyph glyph-name="Delta" unicode="&#x2206;" horiz-adv-x="1412" 
d="M979 1402l273 -1307l-20 -95h-1251l19 95l830 1307h149zM1124 116l-241 1161l-735 -1161h976z" />
    <glyph glyph-name="product" unicode="&#x220f;" horiz-adv-x="1790" 
d="M1434 1400v-1665h-123v1549h-791v-1549h-122v1665h1036z" />
    <glyph glyph-name="summation" unicode="&#x2211;" horiz-adv-x="1637" 
d="M1358 1400v-116h-882l584 -671v-68l-587 -694h888v-116h-1067v95l636 746l-633 729v95h1061z" />
    <glyph glyph-name="minus" unicode="&#x2212;" 
d="M1037 578l-22 -103h-852l22 103h852z" />
    <glyph glyph-name="uni2219" unicode="&#x2219;" 
d="M600 718q78 0 134.5 -56t56.5 -135t-56.5 -135t-134.5 -56q-80 0 -135.5 56t-55.5 135q0 80 55.5 135.5t135.5 55.5z" />
    <glyph glyph-name="radical" unicode="&#x221a;" horiz-adv-x="1076" 
d="M1236 1440l-587 -1705h-151l-410 1000h134l351 -856l538 1561h125z" />
    <glyph glyph-name="infinity" unicode="&#x221e;" horiz-adv-x="1625" 
d="M74 520q0 162 100 262t242 100q28 0 54.5 -4.5t54 -17.5t47.5 -23.5t49.5 -35.5t46.5 -39.5t50.5 -50.5t49.5 -53.5t55 -61.5q39 44 55 61.5t49.5 53.5t50.5 50.5t46.5 39.5t49.5 35.5t47.5 23.5t54 17.5t54.5 4.5q143 0 242.5 -100t99.5 -262t-99.5 -262t-242.5 -100
q-28 0 -54.5 4.5t-54 17.5t-47.5 23t-50 35.5t-45.5 39.5t-50.5 51t-49.5 52.5t-55.5 61.5q-48 -54 -72.5 -80.5t-64 -67t-66 -59.5t-62.5 -40.5t-70 -29.5t-72 -8q-142 0 -242 100t-100 262zM183 520q0 -119 66.5 -188.5t166.5 -69.5q32 0 64 12.5t56 27.5t66 56t67 68
t84 94q-56 64 -84 94t-67.5 69t-65 55t-57 28t-63.5 12q-100 0 -166.5 -69.5t-66.5 -188.5zM1464 520q0 119 -67 188.5t-167 69.5q-32 0 -63.5 -12.5t-55.5 -27.5t-65.5 -56t-66.5 -68t-85 -94q60 -67 85 -94t66.5 -68t65.5 -56t55.5 -27.5t63.5 -12.5q100 0 167 69.5
t67 188.5z" />
    <glyph glyph-name="integral" unicode="&#x222b;" horiz-adv-x="334" 
d="M492 1403l-30 -103q-37 8 -72 8q-99 0 -144.5 -58.5t-45.5 -171.5v-1021q0 -156 -72 -246.5t-225 -90.5q-59 0 -110 12l31 103q37 -8 72 -8q99 0 144.5 58.5t45.5 171.5v1021q0 157 71.5 247t224.5 90q59 0 110 -12z" />
    <glyph glyph-name="congruent" unicode="&#x2245;" 
d="M1012 403l-23 -104h-852l23 104h852zM1087 754l-23 -103h-852l23 103h852zM1094 1149l51 -77q-65 -56 -128 -83t-138 -27q-59 0 -108 14t-77.5 31.5t-73 31.5t-95.5 14q-55 0 -100 -21.5t-98 -67.5l-52 77q127 110 266 110q59 0 108 -14t77.5 -31.5t73 -31.5t95.5 -14
q55 0 100.5 21.5t98.5 67.5z" />
    <glyph glyph-name="approxequal" unicode="&#x2248;" 
d="M1057 795l51 -77q-65 -56 -128 -83t-138 -27q-59 0 -108 14t-77.5 31.5t-73 31.5t-95.5 14q-55 0 -100 -21.5t-98 -67.5l-52 77q127 110 266 110q59 0 108 -14t77.5 -31.5t73 -31.5t95.5 -14q55 0 100.5 21.5t98.5 67.5zM983 447l51 -77q-65 -56 -128 -83t-138 -27
q-59 0 -108 14t-77.5 31.5t-73 31.5t-95.5 14q-55 0 -100 -21.5t-98 -67.5l-52 77q127 110 266 110q59 0 108 -14t77.5 -31.5t73 -31.5t95.5 -14q55 0 100.5 21.5t98.5 67.5z" />
    <glyph glyph-name="uni2259" unicode="&#x2259;" 
d="M1012 403l-23 -104h-852l23 104h852zM1087 754l-23 -103h-852l23 103h852zM1003 938h-120l-154 213l-239 -213h-129l302 282h150z" />
    <glyph glyph-name="notequal" unicode="&#x2260;" 
d="M1012 403l-23 -104h-473l-159 -261h-110l159 261h-269l23 104h309l152 248h-409l23 103h449l159 261h109l-159 -261h294l-23 -103h-334l-151 -248h433z" />
    <glyph glyph-name="lessequal" unicode="&#x2264;" 
d="M1074 954l-701 -277l583 -278l-24 -115l-698 343l23 112l844 342zM138 176h771l-22 -104h-770z" />
    <glyph glyph-name="greaterequal" unicode="&#x2265;" 
d="M1055 739l-23 -113l-843 -342l26 127l702 278l-583 278l24 114zM165 176h771l-22 -104h-770z" />
    <glyph glyph-name="dotmath" unicode="&#x22c5;" 
d="M600 623q38 0 66.5 -28.5t28.5 -67.5q0 -38 -28.5 -67t-66.5 -29t-67 29t-29 67q0 39 29 67.5t67 28.5z" />
    <glyph glyph-name="uni2460" unicode="&#x2460;" horiz-adv-x="2050" 
d="M1085 1575q179 0 341.5 -69.5t280 -186.5t187 -278.5t69.5 -339.5t-69.5 -340t-187 -279.5t-280 -187t-341.5 -69.5t-341.5 69.5t-280 187t-187 279.5t-69.5 340t69.5 339.5t187 278.5t280 186.5t341.5 69.5zM1085 1469q-157 0 -299 -60.5t-245 -163.5t-163.5 -245
t-60.5 -299t60.5 -299.5t163.5 -245.5t245 -164t299 -61q156 0 298.5 61t245.5 164t164 245.5t61 299.5t-61 299t-164 245t-245.5 163.5t-298.5 60.5zM1189 1141v-847h-101v707l-279 -114v101z" />
    <glyph glyph-name="uni2461" unicode="&#x2461;" horiz-adv-x="2050" 
d="M1085 1575q179 0 341.5 -69.5t280 -186.5t187 -278.5t69.5 -339.5t-69.5 -340t-187 -279.5t-280 -187t-341.5 -69.5t-341.5 69.5t-280 187t-187 279.5t-69.5 340t69.5 339.5t187 278.5t280 186.5t341.5 69.5zM1085 1469q-157 0 -299 -60.5t-245 -163.5t-163.5 -245
t-60.5 -299t60.5 -299.5t163.5 -245.5t245 -164t299 -61q156 0 298.5 61t245.5 164t164 245.5t61 299.5t-61 299t-164 245t-245.5 163.5t-298.5 60.5zM870 933l-63 68q98 141 271 141q128 0 201.5 -72t73.5 -185q0 -71 -32.5 -128.5t-92.5 -117.5l-250 -251h403v-94h-549v79
l326 324q89 89 89 181q0 72 -47.5 119.5t-129.5 47.5q-120 0 -200 -112z" />
    <glyph glyph-name="uni2462" unicode="&#x2462;" horiz-adv-x="2050" 
d="M1085 1575q179 0 341.5 -69.5t280 -186.5t187 -278.5t69.5 -339.5t-69.5 -340t-187 -279.5t-280 -187t-341.5 -69.5t-341.5 69.5t-280 187t-187 279.5t-69.5 340t69.5 339.5t187 278.5t280 186.5t341.5 69.5zM1085 1469q-157 0 -299 -60.5t-245 -163.5t-163.5 -245
t-60.5 -299t60.5 -299.5t163.5 -245.5t245 -164t299 -61q156 0 298.5 61t245.5 164t164 245.5t61 299.5t-61 299t-164 245t-245.5 163.5t-298.5 60.5zM1069 1142q132 0 215 -63t83 -163q0 -75 -42 -126t-115 -73q81 -22 128 -74t47 -124q0 -77 -45 -131.5t-113 -79.5
t-151 -25q-174 0 -276 107l59 67q87 -84 212 -84q89 0 149 39.5t60 112.5q0 68 -59.5 108t-148.5 40h-119v89h119q84 0 137 38t53 108q0 64 -55 103.5t-143 39.5q-121 0 -198 -93l-63 65q98 119 266 119z" />
    <glyph glyph-name="uni2463" unicode="&#x2463;" horiz-adv-x="2050" 
d="M1085 1575q179 0 341.5 -69.5t280 -186.5t187 -278.5t69.5 -339.5t-69.5 -340t-187 -279.5t-280 -187t-341.5 -69.5t-341.5 69.5t-280 187t-187 279.5t-69.5 340t69.5 339.5t187 278.5t280 186.5t341.5 69.5zM1085 1469q-157 0 -299 -60.5t-245 -163.5t-163.5 -245
t-60.5 -299t60.5 -299.5t163.5 -245.5t245 -164t299 -61q156 0 298.5 61t245.5 164t164 245.5t61 299.5t-61 299t-164 245t-245.5 163.5t-298.5 60.5zM1251 798v-236h144v-95h-144v-173h-101v173h-408v73l304 592h113l-295 -570h286v236h101z" />
    <glyph glyph-name="uni2464" unicode="&#x2464;" horiz-adv-x="2050" 
d="M1085 1575q179 0 341.5 -69.5t280 -186.5t187 -278.5t69.5 -339.5t-69.5 -340t-187 -279.5t-280 -187t-341.5 -69.5t-341.5 69.5t-280 187t-187 279.5t-69.5 340t69.5 339.5t187 278.5t280 186.5t341.5 69.5zM1085 1469q-157 0 -299 -60.5t-245 -163.5t-163.5 -245
t-60.5 -299t60.5 -299.5t163.5 -245.5t245 -164t299 -61q156 0 298.5 61t245.5 164t164 245.5t61 299.5t-61 299t-164 245t-245.5 163.5t-298.5 60.5zM1347 1133v-94h-378l-10 -241h116q152 0 232.5 -67t80.5 -184q0 -119 -84 -191.5t-216 -72.5q-180 0 -291 122l56 73
q41 -47 103 -74t131 -27q91 0 143 45t52 118q0 168 -234 168h-181l12 425h468z" />
    <glyph glyph-name="uni2465" unicode="&#x2465;" horiz-adv-x="2050" 
d="M1085 1575q179 0 341.5 -69.5t280 -186.5t187 -278.5t69.5 -339.5t-69.5 -340t-187 -279.5t-280 -187t-341.5 -69.5t-341.5 69.5t-280 187t-187 279.5t-69.5 340t69.5 339.5t187 278.5t280 186.5t341.5 69.5zM1085 1469q-157 0 -299 -60.5t-245 -163.5t-163.5 -245
t-60.5 -299t60.5 -299.5t163.5 -245.5t245 -164t299 -61q156 0 298.5 61t245.5 164t164 245.5t61 299.5t-61 299t-164 245t-245.5 163.5t-298.5 60.5zM1205 1133l-212 -321q49 19 101 19q128 0 210.5 -77.5t82.5 -193.5q0 -119 -87 -198t-219 -79q-133 0 -221 78.5
t-88 196.5q0 88 60 181l251 394h122zM1081 744q-88 0 -145.5 -52.5t-57.5 -132.5t57.5 -132.5t145.5 -52.5q87 0 144 52.5t57 132.5t-57 132.5t-144 52.5z" />
    <glyph glyph-name="uni2466" unicode="&#x2466;" horiz-adv-x="2050" 
d="M1085 1575q179 0 341.5 -69.5t280 -186.5t187 -278.5t69.5 -339.5t-69.5 -340t-187 -279.5t-280 -187t-341.5 -69.5t-341.5 69.5t-280 187t-187 279.5t-69.5 340t69.5 339.5t187 278.5t280 186.5t341.5 69.5zM1085 1469q-157 0 -299 -60.5t-245 -163.5t-163.5 -245
t-60.5 -299t60.5 -299.5t163.5 -245.5t245 -164t299 -61q156 0 298.5 61t245.5 164t164 245.5t61 299.5t-61 299t-164 245t-245.5 163.5t-298.5 60.5zM1409 1133v-80l-382 -759h-120l382 744h-470v95h590z" />
    <glyph glyph-name="uni2467" unicode="&#x2467;" horiz-adv-x="2050" 
d="M1085 1575q179 0 341.5 -69.5t280 -186.5t187 -278.5t69.5 -339.5t-69.5 -340t-187 -279.5t-280 -187t-341.5 -69.5t-341.5 69.5t-280 187t-187 279.5t-69.5 340t69.5 339.5t187 278.5t280 186.5t341.5 69.5zM1085 1469q-157 0 -299 -60.5t-245 -163.5t-163.5 -245
t-60.5 -299t60.5 -299.5t163.5 -245.5t245 -164t299 -61q156 0 298.5 61t245.5 164t164 245.5t61 299.5t-61 299t-164 245t-245.5 163.5t-298.5 60.5zM1085 1142q127 0 212.5 -60.5t85.5 -164.5q0 -74 -43.5 -124.5t-115.5 -74.5q81 -24 130.5 -74.5t49.5 -127.5
q0 -108 -91 -170.5t-228 -62.5t-228 62.5t-91 170.5q0 77 49.5 127.5t130.5 74.5q-72 24 -115.5 74.5t-43.5 124.5q0 104 85.5 164.5t212.5 60.5zM1085 678q-90 0 -149.5 -40.5t-59.5 -111.5q0 -73 59.5 -113t149.5 -40t149.5 40t59.5 113q0 71 -59.5 111.5t-149.5 40.5z
M1085 1052q-83 0 -137 -37.5t-54 -106.5q0 -70 54 -109t137 -39t137 39t54 109q0 69 -54 106.5t-137 37.5z" />
    <glyph glyph-name="uni2468" unicode="&#x2468;" horiz-adv-x="2050" 
d="M1085 1575q179 0 341.5 -69.5t280 -186.5t187 -278.5t69.5 -339.5t-69.5 -340t-187 -279.5t-280 -187t-341.5 -69.5t-341.5 69.5t-280 187t-187 279.5t-69.5 340t69.5 339.5t187 278.5t280 186.5t341.5 69.5zM1085 1469q-157 0 -299 -60.5t-245 -163.5t-163.5 -245
t-60.5 -299t60.5 -299.5t163.5 -245.5t245 -164t299 -61q156 0 298.5 61t245.5 164t164 245.5t61 299.5t-61 299t-164 245t-245.5 163.5t-298.5 60.5zM974 294l212 319q-46 -18 -101 -18q-129 0 -211.5 77.5t-82.5 193.5q0 119 87.5 197.5t220.5 78.5q132 0 219.5 -77.5
t87.5 -195.5q0 -90 -59 -182l-251 -393h-122zM1099 683q87 0 144.5 52.5t57.5 131.5t-57.5 131.5t-144.5 52.5q-88 0 -145 -52t-57 -132t57 -132t145 -52z" />
    <glyph glyph-name="uni24EA" unicode="&#x24ea;" horiz-adv-x="2050" 
d="M1085 1575q179 0 341.5 -69.5t280 -186.5t187 -278.5t69.5 -339.5t-69.5 -340t-187 -279.5t-280 -187t-341.5 -69.5t-341.5 69.5t-280 187t-187 279.5t-69.5 340t69.5 339.5t187 278.5t280 186.5t341.5 69.5zM1085 1469q-157 0 -299 -60.5t-245 -163.5t-163.5 -245
t-60.5 -299t60.5 -299.5t163.5 -245.5t245 -164t299 -61q156 0 298.5 61t245.5 164t164 245.5t61 299.5t-61 299t-164 245t-245.5 163.5t-298.5 60.5zM1085 1142q156 0 260.5 -116.5t104.5 -312.5t-104.5 -313t-260.5 -117q-155 0 -259.5 117t-104.5 313t104 312.5
t260 116.5zM1085 1045q-111 0 -185 -89t-74 -243t74 -243t185 -89t185.5 89t74.5 243t-74.5 243t-185.5 89z" />
    <glyph glyph-name="uni24FF" unicode="&#x24ff;" horiz-adv-x="2050" 
d="M1086 1142q-156 0 -260.5 -116.5t-104.5 -312.5t104.5 -313t260.5 -117t260.5 117t104.5 313t-104.5 312.5t-260.5 116.5zM1086 1045q111 0 185 -89t74 -243t-74 -243t-185 -89t-185 89t-74 243t74 243t185 89zM1085 1564q177 0 337.5 -68.5t276.5 -184t184.5 -275.5
t68.5 -335q0 -176 -68.5 -336t-184.5 -276t-276.5 -184.5t-337.5 -68.5q-176 0 -336.5 68.5t-276.5 184.5t-184.5 276t-68.5 336q0 175 68.5 335t184.5 275.5t276.5 184t336.5 68.5z" />
    <glyph glyph-name="uni2715" unicode="&#x2573;" horiz-adv-x="2096" 
d="M1918 -269l-90 -75l-758 964l-1182 -974l-67 86l1174 968l-763 968l90 76l759 -964l1182 974l67 -86l-1174 -968z" />
    <glyph glyph-name="uni2715" unicode="&#x2715;" horiz-adv-x="2096" 
d="M1918 -269l-90 -75l-758 964l-1182 -974l-67 86l1174 968l-763 968l90 76l759 -964l1182 974l67 -86l-1174 -968z" />
    <glyph glyph-name="uni25AE" unicode="&#x258c;" horiz-adv-x="1800" 
d="M248 1400h700v-1400h-700v1400z" />
    <glyph glyph-name="uni25AE" unicode="&#x25ae;" horiz-adv-x="1800" 
d="M248 1400h700v-1400h-700v1400z" />
    <glyph glyph-name="filledbox" unicode="&#x25a0;" horiz-adv-x="1800" 
d="M248 1400h1400v-1400h-1400v1400z" />
    <glyph glyph-name="uni25A1" unicode="&#x25a1;" horiz-adv-x="1800" 
d="M248 1400h1400v-1400h-1400v1400zM353 1294v-1188h1189v1188h-1189z" />
    <glyph glyph-name="triagup" unicode="&#x25b2;" horiz-adv-x="1800" 
d="M884 1420l820 -1420h-1640z" />
    <glyph glyph-name="uni25B3" unicode="&#x25b3;" horiz-adv-x="1800" 
d="M884 1420l820 -1420h-1640zM884 1209l-637 -1103h1275z" />
    <glyph glyph-name="uni25B4" unicode="&#x25b4;" 
d="M617 914l310 -535h-621z" />
    <glyph glyph-name="uni25B8" unicode="&#x25b8;" 
d="M958 646l-536 -311v621z" />
    <glyph glyph-name="triagdn" unicode="&#x25bc;" horiz-adv-x="1800" 
d="M1030 -20l-820 1420h1640z" />
    <glyph glyph-name="uni25BD" unicode="&#x25bd;" horiz-adv-x="1800" 
d="M1030 -20l-820 1420h1640zM1030 191l637 1103h-1274z" />
    <glyph glyph-name="uni25BE" unicode="&#x25be;" horiz-adv-x="1199" 
d="M658 378l-310 536h620z" />
    <glyph glyph-name="uni25C2" unicode="&#x25c2;" horiz-adv-x="1201" 
d="M317 646l536 310v-621z" />
    <glyph glyph-name="uni25C6" unicode="&#x25c6;" horiz-adv-x="1800" 
d="M959 1438l738 -738l-738 -738l-738 738z" />
    <glyph glyph-name="uni25C7" unicode="&#x25c7;" horiz-adv-x="1800" 
d="M959 1438l738 -738l-738 -738l-738 738zM959 1289l-589 -589l589 -589l589 589z" />
    <glyph glyph-name="lozenge" unicode="&#x25ca;" horiz-adv-x="1541" 
d="M1490 700l-605 -700h-132l-604 700l604 700h133zM1341 700l-524 596l-519 -595l523 -597z" />
    <glyph glyph-name="circle" unicode="&#x25cb;" horiz-adv-x="1800" 
d="M962 -39q-151 0 -287.5 58.5t-235.5 157.5t-157.5 236t-58.5 287t58.5 287t157.5 236t235.5 157.5t287.5 58.5q150 0 287 -58.5t236 -157.5t157.5 -236t58.5 -287t-58.5 -287t-157.5 -236t-236 -157.5t-287 -58.5zM962 67q172 0 318 84.5t231 230.5t85 318t-85 318
t-231 230.5t-318 84.5q-129 0 -246 -50t-202 -135t-135 -202t-50 -246t50 -246t135 -202t202 -135t246 -50z" />
    <glyph glyph-name="uni25CF" unicode="&#x25cf;" horiz-adv-x="1800" 
d="M962 -39q-151 0 -287.5 58.5t-235.5 157.5t-157.5 236t-58.5 287t58.5 287t157.5 236t235.5 157.5t287.5 58.5q150 0 287 -58.5t236 -157.5t157.5 -236t58.5 -287t-58.5 -287t-157.5 -236t-236 -157.5t-287 -58.5z" />
    <glyph glyph-name="uni25D0" unicode="&#x25d0;" horiz-adv-x="1800" 
d="M962 -39q-151 0 -287.5 58.5t-235.5 157.5t-157.5 236t-58.5 287t58.5 287t157.5 236t235.5 157.5t287.5 58.5q150 0 287 -58.5t236 -157.5t157.5 -236t58.5 -287t-58.5 -287t-157.5 -236t-236 -157.5t-287 -58.5zM962 1333v-1266q172 0 318 84.5t231 230.5t85 318
t-85 318t-231 230.5t-318 84.5z" />
    <glyph glyph-name="uni25D6" unicode="&#x25d6;" horiz-adv-x="1800" 
d="M962 1439v-1478q-151 0 -287.5 58.5t-235.5 157.5t-157.5 236t-58.5 287t58.5 287t157.5 236t235.5 157.5t287.5 58.5z" />
    <glyph glyph-name="uni25E7" unicode="&#x25e7;" horiz-adv-x="1800" 
d="M248 1400h1400v-1400h-1400v1400zM948 1294v-1188h594v1188h-594z" />
    <glyph glyph-name="uni2610" unicode="&#x2610;" horiz-adv-x="2200" 
d="M297 1547h1694v-1694h-1694v1694zM385 1459v-1518h1518v1518h-1518z" />
    <glyph glyph-name="uni2611" unicode="&#x2611;" horiz-adv-x="2200" 
d="M297 1547h1694v-1694h-1694v1694zM385 1459v-1518h1518v1518h-1518zM1645 1210l71 -52l-707 -998l-405 516l68 56l333 -429z" />
    <glyph glyph-name="uni2612" unicode="&#x2612;" horiz-adv-x="2200" 
d="M1991 1547v-1694h-1694v1694h1694zM1903 1459h-1518v-1518h1518v1518zM652 267l430 430l-433 432l63 63l432 -433l433 433l63 -63l-434 -432l430 -430l-62 -62l-430 429l-429 -429z" />
    <glyph glyph-name="heart" unicode="&#x2665;" horiz-adv-x="1800" 
d="M1264 1173q117 0 194.5 -80t77.5 -198q0 -85 -43 -180t-119 -186t-171 -176.5t-207 -164.5q-112 79 -207 164.5t-171 176.5t-119 186t-43 180q0 118 77.5 198t194.5 80q106 0 187 -63t81 -148q0 85 81 148t187 63z" />
    <glyph glyph-name="uni2713" unicode="&#x2713;" horiz-adv-x="2200" 
d="M1745 1269l83 -61l-810 -1095l-441 480l77 70l355 -388z" />
    <glyph glyph-name="uni2717" unicode="&#x2717;" horiz-adv-x="2200" 
d="M1223 700l471 -471l-73 -74l-471 472l-472 -472l-73 74l471 471l-471 471l73 74l472 -472l471 472l73 -74z" />
    <glyph glyph-name="uni2776" unicode="&#x2776;" horiz-adv-x="2050" 
d="M1189 1141l-379 -153v-101l278 114v-707h101v847zM1085 1564q177 0 337.5 -68.5t276.5 -184t184.5 -275.5t68.5 -335q0 -176 -68.5 -336t-184.5 -276t-276.5 -184.5t-337.5 -68.5q-176 0 -336.5 68.5t-276.5 184.5t-184.5 276t-68.5 336q0 175 68.5 335t184.5 275.5
t276.5 184t336.5 68.5z" />
    <glyph glyph-name="uni2777" unicode="&#x2777;" horiz-adv-x="2050" 
d="M807 1001l68 -63q76 107 195 107q82 0 129.5 -47.5t47.5 -119.5q0 -92 -89 -181l-326 -324v-79h549v94h-403l251 251q59 59 91.5 117t32.5 129q0 113 -73.5 185t-201.5 72q-173 0 -271 -141zM1085 1564q176 0 337 -68.5t277 -184t184.5 -275.5t68.5 -335
q0 -176 -68.5 -336t-184.5 -276t-277 -184.5t-337 -68.5t-337 68.5t-277 184.5t-184.5 276t-68.5 336q0 175 68.5 335t184.5 275.5t277 184t337 68.5z" />
    <glyph glyph-name="uni2778" unicode="&#x2778;" horiz-adv-x="2050" 
d="M1085 1564q177 0 337.5 -68.5t276.5 -184t184.5 -275.5t68.5 -335q0 -176 -68.5 -336t-184.5 -276t-276.5 -184.5t-337.5 -68.5q-176 0 -336.5 68.5t-276.5 184.5t-184.5 276t-68.5 336q0 175 68.5 335t184.5 275.5t276.5 184t336.5 68.5zM1070 1142q-86 0 -154 -32.5
t-112 -86.5l62 -65q77 93 199 93q87 0 142.5 -39.5t55.5 -103.5q0 -70 -53 -108t-137 -38h-119v-89h118q89 0 149 -40t60 -108q0 -73 -60.5 -112.5t-148.5 -39.5q-126 0 -212 84l-59 -67q102 -107 275 -107q83 0 151.5 25t113.5 79.5t45 131.5q0 72 -47.5 124t-127.5 74
q73 22 114.5 73t41.5 126q0 100 -82.5 163t-214.5 63z" />
    <glyph glyph-name="uni2779" unicode="&#x2779;" horiz-adv-x="2050" 
d="M1085 1564q177 0 337.5 -68.5t276.5 -184t184.5 -275.5t68.5 -335q0 -176 -68.5 -336t-184.5 -276t-276.5 -184.5t-337.5 -68.5q-176 0 -336.5 68.5t-276.5 184.5t-184.5 276t-68.5 336q0 175 68.5 335t184.5 275.5t276.5 184t336.5 68.5zM1252 798h-102v-236h-286
l295 570h-112l-305 -592v-73h408v-173h102v173h143v95h-143v236z" />
    <glyph glyph-name="uni277A" unicode="&#x277a;" horiz-adv-x="2050" 
d="M1347 1133h-467l-13 -425h182q234 0 234 -168q0 -73 -52.5 -118t-142.5 -45q-69 0 -131.5 27t-103.5 74l-55 -73q109 -122 290 -122q132 0 216 72.5t84 191.5q0 117 -80 184t-232 67h-117l10 241h378v94zM1085 1564q177 0 337.5 -68.5t276.5 -184t184.5 -275.5t68.5 -335
q0 -176 -68.5 -336t-184.5 -276t-276.5 -184.5t-337.5 -68.5q-176 0 -336.5 68.5t-276.5 184.5t-184.5 276t-68.5 336q0 175 68.5 335t184.5 275.5t276.5 184t336.5 68.5z" />
    <glyph glyph-name="uni277B" unicode="&#x277b;" horiz-adv-x="2050" 
d="M1085 1564q177 0 337.5 -68.5t276.5 -184t184.5 -275.5t68.5 -335q0 -176 -68.5 -336t-184.5 -276t-276.5 -184.5t-337.5 -68.5q-176 0 -336.5 68.5t-276.5 184.5t-184.5 276t-68.5 336q0 175 68.5 335t184.5 275.5t276.5 184t336.5 68.5zM1205 1133h-122l-251 -394
q-60 -93 -60 -181q0 -118 88 -196.5t221 -78.5q132 0 219.5 79t87.5 198q0 116 -82.5 193.5t-210.5 77.5q-53 0 -102 -19zM1081 744q87 0 144.5 -52.5t57.5 -132.5t-57.5 -132.5t-144.5 -52.5q-88 0 -145.5 52.5t-57.5 132.5t57.5 132.5t145.5 52.5z" />
    <glyph glyph-name="uni277C" unicode="&#x277c;" horiz-adv-x="2050" 
d="M1410 1133h-591v-95h471l-383 -744h120l383 759v80zM1085 1564q177 0 337.5 -68.5t276.5 -184t184.5 -275.5t68.5 -335q0 -176 -68.5 -336t-184.5 -276t-276.5 -184.5t-337.5 -68.5q-176 0 -336.5 68.5t-276.5 184.5t-184.5 276t-68.5 336q0 175 68.5 335t184.5 275.5
t276.5 184t336.5 68.5z" />
    <glyph glyph-name="uni277D" unicode="&#x277d;" horiz-adv-x="2050" 
d="M1085 1564q177 0 337.5 -68.5t276.5 -184t184.5 -275.5t68.5 -335q0 -176 -68.5 -336t-184.5 -276t-276.5 -184.5t-337.5 -68.5q-176 0 -336.5 68.5t-276.5 184.5t-184.5 276t-68.5 336q0 175 68.5 335t184.5 275.5t276.5 184t336.5 68.5zM1085 1141q-127 0 -212 -60.5
t-85 -164.5q0 -74 43.5 -124t115.5 -74q-81 -23 -130.5 -74t-49.5 -128q0 -107 91 -169.5t227 -62.5t227.5 62.5t91.5 169.5q0 77 -49.5 127.5t-130.5 74.5q72 24 115.5 74t43.5 124q0 104 -85.5 164.5t-212.5 60.5zM1085 678q90 0 149.5 -40.5t59.5 -111.5
q0 -72 -59.5 -112t-149.5 -40q-89 0 -148.5 40t-59.5 112q0 71 59.5 111.5t148.5 40.5zM1085 1051q83 0 137 -37.5t54 -106.5t-54.5 -108t-136.5 -39t-136 39t-54 108q0 68 54 106t136 38z" />
    <glyph glyph-name="uni277E" unicode="&#x277e;" horiz-adv-x="2050" 
d="M1085 1564q177 0 337.5 -68.5t276.5 -184t184.5 -275.5t68.5 -335q0 -176 -68.5 -336t-184.5 -276t-276.5 -184.5t-337.5 -68.5q-176 0 -336.5 68.5t-276.5 184.5t-184.5 276t-68.5 336q0 175 68.5 335t184.5 275.5t276.5 184t336.5 68.5zM974 294h123l250 393
q60 93 60 182q0 118 -87.5 195.5t-220.5 77.5t-220 -78.5t-87 -197.5q0 -116 82.5 -193.5t210.5 -77.5q55 0 100 18zM1099 683q-88 0 -145 52t-57 132t57 132t145 52t145 -52t57 -132q0 -79 -57.5 -131.5t-144.5 -52.5z" />
    <glyph glyph-name="uni278A" unicode="&#x278a;" horiz-adv-x="2050" 
d="M1189 1141l-379 -153v-101l278 114v-707h101v847zM1085 1564q177 0 337.5 -68.5t276.5 -184t184.5 -275.5t68.5 -335q0 -176 -68.5 -336t-184.5 -276t-276.5 -184.5t-337.5 -68.5q-176 0 -336.5 68.5t-276.5 184.5t-184.5 276t-68.5 336q0 175 68.5 335t184.5 275.5
t276.5 184t336.5 68.5z" />
    <glyph glyph-name="uni278B" unicode="&#x278b;" horiz-adv-x="2050" 
d="M807 1001l68 -63q76 107 195 107q82 0 129.5 -47.5t47.5 -119.5q0 -92 -89 -181l-326 -324v-79h549v94h-403l251 251q59 59 91.5 117t32.5 129q0 113 -73.5 185t-201.5 72q-173 0 -271 -141zM1085 1564q176 0 337 -68.5t277 -184t184.5 -275.5t68.5 -335
q0 -176 -68.5 -336t-184.5 -276t-277 -184.5t-337 -68.5t-337 68.5t-277 184.5t-184.5 276t-68.5 336q0 175 68.5 335t184.5 275.5t277 184t337 68.5z" />
    <glyph glyph-name="uni278C" unicode="&#x278c;" horiz-adv-x="2050" 
d="M1085 1564q177 0 337.5 -68.5t276.5 -184t184.5 -275.5t68.5 -335q0 -176 -68.5 -336t-184.5 -276t-276.5 -184.5t-337.5 -68.5q-176 0 -336.5 68.5t-276.5 184.5t-184.5 276t-68.5 336q0 175 68.5 335t184.5 275.5t276.5 184t336.5 68.5zM1070 1142q-86 0 -154 -32.5
t-112 -86.5l62 -65q77 93 199 93q87 0 142.5 -39.5t55.5 -103.5q0 -70 -53 -108t-137 -38h-119v-89h118q89 0 149 -40t60 -108q0 -73 -60.5 -112.5t-148.5 -39.5q-126 0 -212 84l-59 -67q102 -107 275 -107q83 0 151.5 25t113.5 79.5t45 131.5q0 72 -47.5 124t-127.5 74
q73 22 114.5 73t41.5 126q0 100 -82.5 163t-214.5 63z" />
    <glyph glyph-name="uni278D" unicode="&#x278d;" horiz-adv-x="2050" 
d="M1085 1564q177 0 337.5 -68.5t276.5 -184t184.5 -275.5t68.5 -335q0 -176 -68.5 -336t-184.5 -276t-276.5 -184.5t-337.5 -68.5q-176 0 -336.5 68.5t-276.5 184.5t-184.5 276t-68.5 336q0 175 68.5 335t184.5 275.5t276.5 184t336.5 68.5zM1252 798h-102v-236h-286
l295 570h-112l-305 -592v-73h408v-173h102v173h143v95h-143v236z" />
    <glyph glyph-name="uni278E" unicode="&#x278e;" horiz-adv-x="2050" 
d="M1347 1133h-467l-13 -425h182q234 0 234 -168q0 -73 -52.5 -118t-142.5 -45q-69 0 -131.5 27t-103.5 74l-55 -73q109 -122 290 -122q132 0 216 72.5t84 191.5q0 117 -80 184t-232 67h-117l10 241h378v94zM1085 1564q177 0 337.5 -68.5t276.5 -184t184.5 -275.5t68.5 -335
q0 -176 -68.5 -336t-184.5 -276t-276.5 -184.5t-337.5 -68.5q-176 0 -336.5 68.5t-276.5 184.5t-184.5 276t-68.5 336q0 175 68.5 335t184.5 275.5t276.5 184t336.5 68.5z" />
    <glyph glyph-name="uni278F" unicode="&#x278f;" horiz-adv-x="2050" 
d="M1085 1564q177 0 337.5 -68.5t276.5 -184t184.5 -275.5t68.5 -335q0 -176 -68.5 -336t-184.5 -276t-276.5 -184.5t-337.5 -68.5q-176 0 -336.5 68.5t-276.5 184.5t-184.5 276t-68.5 336q0 175 68.5 335t184.5 275.5t276.5 184t336.5 68.5zM1205 1133h-122l-251 -394
q-60 -93 -60 -181q0 -118 88 -196.5t221 -78.5q132 0 219.5 79t87.5 198q0 116 -82.5 193.5t-210.5 77.5q-53 0 -102 -19zM1081 744q87 0 144.5 -52.5t57.5 -132.5t-57.5 -132.5t-144.5 -52.5q-88 0 -145.5 52.5t-57.5 132.5t57.5 132.5t145.5 52.5z" />
    <glyph glyph-name="uni2790" unicode="&#x2790;" horiz-adv-x="2050" 
d="M1410 1133h-591v-95h471l-383 -744h120l383 759v80zM1085 1564q177 0 337.5 -68.5t276.5 -184t184.5 -275.5t68.5 -335q0 -176 -68.5 -336t-184.5 -276t-276.5 -184.5t-337.5 -68.5q-176 0 -336.5 68.5t-276.5 184.5t-184.5 276t-68.5 336q0 175 68.5 335t184.5 275.5
t276.5 184t336.5 68.5z" />
    <glyph glyph-name="uni2791" unicode="&#x2791;" horiz-adv-x="2050" 
d="M1085 1564q177 0 337.5 -68.5t276.5 -184t184.5 -275.5t68.5 -335q0 -176 -68.5 -336t-184.5 -276t-276.5 -184.5t-337.5 -68.5q-176 0 -336.5 68.5t-276.5 184.5t-184.5 276t-68.5 336q0 175 68.5 335t184.5 275.5t276.5 184t336.5 68.5zM1085 1141q-127 0 -212 -60.5
t-85 -164.5q0 -74 43.5 -124t115.5 -74q-81 -23 -130.5 -74t-49.5 -128q0 -107 91 -169.5t227 -62.5t227.5 62.5t91.5 169.5q0 77 -49.5 127.5t-130.5 74.5q72 24 115.5 74t43.5 124q0 104 -85.5 164.5t-212.5 60.5zM1085 678q90 0 149.5 -40.5t59.5 -111.5
q0 -72 -59.5 -112t-149.5 -40q-89 0 -148.5 40t-59.5 112q0 71 59.5 111.5t148.5 40.5zM1085 1051q83 0 137 -37.5t54 -106.5t-54.5 -108t-136.5 -39t-136 39t-54 108q0 68 54 106t136 38z" />
    <glyph glyph-name="uni2792" unicode="&#x2792;" horiz-adv-x="2050" 
d="M1085 1564q177 0 337.5 -68.5t276.5 -184t184.5 -275.5t68.5 -335q0 -176 -68.5 -336t-184.5 -276t-276.5 -184.5t-337.5 -68.5q-176 0 -336.5 68.5t-276.5 184.5t-184.5 276t-68.5 336q0 175 68.5 335t184.5 275.5t276.5 184t336.5 68.5zM974 294h123l250 393
q60 93 60 182q0 118 -87.5 195.5t-220.5 77.5t-220 -78.5t-87 -197.5q0 -116 82.5 -193.5t210.5 -77.5q55 0 100 18zM1099 683q-88 0 -145 52t-57 132t57 132t145 52t145 -52t57 -132q0 -79 -57.5 -131.5t-144.5 -52.5z" />
    <glyph glyph-name="uni2B51" unicode="&#x2b51;" horiz-adv-x="1800" 
d="M1117 860h506l-409 -298l157 -483l-410 299l-409 -299l156 483l-411 298h508l156 482z" />
    <glyph glyph-name="uni2B52" unicode="&#x2b52;" horiz-adv-x="1800" 
d="M1117 860h506l-409 -298l157 -483l-410 299l-409 -299l156 483l-411 298h508l156 482zM1065 789l-104 322l-104 -322h-340l274 -200l-104 -323l273 200l275 -200l-105 323l274 200h-339z" />
    <glyph glyph-name="uni2E17" unicode="&#x2e17;" horiz-adv-x="881" 
d="M784 870l-22 -106l-559 -203l23 106zM711 527l-22 -106l-560 -203l24 106z" />
    <glyph glyph-name="uni2E38" unicode="&#x2e38;" horiz-adv-x="704" 
d="M510 1440h95l-94 -442h204l-19 -93h-204l-44 -204h-95l44 204h-205l20 93h204z" />
    <glyph glyph-name="uniEA00" unicode="&#xea00;" horiz-adv-x="1800" 
d="M1117 860h506l-409 -298l157 -483l-410 299l-409 -299l156 483l-411 298h508l156 482zM1065 789l-104 322v-645l274 -200l-105 323l274 200h-339z" />
    <glyph glyph-name="uniEA01" unicode="&#xea01;" horiz-adv-x="1800" 
d="M961 378l-409 -299l156 483l-411 298h508l156 482v-964z" />
    <glyph glyph-name="uniFB00" unicode="&#xfb00;" horiz-adv-x="1649" 
d="M876 941l-22 -104h-382l-178 -837h-115l178 837h-226l21 104h227l41 192q34 158 120.5 240t220.5 82q139 0 230 -76l-56 -89q-72 58 -175 58q-85 0 -144 -57t-84 -173l-38 -177h382zM1686 941l-22 -104h-382l-178 -837h-115l178 837h-226l21 104h227l41 192
q34 158 120.5 240t220.5 82q139 0 230 -76l-56 -89q-72 58 -175 58q-85 0 -144 -57t-84 -173l-38 -177h382z" />
    <glyph glyph-name="fi" unicode="&#xfb01;" horiz-adv-x="1302" 
d="M876 941l-22 -104h-382l-178 -837h-115l178 837h-226l21 104h227l41 192q34 158 120.5 240t220.5 82q139 0 230 -76l-56 -89q-72 58 -175 58q-85 0 -144 -57t-84 -173l-38 -177h382zM1228 941l-201 -941h-114l200 941h115zM1241 1362q34 0 58 -24t24 -59
q0 -34 -23.5 -57.5t-58.5 -23.5t-58 23t-23 58t23.5 59t57.5 24z" />
    <glyph glyph-name="fl" unicode="&#xfb02;" horiz-adv-x="1301" 
d="M876 941l-22 -104h-382l-178 -837h-115l178 837h-226l21 104h227l41 192q34 158 120.5 240t220.5 82q139 0 230 -76l-56 -89q-72 58 -175 58q-85 0 -144 -57t-84 -173l-38 -177h382zM1333 1440l-306 -1440h-114l306 1440h114z" />
    <glyph glyph-name="uniFB03" unicode="&#xfb03;" horiz-adv-x="2112" 
d="M876 941l-22 -104h-382l-178 -837h-115l178 837h-226l21 104h227l41 192q34 158 120.5 240t220.5 82q139 0 230 -76l-56 -89q-72 58 -175 58q-85 0 -144 -57t-84 -173l-38 -177h382zM1686 941l-22 -104h-382l-178 -837h-115l178 837h-226l21 104h227l41 192
q34 158 120.5 240t220.5 82q139 0 230 -76l-56 -89q-72 58 -175 58q-85 0 -144 -57t-84 -173l-38 -177h382zM2038 941l-201 -941h-114l200 941h115zM2051 1362q34 0 58 -24t24 -59q0 -34 -23.5 -57.5t-58.5 -23.5t-58 23t-23 58t23.5 59t57.5 24z" />
    <glyph glyph-name="uniFB04" unicode="&#xfb04;" horiz-adv-x="2111" 
d="M876 941l-22 -104h-382l-178 -837h-115l178 837h-226l21 104h227l41 192q34 158 120.5 240t220.5 82q139 0 230 -76l-56 -89q-72 58 -175 58q-85 0 -144 -57t-84 -173l-38 -177h382zM1686 941l-22 -104h-382l-178 -837h-115l178 837h-226l21 104h227l41 192
q34 158 120.5 240t220.5 82q139 0 230 -76l-56 -89q-72 58 -175 58q-85 0 -144 -57t-84 -173l-38 -177h382zM2143 1440l-306 -1440h-114l306 1440h114z" />
    <glyph glyph-name="uniFB05" unicode="&#xfb05;" horiz-adv-x="1435" 
d="M1441 941l-22 -104h-413l-104 -492q-26 -125 22 -189t142 -64q114 0 215 75l48 -88q-124 -94 -276 -94t-227 94.5t-38 268.5l103 489h-214l22 104h216l20 93q12 56 12 99q0 103 -61.5 159t-159.5 56q-118 0 -205.5 -78t-119.5 -229l-221 -1041h-115l225 1056
q42 197 162 298t283 101q142 0 233.5 -84t91.5 -230q0 -55 -13 -117l-18 -83h412z" />
    <glyph glyph-name="uniFB06" unicode="&#xfb06;" horiz-adv-x="1824" 
d="M908 849l-60 -87q-54 40 -142.5 67t-177.5 27q-109 0 -180.5 -41.5t-80.5 -114.5q-9 -70 37 -111.5t148 -57.5l95 -14q147 -23 216 -91.5t57 -174.5q-15 -123 -122.5 -194.5t-272.5 -71.5q-109 0 -220 36t-185 95l64 84q63 -51 153 -83.5t186 -32.5q119 0 195 43t85 123
q8 67 -39 108t-148 57l-97 15q-152 23 -217 92t-53 173q15 123 118.5 192t261.5 69q115 0 214 -29.5t165 -77.5zM1830 941l-22 -104h-413l-104 -492q-27 -125 21 -189t142 -64q115 0 216 75l48 -88q-124 -94 -277 -94q-152 0 -227 94.5t-38 268.5l104 489h-214l22 104h214
l66 307h114l-65 -307h413z" />
    <glyph glyph-name="uniFEFF" unicode="&#xfeff;" horiz-adv-x="0" 
 />
    <glyph glyph-name="uni030C.alt001" horiz-adv-x="1" 
d="M-530 1051h-95l92 389h127z" />
    <glyph glyph-name="uni0328.alt001" horiz-adv-x="1" 
d="M-406 -263l53 -76q-79 -73 -174 -73q-88 0 -144 44.5t-56 116.5q0 78 57 144.5t206 148.5l29 -43q-102 -70 -142.5 -123.5t-40.5 -105.5q0 -38 27 -61.5t73 -23.5q58 0 112 52z" />
    <glyph glyph-name="uni0328.alt002" horiz-adv-x="1" 
d="M-436 52l11 -43q-221 -95 -221 -218q0 -46 36 -75.5t97 -29.5q83 0 152 55l45 -79q-96 -73 -215 -73q-105 0 -168.5 50.5t-63.5 129.5q0 88 74.5 156.5t252.5 126.5z" />
    <glyph glyph-name="uni0328.alt003" horiz-adv-x="1" 
d="M-405 -260l53 -74q-85 -78 -185 -78q-85 0 -137.5 42t-52.5 113q0 91 84.5 161.5t269.5 141.5l21 -46q-265 -110 -265 -231q0 -38 26.5 -60.5t69.5 -22.5q60 0 116 54z" />
    <glyph glyph-name="uni0328.alt004" horiz-adv-x="1" 
d="M-368 -260l53 -76q-91 -76 -209 -76q-108 0 -174 54t-66 138q0 190 357 297l19 -43q-142 -57 -202.5 -114.5t-60.5 -122.5q0 -51 36 -81.5t97 -30.5q81 0 150 55z" />
    <glyph glyph-name="j.latn_NLD" horiz-adv-x="468" 
d="M394 941l-239 -1124q-24 -113 -88.5 -171t-159.5 -58q-82 0 -142 41l43 93q40 -27 92 -27q55 0 92 35t51 102l236 1109h115zM362 1083h-118l253 300h148z" />
    <glyph glyph-name="zero.numr" horiz-adv-x="840" 
d="M597 1408q123 0 198.5 -81t75.5 -219q0 -84 -26.5 -168.5t-73.5 -155t-121 -115t-161 -44.5q-123 0 -198.5 81t-75.5 219q0 84 26.5 168.5t73.5 155t121 115t161 44.5zM593 1319q-65 0 -119.5 -36t-88.5 -93t-53 -124t-19 -132q0 -102 49 -161t131 -59q85 0 151 62
t97.5 148t31.5 175q0 102 -49 161t-131 59z" />
    <glyph glyph-name="one.numr" horiz-adv-x="517" 
d="M568 1407l-164 -773h-93l137 643l-241 -84l20 97z" />
    <glyph glyph-name="two.numr" horiz-adv-x="657" 
d="M300 1227l-58 57q41 53 103.5 88.5t141.5 35.5q107 0 165.5 -60t58.5 -144q0 -72 -40 -133t-126 -135l-249 -215h349l-18 -87h-487l16 74l328 283q68 58 99.5 104.5t31.5 96.5q0 53 -37 90t-103 37q-100 0 -175 -92z" />
    <glyph glyph-name="three.numr" horiz-adv-x="645" 
d="M278 1239l-48 65q97 104 247 104q102 0 165.5 -53t63.5 -131q0 -68 -47 -126.5t-128 -81.5q53 -19 83 -60.5t30 -95.5q0 -98 -76 -166.5t-213 -68.5q-163 0 -236 97l63 58q58 -70 175 -70q95 0 143.5 44t48.5 108q0 54 -41.5 86t-108.5 32h-99l17 82h97q89 0 141.5 45
t52.5 103q0 50 -40 81.5t-104 31.5q-109 0 -186 -84z" />
    <glyph glyph-name="four.numr" horiz-adv-x="659" 
d="M625 1094l-46 -215h129l-18 -87h-130l-33 -158h-93l34 158h-356l15 75l361 531h107l-352 -519h243l46 215h93z" />
    <glyph glyph-name="five.numr" horiz-adv-x="666" 
d="M723 1399l-18 -86h-324l-55 -219h86q142 0 206 -74t43 -181q-21 -104 -100 -159t-190 -55q-77 0 -141.5 29t-103.5 84l59 60q65 -87 190 -87q76 0 127.5 36.5t63.5 98.5q13 71 -29.5 118t-151.5 47h-162l93 388h407z" />
    <glyph glyph-name="six.numr" horiz-adv-x="679" 
d="M620 1399l-231 -284q30 9 65 9q110 0 182 -63t72 -166q0 -112 -82 -190.5t-208 -78.5q-114 0 -190 65t-76 169q0 96 77 194l273 345h118zM439 1044q-82 0 -135.5 -52.5t-53.5 -127.5q0 -68 48 -111t124 -43q82 0 135.5 52.5t53.5 127.5q0 68 -48.5 111t-123.5 43z" />
    <glyph glyph-name="seven.numr" horiz-adv-x="632" 
d="M773 1399l-16 -78l-437 -687h-112l437 678h-413l18 87h523z" />
    <glyph glyph-name="eight.numr" horiz-adv-x="730" 
d="M553 1408q100 0 170.5 -50t70.5 -133q0 -71 -50 -127.5t-138 -81.5q57 -22 90.5 -61.5t33.5 -92.5q0 -101 -86.5 -169t-227.5 -68q-108 0 -181 50.5t-73 134.5q0 76 51.5 133t144.5 81q-105 44 -105 145q0 100 82 169.5t218 69.5zM470 983q-93 0 -150 -44.5t-57 -112.5
q0 -55 46.5 -87t114.5 -32q92 0 150 44t58 112q0 54 -46 87t-116 33zM545 1324q-88 0 -140.5 -43.5t-52.5 -108.5q0 -51 40.5 -82t104.5 -31q87 0 142 43.5t55 106.5q0 52 -43.5 83.5t-105.5 31.5z" />
    <glyph glyph-name="nine.numr" horiz-adv-x="679" 
d="M291 634l230 284q-29 -9 -63 -9q-110 0 -182.5 63t-72.5 165q0 112 82.5 191t207.5 79q115 0 190.5 -65t75.5 -169q0 -97 -77 -194l-273 -345h-118zM473 989q82 0 135.5 52.5t53.5 126.5q0 68 -48.5 111.5t-124.5 43.5q-82 0 -135.5 -52.5t-53.5 -127.5q0 -68 49 -111
t124 -43z" />
    <glyph glyph-name="zero.dnom" horiz-adv-x="840" 
d="M460 774q123 0 198.5 -81t75.5 -219q0 -84 -26.5 -168.5t-73.5 -155t-121 -115t-161 -44.5q-123 0 -198.5 81t-75.5 219q0 84 26.5 168.5t73.5 155t121 115t161 44.5zM456 685q-65 0 -119.5 -36t-88.5 -93t-53 -124t-19 -132q0 -102 49 -161t131 -59q85 0 151 62
t97.5 148t31.5 175q0 102 -49 161t-131 59z" />
    <glyph glyph-name="one.dnom" horiz-adv-x="520" 
d="M432 773l-164 -773h-93l137 643l-241 -84l20 97z" />
    <glyph glyph-name="two.dnom" horiz-adv-x="657" 
d="M164 593l-58 57q41 53 103.5 88.5t141.5 35.5q107 0 165.5 -60t58.5 -144q0 -72 -40 -133t-126 -135l-249 -215h349l-18 -87h-487l16 74l328 283q68 58 99.5 104.5t31.5 96.5q0 53 -37 90t-103 37q-100 0 -175 -92z" />
    <glyph glyph-name="three.dnom" horiz-adv-x="646" 
d="M142 605l-48 65q97 104 247 104q102 0 165.5 -53t63.5 -131q0 -68 -47 -126.5t-128 -81.5q53 -19 83 -60.5t30 -95.5q0 -98 -76 -166.5t-213 -68.5q-163 0 -236 97l63 58q58 -70 175 -70q95 0 143.5 44t48.5 108q0 54 -41.5 86t-108.5 32h-99l17 82h97q89 0 141.5 45
t52.5 103q0 50 -40 81.5t-104 31.5q-109 0 -186 -84z" />
    <glyph glyph-name="four.dnom" horiz-adv-x="658" 
d="M489 460l-46 -215h129l-18 -87h-130l-33 -158h-93l34 158h-356l15 75l361 531h107l-352 -519h243l46 215h93z" />
    <glyph glyph-name="five.dnom" horiz-adv-x="667" 
d="M587 765l-18 -86h-324l-55 -219h86q142 0 206 -74t43 -181q-21 -104 -100 -159t-190 -55q-77 0 -141.5 29t-103.5 84l59 60q65 -87 190 -87q76 0 127.5 36.5t63.5 98.5q13 71 -29.5 118t-151.5 47h-162l93 388h407z" />
    <glyph glyph-name="six.dnom" horiz-adv-x="679" 
d="M484 765l-231 -284q30 9 65 9q110 0 182 -63t72 -166q0 -112 -82 -190.5t-208 -78.5q-114 0 -190 65t-76 169q0 96 77 194l273 345h118zM303 410q-82 0 -135.5 -52.5t-53.5 -127.5q0 -68 48 -111t124 -43q82 0 135.5 52.5t53.5 127.5q0 68 -48.5 111t-123.5 43z" />
    <glyph glyph-name="seven.dnom" horiz-adv-x="633" 
d="M638 765l-16 -78l-437 -687h-112l437 678h-413l18 87h523z" />
    <glyph glyph-name="eight.dnom" horiz-adv-x="730" 
d="M416 774q100 0 170.5 -50t70.5 -133q0 -71 -50 -127.5t-138 -81.5q57 -22 90.5 -61.5t33.5 -92.5q0 -101 -86.5 -169t-227.5 -68q-108 0 -181 50.5t-73 134.5q0 76 51.5 133t144.5 81q-105 44 -105 145q0 100 82 169.5t218 69.5zM333 349q-93 0 -150 -44.5t-57 -112.5
q0 -55 46.5 -87t114.5 -32q92 0 150 44t58 112q0 54 -46 87t-116 33zM408 690q-88 0 -140.5 -43.5t-52.5 -108.5q0 -51 40.5 -82t104.5 -31q87 0 142 43.5t55 106.5q0 52 -43.5 83.5t-105.5 31.5z" />
    <glyph glyph-name="nine.dnom" horiz-adv-x="679" 
d="M157 0l230 284q-29 -9 -63 -9q-110 0 -182.5 63t-72.5 165q0 112 82.5 191t207.5 79q115 0 190.5 -65t75.5 -169q0 -97 -77 -194l-273 -345h-118zM339 355q82 0 135.5 52.5t53.5 126.5q0 68 -48.5 111.5t-124.5 43.5q-82 0 -135.5 -52.5t-53.5 -127.5q0 -68 49 -111
t124 -43z" />
    <glyph glyph-name="space.frac" horiz-adv-x="106" 
 />
    <glyph glyph-name="b.ordn" horiz-adv-x="866" 
d="M524 623q-87 0 -149 41.5t-88 111.5l-30 -142h-94l211 994h94l-93 -435q95 105 238 105q123 -1 202.5 -83.5t79.5 -206.5q0 -99 -47 -187t-133 -143t-191 -55zM593 1209q-101 0 -177.5 -69t-92.5 -173q-16 -108 42 -181.5t160 -73.5q113 0 193 84.5t80 202.5
q0 92 -57 151t-148 59z" />
    <glyph glyph-name="c.ordn" horiz-adv-x="760" 
d="M806 1167l-78 -48q-67 90 -185 90q-110 0 -186.5 -80t-76.5 -193q0 -97 61 -160.5t154 -63.5q105 0 183 76l60 -59q-99 -105 -247 -105q-135 0 -221.5 87t-86.5 219q0 152 104.5 259.5t259.5 107.5q175 0 259 -130z" />
    <glyph glyph-name="d.ordn" horiz-adv-x="868" 
d="M550 1298q87 0 150 -41.5t88 -111.5l103 483h95l-212 -994h-92l23 108q-96 -119 -248 -119q-120 0 -198.5 83t-78.5 207q0 153 106.5 269t263.5 116zM482 712q102 0 178.5 68.5t92.5 173.5q17 107 -40.5 181t-160.5 74q-113 0 -193.5 -83t-80.5 -201q0 -93 55.5 -153
t148.5 -60z" />
    <glyph glyph-name="e.ordn" horiz-adv-x="781" 
d="M694 791l47 -63q-107 -105 -270 -105q-135 0 -214 79t-79 203q0 56 16 112t47.5 106.5t75.5 89.5t104.5 62t128.5 23q120 0 193.5 -71t73.5 -188q0 -56 -17 -109h-527v-22q0 -91 55.5 -147t150.5 -56q124 0 215 86zM545 1216q-98 0 -165.5 -62t-93.5 -153h437q3 18 3 36
q0 82 -49.5 130.5t-131.5 48.5z" />
    <glyph glyph-name="h.ordn" horiz-adv-x="817" 
d="M602 1298q109 0 171.5 -61.5t62.5 -160.5q0 -32 -8 -72l-80 -370h-95l79 368q6 28 6 55q0 69 -42 110.5t-122 41.5q-89 0 -154.5 -56.5t-86.5 -156.5l-76 -362h-94l211 994h94l-94 -440q87 110 228 110z" />
    <glyph glyph-name="l.ordn" horiz-adv-x="350" 
d="M468 1628l-211 -994h-94l211 994h94z" />
    <glyph glyph-name="m.ordn" horiz-adv-x="1310" 
d="M1094 1298q110 0 172.5 -61.5t62.5 -160.5q0 -32 -8 -72l-80 -370h-95l79 368q6 28 6 55q0 69 -42 110.5t-123 41.5q-88 0 -153 -56t-86 -157l-78 -362h-95l79 368q19 89 -21 148t-137 59q-89 0 -154.5 -56.5t-86.5 -156.5l-76 -362h-94l138 653h92l-23 -104
q87 115 232 115q86 0 143.5 -39.5t78.5 -106.5q47 73 117 109.5t152 36.5z" />
    <glyph glyph-name="r.ordn" horiz-adv-x="594" 
d="M394 1287l-22 -100q79 111 207 111q65 0 113 -27l-33 -90q-41 27 -104 27q-78 0 -138 -55.5t-81 -151.5l-78 -367h-94l138 653h92z" />
    <glyph glyph-name="s.ordn" horiz-adv-x="665" 
d="M735 1223l-45 -70q-41 28 -102 46.5t-120 18.5q-71 0 -117 -26.5t-52 -73.5q-6 -46 24.5 -72.5t101.5 -37.5l64 -10q101 -17 148 -65t38 -122q-10 -88 -85.5 -138t-193.5 -50q-77 0 -154.5 25.5t-128.5 65.5l48 70q45 -35 108 -57.5t128 -22.5q78 0 126.5 26.5t54.5 78.5
q5 44 -26 70.5t-99 37.5l-65 10q-206 32 -186 188q10 86 83 134.5t184 48.5q159 0 266 -75z" />
    <glyph glyph-name="t.ordn" horiz-adv-x="653" 
d="M733 1287l-18 -85h-279l-69 -323q-18 -83 14 -125t95 -42q78 0 152 54l30 -77q-89 -66 -197 -66q-109 0 -161.5 67t-26.5 189l69 323h-148l18 85h148l46 211h94l-46 -211h279z" />
    <glyph glyph-name="u.ordn" horiz-adv-x="793" 
d="M864 1293l-81 -387q-29 -137 -119.5 -207t-215.5 -70q-113 0 -184 60t-71 169q0 39 8 75l77 360h95l-78 -367q-7 -29 -7 -58q0 -74 47 -112.5t122 -38.5q87 0 150.5 53.5t84.5 152.5l78 370h94z" />
    <glyph glyph-name="egrave.ordn" horiz-adv-x="781" 
d="M694 791l47 -63q-107 -105 -270 -105q-135 0 -214 79t-79 203q0 56 16 112t47.5 106.5t75.5 89.5t104.5 62t128.5 23q120 0 193.5 -71t73.5 -188q0 -56 -17 -109h-527v-22q0 -91 55.5 -147t150.5 -56q124 0 215 86zM545 1216q-98 0 -165.5 -62t-93.5 -153h437q3 18 3 36
q0 82 -49.5 130.5t-131.5 48.5zM564 1381l-177 212h116l152 -212h-91z" />
    <glyph glyph-name="zero.osf" horiz-adv-x="1323" 
d="M702 1046q142 0 257.5 -59.5t184 -172t68.5 -257.5q0 -156 -73 -287t-205 -208.5t-296 -77.5q-217 0 -362.5 135t-145.5 353q0 157 72.5 288t204.5 208.5t295 77.5zM697 938q-131 0 -235 -62.5t-160 -167t-56 -229.5q0 -175 113.5 -281.5t284.5 -106.5q131 0 235 63
t160 167.5t56 229.5q0 175 -113.5 281t-284.5 106z" />
    <glyph glyph-name="one.osf" horiz-adv-x="723" 
d="M661 1049l-223 -1049h-115l190 894l-380 -107l24 120z" />
    <glyph glyph-name="two.osf" horiz-adv-x="1044" 
d="M230 771l-75 75q171 200 418 200q163 0 269 -89.5t106 -232.5q0 -142 -80.5 -238t-276.5 -201l-327 -174h623l-24 -111h-844l19 88l496 278q162 90 227.5 166t65.5 182q0 98 -76 159.5t-190 61.5q-107 0 -183.5 -43.5t-147.5 -120.5z" />
    <glyph glyph-name="three.osf" horiz-adv-x="1044" 
d="M210 769l-72 79q163 198 430 198q176 0 284.5 -92.5t108.5 -235.5q0 -126 -82 -232t-229 -152q91 -37 143.5 -112.5t52.5 -174.5q0 -86 -33.5 -163t-96 -137t-160 -95.5t-216.5 -35.5q-136 0 -243 45t-167 124l80 76q52 -64 140.5 -100t191.5 -36q187 0 286.5 94
t99.5 228q0 108 -79.5 172.5t-210.5 64.5h-185l23 108h176q174 0 281 95t107 216q0 102 -79.5 168t-203.5 66q-204 0 -347 -168z" />
    <glyph glyph-name="four.osf" horiz-adv-x="1090" 
d="M771 475l-78 -365h274l-24 -110h-273l-79 -370h-115l78 370h-608l22 99l620 931h124l-603 -920h469l78 365h115z" />
    <glyph glyph-name="five.osf" horiz-adv-x="1080" 
d="M997 1030l-23 -110h-606l-114 -460h178q89 0 163 -18t124.5 -49.5t88 -74.5t54 -94t22 -108t-7.5 -116q-24 -126 -99 -215t-177.5 -130t-225.5 -41q-137 0 -250.5 54.5t-184.5 160.5l87 68q121 -172 352 -172q149 0 252 77.5t127 207.5q10 43 6 85t-15.5 79.5t-40 69.5
t-68.5 55.5t-100 36.5t-135 13h-285l165 681h713z" />
    <glyph glyph-name="six.osf" horiz-adv-x="1125" 
d="M849 1400l-429 -547q79 33 170 33q190 0 319.5 -118.5t129.5 -298.5q0 -130 -64.5 -240t-182 -175.5t-262.5 -65.5q-199 0 -331 116.5t-132 301.5q0 167 129 334l507 660h146zM571 778q-167 0 -275 -106.5t-108 -260.5q0 -139 97.5 -227t251.5 -88q166 0 274 107t108 260
q0 141 -98.5 228t-249.5 87z" />
    <glyph glyph-name="seven.osf" horiz-adv-x="1062" 
d="M1109 1030l-18 -97l-819 -1303h-138l817 1290h-786l24 110h920z" />
    <glyph glyph-name="eight.osf" horiz-adv-x="1173" 
d="M761 1415q108 0 201 -39t152 -117t59 -178q0 -129 -86.5 -232.5t-237.5 -149.5q95 -41 150 -115t55 -169q0 -185 -150.5 -307.5t-391.5 -122.5q-183 0 -309.5 92t-126.5 246q0 139 89.5 244.5t249.5 149.5q-81 39 -127.5 107.5t-46.5 158.5q0 179 141.5 305.5
t378.5 126.5zM612 655q-187 0 -299 -91.5t-112 -228.5q0 -111 91 -176t226 -65q186 0 300 90.5t114 227.5q0 109 -90.5 176t-229.5 67zM753 1305q-179 0 -284 -91t-105 -225q0 -104 80.5 -167.5t208.5 -63.5q176 0 286 90t110 218q0 108 -87 173.5t-209 65.5z" />
    <glyph glyph-name="nine.osf" horiz-adv-x="1124" 
d="M294 -369l428 545q-78 -32 -168 -32q-189 0 -319 118.5t-130 298.5q0 131 64.5 241t181.5 175.5t262 65.5q200 0 331.5 -117t131.5 -302q0 -168 -128 -334l-508 -659h-146zM572 253q167 0 275.5 106.5t108.5 259.5q0 139 -97.5 227.5t-252.5 88.5q-165 0 -273 -107
t-108 -260q0 -141 98 -228t249 -87z" />
    <glyph glyph-name="zero.tf" 
d="M757 1414q197 0 311.5 -129.5t114.5 -364.5q0 -139 -27.5 -274.5t-82.5 -254.5t-130.5 -209.5t-179.5 -143t-222 -52.5q-198 0 -312.5 129.5t-114.5 364.5q0 139 27.5 274.5t82.5 254.5t131 209.5t180 143t222 52.5zM753 1301q-118 0 -218 -72t-164 -188.5t-99.5 -259.5
t-35.5 -290q0 -189 82 -290.5t227 -101.5q95 0 179 47t144.5 127t105 184t66.5 219.5t22 232.5q0 189 -82 290.5t-227 101.5z" />
    <glyph glyph-name="one.tf" 
d="M116 112h394l242 1140l-449 -136l26 123l575 175l-276 -1302h403l-24 -112h-915z" />
    <glyph glyph-name="two.tf" 
d="M379 1115l-77 73q67 94 178.5 160.5t244.5 66.5q95 0 171 -30t122.5 -81t71 -114.5t24.5 -133.5q0 -129 -72.5 -241t-216.5 -240l-523 -463h676l-24 -112h-853l18 92l622 553q131 117 191 208.5t60 192.5q0 106 -71 181.5t-203 75.5q-104 0 -192 -53t-147 -135z" />
    <glyph glyph-name="three.tf" 
d="M373 1137l-74 80q166 198 434 198q178 0 287 -92.5t109 -236.5q0 -125 -80 -230.5t-225 -152.5q90 -39 141 -113.5t51 -171.5q0 -86 -34 -164t-96.5 -138t-161 -95.5t-219.5 -35.5q-137 0 -245 45t-168 123l80 78q53 -64 142.5 -100t192.5 -36q97 0 173 27t122 72.5
t70 102t24 119.5q0 108 -81 172.5t-212 64.5h-186l23 108h176q175 0 283 94.5t108 216.5q0 102 -80 167.5t-205 65.5q-206 0 -349 -168z" />
    <glyph glyph-name="four.tf" 
d="M948 817l-85 -399h253l-24 -111h-253l-65 -307h-118l65 307h-656l20 95l686 997h138l-675 -981h511l85 399h118z" />
    <glyph glyph-name="five.tf" 
d="M1157 1400l-23 -111h-608l-115 -458h179q90 0 164 -18t125 -49.5t89 -75t54.5 -94.5t22 -107.5t-7.5 -115.5q-36 -188 -175.5 -287t-329.5 -99q-137 0 -251 54.5t-186 159.5l88 69q121 -171 354 -171q149 0 252.5 77t126.5 206q10 43 6 85t-15.5 79.5t-40.5 69.5
t-69 55.5t-100 36.5t-135 13h-287l165 681h717z" />
    <glyph glyph-name="six.tf" 
d="M899 1400l-428 -544q77 30 166 30q191 0 322 -118.5t131 -298.5q0 -130 -65 -240t-182.5 -175.5t-263.5 -65.5q-201 0 -333.5 117t-132.5 302q0 168 128 334l510 659h148zM619 777q-167 0 -275.5 -106t-108.5 -259q0 -139 98 -227t252 -88q166 0 274 106.5t108 259.5
q0 140 -98.5 227t-249.5 87z" />
    <glyph glyph-name="seven.tf" 
d="M1244 1400l-18 -97l-821 -1303h-140l820 1289h-790l24 111h925z" />
    <glyph glyph-name="eight.tf" 
d="M775 1415q111 0 206.5 -40t156.5 -119t61 -181q0 -126 -88 -228t-242 -148q98 -41 155 -115t57 -170q0 -184 -154 -306.5t-401 -122.5q-121 0 -222 39.5t-164 118t-63 181.5q0 138 91 243t255 149q-84 40 -132 108.5t-48 158.5q0 86 36.5 164t103 138t168.5 95t224 35z
M626 655q-192 0 -308 -91.5t-116 -227.5q0 -112 95 -177t235 -65q191 0 309 90.5t118 227.5q0 109 -94 176t-239 67zM767 1305q-184 0 -292.5 -91t-108.5 -224q0 -105 83.5 -168.5t216.5 -63.5q182 0 295.5 90t113.5 218q0 108 -90.5 173.5t-217.5 65.5z" />
    <glyph glyph-name="nine.tf" 
d="M399 0l428 544q-77 -30 -167 -30q-191 0 -321.5 118.5t-130.5 298.5q0 130 64.5 240t182.5 175.5t264 65.5q201 0 333.5 -117t132.5 -302q0 -167 -129 -334l-509 -659h-148zM678 623q168 0 276.5 106t108.5 259q0 139 -98 227t-253 88q-166 0 -274 -106.5t-108 -259.5
q0 -140 98.5 -227t249.5 -87z" />
    <glyph glyph-name="uni2007.tf" 
 />
    <glyph glyph-name="zero.tosf" 
d="M646 1045q208 0 343.5 -134t135.5 -349q0 -157 -68 -288.5t-193.5 -210t-282.5 -78.5q-207 0 -342.5 134.5t-135.5 348.5q0 157 68 288.5t193.5 210t281.5 78.5zM641 940q-187 0 -304 -135t-117 -330q0 -172 103 -278.5t264 -106.5q187 0 304 135t117 330
q0 172 -103 278.5t-264 106.5z" />
    <glyph glyph-name="one.tosf" 
d="M140 111h377l168 787l-426 -106l25 118l548 139l-200 -938l388 1l-24 -112h-880z" />
    <glyph glyph-name="two.tosf" 
d="M322 771l-75 75q171 200 418 200q163 0 269 -89.5t106 -232.5q0 -142 -80.5 -238t-276.5 -201l-327 -174h623l-24 -111h-844l19 88l496 278q162 90 227.5 166t65.5 182q0 98 -76 159.5t-190 61.5q-107 0 -183.5 -43.5t-147.5 -120.5z" />
    <glyph glyph-name="three.tosf" 
d="M297 769l-72 79q163 198 430 198q176 0 284.5 -92.5t108.5 -235.5q0 -126 -82 -232t-229 -152q91 -37 143.5 -112.5t52.5 -174.5q0 -86 -33.5 -163t-96 -137t-160 -95.5t-216.5 -35.5q-136 0 -243 45t-167 124l80 76q52 -64 140.5 -100t191.5 -36q187 0 286.5 94
t99.5 228q0 108 -79.5 172.5t-210.5 64.5h-185l23 108h176q174 0 281 95t107 216q0 102 -79.5 168t-203.5 66q-204 0 -347 -168z" />
    <glyph glyph-name="four.tosf" 
d="M855 475l-78 -365h274l-24 -110h-273l-79 -370h-115l78 370h-608l22 99l620 931h124l-603 -920h469l78 365h115z" />
    <glyph glyph-name="five.tosf" 
d="M1075 1030l-23 -110h-606l-114 -460h178q89 0 163 -18t124.5 -49.5t88 -74.5t54 -94t22 -108t-7.5 -116q-24 -126 -99 -215t-177.5 -130t-225.5 -41q-137 0 -250.5 54.5t-184.5 160.5l87 68q121 -172 352 -172q149 0 252 77.5t127 207.5q10 43 6 85t-15.5 79.5t-40 69.5
t-68.5 55.5t-100 36.5t-135 13h-285l165 681h713z" />
    <glyph glyph-name="six.tosf" 
d="M902 1400l-429 -547q79 33 170 33q190 0 319.5 -118.5t129.5 -298.5q0 -130 -64.5 -240t-182 -175.5t-262.5 -65.5q-199 0 -331 116.5t-132 301.5q0 167 129 334l507 660h146zM624 778q-167 0 -275 -106.5t-108 -260.5q0 -139 97.5 -227t251.5 -88q166 0 274 107t108 260
q0 141 -98.5 228t-249.5 87z" />
    <glyph glyph-name="seven.tosf" 
d="M1178 1030l-18 -97l-819 -1303h-138l817 1290h-786l24 110h920z" />
    <glyph glyph-name="eight.tosf" 
d="M773 1415q108 0 201 -39t152 -117t59 -178q0 -129 -86.5 -232.5t-237.5 -149.5q95 -41 150 -115t55 -169q0 -185 -150.5 -307.5t-391.5 -122.5q-183 0 -309.5 92t-126.5 246q0 139 89.5 244.5t249.5 149.5q-81 39 -127.5 107.5t-46.5 158.5q0 179 141.5 305.5
t378.5 126.5zM624 655q-187 0 -299 -91.5t-112 -228.5q0 -111 91 -176t226 -65q186 0 300 90.5t114 227.5q0 109 -90.5 176t-229.5 67zM765 1305q-179 0 -284 -91t-105 -225q0 -104 80.5 -167.5t208.5 -63.5q176 0 286 90t110 218q0 108 -87 173.5t-209 65.5z" />
    <glyph glyph-name="nine.tosf" horiz-adv-x="1199" 
d="M316 -369l428 545q-78 -32 -168 -32q-189 0 -319 118.5t-130 298.5q0 131 64.5 241t181.5 175.5t262 65.5q200 0 331.5 -117t131.5 -302q0 -168 -128 -334l-508 -659h-146zM594 253q167 0 275.5 106.5t108.5 259.5q0 139 -97.5 227.5t-252.5 88.5q-165 0 -273 -107
t-108 -260q0 -141 98 -228t249 -87z" />
    <glyph glyph-name="uni2007.tosf" 
 />
    <glyph glyph-name="exclam.sc" horiz-adv-x="503" 
d="M429 1033l-162 -691h-92l127 691h127zM170 156q34 0 59.5 -25t25.5 -60q0 -34 -25.5 -59.5t-59.5 -25.5t-59.5 25.5t-25.5 59.5t25.5 59.5t59.5 25.5z" />
    <glyph glyph-name="numbersign.sc" horiz-adv-x="1122" 
d="M239 766h178l92 267h98l-92 -267h284l92 267h97l-92 -267h174l-30 -91h-175l-107 -312h174l-30 -91h-175l-93 -272h-98l93 272h-284l-93 -272h-97l93 272h-176l30 91h177l107 312h-177zM484 675l-107 -312h284l107 312h-284z" />
    <glyph glyph-name="dollar.sc" 
d="M1047 910l-56 -84q-107 75 -245 96l-77 -362l17 -3q133 -23 209 -84t76 -164q0 -131 -109 -217.5t-304 -86.5h-7l-30 -142h-93l31 148q-194 26 -322 126l61 84q114 -90 282 -112l78 364l-16 3q-139 23 -211.5 86.5t-72.5 164.5q0 58 23.5 111t69.5 96t121.5 68.5
t170.5 25.5q22 0 33 -1l30 140h92l-32 -148q162 -25 281 -109zM372 740q0 -67 50.5 -107t156.5 -59l76 357h-17q-132 0 -199 -57t-67 -134zM859 297q0 64 -52.5 103.5t-159.5 58.5l-75 -356q136 2 211.5 57.5t75.5 136.5z" />
    <glyph glyph-name="percent.sc" horiz-adv-x="1532" 
d="M438 1046q110 0 181 -68t71 -174q0 -116 -81 -198.5t-202 -82.5q-110 0 -181 68t-71 174q0 116 81.5 198.5t201.5 82.5zM434 961q-81 0 -134 -56t-53 -135q0 -70 46.5 -115.5t117.5 -45.5q81 0 134 55.5t53 134.5q0 71 -46.5 116.5t-117.5 45.5zM1238 1033l-811 -1033
h-113l811 1033h113zM1145 511q109 0 180.5 -68t71.5 -174q0 -116 -81.5 -198.5t-202.5 -82.5q-110 0 -181 68t-71 174q0 116 81.5 198.5t202.5 82.5zM1141 425q-81 0 -134 -55.5t-53 -134.5q0 -71 46 -116t117 -45q80 0 133.5 55.5t53.5 134.5q0 71 -46 116t-117 45z" />
    <glyph glyph-name="ampersand.sc" horiz-adv-x="1084" 
d="M915 549l71 -59l-234 -258l199 -232h-134l-134 156q-79 -80 -159 -124t-183 -44q-127 0 -209 66.5t-82 174.5q0 58 23 108.5t68 91.5t89 70t108 63q-58 75 -83 126.5t-25 107.5q0 105 73.5 177t199.5 72q111 0 183 -60.5t72 -151.5q0 -49 -21 -91.5t-62.5 -79.5
t-82.5 -63.5t-102 -59.5l202 -237zM355 82q76 0 137.5 36.5t129.5 107.5l-224 263q-55 -30 -91.5 -53.5t-73 -55t-54.5 -66.5t-18 -75q0 -69 55 -113t139 -44zM337 793q0 -37 20 -76t74 -106q52 27 85.5 47.5t67.5 48t50.5 57t16.5 62.5q0 54 -41.5 89.5t-109.5 35.5
q-75 0 -119 -46t-44 -112z" />
    <glyph glyph-name="parenleft.sc" horiz-adv-x="606" 
d="M612 1151l31 -93q-124 -35 -221 -137.5t-147 -238t-50 -278.5q0 -275 201 -424l-50 -90q-128 85 -195.5 217t-67.5 298q0 163 60 318t175.5 271.5t263.5 156.5z" />
    <glyph glyph-name="parenright.sc" horiz-adv-x="606" 
d="M15 -110l-31 93q124 35 221 137.5t147 238t50 278.5q0 275 -201 424l50 90q128 -85 195.5 -217t67.5 -298q0 -163 -60 -318t-175.5 -271.5t-263.5 -156.5z" />
    <glyph glyph-name="asterisk.sc" horiz-adv-x="700" 
d="M213 914l175 -74l40 193h83l-44 -197l200 50l9 -80l-201 -48l82 -157l-74 -41l-78 159l-147 -150l-57 55l146 145l-174 69z" />
    <glyph glyph-name="slash.sc" horiz-adv-x="715" 
d="M759 1033l-655 -1033h-128l655 1033h128z" />
    <glyph glyph-name="zero.sc" horiz-adv-x="1128" 
d="M647 1045q172 0 276.5 -111.5t104.5 -297.5q0 -113 -36 -226.5t-101.5 -208t-168 -154t-222.5 -59.5q-172 0 -276 111.5t-104 297.5q0 89 22.5 180t67.5 175t107 149.5t147.5 104.5t182.5 39zM642 940q-94 0 -173 -50t-129 -129t-77.5 -172t-27.5 -183q0 -145 74 -229
t197 -84q94 0 173 49.5t129 128.5t77.5 172t27.5 184q0 145 -74 229t-197 84z" />
    <glyph glyph-name="one.sc" horiz-adv-x="690" 
d="M147 883l475 160l-222 -1043h-109l190 889l-357 -121z" />
    <glyph glyph-name="two.sc" horiz-adv-x="876" 
d="M231 807l-67 71q54 70 140.5 118t193.5 48q75 0 135.5 -23t97.5 -61.5t56.5 -87t19.5 -101.5q0 -96 -55 -179t-170 -178l-376 -312h508l-21 -102h-670l17 86l468 393q96 80 141 145t45 135q0 75 -54 128t-152 53q-152 0 -257 -133z" />
    <glyph glyph-name="three.sc" horiz-adv-x="866" 
d="M213 826l-62 76q129 142 340 142q140 0 227.5 -71t87.5 -178q0 -90 -60 -167t-168 -112q68 -30 106.5 -85t38.5 -126q0 -133 -105 -225t-292 -92q-107 0 -192.5 34.5t-132.5 94.5l73 68q40 -46 107.5 -71.5t146.5 -25.5q139 0 211.5 63t72.5 155q0 75 -61 120.5
t-160 45.5h-142l20 99h137q130 0 208 64t78 147q0 71 -60 117t-153 46q-158 0 -266 -119z" />
    <glyph glyph-name="four.sc" horiz-adv-x="885" 
d="M678 613l-62 -292h189l-21 -102h-190l-46 -219h-108l46 219h-491l18 87l502 727h124l-491 -712h360l61 292h109z" />
    <glyph glyph-name="five.sc" horiz-adv-x="899" 
d="M835 1033l-21 -102h-464l-80 -313h130q102 0 178 -28t117 -76.5t55 -109t1 -128.5q-27 -140 -135.5 -214t-259.5 -74q-107 0 -196 39.5t-146 115.5l74 68q94 -121 272 -121q111 0 187.5 52.5t92.5 141.5q19 101 -44.5 168t-223.5 67h-224l125 514h562z" />
    <glyph glyph-name="six.sc" horiz-adv-x="890" 
d="M656 1033l-310 -388q45 14 97 14q146 0 244 -86.5t98 -222.5q0 -150 -109.5 -254.5t-276.5 -104.5q-152 0 -253.5 87t-101.5 226q0 126 101 254l373 475h138zM427 562q-117 0 -193 -73.5t-76 -179.5q0 -97 68.5 -158.5t176.5 -61.5q117 0 192.5 74t75.5 180q0 97 -69 158
t-175 61z" />
    <glyph glyph-name="seven.sc" horiz-adv-x="857" 
d="M903 1033l-17 -91l-617 -942h-128l616 931h-599l21 102h724z" />
    <glyph glyph-name="eight.sc" horiz-adv-x="971" 
d="M575 1044q86 0 160 -29.5t121 -88t47 -133.5q0 -92 -62.5 -167t-171.5 -110q74 -32 117 -86t43 -125q0 -136 -118 -226.5t-309 -90.5q-147 0 -248 69t-101 186q0 99 66 175.5t185 109.5q-137 66 -137 200q0 132 111 224t297 92zM470 477q-135 0 -217.5 -63t-82.5 -158
q0 -79 68.5 -125t170.5 -46q136 0 220.5 62.5t84.5 158.5q0 76 -69 123.5t-175 47.5zM568 946q-131 0 -208.5 -62.5t-77.5 -154.5q0 -73 61 -117t159 -44q127 0 207 61t80 150q0 76 -64.5 121.5t-156.5 45.5z" />
    <glyph glyph-name="nine.sc" horiz-adv-x="889" 
d="M253 0l310 387q-43 -13 -96 -13q-146 0 -244 86.5t-98 222.5q0 150 109.5 254.5t276.5 104.5q152 0 253 -87t101 -225q0 -127 -101 -255l-373 -475h-138zM482 471q117 0 193 73.5t76 179.5q0 97 -68.5 158.5t-176.5 61.5q-117 0 -192.5 -74t-75.5 -180q0 -97 69.5 -158
t174.5 -61z" />
    <glyph glyph-name="question.sc" horiz-adv-x="692" 
d="M272 337h-97l48 231h48q140 0 214 52t74 142q0 81 -77 128.5t-196 48.5q-23 0 -53 -2l4 107q30 3 64 3q164 0 270 -74.5t106 -198.5q0 -131 -95.5 -210.5t-275.5 -89.5zM176 156q34 0 59.5 -25t25.5 -60q0 -34 -25.5 -59.5t-59.5 -25.5t-59.5 25.5t-25.5 59.5t25.5 59.5
t59.5 25.5z" />
    <glyph glyph-name="at.sc" horiz-adv-x="1453" 
d="M977 106l44 -67q-139 -102 -338 -102q-151 0 -273.5 64.5t-194.5 185.5t-72 277q0 176 84.5 324.5t237 237t340.5 88.5q153 0 275 -60.5t192.5 -173t70.5 -257.5q0 -164 -74.5 -277t-195.5 -113q-62 0 -103 31t-55 79q-87 -102 -215 -102q-113 0 -185.5 69.5t-72.5 179.5
q0 130 90.5 227.5t219.5 97.5q73 0 126.5 -30.5t81.5 -85.5l23 107h87l-72 -340q-6 -29 -6 -53q0 -48 24.5 -74t63.5 -26q76 0 123.5 90t47.5 217q0 186 -126.5 299.5t-325.5 113.5q-160 0 -290 -77.5t-201.5 -206.5t-71.5 -282q0 -204 129.5 -326t324.5 -122q164 0 287 87z
M758 732q-94 0 -159.5 -70.5t-65.5 -165.5q0 -77 48.5 -125t124.5 -48q95 0 161 70t66 167q0 76 -49 124t-126 48z" />
    <glyph glyph-name="bracketleft.sc" horiz-adv-x="600" 
d="M422 -1l-19 -96h-334l261 1228h334l-20 -97h-227l-221 -1035h226z" />
    <glyph glyph-name="backslash.sc" horiz-adv-x="1154" 
d="M850 0l-655 1033h128l655 -1033h-128z" />
    <glyph glyph-name="bracketright.sc" horiz-adv-x="600" 
d="M198 1035l19 96h334l-261 -1228h-334l20 97h227l221 1035h-226z" />
    <glyph glyph-name="a.sc" horiz-adv-x="1107" 
d="M740 1033l234 -1033h-115l-64 289h-552l-186 -289h-123l670 1033h136zM653 926l-343 -533h462z" />
    <glyph glyph-name="b.sc" horiz-adv-x="1135" 
d="M311 1033h407q153 0 246.5 -65.5t93.5 -179.5q0 -93 -58 -166t-172 -102q89 -28 132.5 -97.5t22.5 -162.5q-32 -144 -142 -202t-312 -58h-439zM625 476h-319l-80 -376h317q144 0 223.5 38.5t100.5 131.5q23 101 -43 153.5t-199 52.5zM698 932h-295l-76 -357h302
q160 0 236.5 55t76.5 149q0 77 -67.5 115t-176.5 38z" />
    <glyph glyph-name="c.sc" horiz-adv-x="1154" 
d="M935 252l79 -71q-73 -92 -177 -142.5t-226 -50.5q-213 0 -351 135t-138 347q0 246 162.5 410.5t407.5 164.5q49 0 99.5 -9t111 -31t116 -70t92.5 -117l-92 -62q-35 64 -93.5 106.5t-117.5 58.5t-122 16q-191 0 -319 -132t-128 -327q0 -168 107.5 -275t269.5 -107
q95 0 178.5 41t140.5 115z" />
    <glyph glyph-name="d.sc" horiz-adv-x="1230" 
d="M311 1033h344q225 0 353 -116.5t128 -307.5q0 -129 -43.5 -239.5t-126 -193t-210 -129.5t-286.5 -47h-380zM643 928h-241l-175 -822h255q128 0 231 37t169 103.5t101 155.5t35 194q0 152 -96.5 242t-278.5 90z" />
    <glyph glyph-name="e.sc" horiz-adv-x="1084" 
d="M938 572l-21 -103h-612l-78 -366h635l-21 -103h-751l221 1033h742l-20 -104h-630l-76 -357h611z" />
    <glyph glyph-name="f.sc" horiz-adv-x="1042" 
d="M933 568l-22 -104h-607l-99 -464h-115l221 1033h735l-21 -104h-622l-77 -361h607z" />
    <glyph glyph-name="g.sc" horiz-adv-x="1246" 
d="M1072 869l-85 -74q-58 74 -139.5 108t-168.5 34q-186 0 -313.5 -132t-127.5 -331q0 -170 107 -274.5t276 -104.5q160 0 266.5 95.5t132.5 261.5h-340l20 95h445q0 -15 -4 -53q-28 -231 -172 -368t-356 -137q-213 0 -352.5 133.5t-139.5 342.5q0 164 75 297t205 207.5
t288 74.5q98 0 202.5 -38.5t180.5 -136.5z" />
    <glyph glyph-name="h.sc" horiz-adv-x="1271" 
d="M424 1033l-98 -460h661l98 460h115l-220 -1033h-114l99 468h-661l-99 -468h-115l220 1033h114z" />
    <glyph glyph-name="i.sc" horiz-adv-x="496" 
d="M425 1033l-220 -1033h-115l221 1033h114z" />
    <glyph glyph-name="j.sc" horiz-adv-x="908" 
d="M843 1033l-141 -678q-77 -367 -405 -367q-98 0 -182.5 38.5t-132.5 100.5l73 78q38 -47 102.5 -78t139.5 -31q237 0 295 281l136 656h115z" />
    <glyph glyph-name="k.sc" horiz-adv-x="1095" 
d="M425 1033l-99 -461h136l524 461h149l-596 -515l437 -518h-134l-392 468h-146l-99 -468h-115l221 1033h114z" />
    <glyph glyph-name="l.sc" horiz-adv-x="966" 
d="M425 1033l-198 -927h623l-22 -106h-738l221 1033h114z" />
    <glyph glyph-name="m.sc" horiz-adv-x="1502" 
d="M1430 1033l-219 -1033h-116l190 884l-544 -763h-119l-228 767l-189 -888h-115l220 1033h160l231 -786l557 786h172z" />
    <glyph glyph-name="n.sc" horiz-adv-x="1288" 
d="M1216 1033l-219 -1033h-107l-502 860l-183 -860h-115l221 1033h106l501 -861l183 861h115z" />
    <glyph glyph-name="o.sc" horiz-adv-x="1282" 
d="M687 1045q213 0 353.5 -132t140.5 -348q0 -156 -71.5 -288t-202 -210.5t-292.5 -78.5q-213 0 -353.5 132t-140.5 347q0 156 71.5 288t202 211t292.5 79zM679 937q-126 0 -228 -63.5t-157.5 -169t-55.5 -230.5q0 -171 109 -274.5t276 -103.5q126 0 228 63.5t157.5 168.5
t55.5 230q0 172 -109 275.5t-276 103.5z" />
    <glyph glyph-name="p.sc" horiz-adv-x="1071" 
d="M583 406h-292l-86 -406h-115l221 1033h375q162 0 254 -74.5t92 -198.5q0 -156 -115.5 -255t-333.5 -99zM675 929h-272l-90 -420h274q164 0 246 67.5t82 172.5q0 85 -63.5 132.5t-176.5 47.5z" />
    <glyph glyph-name="q.sc" horiz-adv-x="1282" 
d="M687 1045q213 0 353.5 -132t140.5 -348q0 -207 -124 -366l138 -199h-127l-86 120q-155 -132 -367 -132q-213 0 -353.5 132t-140.5 347q0 156 71.5 288t202 211t292.5 79zM679 937q-126 0 -228 -63.5t-157.5 -169t-55.5 -230.5q0 -171 109 -274.5t276 -103.5
q171 0 294 113l-215 304h127l158 -220q77 118 77 265q0 172 -109 275.5t-276 103.5z" />
    <glyph glyph-name="r.sc" horiz-adv-x="1105" 
d="M311 1033h393q160 0 249.5 -72.5t89.5 -187.5q0 -140 -107 -233.5t-319 -93.5h-48l357 -446h-133l-348 446h-145l-95 -446h-115zM693 928h-291l-81 -384h302q151 0 227 60t76 159q0 76 -61 120.5t-172 44.5z" />
    <glyph glyph-name="s.sc" horiz-adv-x="1081" 
d="M1015 922l-61 -89q-152 107 -361 107q-143 0 -215.5 -58t-72.5 -136q0 -68 56.5 -109.5t172.5 -60.5l93 -15q145 -23 226 -86.5t81 -170.5q0 -136 -116 -226t-323 -90q-106 0 -226.5 33t-212.5 103l65 90q81 -63 185.5 -92.5t194.5 -29.5q149 0 231 57t82 141
q0 131 -235 167l-96 15q-146 23 -222 89t-76 171q0 61 25 115.5t74 99.5t129.5 71.5t182.5 26.5q247 0 419 -123z" />
    <glyph glyph-name="t.sc" horiz-adv-x="951" 
d="M1032 1033l-22 -106h-378l-197 -927h-115l197 927h-380l21 106h874z" />
    <glyph glyph-name="u.sc" horiz-adv-x="1219" 
d="M1167 1033l-135 -636q-43 -204 -173 -306.5t-325 -102.5q-171 0 -278.5 82.5t-107.5 239.5q0 51 12 108l131 615h116l-133 -616q-9 -41 -9 -89q0 -117 76 -174.5t202 -57.5q144 0 244 78.5t133 234.5l132 624h115z" />
    <glyph glyph-name="v.sc" horiz-adv-x="1093" 
d="M1179 1033l-654 -1033h-135l-236 1033h115l206 -927l582 927h122z" />
    <glyph glyph-name="w.sc" horiz-adv-x="1721" 
d="M1787 1033l-574 -1033h-132l-131 885l-482 -885h-137l-156 1033h113l134 -914l493 914h119l132 -914l501 914h120z" />
    <glyph glyph-name="x.sc" horiz-adv-x="1061" 
d="M1101 1033l-497 -512l298 -521h-124l-254 443l-430 -443h-139l514 529l-283 504h124l238 -427l414 427h139z" />
    <glyph glyph-name="y.sc" horiz-adv-x="989" 
d="M1098 1033l-555 -604l-91 -429h-115l93 440l-300 593h121l253 -488l454 488h140z" />
    <glyph glyph-name="z.sc" horiz-adv-x="1077" 
d="M1063 1033l-18 -91l-839 -838h687l-21 -104h-839l20 93l838 836h-679l22 104h829z" />
    <glyph glyph-name="braceleft.sc" horiz-adv-x="641" 
d="M691 1131l-19 -95h-36q-87 0 -139.5 -42.5t-66.5 -143.5l-14 -98q-14 -104 -65 -161t-139 -78q75 -25 101.5 -84.5t2.5 -146.5l-28 -102q-25 -88 10.5 -134.5t114.5 -46.5h51l-19 -95h-57q-128 0 -184 82.5t-18 213.5l26 91q25 88 -15 133.5t-129 45.5l19 94
q196 0 221 186l15 111q38 270 317 270h51z" />
    <glyph glyph-name="braceright.sc" horiz-adv-x="641" 
d="M-30 -96l19 95h36q87 0 139.5 42.5t66.5 143.5l14 98q14 104 65 161t139 78q-75 25 -101.5 84.5t-2.5 146.5l28 102q25 88 -10.5 134.5t-114.5 46.5h-51l19 95h57q128 0 184 -82.5t18 -213.5l-26 -91q-25 -88 15 -133.5t129 -45.5l-19 -94q-196 0 -221 -186l-15 -111
q-38 -270 -317 -270h-51z" />
    <glyph glyph-name="exclamdown.sc" horiz-adv-x="502" 
d="M93 0l162 691h92l-127 -691h-127zM352 877q-34 0 -59.5 25.5t-25.5 59.5t25.5 59.5t59.5 25.5t59.5 -25.5t25.5 -59.5t-25.5 -59.5t-59.5 -25.5z" />
    <glyph glyph-name="cent.sc" 
d="M965 735l-83 -51q-58 68 -148 88l-110 -520q119 2 203 81l65 -64q-107 -113 -274 -113h-14l-33 -156h-93l36 169q-111 29 -177 115t-66 201q0 159 112 272t281 117l34 159h92l-35 -165q134 -25 210 -133zM377 492q0 -81 43 -141.5t114 -84.5l109 512q-114 -10 -190 -92
t-76 -194z" />
    <glyph glyph-name="sterling.sc" 
d="M912 102l-21 -102h-772l21 102h139l78 370h-138l20 89h137l33 153q35 163 135.5 246.5t236.5 83.5q189 0 270 -133l-92 -61q-58 90 -185 90q-94 0 -164 -60t-97 -186l-29 -133h396l-19 -89h-396l-78 -370h525z" />
    <glyph glyph-name="currency.sc" 
d="M963 863l50 -63l-124 -104q56 -87 42 -197q-13 -109 -95 -194l73 -92l-70 -56l-72 92q-92 -58 -196 -52q-110 6 -187 78l-127 -105l-51 64l125 103q-56 87 -42 197q13 110 94 192l-72 93l68 57l74 -94q93 59 197 53q107 -6 185 -77zM581 282q98 -5 175 59.5t89 162.5
t-48 170t-158 76q-98 5 -175.5 -59.5t-89.5 -161.5q-13 -98 47.5 -170t159.5 -77z" />
    <glyph glyph-name="yen.sc" 
d="M938 320l-16 -77h-306l-52 -243h-109l52 243h-294l17 77h293l33 153h-294l16 76h253l-248 484h121l224 -437l410 437h132l-450 -484h267l-16 -76h-306l-33 -153h306z" />
    <glyph glyph-name="section.sc" horiz-adv-x="984" 
d="M948 938l-62 -82q-121 92 -290 92q-110 0 -188 -40.5t-91 -102.5q-14 -73 36.5 -110.5t159.5 -50.5l84 -10q140 -17 212.5 -81t51.5 -164q-25 -117 -155 -175q91 -70 68 -186t-134 -180.5t-269 -64.5q-109 0 -210 34t-159 86l66 79q51 -43 132.5 -73t175.5 -30
q117 0 195.5 40t91.5 107q14 73 -40 109.5t-165 49.5l-86 10q-138 17 -206 79t-48 159q25 119 156 178q-92 68 -67 193q22 106 130.5 173t261.5 67q106 0 196.5 -29.5t152.5 -76.5zM447 553q-48 5 -83 16q-56 -20 -92.5 -53.5t-45.5 -74.5q-15 -69 40.5 -105.5t173.5 -49.5
l83 -8q52 -6 95 -21q55 19 91 51.5t45 73.5q15 71 -45 110.5t-175 51.5z" />
    <glyph glyph-name="copyright.sc" horiz-adv-x="1458" 
d="M700 -63q-150 0 -277 70t-202.5 196t-75.5 279q0 121 50 235t134 199.5t203 137.5t249 52q150 0 277 -70t202.5 -196t75.5 -279q0 -121 -50 -235t-134 -199.5t-203 -137.5t-249 -52zM775 1016q-146 0 -270.5 -74.5t-195 -196.5t-70.5 -258q0 -130 64 -236.5t171 -165
t232 -58.5q147 0 271.5 75t194.5 196.5t70 258.5q0 196 -137.5 327.5t-329.5 131.5zM1043 680l-81 -40q-28 55 -79 80t-105 25q-103 0 -170 -71.5t-67 -173.5q0 -90 58.5 -146t144.5 -56q56 0 105.5 25t82.5 70l65 -50q-44 -61 -110.5 -95.5t-146.5 -34.5q-124 0 -208 77.5
t-84 204.5q0 139 94.5 237t239.5 98q87 0 158.5 -40.5t102.5 -109.5z" />
    <glyph glyph-name="degree.sc" horiz-adv-x="607" 
d="M356 546q-102 0 -171.5 68.5t-69.5 166.5q0 109 79 188t196 79q102 0 171.5 -68.5t69.5 -165.5q0 -108 -80 -188t-195 -80zM361 630q73 0 126.5 53.5t53.5 125.5q0 64 -45 109.5t-111 45.5q-74 0 -127.5 -53.5t-53.5 -124.5q0 -65 45.5 -110.5t111.5 -45.5z" />
    <glyph glyph-name="questiondown.sc" horiz-adv-x="691" 
d="M439 697h97l-48 -231h-48q-140 0 -214 -52t-74 -142q0 -81 77 -128.5t196 -48.5q23 0 53 2l-4 -107q-30 -3 -64 -3q-164 0 -270 74.5t-106 198.5q0 131 95.5 210.5t275.5 89.5zM535 878q-35 0 -60 25t-25 60q0 34 25.5 59.5t59.5 25.5t59.5 -25.5t25.5 -59.5t-25.5 -59.5
t-59.5 -25.5z" />
    <glyph glyph-name="germandbls.sc" horiz-adv-x="2149" 
d="M1015 922l-61 -89q-152 107 -361 107q-143 0 -215.5 -58t-72.5 -136q0 -68 56.5 -109.5t172.5 -60.5l93 -15q145 -23 226 -86.5t81 -170.5q0 -136 -116 -226t-323 -90q-106 0 -226.5 33t-212.5 103l65 90q81 -63 185.5 -92.5t194.5 -29.5q149 0 231 57t82 141
q0 131 -235 167l-96 15q-146 23 -222 89t-76 171q0 61 25 115.5t74 99.5t129.5 71.5t182.5 26.5q247 0 419 -123zM2083 922l-61 -89q-152 107 -361 107q-143 0 -215.5 -58t-72.5 -136q0 -68 56.5 -109.5t172.5 -60.5l93 -15q145 -23 226 -86.5t81 -170.5q0 -136 -116 -226
t-323 -90q-106 0 -226.5 33t-212.5 103l65 90q81 -63 185.5 -92.5t194.5 -29.5q149 0 231 57t82 141q0 131 -235 167l-96 15q-146 23 -222 89t-76 171q0 61 25 115.5t74 99.5t129.5 71.5t182.5 26.5q247 0 419 -123z" />
    <glyph glyph-name="agrave.sc" horiz-adv-x="1107" 
d="M740 1033l234 -1033h-115l-64 289h-552l-186 -289h-123l670 1033h136zM653 926l-343 -533h462zM695 1174l-251 300h144l220 -300h-113z" />
    <glyph glyph-name="aacute.sc" horiz-adv-x="1107" 
d="M740 1033l234 -1033h-115l-64 289h-552l-186 -289h-123l670 1033h136zM653 926l-343 -533h462zM688 1174h-118l253 300h148z" />
    <glyph glyph-name="acircumflex.sc" horiz-adv-x="1107" 
d="M740 1033l234 -1033h-115l-64 289h-552l-186 -289h-123l670 1033h136zM653 926l-343 -533h462zM1008 1180h-120l-154 213l-239 -213h-129l302 282h150z" />
    <glyph glyph-name="atilde.sc" horiz-adv-x="1107" 
d="M740 1033l234 -1033h-115l-64 289h-552l-186 -289h-123l670 1033h136zM653 926l-343 -533h462zM420 1235l-55 76q50 56 100.5 82t115.5 26q46 0 84.5 -13.5t60.5 -29.5t51.5 -29.5t59.5 -13.5q44 0 81 20.5t79 64.5l55 -76q-50 -56 -100.5 -82t-115.5 -26q-46 0 -84 13.5
t-60 30t-51.5 30t-60.5 13.5q-44 0 -81 -21t-79 -65z" />
    <glyph glyph-name="adieresis.sc" horiz-adv-x="1107" 
d="M740 1033l234 -1033h-115l-64 289h-552l-186 -289h-123l670 1033h136zM653 926l-343 -533h462zM516 1399q34 0 58 -23.5t24 -58.5q0 -34 -23.5 -57.5t-58.5 -23.5q-34 0 -57.5 23t-23.5 58t23.5 58.5t57.5 23.5zM925 1399q35 0 59 -24t24 -58t-24 -57.5t-59 -23.5t-58 23
t-23 58t23.5 58.5t57.5 23.5z" />
    <glyph glyph-name="aring.sc" horiz-adv-x="1107" 
d="M740 1033l234 -1033h-115l-64 289h-552l-186 -289h-123l670 1033h136zM653 926l-343 -533h462zM707 1158q-89 0 -152 62.5t-63 150.5t63 150.5t152 62.5t152 -62.5t63 -150.5t-63 -150.5t-152 -62.5zM707 1231q57 0 97.5 40.5t40.5 99.5q0 58 -40.5 98.5t-97.5 40.5
t-97.5 -40.5t-40.5 -98.5q0 -59 40.5 -99.5t97.5 -40.5z" />
    <glyph glyph-name="ae.sc" horiz-adv-x="1786" 
d="M1564 103l-21 -103h-751l59 275h-506l-273 -275h-145l1034 1033h794l-20 -104h-630l-76 -357h611l-21 -103h-612l-78 -366h635zM449 380h424l117 545z" />
    <glyph glyph-name="ccedilla.sc" horiz-adv-x="1154" 
d="M940 258l74 -77q-66 -84 -159.5 -134t-202.5 -57l-160 -313h-127l171 316q-185 24 -299.5 154t-114.5 323q0 246 162.5 410.5t407.5 164.5q49 0 99.5 -9t111 -31t116 -70t92.5 -117l-92 -62q-35 64 -93.5 106.5t-117.5 58.5t-122 16q-191 0 -319 -132t-128 -327
q0 -168 107.5 -275t269.5 -107q97 0 182 42.5t142 119.5z" />
    <glyph glyph-name="egrave.sc" horiz-adv-x="1084" 
d="M938 572l-21 -103h-612l-78 -366h635l-21 -103h-751l221 1033h742l-20 -104h-630l-76 -357h611zM715 1174l-251 300h144l220 -300h-113z" />
    <glyph glyph-name="eacute.sc" horiz-adv-x="1084" 
d="M938 572l-21 -103h-612l-78 -366h635l-21 -103h-751l221 1033h742l-20 -104h-630l-76 -357h611zM708 1174h-118l253 300h148z" />
    <glyph glyph-name="ecircumflex.sc" horiz-adv-x="1084" 
d="M938 572l-21 -103h-612l-78 -366h635l-21 -103h-751l221 1033h742l-20 -104h-630l-76 -357h611zM1028 1180h-120l-154 213l-239 -213h-129l302 282h150z" />
    <glyph glyph-name="edieresis.sc" horiz-adv-x="1084" 
d="M938 572l-21 -103h-612l-78 -366h635l-21 -103h-751l221 1033h742l-20 -104h-630l-76 -357h611zM536 1399q34 0 58 -23.5t24 -58.5q0 -34 -23.5 -57.5t-58.5 -23.5q-34 0 -57.5 23t-23.5 58t23.5 58.5t57.5 23.5zM945 1399q35 0 59 -24t24 -58t-24 -57.5t-59 -23.5
t-58 23t-23 58t23.5 58.5t57.5 23.5z" />
    <glyph glyph-name="igrave.sc" horiz-adv-x="496" 
d="M425 1033l-220 -1033h-115l221 1033h114zM395 1174l-251 300h144l220 -300h-113z" />
    <glyph glyph-name="iacute.sc" horiz-adv-x="496" 
d="M425 1033l-220 -1033h-115l221 1033h114zM388 1174h-118l253 300h148z" />
    <glyph glyph-name="icircumflex.sc" horiz-adv-x="496" 
d="M425 1033l-220 -1033h-115l221 1033h114zM708 1180h-120l-154 213l-239 -213h-129l302 282h150z" />
    <glyph glyph-name="idieresis.sc" horiz-adv-x="496" 
d="M425 1033l-220 -1033h-115l221 1033h114zM216 1399q34 0 58 -23.5t24 -58.5q0 -34 -23.5 -57.5t-58.5 -23.5q-34 0 -57.5 23t-23.5 58t23.5 58.5t57.5 23.5zM625 1399q35 0 59 -24t24 -58t-24 -57.5t-59 -23.5t-58 23t-23 58t23.5 58.5t57.5 23.5z" />
    <glyph glyph-name="eth.sc" horiz-adv-x="1381" 
d="M462 1033h344q225 0 353 -116.5t128 -307.5q0 -129 -43.5 -239.5t-126 -193t-210 -129.5t-286.5 -47h-380l101 475h-226l21 103h227zM797 578l-22 -103h-318l-79 -369h255q128 0 231 37t169 103.5t101 155.5t35 194q0 152 -96.5 242t-278.5 90h-241l-74 -350h318z" />
    <glyph glyph-name="ntilde.sc" horiz-adv-x="1288" 
d="M1216 1033l-219 -1033h-107l-502 860l-183 -860h-115l221 1033h106l501 -861l183 861h115zM507 1235l-55 76q50 56 100.5 82t115.5 26q46 0 84.5 -13.5t60.5 -29.5t51.5 -29.5t59.5 -13.5q44 0 81 20.5t79 64.5l55 -76q-50 -56 -100.5 -82t-115.5 -26q-46 0 -84 13.5
t-60 30t-51.5 30t-60.5 13.5q-44 0 -81 -21t-79 -65z" />
    <glyph glyph-name="ograve.sc" horiz-adv-x="1282" 
d="M687 1045q213 0 353.5 -132t140.5 -348q0 -156 -71.5 -288t-202 -210.5t-292.5 -78.5q-213 0 -353.5 132t-140.5 347q0 156 71.5 288t202 211t292.5 79zM679 937q-126 0 -228 -63.5t-157.5 -169t-55.5 -230.5q0 -171 109 -274.5t276 -103.5q126 0 228 63.5t157.5 168.5
t55.5 230q0 172 -109 275.5t-276 103.5zM740 1174l-251 300h144l220 -300h-113z" />
    <glyph glyph-name="oacute.sc" horiz-adv-x="1282" 
d="M687 1045q213 0 353.5 -132t140.5 -348q0 -156 -71.5 -288t-202 -210.5t-292.5 -78.5q-213 0 -353.5 132t-140.5 347q0 156 71.5 288t202 211t292.5 79zM679 937q-126 0 -228 -63.5t-157.5 -169t-55.5 -230.5q0 -171 109 -274.5t276 -103.5q126 0 228 63.5t157.5 168.5
t55.5 230q0 172 -109 275.5t-276 103.5zM733 1174h-118l253 300h148z" />
    <glyph glyph-name="ocircumflex.sc" horiz-adv-x="1282" 
d="M687 1045q213 0 353.5 -132t140.5 -348q0 -156 -71.5 -288t-202 -210.5t-292.5 -78.5q-213 0 -353.5 132t-140.5 347q0 156 71.5 288t202 211t292.5 79zM679 937q-126 0 -228 -63.5t-157.5 -169t-55.5 -230.5q0 -171 109 -274.5t276 -103.5q126 0 228 63.5t157.5 168.5
t55.5 230q0 172 -109 275.5t-276 103.5zM1053 1180h-120l-154 213l-239 -213h-129l302 282h150z" />
    <glyph glyph-name="otilde.sc" horiz-adv-x="1282" 
d="M687 1045q213 0 353.5 -132t140.5 -348q0 -156 -71.5 -288t-202 -210.5t-292.5 -78.5q-213 0 -353.5 132t-140.5 347q0 156 71.5 288t202 211t292.5 79zM679 937q-126 0 -228 -63.5t-157.5 -169t-55.5 -230.5q0 -171 109 -274.5t276 -103.5q126 0 228 63.5t157.5 168.5
t55.5 230q0 172 -109 275.5t-276 103.5zM465 1235l-55 76q50 56 100.5 82t115.5 26q46 0 84.5 -13.5t60.5 -29.5t51.5 -29.5t59.5 -13.5q44 0 81 20.5t79 64.5l55 -76q-50 -56 -100.5 -82t-115.5 -26q-46 0 -84 13.5t-60 30t-51.5 30t-60.5 13.5q-44 0 -81 -21t-79 -65z" />
    <glyph glyph-name="odieresis.sc" horiz-adv-x="1282" 
d="M687 1045q213 0 353.5 -132t140.5 -348q0 -156 -71.5 -288t-202 -210.5t-292.5 -78.5q-213 0 -353.5 132t-140.5 347q0 156 71.5 288t202 211t292.5 79zM679 937q-126 0 -228 -63.5t-157.5 -169t-55.5 -230.5q0 -171 109 -274.5t276 -103.5q126 0 228 63.5t157.5 168.5
t55.5 230q0 172 -109 275.5t-276 103.5zM561 1399q35 0 58.5 -23.5t23.5 -58.5q0 -34 -23.5 -57.5t-58.5 -23.5t-58 23t-23 58t23.5 58.5t57.5 23.5zM970 1399q35 0 59 -24t24 -58t-24 -57.5t-59 -23.5q-34 0 -57.5 23t-23.5 58t23.5 58.5t57.5 23.5z" />
    <glyph glyph-name="oslash.sc" horiz-adv-x="1282" 
d="M687 1045q209 0 346 -126l147 131l62 -70l-147 -131q86 -119 86 -284q0 -156 -71.5 -288t-202 -210.5t-292.5 -78.5q-209 0 -347 125l-144 -128l-62 68l145 129q-86 120 -86 285q0 156 71.5 288t202 211t292.5 79zM679 937q-126 0 -228 -63.5t-157.5 -169t-55.5 -230.5
q0 -122 58 -213l650 580q-107 96 -267 96zM1064 558q0 119 -58 212l-650 -579q106 -95 267 -95q126 0 228 63.5t157.5 168.5t55.5 230z" />
    <glyph glyph-name="ugrave.sc" horiz-adv-x="1219" 
d="M1167 1033l-135 -636q-43 -204 -173 -306.5t-325 -102.5q-171 0 -278.5 82.5t-107.5 239.5q0 51 12 108l131 615h116l-133 -616q-9 -41 -9 -89q0 -117 76 -174.5t202 -57.5q144 0 244 78.5t133 234.5l132 624h115zM762 1174l-251 300h144l220 -300h-113z" />
    <glyph glyph-name="uacute.sc" horiz-adv-x="1219" 
d="M1167 1033l-135 -636q-43 -204 -173 -306.5t-325 -102.5q-171 0 -278.5 82.5t-107.5 239.5q0 51 12 108l131 615h116l-133 -616q-9 -41 -9 -89q0 -117 76 -174.5t202 -57.5q144 0 244 78.5t133 234.5l132 624h115zM755 1174h-118l253 300h148z" />
    <glyph glyph-name="ucircumflex.sc" horiz-adv-x="1219" 
d="M1167 1033l-135 -636q-43 -204 -173 -306.5t-325 -102.5q-171 0 -278.5 82.5t-107.5 239.5q0 51 12 108l131 615h116l-133 -616q-9 -41 -9 -89q0 -117 76 -174.5t202 -57.5q144 0 244 78.5t133 234.5l132 624h115zM1075 1180h-120l-154 213l-239 -213h-129l302 282h150z
" />
    <glyph glyph-name="udieresis.sc" horiz-adv-x="1219" 
d="M1167 1033l-135 -636q-43 -204 -173 -306.5t-325 -102.5q-171 0 -278.5 82.5t-107.5 239.5q0 51 12 108l131 615h116l-133 -616q-9 -41 -9 -89q0 -117 76 -174.5t202 -57.5q144 0 244 78.5t133 234.5l132 624h115zM583 1399q35 0 58.5 -23.5t23.5 -58.5
q0 -34 -23.5 -57.5t-58.5 -23.5t-58 23t-23 58t23.5 58.5t57.5 23.5zM992 1399q35 0 59 -24t24 -58t-24 -57.5t-59 -23.5q-34 0 -57.5 23t-23.5 58t23.5 58.5t57.5 23.5z" />
    <glyph glyph-name="yacute.sc" horiz-adv-x="989" 
d="M1098 1033l-555 -604l-91 -429h-115l93 440l-300 593h121l253 -488l454 488h140zM623 1174h-118l253 300h148z" />
    <glyph glyph-name="thorn.sc" horiz-adv-x="1079" 
d="M425 1033l-41 -192h269q162 0 254 -74.5t92 -198.5q0 -156 -115.5 -254.5t-333.5 -98.5h-299l-46 -215h-115l221 1033h114zM642 737h-280l-89 -419h282q164 0 246 67.5t82 172.5q0 85 -63.5 132t-177.5 47z" />
    <glyph glyph-name="ydieresis.sc" horiz-adv-x="989" 
d="M1098 1033l-555 -604l-91 -429h-115l93 440l-300 593h121l253 -488l454 488h140zM451 1399q35 0 58.5 -23.5t23.5 -58.5q0 -34 -23.5 -57.5t-58.5 -23.5t-58 23t-23 58t23.5 58.5t57.5 23.5zM860 1399q35 0 59 -24t24 -58t-24 -57.5t-59 -23.5q-34 0 -57.5 23t-23.5 58
t23.5 58.5t57.5 23.5z" />
    <glyph glyph-name="dotlessi.sc" horiz-adv-x="496" 
d="M425 1033l-220 -1033h-115l221 1033h114z" />
    <glyph glyph-name="ij.sc" horiz-adv-x="1404" 
d="M425 1033l-220 -1033h-115l221 1033h114zM1339 1033l-141 -678q-77 -367 -405 -367q-98 0 -182.5 38.5t-132.5 100.5l73 78q38 -47 102.5 -78t139.5 -31q237 0 295 281l136 656h115z" />
    <glyph glyph-name="lslash.sc" horiz-adv-x="1071" 
d="M530 1033l-98 -460l393 186l-24 -118l-395 -187l-74 -348h623l-22 -106h-738l84 393l-201 -95l25 119l201 95l112 521h114z" />
    <glyph glyph-name="oe.sc" horiz-adv-x="1746" 
d="M1600 572l-21 -103h-612l-78 -366h635l-21 -103h-868q-241 0 -377.5 118.5t-136.5 313.5q0 127 45.5 236t131.5 190.5t220 128t301 46.5h896l-20 -104h-630l-76 -357h611zM239 443q0 -156 105 -248t302 -92h128l176 826h-142q-271 0 -420 -135.5t-149 -350.5z" />
    <glyph glyph-name="scaron.sc" horiz-adv-x="1081" 
d="M1015 922l-61 -89q-152 107 -361 107q-143 0 -215.5 -58t-72.5 -136q0 -68 56.5 -109.5t172.5 -60.5l93 -15q145 -23 226 -86.5t81 -170.5q0 -136 -116 -226t-323 -90q-106 0 -226.5 33t-212.5 103l65 90q81 -63 185.5 -92.5t194.5 -29.5q149 0 231 57t82 141
q0 131 -235 167l-96 15q-146 23 -222 89t-76 171q0 61 25 115.5t74 99.5t129.5 71.5t182.5 26.5q247 0 419 -123zM389 1459h120l153 -213l240 213h130l-303 -282h-149z" />
    <glyph glyph-name="zcaron.sc" horiz-adv-x="1077" 
d="M1063 1033l-18 -91l-839 -838h687l-21 -104h-839l20 93l838 836h-679l22 104h829zM390 1459h120l153 -213l240 213h130l-303 -282h-149z" />
    <glyph glyph-name="longs.sc" horiz-adv-x="1081" 
d="M1015 922l-61 -89q-152 107 -361 107q-143 0 -215.5 -58t-72.5 -136q0 -68 56.5 -109.5t172.5 -60.5l93 -15q145 -23 226 -86.5t81 -170.5q0 -136 -116 -226t-323 -90q-106 0 -226.5 33t-212.5 103l65 90q81 -63 185.5 -92.5t194.5 -29.5q149 0 231 57t82 141
q0 131 -235 167l-96 15q-146 23 -222 89t-76 171q0 61 25 115.5t74 99.5t129.5 71.5t182.5 26.5q247 0 419 -123z" />
    <glyph glyph-name="florin.sc" 
d="M915 580l-19 -90h-241l-59 -267q-26 -119 -86 -177t-160 -58q-99 0 -171 54l48 80q52 -38 120 -38q115 0 146 144l59 262h-219l19 90h220l52 231q27 118 86.5 175.5t159.5 57.5t171 -53l-50 -80q-51 38 -118 38q-116 0 -148 -145l-50 -224h240z" />
    <glyph glyph-name="uni0237.sc" horiz-adv-x="908" 
d="M843 1033l-141 -678q-77 -367 -405 -367q-98 0 -182.5 38.5t-132.5 100.5l73 78q38 -47 102.5 -78t139.5 -31q237 0 295 281l136 656h115z" />
    <glyph glyph-name="uni02BB.sc" horiz-adv-x="376" 
d="M246 587h-121l183 445h91z" />
    <glyph glyph-name="uni02BC.sc" horiz-adv-x="376" 
d="M274 1033h121l-183 -445h-91z" />
    <glyph glyph-name="gravecomb.sc" horiz-adv-x="1" 
d="M-542 1174l-251 300h144l220 -300h-113z" />
    <glyph glyph-name="acutecomb.sc" horiz-adv-x="1" 
d="M-549 1174h-118l253 300h148z" />
    <glyph glyph-name="uni0302.sc" horiz-adv-x="1" 
d="M-229 1180h-120l-154 213l-239 -213h-129l302 282h150z" />
    <glyph glyph-name="tildecomb.sc" horiz-adv-x="1" 
d="M-817 1235l-55 76q50 56 100.5 82t115.5 26q46 0 84.5 -13.5t60.5 -29.5t51.5 -29.5t59.5 -13.5q44 0 81 20.5t79 64.5l55 -76q-50 -56 -100.5 -82t-115.5 -26q-46 0 -84 13.5t-60 30t-51.5 30t-60.5 13.5q-44 0 -81 -21t-79 -65z" />
    <glyph glyph-name="uni0304.sc" horiz-adv-x="1" 
d="M-817 1272l20 93h585l-20 -93h-585z" />
    <glyph glyph-name="uni0306.sc" horiz-adv-x="1" 
d="M-820 1448l93 27q5 -97 57.5 -148.5t136.5 -51.5q163 0 258 200l91 -27q-127 -270 -359 -270q-119 0 -194.5 70.5t-82.5 199.5z" />
    <glyph glyph-name="uni0307.sc" horiz-adv-x="1" 
d="M-519 1399q35 0 58.5 -23.5t23.5 -58.5q0 -34 -23.5 -57.5t-58.5 -23.5t-58 23t-23 58t23.5 58.5t57.5 23.5z" />
    <glyph glyph-name="uni0308.sc" horiz-adv-x="1" 
d="M-721 1399q35 0 58.5 -23.5t23.5 -58.5q0 -34 -23.5 -57.5t-58.5 -23.5t-58 23t-23 58t23.5 58.5t57.5 23.5zM-312 1399q35 0 59 -24t24 -58t-24 -57.5t-59 -23.5q-34 0 -57.5 23t-23.5 58t23.5 58.5t57.5 23.5z" />
    <glyph glyph-name="uni030A.sc" horiz-adv-x="1" 
d="M-530 1158q-89 0 -152 62.5t-63 150.5t63 150.5t152 62.5t152 -62.5t63 -150.5t-63 -150.5t-152 -62.5zM-530 1231q57 0 97.5 40.5t40.5 99.5q0 58 -40.5 98.5t-97.5 40.5t-97.5 -40.5t-40.5 -98.5q0 -59 40.5 -99.5t97.5 -40.5z" />
    <glyph glyph-name="uni030B.sc" horiz-adv-x="1" 
d="M-340 1174h-118l257 300h138zM-681 1174h-120l246 300h133z" />
    <glyph glyph-name="uni030C.sc" horiz-adv-x="1" 
d="M-813 1459h120l153 -213l240 213h130l-303 -282h-149z" />
    <glyph glyph-name="uni0326.sc" horiz-adv-x="1" 
d="M-682 -88h127l-135 -341h-108z" />
    <glyph glyph-name="uni0327.sc" horiz-adv-x="1" 
d="M-467 5l-168 -328h-127l178 329z" />
    <glyph glyph-name="uni0328.sc" horiz-adv-x="1" 
d="M-483 -256l61 -74q-78 -82 -185 -82q-88 0 -144 45.5t-56 121.5q0 77 57.5 146t169.5 144l29 -45q-148 -127 -148 -223q0 -42 28 -66.5t74 -24.5q64 0 114 58z" />
    <glyph glyph-name="uni0335.sc" horiz-adv-x="1" 
d="M-310 578l-22 -103h-659l21 103h660z" />
    <glyph glyph-name="uni0336.sc" horiz-adv-x="1" 
d="M-75 431l-19 -90h-1133l19 90h1133z" />
    <glyph glyph-name="uni1E9E.sc" horiz-adv-x="1197" 
d="M72 0l145 683q35 164 155 263t303 99q143 0 254 -57t168 -148l-347 -287q147 -24 227 -104.5t66 -195.5q-10 -82 -66 -143t-141 -91.5t-188 -30.5q-159 0 -280 49l39 101q102 -46 239 -46q118 0 194 44t86 124q11 89 -70 148t-222 59h-46l17 83l346 283q-46 50 -120 78.5
t-163 28.5q-127 0 -219.5 -72.5t-119.5 -197.5l-142 -670h-115z" />
    <glyph glyph-name="quoteleft.sc" horiz-adv-x="376" 
d="M246 587h-121l183 445h91z" />
    <glyph glyph-name="quoteright.sc" horiz-adv-x="376" 
d="M274 1033h121l-183 -445h-91z" />
    <glyph glyph-name="quotesinglbase.sc" horiz-adv-x="367" 
d="M106 286h121l-183 -445h-91z" />
    <glyph glyph-name="quotedblleft.sc" horiz-adv-x="656" 
d="M526 587h-121l183 445h91zM246 587h-121l183 445h91z" />
    <glyph glyph-name="quotedblright.sc" horiz-adv-x="656" 
d="M554 1033h121l-183 -445h-91zM274 1033h121l-183 -445h-91z" />
    <glyph glyph-name="quotedblbase.sc" horiz-adv-x="647" 
d="M386 286h121l-183 -445h-91zM106 286h121l-183 -445h-91z" />
    <glyph glyph-name="dagger.sc" horiz-adv-x="578" 
d="M334 489h-83l66 312h-152l17 81h152l32 151h83l-32 -151h153l-18 -81h-152z" />
    <glyph glyph-name="daggerdbl.sc" horiz-adv-x="579" 
d="M335 489h-83l27 131h-152l16 76h152l28 130h-152l16 76h152l28 131h83l-28 -131h153l-16 -76h-153l-28 -130h153l-17 -76h-152z" />
    <glyph glyph-name="perthousand.sc" horiz-adv-x="2146" 
d="M438 1046q110 0 181 -68t71 -174q0 -116 -81 -198.5t-202 -82.5q-110 0 -181 68t-71 174q0 116 81.5 198.5t201.5 82.5zM434 961q-81 0 -134 -56t-53 -135q0 -70 46.5 -115.5t117.5 -45.5q81 0 134 55.5t53 134.5q0 71 -46.5 116.5t-117.5 45.5zM1238 1033l-811 -1033
h-113l811 1033h113zM1145 511q109 0 180.5 -68t71.5 -174q0 -116 -81.5 -198.5t-202.5 -82.5q-110 0 -181 68t-71 174q0 116 81.5 198.5t202.5 82.5zM1141 425q-81 0 -134 -55.5t-53 -134.5q0 -71 46 -116t117 -45q80 0 133.5 55.5t53.5 134.5q0 71 -46 116t-117 45z
M1758 511q110 0 181.5 -68t71.5 -174q0 -116 -81.5 -198.5t-202.5 -82.5q-110 0 -181 68t-71 174q0 116 81.5 198.5t201.5 82.5zM1755 425q-81 0 -134.5 -55.5t-53.5 -134.5q0 -71 46.5 -116t117.5 -45q80 0 133.5 55.5t53.5 134.5q0 71 -46 116t-117 45z" />
    <glyph glyph-name="minute.sc" horiz-adv-x="407" 
d="M319 1033h107l-202 -464h-107z" />
    <glyph glyph-name="second.sc" horiz-adv-x="653" 
d="M565 1033h107l-202 -464h-107zM319 1033h107l-202 -464h-107z" />
    <glyph glyph-name="uni2034.sc" horiz-adv-x="860" 
d="M545 1033h107l-202 -464h-107zM772 1033h107l-202 -464h-107zM319 1033h107l-202 -464h-107z" />
    <glyph glyph-name="uni2071.sc" horiz-adv-x="352" 
d="M331 1033l-164 -771h-93l164 771h93z" />
    <glyph glyph-name="uni207F.sc" horiz-adv-x="911" 
d="M886 1033l-164 -773h-88l-332 630l-133 -628h-93l164 772h88l332 -630l134 629h92z" />
    <glyph glyph-name="Euro.sc" 
d="M975 240l57 -75q-59 -84 -147 -129.5t-198 -45.5q-167 0 -285 96.5t-142 276.5h-137l15 77h117q0 47 6 101q2 18 8 52h-101l16 77h103q53 175 179.5 274.5t300.5 99.5q240 0 369 -178l-74 -73q-103 152 -300 152q-127 0 -220.5 -73t-139.5 -202h511l-17 -77h-515
q-6 -29 -9 -58q-5 -43 -5 -95h496l-15 -77h-474q24 -134 111.5 -204t205.5 -70q90 0 164 40t120 111z" />
    <glyph glyph-name="uni20BA.sc" 
d="M892 312l88 -53q-112 -261 -451 -261h-313l58 274l-166 -69l19 89l166 70l34 157l-167 -70l18 90l168 71l90 424h108l-80 -374l405 170l-18 -90l-406 -171l-34 -157l406 171l-17 -91l-408 -170l-46 -220h192q268 0 354 210z" />
    <glyph glyph-name="uni2116.sc" horiz-adv-x="2036" 
d="M1884 230l-22 -103h-650l22 103h650zM1662 1045q141 0 230.5 -86t89.5 -221q0 -148 -104.5 -254t-257.5 -106q-140 0 -229.5 86.5t-89.5 219.5q0 149 103.5 255t257.5 106zM1658 958q-112 0 -187 -78.5t-75 -189.5q0 -98 64 -161t164 -63q113 0 188 78t75 189
q0 99 -64 162t-165 63zM1216 1033l-219 -1033h-107l-502 860l-183 -860h-115l221 1033h106l501 -861l183 861h115z" />
    <glyph glyph-name="uni2117.sc" horiz-adv-x="1458" 
d="M700 -63q-150 0 -277 70t-202.5 196t-75.5 279q0 121 50 235t134 199.5t203 137.5t249 52q150 0 277 -70t202.5 -196t75.5 -279q0 -121 -50 -235t-134 -199.5t-203 -137.5t-249 -52zM775 1016q-146 0 -270.5 -74.5t-195 -196.5t-70.5 -258q0 -130 64 -236.5t171 -165
t232 -58.5q147 0 271.5 75t194.5 196.5t70 258.5q0 196 -137.5 327.5t-329.5 131.5zM839 825q113 0 169.5 -61t37.5 -150q-18 -87 -87 -129.5t-175 -42.5h-167l-48 -228h-88l130 611h228zM834 747h-153l-48 -229h152q152 0 173 104q11 56 -22 90.5t-102 34.5z" />
    <glyph glyph-name="uni2E38.sc" horiz-adv-x="578" 
d="M367 1033h83l-66 -312h152l-17 -81h-152l-32 -151h-83l32 151h-153l18 81h152z" />
    <glyph glyph-name="uniFB00.sc" horiz-adv-x="2084" 
d="M933 568l-22 -104h-607l-99 -464h-115l221 1033h735l-21 -104h-622l-77 -361h607zM1975 568l-22 -104h-607l-99 -464h-115l221 1033h735l-21 -104h-622l-77 -361h607z" />
    <glyph glyph-name="fi.sc" horiz-adv-x="1538" 
d="M933 568l-22 -104h-607l-99 -464h-115l221 1033h735l-21 -104h-622l-77 -361h607zM1467 1033l-220 -1033h-115l221 1033h114z" />
    <glyph glyph-name="fl.sc" horiz-adv-x="2008" 
d="M933 568l-22 -104h-607l-99 -464h-115l221 1033h735l-21 -104h-622l-77 -361h607zM1467 1033l-198 -927h623l-22 -106h-738l221 1033h114z" />
    <glyph glyph-name="uniFB03.sc" horiz-adv-x="2580" 
d="M933 568l-22 -104h-607l-99 -464h-115l221 1033h735l-21 -104h-622l-77 -361h607zM1975 568l-22 -104h-607l-99 -464h-115l221 1033h735l-21 -104h-622l-77 -361h607zM2509 1033l-220 -1033h-115l221 1033h114z" />
    <glyph glyph-name="uniFB04.sc" horiz-adv-x="3050" 
d="M933 568l-22 -104h-607l-99 -464h-115l221 1033h735l-21 -104h-622l-77 -361h607zM1975 568l-22 -104h-607l-99 -464h-115l221 1033h735l-21 -104h-622l-77 -361h607zM2509 1033l-198 -927h623l-22 -106h-738l221 1033h114z" />
    <glyph glyph-name="uniFB05.sc" horiz-adv-x="2008" 
d="M2089 1033l-22 -106h-378l-197 -927h-115l197 927h-380l21 106h874zM1015 922l-61 -89q-152 107 -361 107q-143 0 -215.5 -58t-72.5 -136q0 -68 56.5 -109.5t172.5 -60.5l93 -15q145 -23 226 -86.5t81 -170.5q0 -136 -116 -226t-323 -90q-106 0 -226.5 33t-212.5 103
l65 90q81 -63 185.5 -92.5t194.5 -29.5q149 0 231 57t82 141q0 131 -235 167l-96 15q-146 23 -222 89t-76 171q0 61 25 115.5t74 99.5t129.5 71.5t182.5 26.5q247 0 419 -123z" />
    <glyph glyph-name="uniFB06.sc" horiz-adv-x="2008" 
d="M1015 922l-61 -89q-152 107 -361 107q-143 0 -215.5 -58t-72.5 -136q0 -68 56.5 -109.5t172.5 -60.5l93 -15q145 -23 226 -86.5t81 -170.5q0 -136 -116 -226t-323 -90q-106 0 -226.5 33t-212.5 103l65 90q81 -63 185.5 -92.5t194.5 -29.5q149 0 231 57t82 141
q0 131 -235 167l-96 15q-146 23 -222 89t-76 171q0 61 25 115.5t74 99.5t129.5 71.5t182.5 26.5q247 0 419 -123zM2089 1033l-22 -106h-378l-197 -927h-115l197 927h-380l21 106h874z" />
    <glyph glyph-name="j.latn_NLD.sc" horiz-adv-x="908" 
d="M843 1033l-141 -678q-77 -367 -405 -367q-98 0 -182.5 38.5t-132.5 100.5l73 78q38 -47 102.5 -78t139.5 -31q237 0 295 281l136 656h115zM799 1174h-118l253 300h148z" />
    <glyph glyph-name="parenleft.case" horiz-adv-x="799" 
d="M783 1551l38 -102q-163 -48 -291.5 -193t-196 -336.5t-67.5 -391.5q0 -183 65 -330.5t188 -245.5l-60 -97q-154 116 -234.5 287.5t-80.5 383.5q0 223 78 436t226 373.5t335 215.5z" />
    <glyph glyph-name="parenright.case" horiz-adv-x="799" 
d="M-4 -149l-38 102q163 48 291.5 193t196 336.5t67.5 391.5q0 183 -65 330.5t-188 245.5l60 97q154 -116 234.5 -287.5t80.5 -383.5q0 -223 -78 -436t-226 -373.5t-335 -215.5z" />
    <glyph glyph-name="hyphen.case" horiz-adv-x="814" 
d="M734 751l-22 -103h-533l21 103h534z" />
    <glyph glyph-name="slash.case" horiz-adv-x="855" 
d="M973 1400l-855 -1400h-138l855 1400h138z" />
    <glyph glyph-name="at.case" horiz-adv-x="1980" 
d="M1358 110l47 -74q-194 -141 -454 -141q-152 0 -285.5 52t-231 144t-154 227t-56.5 293q0 179 68 342.5t185.5 283.5t284.5 191.5t355 71.5q206 0 370 -82.5t258 -235.5t94 -350q0 -150 -45 -271.5t-126.5 -192t-184.5 -70.5q-84 0 -137 45t-69 112q-120 -149 -306 -149
q-153 0 -251 96t-98 246q0 118 56.5 221.5t155.5 166t216 62.5q104 0 180.5 -45.5t114.5 -128.5l35 161h97l-102 -478q-9 -42 -9 -76q0 -68 34.5 -105.5t90.5 -37.5q107 0 176 126.5t69 315.5q0 172 -80.5 304t-223 203.5t-323.5 71.5q-165 0 -311 -64t-248 -171.5
t-161.5 -253t-59.5 -305.5q0 -143 49 -262t134 -198.5t200 -123.5t247 -44q229 0 399 123zM1054 1004q-138 0 -234 -104.5t-96 -245.5q0 -114 71 -185t183 -71q139 0 236 103.5t97 247.5q0 113 -72 184t-185 71z" />
    <glyph glyph-name="bracketleft.case" horiz-adv-x="738" 
d="M511 -26l-23 -106h-444l354 1663h444l-22 -106h-328l-309 -1451h328z" />
    <glyph glyph-name="backslash.case" horiz-adv-x="1452" 
d="M1174 0l-855 1400h138l855 -1400h-138z" />
    <glyph glyph-name="bracketright.case" horiz-adv-x="738" 
d="M256 1425l23 106h444l-354 -1663h-444l22 106h327l309 1451h-327z" />
    <glyph glyph-name="braceleft.case" horiz-adv-x="830" 
d="M955 1531l-22 -106h-46q-118 0 -188 -59.5t-91 -205.5l-20 -140q-19 -141 -85.5 -219t-175.5 -106q90 -34 123.5 -116.5t1.5 -199.5l-40 -145q-35 -127 12 -193t154 -66h66l-22 -106h-66q-163 0 -232 109t-22 283l36 131q33 125 -16.5 190t-163.5 65l22 106q125 0 197 63
t92 203l22 151q51 361 408 361h56z" />
    <glyph glyph-name="braceright.case" horiz-adv-x="830" 
d="M-27 -131l22 106h46q118 0 188 59.5t91 205.5l20 140q37 266 260 325q-89 34 -122.5 116t-1.5 200l40 145q35 127 -12 193t-154 66h-66l22 106h66q163 0 232 -109t22 -283l-36 -131q-33 -125 16.5 -190t163.5 -65l-22 -106q-125 0 -197 -63t-92 -203l-22 -151
q-51 -361 -408 -361h-56z" />
    <glyph glyph-name="exclamdown.case" horiz-adv-x="504" 
d="M83 0l224 965h98l-183 -965h-139zM427 1222q-38 0 -66.5 28.5t-28.5 66.5q0 39 28.5 68t66.5 29t67 -29t29 -68q0 -38 -29 -66.5t-67 -28.5z" />
    <glyph glyph-name="guillemotleft.case" horiz-adv-x="999" 
d="M976 1064l-280 -376l113 -352h-116l-116 364l270 364h129zM596 1064l-280 -376l113 -352h-116l-116 364l270 364h129z" />
    <glyph glyph-name="uni00AD.case" horiz-adv-x="814" 
d="M734 751l-22 -103h-533l21 103h534z" />
    <glyph glyph-name="periodcentered.case" horiz-adv-x="803" 
d="M414 796q38 0 66.5 -28.5t28.5 -67.5q0 -38 -28.5 -67t-66.5 -29t-67 29t-29 67q0 39 29 67.5t67 28.5z" />
    <glyph glyph-name="guillemotright.case" horiz-adv-x="997" 
d="M120 336l280 376l-113 352h116l116 -364l-270 -364h-129zM499 336l280 376l-113 352h116l116 -364l-270 -364h-129z" />
    <glyph glyph-name="questiondown.case" horiz-adv-x="827" 
d="M613 965h104l-65 -310h-63q-189 0 -289 -79t-100 -212q0 -121 104 -191t265 -70q8 0 62 3l-5 -117q-33 -3 -78 -3q-207 0 -342 99.5t-135 263.5q0 180 127.5 291t364.5 122zM733 1223q-39 0 -67.5 28.5t-28.5 67.5q0 38 28.5 67t67.5 29q38 0 67 -29t29 -67
q0 -39 -29 -67.5t-67 -28.5z" />
    <glyph glyph-name="gravecomb.case" horiz-adv-x="1" 
d="M-637 1497l-251 300h144l220 -300h-113z" />
    <glyph glyph-name="acutecomb.case" horiz-adv-x="1" 
d="M-788 1497h-118l253 300h148z" />
    <glyph glyph-name="uni0302.case" horiz-adv-x="1" 
d="M-385 1503h-120l-154 213l-239 -213h-129l302 282h150z" />
    <glyph glyph-name="tildecomb.case" horiz-adv-x="1" 
d="M-984 1566l-65 68q50 56 100.5 82t115.5 26q46 0 84.5 -13.5t60.5 -29.5t51.5 -29.5t59.5 -13.5q76 0 150 77l65 -68q-50 -56 -100.5 -82t-115.5 -26q-46 0 -84 13.5t-60 30t-51.5 30t-60.5 13.5q-74 0 -150 -78z" />
    <glyph glyph-name="uni0304.case" horiz-adv-x="1" 
d="M-1008 1595l20 93h585l-20 -93h-585z" />
    <glyph glyph-name="uni0306.case" horiz-adv-x="1" 
d="M-1024 1771l93 28q5 -98 57.5 -149.5t136.5 -51.5q163 0 258 201l91 -28q-127 -270 -359 -270q-119 0 -194.5 70.5t-82.5 199.5z" />
    <glyph glyph-name="uni0307.case" horiz-adv-x="1" 
d="M-706 1734q36 0 61 -25.5t25 -61.5t-25 -60.5t-61 -24.5q-37 0 -61 24.5t-24 60.5t24.5 61.5t60.5 25.5z" />
    <glyph glyph-name="uni0308.case" horiz-adv-x="1" 
d="M-911 1725q34 0 58 -24t24 -59q0 -34 -23.5 -57.5t-58.5 -23.5t-58 23.5t-23 57.5q0 35 23.5 59t57.5 24zM-502 1725q34 0 58.5 -24.5t24.5 -58.5t-24 -57.5t-59 -23.5q-34 0 -57.5 23.5t-23.5 57.5q0 35 23.5 59t57.5 24z" />
    <glyph glyph-name="uni030A.case" horiz-adv-x="1" 
d="M-706 1481q-89 0 -152 62.5t-63 150.5t63 150.5t152 62.5t152 -62.5t63 -150.5t-63 -150.5t-152 -62.5zM-706 1554q57 0 97.5 41t40.5 99t-40.5 98.5t-97.5 40.5t-97.5 -40.5t-40.5 -98.5t40.5 -99t97.5 -41z" />
    <glyph glyph-name="uni030B.case" horiz-adv-x="1" 
d="M-614 1497h-118l257 300h138zM-955 1497h-120l246 300h133z" />
    <glyph glyph-name="uni030C.case" horiz-adv-x="1" 
d="M-1027 1782h120l153 -213l240 213h130l-303 -281h-149z" />
    <glyph glyph-name="uni0326.case" horiz-adv-x="1" 
d="M-834 -88h127l-135 -341h-108z" />
    <glyph glyph-name="uni0327.case" horiz-adv-x="1" 
d="M-679 5l-168 -328h-132l178 329z" />
    <glyph glyph-name="uni0335.case" horiz-adv-x="1" 
d="M-472 763l-25 -116h-788l25 116h788z" />
    <glyph glyph-name="uni2010.case" horiz-adv-x="820" 
d="M734 751l-22 -103h-533l21 103h534z" />
    <glyph glyph-name="uni2011.case" horiz-adv-x="820" 
d="M734 751l-22 -103h-533l21 103h534z" />
    <glyph glyph-name="figuredash.case" 
d="M1125 751l-21 -103h-936l21 103h936z" />
    <glyph glyph-name="endash.case" horiz-adv-x="1177" 
d="M1116 751l-21 -103h-936l21 103h936z" />
    <glyph glyph-name="emdash.case" horiz-adv-x="1599" 
d="M1597 751l-20 -103h-1478l21 103h1477z" />
    <glyph glyph-name="bullet.case" horiz-adv-x="999" 
d="M480 891q78 0 134.5 -56t56.5 -135t-56.5 -135t-134.5 -56q-80 0 -135.5 56t-55.5 135q0 80 55.5 135.5t135.5 55.5z" />
    <glyph glyph-name="guilsinglleft.case" horiz-adv-x="619" 
d="M596 1064l-280 -376l113 -352h-116l-116 364l270 364h129z" />
    <glyph glyph-name="guilsinglright.case" horiz-adv-x="619" 
d="M134 336l280 376l-113 352h116l116 -364l-270 -364h-129z" />
    <glyph glyph-name="uni2E17.case" horiz-adv-x="937" 
d="M848 1009l-22 -106l-559 -203l23 106zM775 666l-22 -106l-560 -203l24 106z" />
    <glyph glyph-name="j.latn_NLD.case" horiz-adv-x="1100" 
d="M1103 1400l-192 -928q-51 -247 -182.5 -367t-332.5 -120q-125 0 -232.5 54t-168.5 142l89 80q48 -68 133 -113.5t184 -45.5q309 0 391 397l187 901h124zM1022 1497h-118l253 300h148z" />
    <glyph glyph-name="zero.zero" horiz-adv-x="1408" 
d="M856 1415q219 0 349.5 -149t130.5 -395q0 -122 -29.5 -247.5t-88.5 -239.5t-140 -203.5t-192 -142.5t-236 -53q-220 0 -350.5 149.5t-130.5 394.5q0 122 29.5 247t89 239.5t140 203.5t192 142.5t236.5 53.5zM850 1303q-103 0 -194 -47t-156 -125t-113 -178t-71 -206.5
t-23 -208.5q0 -91 22 -171l842 750q-46 90 -125.5 138t-181.5 48zM1212 862q0 88 -20 163l-840 -749q47 -86 125 -132.5t179 -46.5q128 0 236 71.5t176 184.5t106 246t38 263z" />
    <glyph glyph-name="zero.osf.zero" horiz-adv-x="1323" 
d="M702 1046q142 0 257.5 -59.5t184 -172t68.5 -257.5q0 -156 -73 -287t-205 -208.5t-296 -77.5q-217 0 -362.5 135t-145.5 353q0 157 72.5 288t204.5 208.5t295 77.5zM697 938q-131 0 -235 -62.5t-160 -167t-56 -229.5q0 -131 65 -225l659 588q-112 96 -273 96zM1095 551
q0 127 -65 222l-658 -587q109 -95 272 -95q131 0 235 63t160 167.5t56 229.5z" />
    <glyph glyph-name="zero.tf.zero" 
d="M757 1414q197 0 311.5 -129.5t114.5 -364.5q0 -139 -27.5 -274.5t-82.5 -254.5t-130.5 -209.5t-179.5 -143t-222 -52.5q-198 0 -312.5 129.5t-114.5 364.5q0 139 27.5 274.5t82.5 254.5t131 209.5t180 143t222 52.5zM1062 909q0 49 -6 93l-791 -705q34 -97 106 -147.5
t174 -50.5q95 0 179 47t144.5 127t105 184t66.5 219.5t22 232.5zM753 1301q-118 0 -218 -72t-164 -188.5t-99.5 -259.5t-35.5 -290q0 -50 6 -92l790 705q-35 96 -106.5 146.5t-172.5 50.5z" />
    <glyph glyph-name="zero.tosf.zero" 
d="M646 1045q208 0 343.5 -134t135.5 -349q0 -157 -68 -288.5t-193.5 -210t-282.5 -78.5q-207 0 -342.5 134.5t-135.5 348.5q0 157 68 288.5t193.5 210t281.5 78.5zM1008 555q0 116 -50 207l-635 -566q101 -106 264 -106q187 0 304 135t117 330zM641 940q-187 0 -304 -135
t-117 -330q0 -115 48 -205l635 566q-102 104 -262 104z" />
    <glyph glyph-name="zero.sc.zero" horiz-adv-x="1128" 
d="M647 1045q172 0 276.5 -111.5t104.5 -297.5q0 -113 -36 -226.5t-101.5 -208t-168 -154t-222.5 -59.5q-172 0 -276 111.5t-104 297.5q0 89 22.5 180t67.5 175t107 149.5t147.5 104.5t182.5 39zM642 940q-94 0 -173 -50t-129 -129t-77.5 -172t-27.5 -183q0 -64 13 -112
l615 529q-73 117 -221 117zM913 627q0 58 -14 111l-614 -529q73 -116 221 -116q94 0 173 49.5t129 128.5t77.5 172t27.5 184z" />
    <glyph glyph-name="a.ss01" horiz-adv-x="1081" 
d="M584 956q169 0 264 -84t95 -230q0 -50 -12 -106l-115 -536h-113l27 125q-68 -67 -158 -103.5t-187 -36.5q-138 0 -224 69t-86 184q0 130 102.5 217t303.5 87h337q10 44 10 88q0 107 -69 165t-194 58q-150 0 -293 -92l-43 90q162 105 355 105zM410 85q94 0 184.5 42
t159.5 118l43 202h-309q-148 0 -219.5 -58t-71.5 -140q0 -77 57.5 -120.5t155.5 -43.5z" />
    <glyph glyph-name="agrave.ss01" horiz-adv-x="1081" 
d="M584 956q169 0 264 -84t95 -230q0 -50 -12 -106l-115 -536h-113l27 125q-68 -67 -158 -103.5t-187 -36.5q-138 0 -224 69t-86 184q0 130 102.5 217t303.5 87h337q10 44 10 88q0 107 -69 165t-194 58q-150 0 -293 -92l-43 90q162 105 355 105zM410 85q94 0 184.5 42
t159.5 118l43 202h-309q-148 0 -219.5 -58t-71.5 -140q0 -77 57.5 -120.5t155.5 -43.5zM630 1082l-251 300h144l220 -300h-113z" />
    <glyph glyph-name="aacute.ss01" horiz-adv-x="1081" 
d="M584 956q169 0 264 -84t95 -230q0 -50 -12 -106l-115 -536h-113l27 125q-68 -67 -158 -103.5t-187 -36.5q-138 0 -224 69t-86 184q0 130 102.5 217t303.5 87h337q10 44 10 88q0 107 -69 165t-194 58q-150 0 -293 -92l-43 90q162 105 355 105zM410 85q94 0 184.5 42
t159.5 118l43 202h-309q-148 0 -219.5 -58t-71.5 -140q0 -77 57.5 -120.5t155.5 -43.5zM623 1083h-118l253 300h148z" />
    <glyph glyph-name="acircumflex.ss01" horiz-adv-x="1081" 
d="M584 956q169 0 264 -84t95 -230q0 -50 -12 -106l-115 -536h-113l27 125q-68 -67 -158 -103.5t-187 -36.5q-138 0 -224 69t-86 184q0 130 102.5 217t303.5 87h337q10 44 10 88q0 107 -69 165t-194 58q-150 0 -293 -92l-43 90q162 105 355 105zM410 85q94 0 184.5 42
t159.5 118l43 202h-309q-148 0 -219.5 -58t-71.5 -140q0 -77 57.5 -120.5t155.5 -43.5zM943 1088h-120l-154 213l-239 -213h-129l302 282h150z" />
    <glyph glyph-name="atilde.ss01" horiz-adv-x="1081" 
d="M584 956q169 0 264 -84t95 -230q0 -50 -12 -106l-115 -536h-113l27 125q-68 -67 -158 -103.5t-187 -36.5q-138 0 -224 69t-86 184q0 130 102.5 217t303.5 87h337q10 44 10 88q0 107 -69 165t-194 58q-150 0 -293 -92l-43 90q162 105 355 105zM410 85q94 0 184.5 42
t159.5 118l43 202h-309q-148 0 -219.5 -58t-71.5 -140q0 -77 57.5 -120.5t155.5 -43.5zM365 1151l-65 68q50 56 100.5 82t115.5 26q46 0 84.5 -13.5t60.5 -29.5t51.5 -29.5t59.5 -13.5q76 0 150 77l65 -68q-50 -56 -100.5 -82t-115.5 -26q-46 0 -84 13.5t-60 30t-51.5 30
t-60.5 13.5q-74 0 -150 -78z" />
    <glyph glyph-name="adieresis.ss01" horiz-adv-x="1081" 
d="M584 956q169 0 264 -84t95 -230q0 -50 -12 -106l-115 -536h-113l27 125q-68 -67 -158 -103.5t-187 -36.5q-138 0 -224 69t-86 184q0 130 102.5 217t303.5 87h337q10 44 10 88q0 107 -69 165t-194 58q-150 0 -293 -92l-43 90q162 105 355 105zM410 85q94 0 184.5 42
t159.5 118l43 202h-309q-148 0 -219.5 -58t-71.5 -140q0 -77 57.5 -120.5t155.5 -43.5zM453 1310q34 0 58 -24t24 -59q0 -34 -23.5 -57.5t-58.5 -23.5t-58 23t-23 58t23.5 59t57.5 24zM862 1310q34 0 58.5 -24t24.5 -59q0 -34 -24 -57.5t-59 -23.5q-34 0 -57.5 23t-23.5 58
t23.5 59t57.5 24z" />
    <glyph glyph-name="aring.ss01" horiz-adv-x="1081" 
d="M584 956q169 0 264 -84t95 -230q0 -50 -12 -106l-115 -536h-113l27 125q-68 -67 -158 -103.5t-187 -36.5q-138 0 -224 69t-86 184q0 130 102.5 217t303.5 87h337q10 44 10 88q0 107 -69 165t-194 58q-150 0 -293 -92l-43 90q162 105 355 105zM410 85q94 0 184.5 42
t159.5 118l43 202h-309q-148 0 -219.5 -58t-71.5 -140q0 -77 57.5 -120.5t155.5 -43.5zM635 1066q-89 0 -152 62.5t-63 150.5t63 150.5t152 62.5t152 -62.5t63 -150.5t-63 -150.5t-152 -62.5zM635 1139q57 0 97.5 41t40.5 99t-40.5 98.5t-97.5 40.5t-97.5 -40.5t-40.5 -98.5
t40.5 -99t97.5 -41z" />
    <glyph glyph-name="J.ss02" horiz-adv-x="828" 
d="M-58 10l43 110q59 -18 126 -18q153 0 260 96t149 300l189 902h125l-195 -930q-51 -243 -190 -364t-341 -121q-84 0 -166 25z" />
    <glyph glyph-name="IJ.ss02" horiz-adv-x="1352" 
d="M522 1400l-298 -1400h-124l298 1400h124zM466 10l43 110q59 -18 126 -18q153 0 260 96t149 300l189 902h125l-195 -930q-51 -243 -190 -364t-341 -121q-84 0 -166 25z" />
    <glyph glyph-name="j.sc.ss02" horiz-adv-x="692" 
d="M-61 7l36 101q51 -12 97 -12q114 0 193.5 68.5t109.5 210.5l139 658h115l-143 -677q-39 -186 -147.5 -277t-268.5 -91q-69 0 -131 19z" />
    <glyph glyph-name="ij.sc.ss02" horiz-adv-x="1188" 
d="M425 1033l-220 -1033h-115l221 1033h114zM435 7l36 101q51 -12 97 -12q114 0 193.5 68.5t109.5 210.5l139 658h115l-143 -677q-39 -186 -147.5 -277t-268.5 -91q-69 0 -131 19z" />
    <glyph glyph-name="uni0237.sc.ss02" horiz-adv-x="692" 
d="M-61 7l36 101q51 -12 97 -12q114 0 193.5 68.5t109.5 210.5l139 658h115l-143 -677q-39 -186 -147.5 -277t-268.5 -91q-69 0 -131 19z" />
    <glyph glyph-name="j.latn_NLD.sc.ss02" horiz-adv-x="692" 
d="M-61 7l36 101q51 -12 97 -12q114 0 193.5 68.5t109.5 210.5l139 658h115l-143 -677q-39 -186 -147.5 -277t-268.5 -91q-69 0 -131 19zM580 1174h-118l253 300h148z" />
    <glyph glyph-name="j.latn_NLD.case.ss02" horiz-adv-x="828" 
d="M-58 10l43 110q59 -18 126 -18q153 0 260 96t149 300l189 902h125l-195 -930q-51 -243 -190 -364t-341 -121q-84 0 -166 25zM752 1497h-118l253 300h148z" />
    <glyph glyph-name="seven.ss03" horiz-adv-x="1112" 
d="M1190 1400l-18 -97l-346 -548h266l-23 -108h-311l-407 -647h-140l413 650h-354l23 108h400l338 531h-790l24 111h925z" />
    <glyph glyph-name="seven.osf.ss03" horiz-adv-x="1067" 
d="M1109 1030l-18 -97l-345 -548h234l-23 -107h-278l-407 -648h-138l413 652h-368l23 107h413l336 531h-786l24 110h920z" />
    <glyph glyph-name="seven.tf.ss03" 
d="M1244 1400l-18 -97l-346 -548h266l-23 -108h-311l-407 -647h-140l413 650h-354l23 108h400l338 531h-790l24 111h925z" />
    <glyph glyph-name="seven.tosf.ss03" 
d="M1178 1030l-18 -97l-345 -548h234l-23 -107h-278l-407 -648h-138l413 652h-368l23 107h413l336 531h-786l24 110h920z" />
    <glyph glyph-name="seven.sc.ss03" horiz-adv-x="878" 
d="M911 1033l-17 -91l-250 -382h172l-21 -96h-214l-304 -464h-128l309 467h-278l21 97h321l243 367h-599l21 102h724z" />
    <glyph glyph-name="Z.ss04" horiz-adv-x="1310" 
d="M1370 1400l-20 -97l-512 -546h277l-24 -113h-359l-495 -528h898l-25 -116h-1062l23 103l512 545h-282l24 112h364l493 524h-889l25 116h1052z" />
    <glyph glyph-name="z.ss04" horiz-adv-x="1023" 
d="M993 941l-19 -87l-339 -333h198l-19 -88h-268l-335 -330h629l-22 -103h-784l18 89l358 348h-199l19 88h269l321 312h-620l23 104h770z" />
    <glyph glyph-name="Zcaron.ss04" horiz-adv-x="1310" 
d="M1370 1400l-20 -97l-512 -546h277l-24 -113h-359l-495 -528h898l-25 -116h-1062l23 103l512 545h-282l24 112h364l493 524h-889l25 116h1052zM568 1782h120l153 -213l240 213h130l-303 -281h-149z" />
    <glyph glyph-name="zcaron.ss04" horiz-adv-x="1023" 
d="M993 941l-19 -87l-339 -333h198l-19 -88h-268l-335 -330h629l-22 -103h-784l18 89l358 348h-199l19 88h269l321 312h-620l23 104h770zM346 1367h120l153 -213l240 213h130l-303 -281h-149z" />
    <glyph glyph-name="z.sc.ss04" horiz-adv-x="1077" 
d="M1063 1033l-18 -91l-378 -375h204l-21 -100h-278l-366 -363h687l-21 -104h-839l20 93l380 378h-209l20 99h284l363 359h-679l22 104h829z" />
    <glyph glyph-name="zcaron.sc.ss04" horiz-adv-x="1077" 
d="M1063 1033l-18 -91l-378 -375h204l-21 -100h-278l-366 -363h687l-21 -104h-839l20 93l380 378h-209l20 99h284l363 359h-679l22 104h829zM390 1459h120l153 -213l240 213h130l-303 -282h-149z" />
    <glyph glyph-name="Adieresis.ss05" horiz-adv-x="1406" 
d="M425 1415q35 0 58.5 -23.5t23.5 -58.5q0 -34 -23.5 -57.5t-58.5 -23.5t-58 23t-23 58t23.5 58.5t57.5 23.5zM1328 1415q34 0 58 -23.5t24 -58.5q0 -34 -23.5 -57.5t-58.5 -23.5q-34 0 -57.5 23t-23.5 58t23.5 58.5t57.5 23.5zM974 1400l285 -1400h-125l-82 409h-718
l-254 -409h-133l877 1400h150zM877 1279l-471 -754h622z" />
    <glyph glyph-name="Odieresis.ss05" horiz-adv-x="1662" 
d="M286 1415q35 0 59 -24t24 -58t-24 -57.5t-59 -23.5q-34 0 -57.5 23t-23.5 58t23.5 58.5t57.5 23.5zM1645 1415q35 0 59 -24t24 -58t-24 -57.5t-59 -23.5t-58 23t-23 58t23.5 58.5t57.5 23.5zM942 1415q187 0 337 -78t238.5 -226.5t88.5 -341.5q0 -212 -97 -391.5
t-273.5 -286.5t-395.5 -107q-187 0 -337.5 78.5t-239 227t-88.5 341.5q0 159 57.5 302.5t157.5 250t244 169t308 62.5zM932 1298q-136 0 -254.5 -53.5t-200 -143.5t-128 -210t-46.5 -251q0 -243 154.5 -390.5t392.5 -147.5q135 0 253.5 53.5t200 143t128 210t46.5 251.5
q0 243 -154.5 390.5t-391.5 147.5z" />
    <glyph glyph-name="Udieresis.ss05" horiz-adv-x="1457" 
d="M745 1415q35 0 58.5 -23.5t23.5 -58.5q0 -34 -23.5 -57.5t-58.5 -23.5t-58 23t-23 58t23.5 58.5t57.5 23.5zM1083 1415q35 0 58.5 -23.5t23.5 -58.5q0 -34 -23.5 -57.5t-58.5 -23.5t-58 23t-23 58t23.5 58.5t57.5 23.5zM1486 1400l-182 -860q-40 -189 -133 -315
t-220.5 -183t-289.5 -57q-101 0 -186.5 25.5t-151.5 76t-103.5 133t-37.5 188.5q0 75 17 153l179 839h125l-179 -837q-15 -68 -15 -135q0 -111 49 -186t129 -107.5t188 -32.5q191 0 325 111.5t181 335.5l180 851h125z" />
    <glyph glyph-name="hyphen.ss06" horiz-adv-x="881" 
d="M784 870l-22 -106l-559 -203l23 106zM711 527l-22 -106l-560 -203l24 106z" />
    <glyph glyph-name="hyphen.case.ss06" horiz-adv-x="937" 
d="M848 1009l-22 -106l-559 -203l23 106zM775 666l-22 -106l-560 -203l24 106z" />
    <glyph glyph-name="f.calt" horiz-adv-x="839" 
d="M876 941l-22 -104h-382l-178 -837h-115l178 837h-226l21 104h227l41 192q34 158 120.5 240t220.5 82q139 0 230 -76l-56 -89q-72 58 -175 58q-85 0 -144 -57t-84 -173l-38 -177h382z" />
    </font>
</defs>
</svg>
